# Blender 4.2.3 LTS
# www.blender.org
mtllib blackboard.mtl
o Cube.014
v -0.090870 0.070069 -0.001027
v -0.090870 0.070069 0.001027
v -0.090870 0.163581 -0.001027
v -0.090870 0.163581 0.001027
v 0.090870 0.070069 -0.001027
v 0.090870 0.070069 0.001027
v 0.090870 0.163581 -0.001027
v 0.090870 0.163581 0.001027
v 0.000000 0.000000 0.000000
v 0.000000 0.000000 0.000000
v 0.000000 0.000000 0.000000
v 0.000000 0.000000 0.000000
v 0.000000 0.000000 0.000000
v 0.000000 0.000000 0.000000
v 0.000000 0.000000 0.000000
v 0.000000 0.000000 0.000000
v -0.102325 0.001209 0.022520
v -0.102325 -0.001209 0.022520
v -0.102325 0.001209 -0.022520
v -0.102325 -0.001209 -0.022520
v -0.097675 0.001209 0.022520
v -0.097675 -0.001209 0.022520
v -0.097675 0.001209 -0.022520
v -0.097675 -0.001209 -0.022520
v 0.099388 0.021268 -0.000628
v 0.099388 0.019558 0.001082
v 0.099388 0.000567 -0.021328
v 0.099388 -0.001143 -0.019618
v 0.100612 0.021268 -0.000628
v 0.100612 0.019558 0.001082
v 0.100612 0.000567 -0.021328
v 0.100612 -0.001143 -0.019618
v -0.101327 0.000308 0.001209
v -0.101327 0.000308 -0.001209
v -0.101327 0.169624 0.001209
v -0.101327 0.169624 -0.001209
v -0.098673 0.000308 0.001209
v -0.098673 0.000308 -0.001209
v -0.098673 0.169624 0.001209
v -0.098673 0.169624 -0.001209
v 0.095507 0.167926 0.001969
v 0.095507 0.165508 0.001969
v -0.095507 0.167926 0.001969
v -0.095507 0.165508 0.001969
v 0.095507 0.167926 -0.001969
v 0.095507 0.165508 -0.001969
v -0.095507 0.167926 -0.001969
v -0.095507 0.165508 -0.001969
v 0.104342 0.035867 0.002468
v 0.104342 0.033449 0.002468
v -0.104342 0.035867 0.002468
v -0.104342 0.033449 0.002468
v 0.104342 0.035867 -0.002468
v 0.104342 0.033449 -0.002468
v -0.104342 0.035867 -0.002468
v -0.104342 0.033449 -0.002468
v 0.093673 0.066507 0.001209
v 0.093673 0.066507 -0.001209
v 0.093673 0.167143 0.001209
v 0.093673 0.167143 -0.001209
v 0.096327 0.066507 0.001209
v 0.096327 0.066507 -0.001209
v 0.096327 0.167143 0.001209
v 0.096327 0.167143 -0.001209
v -0.096327 0.066507 0.001209
v -0.096327 0.066507 -0.001209
v -0.096327 0.167143 0.001209
v -0.096327 0.167143 -0.001209
v -0.093673 0.066507 0.001209
v -0.093673 0.066507 -0.001209
v -0.093673 0.167143 0.001209
v -0.093673 0.167143 -0.001209
v 0.098673 0.000308 0.001209
v 0.098673 0.000308 -0.001209
v 0.098673 0.169624 0.001209
v 0.098673 0.169624 -0.001209
v 0.101327 0.000308 0.001209
v 0.101327 0.000308 -0.001209
v 0.101327 0.169624 0.001209
v 0.101327 0.169624 -0.001209
v 0.095507 0.067223 0.001969
v 0.095507 0.064805 0.001969
v -0.095507 0.067223 0.001969
v -0.095507 0.064805 0.001969
v 0.095507 0.067223 -0.001969
v 0.095507 0.064805 -0.001969
v -0.095507 0.067223 -0.001969
v -0.095507 0.064805 -0.001969
v 0.097675 0.001209 0.022520
v 0.097675 -0.001209 0.022520
v 0.097675 0.001209 -0.022520
v 0.097675 -0.001209 -0.022520
v 0.102325 0.001209 0.022520
v 0.102325 -0.001209 0.022520
v 0.102325 0.001209 -0.022520
v 0.102325 -0.001209 -0.022520
v -0.100612 0.000567 0.021328
v -0.100612 -0.001143 0.019618
v -0.100612 0.021268 0.000627
v -0.100612 0.019558 -0.001083
v -0.099388 0.000567 0.021328
v -0.099388 -0.001143 0.019618
v -0.099388 0.021268 0.000627
v -0.099388 0.019558 -0.001083
v 0.099388 0.000567 0.021328
v 0.099388 -0.001143 0.019618
v 0.099388 0.021268 0.000627
v 0.099388 0.019558 -0.001083
v 0.100612 0.000567 0.021328
v 0.100612 -0.001143 0.019618
v 0.100612 0.021268 0.000627
v 0.100612 0.019558 -0.001083
v -0.100612 0.021268 -0.000628
v -0.100612 0.019558 0.001082
v -0.100612 0.000567 -0.021328
v -0.100612 -0.001143 -0.019618
v -0.099388 0.021268 -0.000628
v -0.099388 0.019558 0.001082
v -0.099388 0.000567 -0.021328
v -0.099388 -0.001143 -0.019618
vn -1.0000 -0.0000 -0.0000
vn -0.0000 1.0000 -0.0000
vn 1.0000 -0.0000 -0.0000
vn -0.0000 -1.0000 -0.0000
vn -0.0000 -0.0000 -1.0000
vn -0.0000 -0.0000 1.0000
vn -0.0000 0.7071 0.7071
vn -0.0000 -0.7071 -0.7071
vn -0.0000 -0.7071 0.7071
vn -0.0000 0.7071 -0.7071
vt -0.000867 4.020060
vt 0.994204 3.002984
vt 0.995476 4.016375
vt -0.002139 3.006669
vt 0.992933 1.989592
vt -0.003411 1.993278
vt 0.991661 0.976201
vt -0.004683 0.979886
vt 0.990389 -0.037190
vt 1.988005 0.972516
vt 1.989276 1.985908
vt -0.999754 1.996962
vt -0.005955 -0.033505
vt -1.001026 0.983572
s 0
usemtl Material.001
f 2/1/1 3/2/1 1/3/1
f 4/4/2 7/5/2 3/2/2
f 8/6/3 5/7/3 7/5/3
f 6/8/4 1/9/4 5/7/4
f 7/5/5 1/10/5 3/11/5
f 4/12/6 6/8/6 8/6/6
f 9/3/6 12/4/6 11/2/6
f 11/2/6 16/6/6 15/5/6
f 15/5/6 14/8/6 13/7/6
f 13/7/6 10/13/6 9/9/6
f 11/11/6 13/7/6 9/10/6
f 16/6/6 10/14/6 14/8/6
f 18/1/3 19/2/3 17/3/3
f 20/4/6 23/5/6 19/2/6
f 24/6/1 21/7/1 23/5/1
f 22/8/5 17/9/5 21/7/5
f 23/5/4 17/10/4 19/11/4
f 20/12/2 22/8/2 24/6/2
f 25/3/3 28/4/3 27/2/3
f 28/4/7 31/5/7 27/2/7
f 32/6/1 29/7/1 31/5/1
f 30/8/8 25/9/8 29/7/8
f 31/5/9 25/10/9 27/11/9
f 28/12/10 30/8/10 32/6/10
f 34/1/3 35/2/3 33/3/3
f 36/4/4 39/5/4 35/2/4
f 40/6/1 37/7/1 39/5/1
f 38/8/2 33/9/2 37/7/2
f 39/5/5 33/10/5 35/11/5
f 36/12/6 38/8/6 40/6/6
f 42/1/5 43/2/5 41/3/5
f 44/4/3 47/5/3 43/2/3
f 48/6/6 45/7/6 47/5/6
f 46/8/1 41/9/1 45/7/1
f 47/5/4 41/10/4 43/11/4
f 44/12/2 46/8/2 48/6/2
f 50/1/5 51/2/5 49/3/5
f 52/4/3 55/5/3 51/2/3
f 56/6/6 53/7/6 55/5/6
f 54/8/1 49/9/1 53/7/1
f 55/5/4 49/10/4 51/11/4
f 52/12/2 54/8/2 56/6/2
f 58/1/3 59/2/3 57/3/3
f 60/4/4 63/5/4 59/2/4
f 64/6/1 61/7/1 63/5/1
f 62/8/2 57/9/2 61/7/2
f 63/5/5 57/10/5 59/11/5
f 60/12/6 62/8/6 64/6/6
f 66/1/3 67/2/3 65/3/3
f 68/4/4 71/5/4 67/2/4
f 72/6/1 69/7/1 71/5/1
f 70/8/2 65/9/2 69/7/2
f 71/5/5 65/10/5 67/11/5
f 68/12/6 70/8/6 72/6/6
f 74/1/3 75/2/3 73/3/3
f 76/4/4 79/5/4 75/2/4
f 80/6/1 77/7/1 79/5/1
f 78/8/2 73/9/2 77/7/2
f 79/5/5 73/10/5 75/11/5
f 76/12/6 78/8/6 80/6/6
f 82/1/5 83/2/5 81/3/5
f 84/4/3 87/5/3 83/2/3
f 88/6/6 85/7/6 87/5/6
f 86/8/1 81/9/1 85/7/1
f 87/5/4 81/10/4 83/11/4
f 84/12/2 86/8/2 88/6/2
f 90/1/3 91/2/3 89/3/3
f 92/4/6 95/5/6 91/2/6
f 96/6/1 93/7/1 95/5/1
f 94/8/5 89/9/5 93/7/5
f 95/5/4 89/10/4 91/11/4
f 92/12/2 94/8/2 96/6/2
f 98/1/3 99/2/3 97/3/3
f 100/4/9 103/5/9 99/2/9
f 103/5/1 102/8/1 101/7/1
f 102/8/10 97/9/10 101/7/10
f 103/5/8 97/10/8 99/11/8
f 100/12/7 102/8/7 104/6/7
f 106/1/3 107/2/3 105/3/3
f 108/4/9 111/5/9 107/2/9
f 111/5/1 110/8/1 109/7/1
f 110/8/10 105/9/10 109/7/10
f 111/5/8 105/10/8 107/11/8
f 108/12/7 110/8/7 112/6/7
f 113/3/3 116/4/3 115/2/3
f 116/4/7 119/5/7 115/2/7
f 120/6/1 117/7/1 119/5/1
f 118/8/8 113/9/8 117/7/8
f 119/5/9 113/10/9 115/11/9
f 116/12/10 118/8/10 120/6/10
f 2/1/1 4/4/1 3/2/1
f 4/4/2 8/6/2 7/5/2
f 8/6/3 6/8/3 5/7/3
f 6/8/4 2/13/4 1/9/4
f 7/5/5 5/7/5 1/10/5
f 4/12/6 2/14/6 6/8/6
f 9/3/6 10/1/6 12/4/6
f 11/2/6 12/4/6 16/6/6
f 15/5/6 16/6/6 14/8/6
f 13/7/6 14/8/6 10/13/6
f 11/11/6 15/5/6 13/7/6
f 16/6/6 12/12/6 10/14/6
f 18/1/3 20/4/3 19/2/3
f 20/4/6 24/6/6 23/5/6
f 24/6/1 22/8/1 21/7/1
f 22/8/5 18/13/5 17/9/5
f 23/5/4 21/7/4 17/10/4
f 20/12/2 18/14/2 22/8/2
f 25/3/3 26/1/3 28/4/3
f 28/4/7 32/6/7 31/5/7
f 32/6/1 30/8/1 29/7/1
f 30/8/8 26/13/8 25/9/8
f 31/5/9 29/7/9 25/10/9
f 28/12/10 26/14/10 30/8/10
f 34/1/3 36/4/3 35/2/3
f 36/4/4 40/6/4 39/5/4
f 40/6/1 38/8/1 37/7/1
f 38/8/2 34/13/2 33/9/2
f 39/5/5 37/7/5 33/10/5
f 36/12/6 34/14/6 38/8/6
f 42/1/5 44/4/5 43/2/5
f 44/4/3 48/6/3 47/5/3
f 48/6/6 46/8/6 45/7/6
f 46/8/1 42/13/1 41/9/1
f 47/5/4 45/7/4 41/10/4
f 44/12/2 42/14/2 46/8/2
f 50/1/5 52/4/5 51/2/5
f 52/4/3 56/6/3 55/5/3
f 56/6/6 54/8/6 53/7/6
f 54/8/1 50/13/1 49/9/1
f 55/5/4 53/7/4 49/10/4
f 52/12/2 50/14/2 54/8/2
f 58/1/3 60/4/3 59/2/3
f 60/4/4 64/6/4 63/5/4
f 64/6/1 62/8/1 61/7/1
f 62/8/2 58/13/2 57/9/2
f 63/5/5 61/7/5 57/10/5
f 60/12/6 58/14/6 62/8/6
f 66/1/3 68/4/3 67/2/3
f 68/4/4 72/6/4 71/5/4
f 72/6/1 70/8/1 69/7/1
f 70/8/2 66/13/2 65/9/2
f 71/5/5 69/7/5 65/10/5
f 68/12/6 66/14/6 70/8/6
f 74/1/3 76/4/3 75/2/3
f 76/4/4 80/6/4 79/5/4
f 80/6/1 78/8/1 77/7/1
f 78/8/2 74/13/2 73/9/2
f 79/5/5 77/7/5 73/10/5
f 76/12/6 74/14/6 78/8/6
f 82/1/5 84/4/5 83/2/5
f 84/4/3 88/6/3 87/5/3
f 88/6/6 86/8/6 85/7/6
f 86/8/1 82/13/1 81/9/1
f 87/5/4 85/7/4 81/10/4
f 84/12/2 82/14/2 86/8/2
f 90/1/3 92/4/3 91/2/3
f 92/4/6 96/6/6 95/5/6
f 96/6/1 94/8/1 93/7/1
f 94/8/5 90/13/5 89/9/5
f 95/5/4 93/7/4 89/10/4
f 92/12/2 90/14/2 94/8/2
f 98/1/3 100/4/3 99/2/3
f 100/4/9 104/6/9 103/5/9
f 103/5/1 104/6/1 102/8/1
f 102/8/10 98/13/10 97/9/10
f 103/5/8 101/7/8 97/10/8
f 100/12/7 98/14/7 102/8/7
f 106/1/3 108/4/3 107/2/3
f 108/4/9 112/6/9 111/5/9
f 111/5/1 112/6/1 110/8/1
f 110/8/10 106/13/10 105/9/10
f 111/5/8 109/7/8 105/10/8
f 108/12/7 106/14/7 110/8/7
f 113/3/3 114/1/3 116/4/3
f 116/4/7 120/6/7 119/5/7
f 120/6/1 118/8/1 117/7/1
f 118/8/8 114/13/8 113/9/8
f 119/5/9 117/7/9 113/10/9
f 116/12/10 114/14/10 118/8/10
