# Blender 4.2.3 LTS
# www.blender.org
mtllib ceilingfan_2.mtl
o defaultMaterial.002
v -248.949249 1.064330 -20.387985
v -241.738129 1.064340 0.000013
v -97.520332 1.064340 0.000013
v -79.099243 1.064335 -13.437086
v -77.463242 1.064331 -17.560286
v -77.006439 1.064330 -19.670586
v -77.882439 1.064330 -21.188086
v -79.783134 1.064329 -21.578684
v -244.613724 1.064329 -21.578684
v -77.463242 1.064346 17.560411
v -77.463242 -1.064251 17.560411
v -79.099243 -1.064255 13.437212
v -79.099243 1.064346 13.437212
v -248.949249 1.064348 20.388012
v -248.949249 -1.064249 20.388012
v -244.613724 -1.064249 21.578812
v -244.613724 1.064352 21.578812
v -77.463242 -1.064251 17.560411
v -77.006439 -1.064250 19.670612
v -77.882439 -1.064249 21.188211
v -79.783134 -1.064249 21.578812
v -244.613724 -1.064249 21.578812
v -248.949249 -1.064249 20.388012
v -241.738129 -1.064261 0.000013
v -97.520332 -1.064261 0.000013
v -79.099243 -1.064255 13.437212
v -79.783134 -1.064249 21.578812
v -79.783134 1.064352 21.578812
v -79.783134 1.064329 -21.578684
v -79.783134 -1.064272 -21.578684
v -244.613724 -1.064272 -21.578684
v -244.613724 1.064329 -21.578684
v -244.613724 1.064352 21.578812
v -79.783134 1.064352 21.578812
v -77.882439 1.064352 21.188211
v -77.006439 1.064347 19.670612
v -77.463242 1.064346 17.560411
v -79.099243 1.064346 13.437212
v -248.949249 1.064348 20.388012
v -81.380936 1.064340 5.074511
v -81.380936 1.064337 -5.074487
v -79.099243 -1.064266 -13.437086
v -81.380936 -1.064261 -5.074386
v -81.380936 -1.064257 5.074513
v -79.099243 -1.064266 -13.437086
v -79.099243 1.064335 -13.437086
v -81.380936 1.064337 -5.074487
v -81.380936 -1.064261 -5.074386
v -81.380936 1.064340 5.074511
v -81.380936 -1.064257 5.074513
v -248.949249 -1.064268 -20.387985
v -244.613724 -1.064272 -21.578684
v -79.783134 -1.064272 -21.578684
v -77.882439 -1.064272 -21.188086
v -77.006439 -1.064267 -19.670586
v -77.463242 -1.064266 -17.560286
v -77.006439 1.064347 19.670612
v -77.006439 -1.064250 19.670612
v -77.006439 -1.064250 19.670612
v -77.006439 1.064347 19.670612
v -77.882439 1.064352 21.188211
v -77.882439 -1.064249 21.188211
v -77.882439 -1.064249 21.188211
v -77.882439 1.064352 21.188211
v -77.882439 1.064330 -21.188086
v -77.882439 -1.064272 -21.188086
v -77.882439 -1.064272 -21.188086
v -77.882439 1.064330 -21.188086
v -77.006439 1.064330 -19.670586
v -77.006439 -1.064267 -19.670586
v -77.006439 -1.064267 -19.670586
v -77.006439 1.064330 -19.670586
v -77.463242 1.064331 -17.560286
v -77.463242 -1.064266 -17.560286
v -253.754745 1.064335 -14.523786
v -257.182648 1.064335 -7.655687
v -258.447723 1.064340 0.000013
v -257.182648 1.064342 7.655711
v -253.754745 1.064346 14.523813
v -253.754745 -1.064255 14.523813
v -257.182648 -1.064255 7.655713
v -258.447723 -1.064261 0.000013
v -257.182648 -1.064263 -7.655686
v -253.754745 -1.064266 -14.523786
v -248.949249 -1.064249 20.388012
v -248.949249 1.064348 20.388012
v -253.754745 1.064346 14.523813
v -253.754745 -1.064255 14.523813
v -257.182648 1.064342 7.655711
v -257.182648 -1.064255 7.655713
v -258.447723 1.064340 0.000013
v -258.447723 -1.064261 0.000013
v -257.182648 1.064335 -7.655687
v -257.182648 -1.064263 -7.655686
v -253.754745 1.064335 -14.523786
v -253.754745 -1.064266 -14.523786
v -248.949249 1.064330 -20.387985
v -248.949249 -1.064268 -20.387985
v -248.949249 -1.064268 -20.387985
v -248.949249 1.064330 -20.387985
v -49.391937 1.064439 219.945175
v -29.003939 1.064438 212.734177
v -29.003939 1.064369 68.516411
v -42.441040 1.064364 50.095406
v -46.564240 1.064364 48.459309
v -48.674538 1.064364 48.002510
v -50.192039 1.064364 48.878609
v -50.582634 1.064364 50.779205
v -50.582634 1.064438 215.609772
v -11.443537 1.064364 48.459309
v -11.443537 -1.064238 48.459309
v -15.566739 -1.064238 50.095406
v -15.566739 1.064364 50.095406
v -8.615940 1.064439 219.945175
v -8.615940 -1.064159 219.945175
v -7.425140 -1.064164 215.609772
v -7.425140 1.064438 215.609772
v -11.443537 -1.064238 48.459309
v -9.333338 -1.064238 48.002510
v -7.815737 -1.064238 48.878609
v -7.425140 -1.064238 50.779205
v -7.425140 -1.064164 215.609772
v -8.615940 -1.064159 219.945175
v -29.003939 -1.064164 212.734177
v -29.003939 -1.064228 68.516411
v -15.566739 -1.064238 50.095406
v -7.425140 -1.064238 50.779205
v -7.425140 1.064364 50.779205
v -50.582634 1.064364 50.779205
v -50.582634 -1.064238 50.779205
v -50.582634 -1.064164 215.609772
v -50.582634 1.064438 215.609772
v -7.425140 1.064438 215.609772
v -7.425140 1.064364 50.779205
v -7.815737 1.064364 48.878609
v -9.333338 1.064364 48.002510
v -11.443537 1.064364 48.459309
v -15.566739 1.064364 50.095406
v -8.615940 1.064439 219.945175
v -23.929440 1.064364 52.377106
v -34.078438 1.064364 52.377106
v -42.441040 -1.064238 50.095406
v -34.078438 -1.064238 52.377106
v -23.929440 -1.064238 52.377106
v -42.441040 -1.064238 50.095406
v -42.441040 1.064364 50.095406
v -34.078438 1.064364 52.377106
v -34.078438 -1.064238 52.377106
v -23.929440 1.064364 52.377106
v -23.929440 -1.064238 52.377106
v -49.391937 -1.064159 219.945175
v -50.582634 -1.064164 215.609772
v -50.582634 -1.064238 50.779205
v -50.192039 -1.064238 48.878609
v -48.674538 -1.064238 48.002510
v -46.564240 -1.064238 48.459309
v -9.333338 1.064364 48.002510
v -9.333338 -1.064238 48.002510
v -9.333338 -1.064238 48.002510
v -9.333338 1.064364 48.002510
v -7.815737 1.064364 48.878609
v -7.815737 -1.064238 48.878609
v -7.815737 -1.064238 48.878609
v -7.815737 1.064364 48.878609
v -50.192039 1.064364 48.878609
v -50.192039 -1.064238 48.878609
v -50.192039 -1.064238 48.878609
v -50.192039 1.064364 48.878609
v -48.674538 1.064364 48.002510
v -48.674538 -1.064238 48.002510
v -48.674538 -1.064238 48.002510
v -48.674538 1.064364 48.002510
v -46.564240 1.064364 48.459309
v -46.564240 -1.064238 48.459309
v -43.527740 1.064443 224.750793
v -36.659637 1.064443 228.178787
v -29.003939 1.064443 229.443771
v -21.348238 1.064443 228.178787
v -14.480139 1.064443 224.750793
v -14.480139 -1.064158 224.750793
v -21.348238 -1.064158 228.178787
v -29.003939 -1.064158 229.443771
v -36.659637 -1.064158 228.178787
v -43.527740 -1.064158 224.750793
v -8.615940 -1.064159 219.945175
v -8.615940 1.064439 219.945175
v -14.480139 1.064443 224.750793
v -14.480139 -1.064158 224.750793
v -21.348238 1.064443 228.178787
v -21.348238 -1.064158 228.178787
v -29.003939 1.064443 229.443771
v -29.003939 -1.064158 229.443771
v -36.659637 1.064443 228.178787
v -36.659637 -1.064158 228.178787
v -43.527740 1.064443 224.750793
v -43.527740 -1.064158 224.750793
v -49.391937 1.064439 219.945175
v -49.391937 -1.064159 219.945175
v -49.391937 -1.064159 219.945175
v -49.391937 1.064439 219.945175
v 190.941254 1.064348 20.388012
v 183.730255 1.064340 0.000013
v 39.512459 1.064340 0.000013
v 21.091364 1.064346 13.437212
v 19.455362 1.064346 17.560312
v 18.998560 1.064347 19.670612
v 19.874662 1.064352 21.188112
v 21.775259 1.064352 21.578711
v 186.605850 1.064352 21.578711
v 19.455362 1.064331 -17.560385
v 19.455362 -1.064266 -17.560385
v 21.091364 -1.064266 -13.437186
v 21.091364 1.064335 -13.437186
v 190.941254 1.064330 -20.387985
v 190.941254 -1.064268 -20.387985
v 186.605850 -1.064272 -21.578785
v 186.605850 1.064329 -21.578785
v 19.455362 -1.064266 -17.560385
v 18.998560 -1.064267 -19.670586
v 19.874662 -1.064272 -21.188185
v 21.775259 -1.064272 -21.578785
v 186.605850 -1.064272 -21.578785
v 190.941254 -1.064268 -20.387985
v 183.730255 -1.064261 0.000013
v 39.512459 -1.064261 0.000013
v 21.091364 -1.064266 -13.437186
v 21.775259 -1.064272 -21.578785
v 21.775259 1.064329 -21.578785
v 21.775259 1.064352 21.578711
v 21.775259 -1.064249 21.578711
v 186.605850 -1.064249 21.578711
v 186.605850 1.064352 21.578711
v 186.605850 1.064329 -21.578785
v 21.775259 1.064329 -21.578785
v 19.874662 1.064330 -21.188185
v 18.998560 1.064330 -19.670586
v 19.455362 1.064331 -17.560385
v 21.091364 1.064335 -13.437186
v 190.941254 1.064330 -20.387985
v 23.373159 1.064337 -5.074487
v 23.373159 1.064340 5.074511
v 21.091364 -1.064255 13.437212
v 23.373159 -1.064257 5.074513
v 23.373159 -1.064261 -5.074486
v 21.091364 -1.064255 13.437212
v 21.091364 1.064346 13.437212
v 23.373159 1.064340 5.074511
v 23.373159 -1.064257 5.074513
v 23.373159 1.064337 -5.074487
v 23.373159 -1.064261 -5.074486
v 190.941254 -1.064249 20.388012
v 186.605850 -1.064249 21.578711
v 21.775259 -1.064249 21.578711
v 19.874662 -1.064249 21.188112
v 18.998560 -1.064250 19.670612
v 19.455362 -1.064251 17.560312
v 18.998560 1.064330 -19.670586
v 18.998560 -1.064267 -19.670586
v 18.998560 -1.064267 -19.670586
v 18.998560 1.064330 -19.670586
v 19.874662 1.064330 -21.188185
v 19.874662 -1.064272 -21.188185
v 19.874662 -1.064272 -21.188185
v 19.874662 1.064330 -21.188185
v 19.874662 1.064352 21.188112
v 19.874662 -1.064249 21.188112
v 19.874662 -1.064249 21.188112
v 19.874662 1.064352 21.188112
v 18.998560 1.064347 19.670612
v 18.998560 -1.064250 19.670612
v 18.998560 -1.064250 19.670612
v 18.998560 1.064347 19.670612
v 19.455362 1.064346 17.560312
v 19.455362 -1.064251 17.560312
v 195.746872 1.064346 14.523813
v 199.174881 1.064342 7.655711
v 200.439850 1.064340 0.000013
v 199.174881 1.064335 -7.655687
v 195.746872 1.064335 -14.523786
v 195.746872 -1.064266 -14.523786
v 199.174881 -1.064263 -7.655686
v 200.439850 -1.064261 0.000013
v 199.174881 -1.064255 7.655713
v 195.746872 -1.064255 14.523813
v 190.941254 -1.064268 -20.387985
v 190.941254 1.064330 -20.387985
v 195.746872 1.064335 -14.523786
v 195.746872 -1.064266 -14.523786
v 199.174881 1.064335 -7.655687
v 199.174881 -1.064263 -7.655686
v 200.439850 1.064340 0.000013
v 200.439850 -1.064261 0.000013
v 199.174881 1.064342 7.655711
v 199.174881 -1.064255 7.655713
v 195.746872 1.064346 14.523813
v 195.746872 -1.064255 14.523813
v 190.941254 1.064348 20.388012
v 190.941254 -1.064249 20.388012
v 190.941254 -1.064249 20.388012
v 190.941254 1.064348 20.388012
v -8.615940 1.064239 -219.945175
v -29.003939 1.064243 -212.734177
v -29.003939 1.064308 -68.516380
v -15.566739 1.064317 -50.095287
v -11.443636 1.064317 -48.459286
v -9.333338 1.064317 -48.002384
v -7.815838 1.064317 -48.878479
v -7.425241 1.064317 -50.779182
v -7.425241 1.064243 -215.609772
v -46.564339 1.064317 -48.459286
v -46.564339 -1.064284 -48.459286
v -42.441139 -1.064284 -50.095287
v -42.441139 1.064317 -50.095287
v -49.391937 1.064239 -219.945175
v -49.391937 -1.064359 -219.945175
v -50.582737 -1.064358 -215.609772
v -50.582737 1.064243 -215.609772
v -46.564339 -1.064284 -48.459286
v -48.674538 -1.064284 -48.002384
v -50.192139 -1.064284 -48.878479
v -50.582737 -1.064284 -50.779182
v -50.582737 -1.064358 -215.609772
v -49.391937 -1.064359 -219.945175
v -29.003939 -1.064358 -212.734177
v -29.003939 -1.064289 -68.516380
v -42.441139 -1.064284 -50.095287
v -50.582737 -1.064284 -50.779182
v -50.582737 1.064317 -50.779182
v -7.425241 1.064317 -50.779182
v -7.425241 -1.064284 -50.779182
v -7.425241 -1.064358 -215.609772
v -7.425241 1.064243 -215.609772
v -50.582737 1.064243 -215.609772
v -50.582737 1.064317 -50.779182
v -50.192139 1.064317 -48.878479
v -48.674538 1.064317 -48.002384
v -46.564339 1.064317 -48.459286
v -42.441139 1.064317 -50.095287
v -49.391937 1.064239 -219.945175
v -34.078438 1.064317 -52.376984
v -23.929440 1.064317 -52.376984
v -15.566739 -1.064284 -50.095287
v -23.929440 -1.064284 -52.376984
v -34.078438 -1.064284 -52.376984
v -15.566739 -1.064284 -50.095287
v -15.566739 1.064317 -50.095287
v -23.929440 1.064317 -52.376984
v -23.929440 -1.064284 -52.376984
v -34.078438 1.064317 -52.376984
v -34.078438 -1.064284 -52.376984
v -8.615940 -1.064359 -219.945175
v -7.425241 -1.064358 -215.609772
v -7.425241 -1.064284 -50.779182
v -7.815838 -1.064284 -48.878479
v -9.333338 -1.064284 -48.002384
v -11.443636 -1.064284 -48.459286
v -48.674538 1.064317 -48.002384
v -48.674538 -1.064284 -48.002384
v -48.674538 -1.064284 -48.002384
v -48.674538 1.064317 -48.002384
v -50.192139 1.064317 -48.878479
v -50.192139 -1.064284 -48.878479
v -50.192139 -1.064284 -48.878479
v -50.192139 1.064317 -48.878479
v -7.815838 1.064317 -48.878479
v -7.815838 -1.064284 -48.878479
v -7.815838 -1.064284 -48.878479
v -7.815838 1.064317 -48.878479
v -9.333338 1.064317 -48.002384
v -9.333338 -1.064284 -48.002384
v -9.333338 -1.064284 -48.002384
v -9.333338 1.064317 -48.002384
v -11.443636 1.064317 -48.459286
v -11.443636 -1.064284 -48.459286
v -14.480139 1.064238 -224.750793
v -21.348238 1.064238 -228.178680
v -29.003939 1.064238 -229.443771
v -36.659737 1.064238 -228.178680
v -43.527740 1.064238 -224.750793
v -43.527740 -1.064363 -224.750793
v -36.659737 -1.064363 -228.178680
v -29.003939 -1.064363 -229.443771
v -21.348238 -1.064363 -228.178680
v -14.480139 -1.064363 -224.750793
v -49.391937 -1.064359 -219.945175
v -49.391937 1.064239 -219.945175
v -43.527740 1.064238 -224.750793
v -43.527740 -1.064363 -224.750793
v -36.659737 1.064238 -228.178680
v -36.659737 -1.064363 -228.178680
v -29.003939 1.064238 -229.443771
v -29.003939 -1.064363 -229.443771
v -21.348238 1.064238 -228.178680
v -21.348238 -1.064363 -228.178680
v -14.480139 1.064238 -224.750793
v -14.480139 -1.064363 -224.750793
v -8.615940 1.064239 -219.945175
v -8.615940 -1.064359 -219.945175
v -8.615940 -1.064359 -219.945175
v -8.615940 1.064239 -219.945175
v -95.000832 -1.861960 -3.336886
v -95.000832 -1.861960 3.336813
v -95.000832 1.861940 3.336912
v -95.000832 1.861940 -3.336887
v -82.237137 -1.861965 -10.436285
v -82.237137 1.861934 -10.436287
v -77.472839 1.861935 -6.722788
v -77.472839 -1.861964 -6.722786
v -74.947433 -1.861965 -9.303985
v -74.947433 1.861934 -9.303987
v -44.401237 1.861934 -9.303987
v -44.401237 -1.861965 -9.303985
v -95.000832 1.861940 -3.336887
v -95.000832 1.861940 3.336912
v -82.953239 1.861946 13.049410
v -82.237137 1.861946 10.436311
v -82.237137 1.861934 -10.436287
v -82.953239 1.861934 -13.049386
v -82.237137 -1.861965 -10.436285
v -77.472839 -1.861964 -6.722786
v -77.472839 -1.861959 6.722813
v -82.237137 -1.861954 10.436313
v -77.472839 1.861935 -6.722788
v -77.472839 1.861941 6.722812
v -77.472839 -1.861959 6.722813
v -77.472839 1.861941 6.722812
v -82.237137 1.861946 10.436311
v -82.237137 -1.861954 10.436313
v -95.000832 -1.861960 -3.336886
v -82.953239 -1.861965 -13.049385
v -82.953239 -1.861954 13.049412
v -95.000832 -1.861960 3.336813
v -82.953239 -1.861965 -13.049385
v -82.953239 1.861934 -13.049386
v -82.953239 -1.861954 13.049412
v -82.953239 1.861946 13.049410
v -95.000832 1.861940 3.336912
v -95.000832 -1.861960 3.336813
v -82.953239 -1.861954 13.049412
v -82.237137 -1.861954 10.436313
v -82.237137 1.861946 10.436311
v -82.953239 1.861946 13.049410
v -82.953239 -1.861965 -13.049385
v -95.000832 -1.861960 -3.336886
v -95.000832 1.861940 -3.336887
v -82.953239 1.861934 -13.049386
v -44.401237 -1.861965 -9.303985
v -44.401237 1.861934 -9.303987
v -44.401237 1.861946 9.304011
v -44.401237 -1.861954 9.304013
v -74.947433 1.861946 9.304011
v -74.947433 -1.861954 9.304013
v -44.401237 -1.861954 9.304013
v -44.401237 1.861946 9.304011
v -74.947433 -1.861954 9.304013
v -74.947433 -1.861965 -9.303985
v -44.401237 -1.861965 -9.303985
v -44.401237 -1.861954 9.304013
v -74.947433 1.861934 -9.303987
v -74.947433 1.861946 9.304011
v -44.401237 1.861946 9.304011
v -44.401237 1.861934 -9.303987
v -77.472839 1.861941 6.722812
v -77.472839 -1.861959 6.722813
v -74.947433 -1.861954 9.304013
v -74.947433 1.861946 9.304011
v -77.472839 -1.861964 -6.722786
v -77.472839 1.861935 -6.722788
v -74.947433 1.861934 -9.303987
v -74.947433 -1.861965 -9.303985
v -25.667038 -1.861888 -65.996880
v -32.340740 -1.861888 -65.996880
v -32.340740 1.861911 -65.996880
v -25.667038 1.861911 -65.996880
v -18.567638 -1.861883 -53.233181
v -18.567638 1.861917 -53.233181
v -22.281139 1.861917 -48.468884
v -22.281139 -1.861883 -48.468884
v -19.699940 -1.861882 -45.943386
v -19.699940 1.861917 -45.943386
v -19.699940 1.861934 -15.397286
v -19.699940 -1.861965 -15.397285
v -25.667038 1.861911 -65.996880
v -32.340740 1.861911 -65.996880
v -42.053337 1.861917 -53.949287
v -39.440239 1.861917 -53.233181
v -18.567638 1.861917 -53.233181
v -15.954538 1.861917 -53.949287
v -18.567638 -1.861883 -53.233181
v -22.281139 -1.861883 -48.468884
v -35.726738 -1.861883 -48.468884
v -39.440239 -1.861883 -53.233181
v -22.281139 1.861917 -48.468884
v -35.726738 1.861917 -48.468884
v -35.726738 -1.861883 -48.468884
v -35.726738 1.861917 -48.468884
v -39.440239 1.861917 -53.233181
v -39.440239 -1.861883 -53.233181
v -25.667038 -1.861888 -65.996880
v -15.954538 -1.861883 -53.949287
v -42.053337 -1.861883 -53.949287
v -32.340740 -1.861888 -65.996880
v -15.954538 -1.861883 -53.949287
v -15.954538 1.861917 -53.949287
v -18.567638 1.861917 -53.233181
v -18.567638 -1.861883 -53.233181
v -42.053337 -1.861883 -53.949287
v -42.053337 1.861917 -53.949287
v -32.340740 1.861911 -65.996880
v -32.340740 -1.861888 -65.996880
v -42.053337 -1.861883 -53.949287
v -39.440239 -1.861883 -53.233181
v -39.440239 1.861917 -53.233181
v -42.053337 1.861917 -53.949287
v -15.954538 -1.861883 -53.949287
v -25.667038 -1.861888 -65.996880
v -25.667038 1.861911 -65.996880
v -15.954538 1.861917 -53.949287
v -19.699940 -1.861965 -15.397285
v -19.699940 1.861934 -15.397286
v -38.307938 1.861934 -15.397286
v -38.307938 -1.861965 -15.397285
v -38.307938 1.861917 -45.943386
v -38.307938 -1.861882 -45.943386
v -38.307938 -1.861965 -15.397285
v -38.307938 1.861934 -15.397286
v -38.307938 -1.861882 -45.943386
v -19.699940 -1.861882 -45.943386
v -19.699940 -1.861965 -15.397285
v -38.307938 -1.861965 -15.397285
v -19.699940 1.861917 -45.943386
v -38.307938 1.861917 -45.943386
v -38.307938 1.861934 -15.397286
v -19.699940 1.861934 -15.397286
v -35.726738 1.861917 -48.468884
v -35.726738 -1.861883 -48.468884
v -38.307938 -1.861882 -45.943386
v -38.307938 1.861917 -45.943386
v -22.281139 -1.861883 -48.468884
v -22.281139 1.861917 -48.468884
v -19.699940 1.861917 -45.943386
v -19.699940 -1.861882 -45.943386
v 36.992958 -1.861960 3.336913
v 36.992958 -1.861960 -3.336786
v 36.992958 1.861940 -3.336787
v 36.992958 1.861940 3.336912
v 24.229261 -1.861954 10.436313
v 24.229261 1.861946 10.436311
v 19.464960 1.861941 6.722912
v 19.464960 -1.861959 6.722913
v 16.939463 -1.861954 9.304013
v 16.939463 1.861946 9.304011
v -13.606639 1.861946 9.304011
v -13.606639 -1.861954 9.304013
v 36.992958 1.861940 3.336912
v 36.992958 1.861940 -3.336787
v 24.945364 1.861934 -13.049386
v 24.229261 1.861934 -10.436287
v 24.229261 1.861946 10.436311
v 24.945364 1.861946 13.049410
v 24.229261 -1.861954 10.436313
v 19.464960 -1.861959 6.722913
v 19.464960 -1.861964 -6.722786
v 24.229261 -1.861965 -10.436285
v 19.464960 1.861941 6.722912
v 19.464960 1.861935 -6.722788
v 19.464960 -1.861964 -6.722786
v 19.464960 1.861935 -6.722788
v 24.229261 1.861934 -10.436287
v 24.229261 -1.861965 -10.436285
v 36.992958 -1.861960 3.336913
v 24.945364 -1.861954 13.049412
v 24.945364 -1.861965 -13.049385
v 36.992958 -1.861960 -3.336786
v 24.945364 -1.861954 13.049412
v 24.945364 1.861946 13.049410
v 24.945364 -1.861965 -13.049385
v 24.945364 1.861934 -13.049386
v 36.992958 1.861940 -3.336787
v 36.992958 -1.861960 -3.336786
v 24.945364 -1.861965 -13.049385
v 24.229261 -1.861965 -10.436285
v 24.229261 1.861934 -10.436287
v 24.945364 1.861934 -13.049386
v 24.945364 -1.861954 13.049412
v 36.992958 -1.861960 3.336913
v 36.992958 1.861940 3.336912
v 24.945364 1.861946 13.049410
v -13.606639 -1.861954 9.304013
v -13.606639 1.861946 9.304011
v -13.606639 1.861934 -9.303987
v -13.606639 -1.861965 -9.303985
v 16.939463 1.861934 -9.303987
v 16.939463 -1.861965 -9.303985
v -13.606639 -1.861965 -9.303985
v -13.606639 1.861934 -9.303987
v 16.939463 -1.861965 -9.303985
v 16.939463 -1.861954 9.304013
v -13.606639 -1.861954 9.304013
v -13.606639 -1.861965 -9.303985
v 16.939463 1.861946 9.304011
v 16.939463 1.861934 -9.303987
v -13.606639 1.861934 -9.303987
v -13.606639 1.861946 9.304011
v 19.464960 1.861935 -6.722788
v 19.464960 -1.861964 -6.722786
v 16.939463 -1.861965 -9.303985
v 16.939463 1.861934 -9.303987
v 19.464960 -1.861959 6.722913
v 19.464960 1.861941 6.722912
v 16.939463 1.861946 9.304011
v 16.939463 -1.861954 9.304013
v -32.340839 -1.861930 65.996910
v -25.667139 -1.861930 65.996910
v -25.667139 1.861969 65.996910
v -32.340839 1.861969 65.996910
v -39.440239 -1.861937 53.233208
v -39.440239 1.861964 53.233208
v -35.726738 1.861964 48.468906
v -35.726738 -1.861937 48.468906
v -38.307938 -1.861938 45.943409
v -38.307938 1.861964 45.943512
v -38.307938 1.861946 15.397311
v -38.307938 -1.861954 15.397313
v -32.340839 1.861969 65.996910
v -25.667139 1.861969 65.996910
v -15.954638 1.861964 53.949310
v -18.567638 1.861964 53.233208
v -39.440239 1.861964 53.233208
v -42.053337 1.861964 53.949310
v -39.440239 -1.861937 53.233208
v -35.726738 -1.861937 48.468906
v -22.281139 -1.861937 48.468906
v -18.567638 -1.861937 53.233208
v -35.726738 1.861964 48.468906
v -22.281139 1.861964 48.468906
v -22.281139 -1.861937 48.468906
v -22.281139 1.861964 48.468906
v -18.567638 1.861964 53.233208
v -18.567638 -1.861937 53.233208
v -32.340839 -1.861930 65.996910
v -42.053337 -1.861937 53.949310
v -15.954638 -1.861937 53.949310
v -25.667139 -1.861930 65.996910
v -42.053337 -1.861937 53.949310
v -42.053337 1.861964 53.949310
v -15.954638 -1.861937 53.949310
v -15.954638 1.861964 53.949310
v -25.667139 1.861969 65.996910
v -25.667139 -1.861930 65.996910
v -15.954638 -1.861937 53.949310
v -18.567638 -1.861937 53.233208
v -18.567638 1.861964 53.233208
v -15.954638 1.861964 53.949310
v -42.053337 -1.861937 53.949310
v -32.340839 -1.861930 65.996910
v -32.340839 1.861969 65.996910
v -42.053337 1.861964 53.949310
v -38.307938 -1.861954 15.397313
v -38.307938 1.861946 15.397311
v -19.699940 1.861946 15.397311
v -19.699940 -1.861954 15.397313
v -19.699940 1.861964 45.943512
v -19.699940 -1.861938 45.943409
v -19.699940 -1.861954 15.397313
v -19.699940 1.861946 15.397311
v -19.699940 -1.861938 45.943409
v -38.307938 -1.861938 45.943409
v -38.307938 -1.861954 15.397313
v -19.699940 -1.861954 15.397313
v -38.307938 1.861964 45.943512
v -19.699940 1.861964 45.943512
v -19.699940 1.861946 15.397311
v -38.307938 1.861946 15.397311
v -22.281139 1.861964 48.468906
v -22.281139 -1.861937 48.468906
v -19.699940 -1.861938 45.943409
v -19.699940 1.861964 45.943512
v -35.726738 -1.861937 48.468906
v -35.726738 1.861964 48.468906
v -38.307938 1.861964 45.943512
v -38.307938 -1.861938 45.943409
vn -0.0000 1.0000 -0.0000
vn 0.9486 -0.0000 -0.3165
vn 0.9567 -0.0000 -0.2912
vn -0.1336 -0.0000 0.9910
vn -0.2649 -0.0000 0.9643
vn -0.0000 -1.0000 -0.0000
vn 0.1012 -0.0000 0.9949
vn -0.1336 -0.0000 -0.9910
vn 0.1012 -0.0000 -0.9949
vn 0.9911 -0.0000 0.1328
vn 0.9486 -0.0000 0.3165
vn 0.9911 -0.0000 -0.1328
vn 0.9774 -0.0000 -0.2116
vn 0.8661 -0.0000 0.4999
vn 0.2013 -0.0000 0.9795
vn 0.2013 -0.0000 -0.9795
vn 0.8661 -0.0000 -0.4999
vn 0.9567 -0.0000 0.2912
vn 0.9774 -0.0000 0.2116
vn -0.8393 -0.0000 0.5436
vn -0.7735 -0.0000 0.6338
vn -0.9513 -0.0000 0.3082
vn -1.0000 -0.0000 -0.0000
vn -0.9513 -0.0000 -0.3082
vn -0.8393 -0.0000 -0.5436
vn -0.7735 -0.0000 -0.6338
vn -0.2648 -0.0000 -0.9643
vn -0.3165 -0.0000 -0.9486
vn -0.2912 -0.0000 -0.9567
vn 0.9910 -0.0000 0.1336
vn 0.9643 -0.0000 0.2649
vn 0.9949 -0.0000 -0.1012
vn -0.9910 -0.0000 0.1336
vn -0.9949 -0.0000 -0.1012
vn 0.1328 -0.0000 -0.9911
vn 0.3165 -0.0000 -0.9486
vn -0.1328 -0.0000 -0.9911
vn -0.2116 -0.0000 -0.9774
vn 0.5000 -0.0000 -0.8660
vn 0.9795 -0.0000 -0.2013
vn -0.9795 -0.0000 -0.2013
vn -0.5000 -0.0000 -0.8660
vn 0.2912 -0.0000 -0.9567
vn 0.2116 -0.0000 -0.9774
vn 0.5436 -0.0000 0.8393
vn 0.6338 -0.0000 0.7735
vn 0.3082 -0.0000 0.9513
vn -0.0000 -0.0000 1.0000
vn -0.3082 -0.0000 0.9513
vn -0.5436 -0.0000 0.8393
vn -0.6338 -0.0000 0.7735
vn -0.9643 -0.0000 0.2648
vn -0.9486 -0.0000 0.3165
vn -0.9567 -0.0000 0.2912
vn 0.1336 -0.0000 -0.9910
vn 0.2649 -0.0000 -0.9643
vn -0.1012 -0.0000 -0.9949
vn 0.1336 -0.0000 0.9910
vn -0.1012 -0.0000 0.9949
vn -0.9911 -0.0000 -0.1328
vn -0.9486 -0.0000 -0.3165
vn -0.9911 -0.0000 0.1328
vn -0.9774 -0.0000 0.2116
vn -0.8660 -0.0000 -0.5000
vn -0.2013 -0.0000 -0.9795
vn -0.2013 -0.0000 0.9795
vn -0.8660 -0.0000 0.5000
vn -0.9567 -0.0000 -0.2912
vn -0.9774 -0.0000 -0.2116
vn 0.8393 -0.0000 -0.5436
vn 0.7735 -0.0000 -0.6338
vn 0.9513 -0.0000 -0.3082
vn 1.0000 -0.0000 -0.0000
vn 0.9513 -0.0000 0.3082
vn 0.8393 -0.0000 0.5436
vn 0.7735 -0.0000 0.6338
vn 0.2648 -0.0000 0.9643
vn 0.3165 -0.0000 0.9486
vn 0.2912 -0.0000 0.9567
vn -0.9910 -0.0000 -0.1336
vn -0.9643 -0.0000 -0.2649
vn -0.9949 -0.0000 0.1012
vn 0.9910 -0.0000 -0.1336
vn 0.9949 -0.0000 0.1012
vn -0.1328 -0.0000 0.9911
vn -0.3165 -0.0000 0.9486
vn 0.1328 -0.0000 0.9911
vn 0.2116 -0.0000 0.9774
vn -0.5000 -0.0000 0.8660
vn -0.9795 -0.0000 0.2013
vn 0.9795 -0.0000 0.2013
vn 0.5000 -0.0000 0.8660
vn -0.2912 -0.0000 0.9567
vn -0.2116 -0.0000 0.9774
vn -0.5436 -0.0000 -0.8393
vn -0.6338 -0.0000 -0.7735
vn -0.3082 -0.0000 -0.9513
vn -0.3083 -0.0000 -0.9513
vn -0.0000 -0.0000 -1.0000
vn 0.3082 -0.0000 -0.9513
vn 0.5436 -0.0000 -0.8393
vn 0.6338 -0.0000 -0.7735
vn 0.9643 -0.0000 -0.2648
vn 0.6148 -0.0000 -0.7887
vn 0.8320 -0.0000 -0.5548
vn 0.8320 -0.0000 0.5548
vn 0.6148 -0.0000 0.7887
vn 0.9644 -0.0000 -0.2643
vn -0.6276 -0.0000 0.7785
vn 0.9644 -0.0000 0.2643
vn 0.8321 -0.0000 0.5547
vn -0.6276 -0.0000 -0.7785
vn -0.7148 -0.0000 0.6993
vn -0.7148 -0.0000 -0.6993
vn 0.7887 -0.0000 0.6148
vn 0.5548 -0.0000 0.8320
vn -0.5548 -0.0000 0.8320
vn -0.7887 -0.0000 0.6148
vn 0.5547 -0.0000 0.8321
vn 0.2643 -0.0000 0.9644
vn -0.7785 -0.0000 -0.6276
vn -0.2643 -0.0000 0.9644
vn -0.5547 -0.0000 0.8321
vn 0.7785 -0.0000 -0.6276
vn -0.6994 -0.0000 -0.7148
vn 0.6994 -0.0000 -0.7148
vn -0.6147 -0.0000 0.7887
vn -0.8320 -0.0000 0.5548
vn -0.8320 -0.0000 -0.5548
vn -0.6148 -0.0000 -0.7887
vn -0.9644 -0.0000 0.2643
vn 0.6276 -0.0000 -0.7785
vn -0.9644 -0.0000 -0.2643
vn -0.8321 -0.0000 -0.5547
vn 0.6276 -0.0000 0.7785
vn 0.7148 -0.0000 -0.6994
vn 0.7148 -0.0000 0.6994
vn -0.7887 -0.0000 -0.6148
vn -0.5548 -0.0000 -0.8320
vn 0.5548 -0.0000 -0.8320
vn 0.7887 -0.0000 -0.6148
vn -0.2643 -0.0000 -0.9644
vn 0.7785 -0.0000 0.6276
vn 0.2643 -0.0000 -0.9644
vn 0.5547 -0.0000 -0.8321
vn -0.7785 -0.0000 0.6276
vn 0.6993 -0.0000 0.7148
vn 0.6994 -0.0000 0.7148
vn -0.6994 -0.0000 0.7148
vn -0.6993 -0.0000 0.7148
vt 0.217135 0.610700
vt 0.214417 0.600803
vt 0.167877 0.617264
vt 0.167877 0.946472
vt 0.198550 0.988522
vt 0.207962 0.992256
vt 0.212779 0.993299
vt 0.216243 0.991299
vt 0.217135 0.986961
vt 0.910998 0.717794
vt 0.910998 0.727206
vt 0.915857 0.727206
vt 0.915857 0.717794
vt 0.952746 0.612700
vt 0.952746 0.602803
vt 0.947887 0.602803
vt 0.947887 0.612700
vt 0.025286 0.583898
vt 0.015874 0.580164
vt 0.011057 0.579121
vt 0.007592 0.581121
vt 0.006701 0.585459
vt 0.006701 0.961720
vt 0.009419 0.971617
vt 0.055959 0.955156
vt 0.055959 0.625948
vt 0.952746 0.988961
vt 0.947887 0.988961
vt 0.922504 0.185120
vt 0.922504 0.561381
vt 0.927363 0.561381
vt 0.927363 0.185120
vt 0.121337 0.600803
vt 0.118619 0.610700
vt 0.118619 0.986961
vt 0.119510 0.991299
vt 0.122974 0.993299
vt 0.127791 0.992256
vt 0.137203 0.988522
vt 0.156293 0.983313
vt 0.179460 0.983313
vt 0.086632 0.583898
vt 0.067542 0.589107
vt 0.044375 0.589107
vt 0.915857 0.675538
vt 0.915857 0.656448
vt 0.910998 0.656448
vt 0.910998 0.675538
vt 0.915857 0.698705
vt 0.910998 0.698705
vt 0.096044 0.580164
vt 0.102499 0.971617
vt 0.105217 0.961720
vt 0.105217 0.585459
vt 0.104325 0.581121
vt 0.100861 0.579121
vt 0.915857 0.732023
vt 0.910998 0.732023
vt 0.915857 0.735488
vt 0.910998 0.735488
vt 0.947887 0.993299
vt 0.952746 0.993299
vt 0.927363 0.565719
vt 0.922504 0.565719
vt 0.915857 0.642219
vt 0.915857 0.638755
vt 0.910998 0.638755
vt 0.910998 0.642219
vt 0.915857 0.647036
vt 0.910998 0.647036
vt 0.201030 0.589834
vt 0.185352 0.582009
vt 0.167877 0.579121
vt 0.150401 0.582009
vt 0.134723 0.589834
vt 0.022805 0.982586
vt 0.038483 0.990412
vt 0.055959 0.993299
vt 0.073435 0.990412
vt 0.089113 0.982586
vt 0.664381 0.114868
vt 0.664381 0.128254
vt 0.669240 0.128254
vt 0.669240 0.114868
vt 0.664381 0.099190
vt 0.669240 0.099190
vt 0.664381 0.081714
vt 0.669240 0.081714
vt 0.664381 0.064238
vt 0.669240 0.064238
vt 0.664381 0.048560
vt 0.669240 0.048560
vt 0.664381 0.035174
vt 0.669240 0.035174
vt 0.922504 0.175223
vt 0.927363 0.175223
vt 0.105217 0.183120
vt 0.102499 0.173224
vt 0.055959 0.189684
vt 0.055959 0.518892
vt 0.086632 0.560942
vt 0.096044 0.564677
vt 0.100861 0.565719
vt 0.104325 0.563720
vt 0.105217 0.559381
vt 0.403081 0.129308
vt 0.403081 0.138720
vt 0.407940 0.138720
vt 0.407940 0.129308
vt 0.890842 0.056214
vt 0.890842 0.046318
vt 0.885983 0.046318
vt 0.885983 0.056214
vt 0.758138 0.988522
vt 0.767550 0.992256
vt 0.772368 0.993299
vt 0.775832 0.991299
vt 0.776723 0.986961
vt 0.776723 0.610700
vt 0.774005 0.600804
vt 0.727465 0.617264
vt 0.727465 0.946472
vt 0.890842 0.432475
vt 0.885983 0.432475
vt 0.929626 0.612700
vt 0.929626 0.988961
vt 0.934485 0.988961
vt 0.934485 0.612700
vt 0.009419 0.173224
vt 0.006701 0.183120
vt 0.006701 0.559381
vt 0.007592 0.563720
vt 0.011057 0.565719
vt 0.015874 0.564677
vt 0.025286 0.560942
vt 0.044375 0.555733
vt 0.067542 0.555733
vt 0.696792 0.988522
vt 0.715882 0.983313
vt 0.739049 0.983313
vt 0.407940 0.087051
vt 0.407940 0.067962
vt 0.403081 0.067962
vt 0.403081 0.087051
vt 0.407940 0.110218
vt 0.403081 0.110218
vt 0.687380 0.992256
vt 0.680925 0.600804
vt 0.678207 0.610700
vt 0.678207 0.986961
vt 0.679099 0.991299
vt 0.682563 0.993299
vt 0.407940 0.143537
vt 0.403081 0.143537
vt 0.407940 0.147001
vt 0.403081 0.147001
vt 0.885983 0.436814
vt 0.890842 0.436814
vt 0.934485 0.993299
vt 0.929626 0.993299
vt 0.407940 0.053733
vt 0.407940 0.050269
vt 0.403081 0.050269
vt 0.403081 0.053733
vt 0.407940 0.058550
vt 0.403081 0.058550
vt 0.089113 0.162254
vt 0.073435 0.154429
vt 0.055959 0.151541
vt 0.038483 0.154429
vt 0.022805 0.162254
vt 0.760619 0.589834
vt 0.744941 0.582009
vt 0.727465 0.579121
vt 0.709989 0.582009
vt 0.694312 0.589834
vt 0.682641 0.114868
vt 0.682641 0.128254
vt 0.687500 0.128254
vt 0.687500 0.114868
vt 0.682641 0.099190
vt 0.687500 0.099190
vt 0.682641 0.081714
vt 0.687500 0.081714
vt 0.682641 0.064238
vt 0.687500 0.064238
vt 0.682641 0.048561
vt 0.687500 0.048561
vt 0.682641 0.035174
vt 0.687500 0.035174
vt 0.929626 0.602803
vt 0.934485 0.602803
vt 0.230536 0.961720
vt 0.233254 0.971617
vt 0.279794 0.955156
vt 0.279794 0.625948
vt 0.249121 0.583898
vt 0.239709 0.580164
vt 0.234892 0.579121
vt 0.231428 0.581121
vt 0.230536 0.585459
vt 0.646120 0.110561
vt 0.646120 0.119973
vt 0.650979 0.119973
vt 0.650979 0.110561
vt 0.872581 0.056214
vt 0.872581 0.046318
vt 0.867722 0.046318
vt 0.867722 0.056214
vt 0.646221 0.988522
vt 0.655633 0.992256
vt 0.660450 0.993299
vt 0.663914 0.991299
vt 0.664806 0.986961
vt 0.664806 0.610700
vt 0.662088 0.600803
vt 0.615548 0.617264
vt 0.615548 0.946472
vt 0.872581 0.432475
vt 0.867722 0.432475
vt 0.940765 0.185120
vt 0.940765 0.561381
vt 0.945624 0.561381
vt 0.945624 0.185120
vt 0.326334 0.971617
vt 0.329052 0.961720
vt 0.329052 0.585459
vt 0.328161 0.581121
vt 0.324697 0.579121
vt 0.319880 0.580164
vt 0.310468 0.583898
vt 0.291378 0.589107
vt 0.268211 0.589107
vt 0.584874 0.988522
vt 0.603964 0.983313
vt 0.627131 0.983313
vt 0.650979 0.068304
vt 0.650979 0.049215
vt 0.646120 0.049215
vt 0.646120 0.068304
vt 0.650979 0.091471
vt 0.646120 0.091471
vt 0.575462 0.992256
vt 0.569008 0.600803
vt 0.566290 0.610700
vt 0.566290 0.986961
vt 0.567181 0.991299
vt 0.570645 0.993299
vt 0.650979 0.124790
vt 0.646120 0.124790
vt 0.650979 0.128254
vt 0.646120 0.128254
vt 0.867722 0.436814
vt 0.872581 0.436814
vt 0.945624 0.565719
vt 0.940765 0.565719
vt 0.650979 0.034985
vt 0.650979 0.031521
vt 0.646120 0.031521
vt 0.646120 0.034985
vt 0.650979 0.039803
vt 0.646120 0.039803
vt 0.246641 0.982586
vt 0.262319 0.990412
vt 0.279794 0.993299
vt 0.297270 0.990412
vt 0.312948 0.982586
vt 0.648701 0.589834
vt 0.633023 0.582009
vt 0.615548 0.579121
vt 0.598072 0.582009
vt 0.582394 0.589834
vt 0.323150 0.114844
vt 0.323150 0.128230
vt 0.328009 0.128230
vt 0.328009 0.114844
vt 0.323150 0.099166
vt 0.328009 0.099166
vt 0.323150 0.081690
vt 0.328009 0.081690
vt 0.323150 0.064214
vt 0.328009 0.064214
vt 0.323150 0.048536
vt 0.328009 0.048536
vt 0.323150 0.035150
vt 0.328009 0.035150
vt 0.940765 0.175223
vt 0.945624 0.175223
vt 0.342454 0.961720
vt 0.345172 0.971617
vt 0.391712 0.955156
vt 0.391712 0.625948
vt 0.361039 0.583898
vt 0.351627 0.580164
vt 0.346810 0.579121
vt 0.343346 0.581121
vt 0.342454 0.585459
vt 0.403081 0.239443
vt 0.403081 0.248855
vt 0.407940 0.248855
vt 0.407940 0.239443
vt 0.909103 0.056214
vt 0.909103 0.046318
vt 0.904244 0.046318
vt 0.904244 0.056214
vt 0.472957 0.583898
vt 0.463545 0.580164
vt 0.458728 0.579121
vt 0.455263 0.581121
vt 0.454372 0.585459
vt 0.454372 0.961720
vt 0.457090 0.971617
vt 0.503630 0.955156
vt 0.503630 0.625948
vt 0.909103 0.432475
vt 0.904244 0.432475
vt 0.963885 0.555823
vt 0.963885 0.179562
vt 0.959026 0.179562
vt 0.959026 0.555823
vt 0.438252 0.971617
vt 0.440970 0.961720
vt 0.440970 0.585459
vt 0.440079 0.581121
vt 0.436614 0.579121
vt 0.431797 0.580164
vt 0.422385 0.583898
vt 0.403296 0.589107
vt 0.380129 0.589107
vt 0.534303 0.583898
vt 0.515213 0.589107
vt 0.492046 0.589107
vt 0.407940 0.197186
vt 0.407940 0.178096
vt 0.403081 0.178096
vt 0.403081 0.197186
vt 0.407940 0.220353
vt 0.403081 0.220353
vt 0.543715 0.580164
vt 0.550170 0.971617
vt 0.552888 0.961720
vt 0.552888 0.585459
vt 0.551996 0.581121
vt 0.548532 0.579121
vt 0.407940 0.253672
vt 0.403081 0.253672
vt 0.407940 0.257136
vt 0.403081 0.257136
vt 0.904244 0.436814
vt 0.909103 0.436814
vt 0.959026 0.175224
vt 0.963885 0.175224
vt 0.407940 0.163867
vt 0.407940 0.160403
vt 0.403081 0.160403
vt 0.403081 0.163867
vt 0.407940 0.168684
vt 0.403081 0.168684
vt 0.358558 0.982586
vt 0.374236 0.990412
vt 0.391712 0.993299
vt 0.409188 0.990412
vt 0.424866 0.982586
vt 0.470476 0.982586
vt 0.486154 0.990412
vt 0.503630 0.993299
vt 0.521106 0.990412
vt 0.536784 0.982586
vt 0.304889 0.114844
vt 0.304889 0.128230
vt 0.309748 0.128230
vt 0.309748 0.114844
vt 0.304889 0.099166
vt 0.309748 0.099166
vt 0.304889 0.081690
vt 0.309748 0.081690
vt 0.304889 0.064214
vt 0.309748 0.064214
vt 0.304889 0.048536
vt 0.309748 0.048536
vt 0.304889 0.035150
vt 0.309748 0.035150
vt 0.963885 0.565719
vt 0.959026 0.565719
vt 0.431422 0.048393
vt 0.422921 0.048393
vt 0.422921 0.062992
vt 0.431422 0.062992
vt 0.078769 0.023928
vt 0.078769 0.032405
vt 0.087270 0.032405
vt 0.087270 0.023928
vt 0.349911 0.128230
vt 0.349911 0.061409
vt 0.341411 0.061409
vt 0.341411 0.128230
vt 0.790125 0.965798
vt 0.812296 0.993299
vt 0.827530 0.993299
vt 0.849701 0.965798
vt 0.843736 0.964163
vt 0.796090 0.964163
vt 0.846949 0.290413
vt 0.799303 0.290413
vt 0.807780 0.301289
vt 0.838472 0.301289
vt 0.835259 0.953288
vt 0.804567 0.953288
vt 0.523768 0.015348
vt 0.523768 0.026224
vt 0.532268 0.026224
vt 0.532268 0.015348
vt 0.830743 0.261278
vt 0.815509 0.261278
vt 0.793338 0.288779
vt 0.852914 0.288779
vt 0.078769 0.038369
vt 0.087270 0.038369
vt 0.422921 0.092096
vt 0.431422 0.092096
vt 0.773243 0.014086
vt 0.773243 0.022586
vt 0.779208 0.022586
vt 0.779208 0.014086
vt 0.967325 0.161822
vt 0.975826 0.161822
vt 0.975826 0.129133
vt 0.967325 0.129133
vt 0.037612 0.088021
vt 0.037612 0.045544
vt 0.029111 0.045544
vt 0.029111 0.088021
vt 0.140521 0.054457
vt 0.140521 0.124185
vt 0.149021 0.124185
vt 0.149021 0.054457
vt 0.844364 0.376782
vt 0.844364 0.307054
vt 0.801888 0.307054
vt 0.801888 0.376782
vt 0.798675 0.877795
vt 0.798675 0.947523
vt 0.841151 0.947523
vt 0.841151 0.877795
vt 0.739798 0.014086
vt 0.732504 0.014086
vt 0.732504 0.022586
vt 0.739798 0.022586
vt 0.349911 0.054201
vt 0.341411 0.054201
vt 0.444823 0.092096
vt 0.453324 0.092096
vt 0.453324 0.077497
vt 0.444823 0.077497
vt 0.078769 0.127264
vt 0.078769 0.138140
vt 0.087270 0.138140
vt 0.087270 0.127264
vt 0.078769 0.051771
vt 0.078769 0.121499
vt 0.087270 0.121499
vt 0.087270 0.051771
vt 0.620390 0.229659
vt 0.642561 0.257160
vt 0.657795 0.257160
vt 0.679966 0.229659
vt 0.674001 0.228024
vt 0.626355 0.228024
vt 0.799303 0.218740
vt 0.846949 0.218740
vt 0.838472 0.207865
vt 0.807780 0.207865
vt 0.665524 0.217149
vt 0.634832 0.217149
vt 0.159207 0.020229
vt 0.159207 0.033073
vt 0.167707 0.033073
vt 0.167707 0.020229
vt 0.815509 0.247876
vt 0.830743 0.247876
vt 0.852914 0.220375
vt 0.793338 0.220375
vt 0.682641 0.021773
vt 0.688606 0.021773
vt 0.688606 0.013272
vt 0.682641 0.013272
vt 0.453324 0.048393
vt 0.444823 0.048393
vt 0.375953 0.013921
vt 0.375953 0.022422
vt 0.381917 0.022422
vt 0.381917 0.013921
vt 0.975826 0.047327
vt 0.967325 0.047327
vt 0.967325 0.074828
vt 0.975826 0.074828
vt 0.059514 0.088021
vt 0.059514 0.045544
vt 0.051014 0.045544
vt 0.051014 0.088021
vt 0.793338 0.052149
vt 0.793338 0.118970
vt 0.801839 0.118970
vt 0.801839 0.052149
vt 0.801888 0.132372
vt 0.801888 0.202100
vt 0.844364 0.202100
vt 0.844364 0.132372
vt 0.628940 0.141656
vt 0.628940 0.211384
vt 0.671417 0.211384
vt 0.671417 0.141656
vt 0.936920 0.580901
vt 0.929626 0.580901
vt 0.929626 0.589402
vt 0.936920 0.589402
vt 0.974648 0.699809
vt 0.966148 0.699809
vt 0.966148 0.715043
vt 0.974648 0.715043
vt 0.858027 0.596535
vt 0.858027 0.585304
vt 0.849527 0.585304
vt 0.849527 0.596535
vt 0.190015 0.122831
vt 0.190015 0.053103
vt 0.181514 0.053103
vt 0.181514 0.122831
vt 0.909103 0.477716
vt 0.886932 0.450215
vt 0.871698 0.450215
vt 0.849527 0.477716
vt 0.855492 0.479351
vt 0.903138 0.479351
vt 0.310854 0.228000
vt 0.358500 0.228000
vt 0.350023 0.217125
vt 0.319331 0.217125
vt 0.863969 0.490226
vt 0.894661 0.490226
vt 0.867722 0.020072
vt 0.867722 0.032916
vt 0.876223 0.032916
vt 0.876223 0.020072
vt 0.327060 0.257136
vt 0.342294 0.257136
vt 0.364465 0.229635
vt 0.304889 0.229635
vt 0.858027 0.579121
vt 0.849527 0.579121
vt 0.966148 0.737214
vt 0.974648 0.737214
vt 0.988050 0.785424
vt 0.988050 0.793925
vt 0.993299 0.793925
vt 0.993299 0.785424
vt 0.967325 0.115731
vt 0.975826 0.115731
vt 0.975826 0.088230
vt 0.967325 0.088230
vt 0.974648 0.845429
vt 0.974648 0.804723
vt 0.966148 0.804723
vt 0.966148 0.845429
vt 0.815240 0.052149
vt 0.815240 0.118970
vt 0.823741 0.118970
vt 0.823741 0.052149
vt 0.313439 0.141632
vt 0.313439 0.211360
vt 0.355915 0.211360
vt 0.355915 0.141632
vt 0.900553 0.565719
vt 0.900553 0.495991
vt 0.858077 0.495991
vt 0.858077 0.565719
vt 0.310781 0.013248
vt 0.304889 0.013248
vt 0.304889 0.021749
vt 0.310781 0.021749
vt 0.652012 0.009619
vt 0.646120 0.009619
vt 0.646120 0.018120
vt 0.652012 0.018120
vt 0.181514 0.039702
vt 0.190015 0.039702
vt 0.190015 0.024468
vt 0.181514 0.024468
vt 0.974648 0.597567
vt 0.974648 0.586336
vt 0.966148 0.586336
vt 0.966148 0.597567
vt 0.127119 0.124185
vt 0.127119 0.057364
vt 0.118619 0.057364
vt 0.118619 0.124185
vt 0.849701 0.776390
vt 0.827530 0.748889
vt 0.812296 0.748889
vt 0.790125 0.776390
vt 0.796090 0.778025
vt 0.843736 0.778025
vt 0.843736 0.649119
vt 0.796090 0.649119
vt 0.804567 0.659995
vt 0.835259 0.659995
vt 0.804567 0.788900
vt 0.835259 0.788900
vt 0.707290 0.018837
vt 0.707290 0.029713
vt 0.715790 0.029713
vt 0.715790 0.018837
vt 0.827530 0.619983
vt 0.812296 0.619983
vt 0.790125 0.647485
vt 0.849701 0.647484
vt 0.974648 0.580153
vt 0.966148 0.580153
vt 0.475330 0.023571
vt 0.475330 0.051072
vt 0.483831 0.051072
vt 0.483831 0.023571
vt 0.988050 0.807326
vt 0.988050 0.815827
vt 0.993299 0.815827
vt 0.993299 0.807326
vt 0.966148 0.643658
vt 0.974648 0.643658
vt 0.974648 0.610968
vt 0.966148 0.610968
vt 0.974648 0.791322
vt 0.974648 0.750616
vt 0.966148 0.750616
vt 0.966148 0.791322
vt 0.203416 0.053103
vt 0.203416 0.122831
vt 0.211917 0.122831
vt 0.211917 0.053103
vt 0.841151 0.735488
vt 0.841151 0.665760
vt 0.798675 0.665760
vt 0.798675 0.735488
vt 0.841151 0.864393
vt 0.841151 0.794665
vt 0.798675 0.794665
vt 0.798675 0.864393
vt 0.843034 0.009046
vt 0.837142 0.009046
vt 0.837142 0.017547
vt 0.843034 0.017547
vt 0.127119 0.050156
vt 0.118619 0.050156
s 0
usemtl Ceiling_Fan_Mat.001
f 9/1/1 1/2/1 2/3/1
f 9/1/1 2/3/1 3/4/1
f 9/1/1 3/4/1 4/5/1
f 9/1/1 4/5/1 5/6/1
f 9/1/1 5/6/1 6/7/1
f 9/1/1 6/7/1 7/8/1
f 7/8/1 8/9/1 9/1/1
s 1
f 13/10/2 10/11/3 11/12/3
f 11/12/3 12/13/2 13/10/2
f 17/14/4 14/15/5 15/16/5
f 15/16/5 16/17/4 17/14/4
s 0
f 26/18/6 18/19/6 19/20/6
f 26/18/6 19/20/6 20/21/6
f 26/18/6 20/21/6 21/22/6
f 26/18/6 21/22/6 22/23/6
f 26/18/6 22/23/6 23/24/6
f 26/18/6 23/24/6 24/25/6
f 24/25/6 25/26/6 26/18/6
s 1
f 28/27/7 17/14/4 16/17/4
f 16/17/4 27/28/7 28/27/7
f 32/29/8 29/30/9 30/31/9
f 30/31/9 31/32/8 32/29/8
s 0
f 39/33/1 33/34/1 34/35/1
f 39/33/1 34/35/1 35/36/1
f 39/33/1 35/36/1 36/37/1
f 39/33/1 36/37/1 37/38/1
f 39/33/1 37/38/1 38/39/1
f 39/33/1 38/39/1 3/4/1
f 3/4/1 2/3/1 39/33/1
f 38/39/1 40/40/1 3/4/1
f 40/40/1 41/41/1 3/4/1
f 41/41/1 4/5/1 3/4/1
f 42/42/6 43/43/6 25/26/6
f 43/43/6 44/44/6 25/26/6
f 44/44/6 26/18/6 25/26/6
s 1
f 48/45/10 45/46/11 46/47/11
f 46/47/11 47/48/10 48/45/10
f 50/49/12 48/45/10 47/48/10
f 47/48/10 49/50/12 50/49/12
f 12/13/2 50/49/12 49/50/12
f 49/50/12 13/10/2 12/13/2
s 0
f 56/51/6 42/42/6 25/26/6
f 56/51/6 25/26/6 24/25/6
f 56/51/6 24/25/6 51/52/6
f 56/51/6 51/52/6 52/53/6
f 56/51/6 52/53/6 53/54/6
f 56/51/6 53/54/6 54/55/6
f 54/55/6 55/56/6 56/51/6
s 1
f 58/57/13 11/12/3 10/11/3
f 10/11/3 57/58/13 58/57/13
s 0
f 62/59/14 59/57/14 60/58/14
f 60/58/14 61/60/14 62/59/14
s 1
f 27/28/7 63/61/15 64/62/15
f 64/62/15 28/27/7 27/28/7
f 66/63/16 30/31/9 29/30/9
f 29/30/9 65/64/16 66/63/16
s 0
f 70/65/17 67/66/17 68/67/17
f 68/67/17 69/68/17 70/65/17
s 1
f 74/69/18 71/65/19 72/68/19
f 72/68/19 73/70/18 74/69/18
f 73/70/18 46/47/11 45/46/11
f 45/46/11 74/69/18 73/70/18
s 0
f 1/2/1 75/71/1 2/3/1
f 75/71/1 76/72/1 2/3/1
f 76/72/1 77/73/1 2/3/1
f 77/73/1 78/74/1 2/3/1
f 78/74/1 79/75/1 2/3/1
f 79/75/1 39/33/1 2/3/1
f 23/24/6 80/76/6 24/25/6
f 80/76/6 81/77/6 24/25/6
f 81/77/6 82/78/6 24/25/6
f 82/78/6 83/79/6 24/25/6
f 83/79/6 84/80/6 24/25/6
f 84/80/6 51/52/6 24/25/6
s 1
f 88/81/20 85/82/21 86/83/21
f 86/83/21 87/84/20 88/81/20
f 90/85/22 88/81/20 87/84/20
f 87/84/20 89/86/22 90/85/22
f 92/87/23 90/85/22 89/86/22
f 89/86/22 91/88/23 92/87/23
f 94/89/24 92/87/23 91/88/23
f 91/88/23 93/90/24 94/89/24
f 96/91/25 94/89/24 93/90/24
f 93/90/24 95/92/25 96/91/25
f 98/93/26 96/91/25 95/92/25
f 95/92/25 97/94/26 98/93/26
f 100/95/27 32/29/8 31/32/8
f 31/32/8 99/96/27 100/95/27
s 0
f 109/97/1 101/98/1 102/99/1
f 109/97/1 102/99/1 103/100/1
f 109/97/1 103/100/1 104/101/1
f 109/97/1 104/101/1 105/102/1
f 109/97/1 105/102/1 106/103/1
f 109/97/1 106/103/1 107/104/1
f 107/104/1 108/105/1 109/97/1
s 1
f 113/106/28 110/107/29 111/108/29
f 111/108/29 112/109/28 113/106/28
f 117/110/30 114/111/31 115/112/31
f 115/112/31 116/113/30 117/110/30
s 0
f 126/114/6 118/115/6 119/116/6
f 126/114/6 119/116/6 120/117/6
f 126/114/6 120/117/6 121/118/6
f 126/114/6 121/118/6 122/119/6
f 126/114/6 122/119/6 123/120/6
f 126/114/6 123/120/6 124/121/6
f 124/121/6 125/122/6 126/114/6
s 1
f 128/123/32 117/110/30 116/113/30
f 116/113/30 127/124/32 128/123/32
f 132/125/33 129/126/34 130/127/34
f 130/127/34 131/128/33 132/125/33
s 0
f 139/129/1 133/130/1 134/131/1
f 139/129/1 134/131/1 135/132/1
f 139/129/1 135/132/1 136/133/1
f 139/129/1 136/133/1 137/134/1
f 139/129/1 137/134/1 138/135/1
f 139/129/1 138/135/1 103/100/1
f 103/100/1 102/99/1 139/129/1
f 138/135/1 140/136/1 103/100/1
f 140/136/1 141/137/1 103/100/1
f 141/137/1 104/101/1 103/100/1
f 142/138/6 143/139/6 125/122/6
f 143/139/6 144/140/6 125/122/6
f 144/140/6 126/114/6 125/122/6
s 1
f 148/141/35 145/142/36 146/143/36
f 146/143/36 147/144/35 148/141/35
f 150/145/37 148/141/35 147/144/35
f 147/144/35 149/146/37 150/145/37
f 112/109/28 150/145/37 149/146/37
f 149/146/37 113/106/28 112/109/28
s 0
f 156/147/6 142/138/6 125/122/6
f 156/147/6 125/122/6 124/121/6
f 156/147/6 124/121/6 151/148/6
f 156/147/6 151/148/6 152/149/6
f 156/147/6 152/149/6 153/150/6
f 156/147/6 153/150/6 154/151/6
f 154/151/6 155/152/6 156/147/6
s 1
f 158/153/38 111/108/29 110/107/29
f 110/107/29 157/154/38 158/153/38
s 0
f 162/155/39 159/153/39 160/154/39
f 160/154/39 161/156/39 162/155/39
s 1
f 127/124/32 163/157/40 164/158/40
f 164/158/40 128/123/32 127/124/32
f 166/159/41 130/127/34 129/126/34
f 129/126/34 165/160/41 166/159/41
s 0
f 170/161/42 167/162/42 168/163/42
f 168/163/42 169/164/42 170/161/42
s 1
f 174/165/43 171/161/44 172/164/44
f 172/164/44 173/166/43 174/165/43
f 173/166/43 146/143/36 145/142/36
f 145/142/36 174/165/43 173/166/43
s 0
f 101/98/1 175/167/1 102/99/1
f 175/167/1 176/168/1 102/99/1
f 176/168/1 177/169/1 102/99/1
f 177/169/1 178/170/1 102/99/1
f 178/170/1 179/171/1 102/99/1
f 179/171/1 139/129/1 102/99/1
f 123/120/6 180/172/6 124/121/6
f 180/172/6 181/173/6 124/121/6
f 181/173/6 182/174/6 124/121/6
f 182/174/6 183/175/6 124/121/6
f 183/175/6 184/176/6 124/121/6
f 184/176/6 151/148/6 124/121/6
s 1
f 188/177/45 185/178/46 186/179/46
f 186/179/46 187/180/45 188/177/45
f 190/181/47 188/177/45 187/180/45
f 187/180/45 189/182/47 190/181/47
f 192/183/48 190/181/47 189/182/47
f 189/182/47 191/184/48 192/183/48
f 194/185/49 192/183/48 191/184/48
f 191/184/48 193/186/49 194/185/49
f 196/187/50 194/185/49 193/186/49
f 193/186/49 195/188/50 196/187/50
f 198/189/51 196/187/50 195/188/50
f 195/188/50 197/190/51 198/189/51
f 200/191/52 132/125/33 131/128/33
f 131/128/33 199/192/52 200/191/52
s 0
f 209/193/1 201/194/1 202/195/1
f 209/193/1 202/195/1 203/196/1
f 209/193/1 203/196/1 204/197/1
f 209/193/1 204/197/1 205/198/1
f 209/193/1 205/198/1 206/199/1
f 209/193/1 206/199/1 207/200/1
f 207/200/1 208/201/1 209/193/1
s 1
f 213/202/53 210/203/54 211/204/54
f 211/204/54 212/205/53 213/202/53
f 217/206/55 214/207/56 215/208/56
f 215/208/56 216/209/55 217/206/55
s 0
f 226/210/6 218/211/6 219/212/6
f 226/210/6 219/212/6 220/213/6
f 226/210/6 220/213/6 221/214/6
f 226/210/6 221/214/6 222/215/6
f 226/210/6 222/215/6 223/216/6
f 226/210/6 223/216/6 224/217/6
f 224/217/6 225/218/6 226/210/6
s 1
f 228/219/57 217/206/55 216/209/55
f 216/209/55 227/220/57 228/219/57
f 232/221/58 229/222/59 230/223/59
f 230/223/59 231/224/58 232/221/58
s 0
f 239/225/1 233/226/1 234/227/1
f 239/225/1 234/227/1 235/228/1
f 239/225/1 235/228/1 236/229/1
f 239/225/1 236/229/1 237/230/1
f 239/225/1 237/230/1 238/231/1
f 239/225/1 238/231/1 203/196/1
f 203/196/1 202/195/1 239/225/1
f 238/231/1 240/232/1 203/196/1
f 240/232/1 241/233/1 203/196/1
f 241/233/1 204/197/1 203/196/1
f 242/234/6 243/235/6 225/218/6
f 243/235/6 244/236/6 225/218/6
f 244/236/6 226/210/6 225/218/6
s 1
f 248/237/60 245/238/61 246/239/61
f 246/239/61 247/240/60 248/237/60
f 250/241/62 248/237/60 247/240/60
f 247/240/60 249/242/62 250/241/62
f 212/205/53 250/241/62 249/242/62
f 249/242/62 213/202/53 212/205/53
s 0
f 256/243/6 242/234/6 225/218/6
f 256/243/6 225/218/6 224/217/6
f 256/243/6 224/217/6 251/244/6
f 256/243/6 251/244/6 252/245/6
f 256/243/6 252/245/6 253/246/6
f 256/243/6 253/246/6 254/247/6
f 254/247/6 255/248/6 256/243/6
s 1
f 258/249/63 211/204/54 210/203/54
f 210/203/54 257/250/63 258/249/63
s 0
f 262/251/64 259/249/64 260/250/64
f 260/250/64 261/252/64 262/251/64
s 1
f 227/220/57 263/253/65 264/254/65
f 264/254/65 228/219/57 227/220/57
f 266/255/66 230/223/59 229/222/59
f 229/222/59 265/256/66 266/255/66
s 0
f 270/257/67 267/258/67 268/259/67
f 268/259/67 269/260/67 270/257/67
s 1
f 274/261/68 271/257/69 272/260/69
f 272/260/69 273/262/68 274/261/68
f 273/262/68 246/239/61 245/238/61
f 245/238/61 274/261/68 273/262/68
s 0
f 201/194/1 275/263/1 202/195/1
f 275/263/1 276/264/1 202/195/1
f 276/264/1 277/265/1 202/195/1
f 277/265/1 278/266/1 202/195/1
f 278/266/1 279/267/1 202/195/1
f 279/267/1 239/225/1 202/195/1
f 223/216/6 280/268/6 224/217/6
f 280/268/6 281/269/6 224/217/6
f 281/269/6 282/270/6 224/217/6
f 282/270/6 283/271/6 224/217/6
f 283/271/6 284/272/6 224/217/6
f 284/272/6 251/244/6 224/217/6
s 1
f 288/273/70 285/274/71 286/275/71
f 286/275/71 287/276/70 288/273/70
f 290/277/72 288/273/70 287/276/70
f 287/276/70 289/278/72 290/277/72
f 292/279/73 290/277/72 289/278/72
f 289/278/72 291/280/73 292/279/73
f 294/281/74 292/279/73 291/280/73
f 291/280/73 293/282/74 294/281/74
f 296/283/75 294/281/74 293/282/74
f 293/282/74 295/284/75 296/283/75
f 298/285/76 296/283/75 295/284/75
f 295/284/75 297/286/76 298/285/76
f 300/287/77 232/221/58 231/224/58
f 231/224/58 299/288/77 300/287/77
s 0
f 309/289/1 301/290/1 302/291/1
f 309/289/1 302/291/1 303/292/1
f 309/289/1 303/292/1 304/293/1
f 309/289/1 304/293/1 305/294/1
f 309/289/1 305/294/1 306/295/1
f 309/289/1 306/295/1 307/296/1
f 307/296/1 308/297/1 309/289/1
s 1
f 313/298/78 310/299/79 311/300/79
f 311/300/79 312/301/78 313/298/78
f 317/302/80 314/303/81 315/304/81
f 315/304/81 316/305/80 317/302/80
s 0
f 326/306/6 318/307/6 319/308/6
f 326/306/6 319/308/6 320/309/6
f 326/306/6 320/309/6 321/310/6
f 326/306/6 321/310/6 322/311/6
f 326/306/6 322/311/6 323/312/6
f 326/306/6 323/312/6 324/313/6
f 324/313/6 325/314/6 326/306/6
s 1
f 328/315/82 317/302/80 316/305/80
f 316/305/80 327/316/82 328/315/82
f 332/317/83 329/318/84 330/319/84
f 330/319/84 331/320/83 332/317/83
s 0
f 339/321/1 333/322/1 334/323/1
f 339/321/1 334/323/1 335/324/1
f 339/321/1 335/324/1 336/325/1
f 339/321/1 336/325/1 337/326/1
f 339/321/1 337/326/1 338/327/1
f 339/321/1 338/327/1 303/292/1
f 303/292/1 302/291/1 339/321/1
f 338/327/1 340/328/1 303/292/1
f 340/328/1 341/329/1 303/292/1
f 341/329/1 304/293/1 303/292/1
f 342/330/6 343/331/6 325/314/6
f 343/331/6 344/332/6 325/314/6
f 344/332/6 326/306/6 325/314/6
s 1
f 348/333/85 345/334/86 346/335/86
f 346/335/86 347/336/85 348/333/85
f 350/337/87 348/333/85 347/336/85
f 347/336/85 349/338/87 350/337/87
f 312/301/78 350/337/87 349/338/87
f 349/338/87 313/298/78 312/301/78
s 0
f 356/339/6 342/330/6 325/314/6
f 356/339/6 325/314/6 324/313/6
f 356/339/6 324/313/6 351/340/6
f 356/339/6 351/340/6 352/341/6
f 356/339/6 352/341/6 353/342/6
f 356/339/6 353/342/6 354/343/6
f 354/343/6 355/344/6 356/339/6
s 1
f 358/345/88 311/300/79 310/299/79
f 310/299/79 357/346/88 358/345/88
s 0
f 362/347/89 359/345/89 360/346/89
s 1
f 360/346/89 361/348/89 362/347/89
f 327/316/82 363/349/90 364/350/90
f 364/350/90 328/315/82 327/316/82
f 366/351/91 330/319/84 329/318/84
f 329/318/84 365/352/91 366/351/91
s 0
f 370/353/92 367/354/92 368/355/92
f 368/355/92 369/356/92 370/353/92
s 1
f 374/357/93 371/353/94 372/356/94
f 372/356/94 373/358/93 374/357/93
f 373/358/93 346/335/86 345/334/86
f 345/334/86 374/357/93 373/358/93
s 0
f 301/290/1 375/359/1 302/291/1
f 375/359/1 376/360/1 302/291/1
f 376/360/1 377/361/1 302/291/1
f 377/361/1 378/362/1 302/291/1
f 378/362/1 379/363/1 302/291/1
f 379/363/1 339/321/1 302/291/1
f 323/312/6 380/364/6 324/313/6
f 380/364/6 381/365/6 324/313/6
f 381/365/6 382/366/6 324/313/6
f 382/366/6 383/367/6 324/313/6
f 383/367/6 384/368/6 324/313/6
f 384/368/6 351/340/6 324/313/6
s 1
f 388/369/95 385/370/96 386/371/96
f 386/371/96 387/372/95 388/369/95
f 390/373/97 388/369/95 387/372/95
f 387/372/95 389/374/98 390/373/97
f 392/375/99 390/373/97 389/374/98
f 389/374/98 391/376/99 392/375/99
f 394/377/100 392/375/99 391/376/99
f 391/376/99 393/378/100 394/377/100
f 396/379/101 394/377/100 393/378/100
f 393/378/100 395/380/101 396/379/101
f 398/381/102 396/379/101 395/380/101
f 395/380/101 397/382/102 398/381/102
f 400/383/103 332/317/83 331/320/83
f 331/320/83 399/384/103 400/383/103
s 0
f 404/385/23 401/386/23 402/387/23
f 402/387/23 403/388/23 404/385/23
s 1
f 408/389/104 405/390/105 406/391/105
f 406/391/105 407/392/104 408/389/104
s 0
f 412/393/99 409/394/99 410/395/99
f 410/395/99 411/396/99 412/393/99
f 418/397/1 413/398/1 414/399/1
f 418/397/1 414/399/1 415/400/1
f 418/397/1 415/400/1 416/401/1
f 416/401/1 417/402/1 418/397/1
f 422/403/6 419/404/6 420/405/6
f 420/405/6 421/406/6 422/403/6
f 424/407/1 423/408/1 417/402/1
f 417/402/1 416/401/1 424/407/1
s 1
f 428/409/106 425/410/107 426/411/107
f 426/411/107 427/412/106 428/409/106
s 0
f 432/413/6 429/414/6 430/415/6
f 432/413/6 430/415/6 419/404/6
f 432/413/6 419/404/6 422/403/6
f 422/403/6 431/416/6 432/413/6
s 1
f 405/390/105 433/417/108 434/418/108
f 434/418/108 406/391/105 405/390/105
s 0
f 438/387/109 435/419/109 436/420/109
f 436/420/109 437/388/109 438/387/109
s 1
f 442/421/110 439/422/110 440/423/111
f 440/423/111 441/424/111 442/421/110
s 0
f 446/425/112 443/426/112 444/427/112
f 444/427/112 445/428/112 446/425/112
f 450/429/73 447/430/73 448/431/73
f 448/431/73 449/432/73 450/429/73
f 454/433/48 451/434/48 452/435/48
f 452/435/48 453/436/48 454/433/48
f 458/437/6 455/438/6 456/439/6
f 456/439/6 457/440/6 458/437/6
f 462/441/1 459/442/1 460/443/1
f 460/443/1 461/444/1 462/441/1
f 459/442/1 423/408/1 424/407/1
f 424/407/1 460/443/1 459/442/1
f 455/438/6 421/406/6 420/405/6
f 420/405/6 456/439/6 455/438/6
f 466/445/113 463/446/113 464/447/113
f 464/447/113 465/448/113 466/445/113
f 470/394/114 467/449/114 468/450/114
f 468/450/114 469/395/114 470/394/114
f 474/451/99 471/452/99 472/453/99
f 472/453/99 473/454/99 474/451/99
s 1
f 478/455/115 475/456/116 476/457/116
f 476/457/116 477/458/115 478/455/115
s 0
f 482/459/73 479/460/73 480/461/73
f 480/461/73 481/462/73 482/459/73
f 488/463/1 483/464/1 484/465/1
f 488/463/1 484/465/1 485/466/1
f 488/463/1 485/466/1 486/467/1
f 486/467/1 487/468/1 488/463/1
f 492/469/6 489/470/6 490/471/6
f 490/471/6 491/472/6 492/469/6
f 494/473/1 493/474/1 487/468/1
f 487/468/1 486/467/1 494/473/1
s 1
f 498/475/117 495/476/118 496/477/118
f 496/477/118 497/478/117 498/475/117
s 0
f 502/479/6 499/480/6 500/481/6
f 502/479/6 500/481/6 489/470/6
f 502/479/6 489/470/6 492/469/6
f 492/469/6 501/482/6 502/479/6
s 1
f 506/483/119 503/484/120 504/485/120
f 504/485/120 505/486/119 506/483/119
s 0
f 510/453/121 507/487/121 508/488/121
f 508/488/121 509/454/121 510/453/121
s 1
f 514/489/122 511/490/122 512/491/123
f 512/491/123 513/492/123 514/489/122
s 0
f 518/493/124 515/494/124 516/495/124
f 516/495/124 517/496/124 518/493/124
f 522/497/48 519/498/48 520/499/48
f 520/499/48 521/500/48 522/497/48
f 526/501/23 523/502/23 524/503/23
f 524/503/23 525/504/23 526/501/23
f 530/505/6 527/506/6 528/507/6
f 528/507/6 529/508/6 530/505/6
f 534/509/1 531/510/1 532/511/1
f 532/511/1 533/512/1 534/509/1
f 531/510/1 493/474/1 494/473/1
f 494/473/1 532/511/1 531/510/1
f 527/506/6 491/472/6 490/471/6
f 490/471/6 528/507/6 527/506/6
f 538/513/125 535/514/125 536/515/125
f 536/515/125 537/516/125 538/513/125
f 542/460/126 539/455/126 540/458/126
f 540/458/126 541/461/126 542/460/126
f 546/517/73 543/518/73 544/519/73
f 544/519/73 545/520/73 546/517/73
s 1
f 550/521/127 547/522/128 548/523/128
f 548/523/128 549/524/127 550/521/127
s 0
f 554/525/48 551/526/48 552/527/48
f 552/527/48 553/528/48 554/525/48
f 560/529/1 555/530/1 556/531/1
f 560/529/1 556/531/1 557/532/1
f 560/529/1 557/532/1 558/533/1
f 558/533/1 559/534/1 560/529/1
f 564/535/6 561/536/6 562/537/6
f 562/537/6 563/538/6 564/535/6
f 566/539/1 565/540/1 559/534/1
f 559/534/1 558/533/1 566/539/1
s 1
f 570/541/129 567/542/130 568/543/130
f 568/543/130 569/544/129 570/541/129
s 0
f 574/545/6 571/546/6 572/547/6
f 574/545/6 572/547/6 561/536/6
f 574/545/6 561/536/6 564/535/6
f 564/535/6 573/548/6 574/545/6
s 1
f 547/522/128 575/549/131 576/550/131
f 576/550/131 548/523/128 547/522/128
s 0
f 580/519/132 577/551/132 578/552/132
f 578/552/132 579/520/132 580/519/132
s 1
f 584/553/133 581/554/133 582/555/134
f 582/555/134 583/556/134 584/553/133
s 0
f 588/557/135 585/558/135 586/559/135
f 586/559/135 587/560/135 588/557/135
f 592/561/23 589/562/23 590/563/23
f 590/563/23 591/564/23 592/561/23
f 596/565/99 593/566/99 594/567/99
f 594/567/99 595/568/99 596/565/99
f 600/569/6 597/570/6 598/571/6
f 598/571/6 599/572/6 600/569/6
f 604/573/1 601/574/1 602/575/1
f 602/575/1 603/576/1 604/573/1
f 601/574/1 565/540/1 566/539/1
f 566/539/1 602/575/1 601/574/1
f 597/570/6 563/538/6 562/537/6
f 562/537/6 598/571/6 597/570/6
f 608/577/136 605/578/136 606/579/136
f 606/579/136 607/580/136 608/577/136
f 612/581/137 609/582/137 610/583/137
f 610/583/137 611/584/137 612/581/137
f 616/585/48 613/586/48 614/587/48
f 614/587/48 615/588/48 616/585/48
s 1
f 620/589/138 617/590/139 618/591/139
f 618/591/139 619/592/138 620/589/138
s 0
f 624/593/23 621/594/23 622/595/23
f 622/595/23 623/596/23 624/593/23
f 630/597/1 625/598/1 626/599/1
f 630/597/1 626/599/1 627/600/1
f 630/597/1 627/600/1 628/601/1
f 628/601/1 629/602/1 630/597/1
f 634/603/6 631/604/6 632/605/6
f 632/605/6 633/606/6 634/603/6
f 636/607/1 635/608/1 629/602/1
f 629/602/1 628/601/1 636/607/1
s 1
f 640/609/140 637/610/141 638/611/141
f 638/611/141 639/612/140 640/609/140
s 0
f 644/613/6 641/614/6 642/615/6
f 644/613/6 642/615/6 631/604/6
f 644/613/6 631/604/6 634/603/6
f 634/603/6 643/616/6 644/613/6
s 1
f 617/590/139 645/617/142 646/618/142
f 646/618/142 618/591/139 617/590/139
s 0
f 650/619/143 647/620/143 648/621/143
f 648/621/143 649/622/143 650/619/143
s 1
f 654/623/144 651/624/144 652/625/145
f 652/625/145 653/626/145 654/623/144
s 0
f 658/627/146 655/628/146 656/629/146
f 656/629/146 657/630/146 658/627/146
f 662/631/99 659/632/99 660/633/99
f 660/633/99 661/634/99 662/631/99
f 666/635/73 663/636/73 664/637/73
f 664/637/73 665/638/73 666/635/73
f 670/639/6 667/640/6 668/641/6
f 668/641/6 669/642/6 670/639/6
f 674/643/1 671/644/1 672/645/1
f 672/645/1 673/646/1 674/643/1
f 671/644/1 635/608/1 636/607/1
f 636/607/1 672/645/1 671/644/1
f 667/640/6 633/606/6 632/605/6
f 632/605/6 668/641/6 667/640/6
f 678/647/147 675/648/147 676/649/147
f 676/649/148 677/650/148 678/647/148
f 682/594/149 679/651/149 680/652/149
f 680/652/150 681/595/150 682/594/150
