# Blender 4.2.3 LTS
# www.blender.org
mtllib ceilingfan.mtl
o defaultMaterial
v -0.000657 -7.542097 -38.370281
v -0.000657 -3.595495 -38.370281
v 13.149643 -3.595495 -36.051483
v 13.149643 -7.542097 -36.051479
v 24.713842 -3.595594 -29.374882
v 24.713842 -7.542092 -29.374880
v 24.713842 -7.542092 -29.374880
v 24.713842 -3.595594 -29.374882
v 33.297146 -3.595585 -19.145782
v 33.297146 -7.542089 -19.145781
v 37.864243 -3.595584 -6.597884
v 37.864243 -7.542083 -6.597884
v 37.864243 -3.595576 6.755315
v 37.864243 -7.542078 6.755315
v 33.297146 -3.595575 19.303215
v 33.297146 -7.542074 19.303217
v 24.713842 -3.595574 29.532314
v 24.713842 -7.542068 29.532316
v 24.713842 -7.542068 29.532316
v 24.713842 -3.595574 29.532314
v 13.149643 -3.595566 36.208912
v 13.149643 -7.542068 36.208916
v -0.000657 -3.595566 38.527714
v -0.000657 -7.542068 38.527714
v -13.150957 -3.595566 36.208912
v -13.150957 -7.542068 36.208916
v -24.715157 -3.595574 29.532314
v -24.715157 -7.542068 29.532316
v -24.715157 -7.542068 29.532316
v -24.715157 -3.595574 29.532314
v -33.298458 -3.595575 19.303215
v -33.298458 -7.542074 19.303217
v -37.865555 -3.595576 6.755315
v -37.865555 -7.542078 6.755315
v -37.865456 -3.595584 -6.597884
v -37.865456 -7.542083 -6.597884
v -33.298458 -3.595585 -19.145782
v -33.298458 -7.542089 -19.145781
v -24.715157 -3.595594 -29.374882
v -24.715157 -7.542092 -29.374880
v -10.544257 -20.210993 -28.889475
v -0.000657 -20.210993 -30.748573
v -0.000657 -23.364389 -26.247475
v -9.004757 -23.364389 -24.659773
v -24.715157 -7.542092 -29.374880
v -24.715157 -3.595594 -29.374882
v -13.150957 -3.595495 -36.051483
v -13.150957 -7.542097 -36.051479
v 30.358341 -0.154483 -5.274385
v 26.696642 -0.154491 -15.334985
v 22.798544 2.999012 -13.084386
v 25.925644 2.999013 -4.492787
v -13.150957 -16.769896 -36.051476
v -13.150957 -12.823294 -36.051479
v -0.000657 -12.823294 -38.370281
v -0.000657 -16.769897 -38.370277
v -37.865555 -7.542078 6.755315
v -37.865456 -7.542083 -6.597884
v -35.437057 -7.595183 -6.169683
v -35.437057 -7.595279 6.327116
v -24.715157 -16.769892 -29.374876
v -24.715157 -12.823293 -29.374878
v 24.713842 -12.823270 29.532318
v 33.297146 -12.823274 19.303219
v 31.161642 -12.770174 18.070318
v 23.128843 -12.770169 27.643318
v -33.298458 -16.769886 -19.145777
v -33.298458 -12.823289 -19.145779
v -24.715157 -12.823293 -29.374878
v -24.715157 -16.769892 -29.374876
v -0.000657 -7.542097 -38.370281
v 13.149643 -7.542097 -36.051479
v 12.306243 -7.595193 -33.734280
v -0.000657 -7.595194 -35.904381
v -37.865456 -16.769880 -6.597879
v -37.865456 -12.823284 -6.597881
v -37.865456 -12.823284 -6.597881
v -37.865555 -12.823278 6.755318
v -35.437057 -12.770178 6.327119
v -35.437057 -12.770183 -6.169681
v -37.865555 -16.769876 6.755320
v -37.865555 -12.823278 6.755318
v 24.713842 -7.542068 29.532316
v 13.149643 -7.542068 36.208916
v 12.306243 -7.595269 33.891712
v 23.128843 -7.595269 27.643316
v -33.298458 -16.769873 19.303221
v -33.298458 -12.823274 19.303219
v 13.149643 -12.823294 -36.051479
v -0.000657 -12.823294 -38.370281
v -0.000657 -12.770193 -35.904381
v 12.306243 -12.770193 -33.734280
v -24.715157 -16.769869 29.532320
v -24.715157 -12.823270 29.532318
v -33.298458 -7.542089 -19.145781
v -31.162956 -7.595189 -17.912781
v -13.150957 -16.769869 36.208916
v -13.150957 -12.823265 36.208916
v -24.715157 -12.823270 29.532318
v -24.715157 -16.769869 29.532320
v 13.149643 -12.823265 36.208916
v 12.306243 -12.770168 33.891712
v -0.000657 -16.769867 38.527718
v -0.000657 -12.823265 38.527714
v 24.713842 -7.542092 -29.374880
v 23.128843 -7.595193 -27.485880
v 13.149643 -16.769869 36.208916
v 13.149643 -12.823265 36.208916
v -33.298458 -12.823289 -19.145779
v -31.162956 -12.770187 -17.912779
v 24.713842 -16.769869 29.532320
v 24.713842 -12.823270 29.532318
v -0.000657 -7.542068 38.527714
v -0.000657 -7.595268 36.061813
v 33.297146 -16.769873 19.303221
v 33.297146 -12.823274 19.303219
v 24.713842 -12.823270 29.532318
v 24.713842 -16.769869 29.532320
v 24.713842 -12.823293 -29.374878
v 23.128843 -12.770192 -27.485878
v 37.864243 -16.769876 6.755320
v 37.864243 -12.823278 6.755318
v -24.715157 -7.542092 -29.374880
v -23.130157 -7.595193 -27.485880
v 37.864243 -16.769880 -6.597879
v 37.864243 -12.823284 -6.597881
v -0.000657 -12.823265 38.527714
v -0.000657 -12.770168 36.061813
v 33.297146 -16.769886 -19.145777
v 33.297146 -12.823289 -19.145779
v 33.297146 -7.542089 -19.145781
v 31.161642 -7.595189 -17.912781
v 24.713842 -16.769892 -29.374876
v 24.713842 -12.823293 -29.374878
v -24.715157 -12.823293 -29.374878
v -23.130157 -12.770192 -27.485878
v 13.149643 -16.769896 -36.051476
v 13.149643 -12.823294 -36.051479
v 24.713842 -12.823293 -29.374878
v 24.713842 -16.769892 -29.374876
v -13.150957 -7.542068 36.208916
v -12.307557 -7.595269 33.891712
v 33.297146 -12.823289 -19.145779
v 31.161642 -12.770187 -17.912779
v -12.307557 -12.770193 -33.734280
v -12.307557 -7.595193 -33.734280
v -0.000657 -7.595194 -35.904381
v -0.000657 -12.770193 -35.904381
v -23.130157 -12.770192 -27.485878
v -23.130157 -7.595193 -27.485880
v -31.162956 -12.770187 -17.912779
v -31.162956 -7.595189 -17.912781
v -23.130157 -7.595193 -27.485880
v -23.130157 -12.770192 -27.485878
v -35.437057 -12.770183 -6.169681
v -35.437057 -7.595183 -6.169683
v -35.437057 -12.770178 6.327119
v -35.437057 -7.595279 6.327116
v -31.162956 -12.770174 18.070318
v -31.162956 -7.595273 18.070316
v -23.130157 -12.770169 27.643318
v -23.130157 -7.595269 27.643316
v -12.307557 -12.770168 33.891712
v -12.307557 -7.595269 33.891712
v -23.130157 -7.595269 27.643316
v -23.130157 -12.770169 27.643318
v -0.000657 -12.770168 36.061813
v -0.000657 -7.595268 36.061813
v 12.306243 -12.770168 33.891712
v 12.306243 -7.595269 33.891712
v 23.128843 -12.770169 27.643318
v 23.128843 -7.595269 27.643316
v 31.161642 -12.770174 18.070318
v 31.161642 -7.595273 18.070316
v 23.128843 -7.595269 27.643316
v 23.128843 -12.770169 27.643318
v 35.435745 -12.770178 6.327119
v 35.435745 -7.595279 6.327116
v 35.435745 -12.770183 -6.169681
v 35.435745 -7.595183 -6.169683
v 31.161642 -12.770187 -17.912779
v 31.161642 -7.595189 -17.912781
v 23.128843 -12.770192 -27.485878
v 23.128843 -7.595193 -27.485880
v 12.306243 -12.770193 -33.734280
v 12.306243 -7.595193 -33.734280
v 23.128843 -7.595193 -27.485880
v 23.128843 -12.770192 -27.485878
v 33.297146 -7.542074 19.303217
v 31.161642 -7.595273 18.070316
v -33.298458 -12.823274 19.303219
v -31.162956 -12.770174 18.070318
v 37.864243 -12.823278 6.755318
v 35.435745 -12.770178 6.327119
v -33.298458 -7.542074 19.303217
v -31.162956 -7.595273 18.070316
v 37.864243 -7.542078 6.755315
v 35.435745 -7.595279 6.327116
v -24.715157 -12.823270 29.532318
v -23.130157 -12.770169 27.643318
v 37.864243 -12.823284 -6.597881
v 35.435745 -12.770183 -6.169681
v -24.715157 -7.542068 29.532316
v -23.130157 -7.595269 27.643316
v -13.150957 -12.823294 -36.051479
v -12.307557 -12.770193 -33.734280
v 37.864243 -7.542083 -6.597884
v 35.435745 -7.595183 -6.169683
v -13.150957 -12.823265 36.208916
v -12.307557 -12.770168 33.891712
v -13.150957 -7.542097 -36.051479
v -12.307557 -7.595193 -33.734280
v 11.379043 -20.210993 -31.186672
v -0.000657 -20.210993 -33.193176
v -0.000657 -16.769897 -38.370277
v 13.149643 -16.769896 -36.051476
v -0.000657 -0.154394 -33.193184
v 11.379043 -0.154393 -31.186682
v 13.149643 -3.595495 -36.051483
v -0.000657 -3.595495 -38.370281
v 21.386145 -20.210987 -25.409075
v 24.713842 -16.769892 -29.374876
v 21.386145 -0.154492 -25.409084
v 24.713842 -3.595594 -29.374882
v 28.813644 -20.210987 -16.557175
v 33.297146 -16.769886 -19.145777
v 28.813644 -0.154491 -16.557184
v 33.297146 -3.595585 -19.145782
v 32.765743 -20.210981 -5.698879
v 37.864243 -16.769880 -6.597879
v 32.765743 -0.154483 -5.698886
v 37.864243 -3.595584 -6.597884
v 32.765743 -20.210978 5.856321
v 37.864243 -16.769876 6.755320
v 32.765743 -0.154483 5.856314
v 37.864243 -3.595576 6.755315
v 28.813644 -20.210974 16.714724
v 33.297146 -16.769873 19.303221
v 28.813644 -0.154474 16.714714
v 33.297146 -3.595575 19.303215
v 21.386145 -20.210970 25.566523
v 24.713842 -16.769869 29.532320
v 21.386145 -0.154473 25.566513
v 24.713842 -3.595574 29.532314
v 11.379043 -20.210970 31.344120
v 13.149643 -16.769869 36.208916
v 11.379043 -0.154473 31.344110
v 13.149643 -3.595566 36.208912
v -0.000657 -20.210970 33.350616
v -0.000657 -16.769867 38.527718
v -0.000657 -0.154472 33.350609
v -0.000657 -3.595566 38.527714
v -11.380357 -20.210970 31.344120
v -13.150957 -16.769869 36.208916
v -11.380357 -0.154473 31.344110
v -13.150957 -3.595566 36.208912
v -21.387459 -20.210970 25.566523
v -24.715157 -16.769869 29.532320
v -21.387459 -0.154473 25.566513
v -24.715157 -3.595574 29.532314
v -28.814959 -20.210974 16.714724
v -33.298458 -16.769873 19.303221
v -28.814959 -0.154474 16.714714
v -33.298458 -3.595575 19.303215
v -32.767056 -20.210978 5.856321
v -37.865555 -16.769876 6.755320
v -32.767056 -0.154483 5.856314
v -37.865555 -3.595576 6.755315
v -32.767056 -20.210981 -5.698879
v -37.865456 -16.769880 -6.597879
v -32.767056 -0.154483 -5.698886
v -37.865456 -3.595584 -6.597884
v -28.814959 -20.210987 -16.557175
v -33.298458 -16.769886 -19.145777
v -28.814959 -0.154491 -16.557184
v -33.298458 -3.595585 -19.145782
v -21.387459 -20.210987 -25.409075
v -24.715157 -16.769892 -29.374876
v -21.387459 -0.154492 -25.409084
v -24.715157 -3.595594 -29.374882
v -11.380357 -20.210993 -31.186672
v -13.150957 -16.769896 -36.051476
v -11.380357 -0.154393 -31.186682
v -13.150957 -3.595495 -36.051483
v 10.542943 -20.210993 -28.889475
v -0.000657 -20.210993 -30.748573
v -0.000657 -20.210993 -33.193176
v 11.379043 -20.210993 -31.186672
v -0.000657 -0.154393 -30.748583
v 10.542943 -0.154393 -28.889484
v 11.379043 -0.154393 -31.186682
v -0.000657 -0.154394 -33.193184
v 19.814745 -20.210987 -23.536373
v 21.386145 -20.210987 -25.409075
v 19.814745 -0.154492 -23.536383
v 21.386145 -0.154492 -25.409084
v 26.696642 -20.210987 -15.334977
v 28.813644 -20.210987 -16.557175
v 26.696642 -0.154491 -15.334985
v 28.813644 -0.154491 -16.557184
v 30.358341 -20.210981 -5.274379
v 32.765743 -20.210981 -5.698879
v 30.358341 -0.154483 -5.274385
v 32.765743 -0.154483 -5.698886
v 30.358341 -20.210978 5.431820
v 32.765743 -20.210978 5.856321
v 30.358341 -0.154483 5.431813
v 32.765743 -0.154483 5.856314
v 26.696642 -20.210974 15.492421
v 28.813644 -20.210974 16.714724
v 26.696642 -0.154474 15.492413
v 28.813644 -0.154474 16.714714
v 19.814745 -20.210970 23.693821
v 21.386145 -20.210970 25.566523
v 19.814745 -0.154473 23.693811
v 21.386145 -0.154473 25.566513
v 10.542943 -20.210970 29.046923
v 11.379043 -20.210970 31.344120
v 10.542943 -0.154473 29.046913
v 11.379043 -0.154473 31.344110
v -0.000657 -20.210970 30.906021
v -0.000657 -20.210970 33.350616
v -0.000657 -0.154473 30.906012
v -0.000657 -0.154472 33.350609
v -10.544257 -20.210970 29.046923
v -11.380357 -20.210970 31.344120
v -10.544257 -0.154473 29.046913
v -11.380357 -0.154473 31.344110
v -19.816057 -20.210970 23.693821
v -21.387459 -20.210970 25.566523
v -19.816057 -0.154473 23.693811
v -21.387459 -0.154473 25.566513
v -26.697859 -20.210974 15.492421
v -28.814959 -20.210974 16.714724
v -26.697859 -0.154474 15.492413
v -28.814959 -0.154474 16.714714
v -30.359655 -20.210978 5.431820
v -32.767056 -20.210978 5.856321
v -30.359655 -0.154483 5.431813
v -32.767056 -0.154483 5.856314
v -30.359655 -20.210981 -5.274379
v -32.767056 -20.210981 -5.698879
v -30.359655 -0.154483 -5.274385
v -32.767056 -0.154483 -5.698886
v -26.697859 -20.210987 -15.334977
v -28.814959 -20.210987 -16.557175
v -26.697859 -0.154491 -15.334985
v -28.814959 -0.154491 -16.557184
v -19.816057 -20.210987 -23.536373
v -21.387459 -20.210987 -25.409075
v -19.816057 -0.154492 -23.536383
v -21.387459 -0.154492 -25.409084
v -10.544257 -20.210993 -28.889475
v -11.380357 -20.210993 -31.186672
v -10.544257 -0.154393 -28.889484
v -11.380357 -0.154393 -31.186682
v 9.003443 2.999011 -24.659782
v -0.000657 2.999011 -26.247484
v -9.004757 2.999011 -24.659782
v -16.922855 2.999012 -20.088285
v -22.799856 2.999012 -13.084386
v -25.926956 2.999013 -4.492787
v -25.926956 2.999021 4.650213
v -22.799856 2.999022 13.241812
v -16.922855 2.999022 20.245813
v -9.004757 2.999030 24.817312
v -0.000657 2.999030 26.404913
v 9.003443 2.999030 24.817312
v 16.921541 2.999022 20.245813
v 22.798544 2.999022 13.241812
v 25.925644 2.999021 4.650213
v 25.925644 2.999013 -4.492787
v 22.798544 2.999012 -13.084386
v 16.921541 2.999012 -20.088285
v -0.000657 -23.364384 -8.040477
v 2.776243 -23.364384 -7.550777
v 5.218243 -23.364384 -6.140877
v 7.030743 -23.364384 -3.980877
v 7.995143 -23.364380 -1.331177
v 7.995143 -23.364380 1.488623
v 7.030743 -23.364380 4.138323
v 5.218243 -23.364380 6.298322
v 2.776243 -23.364380 7.708223
v -0.000657 -23.364374 8.197923
v -2.777557 -23.364380 7.708223
v -5.219557 -23.364380 6.298322
v -7.032057 -23.364380 4.138323
v -7.996457 -23.364380 1.488623
v -7.996457 -23.364380 -1.331177
v -7.032057 -23.364384 -3.980877
v -5.219557 -23.364384 -6.140877
v -2.777557 -23.364384 -7.550777
v -19.816057 -0.154473 23.693811
v -10.544257 -0.154473 29.046913
v -9.004757 2.999030 24.817312
v -16.922855 2.999022 20.245813
v 30.358341 -20.210981 -5.274379
v 30.358341 -20.210978 5.431820
v 25.925644 -23.364380 4.650223
v 25.925644 -23.364384 -4.492777
v -0.000657 -0.154393 -30.748583
v -10.544257 -0.154393 -28.889484
v -9.004757 2.999011 -24.659782
v -0.000657 2.999011 -26.247484
v -19.816057 -20.210970 23.693821
v -26.697859 -20.210974 15.492421
v -22.799856 -23.364372 13.241822
v -16.922855 -23.364372 20.245823
v 30.358341 -0.154483 5.431813
v 25.925644 2.999021 4.650213
v -26.697859 -0.154474 15.492413
v -22.799856 2.999022 13.241812
v 26.696642 -20.210974 15.492421
v 22.798544 -23.364372 13.241822
v -30.359655 -20.210978 5.431820
v -25.926956 -23.364380 4.650223
v 26.696642 -0.154474 15.492413
v 22.798544 2.999022 13.241812
v -30.359655 -0.154483 5.431813
v -25.926956 2.999021 4.650213
v 19.814745 -20.210970 23.693821
v 16.921541 -23.364372 20.245823
v -30.359655 -20.210981 -5.274379
v -25.926956 -23.364384 -4.492777
v 19.814745 -0.154473 23.693811
v 16.921541 2.999022 20.245813
v 10.542943 -20.210993 -28.889475
v 9.003443 -23.364389 -24.659773
v -30.359655 -0.154483 -5.274385
v -25.926956 2.999013 -4.492787
v 10.542943 -20.210970 29.046923
v 9.003443 -23.364368 24.817322
v 10.542943 -0.154393 -28.889484
v 9.003443 2.999011 -24.659782
v -26.697859 -20.210987 -15.334977
v -22.799856 -23.364386 -13.084377
v 10.542943 -0.154473 29.046913
v 9.003443 2.999030 24.817312
v 19.814745 -20.210987 -23.536373
v 16.921541 -23.364389 -20.088276
v -26.697859 -0.154491 -15.334985
v -22.799856 2.999012 -13.084386
v -0.000657 -20.210970 30.906021
v -0.000657 -23.364368 26.404922
v 19.814745 -0.154492 -23.536383
v 16.921541 2.999012 -20.088285
v -19.816057 -20.210987 -23.536373
v -16.922855 -23.364389 -20.088276
v -0.000657 -0.154473 30.906012
v -0.000657 2.999030 26.404913
v 26.696642 -20.210987 -15.334977
v 22.798544 -23.364386 -13.084377
v -19.816057 -0.154492 -23.536383
v -16.922855 2.999012 -20.088285
v -10.544257 -20.210970 29.046923
v -9.004757 -23.364368 24.817322
v -0.000657 -23.364389 -26.247475
v 9.003443 -23.364389 -24.659773
v 16.921541 -23.364389 -20.088276
v 22.798544 -23.364386 -13.084377
v 25.925644 -23.364384 -4.492777
v 25.925644 -23.364380 4.650223
v 22.798544 -23.364372 13.241822
v 16.921541 -23.364372 20.245823
v 9.003443 -23.364368 24.817322
v -0.000657 -23.364368 26.404922
v -9.004757 -23.364368 24.817322
v -16.922855 -23.364372 20.245823
v -22.799856 -23.364372 13.241822
v -25.926956 -23.364380 4.650223
v -25.926956 -23.364384 -4.492777
v -22.799856 -23.364386 -13.084377
v -16.922855 -23.364389 -20.088276
v -9.004757 -23.364389 -24.659773
vn 0.3420 -0.0000 -0.9397
vn -0.0000 -0.0000 -1.0000
vn 0.6427 -0.0000 -0.7661
vn 0.8660 -0.0000 -0.5000
vn 0.6429 -0.0000 -0.7660
vn 0.9848 -0.0000 -0.1736
vn 0.9848 -0.0000 -0.1737
vn 0.9848 -0.0000 0.1737
vn 0.9848 -0.0000 0.1736
vn 0.8660 -0.0000 0.5000
vn 0.6428 -0.0000 0.7660
vn 0.3420 -0.0000 0.9397
vn 0.6427 -0.0000 0.7661
vn -0.0000 -0.0000 1.0000
vn -0.3420 -0.0000 0.9397
vn -0.6427 0.0001 0.7661
vn -0.6427 -0.0000 0.7661
vn -0.8660 -0.0000 0.5000
vn -0.6428 -0.0000 0.7660
vn -0.9848 -0.0000 0.1736
vn -0.9848 -0.0000 -0.1737
vn -0.9848 -0.0000 -0.1736
vn -0.8660 -0.0000 -0.5000
vn -0.6429 -0.0000 -0.7660
vn -0.1962 -0.8190 -0.5392
vn -0.0000 -0.8190 -0.5738
vn -0.3420 -0.0000 -0.9397
vn -0.6427 -0.0000 -0.7661
vn 0.5651 0.8190 -0.0996
vn 0.4969 0.8190 -0.2869
vn -0.0212 -0.9998 0.0037
vn -0.0212 -0.9998 -0.0037
vn -0.6427 -0.0001 -0.7661
vn 0.0138 0.9998 0.0165
vn 0.0186 0.9998 0.0108
vn -0.6428 -0.0000 -0.7660
vn -0.0000 -0.9998 -0.0215
vn 0.0074 -0.9998 -0.0202
vn -0.0212 0.9998 -0.0037
vn -0.0212 0.9998 0.0037
vn 0.0139 -0.9998 0.0165
vn 0.0074 -0.9998 0.0203
vn 0.0074 0.9998 -0.0202
vn -0.0000 0.9998 -0.0215
vn -0.6429 -0.0000 0.7660
vn -0.0186 -0.9998 -0.0108
vn 0.0074 0.9998 0.0202
vn 0.0138 -0.9998 -0.0165
vn -0.0186 0.9998 -0.0108
vn 0.6427 -0.0001 0.7661
vn -0.0000 -0.9998 0.0216
vn 0.0138 0.9998 -0.0165
vn -0.0138 -0.9998 -0.0165
vn -0.0000 0.9998 0.0215
vn 0.0186 -0.9998 -0.0108
vn 0.6428 -0.0000 -0.7660
vn -0.0138 0.9998 -0.0165
vn -0.0074 -0.9998 0.0203
vn 0.0186 0.9998 -0.0108
vn 0.6427 0.0001 -0.7661
vn 0.0187 -0.9998 0.0108
vn -0.0186 0.9998 0.0108
vn 0.0212 0.9998 0.0037
vn -0.0187 -0.9998 0.0108
vn 0.0212 -0.9998 0.0037
vn -0.0138 0.9998 0.0165
vn 0.0212 0.9998 -0.0037
vn -0.0139 -0.9998 0.0165
vn -0.0074 0.9998 -0.0202
vn 0.0212 -0.9998 -0.0037
vn -0.0074 0.9998 0.0202
vn -0.0074 -0.9998 -0.0202
vn 0.1893 -0.8328 -0.5202
vn -0.0000 -0.8328 -0.5536
vn -0.0000 0.8328 -0.5536
vn 0.1893 0.8328 -0.5202
vn 0.3558 -0.8328 -0.4241
vn 0.3558 0.8328 -0.4240
vn 0.4794 -0.8328 -0.2768
vn 0.4794 0.8328 -0.2768
vn 0.5451 -0.8328 -0.0961
vn 0.5451 0.8328 -0.0961
vn 0.5451 -0.8328 0.0961
vn 0.5451 0.8328 0.0961
vn 0.4794 -0.8328 0.2768
vn 0.4794 0.8328 0.2768
vn 0.3558 -0.8328 0.4241
vn 0.3558 0.8328 0.4241
vn 0.1893 -0.8328 0.5202
vn 0.1893 0.8328 0.5202
vn -0.0000 -0.8328 0.5536
vn -0.0000 0.8328 0.5536
vn -0.1893 -0.8328 0.5202
vn -0.1893 0.8328 0.5202
vn -0.3558 -0.8328 0.4241
vn -0.3558 0.8328 0.4241
vn -0.4794 -0.8328 0.2768
vn -0.4794 0.8328 0.2768
vn -0.5451 -0.8328 0.0961
vn -0.5451 0.8328 0.0961
vn -0.5451 -0.8328 -0.0961
vn -0.5451 0.8328 -0.0961
vn -0.4794 -0.8328 -0.2768
vn -0.4794 0.8328 -0.2768
vn -0.3558 -0.8328 -0.4241
vn -0.3558 -0.8328 -0.4240
vn -0.3558 0.8328 -0.4241
vn -0.1893 -0.8328 -0.5202
vn -0.1893 0.8328 -0.5202
vn -0.0000 -1.0000 -0.0000
vn -0.0000 1.0000 -0.0000
vn -0.3688 0.8190 0.4396
vn -0.1963 0.8190 0.5392
vn -0.1962 0.8190 0.5392
vn 0.5651 -0.8190 -0.0996
vn 0.5651 -0.8190 0.0996
vn -0.0000 0.8190 -0.5738
vn -0.1962 0.8190 -0.5392
vn -0.3688 -0.8190 0.4395
vn -0.4969 -0.8190 0.2869
vn 0.5651 0.8190 0.0996
vn -0.4969 0.8190 0.2869
vn 0.4969 -0.8190 0.2869
vn -0.5651 -0.8190 0.0996
vn 0.4969 0.8190 0.2869
vn -0.5651 0.8190 0.0996
vn 0.3688 -0.8190 0.4395
vn -0.5651 -0.8190 -0.0996
vn 0.3688 0.8190 0.4396
vn 0.1962 -0.8190 -0.5392
vn -0.5651 0.8190 -0.0996
vn 0.1962 -0.8190 0.5392
vn 0.1962 0.8190 -0.5392
vn -0.4969 -0.8190 -0.2869
vn 0.1962 0.8190 0.5392
vn 0.1963 0.8190 0.5392
vn 0.3688 -0.8190 -0.4395
vn -0.4969 0.8190 -0.2869
vn -0.0000 -0.8190 0.5738
vn 0.3688 0.8190 -0.4395
vn 0.3688 0.8190 -0.4396
vn -0.3688 -0.8190 -0.4395
vn -0.0000 0.8190 0.5738
vn 0.4969 -0.8190 -0.2869
vn -0.3688 0.8190 -0.4396
vn -0.1962 -0.8190 0.5392
vt 0.763924 0.123756
vt 0.763924 0.095113
vt 0.754915 0.095113
vt 0.754915 0.123756
vt 0.763924 0.147106
vt 0.754915 0.147106
vt 0.931513 0.050704
vt 0.931513 0.027354
vt 0.922504 0.027354
vt 0.922504 0.050704
vt 0.931513 0.079347
vt 0.922504 0.079347
vt 0.931513 0.109828
vt 0.922504 0.109828
vt 0.931513 0.138472
vt 0.922504 0.138472
vt 0.931513 0.161822
vt 0.922504 0.161822
vt 0.015710 0.050372
vt 0.015710 0.027022
vt 0.006701 0.027022
vt 0.006701 0.050372
vt 0.015710 0.079015
vt 0.006701 0.079015
vt 0.015710 0.109496
vt 0.006701 0.109496
vt 0.015710 0.138140
vt 0.006701 0.138140
vt 0.953924 0.050704
vt 0.953924 0.027354
vt 0.944915 0.027354
vt 0.944915 0.050704
vt 0.953924 0.079347
vt 0.944915 0.079347
vt 0.953924 0.109829
vt 0.944915 0.109829
vt 0.953924 0.138472
vt 0.944915 0.138472
vt 0.953924 0.161822
vt 0.944915 0.161822
vt 0.332142 0.467516
vt 0.322023 0.465732
vt 0.322023 0.490171
vt 0.332142 0.488387
vt 0.763924 0.064631
vt 0.763924 0.035988
vt 0.754915 0.035988
vt 0.754915 0.064631
vt 0.184499 0.232543
vt 0.180985 0.222888
vt 0.159820 0.235108
vt 0.166425 0.242978
vt 0.595756 0.097984
vt 0.595756 0.128466
vt 0.604764 0.128466
vt 0.604764 0.097984
vt 0.577594 0.395813
vt 0.577594 0.390184
vt 0.547576 0.395477
vt 0.549501 0.400766
vt 0.595756 0.157109
vt 0.604764 0.157109
vt 0.257851 0.415029
vt 0.261469 0.410717
vt 0.235071 0.395477
vt 0.233146 0.400766
vt 0.975157 0.993299
vt 0.975157 0.969949
vt 0.966148 0.969949
vt 0.966148 0.993299
vt 0.496703 0.492215
vt 0.491160 0.493192
vt 0.501585 0.521835
vt 0.506460 0.519021
vt 0.975157 0.941306
vt 0.966148 0.941306
vt 0.205053 0.560090
vt 0.205053 0.565719
vt 0.235071 0.560426
vt 0.233146 0.555137
vt 0.975157 0.910824
vt 0.966148 0.910824
vt 0.648729 0.519021
vt 0.653604 0.521835
vt 0.664029 0.493192
vt 0.658486 0.492215
vt 0.975157 0.882181
vt 0.966148 0.882181
vt 0.124162 0.463688
vt 0.118619 0.462711
vt 0.118619 0.493192
vt 0.124162 0.492215
vt 0.975157 0.858831
vt 0.966148 0.858831
vt 0.521178 0.410717
vt 0.524796 0.415029
vt 0.732504 0.035988
vt 0.732504 0.064631
vt 0.741513 0.064631
vt 0.741513 0.035988
vt 0.276188 0.436882
vt 0.281062 0.434067
vt 0.732504 0.095113
vt 0.741513 0.095113
vt 0.521178 0.545186
vt 0.524796 0.540874
vt 0.732504 0.123756
vt 0.741513 0.123756
vt 0.176960 0.555137
vt 0.175035 0.560426
vt 0.732504 0.147106
vt 0.741513 0.147106
vt 0.664029 0.462711
vt 0.658486 0.463688
vt 0.897596 0.735488
vt 0.897596 0.712137
vt 0.888587 0.712137
vt 0.888587 0.735488
vt 0.133919 0.436882
vt 0.129044 0.434067
vt 0.897596 0.683494
vt 0.888587 0.683494
vt 0.501585 0.434067
vt 0.506460 0.436882
vt 0.897596 0.653013
vt 0.888587 0.653013
vt 0.285944 0.463688
vt 0.291488 0.462711
vt 0.897596 0.624369
vt 0.888587 0.624369
vt 0.547576 0.560426
vt 0.549501 0.555137
vt 0.897596 0.601019
vt 0.888587 0.601019
vt 0.152255 0.540874
vt 0.148637 0.545186
vt 0.595756 0.045991
vt 0.595756 0.069341
vt 0.604764 0.069341
vt 0.604764 0.045991
vt 0.653604 0.434067
vt 0.648729 0.436882
vt 0.152255 0.415029
vt 0.148637 0.410717
vt 0.582354 0.108450
vt 0.582354 0.079924
vt 0.570541 0.079924
vt 0.570541 0.108450
vt 0.582354 0.053117
vt 0.570541 0.053117
vt 0.874915 0.875269
vt 0.874915 0.853417
vt 0.863102 0.853417
vt 0.863102 0.875269
vt 0.874915 0.826610
vt 0.863102 0.826610
vt 0.874915 0.798084
vt 0.863102 0.798084
vt 0.874915 0.771278
vt 0.863102 0.771278
vt 0.874915 0.749425
vt 0.863102 0.749425
vt 0.719103 0.147106
vt 0.719103 0.120300
vt 0.707290 0.120300
vt 0.707290 0.147106
vt 0.719103 0.091773
vt 0.707290 0.091773
vt 0.719103 0.064967
vt 0.707290 0.064967
vt 0.719103 0.043115
vt 0.707290 0.043115
vt 0.389680 0.257136
vt 0.389680 0.235283
vt 0.377867 0.235283
vt 0.377867 0.257136
vt 0.389680 0.208477
vt 0.377867 0.208477
vt 0.389680 0.179950
vt 0.377867 0.179950
vt 0.389680 0.153144
vt 0.377867 0.153144
vt 0.389680 0.131292
vt 0.377867 0.131292
vt 0.582354 0.157109
vt 0.582354 0.135256
vt 0.570541 0.135256
vt 0.570541 0.157109
vt 0.630392 0.540874
vt 0.634011 0.545186
vt 0.261469 0.545186
vt 0.257851 0.540874
vt 0.205053 0.390184
vt 0.205053 0.395812
vt 0.605688 0.400766
vt 0.607613 0.395477
vt 0.605688 0.555137
vt 0.607613 0.560426
vt 0.281062 0.521835
vt 0.276188 0.519021
vt 0.175035 0.395477
vt 0.176960 0.400766
vt 0.630392 0.415029
vt 0.634011 0.410717
vt 0.129044 0.521835
vt 0.133919 0.519021
vt 0.577594 0.560090
vt 0.577594 0.565719
vt 0.291488 0.493192
vt 0.285944 0.492215
vt 0.496703 0.463688
vt 0.491160 0.462711
vt 0.315315 0.521835
vt 0.325549 0.515927
vt 0.316527 0.491140
vt 0.304889 0.493192
vt 0.118619 0.304255
vt 0.130257 0.302203
vt 0.130257 0.275825
vt 0.118619 0.273773
vt 0.334908 0.545186
vt 0.342504 0.536133
vt 0.139278 0.251039
vt 0.129044 0.245130
vt 0.361305 0.560426
vt 0.365347 0.549321
vt 0.156233 0.230833
vt 0.148637 0.221780
vt 0.391324 0.565719
vt 0.391324 0.553902
vt 0.179077 0.217644
vt 0.175035 0.206539
vt 0.421342 0.560426
vt 0.417300 0.549321
vt 0.205053 0.213064
vt 0.205053 0.201246
vt 0.447740 0.545186
vt 0.440144 0.536133
vt 0.231030 0.217644
vt 0.235071 0.206539
vt 0.467333 0.521835
vt 0.457099 0.515927
vt 0.253873 0.230833
vt 0.261469 0.221780
vt 0.477758 0.493192
vt 0.466120 0.491140
vt 0.270828 0.251039
vt 0.281062 0.245130
vt 0.477758 0.462711
vt 0.466120 0.464763
vt 0.279849 0.275825
vt 0.291488 0.273773
vt 0.467333 0.434067
vt 0.457099 0.439976
vt 0.279849 0.302203
vt 0.291488 0.304255
vt 0.447740 0.410717
vt 0.440144 0.419770
vt 0.270828 0.326989
vt 0.281062 0.332898
vt 0.421342 0.395477
vt 0.417300 0.406582
vt 0.253873 0.347195
vt 0.261469 0.356248
vt 0.391324 0.390184
vt 0.391324 0.402001
vt 0.231030 0.360384
vt 0.235071 0.371489
vt 0.361305 0.395477
vt 0.365347 0.406582
vt 0.205053 0.364964
vt 0.205053 0.376782
vt 0.334908 0.410717
vt 0.342504 0.419770
vt 0.179077 0.360384
vt 0.175035 0.371489
vt 0.315315 0.434067
vt 0.325549 0.439976
vt 0.156233 0.347195
vt 0.148637 0.356248
vt 0.304889 0.462711
vt 0.316527 0.464763
vt 0.139278 0.326989
vt 0.129044 0.332898
vt 0.330382 0.513136
vt 0.135752 0.301234
vt 0.135752 0.276794
vt 0.346091 0.531858
vt 0.144111 0.253829
vt 0.367256 0.544078
vt 0.391324 0.548321
vt 0.415392 0.544078
vt 0.205053 0.218644
vt 0.436557 0.531858
vt 0.229121 0.222888
vt 0.452266 0.513136
vt 0.250286 0.235108
vt 0.460625 0.490171
vt 0.265995 0.253829
vt 0.460625 0.465732
vt 0.274354 0.276794
vt 0.452266 0.442767
vt 0.274354 0.301234
vt 0.436557 0.424045
vt 0.265995 0.324199
vt 0.415392 0.411825
vt 0.250286 0.342920
vt 0.391324 0.407582
vt 0.229121 0.355140
vt 0.367256 0.411825
vt 0.205053 0.359384
vt 0.346091 0.424045
vt 0.180985 0.355140
vt 0.330382 0.442767
vt 0.159820 0.342920
vt 0.144111 0.324199
vt 0.153009 0.258966
vt 0.145871 0.278579
vt 0.145871 0.299449
vt 0.153009 0.319062
vt 0.166425 0.335050
vt 0.184499 0.345485
vt 0.205053 0.349109
vt 0.225607 0.345485
vt 0.243682 0.335050
vt 0.257097 0.319062
vt 0.264235 0.299449
vt 0.264235 0.278579
vt 0.257097 0.258966
vt 0.243682 0.242978
vt 0.225607 0.232543
vt 0.205053 0.228919
vt 0.373072 0.474733
vt 0.373072 0.481170
vt 0.375273 0.487218
vt 0.379411 0.492149
vt 0.384985 0.495368
vt 0.391324 0.496485
vt 0.397663 0.495368
vt 0.403237 0.492149
vt 0.407374 0.487218
vt 0.409576 0.481170
vt 0.409576 0.474733
vt 0.407374 0.468685
vt 0.403237 0.463754
vt 0.397663 0.460536
vt 0.391324 0.459418
vt 0.384985 0.460536
vt 0.379411 0.463754
vt 0.375273 0.468685
vt 0.391324 0.538047
vt 0.411878 0.534422
vt 0.429952 0.431916
vt 0.411878 0.421480
vt 0.429952 0.523987
vt 0.391324 0.417856
vt 0.443368 0.507999
vt 0.370770 0.421481
vt 0.339280 0.507999
vt 0.450506 0.488387
vt 0.352695 0.431916
vt 0.352695 0.523987
vt 0.450506 0.467516
vt 0.339280 0.447904
vt 0.370770 0.534422
vt 0.443368 0.447904
s 1
usemtl Ceiling_Fan_Mat.001
f 4/1/1 1/2/2 2/3/2
f 2/3/2 3/4/1 4/1/1
f 6/5/3 4/1/1 3/4/1
f 3/4/1 5/6/3 6/5/3
f 10/7/4 7/8/5 8/9/5
f 8/9/5 9/10/4 10/7/4
f 12/11/6 10/7/4 9/10/4
f 9/10/4 11/12/7 12/11/6
f 14/13/8 12/11/6 11/12/7
f 11/12/7 13/14/9 14/13/8
f 16/15/10 14/13/8 13/14/9
f 13/14/9 15/16/10 16/15/10
f 18/17/11 16/15/10 15/16/10
f 15/16/10 17/18/11 18/17/11
f 22/19/12 19/20/13 20/21/13
f 20/21/13 21/22/12 22/19/12
f 24/23/14 22/19/12 21/22/12
f 21/22/12 23/24/14 24/23/14
f 26/25/15 24/23/14 23/24/14
f 23/24/14 25/26/15 26/25/15
f 28/27/16 26/25/15 25/26/15
f 25/26/15 27/28/17 28/27/16
f 32/29/18 29/30/19 30/31/19
f 30/31/19 31/32/18 32/29/18
f 34/33/20 32/29/18 31/32/18
f 31/32/18 33/34/20 34/33/20
f 36/35/21 34/33/20 33/34/20
f 33/34/20 35/36/22 36/35/21
f 38/37/23 36/35/21 35/36/22
f 35/36/22 37/38/23 38/37/23
f 40/39/24 38/37/23 37/38/23
f 37/38/23 39/40/24 40/39/24
f 44/41/25 41/42/25 42/43/26
f 42/43/26 43/44/26 44/41/25
f 48/45/27 45/46/28 46/47/28
f 46/47/28 47/48/27 48/45/27
f 1/2/2 48/45/27 47/48/27
f 47/48/27 2/3/2 1/2/2
f 52/49/29 49/50/29 50/51/30
f 50/51/30 51/52/30 52/49/29
f 56/53/2 53/54/27 54/55/27
f 54/55/27 55/56/2 56/53/2
f 60/57/31 57/58/31 58/59/32
f 58/59/32 59/60/32 60/57/31
f 53/54/27 61/61/28 62/62/33
f 62/62/33 54/55/27 53/54/27
f 66/63/34 63/64/34 64/65/35
f 64/65/35 65/66/35 66/63/34
f 70/67/36 67/68/23 68/69/23
f 68/69/23 69/70/36 70/67/36
f 74/71/37 71/72/37 72/73/38
f 72/73/38 73/74/38 74/71/37
f 67/68/23 75/75/21 76/76/22
f 76/76/22 68/69/23 67/68/23
f 80/77/39 77/78/39 78/79/40
f 78/79/40 79/80/40 80/77/39
f 75/75/21 81/81/20 82/82/20
f 82/82/20 76/76/22 75/75/21
f 86/83/41 83/84/41 84/85/42
f 84/85/42 85/86/42 86/83/41
f 81/81/20 87/87/18 88/88/18
f 88/88/18 82/82/20 81/81/20
f 92/89/43 89/90/43 90/91/44
f 90/91/44 91/92/44 92/89/43
f 87/87/18 93/93/45 94/94/45
f 94/94/45 88/88/18 87/87/18
f 59/60/32 58/59/32 95/95/46
f 95/95/46 96/96/46 59/60/32
f 100/97/17 97/98/15 98/99/15
f 98/99/15 99/100/17 100/97/17
f 102/101/47 101/102/47 63/64/34
f 63/64/34 66/63/34 102/101/47
f 97/98/15 103/103/14 104/104/14
f 104/104/14 98/99/15 97/98/15
f 73/74/38 72/73/38 105/105/48
f 105/105/48 106/106/48 73/74/38
f 103/103/14 107/107/12 108/108/12
f 108/108/12 104/104/14 103/103/14
f 110/109/49 109/110/49 77/78/39
f 77/78/39 80/77/39 110/109/49
f 107/107/12 111/111/13 112/112/50
f 112/112/50 108/108/12 107/107/12
f 85/86/42 84/85/42 113/113/51
f 113/113/51 114/114/51 85/86/42
f 118/115/11 115/116/10 116/117/10
f 116/117/10 117/118/11 118/115/11
f 120/119/52 119/120/52 89/90/43
f 89/90/43 92/89/43 120/119/52
f 115/116/10 121/121/8 122/122/9
f 122/122/9 116/117/10 115/116/10
f 96/96/46 95/95/46 123/123/53
f 123/123/53 124/124/53 96/96/46
f 121/121/8 125/125/6 126/126/7
f 126/126/7 122/122/9 121/121/8
f 128/127/54 127/128/54 101/102/47
f 101/102/47 102/101/47 128/127/54
f 125/125/6 129/129/4 130/130/4
f 130/130/4 126/126/7 125/125/6
f 106/106/48 105/105/48 131/131/55
f 131/131/55 132/132/55 106/106/48
f 129/129/4 133/133/56 134/134/56
f 134/134/56 130/130/4 129/129/4
f 136/135/57 135/136/57 109/110/49
f 109/110/49 110/109/49 136/135/57
f 140/137/3 137/138/1 138/139/1
f 138/139/1 139/140/3 140/137/3
f 114/114/51 113/113/51 141/141/58
f 141/141/58 142/142/58 114/114/51
f 137/138/1 56/53/2 55/56/2
f 55/56/2 138/139/1 137/138/1
f 144/143/59 143/144/59 119/120/52
f 119/120/52 120/119/52 144/143/59
f 148/145/2 145/146/27 146/147/27
f 146/147/27 147/148/2 148/145/2
f 145/146/27 149/149/28 150/150/28
f 150/150/28 146/147/27 145/146/27
f 154/151/24 151/152/23 152/153/23
f 152/153/23 153/154/24 154/151/24
f 151/152/23 155/155/21 156/156/22
f 156/156/22 152/153/23 151/152/23
f 155/155/21 157/157/20 158/158/20
f 158/158/20 156/156/22 155/155/21
f 157/157/20 159/159/18 160/160/18
f 160/160/18 158/158/20 157/157/20
f 159/159/18 161/161/19 162/162/19
f 162/162/19 160/160/18 159/159/18
f 166/163/17 163/164/15 164/165/15
f 164/165/15 165/166/17 166/163/17
f 163/164/15 167/167/14 168/168/14
f 168/168/14 164/165/15 163/164/15
f 167/167/14 169/169/12 170/170/12
f 170/170/12 168/168/14 167/167/14
f 169/169/12 171/171/13 172/172/13
f 172/172/13 170/170/12 169/169/12
f 176/173/11 173/174/10 174/175/10
f 174/175/10 175/176/11 176/173/11
f 173/174/10 177/177/9 178/178/9
f 178/178/9 174/175/10 173/174/10
f 177/177/9 179/179/6 180/180/7
f 180/180/7 178/178/9 177/177/9
f 179/179/6 181/181/4 182/182/4
f 182/182/4 180/180/7 179/179/6
f 181/181/4 183/183/5 184/184/5
f 184/184/5 182/182/4 181/181/4
f 188/185/60 185/186/1 186/187/1
f 186/187/1 187/188/3 188/185/60
f 185/186/1 148/145/2 147/148/2
f 147/148/2 186/187/1 185/186/1
f 190/189/61 189/190/61 83/84/41
f 83/84/41 86/83/41 190/189/61
f 79/80/40 78/79/40 191/191/62
f 191/191/62 192/192/62 79/80/40
f 65/66/35 64/65/35 193/193/63
f 193/193/63 194/194/63 65/66/35
f 196/195/64 195/196/64 57/58/31
f 57/58/31 60/57/31 196/195/64
f 198/197/65 197/198/65 189/190/61
f 189/190/61 190/189/61 198/197/65
f 192/192/62 191/191/62 199/199/66
f 199/199/66 200/200/66 192/192/62
f 194/194/63 193/193/63 201/201/67
f 201/201/67 202/202/67 194/194/63
f 204/203/68 203/204/68 195/196/64
f 195/196/64 196/195/64 204/203/68
f 91/92/44 90/91/44 205/205/69
f 205/205/69 206/206/69 91/92/44
f 208/207/70 207/208/70 197/198/65
f 197/198/65 198/197/65 208/207/70
f 200/200/66 199/199/66 209/209/71
f 209/209/71 210/210/71 200/200/66
f 212/211/72 211/212/72 71/72/37
f 71/72/37 74/71/37 212/211/72
f 202/202/67 201/201/67 143/144/59
f 143/144/59 144/143/59 202/202/67
f 142/142/58 141/141/58 203/204/68
f 203/204/68 204/203/68 142/142/58
f 206/206/69 205/205/69 135/136/57
f 135/136/57 136/135/57 206/206/69
f 132/132/55 131/131/55 207/208/70
f 207/208/70 208/207/70 132/132/55
f 210/210/71 209/209/71 127/128/54
f 127/128/54 128/127/54 210/210/71
f 124/124/53 123/123/53 211/212/72
f 211/212/72 212/211/72 124/124/53
f 216/213/73 213/214/73 214/215/74
f 214/215/74 215/216/74 216/213/73
f 220/217/75 217/218/75 218/219/76
f 218/219/76 219/220/76 220/217/75
f 222/221/77 221/222/77 213/214/73
f 213/214/73 216/213/73 222/221/77
f 219/220/76 218/219/76 223/223/78
f 223/223/78 224/224/78 219/220/76
f 226/225/79 225/226/79 221/222/77
f 221/222/77 222/221/77 226/225/79
f 224/224/78 223/223/78 227/227/80
f 227/227/80 228/228/80 224/224/78
f 230/229/81 229/230/81 225/226/79
f 225/226/79 226/225/79 230/229/81
f 228/228/80 227/227/80 231/231/82
f 231/231/82 232/232/82 228/228/80
f 234/233/83 233/234/83 229/230/81
f 229/230/81 230/229/81 234/233/83
f 232/232/82 231/231/82 235/235/84
f 235/235/84 236/236/84 232/232/82
f 238/237/85 237/238/85 233/234/83
f 233/234/83 234/233/83 238/237/85
f 236/236/84 235/235/84 239/239/86
f 239/239/86 240/240/86 236/236/84
f 242/241/87 241/242/87 237/238/85
f 237/238/85 238/237/85 242/241/87
f 240/240/86 239/239/86 243/243/88
f 243/243/88 244/244/88 240/240/86
f 246/245/89 245/246/89 241/242/87
f 241/242/87 242/241/87 246/245/89
f 244/244/88 243/243/88 247/247/90
f 247/247/90 248/248/90 244/244/88
f 250/249/91 249/250/91 245/246/89
f 245/246/89 246/245/89 250/249/91
f 248/248/90 247/247/90 251/251/92
f 251/251/92 252/252/92 248/248/90
f 254/253/93 253/254/93 249/250/91
f 249/250/91 250/249/91 254/253/93
f 252/252/92 251/251/92 255/255/94
f 255/255/94 256/256/94 252/252/92
f 258/257/95 257/258/95 253/254/93
f 253/254/93 254/253/93 258/257/95
f 256/256/94 255/255/94 259/259/96
f 259/259/96 260/260/96 256/256/94
f 262/261/97 261/262/97 257/258/95
f 257/258/95 258/257/95 262/261/97
f 260/260/96 259/259/96 263/263/98
f 263/263/98 264/264/98 260/260/96
f 266/265/99 265/266/99 261/262/97
f 261/262/97 262/261/97 266/265/99
f 264/264/98 263/263/98 267/267/100
f 267/267/100 268/268/100 264/264/98
f 270/269/101 269/270/101 265/266/99
f 265/266/99 266/265/99 270/269/101
f 268/268/100 267/267/100 271/271/102
f 271/271/102 272/272/102 268/268/100
f 274/273/103 273/274/103 269/270/101
f 269/270/101 270/269/101 274/273/103
f 272/272/102 271/271/102 275/275/104
f 275/275/104 276/276/104 272/272/102
f 278/277/105 277/278/106 273/274/103
f 273/274/103 274/273/103 278/277/105
f 276/276/104 275/275/104 279/279/107
f 279/279/107 280/280/107 276/276/104
f 282/281/108 281/282/108 277/278/106
f 277/278/106 278/277/105 282/281/108
f 280/280/107 279/279/107 283/283/109
f 283/283/109 284/284/109 280/280/107
f 215/216/74 214/215/74 281/282/108
f 281/282/108 282/281/108 215/216/74
f 284/284/109 283/283/109 217/218/75
f 217/218/75 220/217/75 284/284/109
s 0
f 288/214/110 285/285/110 286/43/110
f 286/43/110 287/215/110 288/214/110
f 292/218/111 289/286/111 290/287/111
f 290/287/111 291/219/111 292/218/111
f 294/222/110 293/288/110 285/285/110
f 285/285/110 288/214/110 294/222/110
f 291/219/111 290/287/111 295/289/111
f 295/289/111 296/223/111 291/219/111
f 298/226/110 297/290/110 293/288/110
f 293/288/110 294/222/110 298/226/110
f 296/223/111 295/289/111 299/51/111
f 299/51/111 300/227/111 296/223/111
f 302/230/110 301/291/110 297/290/110
f 297/290/110 298/226/110 302/230/110
f 300/227/111 299/51/111 303/50/111
f 303/50/111 304/231/111 300/227/111
f 306/234/110 305/292/110 301/291/110
f 301/291/110 302/230/110 306/234/110
f 304/231/111 303/50/111 307/293/111
f 307/293/111 308/235/111 304/231/111
f 310/238/110 309/294/110 305/292/110
f 305/292/110 306/234/110 310/238/110
f 308/235/111 307/293/111 311/295/111
f 311/295/111 312/239/111 308/235/111
f 314/242/110 313/296/110 309/294/110
f 309/294/110 310/238/110 314/242/110
f 312/239/111 311/295/111 315/297/111
f 315/297/111 316/243/111 312/239/111
f 318/246/110 317/298/110 313/296/110
f 313/296/110 314/242/110 318/246/110
f 316/243/111 315/297/111 319/299/111
f 319/299/111 320/247/111 316/243/111
f 322/250/110 321/300/110 317/298/110
f 317/298/110 318/246/110 322/250/110
f 320/247/111 319/299/111 323/301/111
f 323/301/111 324/251/111 320/247/111
f 326/254/110 325/302/110 321/300/110
f 321/300/110 322/250/110 326/254/110
f 324/251/111 323/301/111 327/303/111
f 327/303/111 328/255/111 324/251/111
f 330/258/110 329/304/110 325/302/110
f 325/302/110 326/254/110 330/258/110
f 328/255/111 327/303/111 331/305/111
f 331/305/111 332/259/111 328/255/111
f 334/262/110 333/306/110 329/304/110
f 329/304/110 330/258/110 334/262/110
f 332/259/111 331/305/111 335/307/111
f 335/307/111 336/263/111 332/259/111
f 338/266/110 337/308/110 333/306/110
f 333/306/110 334/262/110 338/266/110
f 336/263/111 335/307/111 339/309/111
f 339/309/111 340/267/111 336/263/111
f 342/270/110 341/310/110 337/308/110
f 337/308/110 338/266/110 342/270/110
f 340/267/111 339/309/111 343/311/111
f 343/311/111 344/271/111 340/267/111
f 346/274/110 345/312/110 341/310/110
f 341/310/110 342/270/110 346/274/110
f 344/271/111 343/311/111 347/313/111
f 347/313/111 348/275/111 344/271/111
f 350/278/110 349/314/110 345/312/110
f 345/312/110 346/274/110 350/278/110
f 348/275/111 347/313/111 351/315/111
f 351/315/111 352/279/111 348/275/111
f 354/282/110 353/42/110 349/314/110
f 349/314/110 350/278/110 354/282/110
f 352/279/111 351/315/111 355/316/111
f 355/316/111 356/283/111 352/279/111
f 287/215/110 286/43/110 353/42/110
f 353/42/110 354/282/110 287/215/110
f 356/283/111 355/316/111 289/286/111
f 289/286/111 292/218/111 356/283/111
f 374/317/111 357/318/111 358/319/111
f 374/317/111 358/319/111 359/320/111
f 374/317/111 359/320/111 360/321/111
f 374/317/111 360/321/111 361/322/111
f 374/317/111 361/322/111 362/323/111
f 374/317/111 362/323/111 363/324/111
f 374/317/111 363/324/111 364/325/111
f 374/317/111 364/325/111 365/326/111
f 374/317/111 365/326/111 366/327/111
f 374/317/111 366/327/111 367/328/111
f 374/317/111 367/328/111 368/329/111
f 374/317/111 368/329/111 369/330/111
f 374/317/111 369/330/111 370/331/111
f 374/317/111 370/331/111 371/332/111
f 374/317/111 371/332/111 372/49/111
f 372/49/111 373/52/111 374/317/111
f 392/333/110 375/334/110 376/335/110
f 392/333/110 376/335/110 377/336/110
f 392/333/110 377/336/110 378/337/110
f 392/333/110 378/337/110 379/338/110
f 392/333/110 379/338/110 380/339/110
f 392/333/110 380/339/110 381/340/110
f 392/333/110 381/340/110 382/341/110
f 392/333/110 382/341/110 383/342/110
f 392/333/110 383/342/110 384/343/110
f 392/333/110 384/343/110 385/344/110
f 392/333/110 385/344/110 386/345/110
f 392/333/110 386/345/110 387/346/110
f 392/333/110 387/346/110 388/347/110
f 392/333/110 388/347/110 389/348/110
f 392/333/110 389/348/110 390/349/110
f 390/349/110 391/350/110 392/333/110
s 1
f 396/326/112 393/305/112 394/303/113
f 394/303/113 395/327/114 396/326/112
f 400/351/115 397/291/115 398/292/116
f 398/292/116 399/352/116 400/351/115
f 404/319/117 401/286/117 402/316/118
f 402/316/118 403/320/118 404/319/117
f 408/353/119 405/304/119 406/306/120
f 406/306/120 407/354/120 408/353/119
f 410/332/121 409/293/121 49/50/29
f 49/50/29 52/49/29 410/332/121
f 412/325/122 411/307/122 393/305/112
f 393/305/112 396/326/112 412/325/122
f 399/352/116 398/292/116 413/294/123
f 413/294/123 414/355/123 399/352/116
f 407/354/120 406/306/120 415/308/124
f 415/308/124 416/356/124 407/354/120
f 418/331/125 417/295/125 409/293/121
f 409/293/121 410/332/121 418/331/125
f 420/324/126 419/309/126 411/307/122
f 411/307/122 412/325/122 420/324/126
f 414/355/123 413/294/123 421/296/127
f 421/296/127 422/357/127 414/355/123
f 416/356/124 415/308/124 423/310/128
f 423/310/128 424/358/128 416/356/124
f 426/330/129 425/297/129 417/295/125
f 417/295/125 418/331/125 426/330/129
f 43/44/26 42/43/26 427/285/130
f 427/285/130 428/359/130 43/44/26
f 430/323/131 429/311/131 419/309/126
f 419/309/126 420/324/126 430/323/131
f 422/357/127 421/296/127 431/298/132
f 431/298/132 432/360/132 422/357/127
f 434/318/133 433/287/133 401/286/117
f 401/286/117 404/319/117 434/318/133
f 424/358/128 423/310/128 435/312/134
f 435/312/134 436/361/134 424/358/128
f 438/329/135 437/299/136 425/297/129
f 425/297/129 426/330/129 438/329/135
f 428/359/130 427/285/130 439/288/137
f 439/288/137 440/362/137 428/359/130
f 442/322/138 441/313/138 429/311/131
f 429/311/131 430/323/131 442/322/138
f 432/360/132 431/298/132 443/300/139
f 443/300/139 444/363/139 432/360/132
f 446/317/140 445/289/141 433/287/133
f 433/287/133 434/318/133 446/317/140
f 436/361/134 435/312/134 447/314/142
f 447/314/142 448/364/142 436/361/134
f 450/328/143 449/301/143 437/299/136
f 437/299/136 438/329/135 450/328/143
f 440/362/137 439/288/137 451/290/144
f 451/290/144 452/365/144 440/362/137
f 454/321/145 453/315/145 441/313/138
f 441/313/138 442/322/138 454/321/145
f 444/363/139 443/300/139 455/302/146
f 455/302/146 456/366/146 444/363/139
f 51/52/30 50/51/30 445/289/141
f 445/289/141 446/317/140 51/52/30
f 448/364/142 447/314/142 41/42/25
f 41/42/25 44/41/25 448/364/142
f 395/327/114 394/303/113 449/301/143
f 449/301/143 450/328/143 395/327/114
f 452/365/144 451/290/144 397/291/115
f 397/291/115 400/351/115 452/365/144
f 403/320/118 402/316/118 453/315/145
f 453/315/145 454/321/145 403/320/118
f 456/366/146 455/302/146 405/304/119
f 405/304/119 408/353/119 456/366/146
s 0
f 458/359/110 376/335/110 375/334/110
f 375/334/110 457/44/110 458/359/110
f 459/362/110 377/336/110 376/335/110
f 376/335/110 458/359/110 459/362/110
f 460/365/110 378/337/110 377/336/110
f 377/336/110 459/362/110 460/365/110
f 461/351/110 379/338/110 378/337/110
f 378/337/110 460/365/110 461/351/110
f 462/352/110 380/339/110 379/338/110
f 379/338/110 461/351/110 462/352/110
f 463/355/110 381/340/110 380/339/110
f 380/339/110 462/352/110 463/355/110
f 464/357/110 382/341/110 381/340/110
f 381/340/110 463/355/110 464/357/110
f 465/360/110 383/342/110 382/341/110
f 382/341/110 464/357/110 465/360/110
f 466/363/110 384/343/110 383/342/110
f 383/342/110 465/360/110 466/363/110
f 467/366/110 385/344/110 384/343/110
f 384/343/110 466/363/110 467/366/110
f 468/353/110 386/345/110 385/344/110
f 385/344/110 467/366/110 468/353/110
f 469/354/110 387/346/110 386/345/110
f 386/345/110 468/353/110 469/354/110
f 470/356/110 388/347/110 387/346/110
f 387/346/110 469/354/110 470/356/110
f 471/358/110 389/348/110 388/347/110
f 388/347/110 470/356/110 471/358/110
f 472/361/110 390/349/110 389/348/110
f 389/348/110 471/358/110 472/361/110
f 473/364/110 391/350/110 390/349/110
f 390/349/110 472/361/110 473/364/110
f 474/41/110 392/333/110 391/350/110
f 391/350/110 473/364/110 474/41/110
f 457/44/110 375/334/110 392/333/110
f 392/333/110 474/41/110 457/44/110
o defaultMaterial.006
v -0.000657 1.658925 3.533713
v -0.000657 53.125622 3.533694
v -1.182357 53.125622 3.325394
v -1.182357 1.658925 3.325413
v -1.182357 1.658925 3.325413
v -1.182357 53.125622 3.325394
v -2.221457 53.125622 2.725394
v -2.221457 1.658925 2.725413
v -2.992757 53.125622 1.806194
v -2.992757 1.658925 1.806213
v -3.403157 53.125622 0.678694
v -3.403157 1.658925 0.678713
v -3.403157 53.125622 -0.521206
v -3.403157 1.658925 -0.521287
v -2.992757 53.125622 -1.648806
v -2.992757 1.658925 -1.648786
v -2.992757 1.658925 -1.648786
v -2.992757 53.125622 -1.648806
v -2.221457 53.125622 -2.568006
v -2.221457 1.658925 -2.567986
v -1.182357 53.125622 -3.167906
v -1.182357 1.658925 -3.167886
v -0.000657 53.125622 -3.376306
v -0.000657 1.658925 -3.376286
v 1.181043 53.125622 -3.167906
v 1.181043 1.658925 -3.167886
v 2.220143 53.125622 -2.568006
v 2.220143 1.658925 -2.567986
v 2.220143 1.658925 -2.567986
v 2.220143 53.125622 -2.568006
v 2.991443 53.125622 -1.648806
v 2.991443 1.658925 -1.648786
v 3.401843 53.125622 -0.521206
v 3.401843 1.658925 -0.521287
v 3.401843 53.125622 0.678694
v 3.401843 1.658925 0.678713
v 2.991443 53.125622 1.806194
v 2.991443 1.658925 1.806213
v 2.991443 1.658925 1.806213
v 2.991443 53.125622 1.806194
v 2.220143 53.125622 2.725394
v 2.220143 1.658925 2.725413
v -1.182357 53.125622 3.325394
v -0.000657 53.125622 3.533694
v 1.181043 53.125622 3.325394
v 2.220143 53.125622 2.725394
v 2.991443 53.125622 1.806194
v 3.401843 53.125622 0.678694
v 3.401843 53.125622 -0.521206
v 2.991443 53.125622 -1.648806
v 2.220143 53.125622 -2.568006
v 1.181043 53.125622 -3.167906
v -0.000657 53.125622 -3.376306
v -1.182357 53.125622 -3.167906
v -2.221457 53.125622 -2.568006
v -2.992757 53.125622 -1.648806
v -3.403157 53.125622 -0.521206
v -3.403157 53.125622 0.678694
v -2.992757 53.125622 1.806194
v -2.221457 53.125622 2.725394
v 1.181043 53.125622 3.325394
v 1.181043 1.658925 3.325413
v -0.000657 1.658925 3.533713
v -1.182357 1.658925 3.325413
v -2.221457 1.658925 2.725413
v -2.992757 1.658925 1.806213
v -3.403157 1.658925 0.678713
v -3.403157 1.658925 -0.521287
v -2.992757 1.658925 -1.648786
v -2.221457 1.658925 -2.567986
v -1.182357 1.658925 -3.167886
v -0.000657 1.658925 -3.376286
v 1.181043 1.658925 -3.167886
v 2.220143 1.658925 -2.567986
v 2.991443 1.658925 -1.648786
v 3.401843 1.658925 -0.521287
v 3.401843 1.658925 0.678713
v 2.991443 1.658925 1.806213
v 2.220143 1.658925 2.725413
v 1.181043 1.658925 3.325413
vn -0.3420 -0.0000 0.9397
vn -0.0000 -0.0000 1.0000
vn -0.6428 -0.0000 0.7660
vn -0.3421 -0.0000 0.9397
vn -0.8660 -0.0000 0.5000
vn -0.9848 -0.0000 0.1737
vn -0.9848 -0.0000 -0.1737
vn -0.9848 -0.0000 -0.1736
vn -0.8660 -0.0000 -0.5000
vn -0.6428 -0.0000 -0.7660
vn -0.6428 -0.0000 -0.7661
vn -0.3420 -0.0000 -0.9397
vn -0.0000 -0.0000 -1.0000
vn 0.3420 -0.0000 -0.9397
vn 0.6427 -0.0000 -0.7661
vn 0.8660 -0.0000 -0.5000
vn 0.6429 -0.0000 -0.7660
vn 0.9848 -0.0000 -0.1737
vn 0.9848 -0.0000 -0.1736
vn 0.9848 -0.0000 0.1737
vn 0.8660 0.0001 0.5000
vn 0.8660 -0.0000 0.5000
vn 0.6428 -0.0000 0.7660
vn -0.0000 1.0000 -0.0000
vn 0.3420 -0.0000 0.9397
vn -0.0000 -1.0000 -0.0000
vt 0.547154 0.157109
vt 0.549728 0.157109
vt 0.549728 0.039625
vt 0.547154 0.039625
vt 0.873088 0.735488
vt 0.875186 0.735488
vt 0.875186 0.618004
vt 0.873088 0.618004
vt 0.870514 0.735488
vt 0.870514 0.618004
vt 0.867775 0.735488
vt 0.867775 0.618004
vt 0.865201 0.735488
vt 0.865201 0.618004
vt 0.863102 0.735488
vt 0.863102 0.618004
vt 0.898302 0.875269
vt 0.900400 0.875269
vt 0.900400 0.757786
vt 0.898302 0.757786
vt 0.895728 0.875269
vt 0.895728 0.757786
vt 0.892989 0.875269
vt 0.892989 0.757786
vt 0.890415 0.875269
vt 0.890415 0.757786
vt 0.888317 0.875269
vt 0.888317 0.757786
vt 0.531179 0.157109
vt 0.533753 0.157109
vt 0.533753 0.039625
vt 0.531179 0.039625
vt 0.528440 0.157109
vt 0.528440 0.039625
vt 0.525866 0.157109
vt 0.525866 0.039625
vt 0.523768 0.157109
vt 0.523768 0.039625
vt 0.555041 0.157109
vt 0.557139 0.157109
vt 0.557139 0.039625
vt 0.555041 0.039625
vt 0.790125 0.600064
vt 0.791062 0.602638
vt 0.792822 0.604737
vt 0.795195 0.606106
vt 0.797892 0.606582
vt 0.800589 0.606106
vt 0.802962 0.604737
vt 0.804722 0.602638
vt 0.805659 0.600064
vt 0.805659 0.597325
vt 0.804722 0.594751
vt 0.802961 0.592653
vt 0.800589 0.591284
vt 0.797892 0.590808
vt 0.795195 0.591284
vt 0.792822 0.592653
vt 0.791062 0.594751
vt 0.790125 0.597325
vt 0.552467 0.157109
vt 0.552467 0.039625
vt 0.829525 0.606106
vt 0.831897 0.604737
vt 0.833658 0.602638
vt 0.834595 0.600064
vt 0.834595 0.597325
vt 0.833658 0.594751
vt 0.831897 0.592653
vt 0.829525 0.591284
vt 0.826828 0.590808
vt 0.824130 0.591284
vt 0.821758 0.592653
vt 0.819997 0.594751
vt 0.819061 0.597325
vt 0.819061 0.600064
vt 0.819997 0.602638
vt 0.821758 0.604737
vt 0.824130 0.606106
vt 0.826828 0.606582
s 1
usemtl Ceiling_Fan_Mat.001
f 478/367/147 475/368/148 476/369/148
f 476/369/148 477/370/147 478/367/147
f 482/371/149 479/372/150 480/373/150
f 480/373/150 481/374/149 482/371/149
f 484/375/151 482/371/149 481/374/149
f 481/374/149 483/376/151 484/375/151
f 486/377/152 484/375/151 483/376/151
f 483/376/151 485/378/152 486/377/152
f 488/379/153 486/377/152 485/378/152
f 485/378/152 487/380/154 488/379/153
f 490/381/155 488/379/153 487/380/154
f 487/380/154 489/382/155 490/381/155
f 494/383/156 491/384/155 492/385/155
f 492/385/155 493/386/157 494/383/156
f 496/387/158 494/383/156 493/386/157
f 493/386/157 495/388/158 496/387/158
f 498/389/159 496/387/158 495/388/158
f 495/388/158 497/390/159 498/389/159
f 500/391/160 498/389/159 497/390/159
f 497/390/159 499/392/160 500/391/160
f 502/393/161 500/391/160 499/392/160
f 499/392/160 501/394/161 502/393/161
f 506/395/162 503/396/163 504/397/163
f 504/397/163 505/398/162 506/395/162
f 508/399/164 506/395/162 505/398/162
f 505/398/162 507/400/165 508/399/164
f 510/401/166 508/399/164 507/400/165
f 507/400/165 509/402/166 510/401/166
f 512/403/167 510/401/166 509/402/166
f 509/402/166 511/404/168 512/403/167
f 516/405/169 513/406/168 514/407/168
f 514/407/168 515/408/169 516/405/169
s 0
f 534/409/170 517/410/170 518/411/170
f 534/409/170 518/411/170 519/412/170
f 534/409/170 519/412/170 520/413/170
f 534/409/170 520/413/170 521/414/170
f 534/409/170 521/414/170 522/415/170
f 534/409/170 522/415/170 523/416/170
f 534/409/170 523/416/170 524/417/170
f 534/409/170 524/417/170 525/418/170
f 534/409/170 525/418/170 526/419/170
f 534/409/170 526/419/170 527/420/170
f 534/409/170 527/420/170 528/421/170
f 534/409/170 528/421/170 529/422/170
f 534/409/170 529/422/170 530/423/170
f 534/409/170 530/423/170 531/424/170
f 534/409/170 531/424/170 532/425/170
f 532/425/170 533/426/170 534/409/170
s 1
f 536/427/171 516/405/169 515/408/169
f 515/408/169 535/428/171 536/427/171
f 475/368/148 536/427/171 535/428/171
f 535/428/171 476/369/148 475/368/148
s 0
f 554/429/172 537/430/172 538/431/172
f 554/429/172 538/431/172 539/432/172
f 554/429/172 539/432/172 540/433/172
f 554/429/172 540/433/172 541/434/172
f 554/429/172 541/434/172 542/435/172
f 554/429/172 542/435/172 543/436/172
f 554/429/172 543/436/172 544/437/172
f 554/429/172 544/437/172 545/438/172
f 554/429/172 545/438/172 546/439/172
f 554/429/172 546/439/172 547/440/172
f 554/429/172 547/440/172 548/441/172
f 554/429/172 548/441/172 549/442/172
f 554/429/172 549/442/172 550/443/172
f 554/429/172 550/443/172 551/444/172
f 554/429/172 551/444/172 552/445/172
f 552/445/172 553/446/172 554/429/172
o defaultMaterial.007
v -0.000657 57.457615 -18.900805
v -0.000657 62.858204 -18.900806
v 6.490743 62.858204 -17.756208
v 6.490743 57.457615 -17.756207
v 12.199143 62.858219 -14.460409
v 12.199143 57.457615 -14.460406
v 12.199143 57.457615 -14.460406
v 12.199143 62.858219 -14.460409
v 16.436045 62.858219 -9.411009
v 16.436045 57.457615 -9.411007
v 18.690445 62.858219 -3.217110
v 18.690445 57.457615 -3.217007
v 18.690445 62.858219 3.374489
v 18.690445 57.457615 3.374492
v 16.436045 62.858219 9.568489
v 16.436045 57.457623 9.568491
v 12.199143 62.858219 14.617789
v 12.199143 57.457623 14.617791
v 12.199143 57.457623 14.617791
v 12.199143 62.858219 14.617789
v 6.490743 62.858219 17.913591
v 6.490743 57.457623 17.913593
v -0.000657 62.858219 19.058189
v -0.000657 57.457623 19.058191
v -6.492057 62.858219 17.913591
v -6.492057 57.457623 17.913593
v -12.200457 62.858219 14.617789
v -12.200457 57.457623 14.617791
v -16.437359 62.858219 9.568389
v -16.437359 57.457623 9.568391
v -16.437359 57.457623 9.568391
v -16.437359 62.858219 9.568389
v -18.691757 62.858219 3.374489
v -18.691757 57.457615 3.374492
v -18.691757 62.858219 -3.217010
v -18.691757 57.457615 -3.217007
v -16.437359 62.858219 -9.411009
v -16.437359 57.457615 -9.411007
v -16.437359 57.457615 -9.411007
v -16.437359 62.858219 -9.411009
v -12.200457 62.858219 -14.460409
v -12.200457 57.457615 -14.460406
v 6.490743 62.858204 -17.756208
v -0.000657 62.858204 -18.900806
v -6.492057 62.858204 -17.756208
v -12.200457 62.858219 -14.460409
v -16.437359 62.858219 -9.411009
v -18.691757 62.858219 -3.217010
v -18.691757 62.858219 3.374489
v -16.437359 62.858219 9.568389
v -12.200457 62.858219 14.617789
v -6.492057 62.858219 17.913591
v -0.000657 62.858219 19.058189
v 6.490743 62.858219 17.913591
v 12.199143 62.858219 14.617789
v 16.436045 62.858219 9.568489
v 18.690445 62.858219 3.374489
v 18.690445 62.858219 -3.217110
v 16.436045 62.858219 -9.411009
v 12.199143 62.858219 -14.460409
v -6.492057 62.858204 -17.756208
v -6.492057 57.457615 -17.756207
v 3.887043 52.057117 -10.602806
v 7.305944 52.057117 -8.628906
v 7.305944 50.798412 -8.628904
v 3.887043 50.798412 -10.602805
v -3.888357 52.057117 -10.602806
v -6.492057 57.457615 -17.756207
v -0.000657 57.457615 -18.900805
v -0.000657 52.057117 -11.288305
v -7.307258 52.057117 -8.628906
v -12.200457 57.457615 -14.460406
v -9.844757 52.057117 -5.604805
v -16.437359 57.457615 -9.411007
v -11.194957 52.057117 -1.895206
v -18.691757 57.457615 -3.217007
v -11.194957 52.057117 2.052594
v -18.691757 57.457615 3.374492
v -9.844757 52.057117 5.762194
v -16.437359 57.457623 9.568391
v -7.307258 52.057117 8.786393
v -12.200457 57.457623 14.617791
v -3.888357 52.057117 10.760193
v -6.492057 57.457623 17.913593
v -0.000657 52.057117 11.445693
v -0.000657 57.457623 19.058191
v 3.887043 52.057117 10.760193
v 6.490743 57.457623 17.913593
v 7.305944 52.057117 8.786294
v 12.199143 57.457623 14.617791
v 9.843443 52.057117 5.762194
v 16.436045 57.457623 9.568491
v 11.193643 52.057117 2.052594
v 18.690445 57.457615 3.374492
v 11.193643 52.057117 -1.895206
v 18.690445 57.457615 -3.217007
v 9.843443 52.057117 -5.604805
v 16.436045 57.457615 -9.411007
v 7.305944 52.057117 -8.628906
v 12.199143 57.457615 -14.460406
v 3.887043 52.057117 -10.602806
v 6.490743 57.457615 -17.756207
v -0.000657 49.457516 -8.020605
v 2.769443 49.457516 -7.532205
v 5.205443 49.457516 -6.125705
v 7.013543 49.457516 -3.971005
v 7.975643 49.457516 -1.327705
v 7.975643 49.457516 1.485095
v 7.013543 49.457516 4.128395
v 5.205543 49.457516 6.283094
v 2.769443 49.457523 7.689594
v -0.000657 49.457523 8.177994
v -2.770757 49.457523 7.689594
v -5.206757 49.457516 6.283195
v -7.014857 49.457516 4.128395
v -7.976957 49.457516 1.485095
v -7.976957 49.457516 -1.327705
v -7.014857 49.457516 -3.971005
v -5.206757 49.457516 -6.125705
v -2.770757 49.457516 -7.532205
v 9.843443 52.057117 5.762194
v 7.305944 52.057117 8.786294
v 7.305944 50.798420 8.786294
v 9.843443 50.798420 5.762194
v -7.307258 52.057117 8.786393
v -9.844757 52.057117 5.762194
v -9.844757 50.798420 5.762194
v -7.307258 50.798420 8.786394
v -7.307258 52.057117 -8.628906
v -3.888357 52.057117 -10.602806
v -3.888357 50.798412 -10.602805
v -7.307258 50.798412 -8.628904
v 11.193643 52.057117 -1.895206
v 11.193643 52.057117 2.052594
v 11.193643 50.798420 2.052594
v 11.193643 50.798420 -1.895205
v -0.000657 52.057117 11.445693
v -3.888357 52.057117 10.760193
v -3.888357 50.798420 10.760194
v -0.000657 50.798420 11.445693
v -11.194957 52.057117 -1.895206
v -9.844757 52.057117 -5.604805
v -9.844757 50.798412 -5.604805
v -11.194957 50.798420 -1.895205
v 7.305944 52.057117 -8.628906
v 9.843443 52.057117 -5.604805
v 9.843443 50.798412 -5.604805
v 7.305944 50.798412 -8.628904
v 7.305944 52.057117 8.786294
v 3.887043 52.057117 10.760193
v 3.887043 50.798420 10.760194
v 7.305944 50.798420 8.786294
v -0.000657 52.057117 -11.288305
v -0.000657 50.798412 -11.288303
v -9.844757 52.057117 5.762194
v -11.194957 52.057117 2.052594
v -11.194957 50.798420 2.052594
v -9.844757 50.798420 5.762194
v -7.307258 52.057117 -8.628906
v -7.307258 50.798412 -8.628904
v -0.000657 50.798412 -11.288303
v 3.887043 50.798412 -10.602805
v 7.305944 50.798412 -8.628904
v 9.843443 50.798412 -5.604805
v 11.193643 50.798420 -1.895205
v 11.193643 50.798420 2.052594
v 9.843443 50.798420 5.762194
v 7.305944 50.798420 8.786294
v 3.887043 50.798420 10.760194
v -0.000657 50.798420 11.445693
v -3.888357 50.798420 10.760194
v -7.307258 50.798420 8.786394
v -9.844757 50.798420 5.762194
v -11.194957 50.798420 2.052594
v -11.194957 50.798420 -1.895205
v -9.844757 50.798412 -5.604805
v -7.307258 50.798412 -8.628904
v -3.888357 50.798412 -10.602805
vn 0.3420 -0.0000 -0.9397
vn -0.0000 -0.0000 -1.0000
vn 0.6427 -0.0000 -0.7661
vn 0.8660 -0.0000 -0.5000
vn 0.6429 -0.0000 -0.7660
vn 0.9848 -0.0000 -0.1736
vn 0.9848 -0.0000 0.1736
vn 0.8660 -0.0000 0.5000
vn 0.6428 -0.0000 0.7660
vn 0.3420 -0.0000 0.9397
vn 0.6427 -0.0000 0.7661
vn -0.0000 -0.0000 1.0000
vn -0.3420 -0.0000 0.9397
vn -0.6428 -0.0000 0.7660
vn -0.8660 -0.0000 0.5000
vn -0.9848 -0.0000 0.1737
vn -0.9848 -0.0000 0.1736
vn -0.9848 -0.0000 -0.1736
vn -0.8660 0.0001 -0.5000
vn -0.8660 -0.0000 -0.5000
vn -0.6428 -0.0000 -0.7660
vn -0.0000 1.0000 -0.0000
vn -0.3420 -0.0000 -0.9397
vn -0.0000 -0.8156 -0.5786
vn -0.1979 -0.8156 -0.5437
vn -0.3719 -0.8156 -0.4432
vn -0.5011 -0.8156 -0.2893
vn -0.5698 -0.8156 -0.1005
vn -0.5698 -0.8156 0.1005
vn -0.5011 -0.8156 0.2893
vn -0.3719 -0.8156 0.4432
vn -0.1979 -0.8156 0.5437
vn -0.0000 -0.8156 0.5786
vn 0.1979 -0.8156 0.5437
vn 0.3719 -0.8156 0.4432
vn 0.5011 -0.8156 0.2893
vn 0.5698 -0.8156 0.1005
vn 0.5698 -0.8156 -0.1005
vn 0.5011 -0.8156 -0.2893
vn 0.3719 -0.8156 -0.4432
vn 0.1979 -0.8156 -0.5437
vn -0.0732 -0.9768 -0.2011
vn -0.0000 -0.9768 -0.2140
vn 0.0732 -0.9768 -0.2011
vn 0.1375 -0.9768 -0.1639
vn 0.1853 -0.9768 -0.1070
vn 0.2107 -0.9768 -0.0372
vn 0.2107 -0.9768 0.0372
vn 0.1853 -0.9768 0.1070
vn 0.1375 -0.9768 0.1639
vn 0.0732 -0.9768 0.2011
vn -0.0000 -0.9768 0.2140
vn -0.0732 -0.9768 0.2011
vn -0.1375 -0.9768 0.1639
vn -0.1853 -0.9768 0.1070
vn -0.2107 -0.9768 0.0372
vn -0.2107 -0.9768 -0.0372
vn -0.1853 -0.9768 -0.1070
vn -0.1375 -0.9768 -0.1639
vn 0.6429 -0.0000 0.7660
vn -0.8660 -0.0000 0.5001
vn -0.8660 0.0001 0.5001
vn -0.6427 -0.0000 -0.7661
vn -0.6427 -0.0001 -0.7661
vn 0.9848 -0.0000 -0.1737
vn 0.9848 -0.0000 0.1737
vn -0.9848 -0.0000 -0.1737
vn -0.6429 -0.0000 -0.7660
vn 0.1298 -0.9251 -0.3567
vn -0.0000 -0.9251 -0.3796
vn 0.2440 -0.9251 -0.2908
vn 0.3288 -0.9251 -0.1898
vn 0.3739 -0.9251 -0.0659
vn 0.3739 -0.9251 0.0659
vn 0.3288 -0.9251 0.1898
vn 0.2440 -0.9251 0.2908
vn 0.1298 -0.9251 0.3567
vn -0.0000 -0.9251 0.3796
vn -0.1298 -0.9251 0.3567
vn -0.2440 -0.9251 0.2908
vn -0.3288 -0.9251 0.1898
vn -0.3739 -0.9251 0.0659
vn -0.3739 -0.9251 -0.0659
vn -0.3288 -0.9251 -0.1898
vn -0.2440 -0.9251 -0.2908
vn -0.1298 -0.9251 -0.3567
vt 0.250222 0.117180
vt 0.250222 0.103041
vt 0.237894 0.103041
vt 0.237894 0.117180
vt 0.250222 0.128707
vt 0.237894 0.128707
vt 0.632718 0.073403
vt 0.632718 0.061877
vt 0.620390 0.061877
vt 0.620390 0.073403
vt 0.632718 0.087542
vt 0.620390 0.087542
vt 0.632718 0.102589
vt 0.620390 0.102589
vt 0.632718 0.116728
vt 0.620390 0.116728
vt 0.632718 0.128254
vt 0.620390 0.128254
vt 0.275951 0.073856
vt 0.275951 0.062329
vt 0.263623 0.062329
vt 0.263623 0.073856
vt 0.275951 0.087995
vt 0.263623 0.087995
vt 0.275951 0.103041
vt 0.263623 0.103041
vt 0.275951 0.117180
vt 0.263623 0.117180
vt 0.275951 0.128707
vt 0.263623 0.128707
vt 0.849470 0.089785
vt 0.849470 0.075646
vt 0.837142 0.075646
vt 0.837142 0.089785
vt 0.849470 0.104831
vt 0.837142 0.104831
vt 0.849470 0.118970
vt 0.837142 0.118970
vt 0.250222 0.073856
vt 0.250222 0.062329
vt 0.237894 0.062329
vt 0.237894 0.073856
vt 0.601842 0.192173
vt 0.592171 0.180647
vt 0.579140 0.173123
vt 0.564322 0.170511
vt 0.549504 0.173123
vt 0.536474 0.180647
vt 0.526802 0.192173
vt 0.521656 0.206312
vt 0.521656 0.221359
vt 0.526802 0.235498
vt 0.536474 0.247024
vt 0.549504 0.254547
vt 0.564322 0.257160
vt 0.579140 0.254547
vt 0.592171 0.247024
vt 0.601842 0.235498
vt 0.606989 0.221359
vt 0.606989 0.206312
vt 0.250222 0.087995
vt 0.237894 0.087995
vt 0.980160 0.467824
vt 0.977286 0.467824
vt 0.977286 0.474727
vt 0.980160 0.474727
vt 0.474462 0.189453
vt 0.482266 0.193958
vt 0.493436 0.180647
vt 0.480406 0.173123
vt 0.488059 0.200862
vt 0.503108 0.192173
vt 0.491141 0.209330
vt 0.508254 0.206312
vt 0.491141 0.218341
vt 0.508254 0.221359
vt 0.488059 0.226809
vt 0.503108 0.235498
vt 0.482266 0.233712
vt 0.493436 0.247024
vt 0.474462 0.238218
vt 0.480406 0.254547
vt 0.465588 0.239783
vt 0.465588 0.257160
vt 0.456713 0.238218
vt 0.450770 0.254547
vt 0.448909 0.233712
vt 0.437739 0.247024
vt 0.443116 0.226809
vt 0.428067 0.235498
vt 0.440034 0.218341
vt 0.422921 0.221359
vt 0.440034 0.209330
vt 0.422921 0.206312
vt 0.443116 0.200862
vt 0.428067 0.192173
vt 0.448909 0.193958
vt 0.437739 0.180647
vt 0.456713 0.189453
vt 0.450770 0.173123
vt 0.465588 0.187888
vt 0.465588 0.170511
vt 0.756613 0.414301
vt 0.754417 0.420335
vt 0.754417 0.426756
vt 0.756613 0.432790
vt 0.760740 0.437708
vt 0.766301 0.440919
vt 0.772624 0.442034
vt 0.778948 0.440919
vt 0.784508 0.437708
vt 0.788636 0.432790
vt 0.790832 0.426756
vt 0.790832 0.420335
vt 0.788636 0.414301
vt 0.784508 0.409383
vt 0.778948 0.406172
vt 0.772624 0.405057
vt 0.766301 0.406172
vt 0.760740 0.409383
vt 0.913871 0.618450
vt 0.910998 0.618450
vt 0.910998 0.625353
vt 0.913871 0.625353
vt 0.103545 0.131236
vt 0.100671 0.131236
vt 0.100671 0.138140
vt 0.103545 0.138140
vt 0.980160 0.441876
vt 0.977286 0.441876
vt 0.977286 0.450344
vt 0.980160 0.450344
vt 0.913871 0.600970
vt 0.910998 0.600970
vt 0.910998 0.609982
vt 0.913871 0.609982
vt 0.103545 0.113757
vt 0.100671 0.113757
vt 0.100671 0.122768
vt 0.103545 0.122768
vt 0.980160 0.413103
vt 0.977286 0.413103
vt 0.977286 0.421571
vt 0.980160 0.421571
vt 0.913871 0.585599
vt 0.910998 0.585599
vt 0.910998 0.592502
vt 0.913871 0.592502
vt 0.103545 0.098386
vt 0.100671 0.098386
vt 0.100671 0.105289
vt 0.103545 0.105289
vt 0.980160 0.459356
vt 0.977286 0.459356
vt 0.980160 0.395624
vt 0.977286 0.395624
vt 0.977286 0.404092
vt 0.980160 0.404092
vt 0.977286 0.428475
vt 0.980160 0.428475
vt 0.747071 0.428051
vt 0.747071 0.419040
vt 0.750153 0.436519
vt 0.755946 0.443423
vt 0.763750 0.447928
vt 0.772624 0.449493
vt 0.781499 0.447928
vt 0.789303 0.443423
vt 0.795096 0.436519
vt 0.798178 0.428051
vt 0.798178 0.419040
vt 0.795096 0.410572
vt 0.789303 0.403669
vt 0.781499 0.399163
vt 0.772624 0.397598
vt 0.763750 0.399163
vt 0.755946 0.403669
vt 0.750153 0.410572
s 1
usemtl Ceiling_Fan_Mat.001
f 558/447/173 555/448/174 556/449/174
f 556/449/174 557/450/173 558/447/173
f 560/451/175 558/447/173 557/450/173
f 557/450/173 559/452/175 560/451/175
f 564/453/176 561/454/177 562/455/177
f 562/455/177 563/456/176 564/453/176
f 566/457/178 564/453/176 563/456/176
f 563/456/176 565/458/178 566/457/178
f 568/459/179 566/457/178 565/458/178
f 565/458/178 567/460/179 568/459/179
f 570/461/180 568/459/179 567/460/179
f 567/460/179 569/462/180 570/461/180
f 572/463/181 570/461/180 569/462/180
f 569/462/180 571/464/181 572/463/181
f 576/465/182 573/466/183 574/467/183
f 574/467/183 575/468/182 576/465/182
f 578/469/184 576/465/182 575/468/182
f 575/468/182 577/470/184 578/469/184
f 580/471/185 578/469/184 577/470/184
f 577/470/184 579/472/185 580/471/185
f 582/473/186 580/471/185 579/472/185
f 579/472/185 581/474/186 582/473/186
f 584/475/187 582/473/186 581/474/186
f 581/474/186 583/476/187 584/475/187
f 588/477/188 585/478/187 586/479/187
f 586/479/187 587/480/189 588/477/188
f 590/481/190 588/477/188 587/480/189
f 587/480/189 589/482/190 590/481/190
f 592/483/191 590/481/190 589/482/190
f 589/482/190 591/484/192 592/483/191
f 596/485/193 593/486/192 594/487/192
f 594/487/192 595/488/193 596/485/193
s 0
f 614/489/194 597/490/194 598/491/194
f 614/489/194 598/491/194 599/492/194
f 614/489/194 599/492/194 600/493/194
f 614/489/194 600/493/194 601/494/194
f 614/489/194 601/494/194 602/495/194
f 614/489/194 602/495/194 603/496/194
f 614/489/194 603/496/194 604/497/194
f 614/489/194 604/497/194 605/498/194
f 614/489/194 605/498/194 606/499/194
f 614/489/194 606/499/194 607/500/194
f 614/489/194 607/500/194 608/501/194
f 614/489/194 608/501/194 609/502/194
f 614/489/194 609/502/194 610/503/194
f 614/489/194 610/503/194 611/504/194
f 614/489/194 611/504/194 612/505/194
f 612/505/194 613/506/194 614/489/194
s 1
f 616/507/195 596/485/193 595/488/193
f 595/488/193 615/508/195 616/507/195
f 555/448/174 616/507/195 615/508/195
f 615/508/195 556/449/174 555/448/174
f 620/509/173 617/510/173 618/511/175
f 618/511/175 619/512/175 620/509/173
f 624/513/196 621/514/197 622/515/197
f 622/515/197 623/516/196 624/513/196
f 621/514/197 625/517/198 626/518/198
f 626/518/198 622/515/197 621/514/197
f 625/517/198 627/519/199 628/520/199
f 628/520/199 626/518/198 625/517/198
f 627/519/199 629/521/200 630/522/200
f 630/522/200 628/520/199 627/519/199
f 629/521/200 631/523/201 632/524/201
f 632/524/201 630/522/200 629/521/200
f 631/523/201 633/525/202 634/526/202
f 634/526/202 632/524/201 631/523/201
f 633/525/202 635/527/203 636/528/203
f 636/528/203 634/526/202 633/525/202
f 635/527/203 637/529/204 638/530/204
f 638/530/204 636/528/203 635/527/203
f 637/529/204 639/531/205 640/532/205
f 640/532/205 638/530/204 637/529/204
f 639/531/205 641/533/206 642/534/206
f 642/534/206 640/532/205 639/531/205
f 641/533/206 643/535/207 644/536/207
f 644/536/207 642/534/206 641/533/206
f 643/535/207 645/537/208 646/538/208
f 646/538/208 644/536/207 643/535/207
f 645/537/208 647/539/209 648/540/209
f 648/540/209 646/538/208 645/537/208
f 647/539/209 649/541/210 650/542/210
f 650/542/210 648/540/209 647/539/209
f 649/541/210 651/543/211 652/544/211
f 652/544/211 650/542/210 649/541/210
f 651/543/211 653/545/212 654/546/212
f 654/546/212 652/544/211 651/543/211
f 653/545/212 655/547/213 656/548/213
f 656/548/213 654/546/212 653/545/212
f 655/547/213 624/513/196 623/516/196
f 623/516/196 656/548/213 655/547/213
f 674/549/214 657/550/215 658/551/216
f 674/549/214 658/551/216 659/552/217
f 674/549/214 659/552/217 660/553/218
f 674/549/214 660/553/218 661/554/219
f 674/549/214 661/554/219 662/555/220
f 674/549/214 662/555/220 663/556/221
f 674/549/214 663/556/221 664/557/222
f 674/549/214 664/557/222 665/558/223
f 674/549/214 665/558/223 666/559/224
f 674/549/214 666/559/224 667/560/225
f 674/549/214 667/560/225 668/561/226
f 674/549/214 668/561/226 669/562/227
f 674/549/214 669/562/227 670/563/228
f 674/549/214 670/563/228 671/564/229
f 674/549/214 671/564/229 672/565/230
f 672/565/230 673/566/231 674/549/214
f 678/567/180 675/568/180 676/569/232
f 676/569/232 677/570/232 678/567/180
f 682/571/186 679/572/186 680/573/233
f 680/573/233 681/574/234 682/571/186
f 686/575/235 683/576/236 684/577/195
f 684/577/195 685/578/195 686/575/235
f 690/579/237 687/580/178 688/581/238
f 688/581/238 689/582/179 690/579/237
f 694/583/184 691/584/184 692/585/185
f 692/585/185 693/586/185 694/583/184
f 698/587/190 695/588/239 696/589/192
f 696/589/192 697/590/192 698/587/190
f 702/591/177 699/592/177 700/593/176
f 700/593/176 701/594/176 702/591/177
f 706/595/183 703/596/183 704/597/182
f 704/597/182 705/598/182 706/595/183
f 708/599/174 707/600/174 617/510/173
f 617/510/173 620/509/173 708/599/174
f 712/601/187 709/602/187 710/603/189
f 710/603/189 711/604/188 712/601/187
f 685/578/195 684/577/195 707/600/174
f 707/600/174 708/599/174 685/578/195
f 689/582/179 688/581/238 675/568/180
f 675/568/180 678/567/180 689/582/179
f 693/586/185 692/585/185 679/572/186
f 679/572/186 682/571/186 693/586/185
f 697/590/192 696/589/192 713/605/240
f 713/605/240 714/606/240 697/590/192
f 701/594/176 700/593/176 687/580/178
f 687/580/178 690/579/237 701/594/176
f 705/598/182 704/597/182 691/584/184
f 691/584/184 694/583/184 705/598/182
f 711/604/188 710/603/189 695/588/239
f 695/588/239 698/587/190 711/604/188
f 716/607/241 658/551/216 657/550/215
f 657/550/215 715/608/242 716/607/241
f 717/609/243 659/552/217 658/551/216
f 658/551/216 716/607/241 717/609/243
f 718/610/244 660/553/218 659/552/217
f 659/552/217 717/609/243 718/610/244
f 719/611/245 661/554/219 660/553/218
f 660/553/218 718/610/244 719/611/245
f 720/612/246 662/555/220 661/554/219
f 661/554/219 719/611/245 720/612/246
f 721/613/247 663/556/221 662/555/220
f 662/555/220 720/612/246 721/613/247
f 722/614/248 664/557/222 663/556/221
f 663/556/221 721/613/247 722/614/248
f 723/615/249 665/558/223 664/557/222
f 664/557/222 722/614/248 723/615/249
f 724/616/250 666/559/224 665/558/223
f 665/558/223 723/615/249 724/616/250
f 725/617/251 667/560/225 666/559/224
f 666/559/224 724/616/250 725/617/251
f 726/618/252 668/561/226 667/560/225
f 667/560/225 725/617/251 726/618/252
f 727/619/253 669/562/227 668/561/226
f 668/561/226 726/618/252 727/619/253
f 728/620/254 670/563/228 669/562/227
f 669/562/227 727/619/253 728/620/254
f 729/621/255 671/564/229 670/563/228
f 670/563/228 728/620/254 729/621/255
f 730/622/256 672/565/230 671/564/229
f 671/564/229 729/621/255 730/622/256
f 731/623/257 673/566/231 672/565/230
f 672/565/230 730/622/256 731/623/257
f 732/624/258 674/549/214 673/566/231
f 673/566/231 731/623/257 732/624/258
f 715/608/242 657/550/215 674/549/214
f 674/549/214 732/624/258 715/608/242
