# Blender 4.2.3 LTS
# www.blender.org
mtllib doll_ly_2.mtl
o zip.001
v 0.144497 0.478325 -0.061101
v 0.068415 0.474592 -0.053080
v 0.144614 0.472680 -0.063112
v 0.068404 0.469241 -0.056416
v 0.077477 0.478945 -0.126742
v 0.128554 0.479802 -0.127894
v 0.077524 0.473597 -0.129320
v 0.128649 0.474266 -0.130201
v 0.122206 0.513653 -0.061198
v 0.122832 0.480667 -0.072182
v 0.088130 0.512140 -0.059174
v 0.088891 0.479188 -0.067641
v 0.088722 0.512842 -0.047763
v 0.088946 0.477706 -0.067627
v 0.122759 0.514242 -0.050590
v 0.122992 0.479096 -0.070291
v 0.086283 0.506131 -0.097354
v 0.120574 0.505469 -0.096902
v 0.120482 0.479556 -0.116303
v 0.086151 0.480759 -0.117124
v 0.086620 0.472609 -0.114027
v 0.086088 0.508229 -0.099526
v 0.120850 0.472598 -0.114259
v 0.120320 0.508263 -0.099669
v 0.067429 0.471625 -0.070240
v 0.067273 0.477510 -0.069133
v 0.038057 0.482583 -0.087254
v 0.038187 0.476749 -0.088736
v 0.171771 0.480700 -0.094628
v 0.171651 0.486386 -0.092878
v 0.144069 0.474167 -0.073290
v 0.143933 0.479988 -0.071743
v 0.155326 0.476332 -0.123330
v 0.155208 0.482070 -0.121391
v 0.051184 0.478910 -0.124771
v 0.051094 0.484479 -0.122787
v 0.087874 0.528733 -0.052555
v 0.121969 0.529996 -0.054403
v 0.120438 0.520158 -0.089361
v 0.086189 0.520357 -0.089373
v 0.152202 0.505238 0.046625
v 0.143320 0.492878 -0.013591
v 0.154017 0.499617 0.048108
v 0.144611 0.487343 -0.014764
v 0.073016 0.482742 -0.007708
v 0.074004 0.488519 -0.006789
v 0.069504 0.496489 0.052685
v 0.070728 0.502219 0.051049
v 0.133894 0.488908 -0.056779
v 0.129105 0.497637 -0.069364
v 0.135129 0.483161 -0.057282
v 0.129810 0.492738 -0.074013
v 0.080594 0.490609 -0.066909
v 0.081352 0.495643 -0.063833
v 0.077957 0.479768 -0.050159
v 0.078809 0.485622 -0.049774
v 0.111863 0.498991 0.057969
v 0.111569 0.504658 0.056409
v 0.109016 0.479912 -0.007537
v 0.108856 0.485689 -0.006542
v 0.140588 0.499150 -0.087467
v 0.103782 0.500770 -0.089694
v 0.140955 0.504861 -0.085876
v 0.103655 0.506456 -0.088157
v 0.066393 0.496409 -0.080779
v 0.065777 0.502077 -0.079215
v 0.042450 0.496988 0.070194
v 0.112815 0.500944 0.078526
v 0.041046 0.502788 0.070647
v 0.112619 0.506789 0.078900
v 0.180042 0.502090 0.062716
v 0.181053 0.507978 0.063041
v 0.106400 0.482374 -0.053988
v 0.106288 0.487717 -0.052403
v 0.104857 0.494484 -0.075113
v 0.104841 0.499489 -0.071995
v 0.066833 0.503566 -0.076802
v 0.103735 0.507909 -0.085690
v 0.140008 0.506307 -0.084190
v 0.104698 0.502305 -0.072691
v 0.079662 0.498402 -0.064446
v 0.076741 0.487492 -0.048010
v 0.056438 0.485081 -0.028971
v 0.106250 0.490031 -0.051531
v 0.135959 0.491159 -0.055857
v 0.107432 0.487112 -0.030503
v 0.156644 0.489599 -0.035479
v 0.130490 0.500514 -0.070463
v 0.071580 0.490340 -0.007770
v 0.043277 0.504988 0.068506
v 0.067698 0.504581 0.053012
v 0.112431 0.508898 0.076874
v 0.111576 0.507128 0.058235
v 0.108715 0.487798 -0.007699
v 0.145471 0.494894 -0.014940
v 0.155249 0.507824 0.048263
v 0.178452 0.510004 0.061146
v 0.157681 0.481753 -0.036568
v 0.158303 0.487457 -0.036068
v 0.055889 0.477074 -0.029711
v 0.054889 0.482818 -0.029369
v 0.107672 0.479302 -0.031416
vn 0.6000 0.4506 0.6610
vn -0.5138 0.3122 0.7991
vn 0.8008 -0.1932 0.5669
vn -0.7234 -0.3642 0.5865
vn 0.0692 0.9048 -0.4202
vn -0.0071 0.9080 -0.4188
vn -0.0457 0.4315 -0.9009
vn 0.0811 0.3803 -0.9213
vn 0.9495 -0.1583 -0.2709
vn 0.3165 0.9429 -0.1040
vn -0.9541 -0.2380 -0.1819
vn -0.7035 0.7052 0.0886
vn -0.5707 -0.1087 0.8140
vn -0.1350 0.5708 0.8099
vn 0.6837 -0.0744 0.7260
vn 0.3056 0.7556 0.5794
vn -0.7809 -0.5191 0.3474
vn 0.8036 -0.5130 0.3016
vn -0.8089 0.5819 -0.0838
vn 0.8009 0.5787 -0.1539
vn 0.3154 0.8428 -0.4361
vn -0.6985 0.3689 -0.6132
vn -0.3047 0.8485 -0.4326
vn 0.6461 0.4012 -0.6494
vn -0.8649 -0.1178 0.4880
vn -0.5244 0.6547 0.5444
vn -0.7558 0.5538 0.3495
vn -0.9605 -0.0863 0.2646
vn 0.9979 0.0010 0.0650
vn 0.7403 0.6304 0.2335
vn 0.9047 -0.0913 0.4161
vn 0.5260 0.7299 0.4364
vn 0.5046 0.2849 -0.8150
vn 0.3774 0.7332 -0.5656
vn -0.5098 0.2899 -0.8100
vn -0.4392 0.7364 -0.5145
vn -0.5750 0.6898 0.4399
vn 0.5706 0.7270 0.3820
vn 0.6202 0.6599 -0.4240
vn -0.6629 0.6459 -0.3786
vn -0.6993 0.4141 -0.5827
vn -0.4857 0.3511 0.8005
vn -0.2875 -0.9563 -0.0536
vn -0.1192 -0.8787 0.4622
vn 0.2371 -0.8728 0.4267
vn 0.5827 0.3755 0.7208
vn 0.3663 -0.9279 -0.0701
vn 0.5910 0.4658 -0.6586
vn -0.8045 0.3115 -0.5057
vn -0.5998 0.0429 0.7990
vn -0.0987 -0.8781 -0.4683
vn -0.3051 -0.9434 -0.1298
vn 0.3547 -0.9307 -0.0889
vn 0.6882 0.1166 0.7161
vn 0.0089 -0.8364 -0.5481
vn 0.6715 0.4392 -0.5968
vn 0.0026 -0.8555 -0.5178
vn -0.0608 0.1967 -0.9786
vn 0.1062 -0.7568 0.6450
vn 0.0873 0.1365 0.9868
vn 0.4807 -0.3541 -0.8022
vn -0.0707 -0.3848 -0.9203
vn 0.6033 0.4812 -0.6360
vn -0.0919 0.5983 -0.7960
vn -0.5452 -0.4248 -0.7227
vn -0.6936 0.4746 -0.5419
vn -0.5556 -0.6344 0.5375
vn 0.0679 -0.6562 0.7515
vn -0.7714 0.3014 0.5605
vn 0.0417 0.3367 0.9407
vn 0.6528 -0.5952 0.4685
vn 0.8016 0.3589 0.4782
vn -0.0892 -0.5395 -0.8373
vn -0.1465 0.3073 -0.9403
vn 0.0727 -0.9703 0.2309
vn 0.1323 -0.1399 0.9813
vn -0.4175 0.9087 0.0074
vn -0.0458 0.9943 -0.0966
vn 0.3378 0.9348 -0.1096
vn 0.0520 0.6984 0.7139
vn 0.2048 0.8039 0.5584
vn 0.3155 0.9157 0.2488
vn -0.4991 0.8647 -0.0566
vn -0.1143 0.8635 -0.4912
vn -0.3187 0.9171 0.2393
vn -0.0541 0.9985 0.0108
vn 0.4210 0.8977 -0.1302
vn -0.0377 0.7973 0.6024
vn 0.1235 0.9885 -0.0876
vn -0.4182 0.8981 0.1359
vn 0.0228 0.9665 -0.2556
vn -0.0118 0.9218 0.3875
vn -0.0571 0.8911 -0.4501
vn 0.0033 0.8422 0.5392
vn -0.1714 0.9804 -0.0966
vn -0.1299 0.9646 -0.2296
vn 0.3642 0.9260 0.0997
vn 0.6488 -0.7470 -0.1449
vn 0.9382 0.2371 -0.2523
vn -0.5975 -0.7944 -0.1091
vn -0.9752 0.1592 -0.1539
vn 0.0551 -0.9985 -0.0075
vt 0.930435 1.137609
vt 0.910682 1.137609
vt 0.931555 1.136557
vt 0.909745 1.136557
vt 0.914087 1.185605
vt 0.927274 1.185605
vt 0.913700 1.186223
vt 0.927645 1.186239
vt 0.563461 1.142031
vt 0.583744 1.142031
vt 0.563461 1.146322
vt 0.583741 1.146314
vt 0.571394 1.152809
vt 0.583744 1.152809
vt 0.570600 1.159067
vt 0.583738 1.159067
vt 0.542551 1.146322
vt 0.542551 1.142031
vt 0.523114 1.142031
vt 0.523101 1.146314
vt 0.523114 1.152809
vt 0.535424 1.152809
vt 0.523088 1.159067
vt 0.534633 1.159067
vt 0.909771 1.144949
vt 0.910639 1.145320
vt 0.903412 1.156549
vt 0.902419 1.156549
vt 0.938821 1.156548
vt 0.937953 1.156548
vt 0.931508 1.144207
vt 0.930454 1.144333
vt 0.934712 1.175165
vt 0.933587 1.174256
vt 0.906635 1.175143
vt 0.907766 1.174256
vt 0.560686 1.152809
vt 0.560686 1.159067
vt 0.545326 1.159067
vt 0.545326 1.152809
vt 0.583744 1.163934
vt 0.563461 1.163934
vt 0.542551 1.163934
vt 0.523114 1.163934
vt 0.915540 1.149549
vt 0.915540 1.142541
vt 0.925693 1.142541
vt 0.925693 1.149549
vt 0.915546 1.172699
vt 0.925687 1.172699
vt 0.925687 1.179683
vt 0.915546 1.179683
vt 0.183824 0.075974
vt 0.183660 0.383101
vt 0.191616 0.065902
vt 0.190720 0.393188
vt 0.058267 0.382778
vt 0.053849 0.382778
vt 0.059164 0.063208
vt 0.054745 0.063208
vt 0.184121 0.730803
vt 0.185709 0.921785
vt 0.190734 0.721167
vt 0.192527 0.931704
vt 0.051161 0.931704
vt 0.060187 0.922350
vt 0.049369 0.721167
vt 0.058368 0.730917
vt 0.120941 0.065902
vt 0.120941 0.075987
vt 0.050278 0.065902
vt 0.061933 0.076245
vt 0.049382 0.393188
vt 0.115563 0.432627
vt 0.058327 0.383089
vt 0.115563 0.422527
vt 0.235238 0.994435
vt 0.121723 0.994435
vt 0.235103 0.988085
vt 0.121656 0.988085
vt 0.008208 0.994435
vt 0.008208 0.988085
vt 0.007930 0.014262
vt 0.119628 0.014262
vt 0.006141 0.004473
vt 0.119669 0.004459
vt 0.231327 0.014262
vt 0.233183 0.004459
vt 0.117356 0.693381
vt 0.117356 0.703030
vt 0.121837 0.931704
vt 0.121837 0.922055
vt 0.011772 0.981732
vt 0.121723 0.981732
vt 0.231687 0.981732
vt 0.192182 0.921857
vt 0.123905 0.928468
vt 0.123905 0.921857
vt 0.055628 0.921857
vt 0.050831 0.928468
vt 0.053836 0.717917
vt 0.049038 0.711308
vt 0.011772 0.558858
vt 0.119423 0.690131
vt 0.119423 0.683521
vt 0.190390 0.717917
vt 0.195201 0.711308
vt 0.121723 0.558858
vt 0.231687 0.558858
vt 0.196994 0.928468
vt 0.049038 0.390494
vt 0.011772 0.011169
vt 0.049935 0.055489
vt 0.121723 0.011169
vt 0.123008 0.055489
vt 0.117630 0.429933
vt 0.117630 0.422216
vt 0.190376 0.382778
vt 0.195201 0.390494
vt 0.196097 0.055489
vt 0.191272 0.063208
vt 0.123008 0.063208
vt 0.231687 0.011169
vt 0.235238 0.004251
vt 0.121723 0.004251
vt 0.008208 0.004251
vt 0.231394 0.565687
vt 0.237372 0.565970
vt 0.231394 0.991460
vt 0.003885 0.988085
vt 0.003885 0.559424
vt 0.008208 0.559424
vt 0.003885 0.004251
vt 0.119669 0.565404
vt 0.007930 0.565687
vt 0.119669 0.991460
vt 0.007930 0.991460
s 1
usemtl Material.005
f 1/1/1 2/2/2 3/3/3
f 2/2/2 4/4/4 3/3/3
f 5/5/5 6/6/6 7/7/7
f 6/6/6 8/8/8 7/7/7
f 9/9/9 10/10/10 11/11/11
f 10/10/10 12/12/12 11/11/11
f 13/13/13 14/14/14 15/15/15
f 14/14/14 16/16/16 15/15/15
f 11/11/11 17/17/17 9/9/9
f 17/17/17 18/18/18 9/9/9
f 19/19/19 18/18/18 20/20/20
f 18/18/18 17/17/17 20/20/20
f 21/21/21 22/22/22 23/23/23
f 22/22/22 24/24/24 23/23/23
f 4/4/4 2/2/2 25/25/25
f 2/2/2 26/26/26 25/25/25
f 26/26/26 27/27/27 25/25/25
f 25/25/25 27/27/27 28/28/28
f 29/29/29 30/30/30 31/31/31
f 30/30/30 32/32/32 31/31/31
f 32/32/32 1/1/1 31/31/31
f 31/31/31 1/1/1 3/3/3
f 29/29/29 33/33/33 30/30/30
f 30/30/30 33/33/33 34/34/34
f 33/33/33 8/8/8 34/34/34
f 34/34/34 8/8/8 6/6/6
f 7/7/7 35/35/35 5/5/5
f 5/5/5 35/35/35 36/36/36
f 35/35/35 28/28/28 36/36/36
f 36/36/36 28/28/28 27/27/27
f 13/13/13 15/15/15 37/37/37
f 15/15/15 38/38/38 37/37/37
f 38/38/38 39/39/39 37/37/37
f 37/37/37 39/39/39 40/40/40
f 40/40/40 39/39/39 22/22/22
f 39/39/39 24/24/24 22/22/22
f 12/12/12 14/14/14 11/11/11
f 14/14/14 13/13/13 11/11/11
f 13/13/13 37/37/37 11/11/11
f 11/11/11 37/37/37 17/17/17
f 37/37/37 40/40/40 17/17/17
f 40/40/40 22/22/22 17/17/17
f 17/17/17 22/22/22 20/20/20
f 22/22/22 21/21/21 20/20/20
f 16/16/16 10/41/10 15/15/15
f 10/41/10 9/42/9 15/15/15
f 15/15/15 9/42/9 38/38/38
f 38/38/38 9/42/9 39/39/39
f 9/42/9 18/43/18 39/39/39
f 39/39/39 18/43/18 24/24/24
f 24/24/24 18/43/18 23/23/23
f 18/43/18 19/44/19 23/23/23
f 36/36/36 27/27/27 12/45/12
f 27/27/27 26/26/26 12/45/12
f 12/45/12 26/26/26 14/46/14
f 26/26/26 2/2/2 14/46/14
f 14/46/14 2/2/2 1/1/1
f 16/47/16 14/46/14 1/1/1
f 1/1/1 32/32/32 16/47/16
f 16/47/16 32/32/32 10/48/10
f 32/32/32 30/30/30 10/48/10
f 10/48/10 30/30/30 34/34/34
f 20/49/20 10/48/10 19/50/19
f 10/48/10 34/34/34 19/50/19
f 19/50/19 34/34/34 23/51/23
f 34/34/34 6/6/6 23/51/23
f 6/6/6 5/5/5 23/51/23
f 23/51/23 5/5/5 21/52/21
f 5/5/5 36/36/36 21/52/21
f 21/52/21 36/36/36 20/49/20
f 36/36/36 12/45/12 20/49/20
f 20/49/20 12/45/12 10/48/10
f 41/53/41 42/54/42 43/55/43
f 42/54/42 44/56/44 43/55/43
f 45/57/45 46/58/46 47/59/47
f 46/58/46 48/60/48 47/59/47
f 49/61/49 50/62/50 51/63/51
f 50/62/50 52/64/52 51/63/51
f 53/65/53 54/66/54 55/67/55
f 54/66/54 56/68/56 55/67/55
f 43/55/43 57/69/57 41/53/41
f 41/53/41 57/69/57 58/70/58
f 57/69/57 47/71/47 58/70/58
f 58/70/58 47/71/47 48/72/48
f 45/73/45 59/74/59 46/75/46
f 46/75/46 59/74/59 60/76/60
f 59/74/59 44/56/44 60/76/60
f 60/76/60 44/56/44 42/54/42
f 61/77/61 62/78/62 63/79/63
f 63/79/63 62/78/62 64/80/64
f 62/78/62 65/81/65 64/80/64
f 64/80/64 65/81/65 66/82/66
f 67/83/67 68/84/68 69/85/69
f 69/85/69 68/84/68 70/86/70
f 68/84/68 71/87/71 70/86/70
f 70/86/70 71/87/71 72/88/72
f 51/63/51 73/89/73 49/61/49
f 49/61/49 73/89/73 74/90/74
f 73/89/73 55/67/55 74/90/74
f 74/90/74 55/67/55 56/68/56
f 53/65/53 75/91/75 54/66/54
f 54/66/54 75/91/75 76/92/76
f 75/91/75 52/64/52 76/92/76
f 76/92/76 52/64/52 50/62/50
f 66/82/66 77/93/77 64/80/64
f 77/93/77 78/94/78 64/80/64
f 78/94/78 79/95/79 64/80/64
f 64/80/64 79/95/79 63/79/63
f 50/96/50 80/97/80 76/98/76
f 76/98/76 80/97/80 54/99/54
f 80/97/80 81/100/81 54/99/54
f 54/99/54 81/100/81 56/101/56
f 56/101/56 81/100/81 82/102/82
f 82/102/82 81/100/81 83/103/83
f 83/103/83 81/100/81 77/93/77
f 77/93/77 81/100/81 78/94/78
f 81/100/81 80/97/80 78/94/78
f 74/104/74 84/105/84 49/106/49
f 49/106/49 84/105/84 85/107/85
f 84/105/84 86/108/86 85/107/85
f 86/108/86 87/109/87 85/107/85
f 87/109/87 79/95/79 85/107/85
f 85/107/85 79/95/79 88/110/88
f 79/95/79 78/94/78 88/110/88
f 78/94/78 80/97/80 88/110/88
f 80/97/80 50/96/50 88/110/88
f 88/110/88 50/96/50 85/107/85
f 50/96/50 49/106/49 85/107/85
f 74/104/74 56/101/56 84/105/84
f 56/101/56 82/102/82 84/105/84
f 84/105/84 82/102/82 86/108/86
f 82/102/82 83/103/83 86/108/86
f 86/108/86 83/103/83 89/111/89
f 83/103/83 90/112/90 89/111/89
f 89/111/89 90/112/90 91/113/91
f 90/112/90 92/114/92 91/113/91
f 92/114/92 93/115/93 91/113/91
f 93/115/93 48/60/48 91/113/91
f 91/113/91 48/60/48 89/111/89
f 48/60/48 46/58/46 89/111/89
f 89/111/89 46/58/46 94/116/94
f 46/58/46 60/117/60 94/116/94
f 60/117/60 42/118/42 94/116/94
f 94/116/94 42/118/42 95/119/95
f 95/119/95 42/118/42 96/120/96
f 42/118/42 41/121/41 96/120/96
f 96/120/96 41/121/41 93/115/93
f 41/121/41 58/122/58 93/115/93
f 93/115/93 58/122/58 48/60/48
f 93/115/93 92/114/92 96/120/96
f 92/114/92 97/123/97 96/120/96
f 96/120/96 97/123/97 95/119/95
f 97/123/97 87/109/87 95/119/95
f 87/109/87 86/108/86 95/119/95
f 95/119/95 86/108/86 94/116/94
f 86/108/86 89/111/89 94/116/94
f 72/124/72 97/123/97 70/125/70
f 97/123/97 92/114/92 70/125/70
f 92/114/92 90/112/90 70/125/70
f 70/125/70 90/112/90 69/126/69
f 71/87/71 98/127/98 72/124/72
f 98/127/98 99/128/99 72/124/72
f 72/124/72 99/128/99 97/123/97
f 97/123/97 99/128/99 87/109/87
f 87/109/87 99/128/99 79/95/79
f 79/95/79 99/128/99 63/79/63
f 99/128/99 98/127/98 63/79/63
f 63/79/63 98/127/98 61/129/61
f 65/130/65 100/131/100 101/132/101
f 100/131/100 67/133/67 101/132/101
f 67/133/67 69/126/69 101/132/101
f 69/126/69 90/112/90 101/132/101
f 90/112/90 83/103/83 101/132/101
f 83/103/83 77/93/77 101/132/101
f 77/93/77 66/82/66 101/132/101
f 101/132/101 66/82/66 65/130/65
f 44/56/44 59/74/59 102/134/102
f 59/74/59 45/73/45 102/134/102
f 102/134/102 45/73/45 100/135/100
f 100/135/100 45/73/45 67/83/67
f 45/73/45 47/71/47 67/83/67
f 67/83/67 47/71/47 68/84/68
f 47/71/47 57/69/57 68/84/68
f 57/69/57 43/55/43 68/84/68
f 68/84/68 43/55/43 71/87/71
f 43/55/43 44/56/44 71/87/71
f 71/87/71 44/56/44 98/127/98
f 44/56/44 102/134/102 98/127/98
f 102/134/102 51/63/51 98/127/98
f 98/127/98 51/63/51 61/129/61
f 51/63/51 52/64/52 61/129/61
f 61/129/61 52/64/52 62/136/62
f 52/64/52 75/91/75 62/136/62
f 75/91/75 53/65/53 62/136/62
f 62/136/62 53/65/53 65/137/65
f 65/137/65 53/65/53 100/135/100
f 53/65/53 55/67/55 100/135/100
f 100/135/100 55/67/55 102/134/102
f 55/67/55 73/89/73 102/134/102
f 102/134/102 73/89/73 51/63/51
o eyes.001
v 0.093989 0.965205 -0.897123
v 0.118972 0.972554 -0.860502
v 0.115877 0.963873 -0.904490
v 0.138568 0.963833 -0.899961
v 0.155984 0.965097 -0.884745
v 0.163460 0.967325 -0.862918
v 0.158992 0.969920 -0.840326
v 0.143780 0.972188 -0.823019
v 0.121896 0.973522 -0.815641
v 0.099202 0.973563 -0.820177
v 0.081779 0.972300 -0.835407
v 0.074302 0.970072 -0.857238
v 0.078771 0.967475 -0.879828
v 0.075518 0.952112 -0.923079
v 0.049157 0.956043 -0.893130
v 0.041415 0.960544 -0.854005
v 0.054369 0.964404 -0.816184
v 0.084554 0.966594 -0.789785
v 0.123865 0.966522 -0.781922
v 0.161765 0.964210 -0.794710
v 0.188107 0.960281 -0.824703
v 0.195842 0.955786 -0.863840
v 0.182895 0.951926 -0.901644
v 0.152732 0.949735 -0.927995
v 0.113431 0.949804 -0.935835
v 0.068510 0.936788 -0.931412
v 0.112291 0.934127 -0.946133
v 0.157666 0.934039 -0.937097
v 0.192493 0.936569 -0.906676
v 0.207442 0.941030 -0.863023
v 0.198516 0.946225 -0.817815
v 0.168100 0.950761 -0.783181
v 0.124326 0.953421 -0.768446
v 0.078933 0.953506 -0.777523
v 0.044086 0.950983 -0.807988
v 0.029126 0.946523 -0.851667
v 0.038066 0.941324 -0.896843
v 0.074830 0.923328 -0.919924
v 0.112745 0.921024 -0.932673
v 0.152041 0.920947 -0.924848
v 0.182199 0.923135 -0.898511
v 0.195154 0.927010 -0.860682
v 0.187432 0.931522 -0.821504
v 0.161079 0.935443 -0.791541
v 0.123170 0.937748 -0.778777
v 0.083853 0.937814 -0.786657
v 0.053682 0.935631 -0.813021
v 0.040727 0.931766 -0.850847
v 0.048467 0.927260 -0.889979
v -0.376637 0.716205 -0.823091
v -0.351981 0.753582 -0.825780
v -0.372839 0.719211 -0.845728
v -0.362636 0.730784 -0.862970
v -0.348762 0.747827 -0.870192
v -0.334936 0.765763 -0.865471
v -0.324860 0.779798 -0.850056
v -0.321235 0.786164 -0.828085
v -0.325031 0.783158 -0.805442
v -0.335233 0.771585 -0.788196
v -0.349106 0.754547 -0.780971
v -0.362936 0.736606 -0.785704
v -0.373013 0.722571 -0.801122
v -0.382017 0.689255 -0.859946
v -0.388597 0.684048 -0.820740
v -0.382320 0.695076 -0.782687
v -0.364864 0.719388 -0.755977
v -0.340907 0.750466 -0.747769
v -0.316878 0.779974 -0.760288
v -0.299212 0.800014 -0.790167
v -0.292638 0.805222 -0.829388
v -0.298918 0.794194 -0.867446
v -0.316363 0.769902 -0.894120
v -0.340308 0.738835 -0.902296
v -0.364340 0.709314 -0.889790
v -0.356645 0.694907 -0.899081
v -0.328895 0.728995 -0.913521
v -0.301245 0.764868 -0.904080
v -0.281103 0.792914 -0.873286
v -0.273852 0.805647 -0.829342
v -0.281442 0.799636 -0.784050
v -0.301839 0.776500 -0.749539
v -0.329590 0.742419 -0.735099
v -0.357250 0.706541 -0.744567
v -0.377408 0.678466 -0.775414
v -0.384657 0.665728 -0.819356
v -0.377057 0.671740 -0.864625
v -0.317581 0.720940 -0.900864
v -0.293636 0.752007 -0.892688
v -0.276192 0.776296 -0.866019
v -0.269911 0.787328 -0.827956
v -0.276483 0.782127 -0.788727
v -0.294157 0.762074 -0.758871
v -0.318182 0.732576 -0.746337
v -0.342134 0.701509 -0.754529
v -0.359592 0.677190 -0.781249
v -0.365872 0.666151 -0.819313
v -0.359291 0.671357 -0.858518
v -0.341613 0.691420 -0.888358
vn -0.0974 0.9533 -0.2858
vn 0.0236 0.9937 -0.1095
vn 0.0087 0.9469 -0.3216
vn 0.1187 0.9466 -0.2997
vn 0.2030 0.9527 -0.2262
vn 0.2391 0.9635 -0.1208
vn 0.2174 0.9760 -0.0118
vn 0.1436 0.9870 0.0717
vn 0.0375 0.9935 0.1074
vn -0.0725 0.9937 0.0856
vn -0.1568 0.9876 0.0123
vn -0.1929 0.9768 -0.0930
vn -0.1712 0.9643 -0.2022
vn -0.3104 0.7550 -0.5776
vn -0.5120 0.7850 -0.3486
vn -0.5713 0.8192 -0.0503
vn -0.4727 0.8486 0.2376
vn -0.2425 0.8654 0.4386
vn 0.0584 0.8650 0.4984
vn 0.3487 0.8476 0.4000
vn 0.5502 0.8172 0.1715
vn 0.6095 0.7827 -0.1263
vn 0.5107 0.7534 -0.4142
vn 0.2803 0.7368 -0.6153
vn -0.0203 0.7373 -0.6753
vn -0.5567 -0.0776 -0.8271
vn -0.0665 -0.1074 -0.9920
vn 0.4413 -0.1083 -0.8908
vn 0.8307 -0.0802 -0.5509
vn 0.9975 -0.0308 -0.0642
vn 0.8978 0.0274 0.4395
vn 0.5573 0.0777 0.8267
vn 0.0664 0.1070 0.9920
vn -0.4418 0.1081 0.8906
vn -0.8307 0.0804 0.5508
vn -0.9975 0.0308 0.0640
vn -0.8975 -0.0270 -0.4402
vn -0.4443 -0.6931 -0.5677
vn -0.0664 -0.7161 -0.6949
vn 0.3252 -0.7168 -0.6168
vn 0.6253 -0.6950 -0.3550
vn 0.7536 -0.6571 0.0202
vn 0.6768 -0.6127 0.4081
vn 0.4137 -0.5749 0.7059
vn 0.0358 -0.5519 0.8331
vn -0.3557 -0.5509 0.7550
vn -0.6553 -0.5715 0.4940
vn -0.7838 -0.6095 0.1193
vn -0.7069 -0.6541 -0.2693
vn -0.9003 0.4337 -0.0362
vn -0.7847 0.6179 -0.0496
vn -0.8819 0.4483 -0.1458
vn -0.8325 0.5044 -0.2293
vn -0.7652 0.5870 -0.2643
vn -0.6982 0.6740 -0.2415
vn -0.6494 0.7419 -0.1669
vn -0.6318 0.7727 -0.0606
vn -0.6503 0.7581 0.0489
vn -0.6998 0.7020 0.1323
vn -0.7671 0.6194 0.1673
vn -0.8340 0.5324 0.1445
vn -0.8828 0.4645 0.0701
vn -0.9491 0.0746 -0.3061
vn -0.9994 0.0347 -0.0065
vn -0.9515 0.1188 0.2838
vn -0.8183 0.3045 0.4874
vn -0.6351 0.5423 0.5500
vn -0.4514 0.7682 0.4540
vn -0.3160 0.9215 0.2258
vn -0.2656 0.9613 -0.0734
vn -0.3135 0.8771 -0.3638
vn -0.4469 0.6914 -0.5677
vn -0.6300 0.4538 -0.6302
vn -0.8138 0.2280 -0.5345
vn -0.3064 -0.4560 -0.8356
vn 0.0041 -0.0745 -0.9972
vn 0.3135 0.3268 -0.8916
vn 0.5388 0.6405 -0.5472
vn 0.6198 0.7827 -0.0565
vn 0.5350 0.7155 0.4493
vn 0.3069 0.4562 0.8353
vn -0.0042 0.0745 0.9972
vn -0.3138 -0.3270 0.8914
vn -0.5389 -0.6405 0.5471
vn -0.6199 -0.7827 0.0564
vn -0.5349 -0.7152 -0.4498
vn 0.5033 -0.4512 -0.7370
vn 0.7417 -0.1419 -0.6556
vn 0.9153 0.0999 -0.3902
vn 0.9778 0.2094 -0.0122
vn 0.9124 0.1575 0.3778
vn 0.7373 -0.0432 0.6741
vn 0.4973 -0.3369 0.7995
vn 0.2584 -0.6459 0.7183
vn 0.0849 -0.8874 0.4532
vn 0.0223 -0.9969 0.0752
vn 0.0879 -0.9450 -0.3150
vn 0.2640 -0.7451 -0.6124
vt 0.329240 0.370404
vt 0.372424 0.301460
vt 0.369360 0.381721
vt 0.409972 0.371421
vt 0.440209 0.342257
vt 0.451962 0.302047
vt 0.442088 0.261557
vt 0.413219 0.231647
vt 0.373108 0.220321
vt 0.332496 0.230622
vt 0.302259 0.259785
vt 0.290506 0.300004
vt 0.300381 0.340484
vt 0.293877 0.420001
vt 0.243883 0.368193
vt 0.226776 0.298065
vt 0.247139 0.228410
vt 0.299512 0.177900
vt 0.369860 0.160063
vt 0.439340 0.179673
vt 0.489326 0.231480
vt 0.506441 0.301600
vt 0.486078 0.371255
vt 0.433705 0.421765
vt 0.363357 0.439611
vt 0.278175 0.436960
vt 0.358407 0.459606
vt 0.439639 0.439005
vt 0.500113 0.380678
vt 0.523618 0.300259
vt 0.503861 0.219276
vt 0.446134 0.159458
vt 0.365911 0.136812
vt 0.284679 0.157413
vt 0.224204 0.215740
vt 0.200691 0.296161
vt 0.220448 0.377142
vt 0.255153 0.466020
vt 0.353123 0.493666
vt 0.452313 0.468511
vt 0.526155 0.397287
vt 0.554865 0.299082
vt 0.530737 0.200202
vt 0.460256 0.127152
vt 0.362286 0.099498
vt 0.263096 0.124661
vt 0.189254 0.195877
vt 0.160544 0.294090
vt 0.184664 0.392962
vt 0.563244 0.662850
vt 0.677813 0.662019
vt 0.579482 0.720086
vt 0.622166 0.761601
vt 0.679859 0.776269
vt 0.737093 0.760150
vt 0.778524 0.717570
vt 0.793075 0.659936
vt 0.776825 0.602699
vt 0.734140 0.561185
vt 0.676460 0.546528
vt 0.619225 0.562635
vt 0.577782 0.605215
vt 0.508193 0.761366
vt 0.480048 0.662217
vt 0.505241 0.562400
vt 0.577025 0.488659
vt 0.676150 0.460734
vt 0.776056 0.486129
vt 0.849999 0.558035
vt 0.878132 0.657184
vt 0.852939 0.757001
vt 0.781167 0.830754
vt 0.682042 0.858666
vt 0.582124 0.833271
vt 0.568405 0.857811
vt 0.683779 0.887136
vt 0.798235 0.854896
vt 0.881109 0.769734
vt 0.910210 0.654480
vt 0.877711 0.539995
vt 0.792343 0.456965
vt 0.676969 0.427642
vt 0.562513 0.459879
vt 0.479625 0.545040
vt 0.450537 0.660296
vt 0.483037 0.774783
vt 0.685776 0.933622
vt 0.824557 0.894537
vt 0.925046 0.791299
vt 0.960312 0.651542
vt 0.920915 0.512739
vt 0.817412 0.412080
vt 0.677527 0.376529
vt 0.538757 0.415613
vt 0.438269 0.518852
vt 0.403003 0.658608
vt 0.442387 0.797412
vt 0.545903 0.898071
s 1
usemtl Material.003
f 103/138/103 104/139/104 105/140/105
f 105/140/105 104/139/104 106/141/106
f 106/141/106 104/139/104 107/142/107
f 107/142/107 104/139/104 108/143/108
f 108/143/108 104/139/104 109/144/109
f 109/144/109 104/139/104 110/145/110
f 110/145/110 104/139/104 111/146/111
f 111/146/111 104/139/104 112/147/112
f 112/147/112 104/139/104 113/148/113
f 113/148/113 104/139/104 114/149/114
f 114/149/114 104/139/104 115/150/115
f 104/139/104 103/138/103 115/150/115
f 116/151/116 103/138/103 105/140/105
f 117/152/117 103/138/103 116/151/116
f 103/138/103 117/152/117 115/150/115
f 117/152/117 118/153/118 115/150/115
f 115/150/115 118/153/118 114/149/114
f 118/153/118 119/154/119 114/149/114
f 114/149/114 119/154/119 113/148/113
f 119/154/119 120/155/120 113/148/113
f 113/148/113 120/155/120 112/147/112
f 120/155/120 121/156/121 112/147/112
f 112/147/112 121/156/121 111/146/111
f 121/156/121 122/157/122 111/146/111
f 111/146/111 122/157/122 110/145/110
f 122/157/122 123/158/123 110/145/110
f 110/145/110 123/158/123 109/144/109
f 123/158/123 124/159/124 109/144/109
f 109/144/109 124/159/124 108/143/108
f 124/159/124 125/160/125 108/143/108
f 108/143/108 125/160/125 107/142/107
f 125/160/125 126/161/126 107/142/107
f 107/142/107 126/161/126 106/141/106
f 126/161/126 127/162/127 106/141/106
f 106/141/106 127/162/127 105/140/105
f 127/162/127 116/151/116 105/140/105
f 128/163/128 127/162/127 129/164/129
f 127/162/127 126/161/126 129/164/129
f 129/164/129 126/161/126 130/165/130
f 126/161/126 125/160/125 130/165/130
f 130/165/130 125/160/125 131/166/131
f 125/160/125 124/159/124 131/166/131
f 131/166/131 124/159/124 132/167/132
f 124/159/124 123/158/123 132/167/132
f 132/167/132 123/158/123 133/168/133
f 123/158/123 122/157/122 133/168/133
f 133/168/133 122/157/122 134/169/134
f 122/157/122 121/156/121 134/169/134
f 134/169/134 121/156/121 135/170/135
f 121/156/121 120/155/120 135/170/135
f 135/170/135 120/155/120 136/171/136
f 120/155/120 119/154/119 136/171/136
f 136/171/136 119/154/119 137/172/137
f 119/154/119 118/153/118 137/172/137
f 137/172/137 118/153/118 138/173/138
f 118/153/118 117/152/117 138/173/138
f 138/173/138 117/152/117 139/174/139
f 117/152/117 116/151/116 139/174/139
f 139/174/139 116/151/116 128/163/128
f 116/151/116 127/162/127 128/163/128
f 140/175/140 129/164/129 141/176/141
f 129/164/129 130/165/130 141/176/141
f 141/176/141 130/165/130 142/177/142
f 130/165/130 131/166/131 142/177/142
f 142/177/142 131/166/131 143/178/143
f 131/166/131 132/167/132 143/178/143
f 143/178/143 132/167/132 144/179/144
f 132/167/132 133/168/133 144/179/144
f 144/179/144 133/168/133 145/180/145
f 133/168/133 134/169/134 145/180/145
f 145/180/145 134/169/134 146/181/146
f 134/169/134 135/170/135 146/181/146
f 146/181/146 135/170/135 147/182/147
f 135/170/135 136/171/136 147/182/147
f 147/182/147 136/171/136 148/183/148
f 136/171/136 137/172/137 148/183/148
f 148/183/148 137/172/137 149/184/149
f 137/172/137 138/173/138 149/184/149
f 149/184/149 138/173/138 150/185/150
f 138/173/138 139/174/139 150/185/150
f 150/185/150 139/174/139 151/186/151
f 139/174/139 128/163/128 151/186/151
f 151/186/151 128/163/128 140/175/140
f 128/163/128 129/164/129 140/175/140
f 152/187/152 153/188/153 154/189/154
f 154/189/154 153/188/153 155/190/155
f 155/190/155 153/188/153 156/191/156
f 156/191/156 153/188/153 157/192/157
f 157/192/157 153/188/153 158/193/158
f 158/193/158 153/188/153 159/194/159
f 159/194/159 153/188/153 160/195/160
f 160/195/160 153/188/153 161/196/161
f 161/196/161 153/188/153 162/197/162
f 162/197/162 153/188/153 163/198/163
f 163/198/163 153/188/153 164/199/164
f 153/188/153 152/187/152 164/199/164
f 154/189/154 165/200/165 152/187/152
f 165/200/165 166/201/166 152/187/152
f 152/187/152 166/201/166 164/199/164
f 166/201/166 167/202/167 164/199/164
f 164/199/164 167/202/167 163/198/163
f 167/202/167 168/203/168 163/198/163
f 163/198/163 168/203/168 162/197/162
f 168/203/168 169/204/169 162/197/162
f 162/197/162 169/204/169 161/196/161
f 169/204/169 170/205/170 161/196/161
f 161/196/161 170/205/170 160/195/160
f 170/205/170 171/206/171 160/195/160
f 160/195/160 171/206/171 159/194/159
f 171/206/171 172/207/172 159/194/159
f 159/194/159 172/207/172 158/193/158
f 172/207/172 173/208/173 158/193/158
f 158/193/158 173/208/173 157/192/157
f 173/208/173 174/209/174 157/192/157
f 157/192/157 174/209/174 156/191/156
f 174/209/174 175/210/175 156/191/156
f 156/191/156 175/210/175 155/190/155
f 175/210/175 176/211/176 155/190/155
f 155/190/155 176/211/176 154/189/154
f 176/211/176 165/200/165 154/189/154
f 177/212/177 176/211/176 178/213/178
f 176/211/176 175/210/175 178/213/178
f 178/213/178 175/210/175 179/214/179
f 175/210/175 174/209/174 179/214/179
f 179/214/179 174/209/174 180/215/180
f 174/209/174 173/208/173 180/215/180
f 180/215/180 173/208/173 181/216/181
f 173/208/173 172/207/172 181/216/181
f 181/216/181 172/207/172 182/217/182
f 172/207/172 171/206/171 182/217/182
f 182/217/182 171/206/171 183/218/183
f 171/206/171 170/205/170 183/218/183
f 183/218/183 170/205/170 184/219/184
f 170/205/170 169/204/169 184/219/184
f 184/219/184 169/204/169 185/220/185
f 169/204/169 168/203/168 185/220/185
f 185/220/185 168/203/168 186/221/186
f 168/203/168 167/202/167 186/221/186
f 186/221/186 167/202/167 187/222/187
f 167/202/167 166/201/166 187/222/187
f 187/222/187 166/201/166 188/223/188
f 166/201/166 165/200/165 188/223/188
f 188/223/188 165/200/165 177/212/177
f 165/200/165 176/211/176 177/212/177
f 189/224/189 178/213/178 190/225/190
f 178/213/178 179/214/179 190/225/190
f 190/225/190 179/214/179 191/226/191
f 179/214/179 180/215/180 191/226/191
f 191/226/191 180/215/180 192/227/192
f 180/215/180 181/216/181 192/227/192
f 192/227/192 181/216/181 193/228/193
f 181/216/181 182/217/182 193/228/193
f 193/228/193 182/217/182 194/229/194
f 182/217/182 183/218/183 194/229/194
f 194/229/194 183/218/183 195/230/195
f 183/218/183 184/219/184 195/230/195
f 195/230/195 184/219/184 196/231/196
f 184/219/184 185/220/185 196/231/196
f 196/231/196 185/220/185 197/232/197
f 185/220/185 186/221/186 197/232/197
f 197/232/197 186/221/186 198/233/198
f 186/221/186 187/222/187 198/233/198
f 198/233/198 187/222/187 199/234/199
f 187/222/187 188/223/188 199/234/199
f 199/234/199 188/223/188 200/235/200
f 188/223/188 177/212/177 200/235/200
f 200/235/200 177/212/177 189/224/189
f 177/212/177 178/213/178 189/224/189
