# Blender 4.2.3 LTS
# www.blender.org
mtllib doll_stand_2.mtl
o zip.001
v 0.086309 0.877925 0.182630
v 0.010749 0.889701 0.180963
v 0.086106 0.875716 0.176984
v 0.010502 0.887500 0.175314
v 0.043925 1.010052 0.132522
v 0.094365 1.002191 0.133635
v 0.043698 1.007889 0.126979
v 0.094164 1.000023 0.128093
v 0.071616 0.922441 0.202580
v 0.070341 0.909762 0.170808
v 0.037863 0.927701 0.201835
v 0.036589 0.915023 0.170063
v 0.035632 0.914699 0.211099
v 0.034255 0.900848 0.175707
v 0.069385 0.909438 0.211844
v 0.068007 0.895588 0.176452
v 0.048113 0.989962 0.177107
v 0.081865 0.984702 0.177851
v 0.080659 0.972431 0.145856
v 0.046906 0.977692 0.145111
v 0.049240 0.991866 0.139467
v 0.050620 1.005744 0.174938
v 0.082993 0.986606 0.140212
v 0.084373 1.000484 0.175683
v 0.013604 0.907189 0.167499
v 0.013825 0.909392 0.173129
v -0.009107 0.942329 0.161120
v -0.009330 0.940140 0.155514
v 0.122805 0.919543 0.158431
v 0.123018 0.921734 0.164037
v 0.088989 0.892850 0.170176
v 0.089205 0.895057 0.175806
v 0.115594 0.968177 0.139706
v 0.115799 0.970354 0.145272
v 0.013110 0.984151 0.137444
v 0.013336 0.986324 0.143010
v 0.038117 0.931767 0.219061
v 0.071869 0.926506 0.219806
v 0.082880 0.993390 0.193241
v 0.049127 0.998651 0.192496
v 0.059542 0.695134 0.235623
v 0.066008 0.773524 0.218170
v 0.060817 0.692647 0.230186
v 0.067229 0.773076 0.212281
v -0.003888 0.784160 0.210712
v -0.002841 0.784254 0.216650
v -0.022847 0.705687 0.228339
v -0.021114 0.707705 0.233842
v 0.073715 0.866907 0.197379
v 0.077739 0.915712 0.186513
v 0.074542 0.864635 0.191899
v 0.078569 0.915179 0.180648
v 0.029599 0.922811 0.179567
v 0.030299 0.923105 0.185466
v 0.017683 0.873497 0.190644
v 0.018922 0.875447 0.196169
v 0.017424 0.691176 0.231053
v 0.017654 0.693428 0.236523
v 0.032921 0.787577 0.209495
v 0.032832 0.787848 0.215409
v 0.092612 0.928717 0.177472
v 0.057672 0.941564 0.175061
v 0.093300 0.930719 0.182993
v 0.057874 0.943641 0.180571
v 0.019020 0.940187 0.175848
v 0.018739 0.942340 0.181347
v -0.052971 0.694195 0.231261
v 0.014101 0.671071 0.235550
v -0.054240 0.694755 0.237125
v 0.014029 0.671444 0.241440
v 0.083241 0.672965 0.234268
v 0.084363 0.673153 0.240185
v 0.044758 0.861238 0.193023
v 0.044965 0.863348 0.198526
v 0.055256 0.926213 0.178493
v 0.055190 0.926627 0.184375
v 0.019471 0.941059 0.183989
v 0.057640 0.942510 0.183191
v 0.092095 0.929740 0.185592
v 0.055491 0.928824 0.186251
v 0.029068 0.925541 0.187308
v 0.016613 0.874572 0.198759
v -0.011465 0.834573 0.207973
v 0.044721 0.862152 0.201161
v 0.075538 0.865388 0.200059
v 0.038957 0.826715 0.209086
v 0.087822 0.819099 0.210165
v 0.079569 0.917670 0.188423
v -0.004764 0.787089 0.218413
v -0.051532 0.696659 0.239036
v -0.024410 0.706693 0.236475
v 0.014343 0.673721 0.243298
v 0.017364 0.691947 0.239222
v 0.033179 0.790329 0.217222
v 0.068620 0.775652 0.220032
v 0.062262 0.693184 0.238388
v 0.082288 0.675802 0.241990
v 0.088529 0.817286 0.202218
v 0.089406 0.818497 0.207911
v -0.012347 0.833008 0.199992
v -0.013058 0.834467 0.205650
v 0.038857 0.824951 0.201131
vn 0.5020 -0.4096 0.7617
vn -0.6336 -0.2333 0.7376
vn 0.5910 -0.7582 0.2753
vn -0.8043 -0.5409 0.2459
vn -0.1892 0.9302 0.3145
vn 0.4494 0.8307 0.3287
vn -0.2721 0.9001 -0.3402
vn 0.5476 0.7724 -0.3219
vn 0.9273 0.0275 -0.3732
vn 0.3783 0.5598 0.7372
vn -0.8580 0.3058 -0.4126
vn -0.2215 0.6533 0.7239
vn -0.7226 -0.4579 0.5178
vn -0.3112 0.0985 0.9452
vn 0.5261 -0.6526 0.5454
vn 0.2854 0.0055 0.9584
vn -0.9494 -0.2484 -0.1922
vn 0.8362 -0.5267 -0.1528
vn 0.2872 0.0053 0.9579
vn -0.3130 0.0988 0.9446
vn -0.2196 0.6536 0.7243
vn -0.5051 0.8631 -0.0072
vn 0.3766 0.5607 0.7375
vn 0.7435 0.6685 0.0203
vn -0.9758 -0.1878 0.1123
vn -0.5621 0.1762 0.8081
vn -0.7662 0.1823 0.6162
vn -0.9969 -0.0509 0.0596
vn 0.9349 -0.3411 0.0977
vn 0.7604 -0.0460 0.6479
vn 0.8733 -0.4640 0.1486
vn 0.5604 0.0065 0.8282
vn 0.9385 0.3083 -0.1552
vn 0.7266 0.4719 0.4993
vn -0.7928 0.5780 -0.1935
vn -0.5696 0.6739 0.4705
vn -0.6412 0.0767 0.7635
vn 0.6006 -0.1168 0.7909
vn 0.6929 0.4438 0.5683
vn -0.5489 0.6373 0.5409
vn -0.5868 0.7416 0.3251
vn -0.7777 -0.3609 0.5147
vn -0.2597 0.0484 -0.9645
vn -0.3662 -0.4051 -0.8377
vn 0.2601 -0.5023 -0.8247
vn 0.6094 -0.5749 0.5459
vn 0.3059 -0.0390 -0.9513
vn 0.7735 0.5267 0.3525
vn -0.6725 0.6916 0.2634
vn -0.8273 -0.3476 0.4414
vn -0.2953 0.0729 -0.9526
vn -0.3949 -0.4121 -0.8211
vn 0.2835 -0.5176 -0.8073
vn 0.6628 -0.5788 0.4751
vn 0.3473 -0.0266 -0.9374
vn 0.8422 0.4523 0.2935
vn 0.0806 0.3946 -0.9153
vn 0.1516 0.9857 0.0739
vn -0.0961 -0.7302 -0.6764
vn -0.1415 -0.8593 0.4915
vn 0.6288 0.2540 -0.7349
vn 0.1010 0.5160 -0.8506
vn 0.7944 0.6005 0.0918
vn 0.1564 0.9876 0.0169
vn -0.4854 0.4319 -0.7602
vn -0.5728 0.8175 0.0604
vn -0.6647 -0.4736 -0.5778
vn -0.1129 -0.8216 -0.5588
vn -0.8507 -0.3731 0.3703
vn -0.1442 -0.8818 0.4490
vn 0.5126 -0.6577 -0.5519
vn 0.6797 -0.6121 0.4041
vn 0.0773 0.3776 -0.9228
vn 0.1514 0.9872 0.0505
vn -0.0963 -0.7271 -0.6797
vn -0.1443 -0.8719 0.4679
vn -0.3790 0.5713 0.7280
vn 0.0894 0.6657 0.7408
vn 0.5043 0.4311 0.7482
vn -0.0462 -0.1562 0.9866
vn 0.1694 0.0281 0.9851
vn 0.1893 0.3007 0.9347
vn -0.4338 0.3161 0.8437
vn 0.0697 0.5620 0.8242
vn -0.1287 0.3505 0.9277
vn 0.0122 0.2163 0.9762
vn 0.4725 0.1736 0.8640
vn -0.1956 0.0838 0.9771
vn 0.1392 0.0671 0.9880
vn -0.3827 0.0018 0.9239
vn 0.1465 0.2822 0.9481
vn -0.0614 -0.2665 0.9619
vn 0.0682 0.5525 0.8307
vn -0.0425 -0.1351 0.9899
vn -0.1547 0.1119 0.9816
vn -0.0941 0.3199 0.9428
vn 0.3256 -0.1076 0.9394
vn 0.6473 -0.1866 -0.7391
vn 0.9744 0.0143 0.2244
vn -0.6408 0.0146 -0.7676
vn -0.9322 0.3129 0.1819
vn -0.0122 -0.2163 -0.9762
vt 0.930435 1.137609
vt 0.910682 1.137609
vt 0.931555 1.136557
vt 0.909745 1.136557
vt 0.914087 1.185605
vt 0.927274 1.185605
vt 0.913700 1.186223
vt 0.927645 1.186239
vt 0.563461 1.142031
vt 0.583744 1.142031
vt 0.563461 1.146322
vt 0.583741 1.146314
vt 0.571394 1.152809
vt 0.583744 1.152809
vt 0.570600 1.159067
vt 0.583738 1.159067
vt 0.542551 1.146322
vt 0.542551 1.142031
vt 0.523114 1.142031
vt 0.523101 1.146314
vt 0.523114 1.152809
vt 0.535424 1.152809
vt 0.523088 1.159067
vt 0.534633 1.159067
vt 0.909771 1.144949
vt 0.910639 1.145320
vt 0.903412 1.156549
vt 0.902419 1.156549
vt 0.938821 1.156548
vt 0.937953 1.156548
vt 0.931508 1.144207
vt 0.930454 1.144333
vt 0.934712 1.175165
vt 0.933587 1.174256
vt 0.906635 1.175143
vt 0.907766 1.174256
vt 0.560686 1.152809
vt 0.560686 1.159067
vt 0.545326 1.159067
vt 0.545326 1.152809
vt 0.583744 1.163934
vt 0.563461 1.163934
vt 0.542551 1.163934
vt 0.523114 1.163934
vt 0.915540 1.149549
vt 0.915540 1.142541
vt 0.925693 1.142541
vt 0.925693 1.149549
vt 0.915546 1.172699
vt 0.925687 1.172699
vt 0.925687 1.179683
vt 0.915546 1.179683
vt 0.183824 0.075974
vt 0.183660 0.383101
vt 0.191616 0.065902
vt 0.190720 0.393188
vt 0.058267 0.382778
vt 0.053849 0.382778
vt 0.059164 0.063208
vt 0.054745 0.063208
vt 0.184121 0.730803
vt 0.185709 0.921785
vt 0.190734 0.721167
vt 0.192527 0.931704
vt 0.051161 0.931704
vt 0.060187 0.922350
vt 0.049369 0.721167
vt 0.058368 0.730917
vt 0.120941 0.065902
vt 0.120941 0.075987
vt 0.050278 0.065902
vt 0.061933 0.076245
vt 0.049382 0.393188
vt 0.115563 0.432627
vt 0.058327 0.383089
vt 0.115563 0.422527
vt 0.235238 0.994435
vt 0.121723 0.994435
vt 0.235103 0.988085
vt 0.121656 0.988085
vt 0.008208 0.994435
vt 0.008208 0.988085
vt 0.007930 0.014262
vt 0.119628 0.014262
vt 0.006141 0.004473
vt 0.119669 0.004459
vt 0.231327 0.014262
vt 0.233183 0.004459
vt 0.117356 0.693381
vt 0.117356 0.703030
vt 0.121837 0.931704
vt 0.121837 0.922055
vt 0.011772 0.981732
vt 0.121723 0.981732
vt 0.231687 0.981732
vt 0.192182 0.921857
vt 0.123905 0.928468
vt 0.123905 0.921857
vt 0.055628 0.921857
vt 0.050831 0.928468
vt 0.053836 0.717917
vt 0.049038 0.711308
vt 0.011772 0.558858
vt 0.119423 0.690131
vt 0.119423 0.683521
vt 0.190390 0.717917
vt 0.195201 0.711308
vt 0.121723 0.558858
vt 0.231687 0.558858
vt 0.196994 0.928468
vt 0.049038 0.390494
vt 0.011772 0.011169
vt 0.049935 0.055489
vt 0.121723 0.011169
vt 0.123008 0.055489
vt 0.117630 0.429933
vt 0.117630 0.422216
vt 0.190376 0.382778
vt 0.195201 0.390494
vt 0.196097 0.055489
vt 0.191272 0.063208
vt 0.123008 0.063208
vt 0.231687 0.011169
vt 0.235238 0.004251
vt 0.121723 0.004251
vt 0.008208 0.004251
vt 0.231394 0.565687
vt 0.237372 0.565970
vt 0.231394 0.991460
vt 0.003885 0.988085
vt 0.003885 0.559424
vt 0.008208 0.559424
vt 0.003885 0.004251
vt 0.119669 0.565404
vt 0.007930 0.565687
vt 0.119669 0.991460
vt 0.007930 0.991460
s 1
usemtl Material.005
f 1/1/1 2/2/2 3/3/3
f 2/2/2 4/4/4 3/3/3
f 5/5/5 6/6/6 7/7/7
f 6/6/6 8/8/8 7/7/7
f 9/9/9 10/10/10 11/11/11
f 10/10/10 12/12/12 11/11/11
f 13/13/13 14/14/14 15/15/15
f 14/14/14 16/16/16 15/15/15
f 11/11/11 17/17/17 9/9/9
f 17/17/17 18/18/18 9/9/9
f 19/19/19 18/18/18 20/20/20
f 18/18/18 17/17/17 20/20/20
f 21/21/21 22/22/22 23/23/23
f 22/22/22 24/24/24 23/23/23
f 4/4/4 2/2/2 25/25/25
f 2/2/2 26/26/26 25/25/25
f 26/26/26 27/27/27 25/25/25
f 25/25/25 27/27/27 28/28/28
f 29/29/29 30/30/30 31/31/31
f 30/30/30 32/32/32 31/31/31
f 32/32/32 1/1/1 31/31/31
f 31/31/31 1/1/1 3/3/3
f 29/29/29 33/33/33 30/30/30
f 30/30/30 33/33/33 34/34/34
f 33/33/33 8/8/8 34/34/34
f 34/34/34 8/8/8 6/6/6
f 7/7/7 35/35/35 5/5/5
f 5/5/5 35/35/35 36/36/36
f 35/35/35 28/28/28 36/36/36
f 36/36/36 28/28/28 27/27/27
f 13/13/13 15/15/15 37/37/37
f 15/15/15 38/38/38 37/37/37
f 38/38/38 39/39/39 37/37/37
f 37/37/37 39/39/39 40/40/40
f 40/40/40 39/39/39 22/22/22
f 39/39/39 24/24/24 22/22/22
f 12/12/12 14/14/14 11/11/11
f 14/14/14 13/13/13 11/11/11
f 13/13/13 37/37/37 11/11/11
f 11/11/11 37/37/37 17/17/17
f 37/37/37 40/40/40 17/17/17
f 40/40/40 22/22/22 17/17/17
f 17/17/17 22/22/22 20/20/20
f 22/22/22 21/21/21 20/20/20
f 16/16/16 10/41/10 15/15/15
f 10/41/10 9/42/9 15/15/15
f 15/15/15 9/42/9 38/38/38
f 38/38/38 9/42/9 39/39/39
f 9/42/9 18/43/18 39/39/39
f 39/39/39 18/43/18 24/24/24
f 24/24/24 18/43/18 23/23/23
f 18/43/18 19/44/19 23/23/23
f 36/36/36 27/27/27 12/45/12
f 27/27/27 26/26/26 12/45/12
f 12/45/12 26/26/26 14/46/14
f 26/26/26 2/2/2 14/46/14
f 14/46/14 2/2/2 1/1/1
f 16/47/16 14/46/14 1/1/1
f 1/1/1 32/32/32 16/47/16
f 16/47/16 32/32/32 10/48/10
f 32/32/32 30/30/30 10/48/10
f 10/48/10 30/30/30 34/34/34
f 20/49/20 10/48/10 19/50/19
f 10/48/10 34/34/34 19/50/19
f 19/50/19 34/34/34 23/51/23
f 34/34/34 6/6/6 23/51/23
f 6/6/6 5/5/5 23/51/23
f 23/51/23 5/5/5 21/52/21
f 5/5/5 36/36/36 21/52/21
f 21/52/21 36/36/36 20/49/20
f 36/36/36 12/45/12 20/49/20
f 20/49/20 12/45/12 10/48/10
f 41/53/41 42/54/42 43/55/43
f 42/54/42 44/56/44 43/55/43
f 45/57/45 46/58/46 47/59/47
f 46/58/46 48/60/48 47/59/47
f 49/61/49 50/62/50 51/63/51
f 50/62/50 52/64/52 51/63/51
f 53/65/53 54/66/54 55/67/55
f 54/66/54 56/68/56 55/67/55
f 43/55/43 57/69/57 41/53/41
f 41/53/41 57/69/57 58/70/58
f 57/69/57 47/71/47 58/70/58
f 58/70/58 47/71/47 48/72/48
f 45/73/45 59/74/59 46/75/46
f 46/75/46 59/74/59 60/76/60
f 59/74/59 44/56/44 60/76/60
f 60/76/60 44/56/44 42/54/42
f 61/77/61 62/78/62 63/79/63
f 63/79/63 62/78/62 64/80/64
f 62/78/62 65/81/65 64/80/64
f 64/80/64 65/81/65 66/82/66
f 67/83/67 68/84/68 69/85/69
f 69/85/69 68/84/68 70/86/70
f 68/84/68 71/87/71 70/86/70
f 70/86/70 71/87/71 72/88/72
f 51/63/51 73/89/73 49/61/49
f 49/61/49 73/89/73 74/90/74
f 73/89/73 55/67/55 74/90/74
f 74/90/74 55/67/55 56/68/56
f 53/65/53 75/91/75 54/66/54
f 54/66/54 75/91/75 76/92/76
f 75/91/75 52/64/52 76/92/76
f 76/92/76 52/64/52 50/62/50
f 66/82/66 77/93/77 64/80/64
f 77/93/77 78/94/78 64/80/64
f 78/94/78 79/95/79 64/80/64
f 64/80/64 79/95/79 63/79/63
f 50/96/50 80/97/80 76/98/76
f 76/98/76 80/97/80 54/99/54
f 80/97/80 81/100/81 54/99/54
f 54/99/54 81/100/81 56/101/56
f 56/101/56 81/100/81 82/102/82
f 82/102/82 81/100/81 83/103/83
f 83/103/83 81/100/81 77/93/77
f 77/93/77 81/100/81 78/94/78
f 81/100/81 80/97/80 78/94/78
f 74/104/74 84/105/84 49/106/49
f 49/106/49 84/105/84 85/107/85
f 84/105/84 86/108/86 85/107/85
f 86/108/86 87/109/87 85/107/85
f 87/109/87 79/95/79 85/107/85
f 85/107/85 79/95/79 88/110/88
f 79/95/79 78/94/78 88/110/88
f 78/94/78 80/97/80 88/110/88
f 80/97/80 50/96/50 88/110/88
f 88/110/88 50/96/50 85/107/85
f 50/96/50 49/106/49 85/107/85
f 74/104/74 56/101/56 84/105/84
f 56/101/56 82/102/82 84/105/84
f 84/105/84 82/102/82 86/108/86
f 82/102/82 83/103/83 86/108/86
f 86/108/86 83/103/83 89/111/89
f 83/103/83 90/112/90 89/111/89
f 89/111/89 90/112/90 91/113/91
f 90/112/90 92/114/92 91/113/91
f 92/114/92 93/115/93 91/113/91
f 93/115/93 48/60/48 91/113/91
f 91/113/91 48/60/48 89/111/89
f 48/60/48 46/58/46 89/111/89
f 89/111/89 46/58/46 94/116/94
f 46/58/46 60/117/60 94/116/94
f 60/117/60 42/118/42 94/116/94
f 94/116/94 42/118/42 95/119/95
f 95/119/95 42/118/42 96/120/96
f 42/118/42 41/121/41 96/120/96
f 96/120/96 41/121/41 93/115/93
f 41/121/41 58/122/58 93/115/93
f 93/115/93 58/122/58 48/60/48
f 93/115/93 92/114/92 96/120/96
f 92/114/92 97/123/97 96/120/96
f 96/120/96 97/123/97 95/119/95
f 97/123/97 87/109/87 95/119/95
f 87/109/87 86/108/86 95/119/95
f 95/119/95 86/108/86 94/116/94
f 86/108/86 89/111/89 94/116/94
f 72/124/72 97/123/97 70/125/70
f 97/123/97 92/114/92 70/125/70
f 92/114/92 90/112/90 70/125/70
f 70/125/70 90/112/90 69/126/69
f 71/87/71 98/127/98 72/124/72
f 98/127/98 99/128/99 72/124/72
f 72/124/72 99/128/99 97/123/97
f 97/123/97 99/128/99 87/109/87
f 87/109/87 99/128/99 79/95/79
f 79/95/79 99/128/99 63/79/63
f 99/128/99 98/127/98 63/79/63
f 63/79/63 98/127/98 61/129/61
f 65/130/65 100/131/100 101/132/101
f 100/131/100 67/133/67 101/132/101
f 67/133/67 69/126/69 101/132/101
f 69/126/69 90/112/90 101/132/101
f 90/112/90 83/103/83 101/132/101
f 83/103/83 77/93/77 101/132/101
f 77/93/77 66/82/66 101/132/101
f 101/132/101 66/82/66 65/130/65
f 44/56/44 59/74/59 102/134/102
f 59/74/59 45/73/45 102/134/102
f 102/134/102 45/73/45 100/135/100
f 100/135/100 45/73/45 67/83/67
f 45/73/45 47/71/47 67/83/67
f 67/83/67 47/71/47 68/84/68
f 47/71/47 57/69/57 68/84/68
f 57/69/57 43/55/43 68/84/68
f 68/84/68 43/55/43 71/87/71
f 43/55/43 44/56/44 71/87/71
f 71/87/71 44/56/44 98/127/98
f 44/56/44 102/134/102 98/127/98
f 102/134/102 51/63/51 98/127/98
f 98/127/98 51/63/51 61/129/61
f 51/63/51 52/64/52 61/129/61
f 61/129/61 52/64/52 62/136/62
f 52/64/52 75/91/75 62/136/62
f 75/91/75 53/65/53 62/136/62
f 62/136/62 53/65/53 65/137/65
f 65/137/65 53/65/53 100/135/100
f 53/65/53 55/67/55 100/135/100
f 100/135/100 55/67/55 102/134/102
f 55/67/55 73/89/73 102/134/102
f 102/134/102 73/89/73 51/63/51
o eyes.001
v -0.184363 1.740822 0.324319
v -0.165174 1.707220 0.347102
v -0.165593 1.750163 0.334081
v -0.146176 1.747832 0.346457
v -0.131312 1.734452 0.358130
v -0.124980 1.713606 0.365972
v -0.128875 1.690882 0.367884
v -0.141953 1.672368 0.363355
v -0.160714 1.663026 0.353600
v -0.180141 1.665361 0.341228
v -0.195020 1.678744 0.329554
v -0.201354 1.699589 0.321706
v -0.197453 1.722311 0.319789
v -0.194391 1.764174 0.301114
v -0.217071 1.732113 0.293266
v -0.223831 1.692759 0.296589
v -0.212854 1.656656 0.310186
v -0.187062 1.633471 0.330412
v -0.153405 1.629423 0.351835
v -0.120916 1.645604 0.368725
v -0.098283 1.677675 0.376568
v -0.091544 1.717038 0.373261
v -0.102511 1.753143 0.359681
v -0.128253 1.776319 0.339463
v -0.161877 1.780354 0.318025
v -0.192571 1.771021 0.283708
v -0.155020 1.789702 0.303238
v -0.116210 1.785046 0.327990
v -0.086493 1.758287 0.351336
v -0.073828 1.716595 0.367015
v -0.081593 1.671139 0.370832
v -0.107725 1.634105 0.361776
v -0.145273 1.615430 0.342272
v -0.184136 1.620103 0.317537
v -0.213901 1.646872 0.294186
v -0.226581 1.688561 0.278481
v -0.218772 1.734001 0.274644
v -0.179424 1.759533 0.276760
v -0.146904 1.775712 0.293673
v -0.113294 1.771679 0.315109
v -0.087566 1.748508 0.335327
v -0.076576 1.712397 0.348909
v -0.083274 1.673025 0.352217
v -0.105938 1.640960 0.344374
v -0.138452 1.624786 0.327482
v -0.172124 1.628835 0.306055
v -0.197882 1.652015 0.285836
v -0.208863 1.688118 0.272237
v -0.202108 1.727472 0.268912
v -0.444254 1.609910 -0.127651
v -0.443576 1.616799 -0.083331
v -0.443896 1.632907 -0.125213
v -0.442420 1.651583 -0.111659
v -0.440219 1.660933 -0.090616
v -0.437887 1.658452 -0.067735
v -0.436041 1.644805 -0.049133
v -0.435179 1.623648 -0.039802
v -0.435531 1.600651 -0.042236
v -0.437005 1.581976 -0.055787
v -0.439207 1.572628 -0.076823
v -0.441547 1.575109 -0.099712
v -0.443394 1.588755 -0.118318
v -0.436409 1.644660 -0.156663
v -0.437030 1.604829 -0.160887
v -0.435543 1.568187 -0.144719
v -0.432339 1.544551 -0.112487
v -0.428279 1.540254 -0.072835
v -0.424466 1.556446 -0.036406
v -0.421919 1.588791 -0.012944
v -0.421312 1.628623 -0.008727
v -0.422807 1.665269 -0.024890
v -0.425989 1.688908 -0.057089
v -0.430027 1.693205 -0.096720
v -0.433842 1.677009 -0.133169
v -0.420155 1.686263 -0.142120
v -0.415750 1.704965 -0.100033
v -0.411088 1.700002 -0.054271
v -0.407418 1.672706 -0.017096
v -0.405691 1.630391 0.001566
v -0.406390 1.584396 -0.003302
v -0.409325 1.547048 -0.030385
v -0.413738 1.528352 -0.072461
v -0.418422 1.533315 -0.118238
v -0.422123 1.560606 -0.155459
v -0.423841 1.602916 -0.174133
v -0.423122 1.648909 -0.169254
v -0.401216 1.693060 -0.099671
v -0.397179 1.688762 -0.060040
v -0.394000 1.665123 -0.027845
v -0.392502 1.628478 -0.011678
v -0.393104 1.588646 -0.015890
v -0.395666 1.556299 -0.039370
v -0.399469 1.540109 -0.075787
v -0.403521 1.544408 -0.115424
v -0.406730 1.568043 -0.147664
v -0.408222 1.604683 -0.163842
v -0.407600 1.644514 -0.159618
v -0.405031 1.676864 -0.136120
vn -0.6071 0.3216 0.7267
vn -0.5168 0.1595 0.8411
vn -0.5160 0.3670 0.7740
vn -0.4220 0.3557 0.8339
vn -0.3500 0.2909 0.8904
vn -0.3195 0.1900 0.9284
vn -0.3384 0.0798 0.9376
vn -0.4019 -0.0101 0.9156
vn -0.4929 -0.0556 0.8683
vn -0.5870 -0.0444 0.8084
vn -0.6590 0.0204 0.7519
vn -0.6896 0.1215 0.7139
vn -0.6706 0.2317 0.7047
vn -0.6967 0.5819 0.4195
vn -0.8705 0.3361 0.3596
vn -0.9223 0.0348 0.3849
vn -0.8385 -0.2410 0.4887
vn -0.6418 -0.4176 0.6432
vn -0.3850 -0.4481 0.8068
vn -0.1364 -0.3240 0.9362
vn 0.0371 -0.0785 0.9962
vn 0.0892 0.2223 0.9709
vn 0.0058 0.4980 0.8671
vn -0.1908 0.6750 0.7127
vn -0.4478 0.7059 0.5488
vn -0.4730 0.7653 -0.4366
vn -0.0525 0.9745 -0.2181
vn 0.3814 0.9225 0.0588
vn 0.7134 0.6237 0.3195
vn 0.8544 0.1586 0.4949
vn 0.7669 -0.3495 0.5383
vn 0.4737 -0.7651 0.4362
vn 0.0530 -0.9746 0.2177
vn -0.3812 -0.9226 -0.0587
vn -0.7130 -0.6241 -0.3194
vn -0.8544 -0.1584 -0.4949
vn -0.7667 0.3504 -0.5379
vn -0.0350 0.4876 -0.8724
vn 0.2890 0.6489 -0.7039
vn 0.6234 0.6088 -0.4907
vn 0.8788 0.3788 -0.2902
vn 0.9877 0.0212 -0.1546
vn 0.9209 -0.3705 -0.1209
vn 0.6942 -0.6912 -0.2010
vn 0.3698 -0.8527 -0.3689
vn 0.0349 -0.8127 -0.5816
vn -0.2205 -0.5829 -0.7820
vn -0.3289 -0.2243 -0.9173
vn -0.2613 0.1678 -0.9506
vn -0.9931 -0.0290 -0.1133
vn -0.9948 0.0045 0.1020
vn -0.9914 0.0826 -0.1015
vn -0.9842 0.1733 -0.0358
vn -0.9735 0.2187 0.0663
vn -0.9622 0.2067 0.1772
vn -0.9533 0.1404 0.2673
vn -0.9492 0.0379 0.3125
vn -0.9509 -0.0737 0.3007
vn -0.9580 -0.1643 0.2349
vn -0.9687 -0.2097 0.1329
vn -0.9800 -0.1977 0.0221
vn -0.9890 -0.1316 -0.0681
vn -0.8571 0.2173 -0.4672
vn -0.8618 -0.0878 -0.4996
vn -0.8504 -0.3681 -0.3760
vn -0.8259 -0.5486 -0.1298
vn -0.7951 -0.5812 0.1732
vn -0.7660 -0.4572 0.4519
vn -0.7465 -0.2095 0.6316
vn -0.7416 0.0952 0.6640
vn -0.7530 0.3753 0.5406
vn -0.7772 0.5561 0.2944
vn -0.8081 0.5890 -0.0087
vn -0.8373 0.4650 -0.2875
vn -0.0600 0.7788 -0.6243
vn -0.0107 0.9881 -0.1534
vn 0.0414 0.9326 0.3586
vn 0.0824 0.6275 0.7743
vn 0.1014 0.1546 0.9828
vn 0.0934 -0.3602 0.9282
vn 0.0609 -0.7785 0.6247
vn 0.0110 -0.9881 0.1535
vn -0.0411 -0.9327 -0.3582
vn -0.0824 -0.6278 -0.7740
vn -0.1016 -0.1545 -0.9828
vn -0.0934 0.3606 -0.9280
vn 0.6257 0.7583 -0.1832
vn 0.6659 0.7155 0.2114
vn 0.6975 0.4806 0.5316
vn 0.7121 0.1165 0.6923
vn 0.7059 -0.2805 0.6504
vn 0.6813 -0.6025 0.4158
vn 0.6425 -0.7645 0.0530
vn 0.6020 -0.7219 -0.3412
vn 0.5703 -0.4870 -0.6615
vn 0.5557 -0.1223 -0.8224
vn 0.5621 0.2747 -0.7801
vn 0.5877 0.5970 -0.5461
vt 0.329240 0.370404
vt 0.372424 0.301460
vt 0.369360 0.381721
vt 0.409972 0.371421
vt 0.440209 0.342257
vt 0.451962 0.302047
vt 0.442088 0.261557
vt 0.413219 0.231647
vt 0.373108 0.220321
vt 0.332496 0.230622
vt 0.302259 0.259785
vt 0.290506 0.300004
vt 0.300381 0.340484
vt 0.293877 0.420001
vt 0.243883 0.368193
vt 0.226776 0.298065
vt 0.247139 0.228410
vt 0.299512 0.177900
vt 0.369860 0.160063
vt 0.439340 0.179673
vt 0.489326 0.231480
vt 0.506441 0.301600
vt 0.486078 0.371255
vt 0.433705 0.421765
vt 0.363357 0.439611
vt 0.278175 0.436960
vt 0.358407 0.459606
vt 0.439639 0.439005
vt 0.500113 0.380678
vt 0.523618 0.300259
vt 0.503861 0.219276
vt 0.446134 0.159458
vt 0.365911 0.136812
vt 0.284679 0.157413
vt 0.224204 0.215740
vt 0.200691 0.296161
vt 0.220448 0.377142
vt 0.255153 0.466020
vt 0.353123 0.493666
vt 0.452313 0.468511
vt 0.526155 0.397287
vt 0.554865 0.299082
vt 0.530737 0.200202
vt 0.460256 0.127152
vt 0.362286 0.099498
vt 0.263096 0.124661
vt 0.189254 0.195877
vt 0.160544 0.294090
vt 0.184664 0.392962
vt 0.563244 0.662850
vt 0.677813 0.662019
vt 0.579482 0.720086
vt 0.622166 0.761601
vt 0.679859 0.776269
vt 0.737093 0.760150
vt 0.778524 0.717570
vt 0.793075 0.659936
vt 0.776825 0.602699
vt 0.734140 0.561185
vt 0.676460 0.546528
vt 0.619225 0.562635
vt 0.577782 0.605215
vt 0.508193 0.761366
vt 0.480048 0.662217
vt 0.505241 0.562400
vt 0.577025 0.488659
vt 0.676150 0.460734
vt 0.776056 0.486129
vt 0.849999 0.558035
vt 0.878132 0.657184
vt 0.852939 0.757001
vt 0.781167 0.830754
vt 0.682042 0.858666
vt 0.582124 0.833271
vt 0.568405 0.857811
vt 0.683779 0.887136
vt 0.798235 0.854896
vt 0.881109 0.769734
vt 0.910210 0.654480
vt 0.877711 0.539995
vt 0.792343 0.456965
vt 0.676969 0.427642
vt 0.562513 0.459879
vt 0.479625 0.545040
vt 0.450537 0.660296
vt 0.483037 0.774783
vt 0.685776 0.933622
vt 0.824557 0.894537
vt 0.925046 0.791299
vt 0.960312 0.651542
vt 0.920915 0.512739
vt 0.817412 0.412080
vt 0.677527 0.376529
vt 0.538757 0.415613
vt 0.438269 0.518852
vt 0.403003 0.658608
vt 0.442387 0.797412
vt 0.545903 0.898071
s 1
usemtl Material.003
f 103/138/103 104/139/104 105/140/105
f 105/140/105 104/139/104 106/141/106
f 106/141/106 104/139/104 107/142/107
f 107/142/107 104/139/104 108/143/108
f 108/143/108 104/139/104 109/144/109
f 109/144/109 104/139/104 110/145/110
f 110/145/110 104/139/104 111/146/111
f 111/146/111 104/139/104 112/147/112
f 112/147/112 104/139/104 113/148/113
f 113/148/113 104/139/104 114/149/114
f 114/149/114 104/139/104 115/150/115
f 104/139/104 103/138/103 115/150/115
f 116/151/116 103/138/103 105/140/105
f 117/152/117 103/138/103 116/151/116
f 103/138/103 117/152/117 115/150/115
f 117/152/117 118/153/118 115/150/115
f 115/150/115 118/153/118 114/149/114
f 118/153/118 119/154/119 114/149/114
f 114/149/114 119/154/119 113/148/113
f 119/154/119 120/155/120 113/148/113
f 113/148/113 120/155/120 112/147/112
f 120/155/120 121/156/121 112/147/112
f 112/147/112 121/156/121 111/146/111
f 121/156/121 122/157/122 111/146/111
f 111/146/111 122/157/122 110/145/110
f 122/157/122 123/158/123 110/145/110
f 110/145/110 123/158/123 109/144/109
f 123/158/123 124/159/124 109/144/109
f 109/144/109 124/159/124 108/143/108
f 124/159/124 125/160/125 108/143/108
f 108/143/108 125/160/125 107/142/107
f 125/160/125 126/161/126 107/142/107
f 107/142/107 126/161/126 106/141/106
f 126/161/126 127/162/127 106/141/106
f 106/141/106 127/162/127 105/140/105
f 127/162/127 116/151/116 105/140/105
f 128/163/128 127/162/127 129/164/129
f 127/162/127 126/161/126 129/164/129
f 129/164/129 126/161/126 130/165/130
f 126/161/126 125/160/125 130/165/130
f 130/165/130 125/160/125 131/166/131
f 125/160/125 124/159/124 131/166/131
f 131/166/131 124/159/124 132/167/132
f 124/159/124 123/158/123 132/167/132
f 132/167/132 123/158/123 133/168/133
f 123/158/123 122/157/122 133/168/133
f 133/168/133 122/157/122 134/169/134
f 122/157/122 121/156/121 134/169/134
f 134/169/134 121/156/121 135/170/135
f 121/156/121 120/155/120 135/170/135
f 135/170/135 120/155/120 136/171/136
f 120/155/120 119/154/119 136/171/136
f 136/171/136 119/154/119 137/172/137
f 119/154/119 118/153/118 137/172/137
f 137/172/137 118/153/118 138/173/138
f 118/153/118 117/152/117 138/173/138
f 138/173/138 117/152/117 139/174/139
f 117/152/117 116/151/116 139/174/139
f 139/174/139 116/151/116 128/163/128
f 116/151/116 127/162/127 128/163/128
f 140/175/140 129/164/129 141/176/141
f 129/164/129 130/165/130 141/176/141
f 141/176/141 130/165/130 142/177/142
f 130/165/130 131/166/131 142/177/142
f 142/177/142 131/166/131 143/178/143
f 131/166/131 132/167/132 143/178/143
f 143/178/143 132/167/132 144/179/144
f 132/167/132 133/168/133 144/179/144
f 144/179/144 133/168/133 145/180/145
f 133/168/133 134/169/134 145/180/145
f 145/180/145 134/169/134 146/181/146
f 134/169/134 135/170/135 146/181/146
f 146/181/146 135/170/135 147/182/147
f 135/170/135 136/171/136 147/182/147
f 147/182/147 136/171/136 148/183/148
f 136/171/136 137/172/137 148/183/148
f 148/183/148 137/172/137 149/184/149
f 137/172/137 138/173/138 149/184/149
f 149/184/149 138/173/138 150/185/150
f 138/173/138 139/174/139 150/185/150
f 150/185/150 139/174/139 151/186/151
f 139/174/139 128/163/128 151/186/151
f 151/186/151 128/163/128 140/175/140
f 128/163/128 129/164/129 140/175/140
f 152/187/152 153/188/153 154/189/154
f 154/189/154 153/188/153 155/190/155
f 155/190/155 153/188/153 156/191/156
f 156/191/156 153/188/153 157/192/157
f 157/192/157 153/188/153 158/193/158
f 158/193/158 153/188/153 159/194/159
f 159/194/159 153/188/153 160/195/160
f 160/195/160 153/188/153 161/196/161
f 161/196/161 153/188/153 162/197/162
f 162/197/162 153/188/153 163/198/163
f 163/198/163 153/188/153 164/199/164
f 153/188/153 152/187/152 164/199/164
f 154/189/154 165/200/165 152/187/152
f 165/200/165 166/201/166 152/187/152
f 152/187/152 166/201/166 164/199/164
f 166/201/166 167/202/167 164/199/164
f 164/199/164 167/202/167 163/198/163
f 167/202/167 168/203/168 163/198/163
f 163/198/163 168/203/168 162/197/162
f 168/203/168 169/204/169 162/197/162
f 162/197/162 169/204/169 161/196/161
f 169/204/169 170/205/170 161/196/161
f 161/196/161 170/205/170 160/195/160
f 170/205/170 171/206/171 160/195/160
f 160/195/160 171/206/171 159/194/159
f 171/206/171 172/207/172 159/194/159
f 159/194/159 172/207/172 158/193/158
f 172/207/172 173/208/173 158/193/158
f 158/193/158 173/208/173 157/192/157
f 173/208/173 174/209/174 157/192/157
f 157/192/157 174/209/174 156/191/156
f 174/209/174 175/210/175 156/191/156
f 156/191/156 175/210/175 155/190/155
f 175/210/175 176/211/176 155/190/155
f 155/190/155 176/211/176 154/189/154
f 176/211/176 165/200/165 154/189/154
f 177/212/177 176/211/176 178/213/178
f 176/211/176 175/210/175 178/213/178
f 178/213/178 175/210/175 179/214/179
f 175/210/175 174/209/174 179/214/179
f 179/214/179 174/209/174 180/215/180
f 174/209/174 173/208/173 180/215/180
f 180/215/180 173/208/173 181/216/181
f 173/208/173 172/207/172 181/216/181
f 181/216/181 172/207/172 182/217/182
f 172/207/172 171/206/171 182/217/182
f 182/217/182 171/206/171 183/218/183
f 171/206/171 170/205/170 183/218/183
f 183/218/183 170/205/170 184/219/184
f 170/205/170 169/204/169 184/219/184
f 184/219/184 169/204/169 185/220/185
f 169/204/169 168/203/168 185/220/185
f 185/220/185 168/203/168 186/221/186
f 168/203/168 167/202/167 186/221/186
f 186/221/186 167/202/167 187/222/187
f 167/202/167 166/201/166 187/222/187
f 187/222/187 166/201/166 188/223/188
f 166/201/166 165/200/165 188/223/188
f 188/223/188 165/200/165 177/212/177
f 165/200/165 176/211/176 177/212/177
f 189/224/189 178/213/178 190/225/190
f 178/213/178 179/214/179 190/225/190
f 190/225/190 179/214/179 191/226/191
f 179/214/179 180/215/180 191/226/191
f 191/226/191 180/215/180 192/227/192
f 180/215/180 181/216/181 192/227/192
f 192/227/192 181/216/181 193/228/193
f 181/216/181 182/217/182 193/228/193
f 193/228/193 182/217/182 194/229/194
f 182/217/182 183/218/183 194/229/194
f 194/229/194 183/218/183 195/230/195
f 183/218/183 184/219/184 195/230/195
f 195/230/195 184/219/184 196/231/196
f 184/219/184 185/220/185 196/231/196
f 196/231/196 185/220/185 197/232/197
f 185/220/185 186/221/186 197/232/197
f 197/232/197 186/221/186 198/233/198
f 186/221/186 187/222/187 198/233/198
f 198/233/198 187/222/187 199/234/199
f 187/222/187 188/223/188 199/234/199
f 199/234/199 188/223/188 200/235/200
f 188/223/188 177/212/177 200/235/200
f 200/235/200 177/212/177 189/224/189
f 177/212/177 178/213/178 189/224/189
