# Blender 4.2.3 LTS
# www.blender.org
mtllib doll_chair2seat_2.mtl
o zip.001
v 0.037766 0.893554 0.165667
v -0.038725 0.893554 0.165667
v 0.037782 0.891075 0.160130
v -0.038753 0.891076 0.160130
v -0.025537 1.015129 0.111102
v 0.025523 1.015128 0.111102
v -0.025549 1.012695 0.105667
v 0.025538 1.012695 0.105667
v 0.016833 0.936197 0.184077
v 0.016833 0.921981 0.152937
v -0.017336 0.936197 0.184077
v -0.017336 0.921982 0.152937
v -0.017336 0.923460 0.193958
v -0.017336 0.907900 0.159257
v 0.016833 0.923460 0.193958
v 0.016833 0.907900 0.159257
v -0.017336 0.998051 0.156379
v 0.016833 0.998050 0.156379
v 0.016833 0.984237 0.124995
v -0.017336 0.984237 0.124995
v -0.017336 0.998318 0.118675
v -0.017336 1.013909 0.153455
v 0.016833 0.998318 0.118675
v 0.016833 1.013909 0.153455
v -0.038890 0.910615 0.151379
v -0.038888 0.913090 0.156899
v -0.066874 0.941530 0.144135
v -0.066880 0.939069 0.138638
v 0.066882 0.939066 0.138639
v 0.066878 0.941527 0.144136
v 0.037844 0.908106 0.152503
v 0.037840 0.910584 0.158024
v 0.051863 0.985084 0.118032
v 0.051852 0.987528 0.123490
v -0.051882 0.985085 0.118031
v -0.051873 0.987529 0.123490
v -0.017336 0.941066 0.201095
v 0.016833 0.941066 0.201095
v 0.016833 1.007511 0.171340
v -0.017336 1.007512 0.171340
v 0.040622 0.711540 0.227309
v 0.034559 0.789080 0.206284
v 0.042145 0.709022 0.221951
v 0.035706 0.788545 0.200388
v -0.036286 0.788546 0.200388
v -0.035137 0.789081 0.206284
v -0.042549 0.709022 0.221951
v -0.041028 0.711540 0.227309
v 0.027343 0.881453 0.181238
v 0.023567 0.929729 0.168148
v 0.028389 0.879077 0.175840
v 0.024341 0.929052 0.162290
v -0.025232 0.929052 0.162290
v -0.024457 0.929729 0.168148
v -0.029170 0.879078 0.175840
v -0.028125 0.881453 0.181238
v -0.000474 0.700980 0.224131
v -0.000475 0.703498 0.229489
v -0.000478 0.797485 0.197964
v -0.000478 0.798020 0.203860
v 0.036060 0.944411 0.158125
v -0.000486 0.951639 0.156165
v 0.036551 0.946754 0.163531
v -0.000486 0.953982 0.161572
v -0.038439 0.944411 0.158125
v -0.038928 0.946754 0.163532
v -0.070474 0.693214 0.226237
v -0.000564 0.680839 0.229592
v -0.071685 0.693851 0.232105
v -0.000564 0.681476 0.235461
v 0.067415 0.693214 0.226237
v 0.068625 0.693850 0.232105
v -0.000485 0.871225 0.177969
v -0.000485 0.873601 0.183367
v -0.000435 0.936279 0.160330
v -0.000435 0.936957 0.166188
v -0.037950 0.945726 0.166204
v -0.000486 0.952954 0.164244
v 0.035568 0.945726 0.166204
v -0.000435 0.939260 0.167957
v -0.026008 0.932032 0.169917
v -0.030215 0.880360 0.183928
v -0.051592 0.837023 0.195679
v -0.000485 0.872508 0.186057
v 0.029436 0.880359 0.183928
v -0.000550 0.837023 0.195679
v 0.048917 0.837022 0.195679
v 0.025115 0.932032 0.169917
v -0.037435 0.791669 0.207976
v -0.069262 0.696234 0.233853
v -0.044070 0.710162 0.230076
v -0.000564 0.683860 0.237208
v -0.000474 0.702120 0.232257
v -0.000478 0.800608 0.205552
v 0.036853 0.791669 0.207976
v 0.043669 0.710162 0.230076
v 0.066206 0.696234 0.233853
v 0.049721 0.834964 0.187801
v 0.050526 0.836564 0.193409
v -0.052396 0.834964 0.187802
v -0.053200 0.836564 0.193409
v -0.000550 0.834889 0.187814
vn 0.5755 -0.2915 0.7640
vn -0.5739 -0.2922 0.7650
vn 0.7065 -0.6451 0.2909
vn -0.7059 -0.6451 0.2923
vn -0.3232 0.9042 0.2791
vn 0.3232 0.9042 0.2792
vn -0.4148 0.8308 -0.3711
vn 0.4150 0.8308 -0.3709
vn 0.9037 0.1512 -0.4006
vn 0.3036 0.6454 0.7009
vn -0.9037 0.1512 -0.4006
vn -0.3036 0.6454 0.7009
vn -0.6320 -0.5379 0.5579
vn -0.3020 0.0945 0.9486
vn 0.6320 -0.5379 0.5578
vn 0.3020 0.0945 0.9486
vn -0.9038 -0.3994 -0.1538
vn 0.9038 -0.3994 -0.1538
vn 0.3038 0.0946 0.9480
vn -0.3038 0.0945 0.9480
vn -0.3018 0.6459 0.7012
vn -0.6319 0.7744 -0.0302
vn 0.3017 0.6459 0.7012
vn 0.6320 0.7744 -0.0302
vn -0.9325 -0.3292 0.1484
vn -0.5647 0.1263 0.8156
vn -0.7715 0.0921 0.6295
vn -0.9757 -0.1998 0.0905
vn 0.9782 -0.1893 0.0855
vn 0.7723 0.1015 0.6271
vn 0.9374 -0.3175 0.1434
vn 0.5707 0.1313 0.8106
vn 0.8763 0.4404 -0.1955
vn 0.6560 0.6005 0.4571
vn -0.8763 0.4403 -0.1955
vn -0.6562 0.6004 0.4570
vn -0.6286 0.0140 0.7776
vn 0.6286 0.0140 0.7776
vn 0.6286 0.5709 0.5282
vn -0.6286 0.5709 0.5282
vn -0.6867 0.6578 0.3093
vn -0.7015 -0.4507 0.5521
vn -0.2850 -0.0376 -0.9578
vn -0.3176 -0.4956 -0.8084
vn 0.3163 -0.4952 -0.8092
vn 0.7024 -0.4485 0.5526
vn 0.2874 -0.0368 -0.9571
vn 0.6907 0.6549 0.3068
vn -0.7651 0.5924 0.2523
vn -0.7541 -0.4486 0.4797
vn -0.3237 -0.0183 -0.9460
vn -0.3446 -0.5061 -0.7907
vn 0.3421 -0.5059 -0.7918
vn 0.7542 -0.4475 0.4805
vn 0.3267 -0.0176 -0.9450
vn 0.7687 0.5891 0.2491
vn -0.0011 0.3585 -0.9335
vn -0.0004 0.9996 0.0265
vn 0.0027 -0.7676 -0.6410
vn 0.0033 -0.8466 0.5323
vn 0.5660 0.3119 -0.7631
vn 0.0018 0.4845 -0.8748
vn 0.6942 0.7185 0.0426
vn 0.0028 0.9995 -0.0306
vn -0.5626 0.3161 -0.7639
vn -0.6904 0.7223 0.0413
vn -0.5963 -0.5964 -0.5373
vn 0.0028 -0.8548 -0.5190
vn -0.7748 -0.4807 0.4106
vn 0.0031 -0.8712 0.4909
vn 0.5956 -0.5971 -0.5373
vn 0.7745 -0.4812 0.4106
vn -0.0019 0.3408 -0.9401
vn -0.0013 1.0000 0.0032
vn 0.0020 -0.7647 -0.6444
vn 0.0019 -0.8606 0.5093
vn -0.4465 0.5405 0.7131
vn 0.0020 0.7059 0.7083
vn 0.4481 0.5381 0.7139
vn -0.0000 -0.1145 0.9934
vn 0.1845 0.1003 0.9777
vn 0.1611 0.3701 0.9149
vn -0.4588 0.2857 0.8413
vn 0.0003 0.6045 0.7966
vn -0.1609 0.3703 0.9149
vn -0.0000 0.2617 0.9652
vn 0.4589 0.2846 0.8417
vn -0.1848 0.0991 0.9778
vn 0.1487 0.1344 0.9797
vn -0.3581 -0.0129 0.9336
vn 0.1219 0.3459 0.9303
vn 0.0013 -0.2268 0.9739
vn 0.0004 0.5952 0.8036
vn 0.0004 -0.0930 0.9957
vn -0.1487 0.1334 0.9798
vn -0.1217 0.3461 0.9303
vn 0.3587 -0.0120 0.9334
vn 0.6520 -0.1203 -0.7486
vn 0.9652 0.1737 0.1954
vn -0.6520 -0.1199 -0.7487
vn -0.9651 0.1751 0.1949
vn -0.0000 -0.2617 -0.9652
vt 0.930435 1.137609
vt 0.910682 1.137609
vt 0.931555 1.136557
vt 0.909745 1.136557
vt 0.914087 1.185605
vt 0.927274 1.185605
vt 0.913700 1.186223
vt 0.927645 1.186239
vt 0.563461 1.142031
vt 0.583744 1.142031
vt 0.563461 1.146322
vt 0.583741 1.146314
vt 0.571394 1.152809
vt 0.583744 1.152809
vt 0.570600 1.159067
vt 0.583738 1.159067
vt 0.542551 1.146322
vt 0.542551 1.142031
vt 0.523114 1.142031
vt 0.523101 1.146314
vt 0.523114 1.152809
vt 0.535424 1.152809
vt 0.523088 1.159067
vt 0.534633 1.159067
vt 0.909771 1.144949
vt 0.910639 1.145320
vt 0.903412 1.156549
vt 0.902419 1.156549
vt 0.938821 1.156548
vt 0.937953 1.156548
vt 0.931508 1.144207
vt 0.930454 1.144333
vt 0.934712 1.175165
vt 0.933587 1.174256
vt 0.906635 1.175143
vt 0.907766 1.174256
vt 0.560686 1.152809
vt 0.560686 1.159067
vt 0.545326 1.159067
vt 0.545326 1.152809
vt 0.583744 1.163934
vt 0.563461 1.163934
vt 0.542551 1.163934
vt 0.523114 1.163934
vt 0.915540 1.149549
vt 0.915540 1.142541
vt 0.925693 1.142541
vt 0.925693 1.149549
vt 0.915546 1.172699
vt 0.925687 1.172699
vt 0.925687 1.179683
vt 0.915546 1.179683
vt 0.183824 0.075974
vt 0.183660 0.383101
vt 0.191616 0.065902
vt 0.190720 0.393188
vt 0.058267 0.382778
vt 0.053849 0.382778
vt 0.059164 0.063208
vt 0.054745 0.063208
vt 0.184121 0.730803
vt 0.185709 0.921785
vt 0.190734 0.721167
vt 0.192527 0.931704
vt 0.051161 0.931704
vt 0.060187 0.922350
vt 0.049369 0.721167
vt 0.058368 0.730917
vt 0.120941 0.065902
vt 0.120941 0.075987
vt 0.050278 0.065902
vt 0.061933 0.076245
vt 0.049382 0.393188
vt 0.115563 0.432627
vt 0.058327 0.383089
vt 0.115563 0.422527
vt 0.235238 0.994435
vt 0.121723 0.994435
vt 0.235103 0.988085
vt 0.121656 0.988085
vt 0.008208 0.994435
vt 0.008208 0.988085
vt 0.007930 0.014262
vt 0.119628 0.014262
vt 0.006141 0.004473
vt 0.119669 0.004459
vt 0.231327 0.014262
vt 0.233183 0.004459
vt 0.117356 0.693381
vt 0.117356 0.703030
vt 0.121837 0.931704
vt 0.121837 0.922055
vt 0.011772 0.981732
vt 0.121723 0.981732
vt 0.231687 0.981732
vt 0.192182 0.921857
vt 0.123905 0.928468
vt 0.123905 0.921857
vt 0.055628 0.921857
vt 0.050831 0.928468
vt 0.053836 0.717917
vt 0.049038 0.711308
vt 0.011772 0.558858
vt 0.119423 0.690131
vt 0.119423 0.683521
vt 0.190390 0.717917
vt 0.195201 0.711308
vt 0.121723 0.558858
vt 0.231687 0.558858
vt 0.196994 0.928468
vt 0.049038 0.390494
vt 0.011772 0.011169
vt 0.049935 0.055489
vt 0.121723 0.011169
vt 0.123008 0.055489
vt 0.117630 0.429933
vt 0.117630 0.422216
vt 0.190376 0.382778
vt 0.195201 0.390494
vt 0.196097 0.055489
vt 0.191272 0.063208
vt 0.123008 0.063208
vt 0.231687 0.011169
vt 0.235238 0.004251
vt 0.121723 0.004251
vt 0.008208 0.004251
vt 0.231394 0.565687
vt 0.237372 0.565970
vt 0.231394 0.991460
vt 0.003885 0.988085
vt 0.003885 0.559424
vt 0.008208 0.559424
vt 0.003885 0.004251
vt 0.119669 0.565404
vt 0.007930 0.565687
vt 0.119669 0.991460
vt 0.007930 0.991460
s 1
usemtl Material.005
f 1/1/1 2/2/2 3/3/3
f 2/2/2 4/4/4 3/3/3
f 5/5/5 6/6/6 7/7/7
f 6/6/6 8/8/8 7/7/7
f 9/9/9 10/10/10 11/11/11
f 10/10/10 12/12/12 11/11/11
f 13/13/13 14/14/14 15/15/15
f 14/14/14 16/16/16 15/15/15
f 11/11/11 17/17/17 9/9/9
f 17/17/17 18/18/18 9/9/9
f 19/19/19 18/18/18 20/20/20
f 18/18/18 17/17/17 20/20/20
f 21/21/21 22/22/22 23/23/23
f 22/22/22 24/24/24 23/23/23
f 4/4/4 2/2/2 25/25/25
f 2/2/2 26/26/26 25/25/25
f 26/26/26 27/27/27 25/25/25
f 25/25/25 27/27/27 28/28/28
f 29/29/29 30/30/30 31/31/31
f 30/30/30 32/32/32 31/31/31
f 32/32/32 1/1/1 31/31/31
f 31/31/31 1/1/1 3/3/3
f 29/29/29 33/33/33 30/30/30
f 30/30/30 33/33/33 34/34/34
f 33/33/33 8/8/8 34/34/34
f 34/34/34 8/8/8 6/6/6
f 7/7/7 35/35/35 5/5/5
f 5/5/5 35/35/35 36/36/36
f 35/35/35 28/28/28 36/36/36
f 36/36/36 28/28/28 27/27/27
f 13/13/13 15/15/15 37/37/37
f 15/15/15 38/38/38 37/37/37
f 38/38/38 39/39/39 37/37/37
f 37/37/37 39/39/39 40/40/40
f 40/40/40 39/39/39 22/22/22
f 39/39/39 24/24/24 22/22/22
f 12/12/12 14/14/14 11/11/11
f 14/14/14 13/13/13 11/11/11
f 13/13/13 37/37/37 11/11/11
f 11/11/11 37/37/37 17/17/17
f 37/37/37 40/40/40 17/17/17
f 40/40/40 22/22/22 17/17/17
f 17/17/17 22/22/22 20/20/20
f 22/22/22 21/21/21 20/20/20
f 16/16/16 10/41/10 15/15/15
f 10/41/10 9/42/9 15/15/15
f 15/15/15 9/42/9 38/38/38
f 38/38/38 9/42/9 39/39/39
f 9/42/9 18/43/18 39/39/39
f 39/39/39 18/43/18 24/24/24
f 24/24/24 18/43/18 23/23/23
f 18/43/18 19/44/19 23/23/23
f 36/36/36 27/27/27 12/45/12
f 27/27/27 26/26/26 12/45/12
f 12/45/12 26/26/26 14/46/14
f 26/26/26 2/2/2 14/46/14
f 14/46/14 2/2/2 1/1/1
f 16/47/16 14/46/14 1/1/1
f 1/1/1 32/32/32 16/47/16
f 16/47/16 32/32/32 10/48/10
f 32/32/32 30/30/30 10/48/10
f 10/48/10 30/30/30 34/34/34
f 20/49/20 10/48/10 19/50/19
f 10/48/10 34/34/34 19/50/19
f 19/50/19 34/34/34 23/51/23
f 34/34/34 6/6/6 23/51/23
f 6/6/6 5/5/5 23/51/23
f 23/51/23 5/5/5 21/52/21
f 5/5/5 36/36/36 21/52/21
f 21/52/21 36/36/36 20/49/20
f 36/36/36 12/45/12 20/49/20
f 20/49/20 12/45/12 10/48/10
f 41/53/41 42/54/42 43/55/43
f 42/54/42 44/56/44 43/55/43
f 45/57/45 46/58/46 47/59/47
f 46/58/46 48/60/48 47/59/47
f 49/61/49 50/62/50 51/63/51
f 50/62/50 52/64/52 51/63/51
f 53/65/53 54/66/54 55/67/55
f 54/66/54 56/68/56 55/67/55
f 43/55/43 57/69/57 41/53/41
f 41/53/41 57/69/57 58/70/58
f 57/69/57 47/71/47 58/70/58
f 58/70/58 47/71/47 48/72/48
f 45/73/45 59/74/59 46/75/46
f 46/75/46 59/74/59 60/76/60
f 59/74/59 44/56/44 60/76/60
f 60/76/60 44/56/44 42/54/42
f 61/77/61 62/78/62 63/79/63
f 63/79/63 62/78/62 64/80/64
f 62/78/62 65/81/65 64/80/64
f 64/80/64 65/81/65 66/82/66
f 67/83/67 68/84/68 69/85/69
f 69/85/69 68/84/68 70/86/70
f 68/84/68 71/87/71 70/86/70
f 70/86/70 71/87/71 72/88/72
f 51/63/51 73/89/73 49/61/49
f 49/61/49 73/89/73 74/90/74
f 73/89/73 55/67/55 74/90/74
f 74/90/74 55/67/55 56/68/56
f 53/65/53 75/91/75 54/66/54
f 54/66/54 75/91/75 76/92/76
f 75/91/75 52/64/52 76/92/76
f 76/92/76 52/64/52 50/62/50
f 66/82/66 77/93/77 64/80/64
f 77/93/77 78/94/78 64/80/64
f 78/94/78 79/95/79 64/80/64
f 64/80/64 79/95/79 63/79/63
f 50/96/50 80/97/80 76/98/76
f 76/98/76 80/97/80 54/99/54
f 80/97/80 81/100/81 54/99/54
f 54/99/54 81/100/81 56/101/56
f 56/101/56 81/100/81 82/102/82
f 82/102/82 81/100/81 83/103/83
f 83/103/83 81/100/81 77/93/77
f 77/93/77 81/100/81 78/94/78
f 81/100/81 80/97/80 78/94/78
f 74/104/74 84/105/84 49/106/49
f 49/106/49 84/105/84 85/107/85
f 84/105/84 86/108/86 85/107/85
f 86/108/86 87/109/87 85/107/85
f 87/109/87 79/95/79 85/107/85
f 85/107/85 79/95/79 88/110/88
f 79/95/79 78/94/78 88/110/88
f 78/94/78 80/97/80 88/110/88
f 80/97/80 50/96/50 88/110/88
f 88/110/88 50/96/50 85/107/85
f 50/96/50 49/106/49 85/107/85
f 74/104/74 56/101/56 84/105/84
f 56/101/56 82/102/82 84/105/84
f 84/105/84 82/102/82 86/108/86
f 82/102/82 83/103/83 86/108/86
f 86/108/86 83/103/83 89/111/89
f 83/103/83 90/112/90 89/111/89
f 89/111/89 90/112/90 91/113/91
f 90/112/90 92/114/92 91/113/91
f 92/114/92 93/115/93 91/113/91
f 93/115/93 48/60/48 91/113/91
f 91/113/91 48/60/48 89/111/89
f 48/60/48 46/58/46 89/111/89
f 89/111/89 46/58/46 94/116/94
f 46/58/46 60/117/60 94/116/94
f 60/117/60 42/118/42 94/116/94
f 94/116/94 42/118/42 95/119/95
f 95/119/95 42/118/42 96/120/96
f 42/118/42 41/121/41 96/120/96
f 96/120/96 41/121/41 93/115/93
f 41/121/41 58/122/58 93/115/93
f 93/115/93 58/122/58 48/60/48
f 93/115/93 92/114/92 96/120/96
f 92/114/92 97/123/97 96/120/96
f 96/120/96 97/123/97 95/119/95
f 97/123/97 87/109/87 95/119/95
f 87/109/87 86/108/86 95/119/95
f 95/119/95 86/108/86 94/116/94
f 86/108/86 89/111/89 94/116/94
f 72/124/72 97/123/97 70/125/70
f 97/123/97 92/114/92 70/125/70
f 92/114/92 90/112/90 70/125/70
f 70/125/70 90/112/90 69/126/69
f 71/87/71 98/127/98 72/124/72
f 98/127/98 99/128/99 72/124/72
f 72/124/72 99/128/99 97/123/97
f 97/123/97 99/128/99 87/109/87
f 87/109/87 99/128/99 79/95/79
f 79/95/79 99/128/99 63/79/63
f 99/128/99 98/127/98 63/79/63
f 63/79/63 98/127/98 61/129/61
f 65/130/65 100/131/100 101/132/101
f 100/131/100 67/133/67 101/132/101
f 67/133/67 69/126/69 101/132/101
f 69/126/69 90/112/90 101/132/101
f 90/112/90 83/103/83 101/132/101
f 83/103/83 77/93/77 101/132/101
f 77/93/77 66/82/66 101/132/101
f 101/132/101 66/82/66 65/130/65
f 44/56/44 59/74/59 102/134/102
f 59/74/59 45/73/45 102/134/102
f 102/134/102 45/73/45 100/135/100
f 100/135/100 45/73/45 67/83/67
f 45/73/45 47/71/47 67/83/67
f 67/83/67 47/71/47 68/84/68
f 47/71/47 57/69/57 68/84/68
f 57/69/57 43/55/43 68/84/68
f 68/84/68 43/55/43 71/87/71
f 43/55/43 44/56/44 71/87/71
f 71/87/71 44/56/44 98/127/98
f 44/56/44 102/134/102 98/127/98
f 102/134/102 51/63/51 98/127/98
f 98/127/98 51/63/51 61/129/61
f 51/63/51 52/64/52 61/129/61
f 61/129/61 52/64/52 62/136/62
f 52/64/52 75/91/75 62/136/62
f 75/91/75 53/65/53 62/136/62
f 62/136/62 53/65/53 65/137/65
f 65/137/65 53/65/53 100/135/100
f 53/65/53 55/67/55 100/135/100
f 100/135/100 55/67/55 102/134/102
f 55/67/55 73/89/73 102/134/102
f 102/134/102 73/89/73 51/63/51
o eyes.001
v 0.236808 1.780276 0.269771
v 0.260026 1.742023 0.273031
v 0.256546 1.784298 0.258394
v 0.276752 1.776740 0.250045
v 0.292012 1.759628 0.246959
v 0.298236 1.737545 0.249964
v 0.293758 1.716409 0.258256
v 0.279777 1.701882 0.269612
v 0.260040 1.697859 0.280989
v 0.239834 1.705418 0.289338
v 0.224574 1.722533 0.292422
v 0.218349 1.744617 0.289416
v 0.222827 1.765752 0.281125
v 0.216345 1.806394 0.260702
v 0.192129 1.781239 0.280368
v 0.184373 1.744631 0.294729
v 0.195154 1.706380 0.299935
v 0.221585 1.676732 0.294597
v 0.256582 1.663639 0.280137
v 0.290769 1.670610 0.260431
v 0.314985 1.695773 0.240759
v 0.322741 1.732382 0.226397
v 0.311960 1.770629 0.221191
v 0.285529 1.800269 0.226535
v 0.250532 1.813359 0.240998
v 0.204119 1.813378 0.248257
v 0.243594 1.821419 0.225507
v 0.284006 1.806306 0.208802
v 0.314525 1.772082 0.202630
v 0.326975 1.727919 0.208642
v 0.318018 1.685644 0.225230
v 0.290056 1.656588 0.247945
v 0.250581 1.648543 0.270694
v 0.210169 1.663661 0.287391
v 0.179650 1.697892 0.293558
v 0.167201 1.742062 0.287545
v 0.176157 1.784332 0.270963
v 0.203406 1.799361 0.235763
v 0.237593 1.806325 0.216061
v 0.272590 1.793237 0.201594
v 0.299021 1.763599 0.196247
v 0.309802 1.725349 0.201459
v 0.302046 1.688735 0.215830
v 0.277830 1.663576 0.235496
v 0.243643 1.656609 0.255199
v 0.208646 1.669704 0.269655
v 0.182216 1.699347 0.274999
v 0.171434 1.737598 0.269791
v 0.179190 1.774206 0.255428
v -0.298683 1.737557 0.249946
v -0.260473 1.742035 0.273014
v -0.292458 1.759637 0.246945
v -0.277198 1.776748 0.250033
v -0.256993 1.784305 0.258385
v -0.237255 1.780284 0.269760
v -0.223274 1.765761 0.281113
v -0.218796 1.744628 0.289401
v -0.225021 1.722547 0.292403
v -0.240281 1.705436 0.289315
v -0.260486 1.697879 0.280963
v -0.280224 1.701901 0.269587
v -0.294205 1.716425 0.258233
v -0.312406 1.770638 0.221178
v -0.323188 1.732395 0.226376
v -0.315432 1.695792 0.240731
v -0.291216 1.670636 0.260396
v -0.257029 1.663667 0.280103
v -0.222032 1.676756 0.294567
v -0.195601 1.706396 0.299915
v -0.184820 1.744641 0.294715
v -0.192576 1.781245 0.280360
v -0.216791 1.806396 0.260700
v -0.250978 1.813360 0.240998
v -0.285975 1.800272 0.226531
v -0.284452 1.806308 0.208802
v -0.244041 1.821420 0.225506
v -0.204565 1.813379 0.248256
v -0.176603 1.784338 0.270956
v -0.167647 1.742072 0.287532
v -0.180097 1.697910 0.293537
v -0.210616 1.663683 0.287363
v -0.251028 1.648571 0.270659
v -0.290503 1.656616 0.247906
v -0.318465 1.685665 0.225197
v -0.327421 1.727931 0.208622
v -0.314972 1.772089 0.202619
v -0.238039 1.806326 0.216060
v -0.203853 1.799362 0.235762
v -0.179637 1.774211 0.255421
v -0.171881 1.737607 0.269777
v -0.182662 1.699361 0.274979
v -0.209093 1.669725 0.269627
v -0.244090 1.656633 0.255166
v -0.278277 1.663600 0.235462
v -0.302493 1.688758 0.215795
v -0.310249 1.725362 0.201438
v -0.299467 1.763604 0.196240
v -0.273037 1.793238 0.201594
vn 0.3320 0.4272 0.8410
vn 0.4467 0.2431 0.8610
vn 0.4276 0.4467 0.7859
vn 0.5256 0.4101 0.7454
vn 0.5996 0.3271 0.7304
vn 0.6297 0.2202 0.7450
vn 0.6080 0.1178 0.7851
vn 0.5403 0.0475 0.8401
vn 0.4446 0.0281 0.8953
vn 0.3467 0.0647 0.9358
vn 0.2727 0.1476 0.9507
vn 0.2425 0.2545 0.9362
vn 0.2642 0.3569 0.8960
vn 0.0754 0.7149 0.6952
vn -0.1098 0.5226 0.8455
vn -0.1691 0.2428 0.9552
vn -0.0867 -0.0495 0.9950
vn 0.1154 -0.2761 0.9542
vn 0.3832 -0.3763 0.8435
vn 0.6448 -0.3229 0.6928
vn 0.8299 -0.1307 0.5424
vn 0.8892 0.1490 0.4326
vn 0.8067 0.4414 0.3929
vn 0.6046 0.6680 0.4338
vn 0.3369 0.7681 0.5445
vn -0.4808 0.8768 0.0021
vn -0.0391 0.9668 -0.2524
vn 0.4131 0.7977 -0.4394
vn 0.7546 0.4148 -0.5084
vn 0.8938 -0.0793 -0.4414
vn 0.7936 -0.5519 -0.2560
vn 0.4809 -0.8768 -0.0020
vn 0.0390 -0.9668 0.2525
vn -0.4132 -0.7976 0.4394
vn -0.7546 -0.4147 0.5085
vn -0.8938 0.0792 0.4414
vn -0.7936 0.5519 0.2560
vn -0.6552 0.5209 -0.5471
vn -0.3148 0.5903 -0.7432
vn 0.0337 0.4599 -0.8873
vn 0.2970 0.1648 -0.9405
vn 0.4041 -0.2161 -0.8888
vn 0.3267 -0.5802 -0.7460
vn 0.0858 -0.8304 -0.5505
vn -0.2547 -0.8998 -0.3544
vn -0.6032 -0.7694 -0.2103
vn -0.8662 -0.4744 -0.1569
vn -0.9735 -0.0938 -0.2085
vn -0.8963 0.2705 -0.3513
vn -0.6298 0.2201 0.7450
vn -0.4468 0.2430 0.8610
vn -0.5996 0.3271 0.7304
vn -0.5256 0.4100 0.7454
vn -0.4277 0.4466 0.7859
vn -0.3320 0.4271 0.8410
vn -0.2642 0.3568 0.8960
vn -0.2425 0.2544 0.9362
vn -0.2727 0.1474 0.9507
vn -0.3467 0.0645 0.9358
vn -0.4447 0.0279 0.8953
vn -0.5403 0.0473 0.8401
vn -0.6081 0.1177 0.7851
vn -0.8067 0.4414 0.3929
vn -0.8892 0.1490 0.4326
vn -0.8299 -0.1309 0.5424
vn -0.6448 -0.3231 0.6927
vn -0.3833 -0.3764 0.8434
vn -0.1156 -0.2763 0.9541
vn 0.0866 -0.0496 0.9950
vn 0.1691 0.2427 0.9552
vn 0.1097 0.5225 0.8455
vn -0.0755 0.7148 0.6952
vn -0.3369 0.7681 0.5445
vn -0.6046 0.6680 0.4339
vn -0.4131 0.7977 -0.4393
vn 0.0391 0.9668 -0.2524
vn 0.4808 0.8769 0.0021
vn 0.7936 0.5519 0.2560
vn 0.8938 0.0792 0.4414
vn 0.7546 -0.4148 0.5085
vn 0.4131 -0.7977 0.4394
vn -0.0391 -0.9668 0.2525
vn -0.4808 -0.8768 -0.0021
vn -0.7936 -0.5519 -0.2561
vn -0.8938 -0.0792 -0.4414
vn -0.7545 0.4149 -0.5085
vn 0.3148 0.5903 -0.7433
vn 0.6552 0.5210 -0.5471
vn 0.8963 0.2705 -0.3514
vn 0.9735 -0.0938 -0.2085
vn 0.8662 -0.4745 -0.1569
vn 0.6031 -0.7694 -0.2103
vn 0.2546 -0.8998 -0.3543
vn -0.0858 -0.8305 -0.5504
vn -0.3268 -0.5802 -0.7460
vn -0.4041 -0.2159 -0.8889
vn -0.2968 0.1649 -0.9406
vn -0.0336 0.4600 -0.8873
vt 0.329240 0.370404
vt 0.372424 0.301460
vt 0.369360 0.381721
vt 0.409972 0.371421
vt 0.440209 0.342257
vt 0.451962 0.302047
vt 0.442088 0.261557
vt 0.413219 0.231647
vt 0.373108 0.220321
vt 0.332496 0.230622
vt 0.302259 0.259785
vt 0.290506 0.300004
vt 0.300381 0.340484
vt 0.293877 0.420001
vt 0.243883 0.368193
vt 0.226776 0.298065
vt 0.247139 0.228410
vt 0.299512 0.177900
vt 0.369860 0.160063
vt 0.439340 0.179673
vt 0.489326 0.231480
vt 0.506441 0.301600
vt 0.486078 0.371255
vt 0.433705 0.421765
vt 0.363357 0.439611
vt 0.278175 0.436960
vt 0.358407 0.459606
vt 0.439639 0.439005
vt 0.500113 0.380678
vt 0.523618 0.300259
vt 0.503861 0.219276
vt 0.446134 0.159458
vt 0.365911 0.136812
vt 0.284679 0.157413
vt 0.224204 0.215740
vt 0.200691 0.296161
vt 0.220448 0.377142
vt 0.255153 0.466020
vt 0.353123 0.493666
vt 0.452313 0.468511
vt 0.526155 0.397287
vt 0.554865 0.299082
vt 0.530737 0.200202
vt 0.460256 0.127152
vt 0.362286 0.099498
vt 0.263096 0.124661
vt 0.189254 0.195877
vt 0.160544 0.294090
vt 0.184664 0.392962
vt 0.563244 0.662850
vt 0.677813 0.662019
vt 0.579482 0.720086
vt 0.622166 0.761601
vt 0.679859 0.776269
vt 0.737093 0.760150
vt 0.778524 0.717570
vt 0.793075 0.659936
vt 0.776825 0.602699
vt 0.734140 0.561185
vt 0.676460 0.546528
vt 0.619225 0.562635
vt 0.577782 0.605215
vt 0.508193 0.761366
vt 0.480048 0.662217
vt 0.505241 0.562400
vt 0.577025 0.488659
vt 0.676150 0.460734
vt 0.776056 0.486129
vt 0.849999 0.558035
vt 0.878132 0.657184
vt 0.852939 0.757001
vt 0.781167 0.830754
vt 0.682042 0.858666
vt 0.582124 0.833271
vt 0.568405 0.857811
vt 0.683779 0.887136
vt 0.798235 0.854896
vt 0.881109 0.769734
vt 0.910210 0.654480
vt 0.877711 0.539995
vt 0.792343 0.456965
vt 0.676969 0.427642
vt 0.562513 0.459879
vt 0.479625 0.545040
vt 0.450537 0.660296
vt 0.483037 0.774783
vt 0.685776 0.933622
vt 0.824557 0.894537
vt 0.925046 0.791299
vt 0.960312 0.651542
vt 0.920915 0.512739
vt 0.817412 0.412080
vt 0.677527 0.376529
vt 0.538757 0.415613
vt 0.438269 0.518852
vt 0.403003 0.658608
vt 0.442387 0.797412
vt 0.545903 0.898071
s 1
usemtl Material.003
f 103/138/103 104/139/104 105/140/105
f 105/140/105 104/139/104 106/141/106
f 106/141/106 104/139/104 107/142/107
f 107/142/107 104/139/104 108/143/108
f 108/143/108 104/139/104 109/144/109
f 109/144/109 104/139/104 110/145/110
f 110/145/110 104/139/104 111/146/111
f 111/146/111 104/139/104 112/147/112
f 112/147/112 104/139/104 113/148/113
f 113/148/113 104/139/104 114/149/114
f 114/149/114 104/139/104 115/150/115
f 104/139/104 103/138/103 115/150/115
f 116/151/116 103/138/103 105/140/105
f 117/152/117 103/138/103 116/151/116
f 103/138/103 117/152/117 115/150/115
f 117/152/117 118/153/118 115/150/115
f 115/150/115 118/153/118 114/149/114
f 118/153/118 119/154/119 114/149/114
f 114/149/114 119/154/119 113/148/113
f 119/154/119 120/155/120 113/148/113
f 113/148/113 120/155/120 112/147/112
f 120/155/120 121/156/121 112/147/112
f 112/147/112 121/156/121 111/146/111
f 121/156/121 122/157/122 111/146/111
f 111/146/111 122/157/122 110/145/110
f 122/157/122 123/158/123 110/145/110
f 110/145/110 123/158/123 109/144/109
f 123/158/123 124/159/124 109/144/109
f 109/144/109 124/159/124 108/143/108
f 124/159/124 125/160/125 108/143/108
f 108/143/108 125/160/125 107/142/107
f 125/160/125 126/161/126 107/142/107
f 107/142/107 126/161/126 106/141/106
f 126/161/126 127/162/127 106/141/106
f 106/141/106 127/162/127 105/140/105
f 127/162/127 116/151/116 105/140/105
f 128/163/128 127/162/127 129/164/129
f 127/162/127 126/161/126 129/164/129
f 129/164/129 126/161/126 130/165/130
f 126/161/126 125/160/125 130/165/130
f 130/165/130 125/160/125 131/166/131
f 125/160/125 124/159/124 131/166/131
f 131/166/131 124/159/124 132/167/132
f 124/159/124 123/158/123 132/167/132
f 132/167/132 123/158/123 133/168/133
f 123/158/123 122/157/122 133/168/133
f 133/168/133 122/157/122 134/169/134
f 122/157/122 121/156/121 134/169/134
f 134/169/134 121/156/121 135/170/135
f 121/156/121 120/155/120 135/170/135
f 135/170/135 120/155/120 136/171/136
f 120/155/120 119/154/119 136/171/136
f 136/171/136 119/154/119 137/172/137
f 119/154/119 118/153/118 137/172/137
f 137/172/137 118/153/118 138/173/138
f 118/153/118 117/152/117 138/173/138
f 138/173/138 117/152/117 139/174/139
f 117/152/117 116/151/116 139/174/139
f 139/174/139 116/151/116 128/163/128
f 116/151/116 127/162/127 128/163/128
f 140/175/140 129/164/129 141/176/141
f 129/164/129 130/165/130 141/176/141
f 141/176/141 130/165/130 142/177/142
f 130/165/130 131/166/131 142/177/142
f 142/177/142 131/166/131 143/178/143
f 131/166/131 132/167/132 143/178/143
f 143/178/143 132/167/132 144/179/144
f 132/167/132 133/168/133 144/179/144
f 144/179/144 133/168/133 145/180/145
f 133/168/133 134/169/134 145/180/145
f 145/180/145 134/169/134 146/181/146
f 134/169/134 135/170/135 146/181/146
f 146/181/146 135/170/135 147/182/147
f 135/170/135 136/171/136 147/182/147
f 147/182/147 136/171/136 148/183/148
f 136/171/136 137/172/137 148/183/148
f 148/183/148 137/172/137 149/184/149
f 137/172/137 138/173/138 149/184/149
f 149/184/149 138/173/138 150/185/150
f 138/173/138 139/174/139 150/185/150
f 150/185/150 139/174/139 151/186/151
f 139/174/139 128/163/128 151/186/151
f 151/186/151 128/163/128 140/175/140
f 128/163/128 129/164/129 140/175/140
f 152/187/152 153/188/153 154/189/154
f 154/189/154 153/188/153 155/190/155
f 155/190/155 153/188/153 156/191/156
f 156/191/156 153/188/153 157/192/157
f 157/192/157 153/188/153 158/193/158
f 158/193/158 153/188/153 159/194/159
f 159/194/159 153/188/153 160/195/160
f 160/195/160 153/188/153 161/196/161
f 161/196/161 153/188/153 162/197/162
f 162/197/162 153/188/153 163/198/163
f 163/198/163 153/188/153 164/199/164
f 153/188/153 152/187/152 164/199/164
f 154/189/154 165/200/165 152/187/152
f 165/200/165 166/201/166 152/187/152
f 152/187/152 166/201/166 164/199/164
f 166/201/166 167/202/167 164/199/164
f 164/199/164 167/202/167 163/198/163
f 167/202/167 168/203/168 163/198/163
f 163/198/163 168/203/168 162/197/162
f 168/203/168 169/204/169 162/197/162
f 162/197/162 169/204/169 161/196/161
f 169/204/169 170/205/170 161/196/161
f 161/196/161 170/205/170 160/195/160
f 170/205/170 171/206/171 160/195/160
f 160/195/160 171/206/171 159/194/159
f 171/206/171 172/207/172 159/194/159
f 159/194/159 172/207/172 158/193/158
f 172/207/172 173/208/173 158/193/158
f 158/193/158 173/208/173 157/192/157
f 173/208/173 174/209/174 157/192/157
f 157/192/157 174/209/174 156/191/156
f 174/209/174 175/210/175 156/191/156
f 156/191/156 175/210/175 155/190/155
f 175/210/175 176/211/176 155/190/155
f 155/190/155 176/211/176 154/189/154
f 176/211/176 165/200/165 154/189/154
f 177/212/177 176/211/176 178/213/178
f 176/211/176 175/210/175 178/213/178
f 178/213/178 175/210/175 179/214/179
f 175/210/175 174/209/174 179/214/179
f 179/214/179 174/209/174 180/215/180
f 174/209/174 173/208/173 180/215/180
f 180/215/180 173/208/173 181/216/181
f 173/208/173 172/207/172 181/216/181
f 181/216/181 172/207/172 182/217/182
f 172/207/172 171/206/171 182/217/182
f 182/217/182 171/206/171 183/218/183
f 171/206/171 170/205/170 183/218/183
f 183/218/183 170/205/170 184/219/184
f 170/205/170 169/204/169 184/219/184
f 184/219/184 169/204/169 185/220/185
f 169/204/169 168/203/168 185/220/185
f 185/220/185 168/203/168 186/221/186
f 168/203/168 167/202/167 186/221/186
f 186/221/186 167/202/167 187/222/187
f 167/202/167 166/201/166 187/222/187
f 187/222/187 166/201/166 188/223/188
f 166/201/166 165/200/165 188/223/188
f 188/223/188 165/200/165 177/212/177
f 165/200/165 176/211/176 177/212/177
f 189/224/189 178/213/178 190/225/190
f 178/213/178 179/214/179 190/225/190
f 190/225/190 179/214/179 191/226/191
f 179/214/179 180/215/180 191/226/191
f 191/226/191 180/215/180 192/227/192
f 180/215/180 181/216/181 192/227/192
f 192/227/192 181/216/181 193/228/193
f 181/216/181 182/217/182 193/228/193
f 193/228/193 182/217/182 194/229/194
f 182/217/182 183/218/183 194/229/194
f 194/229/194 183/218/183 195/230/195
f 183/218/183 184/219/184 195/230/195
f 195/230/195 184/219/184 196/231/196
f 184/219/184 185/220/185 196/231/196
f 196/231/196 185/220/185 197/232/197
f 185/220/185 186/221/186 197/232/197
f 197/232/197 186/221/186 198/233/198
f 186/221/186 187/222/187 198/233/198
f 198/233/198 187/222/187 199/234/199
f 187/222/187 188/223/188 199/234/199
f 199/234/199 188/223/188 200/235/200
f 188/223/188 177/212/177 200/235/200
f 200/235/200 177/212/177 189/224/189
f 177/212/177 178/213/178 189/224/189
