# Blender 4.2.3 LTS
# www.blender.org
mtllib door02_2.mtl
o Cube
v 4.147412 -19.284494 -26.766720
v 4.147412 -16.975580 -26.766720
v -4.147408 -19.284494 -26.766720
v -4.147409 -16.975580 -26.766720
v 4.147412 -19.284494 -29.185421
v 4.147412 -16.975580 -29.185421
v -4.147409 -19.284494 -29.185421
v -4.147409 -16.975580 -29.185421
v 1.758320 -88.318237 -24.071400
v -2.362080 -88.318237 -24.071400
v -2.362081 -88.318237 -33.930901
v 1.758319 -88.318237 -33.930901
v 1.758275 99.588203 -24.071400
v 1.758275 99.588203 -33.930901
v -2.362125 99.588203 -33.930901
v -2.362125 99.588203 -24.071400
v 1.758314 -72.659370 -33.930901
v 1.758314 -72.659370 -24.071400
v -2.362084 -72.659370 -33.930901
v -2.362083 -72.659370 -24.071400
v -2.362077 -88.318237 50.831100
v 1.758323 -88.318237 50.831100
v 1.758318 -72.659370 50.831100
v -2.362080 -72.659370 50.831100
v 1.758304 -24.214718 -33.930901
v 1.758305 -24.214718 -24.071400
v -2.362096 -24.214718 -33.930901
v -2.362095 -24.214718 -24.071400
v 1.758308 -24.214718 50.831100
v -2.362092 -24.214718 50.831100
v 1.758301 -11.247269 -33.930901
v 1.758302 -11.247269 -24.071400
v -2.362099 -11.247269 -33.930901
v -2.362098 -11.247269 -24.071400
v 1.758305 -11.247269 50.831100
v -2.362095 -11.247269 50.831100
v 1.758283 68.515121 -33.930901
v 1.758284 68.515121 -24.071400
v -2.362117 68.515121 -33.930901
v -2.362116 68.515121 -24.071400
v 1.758287 68.515121 50.831100
v -2.362113 68.515121 50.831100
v 1.758281 75.855240 -33.930901
v 1.758281 75.855240 -24.071400
v -2.362119 75.855240 -33.930901
v -2.362119 75.855240 -24.071400
v 1.758285 75.855240 50.831100
v -2.362116 75.855240 50.831100
v 1.758278 91.758766 -33.930901
v 1.758278 91.758766 -24.071400
v -2.362122 91.758766 -33.930901
v -2.362122 91.758766 -24.071400
v 1.758281 91.758766 50.831100
v -2.362119 91.758766 50.831100
v 1.758279 99.588203 50.831100
v -2.362121 99.588203 50.831100
v 1.758321 -88.318237 4.035400
v -2.362079 -88.318237 4.035400
v 1.758316 -72.659370 4.035400
v 1.758314 -70.457352 -21.422600
v 1.758305 -26.416737 -21.422600
v 1.758306 -26.416737 1.386600
v 1.758315 -70.457352 1.386600
v 1.758303 -11.247269 4.035400
v 1.758306 -24.214718 4.035400
v 1.758302 -9.045250 -21.422600
v 1.758284 66.313103 -21.422600
v 1.758285 66.313103 1.386600
v 1.758303 -9.045250 1.386600
v 1.758282 75.855240 4.035400
v 1.758285 68.515121 4.035400
v 1.758281 78.057259 -21.422600
v 1.758278 89.556747 -21.422600
v 1.758279 89.556747 1.386600
v 1.758282 78.057259 1.386600
v 1.758277 99.588203 4.035400
v 1.758279 91.758766 4.035400
v -2.362123 99.588203 4.035400
v -2.362121 91.758766 4.035400
v -2.362122 89.527405 -21.387300
v -2.362119 78.086601 -21.387300
v -2.362118 78.086601 1.351300
v -2.362121 89.527405 1.351300
v -2.362115 68.515121 4.035400
v -2.362118 75.855240 4.035400
v -2.362116 66.283760 -21.387300
v -2.362098 -9.015821 -21.387300
v -2.362097 -9.015821 1.351300
v -2.362115 66.283760 1.351300
v -2.362094 -24.214718 4.035400
v -2.362097 -11.247269 4.035400
v -2.362095 -26.446165 -21.387300
v -2.362086 -70.428001 -21.387300
v -2.362085 -70.428001 1.351300
v -2.362094 -26.446165 1.351300
v -2.362082 -72.659370 4.035400
v 1.758321 -88.318237 12.864800
v -2.362079 -88.318237 12.864800
v 1.758316 -72.659370 12.864800
v 1.758306 -24.214718 12.864800
v 1.758303 -11.247269 12.864800
v 1.758285 68.515121 12.864800
v 1.758283 75.855240 12.864800
v 1.758280 91.758766 12.864800
v 1.758277 99.588203 12.864800
v -2.362123 99.588203 12.864800
v -2.362120 91.758766 12.864800
v -2.362117 75.855240 12.864800
v -2.362114 68.515121 12.864800
v -2.362097 -11.247269 12.864800
v -2.362094 -24.214718 12.864800
v -2.362082 -72.659370 12.864800
v 1.758322 -88.318237 40.971600
v -2.362078 -88.318237 40.971600
v 1.758317 -72.659370 40.971600
v 1.758316 -70.457352 15.513600
v 1.758307 -26.416737 15.513600
v 1.758308 -26.416737 38.322800
v 1.758317 -70.457352 38.322800
v 1.758305 -11.247269 40.971600
v 1.758308 -24.214718 40.971600
v 1.758303 -9.045250 15.513600
v 1.758286 66.313103 15.513600
v 1.758287 66.313103 38.322800
v 1.758304 -9.045250 38.322800
v 1.758284 75.855240 40.971600
v 1.758287 68.515121 40.971600
v 1.758283 78.057259 15.513600
v 1.758280 89.556747 15.513600
v 1.758281 89.556747 38.322800
v 1.758284 78.057259 38.322800
v 1.758278 99.588203 40.971600
v 1.758281 91.758766 40.971600
v -2.362122 99.588203 40.971600
v -2.362119 91.758766 40.971600
v -2.362120 89.527405 15.548900
v -2.362117 78.086601 15.548900
v -2.362116 78.086601 38.287498
v -2.362119 89.527405 38.287498
v -2.362113 68.515121 40.971600
v -2.362116 75.855240 40.971600
v -2.362114 66.283760 15.548900
v -2.362097 -9.015821 15.548900
v -2.362096 -9.015821 38.287498
v -2.362113 66.283760 38.287498
v -2.362092 -24.214718 40.971600
v -2.362095 -11.247269 40.971600
v -2.362093 -26.446165 15.548900
v -2.362084 -70.428001 15.548900
v -2.362083 -70.428001 38.287498
v -2.362092 -26.446165 38.287498
v -2.362081 -72.659370 40.971600
v 0.875305 -24.948780 -23.188499
v 0.875314 -71.925392 -23.188499
v 0.875306 -24.948780 3.152500
v 0.875316 -71.925392 3.152500
v 0.875284 67.781143 -23.188499
v 0.875302 -10.513207 -23.188499
v 0.875285 67.781143 3.152500
v 0.875303 -10.513207 3.152500
v 0.875278 91.024704 -23.188499
v 0.875281 76.589218 -23.188499
v 0.875279 91.024704 3.152500
v 0.875282 76.589218 3.152500
v 0.875306 -24.948780 13.747700
v 0.875316 -71.925392 13.747700
v 0.875308 -24.948780 40.088699
v 0.875317 -71.925392 40.088699
v 0.875285 67.781143 13.747700
v 0.875303 -10.513207 13.747700
v 0.875287 67.781143 40.088699
v 0.875305 -10.513207 40.088699
v 0.875280 91.024704 13.747700
v 0.875283 76.589218 13.747700
v 0.875281 91.024704 40.088699
v 0.875284 76.589218 40.088699
v 0.875305 -25.682758 -22.305500
v 0.875314 -71.191330 -22.305500
v 0.875306 -25.682758 2.269500
v 0.875315 -71.191330 2.269500
v 0.875284 67.047089 -22.305500
v 0.875302 -9.779229 -22.305500
v 0.875285 67.047089 2.269500
v 0.875303 -9.779229 2.269500
v 0.875278 90.290726 -22.305500
v 0.875281 77.323196 -22.305500
v 0.875279 90.290726 2.269500
v 0.875282 77.323196 2.269500
v 0.875307 -25.682758 14.630700
v 0.875316 -71.191330 14.630700
v 0.875308 -25.682758 39.205799
v 0.875317 -71.191330 39.205799
v 0.875286 67.047089 14.630700
v 0.875303 -9.779229 14.630700
v 0.875287 67.047089 39.205799
v 0.875304 -9.779229 39.205799
v 0.875280 90.290726 14.630700
v 0.875283 77.323196 14.630700
v 0.875281 90.290726 39.205799
v 0.875284 77.323196 39.205799
v -1.467419 76.599030 -23.176701
v -1.467422 91.014977 -23.176701
v -1.467418 76.599030 3.140700
v -1.467421 91.014977 3.140700
v -1.467398 -10.503480 -23.176701
v -1.467416 67.771332 -23.176701
v -1.467397 -10.503480 3.140700
v -1.467415 67.771332 3.140700
v -1.467385 -71.915581 -23.176701
v -1.467395 -24.958506 -23.176701
v -1.467383 -71.915581 3.140700
v -1.467394 -24.958506 3.140700
v -1.467417 76.599030 13.759500
v -1.467420 91.014977 13.759500
v -1.467416 76.599030 40.076900
v -1.467419 91.014977 40.076900
v -1.467397 -10.503480 13.759500
v -1.467414 67.771332 13.759500
v -1.467396 -10.503480 40.076900
v -1.467413 67.771332 40.076900
v -1.467383 -71.915581 13.759500
v -1.467394 -24.958506 13.759500
v -1.467382 -71.915581 40.076900
v -1.467392 -24.958506 40.076900
v -1.467419 77.342812 -22.282000
v -1.467422 90.271194 -22.282000
v -1.467418 77.342812 2.246000
v -1.467421 90.271194 2.246000
v -1.467398 -9.759610 -22.282000
v -1.467416 67.027542 -22.282000
v -1.467397 -9.759610 2.246000
v -1.467415 67.027542 2.246000
v -1.467386 -71.171791 -22.282000
v -1.467395 -25.702377 -22.282000
v -1.467384 -71.171791 2.246000
v -1.467394 -25.702377 2.246000
v -1.467417 77.342812 14.654200
v -1.467420 90.271194 14.654200
v -1.467416 77.342812 39.182201
v -1.467419 90.271194 39.182201
v -1.467397 -9.759610 14.654200
v -1.467414 67.027542 14.654200
v -1.467396 -9.759610 39.182201
v -1.467413 67.027542 39.182201
v -1.467384 -71.171791 14.654200
v -1.467393 -25.702377 14.654200
v -1.467383 -71.171791 39.182201
v -1.467392 -25.702377 39.182201
v 2.010303 -19.293182 -29.550100
v 1.832804 -19.817999 -31.074301
v 1.832802 -18.852911 -31.305201
v 2.010303 -18.852911 -29.655399
v 2.010303 -19.666365 -29.250099
v 1.832804 -20.636190 -30.416700
v 2.010303 -19.915762 -28.801201
v 1.832804 -21.182871 -29.432501
v 2.010303 -20.003300 -28.271601
v 1.832804 -21.374825 -28.271601
v 2.010303 -19.915762 -27.742001
v 1.832804 -21.182871 -27.110701
v 2.010303 -19.666365 -27.293100
v 1.832804 -20.636190 -26.126499
v 2.010303 -19.293182 -26.993099
v 1.832804 -19.817999 -25.468901
v 2.010303 -18.852911 -26.887800
v 1.832802 -18.852911 -25.238001
v 2.010303 -18.412640 -26.993099
v 1.832802 -17.887823 -25.468901
v 2.010303 -18.039457 -27.293100
v 1.832802 -17.069632 -26.126499
v 2.010303 -17.790058 -27.742001
v 1.832802 -16.522951 -27.110701
v 2.010303 -17.702520 -28.271601
v 1.832802 -16.330999 -28.271601
v 2.010303 -17.790058 -28.801100
v 1.832802 -16.522951 -29.432501
v 2.010303 -18.039457 -29.250099
v 1.832802 -17.069632 -30.416700
v 2.010303 -18.412640 -29.550100
v 1.832802 -17.887823 -31.074301
v -2.423598 -19.293182 -29.550100
v -2.246098 -19.817999 -31.074301
v -2.246098 -18.852911 -31.305201
v -2.423598 -18.852911 -29.655399
v -2.423598 -19.666365 -29.250099
v -2.246096 -20.636190 -30.416700
v -2.423598 -19.915762 -28.801201
v -2.246096 -21.182871 -29.432501
v -2.423598 -20.003300 -28.271601
v -2.246095 -21.374825 -28.271601
v -2.423598 -19.915762 -27.742001
v -2.246095 -21.182871 -27.110701
v -2.423598 -19.666365 -27.293100
v -2.246095 -20.636190 -26.126499
v -2.423598 -19.293182 -26.993099
v -2.246098 -19.817999 -25.468901
v -2.423598 -18.852911 -26.887800
v -2.246098 -18.852911 -25.238001
v -2.423598 -18.412640 -26.993099
v -2.246098 -17.887823 -25.468901
v -2.423598 -18.039457 -27.293100
v -2.246098 -17.069632 -26.126499
v -2.423598 -17.790058 -27.742001
v -2.246098 -16.522951 -27.110701
v -2.423598 -17.702520 -28.271601
v -2.246098 -16.330999 -28.271601
v -2.423598 -17.790058 -28.801100
v -2.246098 -16.522951 -29.432501
v -2.423598 -18.039457 -29.250099
v -2.246098 -17.069632 -30.416700
v -2.423598 -18.412640 -29.550100
v -2.246098 -17.887823 -31.074301
v -4.051615 -20.381535 -25.917564
v -4.051615 -15.878540 -25.917564
v -7.711935 -20.381535 -25.917564
v -7.711935 -15.878542 -25.917564
v -4.051615 -20.381535 -30.034576
v -4.051615 -15.878540 -30.034576
v -7.711935 -20.381535 -30.034576
v -7.711935 -15.878542 -30.034576
v 7.711941 -20.381535 -25.917564
v 7.711941 -15.878538 -25.917564
v 4.051621 -20.381535 -25.917564
v 4.051621 -15.878540 -25.917564
v 7.711941 -20.381535 -30.034576
v 7.711941 -15.878538 -30.034576
v 4.051621 -20.381535 -30.034576
v 4.051621 -15.878540 -30.034576
vn -0.0000 -0.0000 1.0000
vn -1.0000 -0.0000 -0.0000
vn -0.0000 -0.0000 -1.0000
vn 1.0000 -0.0000 -0.0000
vn -0.0000 -1.0000 -0.0000
vn -0.0000 1.0000 -0.0000
vn 0.7071 -0.0000 0.7071
vn 0.6393 -0.7690 -0.0000
vn 0.7071 -0.0000 -0.7071
vn 0.6392 0.7690 -0.0000
vn 0.6392 -0.7690 -0.0000
vn 0.6393 0.7690 -0.0000
vn -0.7071 -0.0000 0.7071
vn -0.6393 0.7690 -0.0000
vn -0.7071 -0.0000 -0.7071
vn -0.6393 -0.7690 -0.0000
vn -0.9939 0.0492 -0.0988
vn -0.9943 -0.0000 -0.1070
vn -0.9930 0.0909 -0.0755
vn 0.9939 -0.0508 -0.0982
vn 0.9943 -0.0000 -0.1070
vn 0.9930 -0.0909 -0.0755
vn 0.9921 -0.1187 -0.0407
vn 0.9917 -0.1283 -0.0000
vn 0.9921 -0.1187 0.0405
vn 0.9930 -0.0909 0.0755
vn 0.9930 -0.0909 0.0754
vn 0.9939 -0.0508 0.0982
vn 0.9943 -0.0000 0.1070
vn 0.9939 0.0492 0.0988
vn 0.9930 0.0909 0.0755
vn 0.9921 0.1187 0.0407
vn 0.9917 0.1284 -0.0000
vn 0.9917 0.1283 -0.0000
vn 0.9921 0.1186 -0.0407
vn 0.9930 0.0909 -0.0755
vn 0.9921 0.1185 -0.0411
vn 0.9939 0.0493 -0.0988
vn 0.9930 0.0908 -0.0756
vn -0.9939 -0.0492 -0.0988
vn -0.9930 -0.0909 -0.0755
vn -0.9930 -0.0909 -0.0754
vn -0.9921 -0.1186 -0.0407
vn -0.9917 -0.1284 -0.0000
vn -0.9917 -0.1283 -0.0000
vn -0.9921 -0.1193 0.0394
vn -0.9930 -0.0909 0.0755
vn -0.9939 -0.0492 0.0988
vn -0.9943 -0.0000 0.1070
vn -0.9939 0.0508 0.0982
vn -0.9930 0.0909 0.0755
vn -0.9930 0.0909 0.0754
vn -0.9921 0.1187 0.0407
vn -0.9917 0.1283 -0.0000
vn -0.9921 0.1186 -0.0407
vn -0.9921 0.1186 -0.0409
vn -0.9939 0.0490 -0.0989
vn 0.9939 -0.0491 -0.0988
vn 0.9921 -0.1183 -0.0414
vn 0.9921 -0.1185 0.0410
vn 0.9939 -0.0492 0.0988
vn 0.9921 0.1186 0.0409
vn 0.9939 0.0492 -0.0988
vn -0.9939 -0.0490 -0.0989
vn -0.9921 -0.1185 -0.0411
vn -0.9921 -0.1186 0.0409
vn -0.9939 0.0492 0.0988
vn -0.9921 0.1186 0.0409
vt 0.625000 0.000000
vt 0.375000 0.250000
vt 0.375000 0.000000
vt 0.625000 0.250000
vt 0.375000 0.500000
vt 0.625000 0.500000
vt 0.375000 0.750000
vt 0.625000 0.750000
vt 0.375000 1.000000
vt 0.125000 0.750000
vt 0.125000 0.500000
vt 0.875000 0.500000
vt 0.625000 1.000000
vt 0.875000 0.750000
vt -1536.074097 -163.476898
vt -1540.261597 -165.226898
vt -1536.074097 -165.226898
vt 1541.261597 -165.226898
vt 1537.074097 -163.476898
vt 1537.074097 -165.226898
vt 1541.261597 1.097000
vt 1537.074097 9.097000
vt 1537.074097 1.097000
vt -163.476898 1.097000
vt -165.226898 9.097000
vt -165.226898 1.097000
vt -1536.074097 1.097000
vt -1540.261597 9.097000
vt -1540.261597 1.097000
vt 166.226898 1.097000
vt 164.476898 9.097000
vt 164.476898 1.097000
vt 1541.261597 9.097000
vt 1537.074097 33.847000
vt -163.476898 9.097000
vt -165.226898 33.847000
vt -1536.074097 9.097000
vt -1540.261597 33.847000
vt 166.226898 9.097000
vt 164.476898 33.847000
vt 1541.261597 33.847000
vt 1537.074097 40.472000
vt -163.476898 33.847000
vt -165.226898 40.472000
vt -1536.074097 33.847000
vt -1540.261597 40.472000
vt 166.226898 33.847000
vt 164.476898 40.472000
vt 1541.261597 40.472000
vt 1537.074097 81.222000
vt -163.476898 40.472000
vt -165.226898 81.222000
vt -1536.074097 40.472000
vt -1540.261597 81.222000
vt 166.226898 40.472000
vt 164.476898 81.222000
vt 1541.261597 81.222000
vt 1537.074097 84.972000
vt -163.476898 81.222000
vt -165.226898 84.972000
vt -1536.074097 81.222000
vt -1540.261597 84.972000
vt 166.226898 81.222000
vt 164.476898 84.972000
vt 1541.261597 84.972000
vt 1537.074097 93.097000
vt -163.476898 84.972000
vt -165.226898 93.097000
vt -1536.074097 84.972000
vt -1540.261597 93.097000
vt 166.226898 84.972000
vt 164.476898 93.097000
vt 1541.261597 93.097000
vt 1537.074097 97.097000
vt -163.476898 93.097000
vt -165.226898 97.097000
vt 166.226898 93.097000
vt 164.476898 97.097000
vt -1524.136597 -163.476898
vt 1748.921631 982.609680
vt 1756.921631 970.672180
vt 1756.921631 982.609680
vt 1535.949097 32.722000
vt 1526.261597 10.222000
vt 1535.949097 10.222000
vt 1717.546631 982.609680
vt 1724.171631 970.672180
vt 1724.171631 982.609680
vt 1535.949097 80.097000
vt 1526.261597 41.597000
vt 1535.949097 41.597000
vt 1673.046631 982.609680
vt 1676.796631 970.672180
vt 1676.796631 982.609680
vt 1535.949097 91.972000
vt 1526.261597 86.097000
vt 1535.949097 86.097000
vt 1660.921631 982.609680
vt 1664.921631 970.672180
vt 1664.921631 982.609680
vt 1525.136597 -165.226898
vt -1536.074097 93.097000
vt -1524.136597 97.097000
vt -1536.074097 97.097000
vt 770.053284 35.813499
vt 760.395813 41.658501
vt 770.053284 41.658501
vt -1524.136597 84.972000
vt 770.053284 -8.686500
vt 760.395813 29.783501
vt 770.053284 29.783501
vt -1524.136597 40.472000
vt 770.053284 -40.061501
vt 760.395813 -17.591499
vt 770.053284 -17.591499
vt -1524.136597 9.097000
vt -1524.136597 -165.226898
vt -1520.386597 -163.476898
vt 1748.921631 970.672180
vt 1756.921631 966.922180
vt 1525.136597 33.847000
vt 1521.386597 9.097000
vt 1525.136597 9.097000
vt 1717.546631 970.672180
vt 1724.171631 966.922180
vt 1525.136597 81.222000
vt 1521.386597 40.472000
vt 1525.136597 40.472000
vt 1673.046631 970.672180
vt 1676.796631 966.922180
vt 1525.136597 93.097000
vt 1521.386597 84.972000
vt 1525.136597 84.972000
vt 1660.921631 970.672180
vt 1664.921631 966.922180
vt 1525.136597 -163.476898
vt 1521.386597 -165.226898
vt -1524.136597 93.097000
vt -1520.386597 97.097000
vt -1520.386597 93.097000
vt -1524.136597 81.222000
vt -1520.386597 84.972000
vt -1520.386597 81.222000
vt -1524.136597 33.847000
vt -1520.386597 40.472000
vt -1520.386597 33.847000
vt -1524.136597 1.097000
vt -1520.386597 9.097000
vt -1520.386597 -165.226898
vt -1508.449097 -163.476898
vt 1748.921631 966.922180
vt 1756.921631 954.984680
vt 1520.261597 32.722000
vt 1510.574097 10.222000
vt 1520.261597 10.222000
vt 1717.546631 966.922180
vt 1724.171631 954.984680
vt 1520.261597 80.097000
vt 1510.574097 41.597000
vt 1520.261597 41.597000
vt 1673.046631 966.922180
vt 1676.796631 954.984680
vt 1520.261597 91.972000
vt 1510.574097 86.097000
vt 1520.261597 86.097000
vt 1660.921631 966.922180
vt 1664.921631 954.984680
vt 1521.386597 -163.476898
vt 1509.449097 -165.226898
vt -1508.449097 97.097000
vt 754.365784 35.813499
vt 744.708313 41.658501
vt 754.365784 41.658501
vt -1508.449097 84.972000
vt 754.365784 -8.686500
vt 744.708313 29.783501
vt 754.365784 29.783501
vt -1508.449097 40.472000
vt 754.365784 -40.061501
vt 744.708313 -17.591499
vt 754.365784 -17.591499
vt -1520.386597 1.097000
vt -1508.449097 9.097000
vt -1508.449097 -165.226898
vt -1504.261597 -163.476898
vt 1509.449097 9.097000
vt 1505.261597 1.097000
vt 1509.449097 1.097000
vt 1509.449097 33.847000
vt 1505.261597 9.097000
vt 1509.449097 40.472000
vt 1505.261597 33.847000
vt 1509.449097 81.222000
vt 1505.261597 40.472000
vt 1509.449097 84.972000
vt 1505.261597 81.222000
vt 1509.449097 93.097000
vt 1505.261597 84.972000
vt 1509.449097 97.097000
vt 1505.261597 93.097000
vt 1509.449097 -163.476898
vt 1505.261597 -165.226898
vt -1508.449097 93.097000
vt -1504.261597 97.097000
vt -1504.261597 93.097000
vt -1508.449097 81.222000
vt -1504.261597 84.972000
vt -1504.261597 81.222000
vt -1508.449097 33.847000
vt -1504.261597 40.472000
vt -1504.261597 33.847000
vt -1508.449097 1.097000
vt -1504.261597 9.097000
vt 165.851898 33.472000
vt 165.851898 9.472000
vt 1536.699097 33.472000
vt 1525.511597 33.472000
vt 1525.511597 9.472000
vt 165.851898 40.847000
vt 1536.699097 80.847000
vt 1525.511597 40.847000
vt 1525.511597 80.847000
vt 165.851898 92.722000
vt 165.851898 85.347000
vt 1536.699097 92.722000
vt 1525.511597 92.722000
vt 1525.511597 85.347000
vt 1521.386597 33.847000
vt 1509.824097 33.472000
vt 1521.011597 33.472000
vt 1509.824097 9.472000
vt 1521.011597 80.847000
vt 1521.386597 81.222000
vt 1509.824097 40.847000
vt 1509.824097 80.847000
vt 1521.386597 93.097000
vt 1509.824097 92.722000
vt 1521.011597 92.722000
vt 1509.824097 85.347000
vt 1536.324097 9.847000
vt 1536.699097 9.472000
vt 1536.324097 33.097000
vt 1525.886597 9.847000
vt 1525.886597 33.097000
vt 1536.699097 40.847000
vt 1536.324097 80.472000
vt 1536.324097 41.222000
vt 1525.886597 80.472000
vt 1525.886597 41.222000
vt 1536.324097 85.722000
vt 1536.699097 85.347000
vt 1536.324097 92.347000
vt 1525.886597 92.347000
vt 1525.886597 85.722000
vt 1520.636597 9.847000
vt 1521.011597 9.472000
vt 1520.636597 33.097000
vt 1510.199097 9.847000
vt 1510.199097 33.097000
vt 1521.011597 40.847000
vt 1520.636597 80.472000
vt 1520.636597 41.222000
vt 1510.199097 80.472000
vt 1510.199097 41.222000
vt 1520.636597 85.722000
vt 1521.011597 85.347000
vt 1520.636597 92.347000
vt 1510.199097 92.347000
vt 1510.199097 85.722000
vt 165.851898 9.847000
vt 166.226898 32.722000
vt 165.851898 33.097000
vt 165.851898 80.472000
vt 166.226898 41.597000
vt 166.226898 80.097000
vt 165.851898 92.347000
vt 166.226898 86.097000
vt 166.226898 91.972000
vt 1510.574097 32.722000
vt 1510.574097 80.097000
vt 165.851898 41.222000
vt 1510.574097 91.972000
vt 770.813293 35.053501
vt 770.433289 42.038502
vt 770.813293 42.418499
vt 759.635803 35.053501
vt 770.433289 35.433498
vt 759.635803 42.418499
vt 760.015808 35.433498
vt 760.015808 42.038502
vt 770.813293 30.543501
vt 770.433289 -9.066500
vt 770.433289 30.163500
vt 759.635803 -9.446500
vt 770.813293 -9.446500
vt 759.635803 30.543501
vt 760.015808 -9.066500
vt 760.015808 30.163500
vt 770.813293 -40.821499
vt 770.433289 -17.211500
vt 770.813293 -16.831499
vt 759.635803 -40.821499
vt 770.433289 -40.441502
vt 760.015808 -17.211500
vt 760.015808 -40.441502
vt 759.635803 -16.831499
vt 755.125793 35.053501
vt 754.745789 42.038502
vt 755.125793 42.418499
vt 743.948303 35.053501
vt 754.745789 35.433498
vt 743.948303 42.418499
vt 744.328308 35.433498
vt 744.328308 42.038502
vt 755.125793 30.543501
vt 754.745789 -9.066500
vt 754.745789 30.163500
vt 743.948303 -9.446500
vt 755.125793 -9.446500
vt 743.948303 30.543501
vt 744.328308 -9.066500
vt 744.328308 30.163500
vt 755.125793 -40.821499
vt 754.745789 -17.211500
vt 755.125793 -16.831499
vt 743.948303 -40.821499
vt 754.745789 -40.441502
vt 744.328308 -17.211500
vt 744.328308 -40.441502
vt 743.948303 -16.831499
vt 760.395813 35.813499
vt 760.395813 -8.686500
vt 760.395813 -40.061501
vt 744.708313 35.813499
vt 744.708313 -8.686500
vt 744.708313 -40.061501
vt 1541.261597 -163.476898
vt 1541.261597 97.097000
vt -163.476898 97.097000
vt 166.226898 97.097000
vt 1526.261597 32.722000
vt 1526.261597 80.097000
vt 1526.261597 91.972000
vt 1748.921631 954.984680
vt 1717.546631 954.984680
vt 1673.046631 954.984680
vt 1660.921631 954.984680
vt -1504.261597 -165.226898
vt 1505.261597 97.097000
vt 1505.261597 -163.476898
vt -1504.261597 1.097000
vt 165.851898 80.847000
vt 166.226898 10.222000
vt 165.851898 85.722000
vt 0.877300 7.620900
vt 0.000000 8.129000
vt 0.877300 8.129000
vt 0.000000 7.112900
vt 0.877300 7.112900
vt 0.877300 0.508100
vt 0.000000 0.000000
vt 0.877300 0.000000
vt 0.000000 1.016100
vt 0.877300 1.016100
vt 0.877300 1.524200
vt 0.000000 2.032300
vt 0.877300 2.032300
vt 0.877300 2.540300
vt 0.000000 3.048400
vt 0.877300 3.048400
vt 0.877300 3.556400
vt 0.000000 4.064500
vt 0.877300 4.064500
vt 0.877300 4.572600
vt 0.000000 5.080600
vt 0.877300 5.080600
vt 0.877300 5.588700
vt 0.000000 6.096800
vt 0.877300 6.096800
vt 0.877300 6.604800
vt 0.000000 6.604800
vt 0.000000 7.620900
vt 0.000000 0.508100
vt 0.000000 1.524200
vt 0.000000 2.540300
vt 0.000000 3.556400
vt 0.000000 4.572600
vt 0.000000 5.588700
s 0
usemtl Silver_mat.001
f 2/1/1 3/2/1 1/3/1
f 4/4/2 7/5/2 3/2/2
f 8/6/3 5/7/3 7/5/3
f 6/8/4 1/9/4 5/7/4
f 7/5/5 1/10/5 3/11/5
f 4/12/6 6/8/6 8/6/6
f 2/1/1 4/4/1 3/2/1
f 4/4/2 8/6/2 7/5/2
f 8/6/3 6/8/3 5/7/3
f 6/8/4 2/13/4 1/9/4
f 7/5/5 5/7/5 1/10/5
f 4/12/6 2/14/6 6/8/6
s 1
f 311/355/17 283/356/18 284/357/18
f 310/358/19 311/355/17 309/359/19
f 249/360/20 251/361/21 252/362/21
f 254/363/22 249/360/20 253/364/22
f 255/365/23 254/363/22 253/364/22
f 258/366/24 255/365/23 257/367/24
f 259/368/25 258/366/24 257/367/24
f 262/369/26 259/368/25 261/370/27
f 263/371/28 262/369/26 261/370/27
f 266/372/29 263/371/28 265/373/29
f 267/374/30 266/372/29 265/373/29
f 270/375/31 267/374/30 269/376/31
f 271/377/32 270/375/31 269/376/31
f 274/378/33 271/377/32 273/379/34
f 275/380/35 274/378/33 273/379/34
f 277/359/36 276/381/37 275/380/35
f 279/355/38 278/358/39 277/359/36
f 251/356/21 279/355/38 252/357/21
f 283/361/18 281/360/40 284/362/18
f 281/360/40 286/363/41 285/364/42
f 286/363/41 287/365/43 285/364/42
f 287/365/43 290/366/44 289/367/45
f 290/366/44 291/368/46 289/367/45
f 291/368/46 294/369/47 293/370/47
f 294/369/47 295/371/48 293/370/47
f 295/371/48 298/372/49 297/373/49
f 298/372/49 299/374/50 297/373/49
f 299/374/50 302/375/51 301/376/52
f 302/375/51 303/377/53 301/376/52
f 303/377/53 306/378/54 305/379/54
f 306/378/54 307/380/55 305/379/54
f 308/381/56 309/359/19 307/380/55
f 311/355/17 312/382/57 283/356/18
f 310/358/19 312/382/57 311/355/17
f 249/360/20 250/383/58 251/361/21
f 254/363/22 250/383/58 249/360/20
f 255/365/23 256/384/59 254/363/22
f 258/366/24 256/384/59 255/365/23
f 259/368/25 260/385/60 258/366/24
f 262/369/26 260/385/60 259/368/25
f 263/371/28 264/386/61 262/369/26
f 266/372/29 264/386/61 263/371/28
f 267/374/30 268/387/30 266/372/29
f 270/375/31 268/387/30 267/374/30
f 271/377/32 272/388/62 270/375/31
f 274/378/33 272/388/62 271/377/32
f 275/380/35 276/381/37 274/378/33
f 277/359/36 278/358/39 276/381/37
f 279/355/38 280/382/63 278/358/39
f 251/356/21 280/382/63 279/355/38
f 283/361/18 282/383/64 281/360/40
f 281/360/40 282/383/64 286/363/41
f 286/363/41 288/384/65 287/365/43
f 287/365/43 288/384/65 290/366/44
f 290/366/44 292/385/66 291/368/46
f 291/368/46 292/385/66 294/369/47
f 294/369/47 296/386/48 295/371/48
f 295/371/48 296/386/48 298/372/49
f 298/372/49 300/387/67 299/374/50
f 299/374/50 300/387/67 302/375/51
f 302/375/51 304/388/68 303/377/53
f 303/377/53 304/388/68 306/378/54
f 306/378/54 308/381/56 307/380/55
f 308/381/56 310/358/19 309/359/19
s 0
f 314/1/1 315/2/1 313/3/1
f 316/4/2 319/5/2 315/2/2
f 320/6/3 317/7/3 319/5/3
f 318/8/4 313/9/4 317/7/4
f 319/5/5 313/10/5 315/11/5
f 316/12/6 318/8/6 320/6/6
f 314/1/1 316/4/1 315/2/1
f 316/4/2 320/6/2 319/5/2
f 320/6/3 318/8/3 317/7/3
f 318/8/4 314/13/4 313/9/4
f 319/5/5 317/7/5 313/10/5
f 316/12/6 314/14/6 318/8/6
f 322/1/1 323/2/1 321/3/1
f 324/4/2 327/5/2 323/2/2
f 328/6/3 325/7/3 327/5/3
f 326/8/4 321/9/4 325/7/4
f 327/5/5 321/10/5 323/11/5
f 324/12/6 326/8/6 328/6/6
f 322/1/1 324/4/1 323/2/1
f 324/4/2 328/6/2 327/5/2
f 328/6/3 326/8/3 325/7/3
f 326/8/4 322/13/4 321/9/4
f 327/5/5 325/7/5 321/10/5
f 324/12/6 322/14/6 326/8/6
s 1
usemtl White_Mat__wood_.001
f 10/15/5 12/16/5 9/17/5
f 14/18/6 16/19/6 13/20/6
f 12/21/4 18/22/4 9/23/4
f 11/24/3 17/25/3 12/26/3
f 10/27/2 19/28/2 11/29/2
f 22/30/1 24/31/1 21/32/1
s 0
f 17/33/4 26/34/4 18/22/4
f 19/35/3 25/36/3 17/25/3
f 20/37/2 27/38/2 19/28/2
f 23/39/1 30/40/1 24/31/1
f 25/41/4 32/42/4 26/34/4
f 27/43/3 31/44/3 25/36/3
f 28/45/2 33/46/2 27/38/2
f 29/47/1 36/48/1 30/40/1
f 31/49/4 38/50/4 32/42/4
f 33/51/3 37/52/3 31/44/3
f 34/53/2 39/54/2 33/46/2
f 35/55/1 42/56/1 36/48/1
f 37/57/4 44/58/4 38/50/4
f 39/59/3 43/60/3 37/52/3
f 40/61/2 45/62/2 39/54/2
f 41/63/1 48/64/1 42/56/1
f 43/65/4 50/66/4 44/58/4
f 45/67/3 49/68/3 43/60/3
f 46/69/2 51/70/2 45/62/2
f 47/71/1 54/72/1 48/64/1
f 49/73/4 13/74/4 50/66/4
f 51/75/3 14/76/3 49/68/3
f 53/77/1 56/78/1 54/72/1
f 9/17/5 58/79/5 10/15/5
f 18/80/4 57/81/4 9/82/4
f 61/83/4 63/84/4 60/85/4
f 32/86/4 65/87/4 26/88/4
f 67/89/4 69/90/4 66/91/4
f 44/92/4 71/93/4 38/94/4
f 73/95/4 75/96/4 72/97/4
f 13/98/4 77/99/4 50/100/4
f 16/19/6 76/101/6 13/20/6
f 52/102/2 78/103/2 16/104/2
f 81/105/2 83/106/2 80/107/2
f 40/61/2 85/108/2 46/69/2
f 87/109/2 89/110/2 86/111/2
f 28/45/2 91/112/2 34/53/2
f 93/113/2 95/114/2 92/115/2
f 10/27/2 96/116/2 20/37/2
f 57/117/5 98/118/5 58/79/5
f 59/119/4 97/120/4 57/81/4
f 65/121/4 99/122/4 59/123/4
f 64/124/4 100/125/4 65/87/4
f 71/126/4 101/127/4 64/128/4
f 70/129/4 102/130/4 71/93/4
f 77/131/4 103/132/4 70/133/4
f 76/134/4 104/135/4 77/99/4
f 78/136/6 105/137/6 76/101/6
f 79/138/2 106/139/2 78/103/2
f 85/108/2 107/140/2 79/138/2
f 84/141/2 108/142/2 85/108/2
f 91/112/2 109/143/2 84/141/2
f 90/144/2 110/145/2 91/112/2
f 96/116/2 111/146/2 90/144/2
f 58/147/2 112/148/2 96/116/2
f 97/149/5 114/150/5 98/118/5
f 99/151/4 113/152/4 97/120/4
f 117/153/4 119/154/4 116/155/4
f 101/156/4 121/157/4 100/125/4
f 123/158/4 125/159/4 122/160/4
f 103/161/4 127/162/4 102/130/4
f 129/163/4 131/164/4 128/165/4
f 105/166/4 133/167/4 104/135/4
f 106/168/6 132/169/6 105/137/6
f 107/140/2 134/170/2 106/139/2
f 137/171/2 139/172/2 136/173/2
f 109/143/2 141/174/2 108/142/2
f 143/175/2 145/176/2 142/177/2
f 111/146/2 147/178/2 110/145/2
f 149/179/2 151/180/2 148/181/2
f 98/182/2 152/183/2 112/148/2
f 113/184/5 21/185/5 114/150/5
f 115/186/4 22/187/4 113/188/4
f 121/189/4 23/190/4 115/186/4
f 120/191/4 29/192/4 121/189/4
f 127/193/4 35/194/4 120/191/4
f 126/195/4 41/196/4 127/193/4
f 133/197/4 47/198/4 126/195/4
f 132/199/4 53/200/4 133/197/4
f 134/201/6 55/202/6 132/169/6
f 135/203/2 56/204/2 134/170/2
f 141/174/2 54/205/2 135/203/2
f 140/206/2 48/207/2 141/174/2
f 147/178/2 42/208/2 140/206/2
f 146/209/2 36/210/2 147/178/2
f 152/183/2 30/211/2 146/209/2
f 114/212/2 24/213/2 152/183/2
f 18/39/7 153/214/7 154/215/7
f 65/121/8 153/216/8 26/34/8
f 59/123/9 155/217/9 65/121/9
f 18/22/10 156/218/10 59/123/10
f 38/63/7 158/219/7 32/55/7
f 71/126/11 157/220/11 38/50/11
f 71/126/9 160/221/9 159/222/9
f 32/42/12 160/221/12 64/128/12
f 44/71/7 161/223/7 162/224/7
f 77/131/8 161/225/8 50/66/8
f 70/133/9 163/226/9 77/131/9
f 44/58/10 164/227/10 70/133/10
f 99/39/7 165/214/7 166/215/7
f 100/228/8 167/229/8 165/230/8
f 115/186/9 167/229/9 121/189/9
f 99/122/10 168/231/10 115/186/10
f 102/63/7 170/219/7 101/55/7
f 127/193/11 169/232/11 102/233/11
f 127/193/9 172/234/9 171/235/9
f 101/127/12 172/234/12 120/191/12
f 103/71/7 173/223/7 174/224/7
f 104/236/8 175/237/8 173/238/8
f 126/195/9 175/237/9 133/197/9
f 103/132/10 176/239/10 126/195/10
f 153/216/4 178/240/4 154/241/4
f 155/217/4 177/242/4 153/216/4
f 155/217/4 180/243/4 179/244/4
f 154/241/4 180/243/4 156/218/4
f 158/245/4 181/246/4 182/247/4
f 157/220/4 183/248/4 181/246/4
f 160/221/4 183/248/4 159/222/4
f 158/245/4 184/249/4 160/221/4
f 161/225/4 186/250/4 162/251/4
f 163/226/4 185/252/4 161/225/4
f 164/227/4 187/253/4 163/226/4
f 162/251/4 188/254/4 164/227/4
f 165/230/4 190/255/4 166/256/4
f 167/229/4 189/257/4 165/230/4
f 167/229/4 192/258/4 191/259/4
f 168/231/4 190/255/4 192/258/4
f 170/260/4 193/261/4 194/262/4
f 171/235/4 193/261/4 169/232/4
f 172/234/4 195/263/4 171/235/4
f 172/234/4 194/262/4 196/264/4
f 173/238/4 198/265/4 174/266/4
f 175/237/4 197/267/4 173/238/4
f 176/239/4 199/268/4 175/237/4
f 176/239/4 198/265/4 200/269/4
f 177/242/9 60/85/9 178/240/9
f 179/244/10 61/83/10 177/242/10
f 180/270/7 62/271/7 179/272/7
f 178/240/11 63/84/11 180/243/11
f 181/246/9 66/91/9 182/247/9
f 183/248/10 67/89/10 181/246/10
f 183/273/7 69/274/7 68/275/7
f 182/247/11 69/90/11 184/249/11
f 185/252/9 72/97/9 186/250/9
f 187/253/10 73/95/10 185/252/10
f 187/276/7 75/277/7 74/278/7
f 186/250/8 75/96/8 188/254/8
f 189/257/9 116/155/9 190/255/9
f 189/257/10 118/279/10 117/153/10
f 192/270/7 118/271/7 191/272/7
f 190/255/11 119/154/11 192/258/11
f 193/261/9 122/160/9 194/262/9
f 193/261/10 124/280/10 123/158/10
f 196/281/7 124/275/7 195/273/7
f 194/262/11 125/159/11 196/264/11
f 197/267/9 128/165/9 198/265/9
f 197/267/10 130/282/10 129/163/10
f 199/276/7 131/277/7 130/278/7
f 198/265/8 131/164/8 200/269/8
f 46/69/13 202/102/13 52/102/13
f 85/108/14 201/69/14 46/69/14
f 79/138/15 203/108/15 85/108/15
f 52/102/16 204/138/16 79/138/16
f 34/53/13 206/61/13 40/61/13
f 91/112/14 205/53/14 34/53/14
f 84/141/15 207/112/15 91/112/15
f 40/61/16 208/141/16 84/141/16
f 20/37/13 210/45/13 28/45/13
f 96/116/14 209/37/14 20/37/14
f 90/144/15 211/116/15 96/116/15
f 28/45/16 212/144/16 90/144/16
f 108/142/13 214/140/13 107/140/13
f 141/174/14 213/142/14 108/142/14
f 135/75/15 215/174/15 141/67/15
f 107/140/16 216/203/16 135/203/16
f 110/145/13 218/143/13 109/143/13
f 147/178/14 217/145/14 110/145/14
f 140/59/15 219/178/15 147/51/15
f 109/143/16 220/206/16 140/206/16
f 112/148/13 222/146/13 111/146/13
f 152/183/14 221/148/14 112/148/14
f 146/43/15 223/183/15 152/35/15
f 111/146/16 224/209/16 146/209/16
f 201/283/2 226/284/2 202/285/2
f 203/286/2 225/287/2 201/283/2
f 204/288/2 227/289/2 203/286/2
f 202/285/2 228/290/2 204/288/2
f 206/291/2 229/292/2 230/293/2
f 207/294/2 229/292/2 205/295/2
f 208/296/2 231/297/2 207/294/2
f 206/291/2 232/298/2 208/296/2
f 209/299/2 234/300/2 210/301/2
f 211/302/2 233/303/2 209/299/2
f 211/302/2 236/304/2 235/305/2
f 210/301/2 236/304/2 212/306/2
f 213/307/2 238/308/2 214/309/2
f 215/310/2 237/311/2 213/307/2
f 216/312/2 239/313/2 215/310/2
f 216/312/2 238/308/2 240/314/2
f 218/315/2 241/316/2 242/317/2
f 219/318/2 241/316/2 217/319/2
f 220/320/2 243/321/2 219/318/2
f 220/320/2 242/317/2 244/322/2
f 221/323/2 246/324/2 222/325/2
f 223/326/2 245/327/2 221/323/2
f 223/326/2 248/328/2 247/329/2
f 224/330/2 246/324/2 248/328/2
f 225/287/15 80/107/15 226/284/15
f 227/289/16 81/105/16 225/287/16
f 228/290/13 82/331/13 227/289/13
f 226/284/14 83/106/14 228/290/14
f 229/292/15 86/111/15 230/293/15
f 229/292/16 88/332/16 87/109/16
f 232/298/13 88/332/13 231/297/13
f 230/293/14 89/110/14 232/298/14
f 233/303/15 92/115/15 234/300/15
f 235/305/16 93/113/16 233/303/16
f 236/304/13 94/333/13 235/305/13
f 234/300/14 95/114/14 236/304/14
f 237/311/15 136/173/15 238/308/15
f 239/313/16 137/171/16 237/311/16
f 240/314/13 138/334/13 239/313/13
f 238/308/14 139/172/14 240/314/14
f 241/316/15 142/177/15 242/317/15
f 241/316/16 144/335/16 143/175/16
f 244/322/13 144/335/13 243/321/13
f 242/317/14 145/176/14 244/322/14
f 245/327/15 148/181/15 246/324/15
f 245/327/16 150/336/16 149/179/16
f 248/328/13 150/336/13 247/329/13
f 246/324/14 151/180/14 248/328/14
s 1
f 14/18/6 15/337/6 16/19/6
f 12/21/4 17/33/4 18/22/4
f 11/24/3 19/35/3 17/25/3
f 10/27/2 20/37/2 19/28/2
f 22/30/1 23/39/1 24/31/1
s 0
f 17/33/4 25/41/4 26/34/4
f 19/35/3 27/43/3 25/36/3
f 20/37/2 28/45/2 27/38/2
f 23/39/1 29/47/1 30/40/1
f 25/41/4 31/49/4 32/42/4
f 27/43/3 33/51/3 31/44/3
f 28/45/2 34/53/2 33/46/2
f 29/47/1 35/55/1 36/48/1
f 31/49/4 37/57/4 38/50/4
f 33/51/3 39/59/3 37/52/3
f 34/53/2 40/61/2 39/54/2
f 35/55/1 41/63/1 42/56/1
f 37/57/4 43/65/4 44/58/4
f 39/59/3 45/67/3 43/60/3
f 40/61/2 46/69/2 45/62/2
f 41/63/1 47/71/1 48/64/1
f 43/65/4 49/73/4 50/66/4
f 45/67/3 51/75/3 49/68/3
f 46/69/2 52/102/2 51/70/2
f 47/71/1 53/77/1 54/72/1
f 49/73/4 14/338/4 13/74/4
f 51/75/3 15/339/3 14/76/3
f 53/77/1 55/340/1 56/78/1
f 9/17/5 57/117/5 58/79/5
f 18/80/4 59/119/4 57/81/4
f 61/83/4 62/341/4 63/84/4
f 32/86/4 64/124/4 65/87/4
f 67/89/4 68/342/4 69/90/4
f 44/92/4 70/129/4 71/93/4
f 73/95/4 74/343/4 75/96/4
f 13/98/4 76/134/4 77/99/4
f 16/19/6 78/136/6 76/101/6
f 52/102/2 79/138/2 78/103/2
f 81/105/2 82/331/2 83/106/2
f 40/61/2 84/141/2 85/108/2
f 87/109/2 88/332/2 89/110/2
f 28/45/2 90/144/2 91/112/2
f 93/113/2 94/333/2 95/114/2
f 10/27/2 58/147/2 96/116/2
f 57/117/5 97/149/5 98/118/5
f 59/119/4 99/151/4 97/120/4
f 65/121/4 100/228/4 99/122/4
f 64/124/4 101/156/4 100/125/4
f 71/126/4 102/233/4 101/127/4
f 70/129/4 103/161/4 102/130/4
f 77/131/4 104/236/4 103/132/4
f 76/134/4 105/166/4 104/135/4
f 78/136/6 106/168/6 105/137/6
f 79/138/2 107/140/2 106/139/2
f 85/108/2 108/142/2 107/140/2
f 84/141/2 109/143/2 108/142/2
f 91/112/2 110/145/2 109/143/2
f 90/144/2 111/146/2 110/145/2
f 96/116/2 112/148/2 111/146/2
f 58/147/2 98/182/2 112/148/2
f 97/149/5 113/184/5 114/150/5
f 99/151/4 115/344/4 113/152/4
f 117/153/4 118/279/4 119/154/4
f 101/156/4 120/345/4 121/157/4
f 123/158/4 124/280/4 125/159/4
f 103/161/4 126/346/4 127/162/4
f 129/163/4 130/282/4 131/164/4
f 105/166/4 132/347/4 133/167/4
f 106/168/6 134/201/6 132/169/6
f 107/140/2 135/203/2 134/170/2
f 137/171/2 138/334/2 139/172/2
f 109/143/2 140/206/2 141/174/2
f 143/175/2 144/335/2 145/176/2
f 111/146/2 146/209/2 147/178/2
f 149/179/2 150/336/2 151/180/2
f 98/182/2 114/212/2 152/183/2
f 113/184/5 22/348/5 21/185/5
f 115/186/4 23/190/4 22/187/4
f 121/189/4 29/192/4 23/190/4
f 120/191/4 35/194/4 29/192/4
f 127/193/4 41/196/4 35/194/4
f 126/195/4 47/198/4 41/196/4
f 133/197/4 53/200/4 47/198/4
f 132/199/4 55/349/4 53/200/4
f 134/201/6 56/350/6 55/202/6
f 135/203/2 54/205/2 56/204/2
f 141/174/2 48/207/2 54/205/2
f 140/206/2 42/208/2 48/207/2
f 147/178/2 36/210/2 42/208/2
f 146/209/2 30/211/2 36/210/2
f 152/183/2 24/213/2 30/211/2
f 114/212/2 21/351/2 24/213/2
f 18/39/7 26/47/7 153/214/7
f 65/121/8 155/217/8 153/216/8
f 59/123/9 156/218/9 155/217/9
f 18/22/10 154/241/10 156/218/10
f 38/63/7 157/352/7 158/219/7
f 71/126/11 159/222/11 157/220/11
f 71/126/9 64/128/9 160/221/9
f 32/42/12 158/245/12 160/221/12
f 44/71/7 50/77/7 161/223/7
f 77/131/8 163/226/8 161/225/8
f 70/133/9 164/227/9 163/226/9
f 44/58/10 162/251/10 164/227/10
f 99/39/7 100/47/7 165/214/7
f 100/228/8 121/189/8 167/229/8
f 115/186/9 168/231/9 167/229/9
f 99/122/10 166/256/10 168/231/10
f 102/63/7 169/352/7 170/219/7
f 127/193/11 171/235/11 169/232/11
f 127/193/9 120/191/9 172/234/9
f 101/127/12 170/260/12 172/234/12
f 103/71/7 104/77/7 173/223/7
f 104/236/8 133/197/8 175/237/8
f 126/195/9 176/239/9 175/237/9
f 103/132/10 174/266/10 176/239/10
f 153/216/4 177/242/4 178/240/4
f 155/217/4 179/244/4 177/242/4
f 155/217/4 156/218/4 180/243/4
f 154/241/4 178/240/4 180/243/4
f 158/245/4 157/220/4 181/246/4
f 157/220/4 159/222/4 183/248/4
f 160/221/4 184/249/4 183/248/4
f 158/245/4 182/247/4 184/249/4
f 161/225/4 185/252/4 186/250/4
f 163/226/4 187/253/4 185/252/4
f 164/227/4 188/254/4 187/253/4
f 162/251/4 186/250/4 188/254/4
f 165/230/4 189/257/4 190/255/4
f 167/229/4 191/259/4 189/257/4
f 167/229/4 168/231/4 192/258/4
f 168/231/4 166/256/4 190/255/4
f 170/260/4 169/232/4 193/261/4
f 171/235/4 195/263/4 193/261/4
f 172/234/4 196/264/4 195/263/4
f 172/234/4 170/260/4 194/262/4
f 173/238/4 197/267/4 198/265/4
f 175/237/4 199/268/4 197/267/4
f 176/239/4 200/269/4 199/268/4
f 176/239/4 174/266/4 198/265/4
f 177/242/9 61/83/9 60/85/9
f 179/244/10 62/341/10 61/83/10
f 180/270/7 63/353/7 62/271/7
f 178/240/11 60/85/11 63/84/11
f 181/246/9 67/89/9 66/91/9
f 183/248/10 68/342/10 67/89/10
f 183/273/7 184/281/7 69/274/7
f 182/247/11 66/91/11 69/90/11
f 185/252/9 73/95/9 72/97/9
f 187/253/10 74/343/10 73/95/10
f 187/276/7 188/354/7 75/277/7
f 186/250/8 72/97/8 75/96/8
f 189/257/9 117/153/9 116/155/9
f 189/257/10 191/259/10 118/279/10
f 192/270/7 119/353/7 118/271/7
f 190/255/11 116/155/11 119/154/11
f 193/261/9 123/158/9 122/160/9
f 193/261/10 195/263/10 124/280/10
f 196/281/7 125/274/7 124/275/7
f 194/262/11 122/160/11 125/159/11
f 197/267/9 129/163/9 128/165/9
f 197/267/10 199/268/10 130/282/10
f 199/276/7 200/354/7 131/277/7
f 198/265/8 128/165/8 131/164/8
f 46/69/13 201/69/13 202/102/13
f 85/108/14 203/108/14 201/69/14
f 79/138/15 204/138/15 203/108/15
f 52/102/16 202/102/16 204/138/16
f 34/53/13 205/53/13 206/61/13
f 91/112/14 207/112/14 205/53/14
f 84/141/15 208/141/15 207/112/15
f 40/61/16 206/61/16 208/141/16
f 20/37/13 209/37/13 210/45/13
f 96/116/14 211/116/14 209/37/14
f 90/144/15 212/144/15 211/116/15
f 28/45/16 210/45/16 212/144/16
f 108/142/13 213/142/13 214/140/13
f 141/174/14 215/174/14 213/142/14
f 135/75/15 216/203/15 215/174/15
f 107/140/16 214/140/16 216/203/16
f 110/145/13 217/145/13 218/143/13
f 147/178/14 219/178/14 217/145/14
f 140/59/15 220/206/15 219/178/15
f 109/143/16 218/143/16 220/206/16
f 112/148/13 221/148/13 222/146/13
f 152/183/14 223/183/14 221/148/14
f 146/43/15 224/209/15 223/183/15
f 111/146/16 222/146/16 224/209/16
f 201/283/2 225/287/2 226/284/2
f 203/286/2 227/289/2 225/287/2
f 204/288/2 228/290/2 227/289/2
f 202/285/2 226/284/2 228/290/2
f 206/291/2 205/295/2 229/292/2
f 207/294/2 231/297/2 229/292/2
f 208/296/2 232/298/2 231/297/2
f 206/291/2 230/293/2 232/298/2
f 209/299/2 233/303/2 234/300/2
f 211/302/2 235/305/2 233/303/2
f 211/302/2 212/306/2 236/304/2
f 210/301/2 234/300/2 236/304/2
f 213/307/2 237/311/2 238/308/2
f 215/310/2 239/313/2 237/311/2
f 216/312/2 240/314/2 239/313/2
f 216/312/2 214/309/2 238/308/2
f 218/315/2 217/319/2 241/316/2
f 219/318/2 243/321/2 241/316/2
f 220/320/2 244/322/2 243/321/2
f 220/320/2 218/315/2 242/317/2
f 221/323/2 245/327/2 246/324/2
f 223/326/2 247/329/2 245/327/2
f 223/326/2 224/330/2 248/328/2
f 224/330/2 222/325/2 246/324/2
f 225/287/15 81/105/15 80/107/15
f 227/289/16 82/331/16 81/105/16
f 228/290/13 83/106/13 82/331/13
f 226/284/14 80/107/14 83/106/14
f 229/292/15 87/109/15 86/111/15
f 229/292/16 231/297/16 88/332/16
f 232/298/13 89/110/13 88/332/13
f 230/293/14 86/111/14 89/110/14
f 233/303/15 93/113/15 92/115/15
f 235/305/16 94/333/16 93/113/16
f 236/304/13 95/114/13 94/333/13
f 234/300/14 92/115/14 95/114/14
f 237/311/15 137/171/15 136/173/15
f 239/313/16 138/334/16 137/171/16
f 240/314/13 139/172/13 138/334/13
f 238/308/14 136/173/14 139/172/14
f 241/316/15 143/175/15 142/177/15
f 241/316/16 243/321/16 144/335/16
f 244/322/13 145/176/13 144/335/13
f 242/317/14 142/177/14 145/176/14
f 245/327/15 149/179/15 148/181/15
f 245/327/16 247/329/16 150/336/16
f 248/328/13 151/180/13 150/336/13
f 246/324/14 148/181/14 151/180/14
f 52/102/2 16/104/2 51/70/2
f 51/70/2 16/104/2 15/337/2
s 1
f 12/26/5 10/27/5 11/24/5
