# Blender 4.2.3 LTS
# www.blender.org
mtllib door02.mtl
o 16695_36x96_6_Panel_Door-White_V1.001
v 24.071400 -88.318237 1.758314
v 24.071400 -88.318237 -2.362086
v 33.930901 -88.318237 -2.362086
v 33.930901 -88.318237 1.758314
v 24.071400 99.588203 1.758284
v 33.930901 99.588203 1.758284
v 33.930901 99.588203 -2.362116
v 24.071400 99.588203 -2.362116
v 33.930901 -72.659370 1.758310
v 24.071400 -72.659370 1.758310
v 33.930901 -72.659370 -2.362088
v 24.071400 -72.659370 -2.362088
v -50.831100 -88.318237 -2.362086
v -50.831100 -88.318237 1.758314
v -50.831100 -72.659370 1.758310
v -50.831100 -72.659370 -2.362088
v 33.930901 -24.214718 1.758304
v 24.071400 -24.214718 1.758304
v 33.930901 -24.214718 -2.362096
v 24.071400 -24.214718 -2.362096
v -50.831100 -24.214718 1.758304
v -50.831100 -24.214718 -2.362096
v 33.930901 -11.247269 1.758302
v 24.071400 -11.247269 1.758302
v 33.930901 -11.247269 -2.362098
v 24.071400 -11.247269 -2.362098
v -50.831100 -11.247269 1.758302
v -50.831100 -11.247269 -2.362098
v 33.930901 68.515121 1.758290
v 24.071400 68.515121 1.758290
v 33.930901 68.515121 -2.362110
v 24.071400 68.515121 -2.362110
v -50.831100 68.515121 1.758290
v -50.831100 68.515121 -2.362110
v 33.930901 75.855240 1.758288
v 24.071400 75.855240 1.758288
v 33.930901 75.855240 -2.362112
v 24.071400 75.855240 -2.362112
v -50.831100 75.855240 1.758288
v -50.831100 75.855240 -2.362112
v 33.930901 91.758766 1.758286
v 24.071400 91.758766 1.758286
v 33.930901 91.758766 -2.362114
v 24.071400 91.758766 -2.362114
v -50.831100 91.758766 1.758286
v -50.831100 91.758766 -2.362114
v -50.831100 99.588203 1.758284
v -50.831100 99.588203 -2.362116
v -4.035400 -88.318237 1.758314
v -4.035400 -88.318237 -2.362086
v -4.035400 -72.659370 1.758310
v 21.422600 -70.457352 1.758310
v 21.422600 -26.416737 1.758304
v -1.386600 -26.416737 1.758304
v -1.386600 -70.457352 1.758310
v -4.035400 -11.247269 1.758302
v -4.035400 -24.214718 1.758304
v 21.422600 -9.045250 1.758302
v 21.422600 66.313103 1.758290
v -1.386600 66.313103 1.758290
v -1.386600 -9.045250 1.758302
v -4.035400 75.855240 1.758288
v -4.035400 68.515121 1.758290
v 21.422600 78.057259 1.758288
v 21.422600 89.556747 1.758286
v -1.386600 89.556747 1.758286
v -1.386600 78.057259 1.758288
v -4.035400 99.588203 1.758284
v -4.035400 91.758766 1.758286
v -4.035400 99.588203 -2.362116
v -4.035400 91.758766 -2.362114
v 21.387300 89.527405 -2.362114
v 21.387300 78.086601 -2.362112
v -1.351300 78.086601 -2.362112
v -1.351300 89.527405 -2.362114
v -4.035400 68.515121 -2.362110
v -4.035400 75.855240 -2.362112
v 21.387300 66.283760 -2.362110
v 21.387300 -9.015821 -2.362098
v -1.351300 -9.015821 -2.362098
v -1.351300 66.283760 -2.362110
v -4.035400 -24.214718 -2.362096
v -4.035400 -11.247269 -2.362098
v 21.387300 -26.446165 -2.362096
v 21.387300 -70.428001 -2.362090
v -1.351300 -70.428001 -2.362090
v -1.351300 -26.446165 -2.362096
v -4.035400 -72.659370 -2.362088
v -12.864800 -88.318237 1.758314
v -12.864800 -88.318237 -2.362086
v -12.864800 -72.659370 1.758310
v -12.864800 -24.214718 1.758304
v -12.864800 -11.247269 1.758302
v -12.864800 68.515121 1.758290
v -12.864800 75.855240 1.758288
v -12.864800 91.758766 1.758286
v -12.864800 99.588203 1.758284
v -12.864800 99.588203 -2.362116
v -12.864800 91.758766 -2.362114
v -12.864800 75.855240 -2.362112
v -12.864800 68.515121 -2.362110
v -12.864800 -11.247269 -2.362098
v -12.864800 -24.214718 -2.362096
v -12.864800 -72.659370 -2.362088
v -40.971600 -88.318237 1.758314
v -40.971600 -88.318237 -2.362086
v -40.971600 -72.659370 1.758310
v -15.513600 -70.457352 1.758310
v -15.513600 -26.416737 1.758304
v -38.322800 -26.416737 1.758304
v -38.322800 -70.457352 1.758310
v -40.971600 -11.247269 1.758302
v -40.971600 -24.214718 1.758304
v -15.513600 -9.045250 1.758302
v -15.513600 66.313103 1.758290
v -38.322800 66.313103 1.758290
v -38.322800 -9.045250 1.758302
v -40.971600 75.855240 1.758288
v -40.971600 68.515121 1.758290
v -15.513600 78.057259 1.758288
v -15.513600 89.556747 1.758286
v -38.322800 89.556747 1.758286
v -38.322800 78.057259 1.758288
v -40.971600 99.588203 1.758284
v -40.971600 91.758766 1.758286
v -40.971600 99.588203 -2.362116
v -40.971600 91.758766 -2.362114
v -15.548900 89.527405 -2.362114
v -15.548900 78.086601 -2.362112
v -38.287498 78.086601 -2.362112
v -38.287498 89.527405 -2.362114
v -40.971600 68.515121 -2.362110
v -40.971600 75.855240 -2.362112
v -15.548900 66.283760 -2.362110
v -15.548900 -9.015821 -2.362098
v -38.287498 -9.015821 -2.362098
v -38.287498 66.283760 -2.362110
v -40.971600 -24.214718 -2.362096
v -40.971600 -11.247269 -2.362098
v -15.548900 -26.446165 -2.362096
v -15.548900 -70.428001 -2.362090
v -38.287498 -70.428001 -2.362090
v -38.287498 -26.446165 -2.362096
v -40.971600 -72.659370 -2.362088
v 23.188499 -24.948780 0.875304
v 23.188499 -71.925392 0.875310
v -3.152500 -24.948780 0.875304
v -3.152500 -71.925392 0.875310
v 23.188499 67.781143 0.875290
v 23.188499 -10.513207 0.875302
v -3.152500 67.781143 0.875290
v -3.152500 -10.513207 0.875302
v 23.188499 91.024704 0.875286
v 23.188499 76.589218 0.875288
v -3.152500 91.024704 0.875286
v -3.152500 76.589218 0.875288
v -13.747700 -24.948780 0.875304
v -13.747700 -71.925392 0.875310
v -40.088699 -24.948780 0.875304
v -40.088699 -71.925392 0.875310
v -13.747700 67.781143 0.875290
v -13.747700 -10.513207 0.875302
v -40.088699 67.781143 0.875290
v -40.088699 -10.513207 0.875302
v -13.747700 91.024704 0.875286
v -13.747700 76.589218 0.875288
v -40.088699 91.024704 0.875286
v -40.088699 76.589218 0.875288
v 22.305500 -25.682758 0.875304
v 22.305500 -71.191330 0.875310
v -2.269500 -25.682758 0.875304
v -2.269500 -71.191330 0.875310
v 22.305500 67.047089 0.875290
v 22.305500 -9.779229 0.875302
v -2.269500 67.047089 0.875290
v -2.269500 -9.779229 0.875302
v 22.305500 90.290726 0.875286
v 22.305500 77.323196 0.875288
v -2.269500 90.290726 0.875286
v -2.269500 77.323196 0.875288
v -14.630700 -25.682758 0.875304
v -14.630700 -71.191330 0.875310
v -39.205799 -25.682758 0.875304
v -39.205799 -71.191330 0.875310
v -14.630700 67.047089 0.875290
v -14.630700 -9.779229 0.875302
v -39.205799 67.047089 0.875290
v -39.205799 -9.779229 0.875302
v -14.630700 90.290726 0.875286
v -14.630700 77.323196 0.875288
v -39.205799 90.290726 0.875286
v -39.205799 77.323196 0.875288
v 23.176701 76.599030 -1.467412
v 23.176701 91.014977 -1.467414
v -3.140700 76.599030 -1.467412
v -3.140700 91.014977 -1.467414
v 23.176701 -10.503480 -1.467398
v 23.176701 67.771332 -1.467410
v -3.140700 -10.503480 -1.467398
v -3.140700 67.771332 -1.467410
v 23.176701 -71.915581 -1.467389
v 23.176701 -24.958506 -1.467396
v -3.140700 -71.915581 -1.467389
v -3.140700 -24.958506 -1.467396
v -13.759500 76.599030 -1.467412
v -13.759500 91.014977 -1.467414
v -40.076900 76.599030 -1.467412
v -40.076900 91.014977 -1.467414
v -13.759500 -10.503480 -1.467398
v -13.759500 67.771332 -1.467410
v -40.076900 -10.503480 -1.467398
v -40.076900 67.771332 -1.467410
v -13.759500 -71.915581 -1.467389
v -13.759500 -24.958506 -1.467396
v -40.076900 -71.915581 -1.467389
v -40.076900 -24.958506 -1.467396
v 22.282000 77.342812 -1.467412
v 22.282000 90.271194 -1.467414
v -2.246000 77.342812 -1.467412
v -2.246000 90.271194 -1.467414
v 22.282000 -9.759610 -1.467398
v 22.282000 67.027542 -1.467410
v -2.246000 -9.759610 -1.467398
v -2.246000 67.027542 -1.467410
v 22.282000 -71.171791 -1.467390
v 22.282000 -25.702377 -1.467396
v -2.246000 -71.171791 -1.467390
v -2.246000 -25.702377 -1.467396
v -14.654200 77.342812 -1.467412
v -14.654200 90.271194 -1.467414
v -39.182201 77.342812 -1.467412
v -39.182201 90.271194 -1.467414
v -14.654200 -9.759610 -1.467398
v -14.654200 67.027542 -1.467410
v -39.182201 -9.759610 -1.467398
v -39.182201 67.027542 -1.467410
v -14.654200 -71.171791 -1.467390
v -14.654200 -25.702377 -1.467396
v -39.182201 -71.171791 -1.467390
v -39.182201 -25.702377 -1.467396
v 29.550100 -19.293182 2.010303
v 31.074301 -19.817999 1.832804
v 31.305201 -18.852911 1.832802
v 29.655399 -18.852911 2.010303
v 29.250099 -19.666365 2.010303
v 30.416700 -20.636190 1.832804
v 28.801201 -19.915762 2.010303
v 29.432501 -21.182871 1.832804
v 28.271601 -20.003300 2.010303
v 28.271601 -21.374825 1.832804
v 27.742001 -19.915762 2.010303
v 27.110701 -21.182871 1.832804
v 27.293100 -19.666365 2.010303
v 26.126499 -20.636190 1.832804
v 26.993099 -19.293182 2.010303
v 25.468901 -19.817999 1.832804
v 26.887800 -18.852911 2.010303
v 25.238001 -18.852911 1.832802
v 26.993099 -18.412640 2.010303
v 25.468901 -17.887823 1.832802
v 27.293100 -18.039457 2.010303
v 26.126499 -17.069632 1.832802
v 27.742001 -17.790058 2.010303
v 27.110701 -16.522951 1.832802
v 28.271601 -17.702520 2.010303
v 28.271601 -16.330999 1.832802
v 28.801100 -17.790058 2.010303
v 29.432501 -16.522951 1.832802
v 29.250099 -18.039457 2.010303
v 30.416700 -17.069632 1.832802
v 29.550100 -18.412640 2.010303
v 31.074301 -17.887823 1.832802
v 29.550100 -19.293182 -2.423598
v 31.074301 -19.817999 -2.246098
v 31.305201 -18.852911 -2.246098
v 29.655399 -18.852911 -2.423598
v 29.250099 -19.666365 -2.423598
v 30.416700 -20.636190 -2.246096
v 28.801201 -19.915762 -2.423598
v 29.432501 -21.182871 -2.246096
v 28.271601 -20.003300 -2.423598
v 28.271601 -21.374825 -2.246096
v 27.742001 -19.915762 -2.423598
v 27.110701 -21.182871 -2.246096
v 27.293100 -19.666365 -2.423598
v 26.126499 -20.636190 -2.246096
v 26.993099 -19.293182 -2.423598
v 25.468901 -19.817999 -2.246098
v 26.887800 -18.852911 -2.423598
v 25.238001 -18.852911 -2.246098
v 26.993099 -18.412640 -2.423598
v 25.468901 -17.887823 -2.246098
v 27.293100 -18.039457 -2.423598
v 26.126499 -17.069632 -2.246098
v 27.742001 -17.790058 -2.423598
v 27.110701 -16.522951 -2.246098
v 28.271601 -17.702520 -2.423598
v 28.271601 -16.330999 -2.246098
v 28.801100 -17.790058 -2.423598
v 29.432501 -16.522951 -2.246098
v 29.250099 -18.039457 -2.423598
v 30.416700 -17.069632 -2.246098
v 29.550100 -18.412640 -2.423598
v 31.074301 -17.887823 -2.246098
vn -0.0000 -1.0000 -0.0000
vn -0.0000 1.0000 -0.0000
vn -0.0000 -0.0000 1.0000
vn 1.0000 -0.0000 -0.0000
vn -0.0000 -0.0000 -1.0000
vn -1.0000 -0.0000 -0.0000
vn -0.7071 -0.0000 0.7071
vn -0.0000 -0.7690 0.6393
vn 0.7071 -0.0000 0.7071
vn -0.0000 0.7690 0.6392
vn -0.0000 -0.7690 0.6392
vn -0.0000 0.7690 0.6393
vn -0.7071 -0.0000 -0.7071
vn -0.0000 0.7690 -0.6393
vn 0.7071 -0.0000 -0.7071
vn -0.0000 -0.7690 -0.6393
vn 0.0988 0.0492 -0.9939
vn 0.1070 -0.0000 -0.9943
vn 0.0755 0.0909 -0.9930
vn 0.0982 -0.0508 0.9939
vn 0.1070 -0.0000 0.9943
vn 0.0755 -0.0909 0.9930
vn 0.0407 -0.1187 0.9921
vn -0.0000 -0.1283 0.9917
vn -0.0405 -0.1187 0.9921
vn -0.0755 -0.0909 0.9930
vn -0.0754 -0.0909 0.9930
vn -0.0982 -0.0508 0.9939
vn -0.1070 -0.0000 0.9943
vn -0.0988 0.0492 0.9939
vn -0.0755 0.0909 0.9930
vn -0.0407 0.1187 0.9921
vn -0.0000 0.1283 0.9917
vn 0.0407 0.1186 0.9921
vn 0.0755 0.0909 0.9930
vn 0.0411 0.1185 0.9921
vn 0.0988 0.0493 0.9939
vn 0.0756 0.0908 0.9930
vn 0.0988 -0.0492 -0.9939
vn 0.0755 -0.0909 -0.9930
vn 0.0754 -0.0909 -0.9930
vn 0.0407 -0.1186 -0.9921
vn -0.0000 -0.1284 -0.9917
vn -0.0000 -0.1283 -0.9917
vn -0.0394 -0.1193 -0.9921
vn -0.0755 -0.0909 -0.9930
vn -0.0988 -0.0492 -0.9939
vn -0.1070 -0.0000 -0.9943
vn -0.0982 0.0508 -0.9939
vn -0.0755 0.0909 -0.9930
vn -0.0754 0.0909 -0.9930
vn -0.0407 0.1187 -0.9921
vn -0.0000 0.1283 -0.9917
vn 0.0407 0.1186 -0.9921
vn 0.0409 0.1186 -0.9921
vn 0.0989 0.0490 -0.9939
vn 0.0988 -0.0491 0.9939
vn 0.0414 -0.1183 0.9921
vn -0.0410 -0.1185 0.9921
vn -0.0988 -0.0492 0.9939
vn -0.0409 0.1186 0.9921
vn 0.0988 0.0492 0.9939
vn 0.0989 -0.0490 -0.9939
vn 0.0411 -0.1185 -0.9921
vn -0.0409 -0.1186 -0.9921
vn -0.0988 0.0492 -0.9939
vn -0.0409 0.1186 -0.9921
vt -1536.074097 -163.476898
vt -1540.261597 -165.226898
vt -1536.074097 -165.226898
vt 1541.261597 -165.226898
vt 1537.074097 -163.476898
vt 1537.074097 -165.226898
vt 1541.261597 1.097000
vt 1537.074097 9.097000
vt 1537.074097 1.097000
vt -163.476898 1.097000
vt -165.226898 9.097000
vt -165.226898 1.097000
vt -1536.074097 1.097000
vt -1540.261597 9.097000
vt -1540.261597 1.097000
vt 166.226898 1.097000
vt 164.476898 9.097000
vt 164.476898 1.097000
vt 1541.261597 9.097000
vt 1537.074097 33.847000
vt -163.476898 9.097000
vt -165.226898 33.847000
vt -1536.074097 9.097000
vt -1540.261597 33.847000
vt 166.226898 9.097000
vt 164.476898 33.847000
vt 1541.261597 33.847000
vt 1537.074097 40.472000
vt -163.476898 33.847000
vt -165.226898 40.472000
vt -1536.074097 33.847000
vt -1540.261597 40.472000
vt 166.226898 33.847000
vt 164.476898 40.472000
vt 1541.261597 40.472000
vt 1537.074097 81.222000
vt -163.476898 40.472000
vt -165.226898 81.222000
vt -1536.074097 40.472000
vt -1540.261597 81.222000
vt 166.226898 40.472000
vt 164.476898 81.222000
vt 1541.261597 81.222000
vt 1537.074097 84.972000
vt -163.476898 81.222000
vt -165.226898 84.972000
vt -1536.074097 81.222000
vt -1540.261597 84.972000
vt 166.226898 81.222000
vt 164.476898 84.972000
vt 1541.261597 84.972000
vt 1537.074097 93.097000
vt -163.476898 84.972000
vt -165.226898 93.097000
vt -1536.074097 84.972000
vt -1540.261597 93.097000
vt 166.226898 84.972000
vt 164.476898 93.097000
vt 1541.261597 93.097000
vt 1537.074097 97.097000
vt -163.476898 93.097000
vt -165.226898 97.097000
vt 166.226898 93.097000
vt 164.476898 97.097000
vt -1524.136597 -163.476898
vt 1748.921631 982.609680
vt 1756.921631 970.672180
vt 1756.921631 982.609680
vt 1535.949097 32.722000
vt 1526.261597 10.222000
vt 1535.949097 10.222000
vt 1717.546631 982.609680
vt 1724.171631 970.672180
vt 1724.171631 982.609680
vt 1535.949097 80.097000
vt 1526.261597 41.597000
vt 1535.949097 41.597000
vt 1673.046631 982.609680
vt 1676.796631 970.672180
vt 1676.796631 982.609680
vt 1535.949097 91.972000
vt 1526.261597 86.097000
vt 1535.949097 86.097000
vt 1660.921631 982.609680
vt 1664.921631 970.672180
vt 1664.921631 982.609680
vt 1525.136597 -165.226898
vt -1536.074097 93.097000
vt -1524.136597 97.097000
vt -1536.074097 97.097000
vt 770.053284 35.813499
vt 760.395813 41.658501
vt 770.053284 41.658501
vt -1524.136597 84.972000
vt 770.053284 -8.686500
vt 760.395813 29.783501
vt 770.053284 29.783501
vt -1524.136597 40.472000
vt 770.053284 -40.061501
vt 760.395813 -17.591499
vt 770.053284 -17.591499
vt -1524.136597 9.097000
vt -1524.136597 -165.226898
vt -1520.386597 -163.476898
vt 1748.921631 970.672180
vt 1756.921631 966.922180
vt 1525.136597 33.847000
vt 1521.386597 9.097000
vt 1525.136597 9.097000
vt 1717.546631 970.672180
vt 1724.171631 966.922180
vt 1525.136597 81.222000
vt 1521.386597 40.472000
vt 1525.136597 40.472000
vt 1673.046631 970.672180
vt 1676.796631 966.922180
vt 1525.136597 93.097000
vt 1521.386597 84.972000
vt 1525.136597 84.972000
vt 1660.921631 970.672180
vt 1664.921631 966.922180
vt 1525.136597 -163.476898
vt 1521.386597 -165.226898
vt -1524.136597 93.097000
vt -1520.386597 97.097000
vt -1520.386597 93.097000
vt -1524.136597 81.222000
vt -1520.386597 84.972000
vt -1520.386597 81.222000
vt -1524.136597 33.847000
vt -1520.386597 40.472000
vt -1520.386597 33.847000
vt -1524.136597 1.097000
vt -1520.386597 9.097000
vt -1520.386597 -165.226898
vt -1508.449097 -163.476898
vt 1748.921631 966.922180
vt 1756.921631 954.984680
vt 1520.261597 32.722000
vt 1510.574097 10.222000
vt 1520.261597 10.222000
vt 1717.546631 966.922180
vt 1724.171631 954.984680
vt 1520.261597 80.097000
vt 1510.574097 41.597000
vt 1520.261597 41.597000
vt 1673.046631 966.922180
vt 1676.796631 954.984680
vt 1520.261597 91.972000
vt 1510.574097 86.097000
vt 1520.261597 86.097000
vt 1660.921631 966.922180
vt 1664.921631 954.984680
vt 1521.386597 -163.476898
vt 1509.449097 -165.226898
vt -1508.449097 97.097000
vt 754.365784 35.813499
vt 744.708313 41.658501
vt 754.365784 41.658501
vt -1508.449097 84.972000
vt 754.365784 -8.686500
vt 744.708313 29.783501
vt 754.365784 29.783501
vt -1508.449097 40.472000
vt 754.365784 -40.061501
vt 744.708313 -17.591499
vt 754.365784 -17.591499
vt -1520.386597 1.097000
vt -1508.449097 9.097000
vt -1508.449097 -165.226898
vt -1504.261597 -163.476898
vt 1509.449097 9.097000
vt 1505.261597 1.097000
vt 1509.449097 1.097000
vt 1509.449097 33.847000
vt 1505.261597 9.097000
vt 1509.449097 40.472000
vt 1505.261597 33.847000
vt 1509.449097 81.222000
vt 1505.261597 40.472000
vt 1509.449097 84.972000
vt 1505.261597 81.222000
vt 1509.449097 93.097000
vt 1505.261597 84.972000
vt 1509.449097 97.097000
vt 1505.261597 93.097000
vt 1509.449097 -163.476898
vt 1505.261597 -165.226898
vt -1508.449097 93.097000
vt -1504.261597 97.097000
vt -1504.261597 93.097000
vt -1508.449097 81.222000
vt -1504.261597 84.972000
vt -1504.261597 81.222000
vt -1508.449097 33.847000
vt -1504.261597 40.472000
vt -1504.261597 33.847000
vt -1508.449097 1.097000
vt -1504.261597 9.097000
vt 165.851898 33.472000
vt 165.851898 9.472000
vt 1536.699097 33.472000
vt 1525.511597 33.472000
vt 1525.511597 9.472000
vt 165.851898 40.847000
vt 1536.699097 80.847000
vt 1525.511597 40.847000
vt 1525.511597 80.847000
vt 165.851898 92.722000
vt 165.851898 85.347000
vt 1536.699097 92.722000
vt 1525.511597 92.722000
vt 1525.511597 85.347000
vt 1521.386597 33.847000
vt 1509.824097 33.472000
vt 1521.011597 33.472000
vt 1509.824097 9.472000
vt 1521.011597 80.847000
vt 1521.386597 81.222000
vt 1509.824097 40.847000
vt 1509.824097 80.847000
vt 1521.386597 93.097000
vt 1509.824097 92.722000
vt 1521.011597 92.722000
vt 1509.824097 85.347000
vt 1536.324097 9.847000
vt 1536.699097 9.472000
vt 1536.324097 33.097000
vt 1525.886597 9.847000
vt 1525.886597 33.097000
vt 1536.699097 40.847000
vt 1536.324097 80.472000
vt 1536.324097 41.222000
vt 1525.886597 80.472000
vt 1525.886597 41.222000
vt 1536.324097 85.722000
vt 1536.699097 85.347000
vt 1536.324097 92.347000
vt 1525.886597 92.347000
vt 1525.886597 85.722000
vt 1520.636597 9.847000
vt 1521.011597 9.472000
vt 1520.636597 33.097000
vt 1510.199097 9.847000
vt 1510.199097 33.097000
vt 1521.011597 40.847000
vt 1520.636597 80.472000
vt 1520.636597 41.222000
vt 1510.199097 80.472000
vt 1510.199097 41.222000
vt 1520.636597 85.722000
vt 1521.011597 85.347000
vt 1520.636597 92.347000
vt 1510.199097 92.347000
vt 1510.199097 85.722000
vt 165.851898 9.847000
vt 166.226898 32.722000
vt 165.851898 33.097000
vt 165.851898 80.472000
vt 166.226898 41.597000
vt 166.226898 80.097000
vt 165.851898 92.347000
vt 166.226898 86.097000
vt 166.226898 91.972000
vt 1510.574097 32.722000
vt 1510.574097 80.097000
vt 165.851898 41.222000
vt 1510.574097 91.972000
vt 770.813293 35.053501
vt 770.433289 42.038502
vt 770.813293 42.418499
vt 759.635803 35.053501
vt 770.433289 35.433498
vt 759.635803 42.418499
vt 760.015808 35.433498
vt 760.015808 42.038502
vt 770.813293 30.543501
vt 770.433289 -9.066500
vt 770.433289 30.163500
vt 759.635803 -9.446500
vt 770.813293 -9.446500
vt 759.635803 30.543501
vt 760.015808 -9.066500
vt 760.015808 30.163500
vt 770.813293 -40.821499
vt 770.433289 -17.211500
vt 770.813293 -16.831499
vt 759.635803 -40.821499
vt 770.433289 -40.441502
vt 760.015808 -17.211500
vt 760.015808 -40.441502
vt 759.635803 -16.831499
vt 755.125793 35.053501
vt 754.745789 42.038502
vt 755.125793 42.418499
vt 743.948303 35.053501
vt 754.745789 35.433498
vt 743.948303 42.418499
vt 744.328308 35.433498
vt 744.328308 42.038502
vt 755.125793 30.543501
vt 754.745789 -9.066500
vt 754.745789 30.163500
vt 743.948303 -9.446500
vt 755.125793 -9.446500
vt 743.948303 30.543501
vt 744.328308 -9.066500
vt 744.328308 30.163500
vt 755.125793 -40.821499
vt 754.745789 -17.211500
vt 755.125793 -16.831499
vt 743.948303 -40.821499
vt 754.745789 -40.441502
vt 744.328308 -17.211500
vt 744.328308 -40.441502
vt 743.948303 -16.831499
vt 760.395813 35.813499
vt 760.395813 -8.686500
vt 760.395813 -40.061501
vt 744.708313 35.813499
vt 744.708313 -8.686500
vt 744.708313 -40.061501
vt 1541.261597 -163.476898
vt 1541.261597 97.097000
vt -163.476898 97.097000
vt 166.226898 97.097000
vt 1526.261597 32.722000
vt 1526.261597 80.097000
vt 1526.261597 91.972000
vt 1748.921631 954.984680
vt 1717.546631 954.984680
vt 1673.046631 954.984680
vt 1660.921631 954.984680
vt -1504.261597 -165.226898
vt 1505.261597 97.097000
vt 1505.261597 -163.476898
vt -1504.261597 1.097000
vt 165.851898 80.847000
vt 166.226898 10.222000
vt 165.851898 85.722000
vt 0.877300 7.620900
vt 0.000000 8.129000
vt 0.877300 8.129000
vt 0.000000 7.112900
vt 0.877300 7.112900
vt 0.877300 0.508100
vt 0.000000 0.000000
vt 0.877300 0.000000
vt 0.000000 1.016100
vt 0.877300 1.016100
vt 0.877300 1.524200
vt 0.000000 2.032300
vt 0.877300 2.032300
vt 0.877300 2.540300
vt 0.000000 3.048400
vt 0.877300 3.048400
vt 0.877300 3.556400
vt 0.000000 4.064500
vt 0.877300 4.064500
vt 0.877300 4.572600
vt 0.000000 5.080600
vt 0.877300 5.080600
vt 0.877300 5.588700
vt 0.000000 6.096800
vt 0.877300 6.096800
vt 0.877300 6.604800
vt 0.000000 6.604800
vt 0.000000 7.620900
vt 0.000000 0.508100
vt 0.000000 1.524200
vt 0.000000 2.540300
vt 0.000000 3.556400
vt 0.000000 4.572600
vt 0.000000 5.588700
s 1
usemtl White_Mat__wood_.001
f 2/1/1 4/2/1 1/3/1
f 6/4/2 8/5/2 5/6/2
f 4/7/3 10/8/3 1/9/3
f 3/10/4 9/11/4 4/12/4
f 2/13/5 11/14/5 3/15/5
f 14/16/6 16/17/6 13/18/6
s 0
f 9/19/3 18/20/3 10/8/3
f 11/21/4 17/22/4 9/11/4
f 12/23/5 19/24/5 11/14/5
f 15/25/6 22/26/6 16/17/6
f 17/27/3 24/28/3 18/20/3
f 19/29/4 23/30/4 17/22/4
f 20/31/5 25/32/5 19/24/5
f 21/33/6 28/34/6 22/26/6
f 23/35/3 30/36/3 24/28/3
f 25/37/4 29/38/4 23/30/4
f 26/39/5 31/40/5 25/32/5
f 27/41/6 34/42/6 28/34/6
f 29/43/3 36/44/3 30/36/3
f 31/45/4 35/46/4 29/38/4
f 32/47/5 37/48/5 31/40/5
f 33/49/6 40/50/6 34/42/6
f 35/51/3 42/52/3 36/44/3
f 37/53/4 41/54/4 35/46/4
f 38/55/5 43/56/5 37/48/5
f 39/57/6 46/58/6 40/50/6
f 41/59/3 5/60/3 42/52/3
f 43/61/4 6/62/4 41/54/4
f 45/63/6 48/64/6 46/58/6
f 1/3/1 50/65/1 2/1/1
f 10/66/3 49/67/3 1/68/3
f 53/69/3 55/70/3 52/71/3
f 24/72/3 57/73/3 18/74/3
f 59/75/3 61/76/3 58/77/3
f 36/78/3 63/79/3 30/80/3
f 65/81/3 67/82/3 64/83/3
f 5/84/3 69/85/3 42/86/3
f 8/5/2 68/87/2 5/6/2
f 44/88/5 70/89/5 8/90/5
f 73/91/5 75/92/5 72/93/5
f 32/47/5 77/94/5 38/55/5
f 79/95/5 81/96/5 78/97/5
f 20/31/5 83/98/5 26/39/5
f 85/99/5 87/100/5 84/101/5
f 2/13/5 88/102/5 12/23/5
f 49/103/1 90/104/1 50/65/1
f 51/105/3 89/106/3 49/67/3
f 57/107/3 91/108/3 51/109/3
f 56/110/3 92/111/3 57/73/3
f 63/112/3 93/113/3 56/114/3
f 62/115/3 94/116/3 63/79/3
f 69/117/3 95/118/3 62/119/3
f 68/120/3 96/121/3 69/85/3
f 70/122/2 97/123/2 68/87/2
f 71/124/5 98/125/5 70/89/5
f 77/94/5 99/126/5 71/124/5
f 76/127/5 100/128/5 77/94/5
f 83/98/5 101/129/5 76/127/5
f 82/130/5 102/131/5 83/98/5
f 88/102/5 103/132/5 82/130/5
f 50/133/5 104/134/5 88/102/5
f 89/135/1 106/136/1 90/104/1
f 91/137/3 105/138/3 89/106/3
f 109/139/3 111/140/3 108/141/3
f 93/142/3 113/143/3 92/111/3
f 115/144/3 117/145/3 114/146/3
f 95/147/3 119/148/3 94/116/3
f 121/149/3 123/150/3 120/151/3
f 97/152/3 125/153/3 96/121/3
f 98/154/2 124/155/2 97/123/2
f 99/126/5 126/156/5 98/125/5
f 129/157/5 131/158/5 128/159/5
f 101/129/5 133/160/5 100/128/5
f 135/161/5 137/162/5 134/163/5
f 103/132/5 139/164/5 102/131/5
f 141/165/5 143/166/5 140/167/5
f 90/168/5 144/169/5 104/134/5
f 105/170/1 13/171/1 106/136/1
f 107/172/3 14/173/3 105/174/3
f 113/175/3 15/176/3 107/172/3
f 112/177/3 21/178/3 113/175/3
f 119/179/3 27/180/3 112/177/3
f 118/181/3 33/182/3 119/179/3
f 125/183/3 39/184/3 118/181/3
f 124/185/3 45/186/3 125/183/3
f 126/187/2 47/188/2 124/155/2
f 127/189/5 48/190/5 126/156/5
f 133/160/5 46/191/5 127/189/5
f 132/192/5 40/193/5 133/160/5
f 139/164/5 34/194/5 132/192/5
f 138/195/5 28/196/5 139/164/5
f 144/169/5 22/197/5 138/195/5
f 106/198/5 16/199/5 144/169/5
f 10/25/7 145/200/7 146/201/7
f 57/107/8 145/202/8 18/20/8
f 51/109/9 147/203/9 57/107/9
f 10/8/10 148/204/10 51/109/10
f 30/49/7 150/205/7 24/41/7
f 63/112/11 149/206/11 30/36/11
f 63/112/9 152/207/9 151/208/9
f 24/28/12 152/207/12 56/114/12
f 36/57/7 153/209/7 154/210/7
f 69/117/8 153/211/8 42/52/8
f 62/119/9 155/212/9 69/117/9
f 36/44/10 156/213/10 62/119/10
f 91/25/7 157/200/7 158/201/7
f 92/214/8 159/215/8 157/216/8
f 107/172/9 159/215/9 113/175/9
f 91/108/10 160/217/10 107/172/10
f 94/49/7 162/205/7 93/41/7
f 119/179/11 161/218/11 94/219/11
f 119/179/9 164/220/9 163/221/9
f 93/113/12 164/220/12 112/177/12
f 95/57/7 165/209/7 166/210/7
f 96/222/8 167/223/8 165/224/8
f 118/181/9 167/223/9 125/183/9
f 95/118/10 168/225/10 118/181/10
f 145/202/3 170/226/3 146/227/3
f 147/203/3 169/228/3 145/202/3
f 147/203/3 172/229/3 171/230/3
f 146/227/3 172/229/3 148/204/3
f 150/231/3 173/232/3 174/233/3
f 149/206/3 175/234/3 173/232/3
f 152/207/3 175/234/3 151/208/3
f 150/231/3 176/235/3 152/207/3
f 153/211/3 178/236/3 154/237/3
f 155/212/3 177/238/3 153/211/3
f 156/213/3 179/239/3 155/212/3
f 154/237/3 180/240/3 156/213/3
f 157/216/3 182/241/3 158/242/3
f 159/215/3 181/243/3 157/216/3
f 159/215/3 184/244/3 183/245/3
f 160/217/3 182/241/3 184/244/3
f 162/246/3 185/247/3 186/248/3
f 163/221/3 185/247/3 161/218/3
f 164/220/3 187/249/3 163/221/3
f 164/220/3 186/248/3 188/250/3
f 165/224/3 190/251/3 166/252/3
f 167/223/3 189/253/3 165/224/3
f 168/225/3 191/254/3 167/223/3
f 168/225/3 190/251/3 192/255/3
f 169/228/9 52/71/9 170/226/9
f 171/230/10 53/69/10 169/228/10
f 172/256/7 54/257/7 171/258/7
f 170/226/11 55/70/11 172/229/11
f 173/232/9 58/77/9 174/233/9
f 175/234/10 59/75/10 173/232/10
f 175/259/7 61/260/7 60/261/7
f 174/233/11 61/76/11 176/235/11
f 177/238/9 64/83/9 178/236/9
f 179/239/10 65/81/10 177/238/10
f 179/262/7 67/263/7 66/264/7
f 178/236/8 67/82/8 180/240/8
f 181/243/9 108/141/9 182/241/9
f 181/243/10 110/265/10 109/139/10
f 184/256/7 110/257/7 183/258/7
f 182/241/11 111/140/11 184/244/11
f 185/247/9 114/146/9 186/248/9
f 185/247/10 116/266/10 115/144/10
f 188/267/7 116/261/7 187/259/7
f 186/248/11 117/145/11 188/250/11
f 189/253/9 120/151/9 190/251/9
f 189/253/10 122/268/10 121/149/10
f 191/262/7 123/263/7 122/264/7
f 190/251/8 123/150/8 192/255/8
f 38/55/13 194/88/13 44/88/13
f 77/94/14 193/55/14 38/55/14
f 71/124/15 195/94/15 77/94/15
f 44/88/16 196/124/16 71/124/16
f 26/39/13 198/47/13 32/47/13
f 83/98/14 197/39/14 26/39/14
f 76/127/15 199/98/15 83/98/15
f 32/47/16 200/127/16 76/127/16
f 12/23/13 202/31/13 20/31/13
f 88/102/14 201/23/14 12/23/14
f 82/130/15 203/102/15 88/102/15
f 20/31/16 204/130/16 82/130/16
f 100/128/13 206/126/13 99/126/13
f 133/160/14 205/128/14 100/128/14
f 127/61/15 207/160/15 133/53/15
f 99/126/16 208/189/16 127/189/16
f 102/131/13 210/129/13 101/129/13
f 139/164/14 209/131/14 102/131/14
f 132/45/15 211/164/15 139/37/15
f 101/129/16 212/192/16 132/192/16
f 104/134/13 214/132/13 103/132/13
f 144/169/14 213/134/14 104/134/14
f 138/29/15 215/169/15 144/21/15
f 103/132/16 216/195/16 138/195/16
f 193/269/5 218/270/5 194/271/5
f 195/272/5 217/273/5 193/269/5
f 196/274/5 219/275/5 195/272/5
f 194/271/5 220/276/5 196/274/5
f 198/277/5 221/278/5 222/279/5
f 199/280/5 221/278/5 197/281/5
f 200/282/5 223/283/5 199/280/5
f 198/277/5 224/284/5 200/282/5
f 201/285/5 226/286/5 202/287/5
f 203/288/5 225/289/5 201/285/5
f 203/288/5 228/290/5 227/291/5
f 202/287/5 228/290/5 204/292/5
f 205/293/5 230/294/5 206/295/5
f 207/296/5 229/297/5 205/293/5
f 208/298/5 231/299/5 207/296/5
f 208/298/5 230/294/5 232/300/5
f 210/301/5 233/302/5 234/303/5
f 211/304/5 233/302/5 209/305/5
f 212/306/5 235/307/5 211/304/5
f 212/306/5 234/303/5 236/308/5
f 213/309/5 238/310/5 214/311/5
f 215/312/5 237/313/5 213/309/5
f 215/312/5 240/314/5 239/315/5
f 216/316/5 238/310/5 240/314/5
f 217/273/15 72/93/15 218/270/15
f 219/275/16 73/91/16 217/273/16
f 220/276/13 74/317/13 219/275/13
f 218/270/14 75/92/14 220/276/14
f 221/278/15 78/97/15 222/279/15
f 221/278/16 80/318/16 79/95/16
f 224/284/13 80/318/13 223/283/13
f 222/279/14 81/96/14 224/284/14
f 225/289/15 84/101/15 226/286/15
f 227/291/16 85/99/16 225/289/16
f 228/290/13 86/319/13 227/291/13
f 226/286/14 87/100/14 228/290/14
f 229/297/15 128/159/15 230/294/15
f 231/299/16 129/157/16 229/297/16
f 232/300/13 130/320/13 231/299/13
f 230/294/14 131/158/14 232/300/14
f 233/302/15 134/163/15 234/303/15
f 233/302/16 136/321/16 135/161/16
f 236/308/13 136/321/13 235/307/13
f 234/303/14 137/162/14 236/308/14
f 237/313/15 140/167/15 238/310/15
f 237/313/16 142/322/16 141/165/16
f 240/314/13 142/322/13 239/315/13
f 238/310/14 143/166/14 240/314/14
s 1
f 6/4/2 7/323/2 8/5/2
f 4/7/3 9/19/3 10/8/3
f 3/10/4 11/21/4 9/11/4
f 2/13/5 12/23/5 11/14/5
f 14/16/6 15/25/6 16/17/6
s 0
f 9/19/3 17/27/3 18/20/3
f 11/21/4 19/29/4 17/22/4
f 12/23/5 20/31/5 19/24/5
f 15/25/6 21/33/6 22/26/6
f 17/27/3 23/35/3 24/28/3
f 19/29/4 25/37/4 23/30/4
f 20/31/5 26/39/5 25/32/5
f 21/33/6 27/41/6 28/34/6
f 23/35/3 29/43/3 30/36/3
f 25/37/4 31/45/4 29/38/4
f 26/39/5 32/47/5 31/40/5
f 27/41/6 33/49/6 34/42/6
f 29/43/3 35/51/3 36/44/3
f 31/45/4 37/53/4 35/46/4
f 32/47/5 38/55/5 37/48/5
f 33/49/6 39/57/6 40/50/6
f 35/51/3 41/59/3 42/52/3
f 37/53/4 43/61/4 41/54/4
f 38/55/5 44/88/5 43/56/5
f 39/57/6 45/63/6 46/58/6
f 41/59/3 6/324/3 5/60/3
f 43/61/4 7/325/4 6/62/4
f 45/63/6 47/326/6 48/64/6
f 1/3/1 49/103/1 50/65/1
f 10/66/3 51/105/3 49/67/3
f 53/69/3 54/327/3 55/70/3
f 24/72/3 56/110/3 57/73/3
f 59/75/3 60/328/3 61/76/3
f 36/78/3 62/115/3 63/79/3
f 65/81/3 66/329/3 67/82/3
f 5/84/3 68/120/3 69/85/3
f 8/5/2 70/122/2 68/87/2
f 44/88/5 71/124/5 70/89/5
f 73/91/5 74/317/5 75/92/5
f 32/47/5 76/127/5 77/94/5
f 79/95/5 80/318/5 81/96/5
f 20/31/5 82/130/5 83/98/5
f 85/99/5 86/319/5 87/100/5
f 2/13/5 50/133/5 88/102/5
f 49/103/1 89/135/1 90/104/1
f 51/105/3 91/137/3 89/106/3
f 57/107/3 92/214/3 91/108/3
f 56/110/3 93/142/3 92/111/3
f 63/112/3 94/219/3 93/113/3
f 62/115/3 95/147/3 94/116/3
f 69/117/3 96/222/3 95/118/3
f 68/120/3 97/152/3 96/121/3
f 70/122/2 98/154/2 97/123/2
f 71/124/5 99/126/5 98/125/5
f 77/94/5 100/128/5 99/126/5
f 76/127/5 101/129/5 100/128/5
f 83/98/5 102/131/5 101/129/5
f 82/130/5 103/132/5 102/131/5
f 88/102/5 104/134/5 103/132/5
f 50/133/5 90/168/5 104/134/5
f 89/135/1 105/170/1 106/136/1
f 91/137/3 107/330/3 105/138/3
f 109/139/3 110/265/3 111/140/3
f 93/142/3 112/331/3 113/143/3
f 115/144/3 116/266/3 117/145/3
f 95/147/3 118/332/3 119/148/3
f 121/149/3 122/268/3 123/150/3
f 97/152/3 124/333/3 125/153/3
f 98/154/2 126/187/2 124/155/2
f 99/126/5 127/189/5 126/156/5
f 129/157/5 130/320/5 131/158/5
f 101/129/5 132/192/5 133/160/5
f 135/161/5 136/321/5 137/162/5
f 103/132/5 138/195/5 139/164/5
f 141/165/5 142/322/5 143/166/5
f 90/168/5 106/198/5 144/169/5
f 105/170/1 14/334/1 13/171/1
f 107/172/3 15/176/3 14/173/3
f 113/175/3 21/178/3 15/176/3
f 112/177/3 27/180/3 21/178/3
f 119/179/3 33/182/3 27/180/3
f 118/181/3 39/184/3 33/182/3
f 125/183/3 45/186/3 39/184/3
f 124/185/3 47/335/3 45/186/3
f 126/187/2 48/336/2 47/188/2
f 127/189/5 46/191/5 48/190/5
f 133/160/5 40/193/5 46/191/5
f 132/192/5 34/194/5 40/193/5
f 139/164/5 28/196/5 34/194/5
f 138/195/5 22/197/5 28/196/5
f 144/169/5 16/199/5 22/197/5
f 106/198/5 13/337/5 16/199/5
f 10/25/7 18/33/7 145/200/7
f 57/107/8 147/203/8 145/202/8
f 51/109/9 148/204/9 147/203/9
f 10/8/10 146/227/10 148/204/10
f 30/49/7 149/338/7 150/205/7
f 63/112/11 151/208/11 149/206/11
f 63/112/9 56/114/9 152/207/9
f 24/28/12 150/231/12 152/207/12
f 36/57/7 42/63/7 153/209/7
f 69/117/8 155/212/8 153/211/8
f 62/119/9 156/213/9 155/212/9
f 36/44/10 154/237/10 156/213/10
f 91/25/7 92/33/7 157/200/7
f 92/214/8 113/175/8 159/215/8
f 107/172/9 160/217/9 159/215/9
f 91/108/10 158/242/10 160/217/10
f 94/49/7 161/338/7 162/205/7
f 119/179/11 163/221/11 161/218/11
f 119/179/9 112/177/9 164/220/9
f 93/113/12 162/246/12 164/220/12
f 95/57/7 96/63/7 165/209/7
f 96/222/8 125/183/8 167/223/8
f 118/181/9 168/225/9 167/223/9
f 95/118/10 166/252/10 168/225/10
f 145/202/3 169/228/3 170/226/3
f 147/203/3 171/230/3 169/228/3
f 147/203/3 148/204/3 172/229/3
f 146/227/3 170/226/3 172/229/3
f 150/231/3 149/206/3 173/232/3
f 149/206/3 151/208/3 175/234/3
f 152/207/3 176/235/3 175/234/3
f 150/231/3 174/233/3 176/235/3
f 153/211/3 177/238/3 178/236/3
f 155/212/3 179/239/3 177/238/3
f 156/213/3 180/240/3 179/239/3
f 154/237/3 178/236/3 180/240/3
f 157/216/3 181/243/3 182/241/3
f 159/215/3 183/245/3 181/243/3
f 159/215/3 160/217/3 184/244/3
f 160/217/3 158/242/3 182/241/3
f 162/246/3 161/218/3 185/247/3
f 163/221/3 187/249/3 185/247/3
f 164/220/3 188/250/3 187/249/3
f 164/220/3 162/246/3 186/248/3
f 165/224/3 189/253/3 190/251/3
f 167/223/3 191/254/3 189/253/3
f 168/225/3 192/255/3 191/254/3
f 168/225/3 166/252/3 190/251/3
f 169/228/9 53/69/9 52/71/9
f 171/230/10 54/327/10 53/69/10
f 172/256/7 55/339/7 54/257/7
f 170/226/11 52/71/11 55/70/11
f 173/232/9 59/75/9 58/77/9
f 175/234/10 60/328/10 59/75/10
f 175/259/7 176/267/7 61/260/7
f 174/233/11 58/77/11 61/76/11
f 177/238/9 65/81/9 64/83/9
f 179/239/10 66/329/10 65/81/10
f 179/262/7 180/340/7 67/263/7
f 178/236/8 64/83/8 67/82/8
f 181/243/9 109/139/9 108/141/9
f 181/243/10 183/245/10 110/265/10
f 184/256/7 111/339/7 110/257/7
f 182/241/11 108/141/11 111/140/11
f 185/247/9 115/144/9 114/146/9
f 185/247/10 187/249/10 116/266/10
f 188/267/7 117/260/7 116/261/7
f 186/248/11 114/146/11 117/145/11
f 189/253/9 121/149/9 120/151/9
f 189/253/10 191/254/10 122/268/10
f 191/262/7 192/340/7 123/263/7
f 190/251/8 120/151/8 123/150/8
f 38/55/13 193/55/13 194/88/13
f 77/94/14 195/94/14 193/55/14
f 71/124/15 196/124/15 195/94/15
f 44/88/16 194/88/16 196/124/16
f 26/39/13 197/39/13 198/47/13
f 83/98/14 199/98/14 197/39/14
f 76/127/15 200/127/15 199/98/15
f 32/47/16 198/47/16 200/127/16
f 12/23/13 201/23/13 202/31/13
f 88/102/14 203/102/14 201/23/14
f 82/130/15 204/130/15 203/102/15
f 20/31/16 202/31/16 204/130/16
f 100/128/13 205/128/13 206/126/13
f 133/160/14 207/160/14 205/128/14
f 127/61/15 208/189/15 207/160/15
f 99/126/16 206/126/16 208/189/16
f 102/131/13 209/131/13 210/129/13
f 139/164/14 211/164/14 209/131/14
f 132/45/15 212/192/15 211/164/15
f 101/129/16 210/129/16 212/192/16
f 104/134/13 213/134/13 214/132/13
f 144/169/14 215/169/14 213/134/14
f 138/29/15 216/195/15 215/169/15
f 103/132/16 214/132/16 216/195/16
f 193/269/5 217/273/5 218/270/5
f 195/272/5 219/275/5 217/273/5
f 196/274/5 220/276/5 219/275/5
f 194/271/5 218/270/5 220/276/5
f 198/277/5 197/281/5 221/278/5
f 199/280/5 223/283/5 221/278/5
f 200/282/5 224/284/5 223/283/5
f 198/277/5 222/279/5 224/284/5
f 201/285/5 225/289/5 226/286/5
f 203/288/5 227/291/5 225/289/5
f 203/288/5 204/292/5 228/290/5
f 202/287/5 226/286/5 228/290/5
f 205/293/5 229/297/5 230/294/5
f 207/296/5 231/299/5 229/297/5
f 208/298/5 232/300/5 231/299/5
f 208/298/5 206/295/5 230/294/5
f 210/301/5 209/305/5 233/302/5
f 211/304/5 235/307/5 233/302/5
f 212/306/5 236/308/5 235/307/5
f 212/306/5 210/301/5 234/303/5
f 213/309/5 237/313/5 238/310/5
f 215/312/5 239/315/5 237/313/5
f 215/312/5 216/316/5 240/314/5
f 216/316/5 214/311/5 238/310/5
f 217/273/15 73/91/15 72/93/15
f 219/275/16 74/317/16 73/91/16
f 220/276/13 75/92/13 74/317/13
f 218/270/14 72/93/14 75/92/14
f 221/278/15 79/95/15 78/97/15
f 221/278/16 223/283/16 80/318/16
f 224/284/13 81/96/13 80/318/13
f 222/279/14 78/97/14 81/96/14
f 225/289/15 85/99/15 84/101/15
f 227/291/16 86/319/16 85/99/16
f 228/290/13 87/100/13 86/319/13
f 226/286/14 84/101/14 87/100/14
f 229/297/15 129/157/15 128/159/15
f 231/299/16 130/320/16 129/157/16
f 232/300/13 131/158/13 130/320/13
f 230/294/14 128/159/14 131/158/14
f 233/302/15 135/161/15 134/163/15
f 233/302/16 235/307/16 136/321/16
f 236/308/13 137/162/13 136/321/13
f 234/303/14 134/163/14 137/162/14
f 237/313/15 141/165/15 140/167/15
f 237/313/16 239/315/16 142/322/16
f 240/314/13 143/166/13 142/322/13
f 238/310/14 140/167/14 143/166/14
f 44/88/5 8/90/5 43/56/5
f 43/56/5 8/90/5 7/323/5
s 1
f 4/12/1 2/13/1 3/10/1
usemtl Silver_mat.001
f 303/341/17 275/342/18 276/343/18
f 302/344/19 303/341/17 301/345/19
f 241/346/20 243/347/21 244/348/21
f 246/349/22 241/346/20 245/350/22
f 247/351/23 246/349/22 245/350/22
f 250/352/24 247/351/23 249/353/24
f 251/354/25 250/352/24 249/353/24
f 254/355/26 251/354/25 253/356/27
f 255/357/28 254/355/26 253/356/27
f 258/358/29 255/357/28 257/359/29
f 259/360/30 258/358/29 257/359/29
f 262/361/31 259/360/30 261/362/31
f 263/363/32 262/361/31 261/362/31
f 266/364/33 263/363/32 265/365/33
f 267/366/34 266/364/33 265/365/33
f 269/345/35 268/367/36 267/366/34
f 271/341/37 270/344/38 269/345/35
f 243/342/21 271/341/37 244/343/21
f 275/347/18 273/346/39 276/348/18
f 273/346/39 278/349/40 277/350/41
f 278/349/40 279/351/42 277/350/41
f 279/351/42 282/352/43 281/353/44
f 282/352/43 283/354/45 281/353/44
f 283/354/45 286/355/46 285/356/46
f 286/355/46 287/357/47 285/356/46
f 287/357/47 290/358/48 289/359/48
f 290/358/48 291/360/49 289/359/48
f 291/360/49 294/361/50 293/362/51
f 294/361/50 295/363/52 293/362/51
f 295/363/52 298/364/53 297/365/53
f 298/364/53 299/366/54 297/365/53
f 300/367/55 301/345/19 299/366/54
f 303/341/17 304/368/56 275/342/18
f 302/344/19 304/368/56 303/341/17
f 241/346/20 242/369/57 243/347/21
f 246/349/22 242/369/57 241/346/20
f 247/351/23 248/370/58 246/349/22
f 250/352/24 248/370/58 247/351/23
f 251/354/25 252/371/59 250/352/24
f 254/355/26 252/371/59 251/354/25
f 255/357/28 256/372/60 254/355/26
f 258/358/29 256/372/60 255/357/28
f 259/360/30 260/373/30 258/358/29
f 262/361/31 260/373/30 259/360/30
f 263/363/32 264/374/61 262/361/31
f 266/364/33 264/374/61 263/363/32
f 267/366/34 268/367/36 266/364/33
f 269/345/35 270/344/38 268/367/36
f 271/341/37 272/368/62 270/344/38
f 243/342/21 272/368/62 271/341/37
f 275/347/18 274/369/63 273/346/39
f 273/346/39 274/369/63 278/349/40
f 278/349/40 280/370/64 279/351/42
f 279/351/42 280/370/64 282/352/43
f 282/352/43 284/371/65 283/354/45
f 283/354/45 284/371/65 286/355/46
f 286/355/46 288/372/47 287/357/47
f 287/357/47 288/372/47 290/358/48
f 290/358/48 292/373/66 291/360/49
f 291/360/49 292/373/66 294/361/50
f 294/361/50 296/374/67 295/363/52
f 295/363/52 296/374/67 298/364/53
f 298/364/53 300/367/55 299/366/54
f 300/367/55 302/344/19 301/345/19
o Cube
v 26.766720 -19.284494 4.147412
v 26.766720 -16.975580 4.147412
v 26.766720 -19.284494 -4.147409
v 26.766720 -16.975580 -4.147409
v 29.185421 -19.284494 4.147412
v 29.185421 -16.975580 4.147412
v 29.185421 -19.284494 -4.147409
v 29.185421 -16.975580 -4.147409
vn -1.0000 -0.0000 -0.0000
vn -0.0000 -0.0000 -1.0000
vn 1.0000 -0.0000 -0.0000
vn -0.0000 -0.0000 1.0000
vn -0.0000 -1.0000 -0.0000
vn -0.0000 1.0000 -0.0000
vt 0.625000 0.000000
vt 0.375000 0.250000
vt 0.375000 0.000000
vt 0.625000 0.250000
vt 0.375000 0.500000
vt 0.625000 0.500000
vt 0.375000 0.750000
vt 0.625000 0.750000
vt 0.375000 1.000000
vt 0.125000 0.750000
vt 0.125000 0.500000
vt 0.875000 0.500000
vt 0.625000 1.000000
vt 0.875000 0.750000
s 0
usemtl Silver_mat.001
f 306/375/68 307/376/68 305/377/68
f 308/378/69 311/379/69 307/376/69
f 312/380/70 309/381/70 311/379/70
f 310/382/71 305/383/71 309/381/71
f 311/379/72 305/384/72 307/385/72
f 308/386/73 310/382/73 312/380/73
f 306/375/68 308/378/68 307/376/68
f 308/378/69 312/380/69 311/379/69
f 312/380/70 310/382/70 309/381/70
f 310/382/71 306/387/71 305/383/71
f 311/379/72 309/381/72 305/384/72
f 308/386/73 306/388/73 310/382/73
o Cube.001
v 25.917564 -20.381535 -4.051615
v 25.917564 -15.878540 -4.051615
v 25.917564 -20.381535 -7.711935
v 25.917564 -15.878541 -7.711935
v 30.034576 -20.381535 -4.051615
v 30.034576 -15.878540 -4.051615
v 30.034576 -20.381535 -7.711935
v 30.034576 -15.878541 -7.711935
vn -1.0000 -0.0000 -0.0000
vn -0.0000 -0.0000 -1.0000
vn 1.0000 -0.0000 -0.0000
vn -0.0000 -0.0000 1.0000
vn -0.0000 -1.0000 -0.0000
vn -0.0000 1.0000 -0.0000
vt 0.625000 0.000000
vt 0.375000 0.250000
vt 0.375000 0.000000
vt 0.625000 0.250000
vt 0.375000 0.500000
vt 0.625000 0.500000
vt 0.375000 0.750000
vt 0.625000 0.750000
vt 0.375000 1.000000
vt 0.125000 0.750000
vt 0.125000 0.500000
vt 0.875000 0.500000
vt 0.625000 1.000000
vt 0.875000 0.750000
s 0
usemtl Silver_mat.001
f 314/389/74 315/390/74 313/391/74
f 316/392/75 319/393/75 315/390/75
f 320/394/76 317/395/76 319/393/76
f 318/396/77 313/397/77 317/395/77
f 319/393/78 313/398/78 315/399/78
f 316/400/79 318/396/79 320/394/79
f 314/389/74 316/392/74 315/390/74
f 316/392/75 320/394/75 319/393/75
f 320/394/76 318/396/76 317/395/76
f 318/396/77 314/401/77 313/397/77
f 319/393/78 317/395/78 313/398/78
f 316/400/79 314/402/79 318/396/79
o Cube.002
v 25.917564 -20.381535 7.711941
v 25.917564 -15.878539 7.711941
v 25.917564 -20.381535 4.051621
v 25.917564 -15.878540 4.051621
v 30.034576 -20.381535 7.711941
v 30.034576 -15.878539 7.711941
v 30.034576 -20.381535 4.051621
v 30.034576 -15.878540 4.051621
vn -1.0000 -0.0000 -0.0000
vn -0.0000 -0.0000 -1.0000
vn 1.0000 -0.0000 -0.0000
vn -0.0000 -0.0000 1.0000
vn -0.0000 -1.0000 -0.0000
vn -0.0000 1.0000 -0.0000
vt 0.625000 0.000000
vt 0.375000 0.250000
vt 0.375000 0.000000
vt 0.625000 0.250000
vt 0.375000 0.500000
vt 0.625000 0.500000
vt 0.375000 0.750000
vt 0.625000 0.750000
vt 0.375000 1.000000
vt 0.125000 0.750000
vt 0.125000 0.500000
vt 0.875000 0.500000
vt 0.625000 1.000000
vt 0.875000 0.750000
s 0
usemtl Silver_mat.001
f 322/403/80 323/404/80 321/405/80
f 324/406/81 327/407/81 323/404/81
f 328/408/82 325/409/82 327/407/82
f 326/410/83 321/411/83 325/409/83
f 327/407/84 321/412/84 323/413/84
f 324/414/85 326/410/85 328/408/85
f 322/403/80 324/406/80 323/404/80
f 324/406/81 328/408/81 327/407/81
f 328/408/82 326/410/82 325/409/82
f 326/410/83 322/415/83 321/411/83
f 327/407/84 325/409/84 321/412/84
f 324/414/85 322/416/85 326/410/85
