# Blender 4.2.3 LTS
# www.blender.org
mtllib hint.mtl
o Cube
v -0.293307 0.039633 0.021785
v -0.293307 0.039633 -0.021785
v -0.522966 0.745595 0.021785
v -0.522966 0.745595 -0.021785
v 0.099436 0.745595 0.021785
v 0.099436 0.745595 -0.021785
v 0.000000 2.348555 -0.028793
v 0.000000 2.348555 0.028793
v 0.321524 2.329340 -0.028793
v 0.321524 2.329340 0.028793
v 0.630693 2.272434 -0.028793
v 0.630693 2.272434 0.028793
v 0.915624 2.180025 -0.028793
v 0.915624 2.180025 0.028793
v 1.165368 2.055662 -0.028793
v 1.165368 2.055662 0.028793
v 1.370327 1.904125 -0.028793
v 1.370327 1.904125 0.028793
v 1.522626 1.731238 -0.028793
v 1.522626 1.731238 0.028793
v 1.616411 1.543645 -0.028793
v 1.616411 1.543645 0.028793
v 1.648079 1.348555 -0.028793
v 1.648079 1.348555 0.028793
v 1.616411 1.153465 -0.028793
v 1.616411 1.153465 0.028793
v 1.522626 0.965872 -0.028793
v 1.522626 0.965872 0.028793
v 1.370327 0.792985 -0.028793
v 1.370327 0.792985 0.028793
v 1.165368 0.641448 -0.028793
v 1.165368 0.641448 0.028793
v 0.915624 0.517085 -0.028793
v 0.915624 0.517085 0.028793
v 0.630693 0.424675 -0.028793
v 0.630693 0.424675 0.028793
v 0.321524 0.367770 -0.028793
v 0.321524 0.367770 0.028793
v 0.000000 0.348555 -0.028793
v 0.000000 0.348555 0.028793
v -0.321524 0.367770 -0.028793
v -0.321524 0.367770 0.028793
v -0.630693 0.424675 -0.028793
v -0.630693 0.424675 0.028793
v -0.915624 0.517085 -0.028793
v -0.915624 0.517085 0.028793
v -1.165368 0.641448 -0.028793
v -1.165368 0.641448 0.028793
v -1.370328 0.792985 -0.028793
v -1.370328 0.792985 0.028793
v -1.522626 0.965872 -0.028793
v -1.522626 0.965872 0.028793
v -1.616411 1.153465 -0.028793
v -1.616411 1.153465 0.028793
v -1.648079 1.348555 -0.028793
v -1.648079 1.348555 0.028793
v -1.616411 1.543645 -0.028793
v -1.616411 1.543645 0.028793
v -1.522626 1.731238 -0.028793
v -1.522626 1.731238 0.028793
v -1.370328 1.904125 -0.028793
v -1.370328 1.904125 0.028793
v -1.165368 2.055662 -0.028793
v -1.165368 2.055662 0.028793
v -0.915624 2.180025 -0.028793
v -0.915624 2.180025 0.028793
v -0.630693 2.272434 -0.028793
v -0.630693 2.272434 0.028793
v -0.321524 2.329340 -0.028793
v -0.321524 2.329340 0.028793
vn -0.9509 -0.3094 -0.0000
vn -0.0000 1.0000 -0.0000
vn -0.0000 -0.0000 1.0000
vn -0.0000 -0.0000 -1.0000
vn 0.8739 -0.4862 -0.0000
vn -0.0597 -0.9982 -0.0000
vn -0.1810 -0.9835 -0.0000
vn -0.3085 -0.9512 -0.0000
vn -0.4458 -0.8952 -0.0000
vn -0.5945 -0.8041 -0.0000
vn -0.7504 -0.6610 -0.0000
vn -0.8944 -0.4472 -0.0000
vn -0.9871 -0.1602 -0.0000
vn -0.9871 0.1602 -0.0000
vn -0.8944 0.4472 -0.0000
vn -0.7504 0.6610 -0.0000
vn -0.5945 0.8041 -0.0000
vn -0.4458 0.8952 -0.0000
vn -0.3085 0.9512 -0.0000
vn -0.1810 0.9835 -0.0000
vn -0.0597 0.9982 -0.0000
vn 0.0597 0.9982 -0.0000
vn 0.1810 0.9835 -0.0000
vn 0.3085 0.9512 -0.0000
vn 0.4458 0.8952 -0.0000
vn 0.5945 0.8041 -0.0000
vn 0.7504 0.6610 -0.0000
vn 0.8944 0.4472 -0.0000
vn 0.9871 0.1602 -0.0000
vn 0.9871 -0.1602 -0.0000
vn 0.8944 -0.4472 -0.0000
vn 0.7504 -0.6610 -0.0000
vn 0.5945 -0.8041 -0.0000
vn 0.4458 -0.8952 -0.0000
vn 0.3085 -0.9512 -0.0000
vn 0.1810 -0.9835 -0.0000
vn 0.0597 -0.9982 -0.0000
vt 0.625000 0.000000
vt 0.375000 0.250000
vt 0.375000 0.000000
vt 0.625000 0.250000
vt 0.375000 0.500000
vt 0.625000 0.500000
vt 1.960788 2.028868
vt 1.899575 1.008253
vt 1.960788 1.008253
vt 1.899575 2.028868
vt 1.838361 1.008253
vt 1.838361 2.028868
vt 1.777147 1.008253
vt 1.777147 2.028868
vt 1.715933 1.008253
vt 1.715933 2.028868
vt 1.654719 1.008253
vt 1.654719 2.028868
vt 1.593506 1.008253
vt 1.593506 2.028868
vt 1.532292 1.008253
vt 1.532292 2.028868
vt 1.471078 1.008253
vt 1.471078 2.028868
vt 1.409864 1.008253
vt 1.409864 2.028868
vt 1.348650 1.008253
vt 1.348650 2.028868
vt 1.287437 1.008253
vt 1.287437 2.028868
vt 1.226223 1.008253
vt 1.226223 2.028868
vt 1.165009 1.008253
vt 1.165009 2.028868
vt 1.103795 1.008253
vt 1.103795 2.028868
vt 1.042581 1.008253
vt 1.042581 2.028868
vt 0.981368 1.008253
vt 0.981368 2.028868
vt 0.920154 1.008253
vt 0.920154 2.028868
vt 0.858940 1.008253
vt 0.858940 2.028868
vt 0.797726 1.008253
vt 0.797726 2.028868
vt 0.736512 1.008253
vt 0.736512 2.028868
vt 0.675299 1.008253
vt 0.675299 2.028868
vt 0.614085 1.008253
vt 0.614085 2.028868
vt 0.552871 1.008253
vt 0.552871 2.028868
vt 0.491657 1.008253
vt 0.491657 2.028868
vt 0.430443 1.008253
vt 0.430443 2.028868
vt 0.369230 1.008253
vt 0.369230 2.028868
vt 0.308016 1.008253
vt 0.308016 2.028868
vt 0.246802 1.008253
vt 0.246802 2.028868
vt 0.185588 1.008253
vt 0.185588 2.028868
vt 0.124374 1.008253
vt 0.311749 0.045341
vt 0.925993 0.310470
vt 0.671565 0.950549
vt 0.124374 2.028868
vt 0.063161 1.008253
vt 0.063161 2.028868
vt 0.001947 1.008253
vt 1.562794 0.017463
vt 1.009989 0.402371
vt 1.379362 0.978427
vt 0.583373 0.978427
vt 0.491657 0.987840
vt 0.399941 0.978427
vt 0.311749 0.950549
vt 0.230471 0.905278
vt 0.159231 0.844353
vt 0.100765 0.770116
vt 0.057321 0.685420
vt 0.030568 0.593519
vt 0.021535 0.497945
vt 0.030568 0.402371
vt 0.057321 0.310470
vt 0.100765 0.225774
vt 0.159231 0.151537
vt 0.230471 0.090612
vt 0.399941 0.017463
vt 0.491657 0.008050
vt 0.583373 0.017463
vt 0.671565 0.045341
vt 0.752843 0.090612
vt 0.824084 0.151537
vt 0.882549 0.225774
vt 0.952746 0.402371
vt 0.961779 0.497945
vt 0.952746 0.593519
vt 0.925993 0.685420
vt 0.882549 0.770116
vt 0.824084 0.844353
vt 0.752843 0.905278
vt 0.001947 2.028868
vt 1.471078 0.987840
vt 1.562794 0.978427
vt 1.650986 0.950549
vt 1.732264 0.905278
vt 1.803504 0.844353
vt 1.861970 0.770116
vt 1.905414 0.685420
vt 1.932167 0.593519
vt 1.941200 0.497945
vt 1.932167 0.402371
vt 1.905414 0.310470
vt 1.861970 0.225774
vt 1.803504 0.151537
vt 1.732264 0.090612
vt 1.650986 0.045341
vt 1.471078 0.008050
vt 1.379362 0.017463
vt 1.291170 0.045341
vt 1.209893 0.090612
vt 1.138651 0.151537
vt 1.080186 0.225774
vt 1.036742 0.310470
vt 1.000956 0.497945
vt 1.009989 0.593519
vt 1.036742 0.685420
vt 1.080186 0.770116
vt 1.138651 0.844353
vt 1.209893 0.905278
vt 1.291170 0.950549
s 0
usemtl Material.002
f 2/1/1 1/3/1 3/2/1
f 4/4/2 3/2/2 5/5/2
f 3/2/3 1/3/3 5/5/3
f 4/4/4 6/6/4 2/1/4
f 5/5/5 1/3/5 2/1/5
f 8/7/6 7/9/6 9/8/6
f 10/10/7 9/8/7 11/11/7
f 12/12/8 11/11/8 13/13/8
f 14/14/9 13/13/9 15/15/9
f 16/16/10 15/15/10 17/17/10
f 18/18/11 17/17/11 19/19/11
f 20/20/12 19/19/12 21/21/12
f 22/22/13 21/21/13 23/23/13
f 24/24/14 23/23/14 25/25/14
f 26/26/15 25/25/15 27/27/15
f 28/28/16 27/27/16 29/29/16
f 30/30/17 29/29/17 31/31/17
f 32/32/18 31/31/18 33/33/18
f 34/34/19 33/33/19 35/35/19
f 36/36/20 35/35/20 37/37/20
f 38/38/21 37/37/21 39/39/21
f 40/40/22 39/39/22 41/41/22
f 42/42/23 41/41/23 43/43/23
f 44/44/24 43/43/24 45/45/24
f 46/46/25 45/45/25 47/47/25
f 48/48/26 47/47/26 49/49/26
f 50/50/27 49/49/27 51/51/27
f 52/52/28 51/51/28 53/53/28
f 54/54/29 53/53/29 55/55/29
f 56/56/30 55/55/30 57/57/30
f 58/58/31 57/57/31 59/59/31
f 60/60/32 59/59/32 61/61/32
f 62/62/33 61/61/33 63/63/33
f 64/64/34 63/63/34 65/65/34
f 66/66/35 65/65/35 67/67/35
f 44/68/4 12/70/4 28/69/4
f 68/71/36 67/67/36 69/72/36
f 70/73/37 69/72/37 7/74/37
f 37/75/3 69/77/3 53/76/3
f 2/1/1 3/2/1 4/4/1
f 4/4/2 5/5/2 6/6/2
f 5/5/5 2/1/5 6/6/5
f 8/7/6 9/8/6 10/10/6
f 10/10/7 11/11/7 12/12/7
f 12/12/8 13/13/8 14/14/8
f 14/14/9 15/15/9 16/16/9
f 16/16/10 17/17/10 18/18/10
f 18/18/11 19/19/11 20/20/11
f 20/20/12 21/21/12 22/22/12
f 22/22/13 23/23/13 24/24/13
f 24/24/14 25/25/14 26/26/14
f 26/26/15 27/27/15 28/28/15
f 28/28/16 29/29/16 30/30/16
f 30/30/17 31/31/17 32/32/17
f 32/32/18 33/33/18 34/34/18
f 34/34/19 35/35/19 36/36/19
f 36/36/20 37/37/20 38/38/20
f 38/38/21 39/39/21 40/40/21
f 40/40/22 41/41/22 42/42/22
f 42/42/23 43/43/23 44/44/23
f 44/44/24 45/45/24 46/46/24
f 46/46/25 47/47/25 48/48/25
f 48/48/26 49/49/26 50/50/26
f 50/50/27 51/51/27 52/52/27
f 52/52/28 53/53/28 54/54/28
f 54/54/29 55/55/29 56/56/29
f 56/56/30 57/57/30 58/58/30
f 58/58/31 59/59/31 60/60/31
f 60/60/32 61/61/32 62/62/32
f 62/62/33 63/63/33 64/64/33
f 64/64/34 65/65/34 66/66/34
f 66/66/35 67/67/35 68/71/35
f 12/70/4 8/79/4 10/78/4
f 8/79/4 68/81/4 70/80/4
f 68/81/4 64/83/4 66/82/4
f 64/83/4 60/85/4 62/84/4
f 60/85/4 56/87/4 58/86/4
f 56/87/4 52/89/4 54/88/4
f 52/89/4 48/91/4 50/90/4
f 48/91/4 44/68/4 46/92/4
f 44/68/4 40/94/4 42/93/4
f 40/94/4 36/96/4 38/95/4
f 36/96/4 32/98/4 34/97/4
f 32/98/4 28/69/4 30/99/4
f 28/69/4 24/101/4 26/100/4
f 24/101/4 20/103/4 22/102/4
f 20/103/4 16/105/4 18/104/4
f 16/105/4 12/70/4 14/106/4
f 12/70/4 68/81/4 8/79/4
f 68/81/4 60/85/4 64/83/4
f 60/85/4 52/89/4 56/87/4
f 52/89/4 44/68/4 48/91/4
f 44/68/4 36/96/4 40/94/4
f 36/96/4 28/69/4 32/98/4
f 28/69/4 20/103/4 24/101/4
f 20/103/4 12/70/4 16/105/4
f 12/70/4 60/85/4 68/81/4
f 60/85/4 44/68/4 52/89/4
f 44/68/4 28/69/4 36/96/4
f 28/69/4 12/70/4 20/103/4
f 12/70/4 44/68/4 60/85/4
f 68/71/36 69/72/36 70/73/36
f 70/73/37 7/74/37 8/107/37
f 69/77/3 9/109/3 7/108/3
f 9/109/3 13/111/3 11/110/3
f 13/111/3 17/113/3 15/112/3
f 17/113/3 21/115/3 19/114/3
f 21/115/3 25/117/3 23/116/3
f 25/117/3 29/119/3 27/118/3
f 29/119/3 33/121/3 31/120/3
f 33/121/3 37/75/3 35/122/3
f 37/75/3 41/124/3 39/123/3
f 41/124/3 45/126/3 43/125/3
f 45/126/3 49/128/3 47/127/3
f 49/128/3 53/76/3 51/129/3
f 53/76/3 57/131/3 55/130/3
f 57/131/3 61/133/3 59/132/3
f 61/133/3 65/135/3 63/134/3
f 65/135/3 69/77/3 67/136/3
f 69/77/3 13/111/3 9/109/3
f 13/111/3 21/115/3 17/113/3
f 21/115/3 29/119/3 25/117/3
f 29/119/3 37/75/3 33/121/3
f 37/75/3 45/126/3 41/124/3
f 45/126/3 53/76/3 49/128/3
f 53/76/3 61/133/3 57/131/3
f 61/133/3 69/77/3 65/135/3
f 69/77/3 21/115/3 13/111/3
f 21/115/3 37/75/3 29/119/3
f 37/75/3 53/76/3 45/126/3
f 53/76/3 69/77/3 61/133/3
f 69/77/3 37/75/3 21/115/3
