# Blender 4.2.3 LTS
# www.blender.org
mtllib key.mtl
o Key_Hilt
v 0.002059 0.003029 -0.008893
v 0.000003 0.001838 -0.008893
v -0.002056 0.003024 -0.008893
v -0.002059 0.005400 -0.008891
v -0.000003 0.006590 -0.008891
v 0.002056 0.005405 -0.008891
v 0.001314 0.003461 -0.015694
v 0.000002 0.002701 -0.015694
v -0.001312 0.003458 -0.015694
v -0.001314 0.004975 -0.015693
v -0.000002 0.005734 -0.015693
v 0.001312 0.004978 -0.015693
v 0.002693 0.002665 -0.009834
v 0.002689 0.005772 -0.009832
v -0.000004 0.007322 -0.009831
v -0.002693 0.005765 -0.009832
v -0.002689 0.002658 -0.009834
v 0.000004 0.001108 -0.009835
v 0.002730 0.002644 -0.010622
v 0.002726 0.005794 -0.010621
v -0.000004 0.007365 -0.010620
v -0.002730 0.005786 -0.010621
v -0.002726 0.002637 -0.010622
v 0.000004 0.001066 -0.010623
v 0.002457 0.002801 -0.011259
v 0.002454 0.005636 -0.011257
v -0.000004 0.007051 -0.011257
v -0.002457 0.005630 -0.011257
v -0.002454 0.002795 -0.011259
v 0.000004 0.001380 -0.011260
v 0.002197 0.002951 -0.011004
v 0.002194 0.005486 -0.011003
v -0.000003 0.006751 -0.011002
v -0.002197 0.005480 -0.011003
v -0.002194 0.002945 -0.011004
v 0.000003 0.001680 -0.011005
v 0.002196 0.002951 -0.010816
v 0.002193 0.005485 -0.010815
v -0.000003 0.006749 -0.010814
v -0.002196 0.005479 -0.010815
v -0.002193 0.002946 -0.010816
v 0.000003 0.001681 -0.010817
v 0.002060 0.003029 -0.009672
v 0.002057 0.005406 -0.009671
v -0.000003 0.006592 -0.009670
v -0.002060 0.005401 -0.009671
v -0.002057 0.003023 -0.009672
v 0.000003 0.001838 -0.009673
v 0.001613 0.003286 -0.008892
v 0.000002 0.002353 -0.008893
v -0.001611 0.003282 -0.008892
v -0.001613 0.005143 -0.008891
v -0.000002 0.006075 -0.008891
v 0.001611 0.005147 -0.008891
v -0.006415 0.004112 0.017433
v -0.001538 0.004112 0.017433
v -0.006415 0.004114 0.014067
v -0.001538 0.004114 0.014067
v -0.005508 0.004112 0.017433
v -0.005508 0.004114 0.014067
v -0.004910 0.004112 0.017433
v -0.004910 0.004114 0.014067
v -0.003608 0.004112 0.017433
v -0.003608 0.004114 0.014067
v -0.003056 0.004112 0.017433
v -0.003056 0.004114 0.014067
v -0.006415 0.004113 0.015364
v -0.005508 0.004113 0.015364
v -0.004910 0.004113 0.015364
v -0.003608 0.004113 0.015364
v -0.003056 0.004113 0.015364
v -0.001538 0.004113 0.015364
v -0.006415 0.004478 0.017434
v -0.001538 0.004478 0.017434
v -0.006415 0.004480 0.014067
v -0.001538 0.004480 0.014067
v -0.005508 0.004478 0.017434
v -0.005508 0.004480 0.014067
v -0.004910 0.004478 0.017434
v -0.004910 0.004480 0.014067
v -0.003608 0.004478 0.017434
v -0.003608 0.004480 0.014067
v -0.003056 0.004478 0.017434
v -0.003056 0.004480 0.014067
v -0.006415 0.004479 0.015364
v -0.005508 0.004479 0.015364
v -0.004910 0.004479 0.015364
v -0.003608 0.004479 0.015364
v -0.003056 0.004479 0.015364
v -0.001538 0.004479 0.015364
v 0.000000 0.002326 0.027469
v -0.001618 0.003261 0.027470
v -0.001618 0.005129 0.027471
v -0.000000 0.006063 0.027471
v 0.001618 0.005129 0.027471
v 0.001618 0.003261 0.027470
v 0.000000 0.002346 -0.008893
v -0.001618 0.003280 -0.008892
v -0.001618 0.005149 -0.008891
v -0.000000 0.006083 -0.008891
v 0.001618 0.005149 -0.008891
v 0.001618 0.003280 -0.008892
v 0.000000 0.002326 0.028085
v -0.001618 0.003260 0.028085
v -0.001618 0.005129 0.028086
v -0.000000 0.006063 0.028087
v 0.001618 0.005129 0.028086
v 0.001618 0.003260 0.028085
v 0.000000 0.002326 0.028879
v -0.001618 0.003260 0.028879
v -0.001618 0.005128 0.028880
v -0.000000 0.006063 0.028881
v 0.001618 0.005128 0.028880
v 0.001618 0.003260 0.028879
v 0.000000 0.003296 0.029227
v -0.000777 0.003745 0.029227
v -0.000000 0.004194 0.029228
v -0.000777 0.004643 0.029228
v -0.000000 0.005091 0.029228
v 0.000777 0.004643 0.029228
v 0.000777 0.003745 0.029227
v 0.000000 0.002326 0.027610
v -0.001348 0.003260 0.027610
v 0.000000 0.002326 0.027865
v -0.001348 0.003260 0.027866
v -0.001348 0.005129 0.027611
v -0.001348 0.005129 0.027867
v -0.000000 0.006063 0.027612
v -0.000000 0.006063 0.027867
v 0.001348 0.005129 0.027611
v 0.001348 0.005129 0.027867
v 0.001348 0.003260 0.027610
v 0.001348 0.003260 0.027866
v 0.001314 0.003461 -0.015694
v 0.000002 0.002701 -0.015694
v -0.001312 0.003458 -0.015694
v -0.001314 0.004975 -0.015693
v -0.000002 0.005734 -0.015693
v 0.001312 0.004978 -0.015693
v 0.001570 0.003311 -0.016091
v -0.000001 0.002404 -0.016092
v -0.001572 0.003311 -0.016091
v -0.001572 0.005126 -0.016090
v -0.000001 0.006033 -0.016090
v 0.001571 0.005125 -0.016090
v 0.001453 0.003377 -0.018798
v -0.000004 0.002538 -0.018798
v -0.001459 0.003381 -0.018798
v -0.001457 0.005062 -0.018797
v 0.000001 0.005901 -0.018797
v 0.001455 0.005058 -0.018797
v -0.000002 0.004220 -0.019393
v 0.001823 0.003164 -0.017445
v 0.001825 0.005271 -0.017443
v 0.000000 0.006327 -0.017443
v -0.001826 0.005274 -0.017443
v -0.001828 0.003167 -0.017445
v -0.000003 0.002111 -0.017445
v 0.005264 0.004224 -0.027509
v 0.002036 0.004225 -0.029092
v -0.002036 0.004225 -0.029092
v -0.005055 0.004211 -0.027480
v -0.005920 0.004220 -0.019542
v -0.002036 0.004219 -0.017110
v 0.002036 0.004219 -0.017110
v 0.005632 0.004220 -0.018654
v 0.005895 0.004222 -0.023812
v 0.005593 0.004930 -0.027748
v 0.002162 0.004931 -0.029479
v -0.002162 0.004931 -0.029479
v -0.005384 0.004917 -0.027719
v -0.006249 0.004925 -0.019302
v -0.002162 0.004924 -0.016723
v 0.002162 0.004924 -0.016723
v 0.005961 0.004925 -0.018415
v 0.006302 0.004927 -0.023812
v 0.006252 0.004930 -0.028227
v 0.002413 0.004931 -0.030254
v -0.002413 0.004931 -0.030254
v -0.006043 0.004917 -0.028198
v -0.006908 0.004925 -0.018823
v -0.002413 0.004923 -0.015948
v 0.002413 0.004923 -0.015948
v 0.006620 0.004924 -0.017936
v 0.007116 0.004927 -0.023812
v 0.006581 0.004225 -0.028467
v 0.002539 0.004226 -0.030641
v -0.002539 0.004226 -0.030641
v -0.006372 0.004212 -0.028438
v -0.007237 0.004219 -0.018584
v -0.002539 0.004218 -0.015561
v 0.002539 0.004218 -0.015561
v 0.006949 0.004219 -0.017697
v 0.007523 0.004222 -0.023812
v 0.006252 0.003519 -0.028228
v 0.002413 0.003521 -0.030254
v -0.002413 0.003521 -0.030254
v -0.006043 0.003506 -0.028199
v -0.006908 0.003514 -0.018824
v -0.002413 0.003513 -0.015949
v 0.002413 0.003513 -0.015949
v 0.006620 0.003514 -0.017937
v 0.007116 0.003517 -0.023812
v 0.005593 0.003519 -0.027749
v 0.002162 0.003520 -0.029480
v -0.002162 0.003520 -0.029480
v -0.005384 0.003506 -0.027720
v -0.006249 0.003515 -0.019303
v -0.002162 0.003513 -0.016723
v 0.002162 0.003513 -0.016723
v 0.005961 0.003514 -0.018415
v 0.006302 0.003517 -0.023812
v -0.006066 0.004216 -0.023705
v -0.006396 0.003511 -0.023706
v -0.007055 0.003511 -0.023706
v -0.007384 0.004216 -0.023705
v -0.007055 0.004921 -0.023705
v -0.006396 0.004921 -0.023705
v -0.004560 0.003503 -0.020296
v -0.005337 0.003325 -0.020296
v -0.005959 0.003822 -0.020296
v -0.005959 0.004619 -0.020296
v -0.005337 0.005115 -0.020295
v -0.004560 0.004938 -0.020295
v -0.004214 0.004220 -0.020296
v -0.005075 0.003678 -0.022769
v -0.005663 0.003544 -0.022769
v -0.006135 0.003920 -0.022769
v -0.006135 0.004523 -0.022768
v -0.005663 0.004900 -0.022768
v -0.005075 0.004765 -0.022768
v -0.004813 0.004222 -0.022768
v -0.003692 0.003624 -0.024519
v -0.003692 0.003476 -0.025167
v -0.003692 0.003891 -0.025687
v -0.003692 0.004556 -0.025686
v -0.003692 0.004970 -0.025167
v -0.003692 0.004821 -0.024519
v -0.003692 0.004223 -0.024231
v -0.002035 0.003438 -0.018418
v -0.002035 0.003244 -0.017572
v -0.002035 0.003785 -0.016893
v -0.002035 0.004653 -0.016893
v -0.002035 0.005194 -0.017571
v -0.002035 0.005001 -0.018417
v -0.002035 0.004220 -0.018794
v -0.004377 0.003691 -0.024031
v -0.004204 0.004410 -0.023857
v -0.004377 0.005130 -0.024030
v -0.004766 0.005307 -0.024419
v -0.005078 0.004810 -0.024732
v -0.005078 0.004012 -0.024732
v -0.004766 0.003514 -0.024420
v -0.000985 0.003438 -0.018418
v -0.000985 0.003244 -0.017572
v -0.000985 0.003785 -0.016893
v -0.000985 0.004653 -0.016893
v -0.000985 0.005194 -0.017571
v -0.000985 0.005001 -0.018417
v -0.000985 0.004220 -0.018794
v -0.003596 0.003470 -0.019029
v -0.003984 0.003284 -0.018606
v -0.004296 0.003803 -0.018266
v -0.004296 0.004635 -0.018266
v -0.003984 0.005154 -0.018605
v -0.003596 0.004969 -0.019028
v -0.003423 0.004220 -0.019216
v -0.002303 0.004223 -0.024231
v -0.002145 0.003624 -0.024484
v -0.001788 0.003476 -0.025053
v -0.001503 0.003891 -0.025509
v -0.001503 0.004555 -0.025508
v -0.001788 0.004970 -0.025052
v -0.002145 0.004821 -0.024484
v -0.001998 0.004222 -0.023638
v -0.001752 0.003624 -0.023806
v -0.001197 0.003476 -0.024185
v -0.000753 0.003890 -0.024488
v -0.000753 0.004555 -0.024487
v -0.001197 0.004969 -0.024184
v -0.001752 0.004821 -0.023806
v -0.001998 0.004222 -0.023638
v -0.001640 0.003623 -0.023636
v -0.000835 0.003476 -0.023631
v -0.000189 0.003890 -0.023626
v -0.000189 0.004554 -0.023626
v -0.000835 0.004969 -0.023630
v -0.001640 0.004821 -0.023635
v -0.002949 0.004222 -0.022715
v -0.002403 0.003623 -0.022713
v -0.001178 0.003475 -0.022708
v -0.000195 0.003889 -0.022704
v -0.000195 0.004554 -0.022703
v -0.001178 0.004968 -0.022707
v -0.002403 0.004820 -0.022712
v -0.002918 0.004221 -0.021864
v -0.002379 0.003623 -0.021862
v -0.001167 0.003475 -0.021857
v -0.000195 0.003889 -0.021852
v -0.000195 0.004554 -0.021852
v -0.001167 0.004968 -0.021856
v -0.002379 0.004820 -0.021861
v -0.002299 0.004221 -0.021236
v -0.002080 0.003622 -0.021234
v -0.001590 0.003474 -0.021229
v -0.001197 0.003889 -0.021225
v -0.001197 0.004553 -0.021225
v -0.001590 0.004967 -0.021229
v -0.002080 0.004820 -0.021234
v 0.004560 0.003503 -0.020296
v 0.005337 0.003325 -0.020296
v 0.005959 0.003822 -0.020296
v 0.005959 0.004619 -0.020296
v 0.005337 0.005115 -0.020295
v 0.004560 0.004938 -0.020295
v 0.004214 0.004220 -0.020296
v 0.005075 0.003678 -0.022769
v 0.005663 0.003544 -0.022769
v 0.006135 0.003920 -0.022769
v 0.006135 0.004523 -0.022768
v 0.005663 0.004900 -0.022768
v 0.005075 0.004765 -0.022768
v 0.004813 0.004222 -0.022768
v 0.003692 0.003624 -0.024519
v 0.003692 0.003476 -0.025167
v 0.003692 0.003891 -0.025687
v 0.003692 0.004556 -0.025686
v 0.003692 0.004970 -0.025167
v 0.003692 0.004821 -0.024519
v 0.003692 0.004223 -0.024231
v 0.002035 0.003438 -0.018418
v 0.002035 0.003244 -0.017572
v 0.002035 0.003785 -0.016893
v 0.002035 0.004653 -0.016893
v 0.002035 0.005194 -0.017571
v 0.002035 0.005001 -0.018417
v 0.002035 0.004220 -0.018794
v 0.004377 0.003691 -0.024031
v 0.004204 0.004410 -0.023857
v 0.004377 0.005130 -0.024030
v 0.004766 0.005307 -0.024419
v 0.005078 0.004810 -0.024732
v 0.005078 0.004012 -0.024732
v 0.004766 0.003514 -0.024420
v 0.000985 0.003438 -0.018418
v 0.000985 0.003244 -0.017572
v 0.000985 0.003785 -0.016893
v 0.000985 0.004653 -0.016893
v 0.000985 0.005194 -0.017571
v 0.000985 0.005001 -0.018417
v 0.000985 0.004220 -0.018794
v 0.003596 0.003470 -0.019029
v 0.003984 0.003284 -0.018606
v 0.004296 0.003803 -0.018266
v 0.004296 0.004635 -0.018266
v 0.003984 0.005154 -0.018605
v 0.003596 0.004969 -0.019028
v 0.003423 0.004220 -0.019216
v 0.002303 0.004223 -0.024231
v 0.002145 0.003624 -0.024484
v 0.001788 0.003476 -0.025053
v 0.001503 0.003891 -0.025509
v 0.001503 0.004555 -0.025508
v 0.001788 0.004970 -0.025052
v 0.002145 0.004821 -0.024484
v 0.001998 0.004222 -0.023638
v 0.001752 0.003624 -0.023806
v 0.001197 0.003476 -0.024185
v 0.000753 0.003890 -0.024488
v 0.000753 0.004555 -0.024487
v 0.001197 0.004969 -0.024184
v 0.001752 0.004821 -0.023806
v 0.001998 0.004222 -0.023638
v 0.001640 0.003623 -0.023636
v 0.000835 0.003476 -0.023631
v 0.000189 0.003890 -0.023626
v 0.000189 0.004554 -0.023626
v 0.000835 0.004969 -0.023630
v 0.001640 0.004821 -0.023635
v 0.002949 0.004222 -0.022715
v 0.002403 0.003623 -0.022713
v 0.001178 0.003475 -0.022708
v 0.000195 0.003889 -0.022704
v 0.000195 0.004554 -0.022703
v 0.001178 0.004968 -0.022707
v 0.002403 0.004820 -0.022712
v 0.002918 0.004221 -0.021864
v 0.002379 0.003623 -0.021862
v 0.001167 0.003475 -0.021857
v 0.000195 0.003889 -0.021852
v 0.000195 0.004554 -0.021852
v 0.001167 0.004968 -0.021856
v 0.002379 0.004820 -0.021861
v 0.002299 0.004221 -0.021236
v 0.002080 0.003622 -0.021234
v 0.001590 0.003474 -0.021229
v 0.001197 0.003889 -0.021225
v 0.001197 0.004553 -0.021225
v 0.001590 0.004967 -0.021229
v 0.002080 0.004820 -0.021234
v -0.006411 0.004109 0.025952
v -0.001599 0.004109 0.025952
v -0.006411 0.004110 0.024097
v -0.003524 0.004110 0.024097
v -0.001599 0.004110 0.024097
v -0.006411 0.004111 0.022669
v -0.003524 0.004111 0.022669
v -0.006411 0.004475 0.025953
v -0.001599 0.004475 0.025953
v -0.006411 0.004476 0.024097
v -0.003524 0.004476 0.024097
v -0.001599 0.004476 0.024097
v -0.006411 0.004477 0.022669
v -0.003524 0.004477 0.022669
v -0.006411 0.004479 0.018327
v -0.001599 0.004479 0.018327
v -0.006411 0.004478 0.020183
v -0.003524 0.004478 0.020183
v -0.001599 0.004478 0.020183
v -0.006411 0.004477 0.021953
v -0.003524 0.004477 0.021953
v -0.006411 0.004113 0.018327
v -0.001599 0.004113 0.018327
v -0.006411 0.004112 0.020183
v -0.003524 0.004112 0.020183
v -0.001599 0.004112 0.020183
v -0.006411 0.004111 0.021953
v -0.003524 0.004111 0.021953
v -0.003149 0.004111 0.022987
v -0.001599 0.004111 0.022987
v -0.003149 0.004111 0.021915
v -0.001599 0.004111 0.021915
v -0.003149 0.004477 0.022988
v -0.001599 0.004477 0.022988
v -0.003149 0.004477 0.021916
v -0.001599 0.004477 0.021916
vn 0.5011 -0.8654 0.0006
vn -0.4989 -0.8667 0.0006
vn -1.0000 -0.0013 0.0011
vn -0.5011 0.8654 0.0015
vn 0.4989 0.8667 0.0015
vn 1.0000 0.0013 0.0011
vn 0.9989 0.0013 0.0466
vn 0.4983 0.8657 0.0471
vn -0.5006 0.8644 0.0471
vn -0.9989 -0.0013 0.0466
vn -0.4983 -0.8658 0.0462
vn 0.5006 -0.8645 0.0462
vn 0.3415 0.0009 -0.9399
vn 0.1704 0.2965 -0.9397
vn -0.1711 0.2960 -0.9397
vn -0.3415 0.0001 -0.9399
vn -0.1704 -0.2955 -0.9400
vn 0.1711 -0.2950 -0.9400
vn 0.9684 0.0014 -0.2494
vn 0.4831 0.8394 -0.2489
vn -0.4853 0.8382 -0.2489
vn -0.9684 -0.0011 -0.2494
vn -0.4831 -0.8392 -0.2498
vn 0.4853 -0.8379 -0.2498
vn 0.7000 0.0005 0.7141
vn 0.3492 0.6063 0.7144
vn -0.3508 0.6054 0.7144
vn -0.7000 -0.0013 0.7141
vn -0.3492 -0.6071 0.7138
vn 0.3508 -0.6062 0.7138
vn 1.0000 0.0013 0.0062
vn 1.0000 0.0013 0.0061
vn 0.4989 0.8667 0.0066
vn -0.5011 0.8654 0.0066
vn -1.0000 -0.0013 0.0062
vn -1.0000 -0.0013 0.0061
vn -0.4989 -0.8667 0.0057
vn 0.5011 -0.8654 0.0057
vn 0.2477 -0.0002 0.9688
vn 0.1236 0.2142 0.9689
vn -0.1241 0.2138 0.9689
vn -0.2477 -0.0008 0.9688
vn -0.1236 -0.2152 0.9687
vn 0.1241 -0.2149 0.9687
vn -0.0000 -0.0005 1.0000
vn -0.0000 -1.0000 -0.0005
vn -0.0000 1.0000 0.0005
vn 1.0000 -0.0000 -0.0000
vn -0.0000 0.0005 -1.0000
vn -1.0000 -0.0000 -0.0000
vn -0.5000 -0.8660 -0.0005
vn -0.5000 0.8660 0.0005
vn 0.5000 0.8660 0.0005
vn 0.5000 -0.8660 -0.0005
vn -0.5695 -0.8220 -0.0004
vn -0.5695 0.8220 0.0004
vn 0.5695 0.8220 0.0004
vn 0.5695 -0.8220 -0.0004
vn -0.1911 -0.3316 0.9239
vn -0.3823 -0.0005 0.9240
vn -0.1911 0.3306 0.9242
vn 0.1911 0.3306 0.9242
vn 0.3823 -0.0005 0.9240
vn 0.1911 -0.3316 0.9239
vn -0.5650 -0.8234 0.0517
vn -0.3720 -0.6388 0.6735
vn -0.3610 -0.6257 0.6915
vn -0.5630 -0.8248 -0.0524
vn -0.4380 -0.7487 -0.4977
vn -0.4626 -0.0005 0.8866
vn -0.6311 0.0004 -0.7757
vn -0.5650 0.8234 0.0526
vn -0.3720 0.6380 0.6742
vn -0.5630 0.8249 -0.0516
vn -0.4380 0.7492 -0.4969
vn -0.4260 0.7381 -0.5232
vn 0.5650 0.8234 0.0526
vn 0.3720 0.6380 0.6742
vn 0.3610 0.6249 0.6922
vn 0.5630 0.8249 -0.0516
vn 0.4380 0.7492 -0.4969
vn 0.4626 -0.0005 0.8866
vn 0.6311 0.0004 -0.7757
vn 0.5650 -0.8234 0.0517
vn 0.3720 -0.6388 0.6735
vn 0.5630 -0.8248 -0.0524
vn 0.4380 -0.7487 -0.4977
vn 0.4260 -0.7375 -0.5240
vn 0.4199 -0.7276 0.5425
vn 0.4199 -0.7259 0.5448
vn 0.4198 -0.7253 0.5456
vn -0.4195 -0.7269 0.5438
vn -0.4180 -0.7260 0.5461
vn -0.4175 -0.7256 0.5469
vn -0.8385 -0.0003 0.5448
vn -0.8370 -0.0011 0.5472
vn -0.8365 -0.0014 0.5480
vn -0.4195 0.7263 0.5446
vn -0.4194 0.7246 0.5469
vn -0.4194 0.7240 0.5477
vn 0.4199 0.7270 0.5433
vn 0.4184 0.7261 0.5456
vn 0.4179 0.7258 0.5464
vn 0.8402 -0.0003 0.5422
vn 0.8387 0.0005 0.5446
vn 0.8382 0.0008 0.5454
vn 0.4992 -0.8658 -0.0353
vn 0.4910 -0.8516 0.1837
vn 0.4988 -0.8660 -0.0360
vn -0.4919 -0.8510 0.1841
vn -0.5002 -0.8652 -0.0348
vn -0.4915 -0.8511 0.1846
vn -0.9828 0.0005 0.1847
vn -0.9994 0.0006 -0.0342
vn -0.9827 0.0001 0.1853
vn -0.4909 0.8513 0.1850
vn -0.4992 0.8658 -0.0340
vn -0.4912 0.8511 0.1855
vn 0.4919 0.8508 0.1846
vn 0.5002 0.8652 -0.0344
vn 0.4915 0.8509 0.1852
vn 0.9829 -0.0007 0.1840
vn 0.9994 -0.0006 -0.0350
vn 0.9828 -0.0003 0.1845
vn 0.1888 -0.3276 -0.9257
vn -0.1898 -0.3271 -0.9257
vn -0.3786 0.0011 -0.9256
vn -0.1888 0.3286 -0.9254
vn 0.1898 0.3281 -0.9254
vn 0.3786 -0.0001 -0.9256
vn 0.9994 -0.0010 -0.0357
vn 0.9647 -0.0009 -0.2634
vn 0.5005 0.8650 -0.0350
vn 0.4833 0.8351 -0.2628
vn -0.4988 0.8660 -0.0347
vn -0.4815 0.8362 -0.2624
vn -0.9994 0.0010 -0.0350
vn -0.9649 0.0012 -0.2627
vn -0.5006 -0.8650 -0.0357
vn -0.4833 -0.8349 -0.2633
vn 0.4815 -0.8359 -0.2637
vn 0.4810 -0.8359 -0.2642
vn -0.6959 0.5045 0.5111
vn -0.8692 0.4933 0.0345
vn -0.7003 0.4998 0.5098
vn -0.1894 0.4956 0.8476
vn 0.1868 0.4984 0.8466
vn 0.1962 0.4964 0.8456
vn 0.6941 0.4972 0.5206
vn 0.6987 0.4984 0.5132
vn 0.9001 0.4254 0.0938
vn 0.2552 0.4992 -0.8281
vn 0.7469 0.4993 -0.4392
vn 0.7305 0.5000 -0.4651
vn -0.1774 0.4951 -0.8505
vn 0.2497 0.5001 -0.8292
vn -0.7459 0.5054 -0.4338
vn -0.7468 0.4997 -0.4389
vn -0.0017 1.0000 0.0012
vn -0.0002 1.0000 0.0007
vn -0.0001 1.0000 0.0007
vn -0.0040 1.0000 -0.0012
vn -0.0004 1.0000 -0.0004
vn -0.0006 1.0000 -0.0006
vn 0.6974 0.5035 -0.5100
vn 0.8683 0.4951 -0.0288
vn 0.7003 0.5002 -0.5092
vn 0.2019 0.4977 -0.8435
vn -0.2094 0.4984 -0.8413
vn 0.1920 0.4994 -0.8449
vn -0.7087 0.4984 -0.4993
vn -0.7088 0.4995 -0.4981
vn -0.9017 0.4248 -0.0809
vn -0.2573 0.4987 0.8277
vn -0.7504 0.4984 0.4342
vn -0.7348 0.4991 0.4593
vn 0.1798 0.4977 0.8485
vn 0.1917 0.4957 0.8471
vn 0.7429 0.5025 0.4422
vn 0.7412 0.4982 0.4498
vn 0.6974 -0.5030 -0.5106
vn 0.8683 -0.4951 -0.0293
vn 0.8660 -0.4989 -0.0333
vn 0.2020 -0.4968 -0.8440
vn 0.1920 -0.4985 -0.8454
vn -0.2077 -0.4974 -0.8423
vn -0.1999 -0.4988 -0.8433
vn -0.7084 -0.4980 -0.5002
vn -0.9018 -0.4248 -0.0800
vn -0.9028 -0.4213 -0.0868
vn -0.2573 -0.4995 0.8272
vn -0.7502 -0.4988 0.4340
vn -0.2525 -0.5002 0.8283
vn 0.1798 -0.4986 0.8480
vn 0.7429 -0.5030 0.4417
vn 0.1917 -0.4967 0.8465
vn 0.0017 -1.0000 -0.0012
vn 0.0017 -1.0000 -0.0011
vn 0.0007 -1.0000 -0.0012
vn -0.0000 -1.0000 0.0010
vn 0.0005 -1.0000 0.0002
vn -0.6959 -0.5050 0.5105
vn -0.8691 -0.4935 0.0340
vn -0.8661 -0.4985 0.0374
vn -0.1894 -0.4965 0.8471
vn -0.7003 -0.5003 0.5092
vn 0.1880 -0.4994 0.8457
vn -0.1777 -0.4989 0.8483
vn 0.6944 -0.4977 0.5197
vn 0.1983 -0.4974 0.8445
vn 0.9000 -0.4255 0.0949
vn 0.6995 -0.4990 0.5116
vn 0.7470 -0.4988 -0.4395
vn 0.2551 -0.4983 -0.8286
vn 0.7312 -0.4994 -0.4647
vn -0.1641 -0.4969 -0.8521
vn 0.2499 -0.4992 -0.8297
vn -0.7459 -0.5049 -0.4344
vn -0.1774 -0.4942 -0.8510
vn -0.7468 -0.4992 -0.4394
vn 0.2211 -0.9685 -0.1148
vn -0.6234 -0.7818 0.0133
vn -0.9975 -0.0000 0.0708
vn -0.6234 0.7818 0.0141
vn -0.6234 0.7817 0.0141
vn 0.2211 0.9686 -0.1137
vn 0.8802 0.4240 -0.2130
vn 0.8802 -0.4238 -0.2135
vn 0.0104 0.0005 -0.9999
vn 0.0103 0.0005 -0.9999
vn 0.2309 -0.9630 0.1391
vn 0.2063 -0.9575 0.2018
vn 0.2217 -0.9515 0.2134
vn -0.5998 -0.7195 -0.3501
vn -0.5699 -0.6769 -0.4658
vn -0.5825 -0.6624 -0.4710
vn -0.8806 0.0003 -0.4739
vn -0.7623 0.0003 -0.6472
vn -0.6313 0.7431 -0.2221
vn -0.5567 0.6902 -0.4623
vn -0.6087 0.7634 -0.2162
vn 0.1925 0.9211 0.3384
vn 0.2588 0.9393 0.2253
vn 0.2093 0.9168 0.3402
vn 0.7829 0.3560 0.5102
vn 0.7342 0.3330 0.5916
vn 0.7402 0.3227 0.5899
vn 0.8213 -0.3659 0.4376
vn 0.7311 -0.3477 0.5870
vn 0.7488 -0.3221 0.5793
vn 0.2205 -0.9550 -0.1984
vn 0.1645 -0.9551 -0.2462
vn 0.2182 -0.9557 -0.1976
vn -0.5624 -0.6928 0.4514
vn -0.4782 -0.6769 0.5596
vn -0.5567 -0.6984 0.4498
vn -0.7734 -0.0003 0.6339
vn -0.6518 -0.0004 0.7584
vn -0.5624 0.6923 0.4521
vn -0.4782 0.6763 0.5603
vn -0.4783 0.6635 0.5754
vn 0.2206 0.9552 -0.1973
vn 0.1645 0.9554 -0.2452
vn 0.1627 0.9506 -0.2643
vn 0.7469 0.3455 -0.5682
vn 0.5371 0.3479 -0.7684
vn 0.5275 0.3211 -0.7865
vn 0.7468 -0.3448 -0.5686
vn 0.5371 -0.3470 -0.7688
vn 0.7395 -0.3558 -0.5715
vn 0.4995 -0.3451 0.7946
vn 0.6371 0.3285 0.6973
vn 0.4191 0.8945 0.1554
vn 0.4192 0.8850 0.2025
vn -0.2801 0.7286 -0.6250
vn -0.2746 0.7521 -0.5991
vn -0.5671 0.0004 -0.8236
vn -0.4455 -0.6910 -0.5693
vn 0.1212 -0.9626 0.2421
vn -0.0000 -0.9748 -0.2230
vn -0.0000 -0.7822 0.6231
vn -0.0000 0.7815 0.6239
vn -0.0000 0.9750 -0.2220
vn -0.0000 0.4344 -0.9007
vn -0.0000 -0.4334 -0.9012
vn 0.0987 -0.9666 -0.2365
vn 0.0976 -0.9702 -0.2220
vn -0.3603 -0.7193 0.5940
vn -0.3591 -0.7300 0.5815
vn -0.5191 -0.0005 0.8547
vn -0.3603 0.7186 0.5947
vn 0.0986 0.9669 -0.2355
vn 0.3128 0.3797 -0.8706
vn 0.3128 -0.3787 -0.8710
vn 0.3250 -0.4099 -0.8523
vn -0.0059 -0.4233 0.9060
vn -0.0158 -0.4044 0.9145
vn -0.0000 -0.4343 0.9007
vn -0.0074 -0.9739 0.2270
vn -0.0128 -0.9710 0.2386
vn -0.0051 -0.9750 0.2220
vn 0.0407 -0.7757 -0.6298
vn 0.0505 -0.7595 -0.6485
vn 0.0375 -0.7809 -0.6235
vn 0.0810 0.0005 -0.9967
vn 0.0407 0.7764 -0.6290
vn 0.0505 0.7602 -0.6477
vn 0.0531 0.7558 -0.6527
vn -0.0074 0.9736 0.2280
vn -0.0128 0.9708 0.2396
vn -0.0146 0.9698 0.2436
vn -0.0059 0.4223 0.9064
vn -0.0158 0.4034 0.9149
vn -0.0209 0.3935 0.9191
vn -0.7946 -0.4221 0.4365
vn -0.7949 -0.4242 0.4339
vn -0.7972 -0.4438 0.4093
vn -0.1910 -0.9739 0.1225
vn -0.1849 -0.9757 0.1176
vn -0.1884 -0.9754 0.1143
vn 0.5113 -0.7768 -0.3677
vn 0.5080 -0.7844 -0.3559
vn 0.5044 -0.7922 -0.3437
vn 0.8060 0.0003 -0.5919
vn 0.5113 0.7772 -0.3668
vn 0.5080 0.7848 -0.3550
vn 0.5142 0.7703 -0.3772
vn -0.1910 0.9738 0.1236
vn -0.1849 0.9756 0.1187
vn -0.1935 0.9722 0.1322
vn -0.7946 0.4216 0.4370
vn -0.7949 0.4237 0.4343
vn -0.7916 0.4033 0.4590
vn -0.1165 -0.0689 -0.9908
vn -0.7487 -0.4465 0.4899
vn -0.0008 -0.0000 -1.0000
vn -0.1801 -0.9766 0.1174
vn 0.5105 -0.7921 -0.3346
vn 0.8367 0.0003 -0.5477
vn 0.5105 0.7925 -0.3338
vn -0.1801 0.9765 0.1184
vn -0.7487 0.4460 0.4904
vn 0.3256 -0.8484 -0.4175
vn -0.6639 -0.4604 -0.5893
vn -0.6221 -0.5040 -0.5992
vn -0.5874 -0.5371 -0.6054
vn -0.1484 -0.9854 -0.0836
vn -0.1452 -0.9857 -0.0853
vn -0.1188 -0.9880 -0.0988
vn 0.4596 -0.8847 0.0777
vn 0.4550 -0.8867 0.0818
vn 0.3840 -0.9123 0.1422
vn 1.0000 -0.0000 0.0063
vn 1.0000 -0.0000 0.0032
vn 0.4596 0.8846 0.0787
vn 0.4550 0.8866 0.0827
vn 0.5400 0.8416 0.0039
vn -0.1484 0.9855 -0.0826
vn -0.1452 0.9858 -0.0843
vn -0.1798 0.9815 -0.0663
vn -0.6639 0.4611 -0.5888
vn -0.6221 0.5046 -0.5986
vn -0.6990 0.4209 -0.5781
vn -0.7408 -0.6713 0.0237
vn -0.7410 -0.6711 0.0235
vn -0.7390 -0.6732 0.0262
vn -0.1206 -0.9927 0.0018
vn -0.1203 -0.9927 0.0022
vn -0.1198 -0.9928 0.0029
vn 0.3905 -0.9206 -0.0026
vn 0.3900 -0.9208 -0.0033
vn 0.3884 -0.9215 -0.0055
vn 0.3905 0.9206 -0.0017
vn 0.3900 0.9208 -0.0024
vn 0.3921 0.9199 0.0005
vn -0.1206 0.9927 0.0028
vn -0.1203 0.9927 0.0033
vn -0.1211 0.9926 0.0021
vn -0.7408 0.6712 0.0244
vn -0.7410 0.6711 0.0243
vn -0.7428 0.6691 0.0218
vn -0.7225 -0.4508 0.5242
vn -0.7399 -0.4360 0.5123
vn -0.5996 -0.5383 0.5922
vn -0.1915 -0.9815 0.0088
vn -0.1733 -0.9848 -0.0146
vn -0.2874 -0.9481 0.1363
vn 0.4522 -0.7358 0.5040
vn 0.5069 -0.7096 0.4894
vn 0.6498 -0.6211 0.4382
vn 0.5305 -0.0005 0.8477
vn 0.4522 0.7353 0.5048
vn 0.5069 0.7091 0.4902
vn 0.3309 0.7813 0.5292
vn -0.1915 0.9815 0.0098
vn -0.1733 0.9848 -0.0136
vn -0.1204 0.9894 -0.0807
vn -0.7225 0.4502 0.5247
vn -0.7399 0.4354 0.5127
vn -0.8581 0.3109 0.4086
vn -0.2211 -0.9685 -0.1148
vn 0.6234 -0.7818 0.0133
vn 0.9975 -0.0000 0.0708
vn 0.6234 0.7818 0.0141
vn 0.6234 0.7817 0.0141
vn -0.2211 0.9686 -0.1137
vn -0.8802 0.4240 -0.2130
vn -0.8802 -0.4238 -0.2135
vn -0.0104 0.0005 -0.9999
vn -0.2309 -0.9630 0.1391
vn -0.2063 -0.9575 0.2018
vn -0.2204 -0.9657 0.1374
vn 0.5998 -0.7195 -0.3501
vn 0.5699 -0.6769 -0.4658
vn 0.5844 -0.7327 -0.3487
vn 0.7623 0.0003 -0.6472
vn 0.8806 0.0003 -0.4739
vn 0.5567 0.6902 -0.4623
vn 0.6313 0.7431 -0.2221
vn 0.6087 0.7634 -0.2162
vn -0.2588 0.9393 0.2253
vn -0.1925 0.9211 0.3384
vn -0.2093 0.9168 0.3402
vn -0.7829 0.3560 0.5102
vn -0.7342 0.3330 0.5916
vn -0.7797 0.3752 0.5013
vn -0.8213 -0.3659 0.4376
vn -0.7311 -0.3479 0.5870
vn -0.8078 -0.3892 0.4427
vn -0.1646 -0.9551 -0.2462
vn -0.2205 -0.9550 -0.1984
vn -0.2182 -0.9557 -0.1976
vn 0.4782 -0.6769 0.5596
vn 0.5624 -0.6928 0.4514
vn 0.5567 -0.6984 0.4498
vn 0.6518 -0.0004 0.7584
vn 0.7734 -0.0003 0.6339
vn 0.5624 0.6923 0.4521
vn 0.4782 0.6763 0.5603
vn 0.5567 0.6979 0.4505
vn -0.2206 0.9552 -0.1973
vn -0.1645 0.9554 -0.2452
vn -0.2182 0.9559 -0.1966
vn -0.7469 0.3455 -0.5682
vn -0.5371 0.3479 -0.7684
vn -0.7395 0.3564 -0.5711
vn -0.5371 -0.3470 -0.7688
vn -0.7468 -0.3448 -0.5686
vn -0.7395 -0.3558 -0.5715
vn -0.4995 -0.3451 0.7946
vn -0.7488 -0.3221 0.5793
vn -0.6371 0.3285 0.6973
vn -0.7402 0.3227 0.5899
vn -0.4191 0.8945 0.1554
vn -0.2364 0.9523 0.1930
vn 0.2801 0.7286 -0.6250
vn 0.5854 0.6611 -0.4692
vn 0.5671 0.0004 -0.8236
vn 0.7647 0.0003 -0.6444
vn 0.4455 -0.6910 -0.5693
vn 0.5825 -0.6624 -0.4710
vn -0.1212 -0.9626 0.2421
vn -0.2217 -0.9515 0.2134
vn -0.0987 -0.9666 -0.2365
vn -0.1627 -0.9504 -0.2653
vn 0.3603 -0.7193 0.5940
vn 0.4782 -0.6641 0.5747
vn 0.5191 -0.0005 0.8547
vn 0.3603 0.7186 0.5947
vn 0.4783 0.6635 0.5754
vn -0.0986 0.9669 -0.2355
vn -0.1627 0.9506 -0.2643
vn -0.3128 0.3797 -0.8706
vn -0.5275 0.3211 -0.7865
vn -0.3128 -0.3787 -0.8710
vn -0.5275 -0.3202 -0.7869
vn 0.0158 -0.4044 0.9145
vn 0.0059 -0.4233 0.9060
vn 0.0128 -0.9710 0.2386
vn 0.0074 -0.9739 0.2270
vn 0.0051 -0.9750 0.2220
vn -0.0505 -0.7595 -0.6485
vn -0.0407 -0.7757 -0.6298
vn -0.0375 -0.7809 -0.6235
vn -0.0810 0.0005 -0.9967
vn -0.0407 0.7764 -0.6290
vn -0.0505 0.7602 -0.6477
vn -0.0375 0.7816 -0.6226
vn 0.0074 0.9736 0.2280
vn 0.0128 0.9708 0.2396
vn 0.0051 0.9748 0.2230
vn 0.0059 0.4223 0.9064
vn 0.0158 0.4034 0.9149
vn -0.0000 0.4334 0.9012
vn 0.7946 -0.4221 0.4365
vn 0.7949 -0.4242 0.4339
vn 0.7916 -0.4038 0.4586
vn 0.1910 -0.9739 0.1225
vn 0.1849 -0.9757 0.1176
vn 0.1935 -0.9723 0.1311
vn -0.5113 -0.7768 -0.3677
vn -0.5080 -0.7844 -0.3559
vn -0.5142 -0.7699 -0.3780
vn -0.8060 0.0003 -0.5919
vn -0.5080 0.7848 -0.3550
vn -0.5113 0.7772 -0.3668
vn -0.5142 0.7703 -0.3772
vn 0.1849 0.9756 0.1187
vn 0.1910 0.9738 0.1236
vn 0.1935 0.9722 0.1322
vn 0.7949 0.4237 0.4343
vn 0.7946 0.4216 0.4370
vn 0.7916 0.4033 0.4590
vn -0.3958 0.8385 -0.3744
vn 0.7487 -0.4465 0.4899
vn 0.1801 -0.9766 0.1174
vn 0.1884 -0.9754 0.1143
vn -0.5105 -0.7921 -0.3346
vn -0.8367 0.0003 -0.5477
vn -0.5105 0.7925 -0.3338
vn 0.1801 0.9765 0.1184
vn 0.1884 0.9753 0.1153
vn 0.7487 0.4460 0.4904
vn -0.0943 0.2680 -0.9588
vn -0.3131 0.0813 -0.9462
vn 0.6639 -0.4604 -0.5893
vn 0.6221 -0.5040 -0.5992
vn 0.6990 -0.4202 -0.5786
vn 0.1484 -0.9854 -0.0836
vn 0.1452 -0.9857 -0.0853
vn 0.1798 -0.9814 -0.0674
vn -0.4596 -0.8847 0.0777
vn -0.4550 -0.8867 0.0818
vn -0.5400 -0.8416 0.0030
vn -1.0000 -0.0000 0.0032
vn -1.0000 -0.0000 0.0063
vn -0.4550 0.8866 0.0827
vn -0.4596 0.8846 0.0787
vn -0.5400 0.8416 0.0039
vn 0.1452 0.9858 -0.0843
vn 0.1484 0.9855 -0.0826
vn 0.1798 0.9815 -0.0663
vn 0.6221 0.5046 -0.5986
vn 0.6639 0.4611 -0.5888
vn 0.6990 0.4209 -0.5781
vn 0.7410 -0.6711 0.0235
vn 0.7408 -0.6713 0.0237
vn 0.7390 -0.6732 0.0262
vn 0.1203 -0.9927 0.0022
vn 0.1206 -0.9927 0.0018
vn 0.1198 -0.9928 0.0029
vn -0.3900 -0.9208 -0.0033
vn -0.3905 -0.9206 -0.0026
vn -0.3884 -0.9215 -0.0055
vn -0.3905 0.9206 -0.0017
vn -0.3900 0.9208 -0.0024
vn -0.3884 0.9215 -0.0045
vn 0.1206 0.9927 0.0028
vn 0.1203 0.9927 0.0033
vn 0.1198 0.9928 0.0040
vn 0.7408 0.6712 0.0244
vn 0.7410 0.6711 0.0243
vn 0.7390 0.6732 0.0269
vn 0.7399 -0.4360 0.5123
vn 0.7225 -0.4508 0.5242
vn 0.5996 -0.5383 0.5922
vn 0.1915 -0.9815 0.0088
vn 0.1733 -0.9848 -0.0146
vn 0.1204 -0.9894 -0.0818
vn -0.4522 -0.7358 0.5040
vn -0.5069 -0.7096 0.4894
vn -0.3309 -0.7819 0.5284
vn -0.5305 -0.0005 0.8477
vn -0.5069 0.7091 0.4902
vn -0.4522 0.7353 0.5048
vn -0.3309 0.7813 0.5292
vn 0.1733 0.9848 -0.0136
vn 0.1915 0.9815 0.0098
vn 0.1204 0.9894 -0.0807
vn 0.7225 0.4502 0.5247
vn 0.7399 0.4354 0.5127
vn 0.5996 0.5377 0.5928
vn -0.0001 -1.0000 -0.0005
vn -0.8047 0.5852 -0.1000
vn -0.0000 0.0006 -1.0000
vn -0.4260 -0.7375 -0.5240
vn -0.3610 0.6249 0.6922
vn 0.4260 0.7381 -0.5232
vn 0.3610 -0.6256 0.6915
vn 0.4199 -0.7280 0.5419
vn -0.4198 -0.7271 0.5433
vn -0.8389 -0.0001 0.5443
vn -0.4195 0.7267 0.5440
vn 0.4202 0.7272 0.5427
vn 0.8406 -0.0004 0.5417
vn 0.4912 -0.8513 0.1843
vn 0.9645 -0.0013 -0.2639
vn 0.4835 0.8348 -0.2633
vn -0.4811 0.8363 -0.2630
vn -0.9647 0.0016 -0.2632
vn -0.4836 -0.8346 -0.2639
vn -0.8660 0.4986 0.0379
vn -0.1777 0.4980 0.8488
vn 0.9014 0.4205 0.1031
vn -0.1641 0.4979 -0.8516
vn -0.0017 1.0000 0.0011
vn 0.0005 1.0000 -0.0008
vn 0.8660 0.4990 -0.0328
vn -0.2009 0.4997 -0.8426
vn -0.9027 0.4213 -0.0873
vn -0.2525 0.4993 0.8288
vn 0.7003 -0.4997 -0.5098
vn -0.7081 -0.4990 -0.4996
vn -0.7343 -0.4997 0.4595
vn 0.7413 -0.4987 0.4493
vn 0.0005 -1.0000 -0.0013
vn 0.0004 -1.0000 -0.0000
vn 0.9013 -0.4206 0.1037
vn 0.2204 -0.9657 0.1374
vn -0.5844 -0.7327 -0.3487
vn -0.7647 0.0003 -0.6444
vn -0.5854 0.6611 -0.4692
vn 0.2365 0.9523 0.1929
vn 0.7797 0.3752 0.5013
vn 0.8078 -0.3892 0.4427
vn 0.1627 -0.9504 -0.2653
vn -0.4783 -0.6641 0.5747
vn -0.5567 0.6979 0.4505
vn 0.2182 0.9559 -0.1966
vn 0.7395 0.3564 -0.5711
vn 0.5275 -0.3202 -0.7869
vn 0.5143 -0.3725 0.7725
vn 0.6323 0.3357 0.6982
vn -0.4455 -0.6997 -0.5586
vn 0.1198 -0.9680 0.2204
vn -0.3592 0.7294 0.5823
vn 0.0975 0.9704 -0.2209
vn 0.3249 0.4108 -0.8519
vn -0.0209 -0.3945 0.9187
vn -0.0146 -0.9700 0.2425
vn 0.0531 -0.7551 -0.6535
vn 0.0375 0.7816 -0.6226
vn -0.0051 0.9748 0.2230
vn -0.7916 -0.4038 0.4586
vn -0.1935 -0.9723 0.1311
vn 0.5142 -0.7699 -0.3780
vn 0.5044 0.7925 -0.3428
vn -0.1884 0.9753 0.1153
vn -0.7972 0.4433 0.4098
vn 0.4474 -0.7723 -0.4509
vn -0.6990 -0.4202 -0.5786
vn -0.1798 -0.9814 -0.0674
vn 0.5400 -0.8416 0.0030
vn 0.3840 0.9122 0.1432
vn -0.1188 0.9881 -0.0978
vn -0.5874 0.5377 -0.6048
vn -0.7428 -0.6692 0.0211
vn -0.1211 -0.9926 0.0010
vn 0.3921 -0.9199 -0.0005
vn 0.3884 0.9215 -0.0045
vn -0.1198 0.9928 0.0040
vn -0.7390 0.6732 0.0269
vn -0.8581 -0.3114 0.4082
vn -0.1204 -0.9894 -0.0818
vn 0.3309 -0.7819 0.5284
vn 0.6498 0.6206 0.4389
vn -0.2874 0.9479 0.1373
vn -0.5996 0.5377 0.5928
vn -0.0103 0.0005 -0.9999
vn -0.5143 -0.3725 0.7725
vn -0.6323 0.3357 0.6982
vn -0.4192 0.8850 0.2025
vn 0.2746 0.7521 -0.5991
vn 0.4455 -0.6997 -0.5586
vn -0.1198 -0.9680 0.2204
vn -0.0976 -0.9702 -0.2220
vn 0.3591 -0.7300 0.5815
vn 0.3592 0.7294 0.5823
vn -0.0975 0.9704 -0.2209
vn -0.3249 0.4108 -0.8519
vn -0.3250 -0.4099 -0.8523
vn 0.0209 -0.3945 0.9187
vn 0.0146 -0.9700 0.2425
vn -0.0531 -0.7551 -0.6535
vn -0.0531 0.7558 -0.6527
vn 0.0146 0.9698 0.2436
vn 0.0209 0.3935 0.9191
vn 0.7972 -0.4438 0.4093
vn -0.5044 -0.7922 -0.3437
vn -0.5044 0.7925 -0.3428
vn 0.7972 0.4433 0.4098
vn -0.4603 0.7924 -0.4004
vn 0.5874 -0.5371 -0.6054
vn 0.1188 -0.9880 -0.0988
vn -0.3840 -0.9123 0.1422
vn -0.3840 0.9122 0.1432
vn 0.1188 0.9881 -0.0978
vn 0.5874 0.5377 -0.6048
vn 0.7428 -0.6692 0.0211
vn 0.1211 -0.9926 0.0010
vn -0.3921 -0.9199 -0.0005
vn -0.3921 0.9199 0.0005
vn 0.1211 0.9926 0.0021
vn 0.7428 0.6691 0.0218
vn 0.8581 -0.3114 0.4082
vn 0.2874 -0.9481 0.1363
vn -0.6498 -0.6211 0.4382
vn -0.6498 0.6206 0.4389
vn 0.2874 0.9479 0.1373
vn 0.8581 0.3109 0.4086
vt 0.416667 0.312500
vt 0.375000 0.373995
vt 0.375000 0.312500
vt 0.458333 0.373995
vt 0.416667 0.373995
vt 0.500000 0.312500
vt 0.458333 0.312500
vt 0.541667 0.312500
vt 0.500000 0.373995
vt 0.583333 0.373995
vt 0.541667 0.373995
vt 0.625000 0.312500
vt 0.583333 0.312500
vt 0.583333 0.386636
vt 0.625000 0.470592
vt 0.583333 0.470592
vt 0.541667 0.470592
vt 0.541667 0.386636
vt 0.500000 0.386636
vt 0.500000 0.470592
vt 0.458333 0.386636
vt 0.458333 0.470592
vt 0.416667 0.470592
vt 0.416667 0.386636
vt 0.375000 0.386636
vt 0.375000 0.470592
vt 0.583333 0.479107
vt 0.541667 0.479107
vt 0.500000 0.479107
vt 0.458333 0.479107
vt 0.416667 0.479107
vt 0.375000 0.479107
vt 0.625000 0.498577
vt 0.583333 0.687500
vt 0.583333 0.498577
vt 0.541667 0.687500
vt 0.541667 0.498577
vt 0.500000 0.687500
vt 0.500000 0.498577
vt 0.458333 0.687500
vt 0.458333 0.498577
vt 0.416667 0.687500
vt 0.416667 0.498577
vt 0.375000 0.687500
vt 0.375000 0.498577
vt 0.583333 0.487378
vt 0.541667 0.487378
vt 0.500000 0.487378
vt 0.458333 0.487378
vt 0.416667 0.487378
vt 0.375000 0.487378
vt 0.625000 0.487378
vt 0.625000 0.373995
vt 1.000000 0.000000
vt 0.000000 1.000000
vt 0.000000 0.000000
vt 0.186089 0.614723
vt 0.000000 0.614723
vt 0.575489 1.000000
vt 0.308649 0.614723
vt 0.308649 1.000000
vt 1.000000 1.000000
vt 0.688741 0.614723
vt 0.688741 1.000000
vt 0.186089 0.000000
vt 0.308649 0.000000
vt 0.575489 0.614723
vt 0.688741 0.000000
vt 1.000000 0.614723
vt 0.575489 0.000000
vt 0.186089 1.000000
vt 0.421875 0.020934
vt 0.578125 0.020934
vt 0.500000 0.156250
vt 0.343750 0.156250
vt 0.421875 0.291566
vt 0.578125 0.291566
vt 0.656250 0.156250
vt 0.166667 0.333333
vt 0.000000 0.500000
vt 0.000000 0.333333
vt 0.333333 0.333333
vt 0.166667 0.500000
vt 0.500000 0.333333
vt 0.333333 0.500000
vt 0.666667 0.333333
vt 0.500000 0.500000
vt 0.833333 0.333333
vt 0.666667 0.500000
vt 1.000000 0.333333
vt 0.833333 0.500000
vt 0.000000 0.583333
vt 0.166667 0.583333
vt 0.333333 0.583333
vt 0.500000 0.583333
vt 0.666667 0.583333
vt 1.000000 0.500000
vt 0.833333 0.583333
vt 0.166667 0.666667
vt 0.083333 1.000000
vt 0.000000 0.666667
vt 0.333333 0.666667
vt 0.250000 1.000000
vt 0.500000 0.666667
vt 0.416667 1.000000
vt 0.666667 0.666667
vt 0.583333 1.000000
vt 0.833333 0.666667
vt 0.750000 1.000000
vt 1.000000 0.666667
vt 0.916667 1.000000
vt 1.000000 0.583333
vt 0.050000 1.000000
vt 0.950000 0.833333
vt 0.050000 0.833333
vt 0.150000 0.833333
vt 0.250000 0.833333
vt 0.350000 1.000000
vt 0.350000 0.833333
vt 0.450000 0.833333
vt 0.650000 0.833333
vt 0.550000 1.000000
vt 0.550000 0.833333
vt 0.750000 0.833333
vt 0.650000 1.000000
vt 0.850000 1.000000
vt 0.850000 0.833333
vt 0.950000 0.666667
vt 0.050000 0.666667
vt 0.150000 0.666667
vt 0.250000 0.666667
vt 0.350000 0.666667
vt 0.550000 0.666667
vt 0.650000 0.666667
vt 0.750000 0.666667
vt 0.850000 0.666667
vt 0.950000 0.500000
vt 0.050000 0.500000
vt 0.150000 0.500000
vt 0.250000 0.500000
vt 0.350000 0.500000
vt 0.450000 0.500000
vt 0.650000 0.500000
vt 0.550000 0.500000
vt 0.750000 0.500000
vt 0.850000 0.500000
vt 0.050000 0.333333
vt 0.950000 0.333333
vt 0.150000 0.333333
vt 0.250000 0.333333
vt 0.350000 0.333333
vt 0.450000 0.333333
vt 0.550000 0.333333
vt 0.650000 0.333333
vt 0.750000 0.333333
vt 0.850000 0.333333
vt 0.050000 0.166667
vt 0.950000 0.166667
vt 0.150000 0.166667
vt 0.250000 0.166667
vt 0.350000 0.166667
vt 0.450000 0.166667
vt 0.550000 0.166667
vt 0.650000 0.166667
vt 0.750000 0.166667
vt 0.850000 0.166667
vt 0.050000 -0.000000
vt 0.950000 -0.000000
vt 0.250000 -0.000000
vt 0.150000 -0.000000
vt 0.350000 -0.000000
vt 0.550000 -0.000000
vt 0.750000 -0.000000
vt 0.650000 -0.000000
vt 0.850000 -0.000000
vt 0.410714 0.312500
vt 0.446429 0.312500
vt 0.410714 0.687500
vt 0.482143 0.312500
vt 0.446429 0.687500
vt 0.517857 0.687500
vt 0.482143 0.687500
vt 0.517857 0.312500
vt 0.553571 0.687500
vt 0.553571 0.312500
vt 0.589286 0.687500
vt 0.589286 0.312500
vt 0.465231 0.308582
vt 0.359224 0.088456
vt 0.597420 0.034089
vt 0.597420 0.721589
vt 0.359224 0.775956
vt 0.465231 0.996082
vt 0.597420 0.965911
vt 0.359224 0.911544
vt 0.465231 0.691418
vt 0.656250 0.843750
vt 0.465231 0.003918
vt 0.359224 0.224044
vt 0.597420 0.278411
vt 0.600000 0.500000
vt 0.600000 1.000000
vt 0.625000 0.386636
vt 0.625000 0.479107
vt 0.625000 0.687500
vt 0.950000 1.000000
vt 0.150000 1.000000
vt 0.450000 1.000000
vt 0.750000 1.000000
vt 0.450000 0.666667
vt 0.450000 -0.000000
s 1
usemtl Metal
f 2/1/1 43/2/1 1/3/1
f 2/1/2 47/4/2 48/5/2
f 4/6/3 47/4/3 3/7/3
f 5/8/4 46/9/4 4/6/4
f 5/8/5 44/10/5 45/11/5
f 1/12/6 44/10/6 6/13/6
f 14/14/7 19/15/7 20/16/7
f 14/14/8 21/17/8 15/18/8
f 16/19/9 21/17/9 22/20/9
f 17/21/10 22/20/10 23/22/10
f 17/21/11 24/23/11 18/24/11
f 13/25/12 24/23/12 19/26/12
f 19/15/13 38/27/13 20/16/13
f 21/17/14 38/27/14 39/28/14
f 21/17/15 40/29/15 22/20/15
f 22/20/16 41/30/16 23/22/16
f 24/23/17 41/30/17 42/31/17
f 24/23/18 37/32/18 19/26/18
f 25/33/19 12/34/19 26/35/19
f 26/35/20 11/36/20 27/37/20
f 27/37/21 10/38/21 28/39/21
f 28/39/22 9/40/22 29/41/22
f 29/41/23 8/42/23 30/43/23
f 30/43/24 7/44/24 25/45/24
f 32/46/25 25/33/25 26/35/25
f 32/46/26 27/37/26 33/47/26
f 33/47/27 28/39/27 34/48/27
f 35/49/28 28/39/28 29/41/28
f 35/49/29 30/43/29 36/50/29
f 36/50/30 25/45/30 31/51/30
f 38/27/31 31/52/32 32/46/31
f 38/27/33 33/47/33 39/28/33
f 40/29/34 33/47/34 34/48/34
f 41/30/35 34/48/36 35/49/35
f 41/30/37 36/50/37 42/31/37
f 37/32/38 36/50/38 31/51/38
f 43/53/39 14/14/39 44/10/39
f 45/11/40 14/14/40 15/18/40
f 45/11/41 16/19/41 46/9/41
f 46/9/42 17/21/42 47/4/42
f 48/5/43 17/21/43 18/24/43
f 48/5/44 13/25/44 43/2/44
f 1/54/45 50/55/45 2/56/45
f 2/54/45 51/55/45 3/56/45
f 3/54/45 52/55/45 4/56/45
f 4/54/45 53/55/45 5/56/45
f 5/54/45 54/55/45 6/56/45
f 6/54/45 49/55/45 1/56/45
f 57/55/46 68/57/46 67/58/46
f 64/59/46 69/60/46 62/61/46
f 58/62/46 71/63/46 66/64/46
f 67/58/46 59/65/46 55/56/46
f 61/66/46 68/57/46 69/60/46
f 70/67/46 61/66/46 69/60/46
f 65/68/46 70/67/46 71/63/46
f 56/54/46 71/63/46 72/69/46
f 86/57/47 75/55/47 85/58/47
f 87/60/47 82/59/47 80/61/47
f 89/63/47 76/62/47 84/64/47
f 77/65/47 85/58/47 73/56/47
f 86/57/47 79/66/47 87/60/47
f 88/67/47 79/66/47 81/70/47
f 88/67/47 83/68/47 89/63/47
f 89/63/47 74/54/47 90/69/47
f 59/65/45 79/66/45 77/65/45
f 61/66/45 81/70/45 79/66/45
f 65/68/45 81/70/45 63/70/45
f 56/54/45 83/68/45 65/68/45
f 72/69/48 74/54/48 56/54/48
f 58/62/48 90/69/48 72/69/48
f 66/64/49 76/62/49 58/62/49
f 71/63/50 84/64/50 66/64/50
f 71/63/49 88/67/49 89/63/49
f 64/59/48 88/67/48 70/67/48
f 62/61/49 82/59/49 64/59/49
f 69/60/50 80/61/50 62/61/50
f 68/57/49 87/60/49 69/60/49
f 60/71/48 86/57/48 68/57/48
f 57/55/49 78/71/49 60/71/49
f 67/58/50 75/55/50 57/55/50
f 55/56/50 85/58/50 67/58/50
f 55/56/45 77/65/45 73/56/45
f 92/1/51 97/44/51 91/3/51
f 93/7/50 98/42/50 92/1/50
f 94/6/52 99/40/52 93/7/52
f 95/8/53 100/38/53 94/6/53
f 96/13/48 101/36/48 95/8/48
f 91/12/54 102/34/54 96/13/54
f 116/72/45 115/73/45 117/74/45
f 118/75/45 116/72/45 117/74/45
f 119/76/45 118/75/45 117/74/45
f 120/77/45 119/76/45 117/74/45
f 121/78/45 120/77/45 117/74/45
f 115/73/45 121/78/45 117/74/45
f 122/73/55 125/72/55 123/72/55
f 123/72/50 127/75/50 126/75/50
f 126/75/56 129/76/56 128/76/56
f 128/76/57 131/77/57 130/77/57
f 130/77/48 133/78/48 132/78/48
f 132/78/58 124/73/58 122/73/58
f 103/73/51 110/72/51 104/72/51
f 104/72/50 111/75/50 105/75/50
f 105/75/52 112/76/52 106/76/52
f 106/76/53 113/77/53 107/77/53
f 107/77/48 114/78/48 108/78/48
f 108/78/54 109/73/54 103/73/54
f 109/73/59 116/72/59 110/72/59
f 111/75/60 116/72/60 118/75/60
f 112/76/61 118/75/61 119/76/61
f 112/76/62 120/77/62 113/77/62
f 114/78/63 120/77/63 121/78/63
f 114/78/64 115/73/64 109/73/64
f 91/73/65 123/72/66 92/72/67
f 103/73/68 125/72/69 124/73/55
f 92/72/70 126/75/70 93/75/70
f 105/75/71 125/72/71 104/72/71
f 94/76/72 126/75/73 128/76/56
f 106/76/74 127/75/75 105/75/76
f 94/76/77 130/77/78 95/77/79
f 106/76/80 131/77/81 129/76/57
f 95/77/82 132/78/82 96/78/82
f 108/78/83 131/77/83 107/77/83
f 91/73/84 132/78/85 122/73/58
f 103/73/86 133/78/87 108/78/88
f 135/79/89 140/80/90 134/81/91
f 136/82/92 141/83/93 135/79/94
f 137/84/95 142/85/96 136/82/97
f 138/86/98 143/87/99 137/84/100
f 139/88/101 144/89/102 138/86/103
f 134/90/104 145/91/105 139/88/106
f 153/92/107 141/83/108 158/93/109
f 142/85/110 158/93/111 141/83/112
f 143/87/113 157/94/114 142/85/115
f 144/89/116 156/95/117 143/87/118
f 145/91/119 155/96/120 144/89/121
f 140/97/122 154/98/123 145/91/124
f 147/99/125 152/100/125 146/101/125
f 148/102/126 152/103/126 147/99/126
f 149/104/127 152/105/127 148/102/127
f 150/106/128 152/107/128 149/104/128
f 151/108/129 152/109/129 150/106/129
f 146/110/130 152/111/130 151/108/130
f 153/112/131 151/108/132 154/98/123
f 154/98/133 150/106/134 155/96/120
f 155/96/135 149/104/136 156/95/117
f 156/95/137 148/102/138 157/94/114
f 157/94/139 147/99/140 158/93/111
f 146/101/141 158/93/109 147/99/142
f 159/113/143 176/114/144 168/115/145
f 169/116/146 159/113/143 168/115/145
f 161/103/147 169/116/146 170/117/148
f 162/118/149 170/117/148 171/119/150
f 218/120/151 162/118/149 171/119/150
f 173/121/152 163/122/153 172/123/154
f 174/124/155 164/125/156 173/121/152
f 166/126/157 174/124/155 175/127/158
f 176/114/144 166/126/157 175/127/158
f 168/115/47 185/128/47 177/129/47
f 178/130/47 168/115/47 177/129/47
f 179/131/159 169/116/47 178/130/47
f 171/119/160 179/131/159 180/132/161
f 218/120/162 180/132/161 181/133/163
f 182/134/47 172/123/164 181/133/163
f 174/124/47 182/134/47 183/135/47
f 175/127/47 183/135/47 184/136/47
f 185/128/47 175/127/47 184/136/47
f 177/129/165 194/137/166 186/138/167
f 187/139/168 177/129/165 186/138/167
f 188/140/169 178/130/170 187/139/168
f 180/132/171 188/140/169 189/141/172
f 216/142/173 180/132/171 189/141/172
f 191/143/174 181/133/175 190/144/176
f 183/135/177 191/143/174 192/145/178
f 184/136/179 192/145/178 193/146/180
f 194/137/166 184/136/179 193/146/180
f 195/147/181 194/137/182 203/148/183
f 187/139/184 195/147/181 196/149/185
f 188/140/186 196/149/185 197/150/187
f 198/151/188 188/140/186 197/150/187
f 216/142/189 198/151/188 215/152/190
f 191/143/191 199/153/192 200/154/193
f 201/155/194 191/143/191 200/154/193
f 202/156/195 192/145/196 201/155/194
f 194/137/182 202/156/195 203/148/183
f 204/157/46 203/148/46 212/158/46
f 196/149/46 204/157/46 205/159/46
f 197/150/197 205/159/46 206/160/198
f 207/161/199 197/150/197 206/160/198
f 215/152/200 207/161/199 214/162/200
f 200/154/46 208/163/201 209/164/46
f 201/155/46 209/164/46 210/165/46
f 211/166/46 201/155/46 210/165/46
f 203/148/46 211/166/46 212/158/46
f 159/167/202 212/158/203 167/168/204
f 159/167/202 205/159/205 204/157/206
f 161/169/207 205/159/205 160/170/208
f 162/171/209 206/160/210 161/169/207
f 162/171/209 214/162/211 207/161/212
f 163/172/213 209/164/214 208/163/215
f 165/173/216 209/164/214 164/174/217
f 166/175/218 210/165/219 165/173/216
f 166/175/218 212/158/203 211/166/220
f 214/162/211 163/172/213 208/163/215
f 208/163/201 215/152/200 214/162/200
f 199/153/192 216/142/189 215/152/190
f 181/133/175 216/142/173 190/144/176
f 163/122/153 218/120/151 172/123/154
f 220/176/221 226/44/221 219/3/221
f 221/177/222 227/178/222 220/176/222
f 222/179/223 228/180/223 221/177/223
f 222/179/224 230/181/225 229/182/225
f 223/183/226 231/184/226 230/181/226
f 224/185/227 232/186/227 231/184/227
f 219/12/228 232/186/228 225/187/228
f 244/188/48 242/189/48 240/190/48
f 309/191/229 307/192/230 305/193/230
f 226/194/231 253/193/232 247/194/233
f 227/193/234 252/195/235 253/193/236
f 229/192/237 252/195/238 228/195/237
f 230/196/239 251/192/240 229/192/241
f 231/191/242 250/196/243 230/196/244
f 231/191/245 248/197/246 249/191/247
f 232/197/248 247/194/249 248/197/250
f 219/190/251 262/198/252 220/198/253
f 220/198/254 263/189/255 221/189/256
f 221/189/257 264/199/258 222/199/257
f 223/188/259 264/199/260 265/188/261
f 224/200/262 265/188/263 266/200/264
f 225/78/265 266/200/266 267/78/267
f 225/78/268 261/190/269 219/190/270
f 247/194/249 239/197/271 248/197/250
f 248/197/246 238/191/272 249/191/247
f 250/196/243 238/191/273 237/196/274
f 251/192/240 237/196/275 236/192/276
f 252/195/238 236/192/277 235/195/277
f 252/195/235 234/193/278 253/193/236
f 253/193/232 233/194/279 247/194/233
f 240/56/280 255/62/280 241/54/280
f 255/55/281 242/54/281 241/56/281
f 256/55/45 243/54/45 242/56/45
f 257/55/282 244/54/282 243/56/282
f 258/55/283 245/54/283 244/56/283
f 259/55/284 246/54/284 245/56/284
f 246/56/285 254/62/285 240/54/285
f 262/198/252 240/190/286 241/198/287
f 263/189/255 241/198/288 242/189/289
f 264/199/258 242/189/290 243/199/290
f 264/199/260 244/188/291 265/188/261
f 265/188/263 245/200/292 266/200/264
f 266/200/266 246/78/293 267/78/267
f 261/190/269 246/78/294 240/190/295
f 233/194/296 268/197/297 239/197/298
f 234/193/299 269/194/300 233/194/301
f 235/195/302 270/193/303 234/193/304
f 236/192/305 271/195/305 235/195/305
f 236/192/306 273/196/307 272/192/308
f 237/196/309 274/191/310 273/196/311
f 238/191/312 268/197/313 274/191/314
f 268/197/315 276/194/316 275/197/317
f 269/194/318 277/193/319 276/194/320
f 270/193/321 278/195/322 277/193/323
f 272/192/324 278/195/324 271/195/324
f 273/196/325 279/192/326 272/192/327
f 274/191/328 280/196/329 273/196/330
f 268/197/331 281/191/332 274/191/333
f 275/197/334 283/194/335 282/197/336
f 277/193/319 283/194/337 276/194/320
f 278/195/338 284/193/338 277/193/338
f 279/192/339 285/195/339 278/195/339
f 279/192/340 287/196/340 286/192/340
f 280/196/329 288/191/341 287/196/341
f 281/191/342 282/197/343 288/191/342
f 282/197/344 290/194/345 289/197/346
f 283/194/347 291/193/348 290/194/349
f 284/193/350 292/195/351 291/193/352
f 286/192/353 292/195/354 285/195/353
f 287/196/355 293/192/356 286/192/357
f 288/191/358 294/196/359 287/196/360
f 282/197/361 295/191/362 288/191/363
f 290/194/364 296/197/365 289/197/366
f 291/193/367 297/194/368 290/194/369
f 292/195/370 298/193/371 291/193/372
f 293/192/354 299/195/48 292/195/354
f 293/192/373 301/196/374 300/192/375
f 294/196/376 302/191/377 301/196/378
f 295/191/379 296/197/380 302/191/381
f 297/194/382 303/197/383 296/197/384
f 297/194/385 305/193/386 304/194/387
f 298/193/388 306/195/389 305/193/390
f 300/192/391 306/195/391 299/195/391
f 301/196/392 307/192/393 300/192/394
f 302/191/395 308/196/396 301/196/397
f 302/191/398 303/197/399 309/191/400
f 317/44/401 311/176/401 310/3/401
f 318/178/402 312/177/402 311/176/402
f 319/180/403 313/179/403 312/177/403
f 313/179/404 321/181/405 314/183/404
f 314/183/406 322/184/406 315/185/406
f 315/185/407 323/186/407 316/187/407
f 323/186/408 310/12/408 316/187/408
f 337/78/50 332/198/50 334/199/50
f 395/194/409 397/195/409 399/196/409
f 317/194/410 344/193/411 318/193/412
f 318/193/413 343/195/414 319/195/415
f 343/195/416 320/192/417 319/195/417
f 342/192/418 321/196/419 320/192/420
f 341/196/421 322/191/422 321/196/423
f 322/191/424 339/197/425 323/197/426
f 323/197/427 338/194/428 317/194/429
f 353/198/430 310/190/431 311/198/432
f 354/189/433 311/198/434 312/189/435
f 355/199/436 312/189/437 313/199/437
f 314/188/438 355/199/439 313/199/440
f 315/200/441 356/188/442 314/188/443
f 316/78/444 357/200/445 315/200/446
f 352/190/447 316/78/448 310/190/449
f 330/197/450 338/194/428 339/197/451
f 329/191/452 339/197/425 340/191/453
f 341/196/421 329/191/454 340/191/455
f 342/192/418 328/196/456 341/196/457
f 343/195/416 327/192/458 342/192/459
f 325/193/460 343/195/414 344/193/461
f 324/194/462 344/193/411 338/194/463
f 331/56/280 346/62/280 345/55/280
f 332/56/281 347/62/281 346/55/281
f 334/54/45 347/55/45 333/56/45
f 335/54/282 348/55/282 334/56/282
f 336/54/283 349/55/283 335/56/283
f 337/54/284 350/55/284 336/56/284
f 337/56/285 345/62/285 351/55/285
f 353/198/430 331/190/464 352/190/465
f 354/189/433 332/198/466 353/198/467
f 355/199/436 333/189/468 354/189/436
f 335/188/469 355/199/439 356/188/470
f 336/200/471 356/188/442 357/200/472
f 337/78/473 357/200/445 358/78/474
f 352/190/447 337/78/475 358/78/476
f 359/197/477 324/194/478 330/197/298
f 360/194/479 325/193/480 324/194/481
f 361/193/482 326/195/483 325/193/484
f 362/195/485 327/192/485 326/195/485
f 327/192/486 364/196/487 328/196/488
f 328/196/489 365/191/490 329/191/491
f 329/191/492 359/197/493 330/197/494
f 359/197/495 367/194/496 360/194/497
f 360/194/498 368/193/499 361/193/500
f 361/193/501 369/195/502 362/195/503
f 369/195/504 363/192/504 362/195/504
f 370/192/505 364/196/506 363/192/507
f 371/196/508 365/191/509 364/196/510
f 372/191/511 359/197/512 365/191/513
f 366/197/514 374/194/515 367/194/515
f 374/194/516 368/193/499 367/194/517
f 375/193/518 369/195/518 368/193/518
f 376/195/519 370/192/519 369/195/519
f 370/192/520 378/196/520 371/196/520
f 371/196/508 379/191/521 372/191/522
f 372/191/523 373/197/524 366/197/525
f 373/197/526 381/194/527 374/194/528
f 374/194/529 382/193/530 375/193/531
f 375/193/532 383/195/533 376/195/534
f 383/195/535 377/192/536 376/195/536
f 384/192/537 378/196/538 377/192/539
f 385/196/540 379/191/541 378/196/542
f 386/191/543 373/197/544 379/191/545
f 387/197/546 381/194/547 380/197/548
f 388/194/549 382/193/550 381/194/551
f 389/193/552 383/195/553 382/193/554
f 390/195/50 384/192/535 383/195/535
f 384/192/555 392/196/556 385/196/557
f 385/196/558 393/191/559 386/191/560
f 386/191/561 387/197/562 380/197/563
f 394/197/564 388/194/565 387/197/566
f 388/194/567 396/193/568 389/193/569
f 389/193/570 397/195/571 390/195/572
f 397/195/573 391/192/573 390/195/573
f 398/192/574 392/196/575 391/192/576
f 399/196/577 393/191/578 392/196/579
f 393/191/580 394/197/581 387/197/582
f 402/54/46 403/80/46 404/201/46
f 404/201/46 406/55/46 407/202/46
f 411/201/47 408/56/47 412/97/47
f 413/55/47 411/201/47 414/202/47
f 401/56/50 410/80/50 403/80/50
f 401/56/45 409/54/45 408/56/45
f 405/97/48 409/54/48 402/54/48
f 411/201/49 405/97/49 404/201/49
f 407/202/48 411/201/48 404/201/48
f 407/202/49 413/55/49 414/202/49
f 403/80/50 413/55/50 406/55/50
f 416/54/47 417/80/47 418/201/47
f 418/201/47 420/55/47 421/202/47
f 424/80/583 423/54/46 426/97/583
f 427/55/46 425/201/584 428/202/46
f 415/56/50 424/80/50 417/80/50
f 416/54/49 422/56/49 415/56/585
f 419/97/48 423/54/48 416/54/48
f 426/97/45 418/201/45 425/201/45
f 421/202/48 425/201/48 418/201/48
f 420/55/45 428/202/45 421/202/45
f 417/80/50 427/55/50 420/55/50
f 432/97/46 429/56/46 431/80/46
f 435/80/47 434/54/47 436/97/47
f 429/56/50 435/80/50 431/80/50
f 430/54/45 433/56/45 429/56/45
f 432/97/48 434/54/48 430/54/48
f 431/80/49 436/97/49 432/97/49
f 2/1/1 48/5/1 43/2/1
f 2/1/2 3/7/2 47/4/2
f 4/6/3 46/9/3 47/4/3
f 5/8/4 45/11/4 46/9/4
f 5/8/5 6/13/5 44/10/5
f 1/12/6 43/53/6 44/10/6
f 14/14/7 13/203/7 19/15/7
f 14/14/8 20/16/8 21/17/8
f 16/19/9 15/18/9 21/17/9
f 17/21/10 16/19/10 22/20/10
f 17/21/11 23/22/11 24/23/11
f 13/25/12 18/24/12 24/23/12
f 19/15/13 37/204/13 38/27/13
f 21/17/14 20/16/14 38/27/14
f 21/17/15 39/28/15 40/29/15
f 22/20/16 40/29/16 41/30/16
f 24/23/17 23/22/17 41/30/17
f 24/23/18 42/31/18 37/32/18
f 25/33/19 7/205/19 12/34/19
f 26/35/20 12/34/20 11/36/20
f 27/37/21 11/36/21 10/38/21
f 28/39/22 10/38/22 9/40/22
f 29/41/23 9/40/23 8/42/23
f 30/43/24 8/42/24 7/44/24
f 32/46/25 31/52/25 25/33/25
f 32/46/26 26/35/26 27/37/26
f 33/47/27 27/37/27 28/39/27
f 35/49/28 34/48/28 28/39/28
f 35/49/29 29/41/29 30/43/29
f 36/50/30 30/43/30 25/45/30
f 38/27/31 37/204/32 31/52/32
f 38/27/33 32/46/33 33/47/33
f 40/29/34 39/28/34 33/47/34
f 41/30/35 40/29/36 34/48/36
f 41/30/37 35/49/37 36/50/37
f 37/32/38 42/31/38 36/50/38
f 43/53/39 13/203/39 14/14/39
f 45/11/40 44/10/40 14/14/40
f 45/11/41 15/18/41 16/19/41
f 46/9/42 16/19/42 17/21/42
f 48/5/43 47/4/43 17/21/43
f 48/5/44 18/24/44 13/25/44
f 1/54/45 49/62/45 50/55/45
f 2/54/45 50/62/45 51/55/45
f 3/54/45 51/62/45 52/55/45
f 4/54/45 52/62/45 53/55/45
f 5/54/45 53/62/45 54/55/45
f 6/54/45 54/62/45 49/55/45
f 57/55/46 60/71/46 68/57/46
f 64/59/46 70/67/46 69/60/46
f 58/62/46 72/69/46 71/63/46
f 67/58/46 68/57/46 59/65/46
f 61/66/46 59/65/46 68/57/46
f 70/67/46 63/70/46 61/66/46
f 65/68/46 63/70/46 70/67/46
f 56/54/46 65/68/46 71/63/46
f 86/57/47 78/71/47 75/55/47
f 87/60/47 88/67/47 82/59/47
f 89/63/47 90/69/47 76/62/47
f 77/65/47 86/57/47 85/58/47
f 86/57/47 77/65/47 79/66/47
f 88/67/47 87/60/47 79/66/47
f 88/67/47 81/70/47 83/68/47
f 89/63/47 83/68/47 74/54/47
f 59/65/45 61/66/45 79/66/45
f 61/66/45 63/70/45 81/70/45
f 65/68/45 83/68/45 81/70/45
f 56/54/45 74/54/45 83/68/45
f 72/69/48 90/69/48 74/54/48
f 58/62/48 76/62/48 90/69/48
f 66/64/49 84/64/49 76/62/49
f 71/63/50 89/63/50 84/64/50
f 71/63/49 70/67/49 88/67/49
f 64/59/48 82/59/48 88/67/48
f 62/61/49 80/61/49 82/59/49
f 69/60/50 87/60/50 80/61/50
f 68/57/49 86/57/49 87/60/49
f 60/71/48 78/71/48 86/57/48
f 57/55/49 75/55/49 78/71/49
f 67/58/50 85/58/50 75/55/50
f 55/56/50 73/56/50 85/58/50
f 55/56/45 59/65/45 77/65/45
f 92/1/51 98/42/51 97/44/51
f 93/7/50 99/40/50 98/42/50
f 94/6/52 100/38/52 99/40/52
f 95/8/53 101/36/53 100/38/53
f 96/13/48 102/34/48 101/36/48
f 91/12/54 97/205/54 102/34/54
f 122/73/55 124/73/55 125/72/55
f 123/72/50 125/72/50 127/75/50
f 126/75/56 127/75/56 129/76/56
f 128/76/57 129/76/57 131/77/57
f 130/77/48 131/77/48 133/78/48
f 132/78/58 133/78/58 124/73/58
f 103/73/51 109/73/51 110/72/51
f 104/72/50 110/72/50 111/75/50
f 105/75/52 111/75/52 112/76/52
f 106/76/53 112/76/53 113/77/53
f 107/77/48 113/77/48 114/78/48
f 108/78/54 114/78/54 109/73/54
f 109/73/59 115/73/59 116/72/59
f 111/75/60 110/72/60 116/72/60
f 112/76/61 111/75/61 118/75/61
f 112/76/62 119/76/62 120/77/62
f 114/78/63 113/77/63 120/77/63
f 114/78/64 121/78/64 115/73/64
f 91/73/65 122/73/55 123/72/66
f 103/73/68 104/72/586 125/72/69
f 92/72/70 123/72/70 126/75/70
f 105/75/71 127/75/71 125/72/71
f 94/76/72 93/75/587 126/75/73
f 106/76/74 129/76/56 127/75/75
f 94/76/77 128/76/57 130/77/78
f 106/76/80 107/77/588 131/77/81
f 95/77/82 130/77/82 132/78/82
f 108/78/83 133/78/83 131/77/83
f 91/73/84 96/78/589 132/78/85
f 103/73/86 124/73/58 133/78/87
f 135/79/89 141/83/590 140/80/90
f 136/82/92 142/85/591 141/83/93
f 137/84/95 143/87/592 142/85/96
f 138/86/98 144/89/593 143/87/99
f 139/88/101 145/91/594 144/89/102
f 134/90/104 140/97/595 145/91/105
f 153/92/107 140/80/596 141/83/108
f 142/85/110 157/94/139 158/93/111
f 143/87/113 156/95/137 157/94/114
f 144/89/116 155/96/135 156/95/117
f 145/91/119 154/98/133 155/96/120
f 140/97/122 153/112/131 154/98/123
f 153/112/131 146/110/597 151/108/132
f 154/98/133 151/108/598 150/106/134
f 155/96/135 150/106/599 149/104/136
f 156/95/137 149/104/600 148/102/138
f 157/94/139 148/102/601 147/99/140
f 146/101/141 153/92/107 158/93/109
f 159/113/143 167/206/602 176/114/144
f 169/116/146 160/207/603 159/113/143
f 161/103/147 160/207/603 169/116/146
f 162/118/149 161/103/147 170/117/148
f 218/120/151 213/208/604 162/118/149
f 173/121/152 164/125/156 163/122/153
f 174/124/155 165/209/605 164/125/156
f 166/126/157 165/209/605 174/124/155
f 176/114/144 167/206/602 166/126/157
f 168/115/47 176/114/47 185/128/47
f 178/130/47 169/116/47 168/115/47
f 179/131/159 170/117/606 169/116/47
f 171/119/160 170/117/606 179/131/159
f 218/120/162 171/119/160 180/132/161
f 180/132/161 217/210/607 181/133/163
f 181/133/163 172/123/164 218/120/162
f 182/134/47 173/121/47 172/123/164
f 174/124/47 173/121/47 182/134/47
f 175/127/47 174/124/47 183/135/47
f 185/128/47 176/114/47 175/127/47
f 177/129/165 185/128/608 194/137/166
f 187/139/168 178/130/170 177/129/165
f 188/140/169 179/131/609 178/130/170
f 180/132/171 179/131/609 188/140/169
f 216/142/173 217/210/610 180/132/171
f 191/143/174 182/134/611 181/133/175
f 183/135/177 182/134/611 191/143/174
f 184/136/179 183/135/177 192/145/178
f 194/137/166 185/128/608 184/136/179
f 195/147/181 186/138/612 194/137/182
f 187/139/184 186/138/612 195/147/181
f 188/140/186 187/139/184 196/149/185
f 198/151/188 189/141/613 188/140/186
f 216/142/189 189/141/613 198/151/188
f 191/143/191 190/144/614 199/153/192
f 201/155/194 192/145/196 191/143/191
f 202/156/195 193/146/615 192/145/196
f 194/137/182 193/146/615 202/156/195
f 204/157/46 195/147/46 203/148/46
f 196/149/46 195/147/46 204/157/46
f 197/150/197 196/149/46 205/159/46
f 207/161/199 198/151/616 197/150/197
f 215/152/200 198/151/616 207/161/199
f 200/154/46 199/153/617 208/163/201
f 201/155/46 200/154/46 209/164/46
f 211/166/46 202/156/46 201/155/46
f 203/148/46 202/156/46 211/166/46
f 159/167/202 204/157/206 212/158/203
f 159/167/202 160/170/208 205/159/205
f 161/169/207 206/160/210 205/159/205
f 162/171/209 207/161/212 206/160/210
f 162/171/209 213/211/618 214/162/211
f 163/172/213 164/174/217 209/164/214
f 165/173/216 210/165/219 209/164/214
f 166/175/218 211/166/220 210/165/219
f 166/175/218 167/168/204 212/158/203
f 214/162/211 213/211/618 163/172/213
f 208/163/201 199/153/617 215/152/200
f 199/153/192 190/144/614 216/142/189
f 181/133/175 217/210/610 216/142/173
f 163/122/153 213/208/604 218/120/151
f 220/176/221 227/178/221 226/44/221
f 221/177/222 228/180/222 227/178/222
f 222/179/223 229/182/223 228/180/223
f 222/179/224 223/183/224 230/181/225
f 223/183/226 224/185/226 231/184/226
f 224/185/227 225/187/227 232/186/227
f 219/12/228 226/205/228 232/186/228
f 246/78/48 245/200/48 244/188/48
f 244/188/48 243/199/48 242/189/48
f 242/189/48 241/198/48 240/190/48
f 240/190/48 246/78/48 244/188/48
f 304/194/229 303/197/229 309/191/229
f 309/191/229 308/196/229 307/192/230
f 307/192/230 306/195/230 305/193/230
f 305/193/230 304/194/229 309/191/229
f 226/194/231 227/193/619 253/193/232
f 227/193/234 228/195/620 252/195/235
f 229/192/237 251/192/621 252/195/238
f 230/196/239 250/196/622 251/192/240
f 231/191/242 249/191/623 250/196/243
f 231/191/245 232/197/624 248/197/246
f 232/197/248 226/194/625 247/194/249
f 219/190/251 261/190/626 262/198/252
f 220/198/254 262/198/627 263/189/255
f 221/189/257 263/189/258 264/199/258
f 223/188/259 222/199/628 264/199/260
f 224/200/262 223/188/629 265/188/263
f 225/78/265 224/200/630 266/200/266
f 225/78/268 267/78/631 261/190/269
f 247/194/249 233/194/632 239/197/271
f 248/197/246 239/197/633 238/191/272
f 250/196/243 249/191/623 238/191/273
f 251/192/240 250/196/622 237/196/275
f 252/195/238 251/192/621 236/192/277
f 252/195/235 235/195/634 234/193/278
f 253/193/232 234/193/635 233/194/279
f 240/56/280 254/55/280 255/62/280
f 255/55/281 256/62/281 242/54/281
f 256/55/45 257/62/45 243/54/45
f 257/55/282 258/62/282 244/54/282
f 258/55/283 259/62/283 245/54/283
f 259/55/284 260/62/284 246/54/284
f 246/56/285 260/55/285 254/62/285
f 262/198/252 261/190/626 240/190/286
f 263/189/255 262/198/627 241/198/288
f 264/199/258 263/189/258 242/189/290
f 264/199/260 243/199/636 244/188/291
f 265/188/263 244/188/637 245/200/292
f 266/200/266 245/200/638 246/78/293
f 261/190/269 267/78/631 246/78/294
f 233/194/296 269/194/639 268/197/297
f 234/193/299 270/193/640 269/194/300
f 235/195/302 271/195/641 270/193/303
f 236/192/305 272/192/305 271/195/305
f 236/192/306 237/196/642 273/196/307
f 237/196/309 238/191/643 274/191/310
f 238/191/312 239/197/494 268/197/313
f 268/197/315 269/194/644 276/194/316
f 269/194/318 270/193/645 277/193/319
f 270/193/321 271/195/646 278/195/322
f 272/192/324 279/192/324 278/195/324
f 273/196/325 280/196/647 279/192/326
f 274/191/328 281/191/648 280/196/329
f 268/197/331 275/197/649 281/191/332
f 275/197/334 276/194/335 283/194/335
f 277/193/319 284/193/337 283/194/337
f 278/195/338 285/195/338 284/193/338
f 279/192/339 286/192/339 285/195/339
f 279/192/340 280/196/340 287/196/340
f 280/196/329 281/191/648 288/191/341
f 281/191/342 275/197/650 282/197/343
f 282/197/344 283/194/651 290/194/345
f 283/194/347 284/193/652 291/193/348
f 284/193/350 285/195/653 292/195/351
f 286/192/353 293/192/354 292/195/354
f 287/196/355 294/196/654 293/192/356
f 288/191/358 295/191/655 294/196/359
f 282/197/361 289/197/656 295/191/362
f 290/194/364 297/194/657 296/197/365
f 291/193/367 298/193/658 297/194/368
f 292/195/370 299/195/659 298/193/371
f 293/192/354 300/192/48 299/195/48
f 293/192/373 294/196/660 301/196/374
f 294/196/376 295/191/661 302/191/377
f 295/191/379 289/197/662 296/197/380
f 297/194/382 304/194/663 303/197/383
f 297/194/385 298/193/664 305/193/386
f 298/193/388 299/195/665 306/195/389
f 300/192/391 307/192/391 306/195/391
f 301/196/392 308/196/666 307/192/393
f 302/191/395 309/191/667 308/196/396
f 302/191/398 296/197/668 303/197/399
f 317/44/401 318/178/401 311/176/401
f 318/178/402 319/180/402 312/177/402
f 319/180/403 320/182/403 313/179/403
f 313/179/404 320/182/405 321/181/405
f 314/183/406 321/181/406 322/184/406
f 315/185/407 322/184/407 323/186/407
f 323/186/408 317/205/408 310/12/408
f 335/188/50 336/200/50 337/78/50
f 337/78/50 331/190/50 332/198/50
f 332/198/50 333/189/50 334/199/50
f 334/199/50 335/188/50 337/78/50
f 400/191/669 394/197/409 395/194/409
f 395/194/409 396/193/669 397/195/409
f 397/195/409 398/192/409 399/196/409
f 399/196/409 400/191/669 395/194/409
f 317/194/410 338/194/463 344/193/411
f 318/193/413 344/193/461 343/195/414
f 343/195/416 342/192/459 320/192/417
f 342/192/418 341/196/457 321/196/419
f 341/196/421 340/191/455 322/191/422
f 322/191/424 340/191/453 339/197/425
f 323/197/427 339/197/451 338/194/428
f 353/198/430 352/190/465 310/190/431
f 354/189/433 353/198/467 311/198/434
f 355/199/436 354/189/436 312/189/437
f 314/188/438 356/188/470 355/199/439
f 315/200/441 357/200/472 356/188/442
f 316/78/444 358/78/474 357/200/445
f 352/190/447 358/78/476 316/78/448
f 330/197/450 324/194/670 338/194/428
f 329/191/452 330/197/671 339/197/425
f 341/196/421 328/196/672 329/191/454
f 342/192/418 327/192/673 328/196/456
f 343/195/416 326/195/458 327/192/458
f 325/193/460 326/195/674 343/195/414
f 324/194/462 325/193/675 344/193/411
f 331/56/280 332/54/280 346/62/280
f 332/56/281 333/54/281 347/62/281
f 334/54/45 348/62/45 347/55/45
f 335/54/282 349/62/282 348/55/282
f 336/54/283 350/62/283 349/55/283
f 337/54/284 351/62/284 350/55/284
f 337/56/285 331/54/285 345/62/285
f 353/198/430 332/198/676 331/190/464
f 354/189/433 333/189/677 332/198/466
f 355/199/436 334/199/468 333/189/468
f 335/188/469 334/199/678 355/199/439
f 336/200/471 335/188/679 356/188/442
f 337/78/473 336/200/680 357/200/445
f 352/190/447 331/190/681 337/78/475
f 359/197/477 360/194/682 324/194/478
f 360/194/479 361/193/683 325/193/480
f 361/193/482 362/195/684 326/195/483
f 362/195/485 363/192/485 327/192/485
f 327/192/486 363/192/685 364/196/487
f 328/196/489 364/196/686 365/191/490
f 329/191/492 365/191/687 359/197/493
f 359/197/495 366/197/688 367/194/496
f 360/194/498 367/194/517 368/193/499
f 361/193/501 368/193/689 369/195/502
f 369/195/504 370/192/504 363/192/504
f 370/192/505 371/196/690 364/196/506
f 371/196/508 372/191/522 365/191/509
f 372/191/511 366/197/691 359/197/512
f 366/197/514 373/197/692 374/194/515
f 374/194/516 375/193/516 368/193/499
f 375/193/518 376/195/518 369/195/518
f 376/195/519 377/192/519 370/192/519
f 370/192/520 377/192/520 378/196/520
f 371/196/508 378/196/521 379/191/521
f 372/191/523 379/191/523 373/197/524
f 373/197/526 380/197/693 381/194/527
f 374/194/529 381/194/694 382/193/530
f 375/193/532 382/193/695 383/195/533
f 383/195/535 384/192/535 377/192/536
f 384/192/537 385/196/696 378/196/538
f 385/196/540 386/191/697 379/191/541
f 386/191/543 380/197/698 373/197/544
f 387/197/546 388/194/699 381/194/547
f 388/194/549 389/193/700 382/193/550
f 389/193/552 390/195/701 383/195/553
f 390/195/50 391/192/50 384/192/535
f 384/192/555 391/192/702 392/196/556
f 385/196/558 392/196/703 393/191/559
f 386/191/561 393/191/704 387/197/562
f 394/197/564 395/194/705 388/194/565
f 388/194/567 395/194/706 396/193/568
f 389/193/570 396/193/707 397/195/571
f 397/195/573 398/192/573 391/192/573
f 398/192/574 399/196/708 392/196/575
f 399/196/577 400/191/709 393/191/578
f 393/191/580 400/191/710 394/197/581
f 404/201/46 405/97/46 402/54/46
f 402/54/46 401/56/46 403/80/46
f 404/201/46 403/80/46 406/55/46
f 411/201/47 410/80/47 408/56/47
f 408/56/47 409/54/47 412/97/47
f 413/55/47 410/80/47 411/201/47
f 401/56/50 408/56/50 410/80/50
f 401/56/45 402/54/45 409/54/45
f 405/97/48 412/97/48 409/54/48
f 411/201/49 412/97/49 405/97/49
f 407/202/48 414/202/48 411/201/48
f 407/202/49 406/55/49 413/55/49
f 403/80/50 410/80/50 413/55/50
f 418/201/47 419/97/47 416/54/47
f 416/54/47 415/56/47 417/80/47
f 418/201/47 417/80/47 420/55/47
f 426/97/583 425/201/584 424/80/583
f 424/80/583 422/56/46 423/54/46
f 427/55/46 424/80/583 425/201/584
f 415/56/50 422/56/50 424/80/50
f 416/54/49 423/54/49 422/56/49
f 419/97/48 426/97/48 423/54/48
f 426/97/45 419/97/45 418/201/45
f 421/202/48 428/202/48 425/201/48
f 420/55/45 427/55/45 428/202/45
f 417/80/50 424/80/50 427/55/50
f 432/97/46 430/54/46 429/56/46
f 435/80/47 433/56/47 434/54/47
f 429/56/50 433/56/50 435/80/50
f 430/54/45 434/54/45 433/56/45
f 432/97/48 436/97/48 434/54/48
f 431/80/49 435/80/49 436/97/49
