# Blender 4.2.3 LTS
# www.blender.org
mtllib light01_1.mtl
o b_low
v 0.005154 -0.072797 0.159827
v 0.008927 -0.072797 0.156053
v 0.010309 -0.072797 0.150899
v 0.008927 -0.072797 0.145745
v 0.005154 -0.072797 0.141972
v 0.000000 -0.072797 0.140591
v -0.005154 -0.072797 0.141972
v -0.008927 -0.072797 0.145745
v -0.010309 -0.072797 0.150899
v -0.008927 -0.072797 0.156053
v -0.005154 -0.072797 0.159827
v 0.000000 -0.072797 0.161208
v 0.008225 -0.065889 0.165145
v 0.014246 -0.065889 0.159124
v 0.016450 -0.065889 0.150899
v 0.014246 -0.065889 0.142674
v 0.008225 -0.065889 0.136653
v 0.000000 -0.065889 0.134449
v -0.008225 -0.065889 0.136653
v -0.014246 -0.065889 0.142674
v -0.016450 -0.065889 0.150899
v -0.014246 -0.065889 0.159124
v -0.008225 -0.065889 0.165145
v 0.000000 -0.065889 0.167349
v 0.000000 -0.072797 0.150899
v 0.009150 -0.058247 0.166748
v 0.015848 -0.058247 0.160049
v 0.018300 -0.058247 0.150899
v 0.015848 -0.058247 0.141749
v 0.009150 -0.058247 0.135051
v 0.000000 -0.058247 0.132599
v -0.009150 -0.058247 0.135051
v -0.015848 -0.058247 0.141749
v -0.018300 -0.058247 0.150899
v -0.015848 -0.058247 0.160049
v -0.009150 -0.058247 0.166748
v 0.000000 -0.058247 0.169199
v 0.015476 -0.048134 0.177704
v 0.026805 -0.048134 0.166375
v 0.030951 -0.048134 0.150899
v 0.026805 -0.048134 0.135423
v 0.015476 -0.048134 0.124094
v 0.000000 -0.048134 0.119948
v -0.015476 -0.048134 0.124094
v -0.026805 -0.048134 0.135423
v -0.030951 -0.048134 0.150899
v -0.026805 -0.048134 0.166375
v -0.015476 -0.048134 0.177704
v 0.000000 -0.048134 0.181850
v 0.020245 -0.035210 0.185964
v 0.035065 -0.035210 0.171144
v 0.040489 -0.035210 0.150899
v 0.035065 -0.035210 0.130654
v 0.020245 -0.035210 0.115834
v 0.000000 -0.035210 0.110410
v -0.020245 -0.035210 0.115834
v -0.035065 -0.035210 0.130654
v -0.040489 -0.035210 0.150899
v -0.035065 -0.035210 0.171144
v -0.020245 -0.035210 0.185964
v 0.000000 -0.035210 0.191388
v 0.020245 -0.027314 0.185964
v 0.035065 -0.027314 0.171144
v 0.040489 -0.027314 0.150899
v 0.035065 -0.027314 0.130654
v 0.020245 -0.027314 0.115834
v 0.000000 -0.027314 0.110410
v -0.020245 -0.027314 0.115834
v -0.035065 -0.027314 0.130654
v -0.040489 -0.027314 0.150899
v -0.035065 -0.027314 0.171144
v -0.020245 -0.027314 0.185964
v 0.000000 -0.027314 0.191388
v 0.019100 -0.027314 0.183981
v 0.033082 -0.027314 0.169999
v 0.038200 -0.027314 0.150899
v 0.033082 -0.027314 0.131799
v 0.019100 -0.027314 0.117817
v 0.000000 -0.027314 0.112699
v -0.019100 -0.027314 0.117817
v -0.033082 -0.027314 0.131799
v -0.038200 -0.027314 0.150899
v -0.033082 -0.027314 0.169999
v -0.019100 -0.027314 0.183981
v 0.000000 -0.027314 0.189099
v 0.041034 0.130027 0.221972
v 0.071073 0.130027 0.191933
v 0.082068 0.130027 0.150899
v 0.071073 0.130027 0.109865
v 0.041034 0.130027 0.079826
v 0.000000 0.130027 0.068831
v -0.041034 0.130027 0.079826
v -0.071073 0.130027 0.109865
v -0.082068 0.130027 0.150899
v -0.071073 0.130027 0.191933
v -0.041034 0.130027 0.221972
v 0.000000 0.130027 0.232967
v 0.038865 0.132767 0.218214
v 0.067315 0.132767 0.189763
v 0.077729 0.132767 0.150899
v 0.067315 0.132767 0.112034
v 0.038865 0.132767 0.083584
v 0.000000 0.132767 0.073170
v -0.038865 0.132767 0.083584
v -0.067315 0.132767 0.112034
v -0.077729 0.132767 0.150899
v -0.067315 0.132767 0.189764
v -0.038865 0.132767 0.218214
v 0.000000 0.132767 0.228628
v 0.030080 0.007810 0.202999
v 0.025499 -0.010263 0.195065
v 0.031250 0.027805 0.205025
v 0.052099 0.007810 0.180979
v 0.044166 -0.010263 0.176398
v 0.054126 0.027805 0.182149
v 0.060159 0.007810 0.150899
v 0.050998 -0.010263 0.150899
v 0.062500 0.027805 0.150899
v 0.052099 0.007810 0.120819
v 0.044166 -0.010263 0.125400
v 0.054126 0.027805 0.119649
v 0.030080 0.007810 0.098800
v 0.025499 -0.010263 0.106733
v 0.031250 0.027805 0.096773
v 0.000000 0.007810 0.090740
v 0.000000 -0.010263 0.099901
v 0.000000 0.027805 0.088399
v -0.030080 0.007810 0.098800
v -0.025499 -0.010263 0.106733
v -0.031250 0.027805 0.096773
v -0.052099 0.007810 0.120819
v -0.044166 -0.010263 0.125400
v -0.054126 0.027805 0.119649
v -0.060159 0.007810 0.150899
v -0.050998 -0.010263 0.150899
v -0.062500 0.027805 0.150899
v -0.052099 0.007810 0.180979
v -0.044166 -0.010263 0.176398
v -0.054126 0.027805 0.182149
v -0.030080 0.007810 0.202999
v -0.025499 -0.010263 0.195065
v -0.031250 0.027805 0.205025
v 0.000000 0.007810 0.211058
v 0.000000 -0.010263 0.201897
v 0.000000 0.027805 0.213399
v 0.035365 0.119120 0.212152
v 0.030757 0.101333 0.204172
v 0.061253 0.119120 0.186263
v 0.053273 0.101333 0.181656
v 0.070729 0.119120 0.150899
v 0.061515 0.101333 0.150899
v 0.061253 0.119120 0.115534
v 0.053273 0.101333 0.120142
v 0.035365 0.119120 0.089646
v 0.030757 0.101333 0.097626
v 0.000000 0.119120 0.080170
v 0.000000 0.101333 0.089384
v -0.035365 0.119120 0.089646
v -0.030757 0.101333 0.097626
v -0.061253 0.119120 0.115534
v -0.053273 0.101333 0.120142
v -0.070729 0.119120 0.150899
v -0.061515 0.101333 0.150899
v -0.061253 0.119120 0.186263
v -0.053273 0.101333 0.181656
v -0.035365 0.119120 0.212152
v -0.030757 0.101333 0.204172
v 0.000000 0.119120 0.221628
v 0.000000 0.101333 0.212414
v 0.024028 0.100973 0.192516
v 0.041617 0.100973 0.174927
v 0.048055 0.100973 0.150899
v 0.041617 0.100973 0.126871
v 0.024028 0.100973 0.109282
v 0.000000 0.100973 0.102844
v -0.024028 0.100973 0.109282
v -0.041617 0.100973 0.126871
v -0.048055 0.100973 0.150899
v -0.041617 0.100973 0.174927
v -0.024028 0.100973 0.192516
v 0.000000 0.100973 0.198955
v 0.016963 -0.000002 0.180279
v 0.029380 -0.000002 0.167862
v 0.033925 -0.000002 0.150899
v 0.029380 -0.000002 0.133936
v 0.016963 -0.000002 0.121519
v 0.000000 -0.000002 0.116974
v -0.016963 -0.000002 0.121519
v -0.029380 -0.000002 0.133936
v -0.033925 -0.000002 0.150899
v -0.029380 -0.000002 0.167862
v -0.016963 -0.000002 0.180279
v 0.000000 -0.000002 0.184825
v 0.000000 -0.068219 0.150899
vn 0.6472 -0.6644 0.3737
vn 0.3737 -0.6644 0.6473
vn 0.7474 -0.6644 -0.0000
vn 0.6472 -0.6644 -0.3737
vn 0.3737 -0.6644 -0.6473
vn -0.0000 -0.6644 -0.7474
vn -0.3737 -0.6644 -0.6473
vn -0.6472 -0.6644 -0.3737
vn -0.7474 -0.6644 -0.0000
vn -0.6472 -0.6644 0.3737
vn -0.3737 -0.6644 0.6473
vn -0.0000 -0.6644 0.7474
vn -0.0000 -1.0000 -0.0000
vn 0.8417 -0.2354 0.4860
vn 0.4860 -0.2354 0.8417
vn 0.4859 -0.2354 0.8417
vn 0.9719 -0.2354 -0.0000
vn 0.8417 -0.2354 -0.4859
vn 0.4860 -0.2354 -0.8417
vn 0.8417 -0.2354 -0.4860
vn -0.0000 -0.2354 -0.9719
vn -0.4860 -0.2354 -0.8417
vn -0.8417 -0.2354 -0.4860
vn -0.8417 -0.2354 -0.4859
vn -0.9719 -0.2354 -0.0000
vn -0.8417 -0.2354 0.4860
vn -0.4860 -0.2354 0.8417
vn -0.4859 -0.2354 0.8417
vn -0.0000 -0.2354 0.9719
vn 0.3122 -0.7811 0.5407
vn 0.6465 -0.6654 0.3732
vn 0.3733 -0.6653 0.6465
vn 0.5407 -0.7811 0.3122
vn 0.7467 -0.6652 -0.0000
vn 0.5407 -0.7811 -0.3122
vn 0.6244 -0.7811 -0.0000
vn 0.3733 -0.6654 -0.6465
vn 0.6467 -0.6795 -0.3466
vn -0.0000 -0.7811 -0.6244
vn 0.3122 -0.7811 -0.5407
vn -0.3733 -0.6654 -0.6465
vn 0.0233 -0.6794 -0.7334
vn -0.5407 -0.7811 -0.3122
vn -0.3122 -0.7811 -0.5407
vn -0.7466 -0.6653 -0.0000
vn -0.6234 -0.6794 -0.3869
vn -0.5407 -0.7811 0.3122
vn -0.6244 -0.7811 -0.0000
vn -0.3122 -0.7811 0.5407
vn -0.6466 -0.6795 0.3467
vn -0.0000 -0.6652 0.7467
vn -0.3867 -0.6795 0.6235
vn -0.0000 -0.7811 0.6244
vn 0.6968 -0.5938 0.4023
vn 0.4023 -0.5938 0.6968
vn 0.6968 -0.5938 -0.4023
vn 0.8046 -0.5938 -0.0000
vn 0.4023 -0.5938 -0.6968
vn -0.4023 -0.5938 -0.6968
vn -0.0000 -0.5938 -0.8046
vn -0.8046 -0.5938 -0.0000
vn -0.6968 -0.5938 -0.4023
vn -0.6968 -0.5938 0.4023
vn -0.4023 -0.5938 0.6968
vn -0.0000 -0.5938 0.8046
vn 0.8660 -0.0000 0.5000
vn 0.5000 -0.0000 0.8660
vn 1.0000 -0.0000 -0.0000
vn 0.8660 -0.0000 -0.5000
vn 0.5000 -0.0000 -0.8660
vn -0.0000 -0.0000 -1.0000
vn -0.5000 -0.0000 -0.8660
vn -0.8660 -0.0000 -0.5000
vn -1.0000 -0.0000 -0.0000
vn -0.8660 -0.0000 0.5000
vn -0.5000 -0.0000 0.8660
vn -0.0000 -0.0000 1.0000
vn -0.0000 1.0000 -0.0000
vn 0.9996 0.0235 -0.0186
vn -0.2979 0.8029 -0.5163
vn 0.4491 -0.4395 0.7779
vn 0.8563 0.0234 -0.5159
vn -0.1676 0.8114 0.5600
vn 0.4837 0.0235 -0.8749
vn 0.1281 0.8286 0.5450
vn -0.0186 0.0234 -0.9996
vn 0.3938 0.8186 0.4180
vn -0.5092 0.0245 -0.8603
vn 0.5600 0.8114 0.1676
vn 0.2980 0.8029 0.5163
vn 0.5593 0.8184 -0.1322
vn 0.0186 0.0234 -0.9996
vn 0.5249 0.7953 0.3031
vn -0.4836 0.0233 -0.8750
vn 0.5819 0.8133 -0.0000
vn -0.8563 0.0233 -0.5159
vn 0.5073 0.8105 -0.2928
vn 0.0119 0.0244 0.9996
vn -0.9975 0.0640 -0.0306
vn -0.0000 0.8202 -0.5720
vn -0.5734 0.8012 -0.1710
vn -0.5287 0.0637 0.8464
vn 0.4763 -0.2741 0.8355
vn -0.0000 -0.5153 0.8570
vn 0.4285 -0.5153 0.7422
vn 0.4819 -0.0198 0.8760
vn -0.0088 -0.2803 0.9599
vn 0.8659 -0.0135 0.5000
vn 0.8265 -0.2816 0.4874
vn 0.9999 -0.0133 -0.0000
vn 0.8570 -0.5153 -0.0000
vn 0.9595 -0.2816 0.0087
vn 0.8333 -0.2725 -0.4811
vn 0.8659 -0.0136 -0.5000
vn 0.4811 -0.2724 -0.8333
vn 0.5000 -0.0136 -0.8659
vn 0.7370 -0.5188 -0.4332
vn -0.0000 -0.2725 -0.9622
vn -0.0000 -0.0139 -0.9999
vn -0.0000 -0.5153 -0.8570
vn -0.5000 -0.0136 -0.8659
vn -0.4721 -0.2816 -0.8354
vn -0.8659 -0.0136 -0.5000
vn -0.7422 -0.5153 -0.4285
vn -0.8265 -0.2816 -0.4874
vn -0.9999 -0.0136 -0.0000
vn -0.8570 -0.5153 -0.0000
vn -0.9595 -0.2816 -0.0088
vn -0.8659 -0.0134 0.5000
vn -0.8354 -0.2816 0.4721
vn -0.4811 -0.2725 0.8333
vn -0.5000 -0.0135 0.8659
vn -0.4285 -0.5154 0.7422
vn 0.0371 -0.0505 0.9980
vn 0.6926 -0.6003 0.3999
vn 0.3999 -0.6003 0.6926
vn 0.7998 -0.6003 -0.0000
vn 0.7353 -0.5283 0.4245
vn 0.6926 -0.6003 -0.3999
vn 0.4328 -0.5227 -0.7345
vn -0.0000 -0.6003 -0.7998
vn 0.3999 -0.6003 -0.6926
vn -0.4197 -0.5227 -0.7420
vn -0.6926 -0.6003 -0.3999
vn -0.3999 -0.6003 -0.6926
vn -0.7998 -0.6003 -0.0000
vn -0.7420 -0.5227 0.4197
vn -0.6926 -0.6003 0.3999
vn -0.0000 -0.6003 0.7998
vn -0.3999 -0.6003 0.6926
vn 0.3913 -0.6071 0.6917
vn 0.8614 -0.1034 0.4973
vn 0.6899 -0.6045 0.3983
vn -0.0000 -0.1017 0.9948
vn 0.3585 -0.2461 0.9005
vn 0.9948 -0.1017 -0.0000
vn 0.7967 -0.6043 -0.0000
vn 0.8617 -0.1003 -0.4975
vn 0.6899 -0.6045 -0.3983
vn 0.3983 -0.6044 -0.6899
vn -0.0000 -0.1003 -0.9950
vn -0.0000 -0.6043 -0.7967
vn -0.3983 -0.6044 -0.6899
vn -0.8615 -0.1017 -0.4974
vn -0.6899 -0.6044 -0.3983
vn -0.9950 -0.1003 -0.0000
vn -0.7967 -0.6044 -0.0000
vn -0.6899 -0.6045 0.3983
vn -0.7813 -0.1770 0.5986
vn -0.3983 -0.6044 0.6900
vn -0.3805 -0.1788 0.9073
vn 0.0089 -0.6104 0.7921
vn 0.4643 -0.3711 -0.8042
vn -0.4643 -0.3711 -0.8042
vn -0.4611 0.3867 -0.7986
vn -0.9221 0.3869 -0.0000
vn -0.8029 0.4575 -0.3822
vn -0.7319 0.4575 0.5050
vn -0.0000 0.3883 0.9216
vn -0.3822 0.4575 0.8029
vn 0.5040 0.4574 0.7326
vn 0.9225 0.3859 -0.0000
vn 0.8029 0.4575 0.3822
vn 0.7336 0.4573 -0.5027
vn -0.0000 0.3869 -0.9221
vn 0.3822 0.4575 -0.8029
vn -0.4891 0.2076 -0.8472
vn -0.8663 0.2937 -0.4040
vn -0.9523 0.2937 0.0832
vn -0.4891 0.2076 0.8472
vn -0.7830 0.2937 0.5483
vn -0.0000 0.2077 0.9782
vn 0.5482 0.2937 0.7831
vn 0.8663 0.2937 0.4040
vn 0.8472 0.2077 -0.4891
vn 0.9523 0.2937 -0.0833
vn 0.4040 0.2937 -0.8663
vn -0.0832 0.2937 -0.9523
vt 0.806830 0.012090
vt 0.760922 0.116666
vt 0.760922 0.012090
vt 0.852737 0.012090
vt 0.806830 0.116666
vt 0.898644 0.012090
vt 0.852737 0.116666
vt 0.944552 0.116666
vt 0.898644 0.116666
vt 0.944552 0.012090
vt 0.990459 0.116666
vt 0.439571 0.012090
vt 0.485478 0.116666
vt 0.439571 0.116666
vt 0.531386 0.012090
vt 0.485478 0.012090
vt 0.577293 0.012090
vt 0.531386 0.116666
vt 0.623201 0.116666
vt 0.577293 0.116666
vt 0.623201 0.012090
vt 0.669108 0.116666
vt 0.715015 0.012090
vt 0.669108 0.012090
vt 0.715015 0.116666
vt 0.701829 0.750328
vt 0.672944 0.721323
vt 0.741287 0.681700
vt 0.741287 0.760946
vt 0.780745 0.750328
vt 0.809630 0.721323
vt 0.820202 0.681700
vt 0.809630 0.642077
vt 0.780745 0.613071
vt 0.741287 0.602454
vt 0.701829 0.613071
vt 0.672944 0.642077
vt 0.662372 0.681700
vt 0.760922 0.200066
vt 0.852737 0.200066
vt 0.806830 0.200066
vt 0.898644 0.200066
vt 0.944552 0.200066
vt 0.439571 0.200066
vt 0.531386 0.200066
vt 0.485478 0.200066
vt 0.577293 0.200066
vt 0.669108 0.200066
vt 0.623201 0.200066
vt 0.715015 0.200066
vt 0.806830 0.288958
vt 0.760922 0.288958
vt 0.852737 0.288958
vt 0.944552 0.288958
vt 0.898644 0.288958
vt 0.990459 0.200066
vt 0.485478 0.288958
vt 0.439571 0.288958
vt 0.577293 0.288958
vt 0.531386 0.288958
vt 0.623201 0.288958
vt 0.715015 0.288958
vt 0.669108 0.288958
vt 0.806830 0.361657
vt 0.760922 0.361657
vt 0.898644 0.361657
vt 0.852737 0.361657
vt 0.944552 0.361657
vt 0.990459 0.288958
vt 0.485478 0.361657
vt 0.439571 0.361657
vt 0.577293 0.361657
vt 0.531386 0.361657
vt 0.623201 0.361657
vt 0.669108 0.361657
vt 0.715015 0.361657
vt 0.760922 0.410739
vt 0.806830 0.410739
vt 0.852737 0.410739
vt 0.898644 0.410739
vt 0.990459 0.361657
vt 0.944552 0.410739
vt 0.439571 0.410739
vt 0.485478 0.410739
vt 0.531386 0.410739
vt 0.577293 0.410739
vt 0.623201 0.410739
vt 0.669108 0.410739
vt 0.715015 0.410739
vt 0.806830 0.439623
vt 0.760922 0.439623
vt 0.852737 0.439623
vt 0.898644 0.439623
vt 0.990459 0.410739
vt 0.944552 0.439623
vt 0.485478 0.439623
vt 0.439571 0.439623
vt 0.531386 0.439623
vt 0.577293 0.439623
vt 0.623201 0.439623
vt 0.669108 0.439623
vt 0.715015 0.439623
vt 0.290406 0.570572
vt 0.255075 0.580899
vt 0.255075 0.570572
vt 0.325738 0.570572
vt 0.290406 0.580899
vt 0.361070 0.570573
vt 0.325739 0.580900
vt 0.396402 0.570572
vt 0.361070 0.580899
vt 0.431733 0.570572
vt 0.396401 0.580900
vt 0.007753 0.570573
vt 0.043084 0.580899
vt 0.007753 0.580900
vt 0.043085 0.570573
vt 0.078416 0.580900
vt 0.078416 0.570573
vt 0.113748 0.580900
vt 0.113748 0.570573
vt 0.149079 0.580899
vt 0.184411 0.570573
vt 0.149079 0.570573
vt 0.219743 0.580899
vt 0.184411 0.580899
vt 0.219743 0.570573
vt 0.255075 0.366078
vt 0.219743 0.324286
vt 0.255075 0.324286
vt 0.255075 0.394742
vt 0.219743 0.366077
vt 0.290407 0.394742
vt 0.290407 0.366077
vt 0.325739 0.394742
vt 0.325739 0.324286
vt 0.325739 0.366077
vt 0.361070 0.366078
vt 0.361070 0.394742
vt 0.396402 0.366077
vt 0.396402 0.394742
vt 0.361070 0.324286
vt 0.431733 0.366077
vt 0.431733 0.394742
vt 0.431734 0.324286
vt 0.007753 0.366077
vt 0.043084 0.394742
vt 0.007753 0.394742
vt 0.007752 0.324286
vt 0.043084 0.366077
vt 0.078416 0.394742
vt 0.078416 0.324286
vt 0.078416 0.366077
vt 0.113748 0.394742
vt 0.113748 0.324286
vt 0.113748 0.366077
vt 0.149080 0.394741
vt 0.149080 0.366078
vt 0.184412 0.366078
vt 0.184411 0.394741
vt 0.184411 0.324286
vt 0.219743 0.394742
vt 0.290406 0.268355
vt 0.255075 0.268355
vt 0.325739 0.268355
vt 0.290407 0.324286
vt 0.361070 0.268354
vt 0.396402 0.324286
vt 0.431733 0.268355
vt 0.396402 0.268355
vt 0.007752 0.268354
vt 0.043084 0.324286
vt 0.078416 0.268354
vt 0.043084 0.268354
vt 0.113748 0.268354
vt 0.149080 0.324286
vt 0.149080 0.268354
vt 0.219743 0.268354
vt 0.184411 0.268354
vt 0.255075 0.546998
vt 0.290407 0.509244
vt 0.290406 0.546998
vt 0.219743 0.509244
vt 0.255075 0.509244
vt 0.325739 0.509244
vt 0.325739 0.546998
vt 0.361070 0.509244
vt 0.361070 0.546998
vt 0.396402 0.546998
vt 0.431733 0.509244
vt 0.431733 0.546998
vt 0.007752 0.509244
vt 0.043085 0.546998
vt 0.007752 0.546998
vt 0.078416 0.509244
vt 0.078416 0.546998
vt 0.113748 0.509244
vt 0.113748 0.546998
vt 0.149080 0.546998
vt 0.149080 0.509244
vt 0.184411 0.546998
vt 0.184411 0.509244
vt 0.219743 0.546998
vt 0.396402 0.509244
vt 0.043084 0.509244
vt 0.290055 0.010797
vt 0.254723 0.121538
vt 0.254723 0.010797
vt 0.325387 0.121538
vt 0.290055 0.121538
vt 0.360718 0.010797
vt 0.325387 0.010797
vt 0.396050 0.010797
vt 0.360718 0.121538
vt 0.431382 0.121538
vt 0.396050 0.121538
vt 0.042732 0.010797
vt 0.007401 0.121538
vt 0.007401 0.010797
vt 0.078064 0.010797
vt 0.042732 0.121538
vt 0.113396 0.121538
vt 0.078064 0.121538
vt 0.148728 0.010797
vt 0.113396 0.010797
vt 0.184060 0.010797
vt 0.148728 0.121538
vt 0.219392 0.121538
vt 0.184060 0.121538
vt 0.219392 0.010797
vt 0.254723 0.261531
vt 0.290055 0.261531
vt 0.325387 0.261531
vt 0.396050 0.261531
vt 0.360718 0.261531
vt 0.431382 0.261531
vt 0.007401 0.261531
vt 0.042732 0.261531
vt 0.078064 0.261531
vt 0.148728 0.261531
vt 0.113396 0.261531
vt 0.184060 0.261531
vt 0.219392 0.261531
vt 0.936649 0.781311
vt 0.906282 0.834130
vt 0.906282 0.773140
vt 0.853683 0.803635
vt 0.845545 0.834130
vt 0.958880 0.864625
vt 0.967017 0.834130
vt 0.875914 0.886949
vt 0.906282 0.895120
vt 0.853683 0.864625
vt 0.875914 0.781311
vt 0.958880 0.803635
vt 0.936649 0.886949
vt 0.990459 0.012090
vt 0.990459 0.439623
vt 0.431733 0.580900
vt 0.431382 0.010797
s 1
usemtl eb_sconce_light_01
f 2/1/1 13/2/2 1/3/2
f 3/4/3 14/5/1 2/1/1
f 4/6/4 15/7/3 3/4/3
f 4/6/4 17/8/5 16/9/4
f 5/10/5 18/11/6 17/8/5
f 6/12/6 19/13/7 18/14/6
f 8/15/8 19/13/7 7/16/7
f 9/17/9 20/18/8 8/15/8
f 9/17/9 22/19/10 21/20/9
f 10/21/10 23/22/11 22/19/10
f 12/23/12 23/22/11 11/24/11
f 12/23/12 13/2/2 24/25/12
f 2/26/13 1/27/13 25/28/13
f 3/29/13 2/26/13 25/28/13
f 4/30/13 3/29/13 25/28/13
f 5/31/13 4/30/13 25/28/13
f 6/32/13 5/31/13 25/28/13
f 7/33/13 6/32/13 25/28/13
f 8/34/13 7/33/13 25/28/13
f 9/35/13 8/34/13 25/28/13
f 10/36/13 9/35/13 25/28/13
f 11/37/13 10/36/13 25/28/13
f 12/38/13 11/37/13 25/28/13
f 1/27/13 12/38/13 25/28/13
f 14/5/14 26/39/15 13/2/16
f 14/5/14 28/40/17 27/41/14
f 16/9/18 28/40/17 15/7/17
f 17/8/19 29/42/20 16/9/18
f 18/11/21 30/43/19 17/8/19
f 19/13/22 31/44/21 18/14/21
f 19/13/22 33/45/23 32/46/22
f 20/18/24 34/47/25 33/45/23
f 22/19/26 34/47/25 21/20/25
f 22/19/26 36/48/27 35/49/26
f 23/22/28 37/50/29 36/48/27
f 13/2/16 37/50/29 24/25/29
f 26/39/30 39/51/31 38/52/32
f 27/41/33 40/53/34 39/51/31
f 29/42/35 40/53/34 28/40/36
f 29/42/35 42/54/37 41/55/38
f 31/56/39 42/54/37 30/43/40
f 31/44/39 44/57/41 43/58/42
f 33/45/43 44/57/41 32/46/44
f 33/45/43 46/59/45 45/60/46
f 35/49/47 46/59/45 34/47/48
f 36/48/49 47/61/50 35/49/47
f 36/48/49 49/62/51 48/63/52
f 26/39/30 49/62/51 37/50/53
f 38/52/32 51/64/54 50/65/55
f 40/53/34 51/64/54 39/51/31
f 40/53/34 53/66/56 52/67/57
f 41/55/38 54/68/58 53/66/56
f 43/69/42 54/68/58 42/54/37
f 43/58/42 56/70/59 55/71/60
f 45/60/46 56/70/59 44/57/41
f 45/60/46 58/72/61 57/73/62
f 46/59/45 59/74/63 58/72/61
f 48/63/52 59/74/63 47/61/50
f 49/62/51 60/75/64 48/63/52
f 49/62/51 50/65/55 61/76/65
f 51/64/66 62/77/67 50/65/67
f 52/67/68 63/78/66 51/64/66
f 53/66/69 64/79/68 52/67/68
f 54/68/70 65/80/69 53/66/69
f 55/81/71 66/82/70 54/68/70
f 56/70/72 67/83/71 55/71/71
f 57/73/73 68/84/72 56/70/72
f 58/72/74 69/85/73 57/73/73
f 59/74/75 70/86/74 58/72/74
f 60/75/76 71/87/75 59/74/75
f 61/76/77 72/88/76 60/75/76
f 50/65/67 73/89/77 61/76/77
f 62/77/78 75/90/78 74/91/78
f 63/78/78 76/92/78 75/90/78
f 64/79/78 77/93/78 76/92/78
f 66/82/78 77/93/78 65/80/78
f 67/94/78 78/95/78 66/82/78
f 67/83/78 80/96/78 79/97/78
f 69/85/78 80/96/78 68/84/78
f 70/86/78 81/98/78 69/85/78
f 71/87/78 82/99/78 70/86/78
f 72/88/78 83/100/78 71/87/78
f 73/89/78 84/101/78 72/88/78
f 73/89/78 74/91/78 85/102/78
f 87/103/79 98/104/80 86/105/81
f 88/106/82 99/107/83 87/103/79
f 89/108/84 100/109/85 88/106/82
f 90/110/86 101/111/87 89/108/84
f 91/112/88 102/113/89 90/110/86
f 91/114/88 104/115/90 103/116/91
f 92/117/92 105/118/93 104/115/90
f 93/119/94 106/120/95 105/118/93
f 94/121/96 107/122/97 106/120/95
f 96/123/98 107/122/97 95/124/99
f 96/123/98 109/125/100 108/126/101
f 86/105/81 109/125/100 97/127/102
f 110/128/103 144/129/104 111/130/105
f 112/131/106 143/132/107 110/128/103
f 110/128/103 115/133/108 112/131/106
f 111/130/105 113/134/109 110/128/103
f 113/134/109 118/135/110 115/133/108
f 113/134/109 117/136/111 116/137/112
f 118/135/110 119/138/113 121/139/114
f 117/136/111 119/138/113 116/137/112
f 121/139/114 122/140/115 124/141/116
f 120/142/117 122/140/115 119/138/113
f 124/141/116 125/143/118 127/144/119
f 122/140/115 126/145/120 125/143/118
f 125/146/118 130/147/121 127/148/119
f 126/149/120 128/150/122 125/146/118
f 128/150/122 133/151/123 130/147/121
f 128/150/122 132/152/124 131/153/125
f 131/153/125 136/154/126 133/151/123
f 131/153/125 135/155/127 134/156/128
f 134/156/128 139/157/129 136/154/126
f 135/155/127 137/158/130 134/156/128
f 139/157/129 140/159/131 142/160/132
f 137/158/130 141/161/133 140/159/131
f 142/160/132 143/132/107 145/162/134
f 140/159/131 144/129/104 143/132/107
f 75/163/135 111/130/105 74/164/136
f 76/165/137 114/166/138 75/163/135
f 77/167/139 117/136/111 76/165/137
f 77/167/139 123/168/140 120/142/117
f 79/169/141 123/168/140 78/170/142
f 79/171/141 129/172/143 126/149/120
f 81/173/144 129/172/143 80/174/145
f 82/175/146 132/152/124 81/173/144
f 82/175/146 138/176/147 135/155/127
f 83/177/148 141/161/133 138/176/147
f 85/178/149 141/161/133 84/179/150
f 85/178/149 111/130/105 144/129/104
f 146/180/151 149/181/152 148/182/153
f 146/180/151 169/183/154 147/184/155
f 148/182/153 151/185/156 150/186/157
f 150/186/157 153/187/158 152/188/159
f 153/187/158 154/189/160 152/188/159
f 154/189/160 157/190/161 156/191/162
f 157/192/161 158/193/163 156/194/162
f 158/193/163 161/195/164 160/196/165
f 160/196/165 163/197/166 162/198/167
f 163/197/166 164/199/168 162/198/167
f 165/200/169 166/201/170 164/199/168
f 167/202/171 168/203/172 166/201/170
f 146/180/151 87/103/79 86/105/81
f 150/186/157 87/103/79 148/182/153
f 150/186/157 89/108/84 88/106/82
f 154/189/160 89/108/84 152/188/159
f 156/191/162 90/110/86 154/189/160
f 156/194/162 92/117/92 91/114/88
f 160/196/165 92/117/92 158/193/163
f 162/198/167 93/119/94 160/196/165
f 162/198/167 95/124/99 94/121/96
f 166/201/170 95/124/99 164/199/168
f 168/203/172 96/123/98 166/201/170
f 168/203/172 86/105/81 97/127/102
f 112/131/106 149/181/152 147/184/155
f 118/135/110 149/181/152 115/133/108
f 121/139/114 151/185/156 118/135/110
f 124/141/116 153/187/158 121/139/114
f 127/144/119 155/204/173 124/141/116
f 130/147/121 157/192/161 127/148/119
f 133/151/123 159/205/174 130/147/121
f 136/154/126 161/195/164 133/151/123
f 139/157/129 163/197/166 136/154/126
f 139/157/129 167/202/171 165/200/169
f 145/162/134 167/202/171 142/160/132
f 112/131/106 169/183/154 145/162/134
f 99/206/83 170/207/175 98/208/80
f 99/206/83 172/209/176 171/210/177
f 101/211/87 172/209/176 100/212/85
f 102/213/89 173/214/178 101/211/87
f 102/213/89 175/215/179 174/216/180
f 104/217/90 175/218/179 103/219/91
f 105/220/93 176/221/181 104/217/90
f 105/220/93 178/222/182 177/223/183
f 107/224/97 178/222/182 106/225/95
f 108/226/101 179/227/184 107/224/97
f 108/226/101 181/228/185 180/229/186
f 98/208/80 181/228/185 109/230/100
f 171/210/177 182/231/187 170/207/175
f 172/209/176 183/232/188 171/210/177
f 173/214/178 184/233/189 172/209/176
f 173/214/178 186/234/190 185/235/191
f 174/216/180 187/236/192 186/234/190
f 176/221/181 187/237/192 175/218/179
f 177/223/183 188/238/193 176/221/181
f 178/222/182 189/239/194 177/223/183
f 178/222/182 191/240/195 190/241/196
f 180/229/186 191/240/195 179/227/184
f 181/228/185 192/242/197 180/229/186
f 170/207/175 193/243/198 181/228/185
f 191/244/195 194/245/78 190/246/196
f 188/247/193 194/245/78 187/248/192
f 182/249/187 194/245/78 193/250/198
f 185/251/191 194/245/78 184/252/189
f 187/248/192 194/245/78 186/253/190
f 186/253/190 194/245/78 185/251/191
f 190/246/196 194/245/78 189/254/194
f 189/254/194 194/245/78 188/247/193
f 193/250/198 194/245/78 192/255/197
f 192/255/197 194/245/78 191/244/195
f 183/256/188 184/252/189 194/245/78
f 183/256/188 194/245/78 182/249/187
f 2/1/1 14/5/1 13/2/2
f 3/4/3 15/7/3 14/5/1
f 4/6/4 16/9/4 15/7/3
f 4/6/4 5/10/5 17/8/5
f 5/10/5 6/257/6 18/11/6
f 6/12/6 7/16/7 19/13/7
f 8/15/8 20/18/8 19/13/7
f 9/17/9 21/20/9 20/18/8
f 9/17/9 10/21/10 22/19/10
f 10/21/10 11/24/11 23/22/11
f 12/23/12 24/25/12 23/22/11
f 12/23/12 1/3/2 13/2/2
f 14/5/14 27/41/14 26/39/15
f 14/5/14 15/7/17 28/40/17
f 16/9/18 29/42/20 28/40/17
f 17/8/19 30/43/19 29/42/20
f 18/11/21 31/56/21 30/43/19
f 19/13/22 32/46/22 31/44/21
f 19/13/22 20/18/24 33/45/23
f 20/18/24 21/20/25 34/47/25
f 22/19/26 35/49/26 34/47/25
f 22/19/26 23/22/28 36/48/27
f 23/22/28 24/25/29 37/50/29
f 13/2/16 26/39/15 37/50/29
f 26/39/30 27/41/33 39/51/31
f 27/41/33 28/40/36 40/53/34
f 29/42/35 41/55/38 40/53/34
f 29/42/35 30/43/40 42/54/37
f 31/56/39 43/69/42 42/54/37
f 31/44/39 32/46/44 44/57/41
f 33/45/43 45/60/46 44/57/41
f 33/45/43 34/47/48 46/59/45
f 35/49/47 47/61/50 46/59/45
f 36/48/49 48/63/52 47/61/50
f 36/48/49 37/50/53 49/62/51
f 26/39/30 38/52/32 49/62/51
f 38/52/32 39/51/31 51/64/54
f 40/53/34 52/67/57 51/64/54
f 40/53/34 41/55/38 53/66/56
f 41/55/38 42/54/37 54/68/58
f 43/69/42 55/81/60 54/68/58
f 43/58/42 44/57/41 56/70/59
f 45/60/46 57/73/62 56/70/59
f 45/60/46 46/59/45 58/72/61
f 46/59/45 47/61/50 59/74/63
f 48/63/52 60/75/64 59/74/63
f 49/62/51 61/76/65 60/75/64
f 49/62/51 38/52/32 50/65/55
f 51/64/66 63/78/66 62/77/67
f 52/67/68 64/79/68 63/78/66
f 53/66/69 65/80/69 64/79/68
f 54/68/70 66/82/70 65/80/69
f 55/81/71 67/94/71 66/82/70
f 56/70/72 68/84/72 67/83/71
f 57/73/73 69/85/73 68/84/72
f 58/72/74 70/86/74 69/85/73
f 59/74/75 71/87/75 70/86/74
f 60/75/76 72/88/76 71/87/75
f 61/76/77 73/89/77 72/88/76
f 50/65/67 62/77/67 73/89/77
f 62/77/78 63/78/78 75/90/78
f 63/78/78 64/79/78 76/92/78
f 64/79/78 65/80/78 77/93/78
f 66/82/78 78/95/78 77/93/78
f 67/94/78 79/258/78 78/95/78
f 67/83/78 68/84/78 80/96/78
f 69/85/78 81/98/78 80/96/78
f 70/86/78 82/99/78 81/98/78
f 71/87/78 83/100/78 82/99/78
f 72/88/78 84/101/78 83/100/78
f 73/89/78 85/102/78 84/101/78
f 73/89/78 62/77/78 74/91/78
f 87/103/79 99/107/83 98/104/80
f 88/106/82 100/109/85 99/107/83
f 89/108/84 101/111/87 100/109/85
f 90/110/86 102/113/89 101/111/87
f 91/112/88 103/259/91 102/113/89
f 91/114/88 92/117/92 104/115/90
f 92/117/92 93/119/94 105/118/93
f 93/119/94 94/121/96 106/120/95
f 94/121/96 95/124/99 107/122/97
f 96/123/98 108/126/101 107/122/97
f 96/123/98 97/127/102 109/125/100
f 86/105/81 98/104/80 109/125/100
f 110/128/103 143/132/107 144/129/104
f 112/131/106 145/162/134 143/132/107
f 110/128/103 113/134/109 115/133/108
f 111/130/105 114/166/138 113/134/109
f 113/134/109 116/137/112 118/135/110
f 113/134/109 114/166/138 117/136/111
f 118/135/110 116/137/112 119/138/113
f 117/136/111 120/142/117 119/138/113
f 121/139/114 119/138/113 122/140/115
f 120/142/117 123/168/140 122/140/115
f 124/141/116 122/140/115 125/143/118
f 122/140/115 123/168/140 126/145/120
f 125/146/118 128/150/122 130/147/121
f 126/149/120 129/172/143 128/150/122
f 128/150/122 131/153/125 133/151/123
f 128/150/122 129/172/143 132/152/124
f 131/153/125 134/156/128 136/154/126
f 131/153/125 132/152/124 135/155/127
f 134/156/128 137/158/130 139/157/129
f 135/155/127 138/176/147 137/158/130
f 139/157/129 137/158/130 140/159/131
f 137/158/130 138/176/147 141/161/133
f 142/160/132 140/159/131 143/132/107
f 140/159/131 141/161/133 144/129/104
f 75/163/135 114/166/138 111/130/105
f 76/165/137 117/136/111 114/166/138
f 77/167/139 120/142/117 117/136/111
f 77/167/139 78/170/142 123/168/140
f 79/169/141 126/145/120 123/168/140
f 79/171/141 80/174/145 129/172/143
f 81/173/144 132/152/124 129/172/143
f 82/175/146 135/155/127 132/152/124
f 82/175/146 83/177/148 138/176/147
f 83/177/148 84/179/150 141/161/133
f 85/178/149 144/129/104 141/161/133
f 85/178/149 74/164/136 111/130/105
f 146/180/151 147/184/155 149/181/152
f 146/180/151 168/203/172 169/183/154
f 148/182/153 149/181/152 151/185/156
f 150/186/157 151/185/156 153/187/158
f 153/187/158 155/204/173 154/189/160
f 154/189/160 155/204/173 157/190/161
f 157/192/161 159/205/174 158/193/163
f 158/193/163 159/205/174 161/195/164
f 160/196/165 161/195/164 163/197/166
f 163/197/166 165/200/169 164/199/168
f 165/200/169 167/202/171 166/201/170
f 167/202/171 169/183/154 168/203/172
f 146/180/151 148/182/153 87/103/79
f 150/186/157 88/106/82 87/103/79
f 150/186/157 152/188/159 89/108/84
f 154/189/160 90/110/86 89/108/84
f 156/191/162 91/112/88 90/110/86
f 156/194/162 158/193/163 92/117/92
f 160/196/165 93/119/94 92/117/92
f 162/198/167 94/121/96 93/119/94
f 162/198/167 164/199/168 95/124/99
f 166/201/170 96/123/98 95/124/99
f 168/203/172 97/127/102 96/123/98
f 168/203/172 146/180/151 86/105/81
f 112/131/106 115/133/108 149/181/152
f 118/135/110 151/185/156 149/181/152
f 121/139/114 153/187/158 151/185/156
f 124/141/116 155/204/173 153/187/158
f 127/144/119 157/190/161 155/204/173
f 130/147/121 159/205/174 157/192/161
f 133/151/123 161/195/164 159/205/174
f 136/154/126 163/197/166 161/195/164
f 139/157/129 165/200/169 163/197/166
f 139/157/129 142/160/132 167/202/171
f 145/162/134 169/183/154 167/202/171
f 112/131/106 147/184/155 169/183/154
f 99/206/83 171/210/177 170/207/175
f 99/206/83 100/212/85 172/209/176
f 101/211/87 173/214/178 172/209/176
f 102/213/89 174/216/180 173/214/178
f 102/213/89 103/260/91 175/215/179
f 104/217/90 176/221/181 175/218/179
f 105/220/93 177/223/183 176/221/181
f 105/220/93 106/225/95 178/222/182
f 107/224/97 179/227/184 178/222/182
f 108/226/101 180/229/186 179/227/184
f 108/226/101 109/230/100 181/228/185
f 98/208/80 170/207/175 181/228/185
f 171/210/177 183/232/188 182/231/187
f 172/209/176 184/233/189 183/232/188
f 173/214/178 185/235/191 184/233/189
f 173/214/178 174/216/180 186/234/190
f 174/216/180 175/215/179 187/236/192
f 176/221/181 188/238/193 187/237/192
f 177/223/183 189/239/194 188/238/193
f 178/222/182 190/241/196 189/239/194
f 178/222/182 179/227/184 191/240/195
f 180/229/186 192/242/197 191/240/195
f 181/228/185 193/243/198 192/242/197
f 170/207/175 182/231/187 193/243/198
o e_low
v 0.013186 -0.045227 0.158512
v 0.013186 -0.045227 0.143286
v 0.000000 -0.045227 0.135674
v -0.013186 -0.045227 0.143286
v -0.013186 -0.045227 0.158512
v 0.000000 -0.045227 0.166124
v 0.033214 0.078920 0.170075
v 0.033214 0.078920 0.131723
v 0.000000 0.078920 0.112547
v -0.033214 0.078920 0.131723
v -0.033214 0.078920 0.170075
v 0.000000 0.078920 0.189251
v 0.000000 0.090560 0.150899
vn 0.8514 -0.1831 -0.4915
vn 0.8656 -0.0322 0.4997
vn 0.8514 -0.1831 0.4915
vn -0.0000 -0.1831 -0.9831
vn 0.4143 0.4952 -0.7636
vn -0.8514 -0.1831 -0.4915
vn -0.4542 0.4952 -0.7406
vn -0.8514 -0.1831 0.4915
vn -0.8685 0.4952 0.0230
vn -0.0000 -0.0292 0.9996
vn -0.4182 0.4952 0.7615
vn -0.0000 -0.1831 0.9831
vn -0.0000 1.0000 -0.0000
vt 0.415337 0.882205
vt 0.519161 0.778283
vt 0.578704 0.882205
vt 0.333653 0.739640
vt 0.474879 0.778283
vt 0.415337 0.597074
vt 0.452738 0.739640
vt 0.578704 0.597074
vt 0.474879 0.700996
vt 0.541303 0.739640
vt 0.519161 0.700996
vt 0.660387 0.739640
vt 0.497020 0.739640
s 1
usemtl eb_sconce_light_01
f 196/261/199 201/262/200 195/263/201
f 197/264/202 202/265/203 196/261/199
f 198/266/204 203/267/205 197/264/202
f 199/268/206 204/269/207 198/266/204
f 199/268/206 206/270/208 205/271/209
f 200/272/210 201/262/200 206/270/208
f 201/262/200 202/265/203 207/273/211
f 202/265/203 203/267/205 207/273/211
f 203/267/205 204/269/207 207/273/211
f 204/269/207 205/271/209 207/273/211
f 205/271/209 206/270/208 207/273/211
f 206/270/208 201/262/200 207/273/211
f 196/261/199 202/265/203 201/262/200
f 197/264/202 203/267/205 202/265/203
f 198/266/204 204/269/207 203/267/205
f 199/268/206 205/271/209 204/269/207
f 199/268/206 200/272/210 206/270/208
f 200/272/210 195/263/201 201/262/200
