# Blender 4.2.3 LTS
# www.blender.org
mtllib light01.mtl
o a_low
v 0.033471 -0.080805 0.000000
v 0.061846 -0.061846 0.000000
v 0.080805 -0.033471 0.000000
v 0.087463 -0.000000 0.000000
v 0.080805 0.033471 -0.000000
v 0.061846 0.061846 -0.000000
v 0.033471 0.080805 -0.000000
v 0.000000 0.087463 -0.000000
v -0.033471 0.080805 -0.000000
v -0.061846 0.061846 -0.000000
v -0.080805 0.033471 -0.000000
v -0.087463 0.000000 -0.000000
v -0.080805 -0.033471 0.000000
v -0.061846 -0.061846 0.000000
v -0.033471 -0.080805 0.000000
v 0.000000 -0.087463 0.000000
v 0.033471 -0.080805 0.009522
v 0.061846 -0.061846 0.009522
v 0.080805 -0.033471 0.009522
v 0.087463 -0.000000 0.009522
v 0.080805 0.033471 0.009522
v 0.061846 0.061846 0.009522
v 0.033471 0.080805 0.009522
v 0.000000 0.087463 0.009522
v -0.033471 0.080805 0.009522
v -0.061846 0.061846 0.009522
v -0.080805 0.033471 0.009522
v -0.087463 0.000000 0.009522
v -0.080805 -0.033471 0.009522
v -0.061846 -0.061846 0.009522
v -0.033471 -0.080805 0.009522
v 0.000000 -0.087463 0.009522
v 0.026488 -0.063947 0.035304
v 0.048943 -0.048943 0.035304
v 0.000000 0.000000 0.035304
v 0.063947 -0.026488 0.035305
v 0.069216 -0.000000 0.035304
v 0.063947 0.026488 0.035305
v 0.048943 0.048943 0.035304
v 0.026488 0.063947 0.035304
v 0.000000 0.069216 0.035304
v -0.026488 0.063947 0.035304
v -0.048943 0.048943 0.035304
v -0.063947 0.026488 0.035304
v -0.069216 0.000000 0.035304
v -0.063947 -0.026488 0.035304
v -0.048943 -0.048943 0.035304
v -0.026488 -0.063947 0.035304
v 0.000000 -0.069216 0.035304
v 0.028109 -0.067861 0.023388
v 0.051938 -0.051938 0.023387
v 0.067861 -0.028109 0.023388
v 0.073452 -0.000000 0.023387
v 0.067861 0.028109 0.023388
v 0.051938 0.051938 0.023387
v 0.028109 0.067861 0.023387
v 0.000000 0.073452 0.023387
v -0.028109 0.067861 0.023387
v -0.051938 0.051938 0.023387
v -0.067861 0.028109 0.023387
v -0.073452 0.000000 0.023387
v -0.067861 -0.028109 0.023387
v -0.051938 -0.051938 0.023387
v -0.028109 -0.067861 0.023388
v 0.000000 -0.073452 0.023388
vn 0.7071 -0.7071 -0.0000
vn 0.3827 -0.9239 -0.0000
vn 0.9239 -0.3827 -0.0000
vn 1.0000 -0.0000 -0.0000
vn 0.9239 0.3827 -0.0000
vn 0.7071 0.7071 -0.0000
vn 0.3827 0.9239 -0.0000
vn -0.0000 1.0000 -0.0000
vn -0.3827 0.9239 -0.0000
vn -0.7071 0.7071 -0.0000
vn -0.9239 0.3827 -0.0000
vn -1.0000 -0.0000 -0.0000
vn -0.9239 -0.3827 -0.0000
vn -0.7071 -0.7071 -0.0000
vn -0.3827 -0.9239 -0.0000
vn -0.0000 -1.0000 -0.0000
vn -0.0000 -0.0000 1.0000
vn 0.2786 -0.7561 0.5922
vn -0.0000 -0.7034 0.7108
vn 0.2692 -0.6499 0.7108
vn -0.0529 -0.8508 0.5229
vn 0.3606 -0.8705 0.3349
vn -0.0000 -0.9422 0.3349
vn 0.6663 -0.6663 0.3349
vn 0.4974 -0.4974 0.7108
vn 0.7347 -0.3620 0.5737
vn 0.6301 -0.5444 0.5538
vn 0.6499 -0.2692 0.7108
vn 0.9422 -0.0000 0.3349
vn 0.8705 -0.3606 0.3349
vn 0.8483 -0.0555 0.5266
vn 0.7034 -0.0000 0.7108
vn 0.7755 0.2636 0.5737
vn 0.6499 0.2692 0.7108
vn 0.6663 0.6663 0.3349
vn 0.8705 0.3606 0.3349
vn 0.6391 0.5606 0.5266
vn 0.4974 0.4974 0.7108
vn 0.3619 0.7348 0.5737
vn 0.2692 0.6499 0.7108
vn 0.0532 0.8173 0.5737
vn 0.3606 0.8705 0.3349
vn -0.0000 0.7034 0.7108
vn -0.3606 0.8705 0.3349
vn -0.0000 0.9422 0.3349
vn -0.2736 0.8048 0.5267
vn -0.2692 0.6499 0.7108
vn -0.5403 0.6156 0.5737
vn -0.4974 0.4974 0.7108
vn -0.7345 0.3623 0.5739
vn -0.6663 0.6663 0.3349
vn -0.6499 0.2692 0.7108
vn -0.9422 -0.0000 0.3349
vn -0.8705 0.3606 0.3349
vn -0.7034 -0.0000 0.7108
vn -0.7755 -0.2636 0.5737
vn -0.8305 -0.0600 0.5537
vn -0.6499 -0.2692 0.7108
vn -0.6157 -0.5401 0.5738
vn -0.8705 -0.3606 0.3349
vn -0.4974 -0.4974 0.7108
vn -0.3621 -0.7346 0.5738
vn -0.6663 -0.6663 0.3349
vn -0.2692 -0.6499 0.7108
vn -0.3606 -0.8705 0.3349
vt 0.128420 0.915689
vt 0.066194 0.935443
vt 0.066194 0.915689
vt 0.190645 0.935443
vt 0.128420 0.935443
vt 0.252872 0.915689
vt 0.190645 0.915689
vt 0.315097 0.915689
vt 0.252872 0.935443
vt 0.377324 0.915689
vt 0.315097 0.935443
vt 0.439549 0.915689
vt 0.377324 0.935443
vt 0.501775 0.915689
vt 0.439549 0.935443
vt 0.564001 0.915689
vt 0.501775 0.935443
vt 0.626227 0.915689
vt 0.564001 0.935443
vt 0.688453 0.915689
vt 0.626227 0.935443
vt 0.750679 0.915689
vt 0.688453 0.935443
vt 0.812905 0.915689
vt 0.750679 0.935443
vt 0.875131 0.915689
vt 0.812905 0.935443
vt 0.937357 0.915689
vt 0.875131 0.935443
vt 0.999583 0.915689
vt 0.937357 0.935443
vt 0.003968 0.935443
vt 0.003968 0.915689
vt 0.226738 0.601480
vt 0.278116 0.635954
vt 0.166133 0.748407
vt 0.312446 0.687548
vt 0.324502 0.748407
vt 0.312447 0.809266
vt 0.278117 0.860860
vt 0.226738 0.895334
vt 0.166133 0.907439
vt 0.105528 0.895334
vt 0.054149 0.860860
vt 0.019819 0.809266
vt 0.007764 0.748407
vt 0.019819 0.687548
vt 0.054149 0.635954
vt 0.105528 0.601480
vt 0.166133 0.589375
vt 0.066194 0.974285
vt 0.003968 0.974285
vt 0.066194 0.995071
vt 0.003968 0.995071
vt 0.128420 0.995071
vt 0.190645 0.974285
vt 0.128420 0.974285
vt 0.252872 0.995071
vt 0.190645 0.995071
vt 0.252872 0.974285
vt 0.315097 0.974285
vt 0.377324 0.995071
vt 0.315097 0.995071
vt 0.377324 0.974285
vt 0.439549 0.974285
vt 0.501775 0.974285
vt 0.439549 0.995071
vt 0.564001 0.995071
vt 0.501775 0.995071
vt 0.564001 0.974285
vt 0.626227 0.974285
vt 0.688453 0.974285
vt 0.626227 0.995071
vt 0.750679 0.995071
vt 0.688453 0.995071
vt 0.812905 0.974285
vt 0.750679 0.974285
vt 0.875131 0.974285
vt 0.812905 0.995071
vt 0.937357 0.974285
vt 0.875131 0.995071
vt 0.999583 0.995071
vt 0.937357 0.995071
vt 0.999583 0.935443
vt 0.999583 0.974285
s 1
usemtl eb_sconce_light_01
f 2/1/1 17/2/2 1/3/2
f 2/1/1 19/4/3 18/5/1
f 4/6/4 19/4/3 3/7/3
f 5/8/5 20/9/4 4/6/4
f 6/10/6 21/11/5 5/8/5
f 7/12/7 22/13/6 6/10/6
f 8/14/8 23/15/7 7/12/7
f 9/16/9 24/17/8 8/14/8
f 10/18/10 25/19/9 9/16/9
f 11/20/11 26/21/10 10/18/10
f 12/22/12 27/23/11 11/20/11
f 13/24/13 28/25/12 12/22/12
f 14/26/14 29/27/13 13/24/13
f 15/28/15 30/29/14 14/26/14
f 16/30/16 31/31/15 15/28/15
f 1/3/2 32/32/16 16/33/16
f 33/34/17 34/35/17 35/36/17
f 34/35/17 36/37/17 35/36/17
f 36/37/17 37/38/17 35/36/17
f 37/38/17 38/39/17 35/36/17
f 38/39/17 39/40/17 35/36/17
f 39/40/17 40/41/17 35/36/17
f 40/41/17 41/42/17 35/36/17
f 41/42/17 42/43/17 35/36/17
f 42/43/17 43/44/17 35/36/17
f 43/44/17 44/45/17 35/36/17
f 44/45/17 45/46/17 35/36/17
f 45/46/17 46/47/17 35/36/17
f 46/47/17 47/48/17 35/36/17
f 47/48/17 48/49/17 35/36/17
f 48/49/17 49/50/17 35/36/17
f 49/50/17 33/34/17 35/36/17
f 50/51/18 32/32/19 17/2/20
f 65/52/21 33/53/22 49/54/23
f 50/51/18 34/55/24 33/53/22
f 18/5/25 50/51/18 17/2/20
f 52/56/26 34/55/24 51/57/27
f 19/4/28 51/57/27 18/5/25
f 52/56/26 37/58/29 36/59/30
f 53/60/31 19/4/28 20/9/32
f 54/61/33 37/58/29 53/60/31
f 21/11/34 53/60/31 20/9/32
f 54/61/33 39/62/35 38/63/36
f 55/64/37 21/11/34 22/13/38
f 56/65/39 39/62/35 55/64/37
f 23/15/40 55/64/37 22/13/38
f 57/66/41 40/67/42 56/65/39
f 24/17/43 56/65/39 23/15/40
f 57/66/41 42/68/44 41/69/45
f 58/70/46 24/17/43 25/19/47
f 59/71/48 42/68/44 58/70/46
f 59/71/48 25/19/47 26/21/49
f 60/72/50 43/73/51 59/71/48
f 60/72/50 26/21/49 27/23/52
f 60/72/50 45/74/53 44/75/54
f 28/25/55 60/72/50 27/23/52
f 62/76/56 45/74/53 61/77/57
f 62/76/56 28/25/55 29/27/58
f 63/78/59 46/79/60 62/76/56
f 63/78/59 29/27/58 30/29/61
f 64/80/62 47/81/63 63/78/59
f 31/31/64 63/78/59 30/29/61
f 64/80/62 49/82/23 48/83/65
f 32/84/19 64/80/62 31/31/64
f 2/1/1 18/5/1 17/2/2
f 2/1/1 3/7/3 19/4/3
f 4/6/4 20/9/4 19/4/3
f 5/8/5 21/11/5 20/9/4
f 6/10/6 22/13/6 21/11/5
f 7/12/7 23/15/7 22/13/6
f 8/14/8 24/17/8 23/15/7
f 9/16/9 25/19/9 24/17/8
f 10/18/10 26/21/10 25/19/9
f 11/20/11 27/23/11 26/21/10
f 12/22/12 28/25/12 27/23/11
f 13/24/13 29/27/13 28/25/12
f 14/26/14 30/29/14 29/27/13
f 15/28/15 31/31/15 30/29/14
f 16/30/16 32/84/16 31/31/15
f 1/3/2 17/2/2 32/32/16
f 50/51/18 65/52/21 32/32/19
f 65/52/21 50/51/18 33/53/22
f 50/51/18 51/57/27 34/55/24
f 18/5/25 51/57/27 50/51/18
f 52/56/26 36/59/30 34/55/24
f 19/4/28 52/56/26 51/57/27
f 52/56/26 53/60/31 37/58/29
f 53/60/31 52/56/26 19/4/28
f 54/61/33 38/63/36 37/58/29
f 21/11/34 54/61/33 53/60/31
f 54/61/33 55/64/37 39/62/35
f 55/64/37 54/61/33 21/11/34
f 56/65/39 40/67/42 39/62/35
f 23/15/40 56/65/39 55/64/37
f 57/66/41 41/69/45 40/67/42
f 24/17/43 57/66/41 56/65/39
f 57/66/41 58/70/46 42/68/44
f 58/70/46 57/66/41 24/17/43
f 59/71/48 43/73/51 42/68/44
f 59/71/48 58/70/46 25/19/47
f 60/72/50 44/75/54 43/73/51
f 60/72/50 59/71/48 26/21/49
f 60/72/50 61/77/57 45/74/53
f 28/25/55 61/77/57 60/72/50
f 62/76/56 46/79/60 45/74/53
f 62/76/56 61/77/57 28/25/55
f 63/78/59 47/81/63 46/79/60
f 63/78/59 62/76/56 29/27/58
f 64/80/62 48/83/65 47/81/63
f 31/31/64 64/80/62 63/78/59
f 64/80/62 65/85/21 49/82/23
f 32/84/19 65/85/21 64/80/62
o c_low
v 0.006463 0.002233 0.039498
v -0.006463 0.002233 0.039498
v 0.000000 0.002233 0.050693
v 0.006463 -0.042854 0.039283
v 0.006463 -0.088070 0.043974
v 0.006463 -0.114536 0.051069
v 0.006463 -0.130755 0.064030
v 0.006463 -0.138062 0.075632
v 0.006463 -0.141943 0.091168
v 0.006463 -0.141543 0.105976
v 0.006463 -0.137071 0.121529
v 0.006463 -0.125818 0.136512
v 0.006463 -0.110204 0.148187
v 0.006463 -0.094085 0.154338
v 0.006463 -0.071033 0.155744
v -0.006463 -0.042854 0.039283
v -0.006463 -0.088070 0.043974
v -0.006463 -0.114536 0.051069
v -0.006463 -0.130755 0.064030
v -0.006463 -0.138062 0.075632
v -0.006463 -0.141943 0.091168
v -0.006463 -0.141543 0.105976
v -0.006463 -0.137071 0.121529
v -0.006463 -0.125818 0.136512
v -0.006463 -0.110204 0.148187
v -0.006463 -0.094085 0.154338
v -0.006463 -0.071033 0.155744
v 0.000000 -0.042907 0.050478
v 0.000000 -0.086105 0.054996
v 0.000000 -0.110769 0.061612
v 0.000000 -0.122561 0.071658
v 0.000000 -0.128207 0.080943
v 0.000000 -0.130818 0.092416
v 0.000000 -0.130391 0.104988
v 0.000000 -0.126734 0.117230
v 0.000000 -0.117696 0.128807
v 0.000000 -0.104286 0.138684
v 0.000000 -0.091372 0.143477
v 0.000000 -0.070810 0.144552
vn -0.8674 0.0024 -0.4976
vn 0.8480 -0.0273 -0.5293
vn -0.8477 -0.0274 -0.5298
vn -0.8341 -0.0901 -0.5442
vn 0.8391 -0.1204 -0.5305
vn -0.7811 -0.2760 -0.5602
vn 0.8024 -0.3251 -0.5005
vn -0.7543 -0.4709 -0.4575
vn 0.7839 -0.5239 -0.3332
vn -0.7542 -0.6084 -0.2471
vn 0.8070 -0.5792 -0.1151
vn -0.7721 -0.6309 -0.0767
vn 0.8071 -0.5896 0.0307
vn -0.7837 -0.6129 0.1008
vn 0.8197 -0.5459 0.1733
vn -0.7565 -0.5805 0.3013
vn 0.7794 -0.4436 0.4425
vn -0.7792 -0.4434 0.4431
vn -0.7855 -0.3015 0.5405
vn 0.8153 -0.2082 0.5404
vn -0.7854 -0.1188 0.6074
vn 0.8268 -0.0427 0.5609
vn -0.8287 -0.0368 0.5585
vn -0.0000 0.0505 0.9987
vn -0.0000 -0.0048 1.0000
vn -0.0000 0.1632 0.9866
vn -0.0000 0.4333 0.9012
vn -0.0000 0.7404 0.6722
vn -0.0000 0.9316 0.3636
vn -0.0000 0.9954 0.0956
vn -0.0000 0.9860 -0.1669
vn -0.0000 0.8814 -0.4724
vn -0.0000 0.6922 -0.7217
vn -0.0000 0.4829 -0.8757
vn -0.0000 0.1769 -0.9842
vn -0.0000 0.0522 -0.9986
vn 0.8674 0.0024 -0.4977
vn 0.8472 -0.5106 0.1469
vn 0.8281 -0.0371 0.5593
vt 0.990401 0.537852
vt 0.909313 0.582727
vt 0.909313 0.537852
vt 0.811196 0.537852
vt 0.811196 0.582727
vt 0.752806 0.537852
vt 0.752806 0.582727
vt 0.705458 0.537852
vt 0.705458 0.582727
vt 0.678719 0.537852
vt 0.678719 0.582727
vt 0.651981 0.537852
vt 0.651981 0.582727
vt 0.625243 0.537851
vt 0.625243 0.582727
vt 0.598505 0.537851
vt 0.562934 0.582727
vt 0.562934 0.537851
vt 0.528834 0.537851
vt 0.528834 0.582727
vt 0.496207 0.537851
vt 0.496207 0.582727
vt 0.439289 0.537851
vt 0.909313 0.492976
vt 0.990401 0.492976
vt 0.811196 0.492976
vt 0.752806 0.492976
vt 0.705458 0.492976
vt 0.678719 0.492976
vt 0.651981 0.492976
vt 0.625243 0.492976
vt 0.598505 0.492976
vt 0.562934 0.492976
vt 0.528834 0.492976
vt 0.496207 0.492976
vt 0.439289 0.492976
vt 0.990401 0.448101
vt 0.909313 0.448101
vt 0.811196 0.448101
vt 0.752806 0.448101
vt 0.705458 0.448101
vt 0.678719 0.448101
vt 0.651981 0.448101
vt 0.625243 0.448101
vt 0.598505 0.448101
vt 0.562934 0.448101
vt 0.528834 0.448101
vt 0.496207 0.448101
vt 0.439289 0.448101
vt 0.990401 0.582727
vt 0.598505 0.582727
vt 0.439289 0.582727
s 1
usemtl eb_sconce_light_01
f 67/86/66 69/87/67 81/88/68
f 69/87/67 82/89/69 81/88/68
f 70/90/70 83/91/71 82/89/69
f 71/92/72 84/93/73 83/91/71
f 72/94/74 85/95/75 84/93/73
f 73/96/76 86/97/77 85/95/75
f 74/98/78 87/99/79 86/97/77
f 75/100/80 88/101/81 87/99/79
f 88/101/81 77/102/82 89/103/83
f 77/102/82 90/104/84 89/103/83
f 78/105/85 91/106/86 90/104/84
f 79/107/87 92/108/88 91/106/86
f 67/86/66 93/109/89 68/110/90
f 93/109/89 82/89/69 94/111/91
f 94/111/91 83/91/71 95/112/92
f 95/112/92 84/93/73 96/113/93
f 96/113/93 85/95/75 97/114/94
f 97/114/94 86/97/77 98/115/95
f 98/115/95 87/99/79 99/116/96
f 99/116/96 88/101/81 100/117/97
f 100/117/97 89/103/83 101/118/98
f 101/118/98 90/104/84 102/119/99
f 102/119/99 91/106/86 103/120/100
f 103/120/100 92/108/88 104/121/101
f 66/122/102 93/109/89 69/123/67
f 70/124/70 93/109/89 94/111/91
f 94/111/91 71/125/72 70/124/70
f 72/126/74 95/112/92 96/113/93
f 73/127/76 96/113/93 97/114/94
f 74/128/78 97/114/94 98/115/95
f 75/129/80 98/115/95 99/116/96
f 76/130/103 99/116/96 100/117/97
f 77/131/82 100/117/97 101/118/98
f 78/132/85 101/118/98 102/119/99
f 79/133/87 102/119/99 103/120/100
f 80/134/104 103/120/100 104/121/101
f 67/86/66 66/135/102 69/87/67
f 69/87/67 70/90/70 82/89/69
f 70/90/70 71/92/72 83/91/71
f 71/92/72 72/94/74 84/93/73
f 72/94/74 73/96/76 85/95/75
f 73/96/76 74/98/78 86/97/77
f 74/98/78 75/100/80 87/99/79
f 75/100/80 76/136/103 88/101/81
f 88/101/81 76/136/103 77/102/82
f 77/102/82 78/105/85 90/104/84
f 78/105/85 79/107/87 91/106/86
f 79/107/87 80/137/104 92/108/88
f 67/86/66 81/88/68 93/109/89
f 93/109/89 81/88/68 82/89/69
f 94/111/91 82/89/69 83/91/71
f 95/112/92 83/91/71 84/93/73
f 96/113/93 84/93/73 85/95/75
f 97/114/94 85/95/75 86/97/77
f 98/115/95 86/97/77 87/99/79
f 99/116/96 87/99/79 88/101/81
f 100/117/97 88/101/81 89/103/83
f 101/118/98 89/103/83 90/104/84
f 102/119/99 90/104/84 91/106/86
f 103/120/100 91/106/86 92/108/88
f 66/122/102 68/110/90 93/109/89
f 70/124/70 69/123/67 93/109/89
f 94/111/91 95/112/92 71/125/72
f 72/126/74 71/125/72 95/112/92
f 73/127/76 72/126/74 96/113/93
f 74/128/78 73/127/76 97/114/94
f 75/129/80 74/128/78 98/115/95
f 76/130/103 75/129/80 99/116/96
f 77/131/82 76/130/103 100/117/97
f 78/132/85 77/131/82 101/118/98
f 79/133/87 78/132/85 102/119/99
f 80/134/104 79/133/87 103/120/100
o d_low
v 0.007766 -0.007766 0.035304
v 0.010983 0.000000 0.035304
v 0.007766 0.007766 0.035304
v 0.000000 0.010983 0.035304
v -0.007766 0.007766 0.035304
v -0.010983 0.000000 0.035304
v -0.007766 -0.007766 0.035304
v 0.000000 -0.010983 0.035304
v 0.000000 0.000000 0.059891
v 0.007766 -0.007766 0.054818
v 0.010983 0.000000 0.054818
v 0.007766 0.007766 0.054818
v 0.000000 0.010983 0.054818
v -0.007766 0.007766 0.054818
v -0.010983 0.000000 0.054818
v -0.007766 -0.007766 0.054818
v 0.000000 -0.010983 0.054818
vn -0.0000 -0.9810 0.1942
vn 0.6948 -0.6947 0.1860
vn -0.0000 -0.0000 1.0000
vn 0.9810 -0.0001 0.1942
vn 0.6947 0.6948 0.1860
vn 0.0001 0.9819 0.1893
vn -0.6943 0.6943 0.1893
vn -0.9819 0.0001 0.1893
vn -0.6944 -0.6942 0.1893
vn 1.0000 -0.0000 -0.0000
vn 0.7071 -0.7071 -0.0000
vn -0.0000 1.0000 -0.0000
vn 0.7071 0.7071 -0.0000
vn -0.7071 0.7071 -0.0000
vn -1.0000 -0.0000 -0.0000
vn -0.7071 -0.7071 -0.0000
vn -0.0000 -1.0000 -0.0000
vt 0.803522 0.844228
vt 0.833306 0.844228
vt 0.750082 0.900333
vt 0.666858 0.844228
vt 0.696643 0.844228
vt 0.718145 0.844228
vt 0.735122 0.844228
vt 0.750082 0.844228
vt 0.765042 0.844228
vt 0.782019 0.844228
vt 0.684180 0.770363
vt 0.654741 0.770363
vt 0.730412 0.770363
vt 0.708995 0.770363
vt 0.750082 0.770363
vt 0.769751 0.770363
vt 0.791169 0.770363
vt 0.815983 0.770363
vt 0.845423 0.770363
s 1
usemtl eb_sconce_light_01
f 121/138/105 114/139/106 113/140/107
f 114/141/106 115/142/108 113/140/107
f 115/142/108 116/143/109 113/140/107
f 116/143/109 117/144/110 113/140/107
f 117/144/110 118/145/111 113/140/107
f 118/145/111 119/146/112 113/140/107
f 119/146/112 120/147/113 113/140/107
f 120/147/113 121/138/105 113/140/107
f 106/148/114 114/141/106 105/149/115
f 106/148/114 116/143/109 115/142/108
f 108/150/116 116/143/109 107/151/117
f 109/152/118 117/144/110 108/150/116
f 110/153/119 118/145/111 109/152/118
f 111/154/120 119/146/112 110/153/119
f 112/155/121 120/147/113 111/154/120
f 112/155/121 114/139/106 121/138/105
f 106/148/114 115/142/108 114/141/106
f 106/148/114 107/151/117 116/143/109
f 108/150/116 117/144/110 116/143/109
f 109/152/118 118/145/111 117/144/110
f 110/153/119 119/146/112 118/145/111
f 111/154/120 120/147/113 119/146/112
f 112/155/121 121/138/105 120/147/113
f 112/155/121 105/156/115 114/139/106
