# Blender 4.2.3 LTS
# www.blender.org
mtllib light04_2.mtl
o Emission_area_a_Circle.009
v -1.006228 0.516138 -0.139498
v -1.104888 0.516138 -0.098631
v -1.145754 0.516138 0.000029
v -1.104888 0.516138 0.098689
v -1.006228 0.516138 0.139556
v -0.907567 0.516138 0.098689
v -0.866701 0.516138 0.000029
v -0.907567 0.516138 -0.098631
v -1.006228 0.600258 -0.225371
v -1.165610 0.600258 -0.159353
v -1.231628 0.600258 0.000029
v -1.165610 0.600258 0.159411
v -1.006228 0.600258 0.225430
v -0.846846 0.600258 0.159411
v -0.780827 0.600258 0.000029
v -0.846846 0.600258 -0.159353
v -1.006228 0.742833 -0.263143
v -1.192318 0.742833 -0.186061
v -1.269399 0.742833 0.000029
v -1.192318 0.742833 0.186120
v -1.006228 0.742833 0.263201
v -0.820137 0.742833 0.186120
v -0.743056 0.742833 0.000029
v -0.820137 0.742833 -0.186061
v -1.006228 0.868830 -0.251119
v -1.183816 0.868830 -0.177559
v -1.257375 0.868830 0.000029
v -1.183816 0.868830 0.177617
v -1.006228 0.868830 0.251177
v -0.828639 0.868830 0.177617
v -0.755080 0.868830 0.000029
v -0.828639 0.868830 -0.177559
v -1.006228 0.951723 -0.225532
v -1.165724 0.951723 -0.159467
v -1.231789 0.951723 0.000029
v -1.165724 0.951723 0.159525
v -1.006228 0.951723 0.225591
v -0.846732 0.951723 0.159525
v -0.780666 0.951723 0.000029
v -0.846732 0.951723 -0.159467
v -0.810883 0.559503 0.000029
v -0.868098 0.559503 -0.138100
v -1.006228 0.559503 0.195374
v -0.868098 0.559503 0.138158
v -1.201572 0.559503 0.000029
v -1.144357 0.559503 0.138158
v -1.006228 0.559503 -0.195315
v -1.144357 0.559503 -0.138100
v -1.006228 0.671546 -0.249701
v -1.182814 0.671546 -0.176557
v -0.829642 0.671546 -0.176557
v -0.829642 0.671546 0.176615
v -0.756498 0.671546 0.000029
v -1.182814 0.671546 0.176615
v -1.006228 0.671546 0.249759
v -1.255958 0.671546 0.000029
v -0.744554 0.805832 0.000029
v -0.821197 0.805832 -0.185002
v -1.006228 0.805832 0.261702
v -0.821197 0.805832 0.185060
v -1.267901 0.805832 0.000029
v -1.191259 0.805832 0.185060
v -1.006228 0.805832 -0.261644
v -1.191259 0.805832 -0.185002
vn 0.7635 -0.5631 -0.3163
vn 0.3163 -0.5631 0.7635
vn -0.7635 -0.5631 0.3163
vn -0.3163 -0.5631 -0.7635
vn 0.3163 -0.5631 -0.7635
vn 0.7635 -0.5631 0.3163
vn -0.3163 -0.5631 0.7635
vn -0.7635 -0.5631 -0.3163
vn -0.3770 -0.1716 -0.9102
vn 0.3770 -0.1716 -0.9102
vn 0.9102 -0.1716 0.3770
vn -0.3770 -0.1716 0.9102
vn -0.9102 -0.1716 -0.3770
vn 0.9102 -0.1716 -0.3770
vn 0.3770 -0.1716 0.9102
vn -0.9102 -0.1716 0.3770
vn 0.9131 0.1525 -0.3782
vn 0.3782 0.1525 0.9131
vn -0.9131 0.1526 0.3782
vn -0.3782 0.1526 -0.9131
vn 0.3782 0.1525 -0.9131
vn 0.9131 0.1525 0.3782
vn -0.3782 0.1526 0.9131
vn -0.9131 0.1526 -0.3782
vn -0.8885 0.2742 -0.3680
vn 0.8885 0.2742 -0.3680
vn 0.3680 0.2742 0.8885
vn -0.8885 0.2742 0.3680
vn -0.3680 0.2742 -0.8885
vn 0.3680 0.2742 -0.8885
vn 0.8885 0.2742 0.3680
vn -0.3680 0.2742 0.8885
vn -0.5946 -0.7654 -0.2463
vn -0.2463 -0.7654 0.5946
vn 0.5946 -0.7654 0.2463
vn 0.2463 -0.7654 -0.5946
vn -0.2463 -0.7654 -0.5946
vn -0.5946 -0.7654 0.2463
vn 0.2463 -0.7654 0.5946
vn 0.5946 -0.7654 -0.2463
vn -0.8811 -0.3007 0.3650
vn 0.3650 -0.3007 0.8811
vn 0.8811 -0.3007 -0.3650
vn -0.8811 -0.3007 -0.3650
vn -0.3650 -0.3007 0.8811
vn 0.8811 -0.3007 0.3650
vn 0.3650 -0.3007 -0.8811
vn -0.3650 -0.3007 -0.8811
vn -0.9237 0.0220 -0.3826
vn -0.3826 0.0220 0.9237
vn 0.9237 0.0220 0.3826
vn 0.3826 0.0220 -0.9237
vn -0.3826 0.0220 -0.9237
vn -0.9237 0.0220 0.3826
vn 0.3826 0.0220 0.9237
vn 0.9237 0.0220 -0.3826
vn 0.9131 0.1526 -0.3782
vn 0.3782 0.1526 0.9131
vn -0.3782 0.1525 -0.9131
vn 0.3782 0.1526 -0.9131
vn 0.9131 0.1526 0.3782
vn -0.3782 0.1525 0.9131
vt 0.280288 0.639428
vt 0.285819 0.642011
vt 0.283914 0.639428
vt 0.281635 0.642011
vt 0.271533 0.639428
vt 0.262779 0.639428
vt 0.257248 0.642011
vt 0.259152 0.639428
vt 0.261432 0.642011
vt 0.259739 0.651047
vt 0.271533 0.646529
vt 0.260341 0.646529
vt 0.271533 0.651047
vt 0.282725 0.646529
vt 0.288213 0.651047
vt 0.287361 0.646529
vt 0.255706 0.646529
vt 0.283327 0.651047
vt 0.254854 0.651047
vt 0.282789 0.659033
vt 0.288118 0.655040
vt 0.283260 0.655040
vt 0.271533 0.659033
vt 0.271533 0.655040
vt 0.260278 0.659033
vt 0.254949 0.655040
vt 0.259806 0.655040
vt 0.255616 0.659033
vt 0.261424 0.664286
vt 0.285829 0.664286
vt 0.287451 0.659033
vt 0.281642 0.664286
vt 0.271533 0.664286
vt 0.265280 0.636680
vt 0.262690 0.636680
vt 0.271533 0.636680
vt 0.277786 0.636680
vt 0.280376 0.636680
vt 0.271533 0.642011
vt 0.257237 0.664286
s 0
usemtl Emission__Color_Palette
f 42/1/1 15/2/1 41/3/1
f 14/4/2 43/5/2 44/1/2
f 46/6/3 11/7/3 45/8/3
f 10/9/4 47/5/4 48/6/4
f 47/5/5 16/4/5 42/1/5
f 15/2/6 44/1/6 41/3/6
f 43/5/7 12/9/7 46/6/7
f 11/7/8 48/6/8 45/8/8
f 18/10/9 49/11/9 50/12/9
f 17/13/10 51/14/10 49/11/10
f 23/15/11 52/14/11 53/16/11
f 55/11/12 20/10/12 54/12/12
f 56/17/13 18/10/13 50/12/13
f 24/18/14 53/16/14 51/14/14
f 52/14/15 21/13/15 55/11/15
f 54/12/16 19/19/16 56/17/16
f 32/20/17 57/21/17 58/22/17
f 60/22/18 29/23/18 59/24/18
f 28/25/19 61/26/19 62/27/19
f 26/25/20 63/24/20 64/27/20
f 25/23/21 58/22/21 63/24/21
f 57/21/22 30/20/22 60/22/22
f 59/24/23 28/25/23 62/27/23
f 27/28/24 64/27/24 61/26/24
f 27/28/25 34/29/25 26/25/25
f 32/20/26 39/30/26 31/31/26
f 38/32/27 29/23/27 30/20/27
f 36/29/28 27/28/28 28/25/28
f 26/25/29 33/33/29 25/23/29
f 25/23/30 40/32/30 32/20/30
f 39/30/31 30/20/31 31/31/31
f 37/33/32 28/25/32 29/23/32
f 45/8/33 2/34/33 3/35/33
f 5/36/34 46/6/34 4/34/34
f 41/3/35 6/37/35 7/38/35
f 47/5/36 8/37/36 1/36/36
f 48/6/37 1/36/37 2/34/37
f 4/34/38 45/8/38 3/35/38
f 44/1/39 5/36/39 6/37/39
f 42/1/40 7/38/40 8/37/40
f 12/9/41 56/17/41 11/7/41
f 14/4/42 55/11/42 13/39/42
f 16/4/43 53/16/43 15/2/43
f 56/17/44 10/9/44 11/7/44
f 55/11/45 12/9/45 13/39/45
f 53/16/46 14/4/46 15/2/46
f 49/11/47 16/4/47 9/39/47
f 10/9/48 49/11/48 9/39/48
f 61/26/49 18/10/49 19/19/49
f 59/24/50 20/10/50 21/13/50
f 23/15/51 60/22/51 22/18/51
f 17/13/52 58/22/52 24/18/52
f 18/10/53 63/24/53 17/13/53
f 62/27/54 19/19/54 20/10/54
f 60/22/55 21/13/55 22/18/55
f 24/18/56 57/21/56 23/15/56
f 42/1/1 16/4/1 15/2/1
f 14/4/2 13/39/2 43/5/2
f 46/6/3 12/9/3 11/7/3
f 10/9/4 9/39/4 47/5/4
f 47/5/5 9/39/5 16/4/5
f 15/2/6 14/4/6 44/1/6
f 43/5/7 13/39/7 12/9/7
f 11/7/8 10/9/8 48/6/8
f 18/10/9 17/13/9 49/11/9
f 17/13/10 24/18/10 51/14/10
f 23/15/11 22/18/11 52/14/11
f 55/11/12 21/13/12 20/10/12
f 56/17/13 19/19/13 18/10/13
f 24/18/14 23/15/14 53/16/14
f 52/14/15 22/18/15 21/13/15
f 54/12/16 20/10/16 19/19/16
f 32/20/57 31/31/57 57/21/57
f 60/22/58 30/20/58 29/23/58
f 28/25/19 27/28/19 61/26/19
f 26/25/59 25/23/59 63/24/59
f 25/23/60 32/20/60 58/22/60
f 57/21/61 31/31/61 30/20/61
f 59/24/62 29/23/62 28/25/62
f 27/28/24 26/25/24 64/27/24
f 27/28/25 35/40/25 34/29/25
f 32/20/26 40/32/26 39/30/26
f 38/32/27 37/33/27 29/23/27
f 36/29/28 35/40/28 27/28/28
f 26/25/29 34/29/29 33/33/29
f 25/23/30 33/33/30 40/32/30
f 39/30/31 38/32/31 30/20/31
f 37/33/32 36/29/32 28/25/32
f 45/8/33 48/6/33 2/34/33
f 5/36/34 43/5/34 46/6/34
f 41/3/35 44/1/35 6/37/35
f 47/5/36 42/1/36 8/37/36
f 48/6/37 47/5/37 1/36/37
f 4/34/38 46/6/38 45/8/38
f 44/1/39 43/5/39 5/36/39
f 42/1/40 41/3/40 7/38/40
f 12/9/41 54/12/41 56/17/41
f 14/4/42 52/14/42 55/11/42
f 16/4/43 51/14/43 53/16/43
f 56/17/44 50/12/44 10/9/44
f 55/11/45 54/12/45 12/9/45
f 53/16/46 52/14/46 14/4/46
f 49/11/47 51/14/47 16/4/47
f 10/9/48 50/12/48 49/11/48
f 61/26/49 64/27/49 18/10/49
f 59/24/50 62/27/50 20/10/50
f 23/15/51 57/21/51 60/22/51
f 17/13/52 63/24/52 58/22/52
f 18/10/53 64/27/53 63/24/53
f 62/27/54 61/26/54 19/19/54
f 60/22/55 59/24/55 21/13/55
f 24/18/56 58/22/56 57/21/56
