# Blender 4.2.3 LTS
# www.blender.org
mtllib light02_2.mtl
o Cone
v 0.000000 3.528460 -0.000000
v 0.000000 5.528460 -0.000000
v 1.736137 3.528460 -0.000000
v 1.736137 3.528460 -0.000000
v 1.589125 3.778460 -0.000000
v 1.442113 4.028460 -0.000000
v 1.295102 4.278460 -0.000000
v 1.148090 4.528460 -0.000000
v 1.001079 4.778460 -0.000000
v 0.854067 5.028460 -0.000000
v 0.707056 5.278460 -0.000000
v 0.560044 5.528460 -0.000000
v 0.560044 5.528460 -0.000000
v 1.709761 3.528460 -0.301477
v 1.709761 3.528460 -0.301477
v 1.564983 3.778460 -0.275949
v 1.420204 4.028460 -0.250420
v 1.275426 4.278460 -0.224892
v 1.130648 4.528460 -0.199364
v 0.985870 4.778460 -0.173836
v 0.841092 5.028460 -0.148307
v 0.696314 5.278460 -0.122779
v 0.551536 5.528460 -0.097251
v 0.551536 5.528460 -0.097251
v 1.631435 3.528460 -0.593794
v 1.631435 3.528460 -0.593794
v 1.493289 3.778460 -0.543513
v 1.355143 4.028460 -0.493232
v 1.216998 4.278460 -0.442951
v 1.078852 4.528460 -0.392670
v 0.940706 4.778460 -0.342389
v 0.802561 5.028460 -0.292108
v 0.664415 5.278460 -0.241827
v 0.526269 5.528460 -0.191546
v 0.526269 5.528460 -0.191546
v 1.503538 3.528460 -0.868068
v 1.503538 3.528460 -0.868068
v 1.376223 3.778460 -0.794562
v 1.248907 4.028460 -0.721057
v 1.121591 4.278460 -0.647551
v 0.994275 4.528460 -0.574045
v 0.866960 4.778460 -0.500539
v 0.739644 5.028460 -0.427034
v 0.612328 5.278460 -0.353528
v 0.485012 5.528460 -0.280022
v 0.485012 5.528460 -0.280022
v 1.329958 3.528460 -1.115967
v 1.329958 3.528460 -1.115967
v 1.217340 3.778460 -1.021470
v 1.104723 4.028460 -0.926973
v 0.992106 4.278460 -0.832475
v 0.879488 4.528460 -0.737978
v 0.766871 4.778460 -0.643481
v 0.654253 5.028460 -0.548984
v 0.541636 5.278460 -0.454487
v 0.429019 5.528460 -0.359989
v 0.429019 5.528460 -0.359989
v 1.115967 3.528460 -1.329958
v 1.115967 3.528460 -1.329958
v 1.021470 3.778460 -1.217340
v 0.926973 4.028460 -1.104723
v 0.832475 4.278460 -0.992106
v 0.737978 4.528460 -0.879488
v 0.643481 4.778460 -0.766871
v 0.548984 5.028460 -0.654253
v 0.454487 5.278460 -0.541636
v 0.359989 5.528460 -0.429019
v 0.359989 5.528460 -0.429019
v 0.868068 3.528460 -1.503538
v 0.868068 3.528460 -1.503538
v 0.794563 3.778460 -1.376223
v 0.721057 4.028460 -1.248907
v 0.647551 4.278460 -1.121591
v 0.574045 4.528460 -0.994275
v 0.500539 4.778460 -0.866960
v 0.427034 5.028460 -0.739644
v 0.353528 5.278460 -0.612328
v 0.280022 5.528460 -0.485013
v 0.280022 5.528460 -0.485013
v 0.593794 3.528460 -1.631435
v 0.593794 3.528460 -1.631435
v 0.543513 3.778460 -1.493289
v 0.493232 4.028460 -1.355143
v 0.442951 4.278460 -1.216998
v 0.392670 4.528460 -1.078852
v 0.342389 4.778460 -0.940706
v 0.292108 5.028460 -0.802561
v 0.241827 5.278460 -0.664415
v 0.191546 5.528460 -0.526269
v 0.191546 5.528460 -0.526269
v 0.301477 3.528460 -1.709761
v 0.301477 3.528460 -1.709761
v 0.275949 3.778460 -1.564983
v 0.250420 4.028460 -1.420204
v 0.224892 4.278460 -1.275426
v 0.199364 4.528460 -1.130648
v 0.173836 4.778460 -0.985870
v 0.148307 5.028460 -0.841092
v 0.122779 5.278460 -0.696314
v 0.097251 5.528460 -0.551536
v 0.097251 5.528460 -0.551536
v 0.000000 3.528460 -1.736136
v 0.000000 3.528460 -1.736136
v 0.000000 3.778460 -1.589125
v 0.000000 4.028460 -1.442113
v 0.000000 4.278460 -1.295102
v 0.000000 4.528460 -1.148090
v 0.000000 4.778460 -1.001079
v 0.000000 5.028460 -0.854067
v 0.000000 5.278460 -0.707056
v 0.000000 5.528460 -0.560044
v 0.000000 5.528460 -0.560044
v -0.301477 3.528460 -1.709761
v -0.301477 3.528460 -1.709761
v -0.275949 3.778460 -1.564983
v -0.250420 4.028460 -1.420204
v -0.224892 4.278460 -1.275426
v -0.199364 4.528460 -1.130648
v -0.173836 4.778460 -0.985870
v -0.148307 5.028460 -0.841092
v -0.122779 5.278460 -0.696314
v -0.097251 5.528460 -0.551536
v -0.097251 5.528460 -0.551536
v -0.593794 3.528460 -1.631435
v -0.593794 3.528460 -1.631435
v -0.543513 3.778460 -1.493289
v -0.493232 4.028460 -1.355143
v -0.442951 4.278460 -1.216998
v -0.392670 4.528460 -1.078852
v -0.342389 4.778460 -0.940706
v -0.292108 5.028460 -0.802561
v -0.241827 5.278460 -0.664415
v -0.191546 5.528460 -0.526269
v -0.191546 5.528460 -0.526269
v -0.868068 3.528460 -1.503538
v -0.868068 3.528460 -1.503538
v -0.794563 3.778460 -1.376223
v -0.721057 4.028460 -1.248907
v -0.647551 4.278460 -1.121591
v -0.574045 4.528460 -0.994275
v -0.500539 4.778460 -0.866960
v -0.427034 5.028460 -0.739644
v -0.353528 5.278460 -0.612328
v -0.280022 5.528460 -0.485013
v -0.280022 5.528460 -0.485013
v -1.115967 3.528460 -1.329958
v -1.115967 3.528460 -1.329958
v -1.021470 3.778460 -1.217340
v -0.926973 4.028460 -1.104723
v -0.832475 4.278460 -0.992106
v -0.737978 4.528460 -0.879488
v -0.643481 4.778460 -0.766871
v -0.548984 5.028460 -0.654253
v -0.454487 5.278460 -0.541636
v -0.359989 5.528460 -0.429019
v -0.359989 5.528460 -0.429019
v -1.329958 3.528460 -1.115967
v -1.329958 3.528460 -1.115967
v -1.217340 3.778460 -1.021470
v -1.104723 4.028460 -0.926973
v -0.992106 4.278460 -0.832475
v -0.879488 4.528460 -0.737978
v -0.766871 4.778460 -0.643481
v -0.654253 5.028460 -0.548984
v -0.541636 5.278460 -0.454487
v -0.429019 5.528460 -0.359989
v -0.429019 5.528460 -0.359989
v -1.503538 3.528460 -0.868068
v -1.503538 3.528460 -0.868068
v -1.376223 3.778460 -0.794562
v -1.248907 4.028460 -0.721057
v -1.121591 4.278460 -0.647551
v -0.994275 4.528460 -0.574045
v -0.866960 4.778460 -0.500539
v -0.739644 5.028460 -0.427034
v -0.612328 5.278460 -0.353528
v -0.485012 5.528460 -0.280022
v -0.485012 5.528460 -0.280022
v -1.631435 3.528460 -0.593794
v -1.631435 3.528460 -0.593794
v -1.493289 3.778460 -0.543513
v -1.355143 4.028460 -0.493232
v -1.216998 4.278460 -0.442951
v -1.078852 4.528460 -0.392670
v -0.940706 4.778460 -0.342389
v -0.802561 5.028460 -0.292108
v -0.664415 5.278460 -0.241827
v -0.526269 5.528460 -0.191546
v -0.526269 5.528460 -0.191546
v -1.709761 3.528460 -0.301477
v -1.709761 3.528460 -0.301477
v -1.564983 3.778460 -0.275949
v -1.420204 4.028460 -0.250420
v -1.275426 4.278460 -0.224892
v -1.130648 4.528460 -0.199364
v -0.985870 4.778460 -0.173836
v -0.841092 5.028460 -0.148307
v -0.696314 5.278460 -0.122779
v -0.551536 5.528460 -0.097251
v -0.551536 5.528460 -0.097251
v -1.736137 3.528460 -0.000000
v -1.736137 3.528460 -0.000000
v -1.589125 3.778460 -0.000000
v -1.442113 4.028460 -0.000000
v -1.295102 4.278460 -0.000000
v -1.148090 4.528460 -0.000000
v -1.001079 4.778460 -0.000000
v -0.854067 5.028460 -0.000000
v -0.707056 5.278460 -0.000000
v -0.560044 5.528460 -0.000000
v -0.560044 5.528460 -0.000000
v -1.709761 3.528460 0.301477
v -1.709761 3.528460 0.301477
v -1.564983 3.778460 0.275949
v -1.420204 4.028460 0.250420
v -1.275426 4.278460 0.224892
v -1.130648 4.528460 0.199364
v -0.985870 4.778460 0.173835
v -0.841092 5.028460 0.148307
v -0.696314 5.278460 0.122779
v -0.551536 5.528460 0.097251
v -0.551536 5.528460 0.097251
v -1.631435 3.528460 0.593794
v -1.631435 3.528460 0.593794
v -1.493289 3.778460 0.543513
v -1.355143 4.028460 0.493232
v -1.216998 4.278460 0.442951
v -1.078852 4.528460 0.392670
v -0.940706 4.778460 0.342389
v -0.802561 5.028460 0.292108
v -0.664415 5.278460 0.241827
v -0.526269 5.528460 0.191546
v -0.526269 5.528460 0.191546
v -1.503538 3.528460 0.868068
v -1.503538 3.528460 0.868068
v -1.376223 3.778460 0.794563
v -1.248907 4.028460 0.721057
v -1.121591 4.278460 0.647551
v -0.994275 4.528460 0.574045
v -0.866960 4.778460 0.500539
v -0.739644 5.028460 0.427034
v -0.612328 5.278460 0.353528
v -0.485012 5.528460 0.280022
v -0.485012 5.528460 0.280022
v -1.329958 3.528460 1.115967
v -1.329958 3.528460 1.115967
v -1.217340 3.778460 1.021470
v -1.104723 4.028460 0.926973
v -0.992106 4.278460 0.832475
v -0.879488 4.528460 0.737978
v -0.766871 4.778460 0.643481
v -0.654253 5.028460 0.548984
v -0.541636 5.278460 0.454487
v -0.429019 5.528460 0.359989
v -0.429019 5.528460 0.359989
v -1.115967 3.528460 1.329958
v -1.115967 3.528460 1.329958
v -1.021470 3.778460 1.217340
v -0.926973 4.028460 1.104723
v -0.832475 4.278460 0.992106
v -0.737978 4.528460 0.879488
v -0.643481 4.778460 0.766871
v -0.548984 5.028460 0.654253
v -0.454487 5.278460 0.541636
v -0.359989 5.528460 0.429019
v -0.359989 5.528460 0.429019
v -0.868068 3.528460 1.503538
v -0.868068 3.528460 1.503538
v -0.794563 3.778460 1.376223
v -0.721057 4.028460 1.248907
v -0.647551 4.278460 1.121591
v -0.574045 4.528460 0.994275
v -0.500539 4.778460 0.866960
v -0.427034 5.028460 0.739644
v -0.353528 5.278460 0.612328
v -0.280022 5.528460 0.485012
v -0.280022 5.528460 0.485012
v -0.593794 3.528460 1.631435
v -0.593794 3.528460 1.631435
v -0.543513 3.778460 1.493289
v -0.493232 4.028460 1.355143
v -0.442951 4.278460 1.216998
v -0.392670 4.528460 1.078852
v -0.342389 4.778460 0.940706
v -0.292108 5.028460 0.802561
v -0.241827 5.278460 0.664415
v -0.191546 5.528460 0.526269
v -0.191546 5.528460 0.526269
v -0.301477 3.528460 1.709761
v -0.301477 3.528460 1.709761
v -0.275949 3.778460 1.564983
v -0.250420 4.028460 1.420204
v -0.224892 4.278460 1.275426
v -0.199364 4.528460 1.130648
v -0.173836 4.778460 0.985870
v -0.148307 5.028460 0.841092
v -0.122779 5.278460 0.696314
v -0.097251 5.528460 0.551536
v -0.097251 5.528460 0.551536
v 0.000000 3.528460 1.736137
v 0.000000 3.528460 1.736137
v 0.000000 3.778460 1.589125
v 0.000000 4.028460 1.442113
v 0.000000 4.278460 1.295102
v 0.000000 4.528460 1.148090
v 0.000000 4.778460 1.001079
v 0.000000 5.028460 0.854067
v 0.000000 5.278460 0.707056
v 0.000000 5.528460 0.560044
v 0.000000 5.528460 0.560044
v 0.301477 3.528460 1.709761
v 0.301477 3.528460 1.709761
v 0.275949 3.778460 1.564983
v 0.250420 4.028460 1.420204
v 0.224892 4.278460 1.275426
v 0.199364 4.528460 1.130648
v 0.173836 4.778460 0.985870
v 0.148307 5.028460 0.841092
v 0.122779 5.278460 0.696314
v 0.097251 5.528460 0.551536
v 0.097251 5.528460 0.551536
v 0.593794 3.528460 1.631435
v 0.593794 3.528460 1.631435
v 0.543513 3.778460 1.493289
v 0.493232 4.028460 1.355143
v 0.442951 4.278460 1.216998
v 0.392670 4.528460 1.078852
v 0.342389 4.778460 0.940706
v 0.292108 5.028460 0.802561
v 0.241827 5.278460 0.664415
v 0.191546 5.528460 0.526269
v 0.191546 5.528460 0.526269
v 0.868068 3.528460 1.503538
v 0.868068 3.528460 1.503538
v 0.794563 3.778460 1.376223
v 0.721057 4.028460 1.248907
v 0.647551 4.278460 1.121591
v 0.574045 4.528460 0.994275
v 0.500539 4.778460 0.866960
v 0.427034 5.028460 0.739644
v 0.353528 5.278460 0.612328
v 0.280022 5.528460 0.485012
v 0.280022 5.528460 0.485012
v 1.115967 3.528460 1.329958
v 1.115967 3.528460 1.329958
v 1.021470 3.778460 1.217340
v 0.926973 4.028460 1.104723
v 0.832475 4.278460 0.992106
v 0.737978 4.528460 0.879488
v 0.643481 4.778460 0.766871
v 0.548984 5.028460 0.654253
v 0.454487 5.278460 0.541636
v 0.359989 5.528460 0.429019
v 0.359989 5.528460 0.429019
v 1.329958 3.528460 1.115967
v 1.329958 3.528460 1.115967
v 1.217340 3.778460 1.021470
v 1.104723 4.028460 0.926973
v 0.992106 4.278460 0.832475
v 0.879488 4.528460 0.737978
v 0.766871 4.778460 0.643481
v 0.654253 5.028460 0.548984
v 0.541636 5.278460 0.454487
v 0.429019 5.528460 0.359989
v 0.429019 5.528460 0.359989
v 1.503538 3.528460 0.868068
v 1.503538 3.528460 0.868068
v 1.376223 3.778460 0.794563
v 1.248907 4.028460 0.721057
v 1.121591 4.278460 0.647551
v 0.994275 4.528460 0.574045
v 0.866960 4.778460 0.500539
v 0.739644 5.028460 0.427034
v 0.612328 5.278460 0.353528
v 0.485012 5.528460 0.280022
v 0.485012 5.528460 0.280022
v 1.631435 3.528460 0.593794
v 1.631435 3.528460 0.593794
v 1.493289 3.778460 0.543513
v 1.355143 4.028460 0.493232
v 1.216998 4.278460 0.442951
v 1.078852 4.528460 0.392670
v 0.940706 4.778460 0.342389
v 0.802561 5.028460 0.292108
v 0.664415 5.278460 0.241827
v 0.526269 5.528460 0.191546
v 0.526269 5.528460 0.191546
v 1.709761 3.528460 0.301477
v 1.709761 3.528460 0.301477
v 1.564983 3.778460 0.275949
v 1.420204 4.028460 0.250420
v 1.275426 4.278460 0.224892
v 1.130648 4.528460 0.199364
v 0.985870 4.778460 0.173835
v 0.841092 5.028460 0.148307
v 0.696314 5.278460 0.122779
v 0.551536 5.528460 0.097251
v 0.551536 5.528460 0.097251
vn -0.0000 -1.0000 -0.0000
vn 0.8489 0.5069 -0.1497
vn 0.8620 0.5069 -0.0000
vn -0.0000 1.0000 -0.0000
vn 0.8100 0.5069 -0.2948
vn 0.7465 0.5069 -0.4310
vn 0.6603 0.5069 -0.5541
vn 0.5541 0.5069 -0.6603
vn 0.4310 0.5069 -0.7465
vn 0.2948 0.5069 -0.8100
vn 0.1497 0.5069 -0.8489
vn -0.0000 0.5069 -0.8620
vn -0.1497 0.5069 -0.8489
vn -0.2948 0.5069 -0.8100
vn -0.4310 0.5069 -0.7465
vn -0.5541 0.5069 -0.6603
vn -0.6603 0.5069 -0.5541
vn -0.7465 0.5069 -0.4310
vn -0.8100 0.5069 -0.2948
vn -0.8489 0.5069 -0.1497
vn -0.8620 0.5069 -0.0000
vn -0.8489 0.5069 0.1497
vn -0.8100 0.5069 0.2948
vn -0.7465 0.5069 0.4310
vn -0.6603 0.5069 0.5541
vn -0.5541 0.5069 0.6603
vn -0.4310 0.5069 0.7465
vn -0.2948 0.5069 0.8100
vn -0.1497 0.5069 0.8489
vn -0.0000 0.5069 0.8620
vn 0.1497 0.5069 0.8489
vn 0.2948 0.5069 0.8100
vn 0.4310 0.5069 0.7465
vn 0.5541 0.5069 0.6603
vn 0.6603 0.5069 0.5541
vn 0.7465 0.5069 0.4310
vn 0.8100 0.5069 0.2948
vn 0.8489 0.5069 0.1497
vt 0.007596 0.586824
vt 0.000000 0.500000
vt 0.500000 0.500000
vt 0.027778 0.000000
vt 0.000000 0.125000
vt 0.000000 0.000000
vt 0.027778 0.250000
vt 0.027778 0.125000
vt 0.027778 0.375000
vt 0.000000 0.250000
vt 0.027778 0.500000
vt 0.000000 0.375000
vt 0.027778 0.625000
vt 0.027778 0.750000
vt 0.000000 0.625000
vt 0.000000 0.875000
vt 0.000000 0.750000
vt 0.027778 1.000000
vt 0.027778 0.875000
vt 0.992404 0.586824
vt 1.000000 0.500000
vt 0.030154 0.671010
vt 0.055556 0.000000
vt 0.055556 0.250000
vt 0.055556 0.125000
vt 0.055556 0.375000
vt 0.055556 0.500000
vt 0.055556 0.625000
vt 0.055556 0.750000
vt 0.055556 0.875000
vt 0.055556 1.000000
vt 0.969846 0.671010
vt 0.066987 0.750000
vt 0.083333 0.000000
vt 0.083333 0.125000
vt 0.083333 0.375000
vt 0.083333 0.250000
vt 0.083333 0.500000
vt 0.083333 0.625000
vt 0.083333 0.875000
vt 0.083333 0.750000
vt 0.083333 1.000000
vt 0.933013 0.750000
vt 0.116978 0.821394
vt 0.111111 0.000000
vt 0.111111 0.125000
vt 0.111111 0.375000
vt 0.111111 0.250000
vt 0.111111 0.500000
vt 0.111111 0.625000
vt 0.111111 0.750000
vt 0.111111 0.875000
vt 0.883022 0.821394
vt 0.178606 0.883022
vt 0.138889 0.125000
vt 0.138889 0.000000
vt 0.138889 0.250000
vt 0.138889 0.500000
vt 0.138889 0.375000
vt 0.138889 0.750000
vt 0.138889 0.625000
vt 0.138889 0.875000
vt 0.138889 1.000000
vt 0.821394 0.883022
vt 0.250000 0.933013
vt 0.166667 0.000000
vt 0.166667 0.250000
vt 0.166667 0.125000
vt 0.166667 0.375000
vt 0.166667 0.500000
vt 0.166667 0.625000
vt 0.166667 0.750000
vt 0.166667 0.875000
vt 0.750000 0.933013
vt 0.328990 0.969846
vt 0.194444 0.125000
vt 0.194444 0.000000
vt 0.194444 0.250000
vt 0.194444 0.500000
vt 0.194444 0.375000
vt 0.194444 0.625000
vt 0.194444 0.750000
vt 0.194444 0.875000
vt 0.194444 1.000000
vt 0.671010 0.969846
vt 0.413176 0.992404
vt 0.222222 0.125000
vt 0.222222 0.000000
vt 0.222222 0.250000
vt 0.222222 0.500000
vt 0.222222 0.375000
vt 0.222222 0.625000
vt 0.222222 0.750000
vt 0.222222 0.875000
vt 0.222222 1.000000
vt 0.586824 0.992404
vt 0.500000 1.000000
vt 0.250000 0.125000
vt 0.250000 0.000000
vt 0.250000 0.250000
vt 0.250000 0.375000
vt 0.250000 0.500000
vt 0.250000 0.625000
vt 0.250000 0.875000
vt 0.250000 0.750000
vt 0.250000 1.000000
vt 0.277778 0.125000
vt 0.277778 0.000000
vt 0.277778 0.250000
vt 0.277778 0.500000
vt 0.277778 0.375000
vt 0.277778 0.750000
vt 0.277778 0.625000
vt 0.277778 0.875000
vt 0.277778 1.000000
vt 0.305556 0.125000
vt 0.305556 0.000000
vt 0.305556 0.250000
vt 0.305556 0.500000
vt 0.305556 0.375000
vt 0.305556 0.625000
vt 0.305556 0.750000
vt 0.305556 0.875000
vt 0.333333 0.000000
vt 0.333333 0.250000
vt 0.333333 0.125000
vt 0.333333 0.375000
vt 0.333333 0.500000
vt 0.333333 0.625000
vt 0.333333 0.875000
vt 0.333333 0.750000
vt 0.305556 1.000000
vt 0.361111 0.125000
vt 0.361111 0.000000
vt 0.361111 0.250000
vt 0.361111 0.500000
vt 0.361111 0.375000
vt 0.361111 0.625000
vt 0.361111 0.750000
vt 0.361111 0.875000
vt 0.361111 1.000000
vt 0.388889 0.125000
vt 0.388889 0.000000
vt 0.388889 0.250000
vt 0.388889 0.375000
vt 0.388889 0.625000
vt 0.388889 0.500000
vt 0.388889 0.875000
vt 0.388889 0.750000
vt 0.388889 1.000000
vt 0.416667 0.125000
vt 0.416667 0.000000
vt 0.416667 0.250000
vt 0.416667 0.375000
vt 0.416667 0.625000
vt 0.416667 0.500000
vt 0.416667 0.750000
vt 0.416667 0.875000
vt 0.416667 1.000000
vt 0.444444 0.125000
vt 0.444444 0.000000
vt 0.444444 0.250000
vt 0.444444 0.375000
vt 0.444444 0.500000
vt 0.444444 0.625000
vt 0.444444 0.750000
vt 0.444444 0.875000
vt 0.444444 1.000000
vt 0.472222 0.125000
vt 0.472222 0.000000
vt 0.472222 0.250000
vt 0.472222 0.375000
vt 0.472222 0.500000
vt 0.472222 0.750000
vt 0.472222 0.625000
vt 0.472222 0.875000
vt 0.472222 1.000000
vt 0.500000 0.125000
vt 0.500000 0.000000
vt 0.500000 0.375000
vt 0.500000 0.250000
vt 0.500000 0.625000
vt 0.500000 0.750000
vt 0.500000 0.875000
vt 0.992404 0.413176
vt 0.527778 0.000000
vt 0.527778 0.250000
vt 0.527778 0.125000
vt 0.527778 0.375000
vt 0.527778 0.500000
vt 0.527778 0.625000
vt 0.527778 0.750000
vt 0.527778 1.000000
vt 0.527778 0.875000
vt 0.007596 0.413176
vt 0.969846 0.328990
vt 0.555556 0.000000
vt 0.555556 0.250000
vt 0.555556 0.125000
vt 0.555556 0.375000
vt 0.555556 0.500000
vt 0.555556 0.625000
vt 0.555556 0.750000
vt 0.555556 0.875000
vt 0.555556 1.000000
vt 0.030154 0.328990
vt 0.933013 0.250000
vt 0.583333 0.000000
vt 0.583333 0.125000
vt 0.583333 0.375000
vt 0.583333 0.250000
vt 0.583333 0.500000
vt 0.583333 0.625000
vt 0.583333 0.875000
vt 0.583333 0.750000
vt 0.583333 1.000000
vt 0.066987 0.250000
vt 0.883022 0.178606
vt 0.611111 0.000000
vt 0.611111 0.125000
vt 0.611111 0.375000
vt 0.611111 0.250000
vt 0.611111 0.500000
vt 0.611111 0.625000
vt 0.611111 0.750000
vt 0.611111 0.875000
vt 0.116978 0.178606
vt 0.821394 0.116978
vt 0.638889 0.125000
vt 0.638889 0.000000
vt 0.638889 0.250000
vt 0.638889 0.500000
vt 0.638889 0.375000
vt 0.638889 0.750000
vt 0.638889 0.625000
vt 0.638889 0.875000
vt 0.638889 1.000000
vt 0.178606 0.116978
vt 0.750000 0.066987
vt 0.666667 0.000000
vt 0.666667 0.250000
vt 0.666667 0.125000
vt 0.666667 0.375000
vt 0.666667 0.500000
vt 0.666667 0.625000
vt 0.666667 0.750000
vt 0.666667 0.875000
vt 0.250000 0.066987
vt 0.671010 0.030154
vt 0.694444 0.125000
vt 0.694444 0.000000
vt 0.694444 0.250000
vt 0.694444 0.500000
vt 0.694444 0.375000
vt 0.694444 0.625000
vt 0.694444 0.750000
vt 0.694444 0.875000
vt 0.694444 1.000000
vt 0.328990 0.030154
vt 0.586824 0.007596
vt 0.722222 0.125000
vt 0.722222 0.000000
vt 0.722222 0.250000
vt 0.722222 0.500000
vt 0.722222 0.375000
vt 0.722222 0.625000
vt 0.722222 0.750000
vt 0.722222 0.875000
vt 0.722222 1.000000
vt 0.413176 0.007596
vt 0.750000 0.125000
vt 0.750000 0.000000
vt 0.750000 0.250000
vt 0.750000 0.375000
vt 0.750000 0.500000
vt 0.750000 0.625000
vt 0.750000 0.875000
vt 0.750000 0.750000
vt 0.750000 1.000000
vt 0.777778 0.125000
vt 0.777778 0.000000
vt 0.777778 0.250000
vt 0.777778 0.500000
vt 0.777778 0.375000
vt 0.777778 0.750000
vt 0.777778 0.625000
vt 0.777778 0.875000
vt 0.777778 1.000000
vt 0.805556 0.125000
vt 0.805556 0.000000
vt 0.805556 0.250000
vt 0.805556 0.500000
vt 0.805556 0.375000
vt 0.805556 0.625000
vt 0.805556 0.750000
vt 0.805556 0.875000
vt 0.833333 0.000000
vt 0.833333 0.250000
vt 0.833333 0.125000
vt 0.833333 0.375000
vt 0.833333 0.500000
vt 0.833333 0.625000
vt 0.833333 0.875000
vt 0.833333 0.750000
vt 0.805556 1.000000
vt 0.861111 0.125000
vt 0.861111 0.000000
vt 0.861111 0.250000
vt 0.861111 0.500000
vt 0.861111 0.375000
vt 0.861111 0.625000
vt 0.861111 0.750000
vt 0.861111 0.875000
vt 0.861111 1.000000
vt 0.888889 0.125000
vt 0.888889 0.000000
vt 0.888889 0.250000
vt 0.888889 0.375000
vt 0.888889 0.625000
vt 0.888889 0.500000
vt 0.888889 0.875000
vt 0.888889 0.750000
vt 0.888889 1.000000
vt 0.916667 0.125000
vt 0.916667 0.000000
vt 0.916667 0.250000
vt 0.916667 0.375000
vt 0.916667 0.625000
vt 0.916667 0.500000
vt 0.916667 0.750000
vt 0.916667 0.875000
vt 0.916667 1.000000
vt 0.944444 0.125000
vt 0.944444 0.000000
vt 0.944444 0.250000
vt 0.944444 0.375000
vt 0.944444 0.500000
vt 0.944444 0.625000
vt 0.944444 0.750000
vt 0.944444 0.875000
vt 0.944444 1.000000
vt 0.972222 0.125000
vt 0.972222 0.000000
vt 0.972222 0.250000
vt 0.972222 0.375000
vt 0.972222 0.500000
vt 0.972222 0.750000
vt 0.972222 0.625000
vt 0.972222 0.875000
vt 0.972222 1.000000
vt 1.000000 0.125000
vt 1.000000 0.000000
vt 1.000000 0.375000
vt 1.000000 0.250000
vt 1.000000 0.625000
vt 1.000000 0.750000
vt 1.000000 0.875000
vt 0.000000 1.000000
vt 0.111111 1.000000
vt 0.166667 1.000000
vt 0.333333 1.000000
vt 0.611111 1.000000
vt 0.666667 1.000000
vt 0.833333 1.000000
vt 1.000000 1.000000
s 1
usemtl Mat.2
f 14/1/1 3/2/1 1/3/1
f 15/4/2 5/5/3 4/6/3
f 17/7/2 5/5/3 16/8/2
f 18/9/2 6/10/3 17/7/2
f 19/11/2 7/12/3 18/9/2
f 20/13/2 8/2/3 19/11/2
f 21/14/2 9/15/3 20/13/2
f 21/14/2 11/16/3 10/17/3
f 23/18/2 11/16/3 22/19/2
f 24/20/4 2/3/4 13/21/4
f 25/22/1 14/1/1 1/3/1
f 26/23/5 16/8/2 15/4/2
f 28/24/5 16/8/2 27/25/5
f 29/26/5 17/7/2 28/24/5
f 30/27/5 18/9/2 29/26/5
f 31/28/5 19/11/2 30/27/5
f 32/29/5 20/13/2 31/28/5
f 33/30/5 21/14/2 32/29/5
f 34/31/5 22/19/2 33/30/5
f 35/32/4 2/3/4 24/20/4
f 36/33/1 25/22/1 1/3/1
f 37/34/6 27/25/5 26/23/5
f 38/35/6 28/24/5 27/25/5
f 40/36/6 28/24/5 39/37/6
f 41/38/6 29/26/5 40/36/6
f 42/39/6 30/27/5 41/38/6
f 42/39/6 32/29/5 31/28/5
f 44/40/6 32/29/5 43/41/6
f 45/42/6 33/30/5 44/40/6
f 46/43/4 2/3/4 35/32/4
f 47/44/1 36/33/1 1/3/1
f 48/45/7 38/35/6 37/34/6
f 49/46/7 39/37/6 38/35/6
f 51/47/7 39/37/6 50/48/7
f 52/49/7 40/36/6 51/47/7
f 53/50/7 41/38/6 52/49/7
f 54/51/7 42/39/6 53/50/7
f 55/52/7 43/41/6 54/51/7
f 55/52/7 45/42/6 44/40/6
f 57/53/4 2/3/4 46/43/4
f 58/54/1 47/44/1 1/3/1
f 60/55/8 48/45/7 59/56/8
f 60/55/8 50/48/7 49/46/7
f 61/57/8 51/47/7 50/48/7
f 63/58/8 51/47/7 62/59/8
f 63/58/8 53/50/7 52/49/7
f 65/60/8 53/50/7 64/61/8
f 66/62/8 54/51/7 65/60/8
f 67/63/8 55/52/7 66/62/8
f 68/64/4 2/3/4 57/53/4
f 69/65/1 58/54/1 1/3/1
f 70/66/9 60/55/8 59/56/8
f 72/67/9 60/55/8 71/68/9
f 73/69/9 61/57/8 72/67/9
f 74/70/9 62/59/8 73/69/9
f 75/71/9 63/58/8 74/70/9
f 76/72/9 64/61/8 75/71/9
f 77/73/9 65/60/8 76/72/9
f 77/73/9 67/63/8 66/62/8
f 79/74/4 2/3/4 68/64/4
f 80/75/1 69/65/1 1/3/1
f 82/76/10 70/66/9 81/77/10
f 82/76/10 72/67/9 71/68/9
f 83/78/10 73/69/9 72/67/9
f 85/79/10 73/69/9 84/80/10
f 86/81/10 74/70/9 85/79/10
f 87/82/10 75/71/9 86/81/10
f 88/83/10 76/72/9 87/82/10
f 89/84/10 77/73/9 88/83/10
f 90/85/4 2/3/4 79/74/4
f 91/86/1 80/75/1 1/3/1
f 93/87/11 81/77/10 92/88/11
f 93/87/11 83/78/10 82/76/10
f 94/89/11 84/80/10 83/78/10
f 96/90/11 84/80/10 95/91/11
f 97/92/11 85/79/10 96/90/11
f 98/93/11 86/81/10 97/92/11
f 99/94/11 87/82/10 98/93/11
f 100/95/11 88/83/10 99/94/11
f 101/96/4 2/3/4 90/85/4
f 102/97/1 91/86/1 1/3/1
f 104/98/12 92/88/11 103/99/12
f 105/100/12 93/87/11 104/98/12
f 106/101/12 94/89/11 105/100/12
f 107/102/12 95/91/11 106/101/12
f 108/103/12 96/90/11 107/102/12
f 108/103/12 98/93/11 97/92/11
f 110/104/12 98/93/11 109/105/12
f 111/106/12 99/94/11 110/104/12
f 112/97/4 2/3/4 101/96/4
f 113/96/1 102/97/1 1/3/1
f 115/107/13 103/99/12 114/108/13
f 116/109/13 104/98/12 115/107/13
f 116/109/13 106/101/12 105/100/12
f 118/110/13 106/101/12 117/111/13
f 118/110/13 108/103/12 107/102/12
f 120/112/13 108/103/12 119/113/13
f 121/114/13 109/105/12 120/112/13
f 122/115/13 110/104/12 121/114/13
f 123/86/4 2/3/4 112/97/4
f 124/85/1 113/96/1 1/3/1
f 126/116/14 114/108/13 125/117/14
f 126/116/14 116/109/13 115/107/13
f 127/118/14 117/111/13 116/109/13
f 129/119/14 117/111/13 128/120/14
f 130/121/14 118/110/13 129/119/14
f 131/122/14 119/113/13 130/121/14
f 132/123/14 120/112/13 131/122/14
f 132/123/14 122/115/13 121/114/13
f 134/75/4 2/3/4 123/86/4
f 135/74/1 124/85/1 1/3/1
f 136/124/15 126/116/14 125/117/14
f 138/125/15 126/116/14 137/126/15
f 139/127/15 127/118/14 138/125/15
f 140/128/15 128/120/14 139/127/15
f 141/129/15 129/119/14 140/128/15
f 141/129/15 131/122/14 130/121/14
f 143/130/15 131/122/14 142/131/15
f 143/130/15 133/132/14 132/123/14
f 145/65/4 2/3/4 134/75/4
f 146/64/1 135/74/1 1/3/1
f 148/133/16 136/124/15 147/134/16
f 149/135/16 137/126/15 148/133/16
f 149/135/16 139/127/15 138/125/15
f 151/136/16 139/127/15 150/137/16
f 152/138/16 140/128/15 151/136/16
f 153/139/16 141/129/15 152/138/16
f 154/140/16 142/131/15 153/139/16
f 155/141/16 143/130/15 154/140/16
f 156/54/4 2/3/4 145/65/4
f 157/53/1 146/64/1 1/3/1
f 159/142/17 147/134/16 158/143/17
f 160/144/17 148/133/16 159/142/17
f 161/145/17 149/135/16 160/144/17
f 161/145/17 151/136/16 150/137/16
f 163/146/17 151/136/16 162/147/17
f 163/146/17 153/139/16 152/138/16
f 165/148/17 153/139/16 164/149/17
f 166/150/17 154/140/16 165/148/17
f 167/44/4 2/3/4 156/54/4
f 168/43/1 157/53/1 1/3/1
f 170/151/18 158/143/17 169/152/18
f 171/153/18 159/142/17 170/151/18
f 172/154/18 160/144/17 171/153/18
f 172/154/18 162/147/17 161/145/17
f 174/155/18 162/147/17 173/156/18
f 175/157/18 163/146/17 174/155/18
f 176/158/18 164/149/17 175/157/18
f 177/159/18 165/148/17 176/158/18
f 178/33/4 2/3/4 167/44/4
f 179/32/1 168/43/1 1/3/1
f 181/160/19 169/152/18 180/161/19
f 182/162/19 170/151/18 181/160/19
f 183/163/19 171/153/18 182/162/19
f 184/164/19 172/154/18 183/163/19
f 185/165/19 173/156/18 184/164/19
f 186/166/19 174/155/18 185/165/19
f 187/167/19 175/157/18 186/166/19
f 188/168/19 176/158/18 187/167/19
f 189/22/4 2/3/4 178/33/4
f 190/20/1 179/32/1 1/3/1
f 192/169/20 180/161/19 191/170/20
f 193/171/20 181/160/19 192/169/20
f 194/172/20 182/162/19 193/171/20
f 195/173/20 183/163/19 194/172/20
f 195/173/20 185/165/19 184/164/19
f 197/174/20 185/165/19 196/175/20
f 198/176/20 186/166/19 197/174/20
f 199/177/20 187/167/19 198/176/20
f 200/1/4 2/3/4 189/22/4
f 201/21/1 190/20/1 1/3/1
f 203/178/21 191/170/20 202/179/21
f 203/178/21 193/171/20 192/169/20
f 205/180/21 193/171/20 204/181/21
f 206/3/21 194/172/20 205/180/21
f 207/182/21 195/173/20 206/3/21
f 208/183/21 196/175/20 207/182/21
f 209/184/21 197/174/20 208/183/21
f 209/184/21 199/177/20 198/176/20
f 211/2/4 2/3/4 200/1/4
f 212/185/1 201/21/1 1/3/1
f 213/186/22 203/178/21 202/179/21
f 215/187/22 203/178/21 214/188/22
f 216/189/22 204/181/21 215/187/22
f 217/190/22 205/180/21 216/189/22
f 218/191/22 206/3/21 217/190/22
f 219/192/22 207/182/21 218/191/22
f 219/192/22 209/184/21 208/183/21
f 221/193/22 209/184/21 220/194/22
f 222/195/4 2/3/4 211/2/4
f 223/196/1 212/185/1 1/3/1
f 224/197/23 214/188/22 213/186/22
f 226/198/23 214/188/22 225/199/23
f 227/200/23 215/187/22 226/198/23
f 228/201/23 216/189/22 227/200/23
f 229/202/23 217/190/22 228/201/23
f 230/203/23 218/191/22 229/202/23
f 231/204/23 219/192/22 230/203/23
f 232/205/23 220/194/22 231/204/23
f 233/206/4 2/3/4 222/195/4
f 234/207/1 223/196/1 1/3/1
f 235/208/24 225/199/23 224/197/23
f 236/209/24 226/198/23 225/199/23
f 238/210/24 226/198/23 237/211/24
f 239/212/24 227/200/23 238/210/24
f 240/213/24 228/201/23 239/212/24
f 240/213/24 230/203/23 229/202/23
f 242/214/24 230/203/23 241/215/24
f 243/216/24 231/204/23 242/214/24
f 244/217/4 2/3/4 233/206/4
f 245/218/1 234/207/1 1/3/1
f 246/219/25 236/209/24 235/208/24
f 247/220/25 237/211/24 236/209/24
f 249/221/25 237/211/24 248/222/25
f 250/223/25 238/210/24 249/221/25
f 251/224/25 239/212/24 250/223/25
f 252/225/25 240/213/24 251/224/25
f 253/226/25 241/215/24 252/225/25
f 253/226/25 243/216/24 242/214/24
f 255/227/4 2/3/4 244/217/4
f 256/228/1 245/218/1 1/3/1
f 258/229/26 246/219/25 257/230/26
f 258/229/26 248/222/25 247/220/25
f 259/231/26 249/221/25 248/222/25
f 261/232/26 249/221/25 260/233/26
f 261/232/26 251/224/25 250/223/25
f 263/234/26 251/224/25 262/235/26
f 264/236/26 252/225/25 263/234/26
f 265/237/26 253/226/25 264/236/26
f 266/238/4 2/3/4 255/227/4
f 267/239/1 256/228/1 1/3/1
f 268/240/27 258/229/26 257/230/26
f 270/241/27 258/229/26 269/242/27
f 271/243/27 259/231/26 270/241/27
f 272/244/27 260/233/26 271/243/27
f 273/245/27 261/232/26 272/244/27
f 274/246/27 262/235/26 273/245/27
f 275/247/27 263/234/26 274/246/27
f 275/247/27 265/237/26 264/236/26
f 277/248/4 2/3/4 266/238/4
f 278/249/1 267/239/1 1/3/1
f 280/250/28 268/240/27 279/251/28
f 280/250/28 270/241/27 269/242/27
f 281/252/28 271/243/27 270/241/27
f 283/253/28 271/243/27 282/254/28
f 284/255/28 272/244/27 283/253/28
f 285/256/28 273/245/27 284/255/28
f 286/257/28 274/246/27 285/256/28
f 287/258/28 275/247/27 286/257/28
f 288/259/4 2/3/4 277/248/4
f 289/260/1 278/249/1 1/3/1
f 291/261/29 279/251/28 290/262/29
f 291/261/29 281/252/28 280/250/28
f 292/263/29 282/254/28 281/252/28
f 294/264/29 282/254/28 293/265/29
f 295/266/29 283/253/28 294/264/29
f 296/267/29 284/255/28 295/266/29
f 297/268/29 285/256/28 296/267/29
f 298/269/29 286/257/28 297/268/29
f 299/270/4 2/3/4 288/259/4
f 300/179/1 289/260/1 1/3/1
f 302/271/30 290/262/29 301/272/30
f 303/273/30 291/261/29 302/271/30
f 304/274/30 292/263/29 303/273/30
f 305/275/30 293/265/29 304/274/30
f 306/276/30 294/264/29 305/275/30
f 306/276/30 296/267/29 295/266/29
f 308/277/30 296/267/29 307/278/30
f 309/279/30 297/268/29 308/277/30
f 310/179/4 2/3/4 299/270/4
f 311/270/1 300/179/1 1/3/1
f 313/280/31 301/272/30 312/281/31
f 314/282/31 302/271/30 313/280/31
f 314/282/31 304/274/30 303/273/30
f 316/283/31 304/274/30 315/284/31
f 316/283/31 306/276/30 305/275/30
f 318/285/31 306/276/30 317/286/31
f 319/287/31 307/278/30 318/285/31
f 320/288/31 308/277/30 319/287/31
f 321/260/4 2/3/4 310/179/4
f 322/259/1 311/270/1 1/3/1
f 324/289/32 312/281/31 323/290/32
f 324/289/32 314/282/31 313/280/31
f 325/291/32 315/284/31 314/282/31
f 327/292/32 315/284/31 326/293/32
f 328/294/32 316/283/31 327/292/32
f 329/295/32 317/286/31 328/294/32
f 330/296/32 318/285/31 329/295/32
f 330/296/32 320/288/31 319/287/31
f 332/249/4 2/3/4 321/260/4
f 333/248/1 322/259/1 1/3/1
f 334/297/33 324/289/32 323/290/32
f 336/298/33 324/289/32 335/299/33
f 337/300/33 325/291/32 336/298/33
f 338/301/33 326/293/32 337/300/33
f 339/302/33 327/292/32 338/301/33
f 339/302/33 329/295/32 328/294/32
f 341/303/33 329/295/32 340/304/33
f 341/303/33 331/305/32 330/296/32
f 343/239/4 2/3/4 332/249/4
f 344/238/1 333/248/1 1/3/1
f 346/306/34 334/297/33 345/307/34
f 347/308/34 335/299/33 346/306/34
f 347/308/34 337/300/33 336/298/33
f 349/309/34 337/300/33 348/310/34
f 350/311/34 338/301/33 349/309/34
f 351/312/34 339/302/33 350/311/34
f 352/313/34 340/304/33 351/312/34
f 353/314/34 341/303/33 352/313/34
f 354/228/4 2/3/4 343/239/4
f 355/227/1 344/238/1 1/3/1
f 357/315/35 345/307/34 356/316/35
f 358/317/35 346/306/34 357/315/35
f 359/318/35 347/308/34 358/317/35
f 359/318/35 349/309/34 348/310/34
f 361/319/35 349/309/34 360/320/35
f 361/319/35 351/312/34 350/311/34
f 363/321/35 351/312/34 362/322/35
f 364/323/35 352/313/34 363/321/35
f 365/218/4 2/3/4 354/228/4
f 366/217/1 355/227/1 1/3/1
f 368/324/36 356/316/35 367/325/36
f 369/326/36 357/315/35 368/324/36
f 370/327/36 358/317/35 369/326/36
f 370/327/36 360/320/35 359/318/35
f 372/328/36 360/320/35 371/329/36
f 373/330/36 361/319/35 372/328/36
f 374/331/36 362/322/35 373/330/36
f 375/332/36 363/321/35 374/331/36
f 376/207/4 2/3/4 365/218/4
f 377/206/1 366/217/1 1/3/1
f 379/333/37 367/325/36 378/334/37
f 380/335/37 368/324/36 379/333/37
f 381/336/37 369/326/36 380/335/37
f 382/337/37 370/327/36 381/336/37
f 383/338/37 371/329/36 382/337/37
f 384/339/37 372/328/36 383/338/37
f 385/340/37 373/330/36 384/339/37
f 386/341/37 374/331/36 385/340/37
f 387/196/4 2/3/4 376/207/4
f 388/195/1 377/206/1 1/3/1
f 390/342/38 378/334/37 389/343/38
f 391/344/38 379/333/37 390/342/38
f 392/345/38 380/335/37 391/344/38
f 393/346/38 381/336/37 392/345/38
f 393/346/38 383/338/37 382/337/37
f 395/347/38 383/338/37 394/348/38
f 396/349/38 384/339/37 395/347/38
f 397/350/38 385/340/37 396/349/38
f 398/185/4 2/3/4 387/196/4
f 3/2/1 388/195/1 1/3/1
f 5/351/3 389/343/38 4/352/3
f 5/351/3 391/344/38 390/342/38
f 7/353/3 391/344/38 6/354/3
f 8/21/3 392/345/38 7/353/3
f 9/355/3 393/346/38 8/21/3
f 10/356/3 394/348/38 9/355/3
f 11/357/3 395/347/38 10/356/3
f 11/357/3 397/350/38 396/349/38
f 13/21/4 2/3/4 398/185/4
f 15/4/2 16/8/2 5/5/3
f 17/7/2 6/10/3 5/5/3
f 18/9/2 7/12/3 6/10/3
f 19/11/2 8/2/3 7/12/3
f 20/13/2 9/15/3 8/2/3
f 21/14/2 10/17/3 9/15/3
f 21/14/2 22/19/2 11/16/3
f 23/18/2 12/358/3 11/16/3
f 26/23/5 27/25/5 16/8/2
f 28/24/5 17/7/2 16/8/2
f 29/26/5 18/9/2 17/7/2
f 30/27/5 19/11/2 18/9/2
f 31/28/5 20/13/2 19/11/2
f 32/29/5 21/14/2 20/13/2
f 33/30/5 22/19/2 21/14/2
f 34/31/5 23/18/2 22/19/2
f 37/34/6 38/35/6 27/25/5
f 38/35/6 39/37/6 28/24/5
f 40/36/6 29/26/5 28/24/5
f 41/38/6 30/27/5 29/26/5
f 42/39/6 31/28/5 30/27/5
f 42/39/6 43/41/6 32/29/5
f 44/40/6 33/30/5 32/29/5
f 45/42/6 34/31/5 33/30/5
f 48/45/7 49/46/7 38/35/6
f 49/46/7 50/48/7 39/37/6
f 51/47/7 40/36/6 39/37/6
f 52/49/7 41/38/6 40/36/6
f 53/50/7 42/39/6 41/38/6
f 54/51/7 43/41/6 42/39/6
f 55/52/7 44/40/6 43/41/6
f 55/52/7 56/359/7 45/42/6
f 60/55/8 49/46/7 48/45/7
f 60/55/8 61/57/8 50/48/7
f 61/57/8 62/59/8 51/47/7
f 63/58/8 52/49/7 51/47/7
f 63/58/8 64/61/8 53/50/7
f 65/60/8 54/51/7 53/50/7
f 66/62/8 55/52/7 54/51/7
f 67/63/8 56/359/7 55/52/7
f 70/66/9 71/68/9 60/55/8
f 72/67/9 61/57/8 60/55/8
f 73/69/9 62/59/8 61/57/8
f 74/70/9 63/58/8 62/59/8
f 75/71/9 64/61/8 63/58/8
f 76/72/9 65/60/8 64/61/8
f 77/73/9 66/62/8 65/60/8
f 77/73/9 78/360/9 67/63/8
f 82/76/10 71/68/9 70/66/9
f 82/76/10 83/78/10 72/67/9
f 83/78/10 84/80/10 73/69/9
f 85/79/10 74/70/9 73/69/9
f 86/81/10 75/71/9 74/70/9
f 87/82/10 76/72/9 75/71/9
f 88/83/10 77/73/9 76/72/9
f 89/84/10 78/360/9 77/73/9
f 93/87/11 82/76/10 81/77/10
f 93/87/11 94/89/11 83/78/10
f 94/89/11 95/91/11 84/80/10
f 96/90/11 85/79/10 84/80/10
f 97/92/11 86/81/10 85/79/10
f 98/93/11 87/82/10 86/81/10
f 99/94/11 88/83/10 87/82/10
f 100/95/11 89/84/10 88/83/10
f 104/98/12 93/87/11 92/88/11
f 105/100/12 94/89/11 93/87/11
f 106/101/12 95/91/11 94/89/11
f 107/102/12 96/90/11 95/91/11
f 108/103/12 97/92/11 96/90/11
f 108/103/12 109/105/12 98/93/11
f 110/104/12 99/94/11 98/93/11
f 111/106/12 100/95/11 99/94/11
f 115/107/13 104/98/12 103/99/12
f 116/109/13 105/100/12 104/98/12
f 116/109/13 117/111/13 106/101/12
f 118/110/13 107/102/12 106/101/12
f 118/110/13 119/113/13 108/103/12
f 120/112/13 109/105/12 108/103/12
f 121/114/13 110/104/12 109/105/12
f 122/115/13 111/106/12 110/104/12
f 126/116/14 115/107/13 114/108/13
f 126/116/14 127/118/14 116/109/13
f 127/118/14 128/120/14 117/111/13
f 129/119/14 118/110/13 117/111/13
f 130/121/14 119/113/13 118/110/13
f 131/122/14 120/112/13 119/113/13
f 132/123/14 121/114/13 120/112/13
f 132/123/14 133/132/14 122/115/13
f 136/124/15 137/126/15 126/116/14
f 138/125/15 127/118/14 126/116/14
f 139/127/15 128/120/14 127/118/14
f 140/128/15 129/119/14 128/120/14
f 141/129/15 130/121/14 129/119/14
f 141/129/15 142/131/15 131/122/14
f 143/130/15 132/123/14 131/122/14
f 143/130/15 144/361/15 133/132/14
f 148/133/16 137/126/15 136/124/15
f 149/135/16 138/125/15 137/126/15
f 149/135/16 150/137/16 139/127/15
f 151/136/16 140/128/15 139/127/15
f 152/138/16 141/129/15 140/128/15
f 153/139/16 142/131/15 141/129/15
f 154/140/16 143/130/15 142/131/15
f 155/141/16 144/361/15 143/130/15
f 159/142/17 148/133/16 147/134/16
f 160/144/17 149/135/16 148/133/16
f 161/145/17 150/137/16 149/135/16
f 161/145/17 162/147/17 151/136/16
f 163/146/17 152/138/16 151/136/16
f 163/146/17 164/149/17 153/139/16
f 165/148/17 154/140/16 153/139/16
f 166/150/17 155/141/16 154/140/16
f 170/151/18 159/142/17 158/143/17
f 171/153/18 160/144/17 159/142/17
f 172/154/18 161/145/17 160/144/17
f 172/154/18 173/156/18 162/147/17
f 174/155/18 163/146/17 162/147/17
f 175/157/18 164/149/17 163/146/17
f 176/158/18 165/148/17 164/149/17
f 177/159/18 166/150/17 165/148/17
f 181/160/19 170/151/18 169/152/18
f 182/162/19 171/153/18 170/151/18
f 183/163/19 172/154/18 171/153/18
f 184/164/19 173/156/18 172/154/18
f 185/165/19 174/155/18 173/156/18
f 186/166/19 175/157/18 174/155/18
f 187/167/19 176/158/18 175/157/18
f 188/168/19 177/159/18 176/158/18
f 192/169/20 181/160/19 180/161/19
f 193/171/20 182/162/19 181/160/19
f 194/172/20 183/163/19 182/162/19
f 195/173/20 184/164/19 183/163/19
f 195/173/20 196/175/20 185/165/19
f 197/174/20 186/166/19 185/165/19
f 198/176/20 187/167/19 186/166/19
f 199/177/20 188/168/19 187/167/19
f 203/178/21 192/169/20 191/170/20
f 203/178/21 204/181/21 193/171/20
f 205/180/21 194/172/20 193/171/20
f 206/3/21 195/173/20 194/172/20
f 207/182/21 196/175/20 195/173/20
f 208/183/21 197/174/20 196/175/20
f 209/184/21 198/176/20 197/174/20
f 209/184/21 210/97/21 199/177/20
f 213/186/22 214/188/22 203/178/21
f 215/187/22 204/181/21 203/178/21
f 216/189/22 205/180/21 204/181/21
f 217/190/22 206/3/21 205/180/21
f 218/191/22 207/182/21 206/3/21
f 219/192/22 208/183/21 207/182/21
f 219/192/22 220/194/22 209/184/21
f 221/193/22 210/97/21 209/184/21
f 224/197/23 225/199/23 214/188/22
f 226/198/23 215/187/22 214/188/22
f 227/200/23 216/189/22 215/187/22
f 228/201/23 217/190/22 216/189/22
f 229/202/23 218/191/22 217/190/22
f 230/203/23 219/192/22 218/191/22
f 231/204/23 220/194/22 219/192/22
f 232/205/23 221/193/22 220/194/22
f 235/208/24 236/209/24 225/199/23
f 236/209/24 237/211/24 226/198/23
f 238/210/24 227/200/23 226/198/23
f 239/212/24 228/201/23 227/200/23
f 240/213/24 229/202/23 228/201/23
f 240/213/24 241/215/24 230/203/23
f 242/214/24 231/204/23 230/203/23
f 243/216/24 232/205/23 231/204/23
f 246/219/25 247/220/25 236/209/24
f 247/220/25 248/222/25 237/211/24
f 249/221/25 238/210/24 237/211/24
f 250/223/25 239/212/24 238/210/24
f 251/224/25 240/213/24 239/212/24
f 252/225/25 241/215/24 240/213/24
f 253/226/25 242/214/24 241/215/24
f 253/226/25 254/362/25 243/216/24
f 258/229/26 247/220/25 246/219/25
f 258/229/26 259/231/26 248/222/25
f 259/231/26 260/233/26 249/221/25
f 261/232/26 250/223/25 249/221/25
f 261/232/26 262/235/26 251/224/25
f 263/234/26 252/225/25 251/224/25
f 264/236/26 253/226/25 252/225/25
f 265/237/26 254/362/25 253/226/25
f 268/240/27 269/242/27 258/229/26
f 270/241/27 259/231/26 258/229/26
f 271/243/27 260/233/26 259/231/26
f 272/244/27 261/232/26 260/233/26
f 273/245/27 262/235/26 261/232/26
f 274/246/27 263/234/26 262/235/26
f 275/247/27 264/236/26 263/234/26
f 275/247/27 276/363/27 265/237/26
f 280/250/28 269/242/27 268/240/27
f 280/250/28 281/252/28 270/241/27
f 281/252/28 282/254/28 271/243/27
f 283/253/28 272/244/27 271/243/27
f 284/255/28 273/245/27 272/244/27
f 285/256/28 274/246/27 273/245/27
f 286/257/28 275/247/27 274/246/27
f 287/258/28 276/363/27 275/247/27
f 291/261/29 280/250/28 279/251/28
f 291/261/29 292/263/29 281/252/28
f 292/263/29 293/265/29 282/254/28
f 294/264/29 283/253/28 282/254/28
f 295/266/29 284/255/28 283/253/28
f 296/267/29 285/256/28 284/255/28
f 297/268/29 286/257/28 285/256/28
f 298/269/29 287/258/28 286/257/28
f 302/271/30 291/261/29 290/262/29
f 303/273/30 292/263/29 291/261/29
f 304/274/30 293/265/29 292/263/29
f 305/275/30 294/264/29 293/265/29
f 306/276/30 295/266/29 294/264/29
f 306/276/30 307/278/30 296/267/29
f 308/277/30 297/268/29 296/267/29
f 309/279/30 298/269/29 297/268/29
f 313/280/31 302/271/30 301/272/30
f 314/282/31 303/273/30 302/271/30
f 314/282/31 315/284/31 304/274/30
f 316/283/31 305/275/30 304/274/30
f 316/283/31 317/286/31 306/276/30
f 318/285/31 307/278/30 306/276/30
f 319/287/31 308/277/30 307/278/30
f 320/288/31 309/279/30 308/277/30
f 324/289/32 313/280/31 312/281/31
f 324/289/32 325/291/32 314/282/31
f 325/291/32 326/293/32 315/284/31
f 327/292/32 316/283/31 315/284/31
f 328/294/32 317/286/31 316/283/31
f 329/295/32 318/285/31 317/286/31
f 330/296/32 319/287/31 318/285/31
f 330/296/32 331/305/32 320/288/31
f 334/297/33 335/299/33 324/289/32
f 336/298/33 325/291/32 324/289/32
f 337/300/33 326/293/32 325/291/32
f 338/301/33 327/292/32 326/293/32
f 339/302/33 328/294/32 327/292/32
f 339/302/33 340/304/33 329/295/32
f 341/303/33 330/296/32 329/295/32
f 341/303/33 342/364/33 331/305/32
f 346/306/34 335/299/33 334/297/33
f 347/308/34 336/298/33 335/299/33
f 347/308/34 348/310/34 337/300/33
f 349/309/34 338/301/33 337/300/33
f 350/311/34 339/302/33 338/301/33
f 351/312/34 340/304/33 339/302/33
f 352/313/34 341/303/33 340/304/33
f 353/314/34 342/364/33 341/303/33
f 357/315/35 346/306/34 345/307/34
f 358/317/35 347/308/34 346/306/34
f 359/318/35 348/310/34 347/308/34
f 359/318/35 360/320/35 349/309/34
f 361/319/35 350/311/34 349/309/34
f 361/319/35 362/322/35 351/312/34
f 363/321/35 352/313/34 351/312/34
f 364/323/35 353/314/34 352/313/34
f 368/324/36 357/315/35 356/316/35
f 369/326/36 358/317/35 357/315/35
f 370/327/36 359/318/35 358/317/35
f 370/327/36 371/329/36 360/320/35
f 372/328/36 361/319/35 360/320/35
f 373/330/36 362/322/35 361/319/35
f 374/331/36 363/321/35 362/322/35
f 375/332/36 364/323/35 363/321/35
f 379/333/37 368/324/36 367/325/36
f 380/335/37 369/326/36 368/324/36
f 381/336/37 370/327/36 369/326/36
f 382/337/37 371/329/36 370/327/36
f 383/338/37 372/328/36 371/329/36
f 384/339/37 373/330/36 372/328/36
f 385/340/37 374/331/36 373/330/36
f 386/341/37 375/332/36 374/331/36
f 390/342/38 379/333/37 378/334/37
f 391/344/38 380/335/37 379/333/37
f 392/345/38 381/336/37 380/335/37
f 393/346/38 382/337/37 381/336/37
f 393/346/38 394/348/38 383/338/37
f 395/347/38 384/339/37 383/338/37
f 396/349/38 385/340/37 384/339/37
f 397/350/38 386/341/37 385/340/37
f 5/351/3 390/342/38 389/343/38
f 5/351/3 6/354/3 391/344/38
f 7/353/3 392/345/38 391/344/38
f 8/21/3 393/346/38 392/345/38
f 9/355/3 394/348/38 393/346/38
f 10/356/3 395/347/38 394/348/38
f 11/357/3 396/349/38 395/347/38
f 11/357/3 12/365/3 397/350/38
