# Blender 4.2.3 LTS
# www.blender.org
mtllib little_table.mtl
o OPM0038
v -0.294000 0.520000 -0.000000
v 0.147000 0.520000 0.254611
v 0.289150 0.540000 -0.000000
v 0.144575 0.540000 -0.250412
v -0.289150 0.540000 -0.000000
v 0.254286 0.201483 -0.000000
v -0.254286 0.201483 -0.000000
v -0.254286 0.186483 -0.000000
v 0.063252 0.000000 0.233415
v 0.063252 0.000000 0.215415
v 0.111039 0.000000 0.233415
v 0.111039 0.000000 0.215415
v 0.063252 0.520000 0.233415
v 0.063252 0.520000 0.215415
v 0.111039 0.520000 0.233415
v 0.111039 0.520000 0.215415
v -0.063252 0.000000 0.233415
v -0.063252 0.000000 0.215415
v -0.111039 0.000000 0.233415
v -0.111039 0.000000 0.215415
v -0.063252 0.520000 0.233415
v -0.063252 0.520000 0.215415
v -0.111039 0.520000 0.233415
v -0.111039 0.520000 0.215415
v 0.063252 -0.000000 -0.233415
v 0.063252 -0.000000 -0.215415
v 0.111039 -0.000000 -0.233415
v 0.111039 -0.000000 -0.215415
v 0.063252 0.520000 -0.233415
v 0.063252 0.520000 -0.215415
v 0.111039 0.520000 -0.233415
v 0.111039 0.520000 -0.215415
v -0.063252 -0.000000 -0.233415
v -0.063252 -0.000000 -0.215415
v -0.111039 -0.000000 -0.233415
v -0.111039 -0.000000 -0.215415
v -0.063252 0.520000 -0.233415
v -0.063252 0.520000 -0.215415
v -0.111039 0.520000 -0.233415
v -0.111039 0.520000 -0.215415
v -0.132943 0.520000 0.230265
v 0.132943 0.520000 0.230265
v 0.132943 0.470000 0.230265
v -0.125444 0.520000 0.217274
v -0.125444 0.470000 0.217274
v -0.132943 0.520000 -0.230265
v 0.132943 0.520000 -0.230265
v -0.132943 0.470000 -0.230265
v 0.132943 0.470000 -0.230265
v -0.125444 0.520000 -0.217274
v -0.125444 0.470000 -0.217274
v -0.170518 0.000000 0.171486
v -0.154929 0.000000 0.162486
v -0.146624 0.000000 0.212870
v -0.131036 0.000000 0.203870
v -0.170518 0.520000 0.171485
v -0.154929 0.520000 0.162485
v -0.146624 0.520000 0.212870
v -0.131036 0.520000 0.203870
v -0.233770 0.000000 0.061930
v -0.218181 0.000000 0.052930
v -0.257663 0.000000 0.020545
v -0.242074 0.000000 0.011545
v -0.233770 0.520000 0.061930
v -0.218181 0.520000 0.052930
v -0.257663 0.520000 0.020545
v -0.242074 0.520000 0.011545
v 0.233770 -0.000000 -0.061930
v 0.218181 -0.000000 -0.052930
v 0.257663 -0.000000 -0.020545
v 0.242074 -0.000000 -0.011545
v 0.233770 0.520000 -0.061930
v 0.218181 0.520000 -0.052930
v 0.257663 0.520000 -0.020545
v 0.242074 0.520000 -0.011545
v 0.170518 -0.000000 -0.171485
v 0.154929 -0.000000 -0.162485
v 0.146624 -0.000000 -0.212870
v 0.131036 -0.000000 -0.203870
v 0.170518 0.520000 -0.171486
v 0.154929 0.520000 -0.162486
v 0.146624 0.520000 -0.212870
v 0.131036 0.520000 -0.203870
v 0.233770 0.000000 0.061930
v 0.218181 0.000000 0.052930
v 0.257663 0.000000 0.020545
v 0.242074 0.000000 0.011545
v 0.233770 0.520000 0.061930
v 0.218181 0.520000 0.052930
v 0.257663 0.520000 0.020545
v 0.242074 0.520000 0.011545
v 0.170518 0.000000 0.171486
v 0.154929 0.000000 0.162486
v 0.146624 0.000000 0.212870
v 0.131036 0.000000 0.203870
v 0.170518 0.520000 0.171485
v 0.154929 0.520000 0.162485
v 0.146624 0.520000 0.212870
v 0.131036 0.520000 0.203870
v -0.170518 -0.000000 -0.171486
v -0.154929 -0.000000 -0.162486
v -0.146624 -0.000000 -0.212870
v -0.131036 -0.000000 -0.203870
v -0.170518 0.520000 -0.171486
v -0.154929 0.520000 -0.162486
v -0.146624 0.520000 -0.212870
v -0.131036 0.520000 -0.203870
v -0.233770 -0.000000 -0.061930
v -0.218181 -0.000000 -0.052930
v -0.257663 -0.000000 -0.020545
v -0.242074 -0.000000 -0.011545
v -0.233770 0.520000 -0.061930
v -0.218181 0.520000 -0.052930
v -0.257663 0.520000 -0.020546
v -0.242074 0.520000 -0.011546
v -0.265887 0.520000 -0.000000
v -0.265887 0.470000 -0.000000
v -0.132943 0.470000 0.230265
v 0.265887 0.520000 -0.000000
v 0.265887 0.470000 -0.000000
v 0.125443 0.520000 -0.217275
v 0.250887 0.520000 0.000000
v 0.125443 0.470000 -0.217275
v 0.250887 0.470000 0.000000
v 0.125443 0.520000 0.217274
v 0.125443 0.470000 0.217274
v -0.250887 0.520000 0.000000
v -0.250887 0.470000 0.000000
v 0.147000 0.536000 0.254611
v 0.144575 0.540000 0.250411
v 0.147000 0.520000 -0.254612
v -0.147000 0.536000 -0.254612
v -0.144575 0.540000 -0.250412
v -0.145590 0.537675 -0.252170
v 0.147000 0.536000 -0.254612
v 0.145590 0.537675 -0.252170
v 0.145590 0.537675 0.252170
v -0.147000 0.520000 -0.254612
v -0.147000 0.520000 0.254611
v -0.294000 0.536000 -0.000000
v -0.291181 0.537675 -0.000000
v -0.147000 0.536000 0.254611
v -0.144575 0.540000 0.250411
v -0.145590 0.537675 0.252170
v 0.294000 0.520000 -0.000000
v 0.294000 0.536000 -0.000000
v 0.291181 0.537675 -0.000000
v -0.127143 0.201483 0.220218
v 0.127143 0.186483 0.220218
v -0.127143 0.201483 -0.220218
v 0.127143 0.201483 -0.220218
v -0.127143 0.186483 -0.220218
v -0.127143 0.186483 0.220218
v 0.127143 0.186483 -0.220218
v 0.254286 0.186483 -0.000000
v 0.127143 0.201483 0.220218
vn -0.0000 -1.0000 -0.0000
vn -0.0000 1.0000 -0.0000
vn -1.0000 -0.0000 -0.0000
vn -0.0000 -0.0000 -1.0000
vn 1.0000 -0.0000 -0.0000
vn -0.0000 -0.0000 1.0000
vn -0.5000 -0.0000 -0.8660
vn 0.8660 -0.0000 -0.5000
vn 0.5000 -0.0000 0.8660
vn -0.8660 -0.0000 0.5000
vn -0.5000 -0.0000 0.8660
vn -0.8660 -0.0000 -0.5000
vn 0.5000 -0.0000 -0.8660
vn 0.8660 -0.0000 0.5000
vn -0.0000 0.1363 0.9907
vn -0.0000 0.7246 0.6891
vn -0.0000 0.7246 0.6892
vn -0.0000 0.6032 0.7976
vn -0.0000 0.6031 0.7976
vn -0.0000 0.1363 -0.9907
vn -0.0000 0.7246 -0.6891
vn -0.0000 0.7246 -0.6892
vn -0.0000 0.6032 -0.7976
vn 0.8579 0.1363 0.4953
vn 0.5968 0.7246 0.3446
vn 0.6907 0.6032 0.3988
vn 0.6908 0.6031 0.3988
vn -0.8579 0.1363 -0.4953
vn -0.5968 0.7246 -0.3446
vn -0.6907 0.6032 -0.3988
vn -0.6908 0.6031 -0.3988
vn -0.8579 0.1363 0.4953
vn -0.5968 0.7246 0.3446
vn -0.6908 0.6032 0.3988
vn -0.6908 0.6031 0.3988
vn 0.8579 0.1363 -0.4953
vn 0.5968 0.7246 -0.3446
vn 0.5969 0.7246 -0.3446
vn 0.6908 0.6032 -0.3988
vn 0.6908 0.6031 -0.3988
vt 0.525153 0.280465
vt 0.765870 0.141487
vt 0.525153 0.002509
vt 0.358874 0.413554
vt 0.002897 0.208029
vt 0.358875 0.002507
vt 0.444914 0.141487
vt 0.685631 0.280465
vt 0.685631 0.002509
vt 0.477534 0.208031
vt 0.121556 0.413553
vt 0.121557 0.002506
vt 0.436749 0.529130
vt 0.644948 0.408922
vt 0.436745 0.288720
vt 0.403035 0.846030
vt 0.089979 0.665289
vt 0.403033 0.484544
vt 0.367346 0.408926
vt 0.575549 0.529128
vt 0.575545 0.288718
vt 0.507386 0.665286
vt 0.194332 0.846031
vt 0.194329 0.484545
vt 0.037089 0.002511
vt 0.022317 0.041732
vt 0.022316 0.002512
vt 0.957891 0.002515
vt 0.943123 0.429307
vt 0.943118 0.002515
vt 0.641555 0.494587
vt 0.602344 0.921372
vt 0.602335 0.494588
vt 0.526143 0.534763
vt 0.511378 0.961550
vt 0.511369 0.534763
vt 0.898494 0.002508
vt 0.859283 0.429296
vt 0.859274 0.002508
vt 0.002515 0.041729
vt 0.017288 0.002508
vt 0.002515 0.002509
vt 0.903530 0.429301
vt 0.918298 0.002508
vt 0.903526 0.002508
vt 0.815032 0.429301
vt 0.854244 0.002516
vt 0.815024 0.002517
vt 0.550972 0.961542
vt 0.565738 0.534755
vt 0.550964 0.534755
vt 0.902398 0.861125
vt 0.941610 0.434337
vt 0.902389 0.434338
vt 0.037090 0.041732
vt 0.957896 0.429307
vt 0.641565 0.921371
vt 0.526151 0.961549
vt 0.898504 0.429295
vt 0.017289 0.041728
vt 0.918303 0.429301
vt 0.854253 0.429301
vt 0.565746 0.961541
vt 0.941619 0.861124
vt 0.309240 0.460312
vt 0.091014 0.419276
vt 0.309240 0.419274
vt 0.852487 0.866160
vt 0.646573 0.907198
vt 0.646573 0.866162
vt 0.647132 0.986664
vt 0.435063 0.997327
vt 0.428908 0.986666
vt 0.091015 0.460313
vt 0.852488 0.907197
vt 0.640977 0.997326
vt 0.056882 0.002513
vt 0.042109 0.041734
vt 0.042108 0.002513
vt 0.981191 0.434331
vt 0.966423 0.861122
vt 0.966417 0.434331
vt 0.808879 0.434331
vt 0.769663 0.861117
vt 0.769657 0.434331
vt 0.997482 0.002511
vt 0.982714 0.429296
vt 0.982709 0.002511
vt 0.809999 0.002514
vt 0.770788 0.429302
vt 0.770778 0.002515
vt 0.061907 0.041737
vt 0.076679 0.002515
vt 0.061906 0.002516
vt 0.531173 0.961550
vt 0.545941 0.534760
vt 0.531168 0.534760
vt 0.813912 0.861122
vt 0.853127 0.434335
vt 0.813906 0.434336
vt 0.923326 0.429291
vt 0.938095 0.002507
vt 0.923321 0.002507
vt 0.649111 0.715503
vt 0.688322 0.288715
vt 0.649101 0.288716
vt 0.056883 0.041734
vt 0.981196 0.861121
vt 0.808885 0.861116
vt 0.997487 0.429296
vt 0.810008 0.429301
vt 0.076680 0.041736
vt 0.545946 0.961550
vt 0.853133 0.861121
vt 0.938099 0.429291
vt 0.688332 0.715502
vt 0.037087 0.052736
vt 0.022315 0.091957
vt 0.022314 0.052736
vt 0.596821 0.529742
vt 0.582052 0.956530
vt 0.582047 0.529742
vt 0.897370 0.434336
vt 0.858155 0.861123
vt 0.858149 0.434337
vt 0.961403 0.434338
vt 0.946634 0.861127
vt 0.946630 0.434338
vt 0.764624 0.223449
vt 0.725412 0.650236
vt 0.725403 0.223450
vt 0.002516 0.091950
vt 0.017289 0.052729
vt 0.002515 0.052729
vt 0.962914 0.429294
vt 0.977683 0.002506
vt 0.962909 0.002506
vt 0.002520 0.715503
vt 0.041735 0.288716
vt 0.002514 0.288717
vt 0.705110 0.685384
vt 0.719879 0.258596
vt 0.705106 0.258596
vt 0.046778 0.790823
vt 0.085990 0.364036
vt 0.046769 0.364037
vt 0.037088 0.091956
vt 0.596827 0.956530
vt 0.897376 0.861122
vt 0.961408 0.861127
vt 0.764633 0.650235
vt 0.017290 0.091949
vt 0.977687 0.429294
vt 0.041741 0.715503
vt 0.719883 0.685384
vt 0.085999 0.790822
vt 0.443985 0.892133
vt 0.225759 0.851101
vt 0.443984 0.851096
vt 0.208424 0.901306
vt 0.002510 0.942345
vt 0.002510 0.901308
vt 0.682629 0.966582
vt 0.470561 0.977246
vt 0.464405 0.966584
vt 0.225760 0.892138
vt 0.208424 0.942343
vt 0.676474 0.977244
vt 0.220735 0.892136
vt 0.002510 0.851103
vt 0.220734 0.851099
vt 0.419358 0.901307
vt 0.213445 0.942346
vt 0.213443 0.901308
vt 0.906652 0.966588
vt 0.694584 0.977253
vt 0.688429 0.966591
vt 0.002510 0.892140
vt 0.419359 0.942343
vt 0.900496 0.977250
vt 0.887074 0.921190
vt 0.645768 0.934327
vt 0.645768 0.921195
vt 0.885919 0.918762
vt 0.646926 0.918765
vt 0.885085 0.916370
vt 0.887075 0.934322
vt 0.647758 0.916372
vt 0.843160 0.946300
vt 0.601854 0.959438
vt 0.601854 0.946306
vt 0.842003 0.943872
vt 0.603010 0.943876
vt 0.841171 0.941480
vt 0.843160 0.959433
vt 0.603844 0.941482
vt 0.457552 0.956337
vt 0.216249 0.969473
vt 0.216248 0.956340
vt 0.456396 0.953908
vt 0.217405 0.953910
vt 0.455563 0.951516
vt 0.457552 0.969469
vt 0.218239 0.951517
vt 0.211215 0.971609
vt 0.002512 0.983923
vt 0.002511 0.971611
vt 0.211216 0.983921
vt 0.211221 0.951522
vt 0.002515 0.963834
vt 0.002515 0.951524
vt 0.211221 0.963833
vt 0.424936 0.976623
vt 0.216231 0.988937
vt 0.216231 0.976626
vt 0.424936 0.988934
s 1
usemtl OPM0038
f 2/1/1 1/2/1 131/3/1
f 4/4/2 5/5/2 130/6/2
f 131/3/1 145/7/1 2/1/1
f 2/1/1 139/8/1 1/2/1
f 1/2/1 138/9/1 131/3/1
f 130/6/2 3/10/2 4/4/2
f 4/4/2 133/11/2 5/5/2
f 5/5/2 143/12/2 130/6/2
f 149/13/1 8/14/1 154/15/1
f 151/16/2 7/17/2 156/18/2
f 154/15/1 155/19/1 149/13/1
f 149/13/1 153/20/1 8/14/1
f 8/14/1 152/21/1 154/15/1
f 156/18/2 6/22/2 151/16/2
f 151/16/2 150/23/2 7/17/2
f 7/17/2 148/24/2 156/18/2
f 10/25/1 11/26/1 9/27/1
f 14/28/3 9/29/3 13/30/3
f 16/31/4 10/32/4 14/33/4
f 15/34/5 12/35/5 16/36/5
f 13/37/6 11/38/6 15/39/6
f 19/40/1 18/41/1 17/42/1
f 17/43/5 22/44/5 21/45/5
f 18/46/4 24/47/4 22/48/4
f 20/49/3 23/50/3 24/51/3
f 19/52/6 21/53/6 23/54/6
f 10/25/1 12/55/1 11/26/1
f 14/28/3 10/56/3 9/29/3
f 16/31/4 12/57/4 10/32/4
f 15/34/5 11/58/5 12/35/5
f 13/37/6 9/59/6 11/38/6
f 19/40/1 20/60/1 18/41/1
f 17/43/5 18/61/5 22/44/5
f 18/46/4 20/62/4 24/47/4
f 20/49/3 19/63/3 23/50/3
f 19/52/6 17/64/6 21/53/6
f 26/25/1 25/27/1 27/26/1
f 30/28/3 29/30/3 25/29/3
f 32/31/6 30/33/6 26/32/6
f 31/34/5 32/36/5 28/35/5
f 29/37/4 31/39/4 27/38/4
f 35/40/1 33/42/1 34/41/1
f 33/43/5 37/45/5 38/44/5
f 34/46/6 38/48/6 40/47/6
f 36/49/3 40/51/3 39/50/3
f 35/52/4 39/54/4 37/53/4
f 26/25/1 27/26/1 28/55/1
f 30/28/3 25/29/3 26/56/3
f 32/31/6 26/32/6 28/57/6
f 31/34/5 28/35/5 27/58/5
f 29/37/4 27/38/4 25/59/4
f 35/40/1 34/41/1 36/60/1
f 33/43/5 38/44/5 34/61/5
f 34/46/6 40/47/6 36/62/6
f 36/49/3 39/50/3 35/63/3
f 35/52/4 37/53/4 33/64/4
f 118/65/6 42/66/6 41/67/6
f 125/68/4 45/69/4 44/70/4
f 118/71/1 126/72/1 43/73/1
f 118/65/6 43/74/6 42/66/6
f 125/68/4 126/75/4 45/69/4
f 118/71/1 45/76/1 126/72/1
f 48/65/4 46/67/4 47/66/4
f 121/68/6 50/70/6 51/69/6
f 48/71/1 49/73/1 123/72/1
f 48/65/4 47/66/4 49/74/4
f 121/68/6 51/69/6 123/75/6
f 48/71/1 123/72/1 51/76/1
f 53/77/1 54/78/1 52/79/1
f 57/80/7 52/81/7 56/82/7
f 59/83/8 53/84/8 57/85/8
f 58/86/9 55/87/9 59/88/9
f 56/89/10 54/90/10 58/91/10
f 62/92/1 61/93/1 60/94/1
f 60/95/9 65/96/9 64/97/9
f 61/98/8 67/99/8 65/100/8
f 63/101/7 66/102/7 67/103/7
f 62/104/10 64/105/10 66/106/10
f 53/77/1 55/107/1 54/78/1
f 57/80/7 53/108/7 52/81/7
f 59/83/8 55/109/8 53/84/8
f 58/86/9 54/110/9 55/87/9
f 56/89/10 52/111/10 54/90/10
f 62/92/1 63/112/1 61/93/1
f 60/95/9 61/113/9 65/96/9
f 61/98/8 63/114/8 67/99/8
f 63/101/7 62/115/7 66/102/7
f 62/104/10 60/116/10 64/105/10
f 69/77/1 68/79/1 70/78/1
f 73/80/7 72/82/7 68/81/7
f 75/83/10 73/85/10 69/84/10
f 74/86/9 75/88/9 71/87/9
f 72/89/8 74/91/8 70/90/8
f 78/92/1 76/94/1 77/93/1
f 76/95/9 80/97/9 81/96/9
f 77/98/10 81/100/10 83/99/10
f 79/101/7 83/103/7 82/102/7
f 78/104/8 82/106/8 80/105/8
f 69/77/1 70/78/1 71/107/1
f 73/80/7 68/81/7 69/108/7
f 75/83/10 69/84/10 71/109/10
f 74/86/9 71/87/9 70/110/9
f 72/89/8 70/90/8 68/111/8
f 78/92/1 77/93/1 79/112/1
f 76/95/9 81/96/9 77/113/9
f 77/98/10 83/99/10 79/114/10
f 79/101/7 82/102/7 78/115/7
f 78/104/8 80/105/8 76/116/8
f 85/117/1 86/118/1 84/119/1
f 89/120/11 84/121/11 88/122/11
f 91/123/12 85/124/12 89/125/12
f 90/126/13 87/127/13 91/128/13
f 88/129/14 86/130/14 90/131/14
f 94/132/1 93/133/1 92/134/1
f 92/135/13 97/136/13 96/137/13
f 93/138/12 99/139/12 97/140/12
f 95/141/11 98/142/11 99/143/11
f 94/144/14 96/145/14 98/146/14
f 85/117/1 87/147/1 86/118/1
f 89/120/11 85/148/11 84/121/11
f 91/123/12 87/149/12 85/124/12
f 90/126/13 86/150/13 87/127/13
f 88/129/14 84/151/14 86/130/14
f 94/132/1 95/152/1 93/133/1
f 92/135/13 93/153/13 97/136/13
f 93/138/12 95/154/12 99/139/12
f 95/141/11 94/155/11 98/142/11
f 94/144/14 92/156/14 96/145/14
f 101/117/1 100/119/1 102/118/1
f 105/120/11 104/122/11 100/121/11
f 107/123/14 105/125/14 101/124/14
f 106/126/13 107/128/13 103/127/13
f 104/129/12 106/131/12 102/130/12
f 110/132/1 108/134/1 109/133/1
f 108/135/13 112/137/13 113/136/13
f 109/138/14 113/140/14 115/139/14
f 111/141/11 115/143/11 114/142/11
f 110/144/12 114/146/12 112/145/12
f 101/117/1 102/118/1 103/147/1
f 105/120/11 100/121/11 101/148/11
f 107/123/14 101/124/14 103/149/14
f 106/126/13 103/127/13 102/150/13
f 104/129/12 102/130/12 100/151/12
f 110/132/1 109/133/1 111/152/1
f 108/135/13 113/136/13 109/153/13
f 109/138/14 115/139/14 111/154/14
f 111/141/11 114/142/11 110/155/11
f 110/144/12 112/145/12 108/156/12
f 117/157/10 41/158/10 116/159/10
f 44/160/8 128/161/8 127/162/8
f 117/163/1 45/164/1 118/165/1
f 117/157/10 118/166/10 41/158/10
f 44/160/8 45/167/8 128/161/8
f 117/163/1 128/168/1 45/164/1
f 49/157/8 47/159/8 119/158/8
f 122/160/10 121/162/10 123/161/10
f 49/163/1 120/165/1 124/164/1
f 49/157/8 119/158/8 120/166/8
f 122/160/10 123/161/10 124/167/10
f 49/163/1 124/164/1 123/168/1
f 43/169/14 119/170/14 42/171/14
f 122/172/12 126/173/12 125/174/12
f 43/175/1 124/176/1 120/177/1
f 43/169/14 120/178/14 119/170/14
f 122/172/12 124/179/12 126/173/12
f 43/175/1 126/180/1 124/176/1
f 117/169/12 116/171/12 46/170/12
f 50/172/14 127/174/14 128/173/14
f 117/175/1 48/177/1 51/176/1
f 117/169/12 46/170/12 48/178/12
f 50/172/14 128/173/14 51/179/14
f 117/175/1 51/176/1 128/180/1
f 142/181/15 2/182/6 129/183/15
f 129/183/15 144/184/16 142/181/15
f 137/185/17 143/186/18 144/184/16
f 142/181/15 139/187/6 2/182/6
f 129/183/15 137/185/17 144/184/16
f 137/185/17 130/188/19 143/186/18
f 132/181/20 135/183/20 131/182/4
f 135/183/20 132/181/20 134/184/21
f 136/185/22 134/184/21 133/186/23
f 132/181/20 131/182/4 138/187/4
f 135/183/20 134/184/21 136/185/22
f 136/185/22 133/186/23 4/188/23
f 129/189/24 145/190/14 146/191/24
f 146/191/24 137/192/25 129/189/24
f 147/193/25 130/194/26 137/192/25
f 129/189/24 2/195/14 145/190/14
f 146/191/24 147/193/25 137/192/25
f 147/193/25 3/196/27 130/194/26
f 140/189/28 132/191/28 138/190/12
f 132/191/28 140/189/28 141/192/29
f 134/193/29 141/192/29 5/194/30
f 140/189/28 138/190/12 1/195/12
f 132/191/28 141/192/29 134/193/29
f 134/193/29 5/194/30 133/196/31
f 140/197/32 139/198/10 142/199/32
f 142/199/32 141/200/33 140/197/32
f 144/201/33 5/202/34 141/200/33
f 140/197/32 1/203/10 139/198/10
f 142/199/32 144/201/33 141/200/33
f 144/201/33 143/204/35 5/202/34
f 135/197/36 146/199/36 145/198/8
f 146/199/36 135/197/36 136/200/37
f 147/201/38 136/200/37 4/202/39
f 135/197/36 145/198/8 131/203/8
f 146/199/36 136/200/37 147/201/38
f 147/201/38 4/202/39 3/204/40
f 148/205/6 149/206/6 156/207/6
f 148/205/6 153/208/6 149/206/6
f 150/205/4 151/207/4 154/206/4
f 150/205/4 154/206/4 152/208/4
f 7/209/10 153/210/10 148/211/10
f 7/209/10 8/212/10 153/210/10
f 151/209/8 6/211/8 155/210/8
f 151/209/8 155/210/8 154/212/8
f 156/213/14 155/214/14 6/215/14
f 156/213/14 149/216/14 155/214/14
f 7/213/12 150/215/12 152/214/12
f 7/213/12 152/214/12 8/216/12
