# Blender 4.2.3 LTS
# www.blender.org
mtllib lock.mtl
o Torus
v -0.305334 -0.293715 1.508911
v -0.352569 -0.239240 1.341254
v -0.305334 -0.184765 1.173597
v -0.176285 -0.144886 1.050864
v 0.000000 -0.130290 1.005941
v 0.176285 -0.144886 1.050864
v 0.305334 -0.184765 1.173597
v 0.352570 -0.239240 1.341254
v 0.305334 -0.293715 1.508911
v 0.176285 -0.333594 1.631644
v 0.000000 -0.348190 1.676568
v -0.000000 2.945027 -1.676568
v 0.176285 2.959623 -1.631644
v 0.305334 2.999502 -1.508911
v 0.352569 3.053977 -1.341254
v 0.305334 3.108452 -1.173597
v 0.176285 3.148330 -1.050864
v -0.000000 3.162927 -1.005941
v -0.176285 3.148330 -1.050864
v -0.305334 3.108452 -1.173597
v -0.352570 3.053977 -1.341254
v -0.305334 2.999502 -1.508911
v -0.176285 2.959623 -1.631644
v -0.000000 4.034527 -1.676568
v 0.176284 4.019930 -1.631644
v 0.305334 3.980052 -1.508911
v 0.352569 3.925577 -1.341254
v 0.305334 3.871102 -1.173597
v 0.176285 3.831223 -1.050864
v -0.000000 3.816627 -1.005941
v -0.176285 3.831223 -1.050864
v -0.305334 3.871102 -1.173597
v -0.352570 3.925577 -1.341254
v -0.305334 3.980052 -1.508911
v -0.176285 4.019930 -1.631644
v -0.000000 4.915951 -1.036175
v 0.176284 4.877737 -1.008411
v 0.305334 4.773334 -0.932558
v 0.352569 4.630716 -0.828940
v 0.305334 4.488099 -0.725323
v 0.176285 4.383696 -0.649469
v -0.000000 4.345481 -0.621705
v -0.176285 4.383696 -0.649469
v -0.305334 4.488099 -0.725323
v -0.352570 4.630716 -0.828940
v -0.305334 4.773334 -0.932558
v -0.176285 4.877737 -1.008411
v -0.000000 5.252625 -0.000000
v 0.176285 5.205389 -0.000000
v 0.305334 5.076340 -0.000000
v 0.352569 4.900055 -0.000000
v 0.305334 4.723770 -0.000000
v 0.176285 4.594721 -0.000000
v -0.000000 4.547485 -0.000000
v -0.176285 4.594721 -0.000000
v -0.305334 4.723770 -0.000000
v -0.352570 4.900055 -0.000000
v -0.305334 5.076340 -0.000000
v -0.176285 5.205389 -0.000000
v 0.000000 4.915951 1.036175
v 0.176285 4.877737 1.008411
v 0.305334 4.773334 0.932558
v 0.352570 4.630716 0.828940
v 0.305334 4.488099 0.725323
v 0.176285 4.383696 0.649469
v 0.000000 4.345481 0.621705
v -0.176285 4.383696 0.649469
v -0.305334 4.488099 0.725323
v -0.352569 4.630716 0.828940
v -0.305334 4.773334 0.932558
v -0.176285 4.877737 1.008411
v 0.000000 4.034527 1.676568
v 0.176285 4.019930 1.631644
v 0.305334 3.980052 1.508911
v 0.352570 3.925577 1.341254
v 0.305334 3.871102 1.173597
v 0.176285 3.831223 1.050864
v 0.000000 3.816627 1.005941
v -0.176285 3.831223 1.050864
v -0.305334 3.871102 1.173597
v -0.352569 3.925577 1.341254
v -0.305334 3.980052 1.508911
v -0.176285 4.019930 1.631644
v 0.000000 2.945027 1.676568
v 0.176285 2.959623 1.631644
v 0.305334 2.999502 1.508911
v 0.352570 3.053977 1.341254
v 0.305334 3.108452 1.173597
v 0.176285 3.148330 1.050864
v 0.000000 3.162927 1.005941
v -0.176285 3.148330 1.050864
v -0.305334 3.108452 1.173597
v -0.352569 3.053977 1.341254
v -0.305334 2.999502 1.508911
v -0.176284 2.959623 1.631644
v -0.176284 -0.333594 1.631644
v 0.305334 1.401476 -1.517438
v -0.305334 1.401476 -1.517438
v 0.176285 1.397107 -1.646413
v -0.352570 1.407444 -1.341254
v -0.305334 1.413413 -1.165070
v -0.176285 1.417782 -1.036095
v -0.000000 1.419381 -0.988887
v 0.352569 1.407444 -1.341254
v -0.000000 1.395508 -1.693622
v -0.176285 1.397107 -1.646413
v 0.176285 1.417782 -1.036095
v 0.305334 1.413413 -1.165070
v 0.176285 1.168386 -1.644461
v -0.352570 1.189827 -1.341254
v -0.176285 1.211268 -1.038047
v -0.000000 1.165070 -1.691368
v 0.176285 1.211268 -1.038047
v 0.305334 1.177449 -1.516311
v -0.305334 1.177449 -1.516311
v -0.305334 1.202206 -1.166197
v -0.000000 1.214585 -0.991140
v 0.352569 1.189827 -1.341254
v -0.176285 1.168387 -1.644461
v 0.305334 1.202206 -1.166197
v 0.244520 1.175766 -1.743460
v 0.244520 1.399793 -1.744587
v -0.366149 1.175766 -1.743460
v -0.366149 1.399793 -1.744586
v -0.237099 1.166704 -1.871610
v -0.237099 1.395424 -1.873562
v -0.060814 1.393825 -1.920770
v -0.413384 1.405762 -1.568403
v 0.115470 1.395424 -1.873562
v 0.115470 1.166704 -1.871610
v -0.413384 1.188145 -1.568403
v -0.060814 1.163387 -1.918517
v 0.305334 0.826901 -1.515946
v -0.305334 0.826901 -1.515946
v -0.305334 0.832007 -1.166562
v -0.000000 0.834560 -0.991870
v 0.352569 0.829454 -1.341254
v -0.176285 0.825032 -1.643829
v 0.305334 0.832007 -1.166562
v 0.176285 0.825032 -1.643829
v -0.352570 0.829454 -1.341254
v -0.176285 0.833876 -1.038679
v -0.000000 0.824348 -1.690638
v 0.176285 0.833876 -1.038679
vn 0.9625 -0.0000 -0.2712
vn -0.2469 -0.0000 -0.9690
vn 0.2469 -0.0000 -0.9690
vn 0.2469 -0.0000 0.9690
vn -0.9625 -0.0000 0.2712
vn 0.6892 -0.0000 -0.7246
vn 0.2493 0.0093 -0.9684
vn 0.2443 -0.0001 -0.9697
vn 0.6932 0.0043 -0.7207
vn 0.6851 -0.0003 -0.7284
vn 0.9634 0.0004 -0.2681
vn 0.9618 -0.0003 -0.2739
vn 0.9625 -0.0000 0.2712
vn 0.9635 0.0009 0.2678
vn 0.9618 0.0004 0.2737
vn 0.6892 -0.0000 0.7246
vn 0.6944 0.0051 0.7196
vn 0.6855 0.0010 0.7281
vn 0.2504 0.0089 0.9681
vn 0.2446 0.0005 0.9696
vn -0.2469 -0.0000 0.9690
vn -0.2446 0.0005 0.9696
vn -0.2504 0.0089 0.9681
vn -0.6892 -0.0000 0.7246
vn -0.6855 0.0010 0.7281
vn -0.6944 0.0051 0.7196
vn -0.9618 0.0004 0.2737
vn -0.9635 0.0009 0.2678
vn -0.9634 0.0004 -0.2681
vn -0.9625 -0.0000 -0.2712
vn -0.9618 -0.0003 -0.2739
vn -0.6892 -0.0000 -0.7246
vn -0.6851 -0.0003 -0.7284
vn -0.6932 0.0043 -0.7207
vn -0.2443 -0.0001 -0.9697
vn -0.2493 0.0093 -0.9684
vn 0.2469 0.5696 -0.7840
vn 0.6892 0.4259 -0.5862
vn 0.9625 0.1594 -0.2194
vn 0.9625 -0.1594 0.2194
vn 0.6892 -0.4259 0.5862
vn 0.2469 -0.5696 0.7840
vn -0.2469 -0.5696 0.7840
vn -0.6892 -0.4259 0.5862
vn -0.9625 -0.1594 0.2194
vn -0.9625 0.1594 -0.2194
vn -0.6892 0.4259 -0.5862
vn -0.2469 0.5696 -0.7840
vn 0.2469 0.9216 -0.2994
vn 0.6892 0.6892 -0.2239
vn 0.9625 0.2579 -0.0838
vn 0.9625 -0.2579 0.0838
vn 0.6892 -0.6892 0.2239
vn 0.2469 -0.9216 0.2994
vn -0.2469 -0.9216 0.2994
vn -0.6892 -0.6892 0.2239
vn -0.9625 -0.2579 0.0838
vn -0.9625 0.2579 -0.0838
vn -0.6892 0.6892 -0.2239
vn -0.2469 0.9216 -0.2994
vn 0.2469 0.9216 0.2994
vn 0.6892 0.6892 0.2239
vn 0.9625 0.2579 0.0838
vn 0.9625 -0.2579 -0.0838
vn 0.6892 -0.6892 -0.2239
vn 0.2469 -0.9216 -0.2994
vn -0.2469 -0.9216 -0.2994
vn -0.6892 -0.6892 -0.2239
vn -0.9625 -0.2579 -0.0838
vn -0.9625 0.2579 0.0838
vn -0.6892 0.6892 0.2239
vn -0.2469 0.9216 0.2994
vn 0.2469 0.5696 0.7840
vn 0.6892 0.4259 0.5862
vn 0.9625 0.1594 0.2194
vn 0.9625 -0.1594 -0.2194
vn 0.6892 -0.4259 -0.5862
vn 0.2469 -0.5696 -0.7840
vn -0.2469 -0.5696 -0.7840
vn -0.6892 -0.4259 -0.5862
vn -0.9625 -0.1594 -0.2194
vn -0.9625 0.1594 0.2194
vn -0.6892 0.4259 0.5862
vn -0.2469 0.5696 0.7840
vn -0.2580 0.0083 0.9661
vn 0.2580 0.0083 0.9661
vn 0.2587 0.0082 0.9659
vn -0.9658 -0.0006 0.2594
vn -0.7063 -0.0014 0.7079
vn 0.7063 -0.0014 0.7079
vn 0.7063 -0.0010 0.7079
vn -0.2577 0.0105 -0.9662
vn 0.9658 -0.0006 0.2594
vn 0.9658 -0.0004 0.2593
vn 0.2577 0.0105 -0.9662
vn 0.2586 0.0106 -0.9659
vn -0.7055 0.0065 -0.7087
vn -0.9657 0.0013 -0.2598
vn 0.9658 0.0007 -0.2594
vn 0.9659 -0.0002 -0.2591
vn 0.7055 0.0065 -0.7087
vn 0.7068 0.0067 -0.7074
vn -0.2578 -0.0099 0.9661
vn -0.2574 -0.0059 0.9663
vn -0.2586 -0.0106 0.9659
vn 0.2578 -0.0099 0.9661
vn 0.2574 -0.0059 0.9663
vn 0.2570 -0.0054 0.9664
vn -0.9659 -0.0003 0.2591
vn -0.9656 -0.0004 0.2602
vn -0.7063 -0.0010 0.7079
vn -0.7051 -0.0032 0.7091
vn 0.7051 -0.0032 0.7091
vn 0.7044 -0.0024 0.7098
vn 0.0853 -0.9962 -0.0155
vn 0.9656 -0.0004 0.2602
vn 0.9654 -0.0001 0.2606
vn 0.2581 -0.0088 -0.9661
vn 0.2575 -0.0054 -0.9663
vn 0.2571 -0.0056 -0.9664
vn -0.7060 -0.0046 -0.7082
vn -0.7052 -0.0029 -0.7090
vn -0.7070 -0.0036 -0.7072
vn -0.0361 0.9993 0.0023
vn 0.9656 -0.0004 -0.2601
vn 0.9656 -0.0009 -0.2599
vn -0.9660 0.0022 0.2586
vn -0.2581 -0.0088 -0.9661
vn -0.2579 -0.0089 -0.9661
vn -0.2587 -0.0082 -0.9659
vn -0.9657 -0.0006 -0.2596
vn -0.9657 -0.0007 -0.2598
vn -0.9659 -0.0000 -0.2590
vn 0.7060 -0.0046 -0.7082
vn 0.7057 -0.0050 -0.7084
vn 0.7048 -0.0061 -0.7093
vn 0.9660 -0.0025 -0.2586
vn 0.0066 0.9999 -0.0092
vn 0.9660 -0.0013 -0.2586
vn -0.0157 -0.9998 0.0116
vn 0.0493 0.9986 -0.0206
vn -0.1169 -0.9924 0.0386
vn -0.9656 -0.0001 0.2599
vn -0.9660 -0.0000 0.2586
vn 0.7044 -0.0009 -0.7098
vn 0.3656 -0.8599 -0.3561
vn 0.3618 -0.8630 -0.3525
vn 0.9654 -0.0002 -0.2609
vn 0.9653 -0.0003 -0.2610
vn -0.9654 -0.0001 -0.2607
vn -0.9654 -0.0002 -0.2609
vn -0.9655 -0.0000 -0.2605
vn -0.7046 -0.0034 -0.7096
vn -0.7041 -0.0011 -0.7101
vn 0.2568 -0.0020 -0.9665
vn 0.2566 -0.0021 -0.9665
vn 0.9654 -0.0001 0.2609
vn 0.9653 -0.0000 0.2610
vn -0.2570 -0.0019 -0.9664
vn -0.2568 -0.0020 -0.9665
vn -0.2572 -0.0018 -0.9664
vn 0.7041 -0.0008 0.7101
vn 0.7039 -0.0007 0.7103
vn -0.7044 -0.0024 0.7098
vn -0.7041 -0.0008 0.7101
vn -0.9654 -0.0001 0.2609
vn 0.2568 -0.0017 0.9665
vn 0.2566 -0.0016 0.9665
vn -0.2570 -0.0054 0.9664
vn -0.2568 -0.0017 0.9665
vn -0.0000 -0.9999 0.0146
vn -0.2587 0.0082 0.9659
vn -0.2586 0.0106 -0.9659
vn -0.7068 0.0067 -0.7074
vn -0.9659 0.0014 -0.2590
vn 0.2586 -0.0106 0.9659
vn 0.2587 -0.0082 -0.9659
vn -0.2573 -0.0095 -0.9663
vn -0.9655 -0.0013 -0.2604
vn 0.7070 -0.0036 -0.7072
vn 0.7047 -0.0007 -0.7095
vn -0.9653 -0.0003 -0.2610
vn -0.7039 -0.0013 -0.7103
vn -0.2566 -0.0021 -0.9665
vn -0.7039 -0.0007 0.7103
vn -0.9653 -0.0000 0.2610
vn -0.2566 -0.0016 0.9665
vt 0.400000 0.750000
vt 0.400000 0.833333
vt 0.400000 0.083333
vt 0.400000 0.000000
vt 0.400000 0.916667
vt 0.400000 1.000000
vt 0.400000 0.500000
vt 0.400000 0.583333
vt 0.400000 0.333333
vt 0.400000 0.250000
vt 0.900000 0.500000
vt 0.800000 0.583333
vt 0.800000 0.500000
vt 0.900000 0.583333
vt 0.800000 0.666667
vt 0.900000 0.666667
vt 0.800000 0.750000
vt 0.900000 0.750000
vt 0.800000 0.833333
vt 0.900000 0.833333
vt 0.800000 0.916667
vt 0.900000 0.916667
vt 0.800000 1.000000
vt 0.900000 0.000000
vt 0.800000 0.083333
vt 0.800000 0.000000
vt 0.900000 0.083333
vt 0.800000 0.166667
vt 0.900000 0.166667
vt 0.800000 0.250000
vt 0.900000 0.333333
vt 0.800000 0.333333
vt 0.800000 0.416667
vt 0.900000 0.416667
vt 1.000000 0.500000
vt 1.000000 0.583333
vt 1.000000 0.666667
vt 1.000000 0.750000
vt 1.000000 0.916667
vt 1.000000 1.000000
vt 0.900000 1.000000
vt 1.000000 0.000000
vt 1.000000 0.083333
vt 1.000000 0.166667
vt 0.900000 0.250000
vt 1.000000 0.250000
vt 1.000000 0.416667
vt -0.000000 0.500000
vt 0.100000 0.583333
vt -0.000000 0.583333
vt -0.000000 0.666667
vt 0.100000 0.750000
vt -0.000000 0.750000
vt -0.000000 0.833333
vt 0.100000 0.833333
vt -0.000000 0.916667
vt 0.100000 1.000000
vt -0.000000 1.000000
vt 0.100000 0.000000
vt -0.000000 0.083333
vt -0.000000 0.000000
vt 0.100000 0.083333
vt -0.000000 0.166667
vt 0.100000 0.166667
vt -0.000000 0.250000
vt 0.100000 0.250000
vt -0.000000 0.333333
vt 0.100000 0.416667
vt -0.000000 0.416667
vt 0.100000 0.500000
vt 0.200000 0.500000
vt 0.200000 0.583333
vt 0.100000 0.666667
vt 0.200000 0.666667
vt 0.200000 0.750000
vt 0.200000 0.916667
vt 0.100000 0.916667
vt 0.200000 0.000000
vt 0.200000 0.083333
vt 0.200000 0.166667
vt 0.200000 0.250000
vt 0.100000 0.333333
vt 0.200000 0.333333
vt 0.300000 0.500000
vt 0.300000 0.583333
vt 0.300000 0.666667
vt 0.300000 0.750000
vt 0.200000 0.833333
vt 0.300000 0.916667
vt 0.200000 1.000000
vt 0.300000 0.000000
vt 0.300000 0.166667
vt 0.300000 0.250000
vt 0.300000 0.333333
vt 0.200000 0.416667
vt 0.300000 0.416667
vt 0.400000 0.666667
vt 0.300000 0.833333
vt 0.300000 1.000000
vt 0.300000 0.083333
vt 0.400000 0.166667
vt 0.400000 0.416667
vt 0.800000 0.000000
vt 0.800000 0.833333
vt 0.800000 0.416667
vt 0.800000 0.750000
vt 0.800000 0.583333
vt 0.800000 0.500000
vt 0.800000 0.333333
vt 0.800000 0.250000
vt 0.800000 0.666667
vt 0.800000 0.000000
vt 0.800000 1.000000
vt 0.800000 0.916667
vt 0.800000 0.166667
vt 0.800000 0.083333
vt 0.800000 0.833333
vt 0.800000 0.583333
vt 0.800000 0.666667
vt 0.800000 0.750000
vt 0.800000 0.500000
vt 0.800000 0.416667
vt 0.800000 0.250000
vt 0.800000 0.333333
vt 0.800000 0.833333
vt 0.800000 0.916667
vt 0.800000 0.083333
vt 0.800000 1.000000
vt 0.800000 0.000000
vt 1.000000 0.833333
vt 1.000000 0.333333
s 1
usemtl Material.001
f 87/1/1 7/2/1 88/2/1
f 91/3/2 5/4/2 4/3/2
f 89/5/3 5/6/3 90/6/3
f 84/7/4 10/8/4 85/8/4
f 94/9/5 2/10/5 1/9/5
f 88/2/6 6/5/6 89/5/6
f 24/11/3 13/12/7 12/13/8
f 25/14/6 14/15/9 13/12/10
f 26/16/1 15/17/11 14/15/12
f 27/18/13 16/19/14 15/17/15
f 28/20/16 17/21/17 16/19/18
f 29/22/4 18/23/19 17/21/20
f 30/24/21 19/25/22 18/26/23
f 31/27/24 20/28/25 19/25/26
f 32/29/5 21/30/27 20/28/28
f 21/30/29 34/31/30 22/32/31
f 34/31/32 23/33/33 22/32/34
f 35/34/2 12/13/35 23/33/36
f 36/35/37 25/14/37 24/11/37
f 37/36/38 26/16/38 25/14/38
f 38/37/39 27/18/39 26/16/39
f 39/38/40 28/20/40 27/18/40
f 28/20/41 41/39/41 29/22/41
f 29/22/42 42/40/42 30/41/42
f 42/42/43 31/27/43 30/24/43
f 43/43/44 32/29/44 31/27/44
f 44/44/45 33/45/45 32/29/45
f 45/46/46 34/31/46 33/45/46
f 34/31/47 47/47/47 35/34/47
f 47/47/48 24/11/48 35/34/48
f 36/48/49 49/49/49 37/50/49
f 49/49/50 38/51/50 37/50/50
f 38/51/51 51/52/51 39/53/51
f 51/52/52 40/54/52 39/53/52
f 52/55/53 41/56/53 40/54/53
f 41/56/54 54/57/54 42/58/54
f 54/59/55 43/60/55 42/61/55
f 55/62/56 44/63/56 43/60/56
f 56/64/57 45/65/57 44/63/57
f 57/66/58 46/67/58 45/65/58
f 46/67/59 59/68/59 47/69/59
f 47/69/60 48/70/60 36/48/60
f 60/71/61 49/49/61 48/70/61
f 61/72/62 50/73/62 49/49/62
f 62/74/63 51/52/63 50/73/63
f 63/75/64 52/55/64 51/52/64
f 52/55/65 65/76/65 53/77/65
f 65/76/66 54/57/66 53/77/66
f 66/78/67 55/62/67 54/59/67
f 67/79/68 56/64/68 55/62/68
f 68/80/69 57/66/69 56/64/69
f 69/81/70 58/82/70 57/66/70
f 70/83/71 59/68/71 58/82/71
f 59/68/72 60/71/72 48/70/72
f 72/84/73 61/72/73 60/71/73
f 73/85/74 62/74/74 61/72/74
f 74/86/75 63/75/75 62/74/75
f 75/87/76 64/88/76 63/75/76
f 64/88/77 77/89/77 65/76/77
f 77/89/78 66/90/78 65/76/78
f 78/91/79 67/79/79 66/78/79
f 67/79/80 80/92/80 68/80/80
f 80/92/81 69/81/81 68/80/81
f 81/93/82 70/83/82 69/81/82
f 82/94/83 71/95/83 70/83/83
f 83/96/84 60/71/84 71/95/84
f 84/7/4 73/85/4 72/84/4
f 85/8/16 74/86/16 73/85/16
f 86/97/13 75/87/13 74/86/13
f 87/1/1 76/98/1 75/87/1
f 88/2/6 77/89/6 76/98/6
f 89/5/3 78/99/3 77/89/3
f 90/4/2 79/100/2 78/91/2
f 91/3/32 80/92/32 79/100/32
f 92/101/30 81/93/30 80/92/30
f 93/10/5 82/94/5 81/93/5
f 94/9/24 83/96/24 82/94/24
f 95/102/21 72/84/21 83/96/21
f 85/8/16 9/97/16 86/97/16
f 95/102/24 1/9/24 96/102/24
f 92/101/32 4/3/32 3/101/32
f 86/97/13 8/1/13 87/1/13
f 93/10/30 3/101/30 2/10/30
f 84/7/21 96/102/21 11/7/21
f 19/25/22 103/103/85 18/26/23
f 17/21/20 103/23/86 107/21/87
f 21/30/27 101/28/88 20/28/28
f 20/28/25 102/25/89 19/25/26
f 16/19/18 107/21/90 108/104/91
f 12/13/35 106/105/92 23/33/36
f 15/17/15 108/104/93 104/106/94
f 12/13/8 99/107/95 105/108/96
f 23/33/33 98/109/97 22/32/34
f 22/32/31 100/110/98 21/30/29
f 14/15/12 104/106/99 97/111/100
f 13/12/10 97/111/101 99/107/102
f 102/25/103 117/112/104 103/103/105
f 107/21/106 117/113/107 113/114/108
f 100/110/109 116/115/110 101/28/88
f 101/28/111 111/116/112 102/25/89
f 108/104/91 113/114/113 120/117/114
f 109/118/115 121/119/115 114/119/115
f 104/106/94 120/117/116 118/120/117
f 105/108/118 109/118/119 112/121/120
f 106/105/121 115/109/122 98/109/123
f 99/107/124 122/111/124 129/107/124
f 97/111/100 118/120/125 114/119/126
f 106/105/127 125/122/127 119/122/127
f 127/108/128 125/122/129 126/105/130
f 124/109/131 131/123/132 128/110/133
f 129/107/134 121/119/135 130/118/136
f 105/108/137 132/121/137 127/108/137
f 105/108/138 126/105/138 106/105/138
f 114/119/126 122/111/139 97/111/100
f 119/122/140 132/121/140 112/121/140
f 99/107/127 130/118/127 109/118/127
f 98/109/141 128/110/141 100/110/141
f 115/109/142 131/123/142 123/109/142
f 115/109/139 124/109/139 98/109/139
f 110/123/143 128/110/144 131/123/144
f 109/118/145 133/111/146 140/118/147
f 114/119/126 137/120/148 133/111/149
f 115/109/150 141/110/151 110/123/152
f 119/122/153 134/124/154 115/109/122
f 112/121/120 140/118/155 143/121/156
f 118/120/117 139/125/157 137/120/158
f 112/121/159 138/122/160 119/122/161
f 120/117/114 144/126/162 139/125/163
f 116/115/164 142/127/165 111/116/112
f 110/123/143 135/28/166 116/115/110
f 113/114/108 136/128/167 144/126/168
f 111/116/169 136/129/170 117/112/104
f 133/111/146 136/128/171 134/124/171
f 87/1/1 8/1/1 7/2/1
f 91/3/2 90/4/2 5/4/2
f 89/5/3 6/5/3 5/6/3
f 84/7/4 11/7/4 10/8/4
f 94/9/5 93/10/5 2/10/5
f 88/2/6 7/2/6 6/5/6
f 24/11/3 25/14/3 13/12/7
f 25/14/6 26/16/6 14/15/9
f 26/16/1 27/18/1 15/17/11
f 27/18/13 28/20/13 16/19/14
f 28/20/16 29/22/16 17/21/17
f 29/22/4 30/41/4 18/23/19
f 30/24/21 31/27/21 19/25/22
f 31/27/24 32/29/24 20/28/25
f 32/29/5 33/45/5 21/30/27
f 21/30/29 33/45/30 34/31/30
f 34/31/32 35/34/32 23/33/33
f 35/34/2 24/11/2 12/13/35
f 36/35/37 37/36/37 25/14/37
f 37/36/38 38/37/38 26/16/38
f 38/37/39 39/38/39 27/18/39
f 39/38/40 40/130/40 28/20/40
f 28/20/41 40/130/41 41/39/41
f 29/22/42 41/39/42 42/40/42
f 42/42/43 43/43/43 31/27/43
f 43/43/44 44/44/44 32/29/44
f 44/44/45 45/46/45 33/45/45
f 45/46/46 46/131/46 34/31/46
f 34/31/47 46/131/47 47/47/47
f 47/47/48 36/35/48 24/11/48
f 36/48/49 48/70/49 49/49/49
f 49/49/50 50/73/50 38/51/50
f 38/51/51 50/73/51 51/52/51
f 51/52/52 52/55/52 40/54/52
f 52/55/53 53/77/53 41/56/53
f 41/56/54 53/77/54 54/57/54
f 54/59/55 55/62/55 43/60/55
f 55/62/56 56/64/56 44/63/56
f 56/64/57 57/66/57 45/65/57
f 57/66/58 58/82/58 46/67/58
f 46/67/59 58/82/59 59/68/59
f 47/69/60 59/68/60 48/70/60
f 60/71/61 61/72/61 49/49/61
f 61/72/62 62/74/62 50/73/62
f 62/74/63 63/75/63 51/52/63
f 63/75/64 64/88/64 52/55/64
f 52/55/65 64/88/65 65/76/65
f 65/76/66 66/90/66 54/57/66
f 66/78/67 67/79/67 55/62/67
f 67/79/68 68/80/68 56/64/68
f 68/80/69 69/81/69 57/66/69
f 69/81/70 70/83/70 58/82/70
f 70/83/71 71/95/71 59/68/71
f 59/68/72 71/95/72 60/71/72
f 72/84/73 73/85/73 61/72/73
f 73/85/74 74/86/74 62/74/74
f 74/86/75 75/87/75 63/75/75
f 75/87/76 76/98/76 64/88/76
f 64/88/77 76/98/77 77/89/77
f 77/89/78 78/99/78 66/90/78
f 78/91/79 79/100/79 67/79/79
f 67/79/80 79/100/80 80/92/80
f 80/92/81 81/93/81 69/81/81
f 81/93/82 82/94/82 70/83/82
f 82/94/83 83/96/83 71/95/83
f 83/96/84 72/84/84 60/71/84
f 84/7/4 85/8/4 73/85/4
f 85/8/16 86/97/16 74/86/16
f 86/97/13 87/1/13 75/87/13
f 87/1/1 88/2/1 76/98/1
f 88/2/6 89/5/6 77/89/6
f 89/5/3 90/6/3 78/99/3
f 90/4/2 91/3/2 79/100/2
f 91/3/32 92/101/32 80/92/32
f 92/101/30 93/10/30 81/93/30
f 93/10/5 94/9/5 82/94/5
f 94/9/24 95/102/24 83/96/24
f 95/102/21 84/7/21 72/84/21
f 85/8/16 10/8/16 9/97/16
f 95/102/24 94/9/24 1/9/24
f 92/101/32 91/3/32 4/3/32
f 86/97/13 9/97/13 8/1/13
f 93/10/30 92/101/30 3/101/30
f 84/7/21 95/102/21 96/102/21
f 19/25/22 102/25/172 103/103/85
f 17/21/20 18/23/19 103/23/86
f 21/30/27 100/110/109 101/28/88
f 20/28/25 101/28/111 102/25/89
f 16/19/18 17/21/17 107/21/90
f 12/13/35 105/108/173 106/105/92
f 15/17/15 16/19/14 108/104/93
f 12/13/8 13/12/7 99/107/95
f 23/33/33 106/105/174 98/109/97
f 22/32/31 98/109/175 100/110/98
f 14/15/12 15/17/11 104/106/99
f 13/12/10 14/15/9 97/111/101
f 102/25/103 111/116/169 117/112/104
f 107/21/106 103/23/176 117/113/107
f 100/110/109 110/123/143 116/115/110
f 101/28/111 116/115/164 111/116/112
f 108/104/91 107/21/90 113/114/113
f 109/118/115 130/118/115 121/119/115
f 104/106/94 108/104/93 120/117/116
f 105/108/118 99/107/177 109/118/119
f 106/105/121 119/122/153 115/109/122
f 99/107/124 97/111/124 122/111/124
f 97/111/100 104/106/99 118/120/125
f 106/105/127 126/105/127 125/122/127
f 127/108/128 132/121/178 125/122/129
f 124/109/131 123/109/179 131/123/132
f 129/107/134 122/111/180 121/119/135
f 105/108/137 112/121/137 132/121/137
f 105/108/138 127/108/138 126/105/138
f 114/119/126 121/119/139 122/111/139
f 119/122/140 125/122/140 132/121/140
f 99/107/127 129/107/127 130/118/127
f 98/109/141 124/109/141 128/110/141
f 115/109/142 110/123/142 131/123/142
f 115/109/139 123/109/139 124/109/139
f 110/123/143 100/110/109 128/110/144
f 109/118/145 114/119/181 133/111/146
f 114/119/126 118/120/125 137/120/148
f 115/109/150 134/124/182 141/110/151
f 119/122/153 138/122/183 134/124/154
f 112/121/120 109/118/119 140/118/155
f 118/120/117 120/117/116 139/125/157
f 112/121/159 143/121/184 138/122/160
f 120/117/114 113/114/113 144/126/162
f 116/115/164 135/28/185 142/127/165
f 110/123/143 141/110/186 135/28/166
f 113/114/108 117/113/107 136/128/167
f 111/116/169 142/127/187 136/129/170
f 133/111/146 137/120/171 139/125/171
f 139/125/171 144/126/171 136/128/171
f 136/128/171 142/127/171 135/28/171
f 135/28/171 141/110/171 134/124/171
f 134/124/171 138/122/171 143/121/171
f 143/121/171 140/118/147 133/111/146
f 133/111/146 139/125/171 136/128/171
f 136/128/171 135/28/171 134/124/171
f 134/124/171 143/121/171 133/111/146
o Cube.001
v -0.611200 -2.036574 2.513516
v -1.069111 -2.036574 1.436951
v -1.069111 2.036574 1.436951
v -0.611200 2.036575 2.513515
v -1.069111 -2.036574 -1.436951
v -0.611200 -2.036575 -2.513515
v -0.611200 2.036574 -2.513516
v -1.069111 2.036574 -1.436951
v 1.069111 -2.036574 1.436951
v 0.611200 -2.036574 2.513516
v 0.611200 2.036575 2.513515
v 1.069111 2.036574 1.436951
v 0.611200 -2.036575 -2.513515
v 1.069111 -2.036574 -1.436951
v 1.069111 2.036574 -1.436951
v 0.611200 2.036574 -2.513516
vn -0.0000 -0.0000 1.0000
vn 1.0000 -0.0000 -0.0000
vn -0.0000 1.0000 -0.0000
vn -1.0000 -0.0000 -0.0000
vn -0.0000 -0.0000 -1.0000
vn -0.9202 -0.0000 0.3914
vn -0.9202 -0.0000 -0.3914
vn 0.9202 -0.0000 -0.3914
vn 0.9202 -0.0000 0.3914
vn -0.0000 -1.0000 -0.0000
vt 0.625000 0.803539
vt 0.375000 0.946461
vt 0.375000 0.803539
vt 0.625000 0.553539
vt 0.375000 0.696461
vt 0.375000 0.553539
vt 0.875000 0.553539
vt 0.821461 0.750000
vt 0.625000 0.696461
vt 0.625000 0.053539
vt 0.375000 0.196461
vt 0.375000 0.053539
vt 0.625000 0.303539
vt 0.375000 0.446461
vt 0.375000 0.303539
vt 0.625000 0.000000
vt 0.375000 0.000000
vt 0.625000 0.196461
vt 0.625000 0.446461
vt 0.321461 0.750000
vt 0.125000 0.696461
vt 0.625000 0.946461
vt 0.678539 0.500000
vt 0.821461 0.500000
vt 0.875000 0.696461
vt 0.678539 0.750000
vt 0.125000 0.553539
vt 0.178539 0.500000
vt 0.321461 0.500000
vt 0.178539 0.750000
s 1
usemtl Material.002
f 155/132/188 145/133/188 154/134/188
f 159/135/189 153/136/189 158/137/189
f 152/138/190 148/139/190 156/140/190
f 147/141/191 149/142/191 146/143/191
f 151/144/192 157/145/192 150/146/192
f 148/147/193 146/143/193 145/148/193
f 150/146/194 152/149/194 151/144/194
f 158/137/195 160/150/195 159/135/195
f 154/134/196 156/140/196 155/132/196
f 158/137/197 154/151/197 146/152/197
f 155/132/188 148/153/188 145/133/188
f 159/135/189 156/140/189 153/136/189
f 156/140/190 159/135/190 160/154/190
f 160/154/190 151/155/190 152/138/190
f 152/138/190 147/156/190 148/139/190
f 148/139/190 155/157/190 156/140/190
f 156/140/190 160/154/190 152/138/190
f 147/141/191 152/149/191 149/142/191
f 151/144/192 160/150/192 157/145/192
f 148/147/193 147/141/193 146/143/193
f 150/146/194 149/142/194 152/149/194
f 158/137/195 157/145/195 160/150/195
f 154/134/196 153/136/196 156/140/196
f 146/152/197 149/158/197 150/159/197
f 150/159/197 157/160/197 158/137/197
f 158/137/197 153/136/197 154/151/197
f 154/151/197 145/161/197 146/152/197
f 146/152/197 150/159/197 158/137/197
