# Blender 4.2.3 LTS
# www.blender.org
mtllib plant.mtl
o Low-Poly_Plant_.001_Cube.000
v -0.008337 0.314418 0.031863
v -0.008131 0.313761 -0.033714
v -0.344224 0.846207 0.024152
v -0.352772 0.848929 -0.067869
v -0.060490 0.314090 -0.000926
v -0.376817 0.907589 -0.023978
v -0.127108 0.611333 -0.105987
v -0.144971 0.636071 0.050806
v -0.124748 0.666780 -0.020919
v -0.223982 0.748442 -0.088406
v -0.220543 0.796021 -0.020661
v -0.231960 0.764558 0.033366
v -0.054202 0.493048 -0.013835
v 0.023922 0.343983 0.017901
v -0.032688 0.342916 -0.005123
v -0.103977 0.902142 0.303224
v -0.186523 0.904419 0.278540
v -0.022586 0.343045 0.051572
v -0.157425 0.966345 0.314357
v -0.138975 0.655388 0.071218
v -0.009857 0.682235 0.141182
v -0.065057 0.714366 0.098566
v -0.158613 0.799329 0.160483
v -0.099233 0.849918 0.180898
v -0.056256 0.816959 0.209737
v -0.032978 0.531742 0.040825
v 0.022856 0.375330 -0.014990
v -0.016759 0.373635 0.025940
v 0.220509 0.964586 0.192479
v 0.170398 0.966207 0.255241
v 0.035768 0.374174 0.036959
v 0.211004 1.031942 0.242280
v 0.009724 0.702770 0.143022
v 0.114969 0.732482 0.055636
v 0.058645 0.765694 0.088371
v 0.078903 0.854923 0.190451
v 0.116834 0.908849 0.145992
v 0.156996 0.874590 0.119031
v 0.021359 0.573024 0.041343
v -0.006197 0.279456 -0.025671
v 0.015398 0.277596 0.022851
v 0.237317 0.903579 -0.126956
v 0.274101 0.905260 -0.061767
v 0.043217 0.278634 -0.018729
v 0.276520 0.974822 -0.101691
v 0.123217 0.625563 0.039254
v 0.084104 0.657210 -0.082328
v 0.092516 0.691986 -0.022373
v 0.187106 0.786825 -0.004726
v 0.161459 0.843732 -0.053258
v 0.152415 0.807760 -0.097223
v 0.040407 0.488247 -0.005645
v -0.025812 0.442559 -0.004421
v 0.029820 0.312248 0.000119
v -0.033498 1.102038 -0.253096
v 0.035654 1.104469 -0.262195
v 0.001527 0.303510 -0.059337
v 0.001432 1.177615 -0.278513
v 0.072642 0.808923 -0.095267
v -0.046335 0.841298 -0.103954
v 0.008147 0.878379 -0.090496
v 0.055599 0.979226 -0.166564
v 0.004259 1.038761 -0.161556
v -0.036610 1.000504 -0.168892
v 0.004042 0.653406 -0.059596
v -0.014548 0.358456 0.019787
v 0.001181 0.357231 -0.023602
v -0.237432 1.052431 -0.063204
v -0.221228 1.055477 -0.126178
v -0.041296 0.357937 -0.014331
v -0.247836 1.132257 -0.102606
v -0.061694 0.745050 -0.098656
v -0.110907 0.778220 0.001043
v -0.080589 0.817824 -0.041544
v -0.130617 0.924104 -0.109534
v -0.144646 0.986518 -0.063669
v -0.164920 0.945817 -0.030714
v -0.034815 0.591203 -0.020723
v 0.010014 0.416781 0.018319
v -0.022005 0.415361 -0.010394
v -0.144886 1.146417 0.178969
v -0.193702 1.149395 0.143002
v -0.028793 0.415830 0.029560
v -0.183205 1.230291 0.173874
v -0.111870 0.823423 0.016060
v -0.043094 0.858593 0.093199
v -0.069660 0.900348 0.051967
v -0.146706 1.011650 0.071051
v -0.112441 1.077624 0.098879
v -0.090693 1.034733 0.128076
v -0.033915 0.661837 0.020671
v 0.016995 0.455245 -0.003605
v -0.018968 0.453336 0.014082
v 0.096108 1.224410 0.182993
v 0.047988 1.226967 0.212656
v 0.013202 0.454007 0.033871
v 0.077688 1.312535 0.213969
v -0.030648 0.883117 0.099149
v 0.059713 0.921180 0.066400
v 0.014484 0.964771 0.074815
v 0.003257 1.081659 0.147576
v 0.038724 1.151656 0.127346
v 0.071880 1.106761 0.118909
v 0.001778 0.713345 0.034086
v 0.000152 0.392453 -0.017464
v 0.002928 0.390263 0.019802
v 0.182900 1.205264 -0.024343
v 0.191759 1.207758 0.027588
v 0.031236 0.391333 -0.001122
v 0.202560 1.298232 0.001977
v 0.068979 0.843889 0.057591
v 0.071844 0.884541 -0.032123
v 0.063016 0.930208 0.009719
v 0.121074 1.053803 0.044248
v 0.115385 1.127778 0.006215
v 0.119999 1.080642 -0.025189
v 0.025381 0.664732 0.007654
v -0.173423 0.426727 0.173423
v 0.000000 0.349043 0.123083
v -0.148253 0.387885 0.086711
v -0.086711 0.387885 0.148253
v 0.173423 0.426727 0.173423
v 0.123083 0.349043 -0.000000
v 0.086711 0.387885 0.148253
v 0.148253 0.387885 0.086711
v 0.173423 0.426727 -0.173423
v 0.000000 0.349043 -0.123083
v 0.148253 0.387885 -0.086711
v 0.086711 0.387885 -0.148253
v -0.173423 0.426727 -0.173423
v -0.123083 0.349043 -0.000000
v 0.000000 0.253746 -0.000000
v -0.086711 0.387885 -0.148253
v -0.148253 0.387885 -0.086711
v 0.088976 0.441258 0.210961
v 0.106437 0.351891 0.043288
v 0.022844 0.396575 0.158699
v 0.097706 0.396575 0.127125
v 0.210961 0.441258 -0.088976
v 0.043288 0.351891 -0.106437
v 0.158699 0.396575 -0.022844
v 0.127125 0.396575 -0.097706
v -0.088976 0.441258 -0.210961
v -0.106437 0.351891 -0.043288
v -0.022844 0.396575 -0.158699
v -0.097706 0.396575 -0.127125
v -0.210961 0.441258 0.088976
v -0.043288 0.351891 0.106437
v 0.000000 0.242263 -0.000000
v -0.158699 0.396575 0.022844
v -0.127125 0.396575 0.097706
v 0.213723 0.457975 -0.002748
v 0.074867 0.355168 -0.076818
v 0.145270 0.406571 0.036060
v 0.144295 0.406571 -0.039783
v -0.002748 0.457975 -0.213723
v -0.076817 0.355168 -0.074867
v 0.036060 0.406571 -0.145270
v -0.039783 0.406571 -0.144295
v -0.213723 0.457975 0.002748
v -0.074867 0.355168 0.076817
v -0.145270 0.406571 -0.036060
v -0.144295 0.406571 0.039783
v 0.002748 0.457975 0.213723
v 0.076817 0.355168 0.074867
v 0.000000 0.229053 -0.000000
v -0.036060 0.406571 0.145270
v 0.039783 0.406571 0.144295
v 0.072790 0.477205 -0.185784
v -0.040098 0.358937 -0.091759
v 0.082274 0.418071 -0.112941
v 0.016346 0.418071 -0.138772
v -0.185784 0.477205 -0.072790
v -0.091759 0.358937 0.040098
v -0.112941 0.418071 -0.082274
v -0.138771 0.418071 -0.016346
v -0.072790 0.477205 0.185784
v 0.040098 0.358937 0.091759
v -0.082274 0.418071 0.112941
v -0.016346 0.418071 0.138771
v 0.185784 0.477205 0.072790
v 0.091759 0.358937 -0.040098
v 0.000000 0.213856 -0.000000
v 0.112941 0.418071 0.082274
v 0.138771 0.418071 0.016346
v -0.135058 0.499327 -0.128286
v -0.093451 0.363274 0.002403
v -0.068731 0.431300 -0.110868
v -0.114255 0.431300 -0.062941
v -0.128286 0.499327 0.135058
v 0.002403 0.363274 0.093451
v -0.110868 0.431300 0.068731
v -0.062941 0.431300 0.114255
v 0.135058 0.499327 0.128286
v 0.093451 0.363274 -0.002403
v 0.068731 0.431301 0.110868
v 0.114255 0.431301 0.062941
v 0.128286 0.499327 -0.135058
v -0.002403 0.363274 -0.093451
v 0.000000 0.196374 -0.000000
v 0.110868 0.431301 -0.068731
v 0.062941 0.431301 -0.114255
v -0.158436 0.524777 0.071674
v -0.030788 0.368262 0.081658
v -0.120047 0.446519 0.020443
v -0.094612 0.446519 0.076666
v 0.071674 0.524777 0.158436
v 0.081658 0.368262 0.030788
v 0.020443 0.446519 0.120047
v 0.076666 0.446519 0.094612
v 0.158436 0.524777 -0.071674
v 0.030788 0.368262 -0.081658
v 0.120047 0.446519 -0.020443
v 0.094612 0.446519 -0.076666
v -0.071674 0.524777 -0.158436
v -0.081658 0.368262 -0.030788
v 0.000000 0.176263 -0.000000
v -0.020443 0.446519 -0.120047
v -0.076666 0.446519 -0.094612
v 0.006259 0.554053 0.162216
v 0.059786 0.374001 0.055343
v -0.024542 0.464027 0.111001
v 0.033023 0.464027 0.108780
v 0.162216 0.554053 -0.006259
v 0.055343 0.374001 -0.059786
v 0.111001 0.464027 0.024542
v 0.108780 0.464027 -0.033023
v -0.006259 0.554053 -0.162216
v -0.059786 0.374001 -0.055343
v 0.024542 0.464027 -0.111001
v -0.033023 0.464027 -0.108780
v -0.162216 0.554053 0.006259
v -0.055343 0.374001 0.059786
v 0.000000 0.153127 -0.000000
v -0.111001 0.464027 -0.024542
v -0.108780 0.464027 0.033023
v 0.142479 0.587732 0.051638
v 0.068885 0.380602 -0.032236
v 0.087357 0.484167 0.060262
v 0.105682 0.484167 0.009701
v 0.051638 0.587732 -0.142479
v -0.032236 0.380602 -0.068885
v 0.060262 0.484167 -0.087357
v 0.009701 0.484167 -0.105682
v -0.142479 0.587732 -0.051638
v -0.068885 0.380602 0.032236
v -0.087357 0.484167 -0.060262
v -0.105682 0.484167 -0.009701
v -0.051638 0.587732 0.142479
v 0.032236 0.380602 0.068885
v 0.000000 0.126512 -0.000000
v -0.060262 0.484167 0.087357
v -0.009701 0.484167 0.105682
v 0.094764 0.626477 -0.105048
v -0.003649 0.388197 -0.070906
v 0.082835 0.507337 -0.054349
v 0.045557 0.507337 -0.087977
v -0.105048 0.626477 -0.094764
v -0.070906 0.388197 0.003649
v -0.054349 0.507337 -0.082835
v -0.087977 0.507337 -0.045557
v -0.094764 0.626477 0.105048
v 0.003649 0.388197 0.070906
v -0.082835 0.507337 0.054349
v -0.045557 0.507337 0.087977
v 0.105048 0.626477 0.094764
v 0.070906 0.388197 -0.003649
v 0.000000 0.095894 -0.000000
v 0.054349 0.507337 0.082835
v 0.087977 0.507337 0.045557
v -0.057513 0.671048 -0.118893
v -0.062600 0.396933 -0.021782
v -0.017865 0.533990 -0.090747
v -0.060056 0.533990 -0.070338
v -0.118893 0.671048 0.057513
v -0.021782 0.396933 0.062600
v -0.090747 0.533990 0.017865
v -0.070338 0.533990 0.060056
v 0.057513 0.671048 0.118893
v 0.062600 0.396933 0.021782
v 0.017865 0.533991 0.090747
v 0.060056 0.533991 0.070338
v 0.118893 0.671048 -0.057513
v 0.021782 0.396933 -0.062600
v 0.000000 0.060671 -0.000000
v 0.090747 0.533991 -0.017865
v 0.070338 0.533991 -0.060056
vn -0.8534 -0.5202 -0.0335
vn -0.8479 -0.4221 0.3207
vn -0.9481 -0.3145 -0.0464
vn -0.9988 0.0373 0.0312
vn -0.7216 -0.0082 0.6923
vn -0.6472 -0.6124 0.4540
vn -0.6701 -0.7423 -0.0040
vn -0.4772 -0.6902 -0.5439
vn -0.5806 -0.8111 0.0703
vn -0.4726 -0.6587 0.5855
vn -0.6246 -0.6131 -0.4837
vn -0.7145 -0.1070 -0.6914
vn -0.7958 -0.4369 -0.4194
vn -0.3555 -0.4810 0.8014
vn -0.0209 -0.3754 0.9266
vn -0.4008 -0.2828 0.8714
vn -0.3484 0.0342 0.9367
vn 0.3980 0.0086 0.9173
vn 0.1905 -0.5601 0.8062
vn -0.2617 -0.7092 0.6546
vn -0.7174 -0.6503 0.2498
vn -0.1606 -0.7774 0.6081
vn 0.3921 -0.6083 0.6901
vn -0.7094 -0.5683 0.4168
vn -0.9199 -0.0940 0.3807
vn -0.6991 -0.3959 0.5954
vn 0.6305 -0.4354 0.6426
vn 0.8678 -0.3258 0.3751
vn 0.6665 -0.2459 0.7038
vn 0.7316 0.0380 0.6807
vn 0.9984 0.0224 -0.0519
vn 0.8544 -0.5030 0.1305
vn 0.5419 -0.6677 0.5103
vn -0.0332 -0.6030 0.7970
vn 0.5443 -0.7341 0.4061
vn 0.8245 -0.5544 -0.1132
vn 0.1336 -0.5161 0.8460
vn -0.0132 -0.0745 0.9971
vn 0.3021 -0.3490 0.8871
vn 0.8492 -0.3925 -0.3532
vn 0.6859 -0.2852 -0.6695
vn 0.9091 -0.2143 -0.3573
vn 0.9091 0.0381 -0.4149
vn 0.3031 0.0237 -0.9527
vn 0.4602 -0.4523 -0.7639
vn 0.7097 -0.6239 -0.3273
vn 0.7635 -0.5489 0.3402
vn 0.6252 -0.6862 -0.3719
vn 0.2138 -0.5069 -0.8350
vn 0.8666 -0.4600 0.1933
vn 0.9132 -0.0538 0.4039
vn 0.9517 -0.3031 0.0484
vn -0.0059 -0.3322 -0.9432
vn -0.2692 -0.2015 -0.9418
vn -0.0815 -0.1974 -0.9769
vn 0.7530 -0.0059 -0.6580
vn -0.8592 -0.0122 -0.5114
vn -0.5412 -0.4120 -0.7330
vn -0.0358 -0.5859 -0.8096
vn 0.6244 -0.4980 -0.6018
vn -0.1082 -0.6417 -0.7593
vn -0.7100 -0.4674 -0.5267
vn 0.5152 -0.4109 -0.7522
vn 0.8587 -0.0247 -0.5118
vn 0.3456 -0.2228 -0.9116
vn -0.8765 -0.3354 -0.3454
vn -0.9721 -0.2345 -0.0071
vn -0.9075 -0.1819 -0.3786
vn -0.9422 0.0170 -0.3347
vn -0.8607 0.0136 0.5090
vn -0.8991 -0.3744 0.2267
vn -0.7855 -0.5529 -0.2782
vn -0.3287 -0.4569 -0.8265
vn -0.7751 -0.6009 -0.1951
vn -0.7707 -0.4276 0.4724
vn -0.5147 -0.3727 -0.7721
vn -0.3431 -0.0412 -0.9384
vn -0.6646 -0.2441 -0.7062
vn -0.6532 -0.3066 0.6923
vn -0.3758 -0.2057 0.9036
vn -0.6925 -0.1642 0.7025
vn -0.6636 0.0132 0.7480
vn 0.1658 0.0203 0.9860
vn -0.1301 -0.3314 0.9345
vn -0.5642 -0.5164 0.6442
vn -0.9074 -0.4203 -0.0066
vn -0.4884 -0.5565 0.6721
vn 0.1576 -0.3815 0.9108
vn -0.9209 -0.3376 0.1947
vn -0.9979 -0.0421 -0.0488
vn -0.9079 -0.2203 0.3566
vn 0.4055 -0.2710 0.8730
vn 0.7000 -0.1725 0.6930
vn 0.3953 -0.1392 0.9080
vn 0.4384 0.0186 0.8986
vn 0.9792 0.0284 0.2008
vn 0.8298 -0.2858 0.4794
vn 0.4018 -0.4722 0.7846
vn -0.3502 -0.3789 0.8566
vn 0.4586 -0.5048 0.7313
vn 0.9219 -0.3346 0.1952
vn -0.1594 -0.2973 0.9414
vn -0.4308 -0.0350 0.9018
vn -0.0045 -0.1899 0.9818
vn 0.9701 -0.2371 -0.0517
vn 0.9102 -0.1458 -0.3876
vn 0.9929 -0.1161 -0.0275
vn 0.9979 0.0233 -0.0599
vn 0.5418 0.0273 -0.8401
vn 0.7664 -0.2487 -0.5922
vn 0.9005 -0.4272 -0.0818
vn 0.6784 -0.3328 0.6550
vn 0.8783 -0.4530 -0.1532
vn 0.5332 -0.2975 -0.7919
vn 0.8276 -0.2545 0.5004
vn 0.6672 -0.0216 0.7446
vn 0.9156 -0.1584 0.3697
vn -0.1738 -0.7787 -0.6029
vn -0.0000 -1.0000 -0.0000
vn -0.4076 -0.8172 -0.4076
vn -0.6029 -0.7787 -0.1738
vn -0.6122 -0.7907 -0.0000
vn -0.6029 -0.7787 0.1738
vn -0.4076 -0.8172 0.4076
vn -0.1738 -0.7787 0.6029
vn -0.0000 -0.7907 0.6122
vn 0.1738 -0.7787 0.6029
vn 0.4076 -0.8172 0.4076
vn 0.6029 -0.7787 0.1738
vn 0.6122 -0.7907 -0.0000
vn 0.6029 -0.7787 -0.1738
vn 0.4076 -0.8172 -0.4076
vn 0.1738 -0.7787 -0.6029
vn -0.0000 -0.7907 -0.6122
vn -0.7007 -0.7096 -0.0743
vn -0.6044 -0.7548 0.2549
vn -0.4359 -0.7096 0.5536
vn -0.2601 -0.7235 0.6394
vn -0.0743 -0.7096 0.7007
vn 0.2549 -0.7548 0.6044
vn 0.5536 -0.7096 0.4359
vn 0.6394 -0.7235 0.2601
vn 0.7007 -0.7096 0.0743
vn 0.6044 -0.7548 -0.2549
vn 0.4359 -0.7096 -0.5536
vn 0.2601 -0.7235 -0.6394
vn 0.0743 -0.7096 -0.7007
vn -0.2549 -0.7548 -0.6044
vn -0.5536 -0.7096 -0.4359
vn -0.6394 -0.7235 -0.2601
vn -0.3657 -0.6328 0.6825
vn 0.0094 -0.6825 0.7309
vn 0.3831 -0.6328 0.6729
vn 0.5455 -0.6479 0.5317
vn 0.6825 -0.6328 0.3657
vn 0.7309 -0.6825 -0.0094
vn 0.6729 -0.6328 -0.3831
vn 0.5317 -0.6479 -0.5455
vn 0.3657 -0.6328 -0.6825
vn -0.0094 -0.6825 -0.7309
vn -0.3831 -0.6328 -0.6729
vn -0.5455 -0.6479 -0.5317
vn -0.6825 -0.6328 -0.3657
vn -0.7309 -0.6825 0.0094
vn -0.6729 -0.6328 0.3831
vn -0.5317 -0.6479 0.5455
vn 0.5322 -0.5527 0.6413
vn 0.7421 -0.6039 0.2908
vn 0.8262 -0.5527 -0.1091
vn 0.7541 -0.5680 -0.3295
vn 0.6413 -0.5527 -0.5322
vn 0.2908 -0.6039 -0.7421
vn -0.1091 -0.5527 -0.8262
vn -0.3296 -0.5680 -0.7541
vn -0.5322 -0.5527 -0.6413
vn -0.7421 -0.6039 -0.2908
vn -0.8262 -0.5527 0.1091
vn -0.7541 -0.5680 0.3295
vn -0.6413 -0.5527 0.5322
vn -0.2908 -0.6039 0.7421
vn 0.1091 -0.5527 0.8262
vn 0.3295 -0.5680 0.7541
vn 0.8396 -0.4739 -0.2656
vn 0.5867 -0.5238 -0.6176
vn 0.2221 -0.4739 -0.8521
vn -0.0224 -0.4887 -0.8722
vn -0.2656 -0.4739 -0.8396
vn -0.6176 -0.5238 -0.5867
vn -0.8521 -0.4739 -0.2221
vn -0.8722 -0.4887 0.0224
vn -0.8396 -0.4739 0.2656
vn -0.5867 -0.5238 0.6176
vn -0.2221 -0.4739 0.8521
vn 0.0224 -0.4887 0.8722
vn 0.2656 -0.4739 0.8396
vn 0.6176 -0.5238 0.5867
vn 0.8521 -0.4739 0.2221
vn 0.8722 -0.4887 -0.0224
vn 0.0731 -0.4002 -0.9135
vn -0.3688 -0.4465 -0.8153
vn -0.7344 -0.4002 -0.5482
vn -0.8518 -0.4138 -0.3212
vn -0.9135 -0.4002 -0.0731
vn -0.8153 -0.4465 0.3688
vn -0.5482 -0.4002 0.7344
vn -0.3212 -0.4138 0.8518
vn -0.0731 -0.4002 0.9135
vn 0.3688 -0.4465 0.8153
vn 0.7344 -0.4002 0.5482
vn 0.8518 -0.4138 0.3212
vn 0.9135 -0.4002 0.0731
vn 0.8153 -0.4465 -0.3688
vn 0.5482 -0.4002 -0.7344
vn 0.3212 -0.4138 -0.8518
vn -0.8420 -0.3341 -0.4236
vn -0.9262 -0.3753 0.0357
vn -0.8068 -0.3341 0.4872
vn -0.6373 -0.3461 0.6885
vn -0.4236 -0.3341 0.8420
vn 0.0357 -0.3753 0.9262
vn 0.4872 -0.3341 0.8068
vn 0.6885 -0.3461 0.6373
vn 0.8420 -0.3341 0.4236
vn 0.9262 -0.3753 -0.0357
vn 0.8068 -0.3341 -0.4872
vn 0.6373 -0.3461 -0.6885
vn 0.4236 -0.3341 -0.8420
vn -0.0357 -0.3753 -0.9262
vn -0.4872 -0.3341 -0.8068
vn -0.6885 -0.3461 -0.6373
vn -0.7235 -0.2764 0.6325
vn -0.3237 -0.3122 0.8932
vn 0.1503 -0.2764 0.9492
vn 0.4061 -0.2868 0.8677
vn 0.6325 -0.2764 0.7235
vn 0.8932 -0.3122 0.3237
vn 0.9492 -0.2764 -0.1503
vn 0.8677 -0.2868 -0.4061
vn 0.7235 -0.2764 -0.6325
vn 0.3237 -0.3122 -0.8932
vn -0.1503 -0.2764 -0.9492
vn -0.4061 -0.2868 -0.8677
vn -0.6325 -0.2764 -0.7235
vn -0.8932 -0.3122 -0.3237
vn -0.9492 -0.2764 0.1503
vn -0.8677 -0.2868 0.4061
vn 0.3175 -0.2273 0.9206
vn 0.7175 -0.2576 0.6472
vn 0.9484 -0.2273 0.2213
vn 0.9705 -0.2360 -0.0499
vn 0.9206 -0.2273 -0.3175
vn 0.6472 -0.2576 -0.7175
vn 0.2213 -0.2273 -0.9484
vn -0.0499 -0.2360 -0.9705
vn -0.3175 -0.2273 -0.9206
vn -0.7175 -0.2576 -0.6472
vn -0.9484 -0.2273 -0.2213
vn -0.9705 -0.2360 0.0499
vn -0.9206 -0.2273 0.3175
vn -0.6472 -0.2576 0.7175
vn -0.2213 -0.2273 0.9484
vn 0.0499 -0.2360 0.9705
vn 0.9811 -0.1861 0.0532
vn 0.8798 -0.2115 -0.4256
vn 0.5673 -0.1861 -0.8022
vn 0.3224 -0.1934 -0.9266
vn 0.0532 -0.1861 -0.9811
vn -0.4256 -0.2115 -0.8798
vn -0.8022 -0.1861 -0.5673
vn -0.9266 -0.1934 -0.3224
vn -0.9811 -0.1861 -0.0532
vn -0.8798 -0.2115 0.4256
vn -0.5673 -0.1861 0.8022
vn -0.3224 -0.1934 0.9266
vn -0.0532 -0.1861 0.9811
vn 0.4256 -0.2115 0.8798
vn 0.8022 -0.1861 0.5673
vn 0.9266 -0.1934 0.3224
vt 0.035159 0.474399
vt 0.986316 0.492965
vt 0.037015 0.680317
vt 0.038872 0.886234
vt 0.767244 0.912226
vt 0.893489 0.288636
vt 0.031446 0.257722
vt 0.800662 0.084307
vt 0.027733 0.041045
vt 0.934260 0.816895
vt 0.012051 0.008359
vt 0.048029 0.990008
vt 0.930878 0.816649
vt 0.989771 0.014642
vt 0.996535 0.015135
s 1
usemtl Blatt.003
f 9/1/1 7/2/2 13/3/3
f 5/4/4 1/5/5 13/3/3
f 10/6/6 9/1/1 11/7/7
f 11/7/7 3/8/8 6/9/9
f 4/8/10 11/7/7 6/9/9
f 9/1/1 12/6/11 11/7/7
f 13/3/3 2/5/12 5/4/4
f 7/2/2 2/5/12 13/3/3
f 8/2/13 9/1/1 13/3/3
f 1/5/5 8/2/13 13/3/3
f 22/1/14 20/2/15 26/3/16
f 18/4/17 14/5/18 26/3/16
f 23/6/19 22/1/14 24/7/20
f 24/7/20 16/8/21 19/9/22
f 17/8/23 24/7/20 19/9/22
f 22/1/14 25/6/24 24/7/20
f 26/3/16 15/5/25 18/4/17
f 20/2/15 15/5/25 26/3/16
f 21/2/26 22/1/14 26/3/16
f 14/5/18 21/2/26 26/3/16
f 35/1/27 33/2/28 39/3/29
f 31/4/30 27/5/31 39/3/29
f 36/6/32 35/1/27 37/7/33
f 37/7/33 29/8/34 32/9/35
f 30/8/36 37/7/33 32/9/35
f 35/1/27 38/6/37 37/7/33
f 39/3/29 28/5/38 31/4/30
f 33/2/28 28/5/38 39/3/29
f 34/2/39 35/1/27 39/3/29
f 27/5/31 34/2/39 39/3/29
f 48/1/40 46/2/41 52/3/42
f 44/4/43 40/5/44 52/3/42
f 49/6/45 48/1/40 50/7/46
f 50/7/46 42/8/47 45/9/48
f 43/8/49 50/7/46 45/9/48
f 48/1/40 51/6/50 50/7/46
f 52/3/42 41/5/51 44/4/43
f 46/2/41 41/5/51 52/3/42
f 47/2/52 48/1/40 52/3/42
f 40/5/44 47/2/52 52/3/42
f 61/1/53 59/2/54 65/3/55
f 57/4/56 53/5/57 65/3/55
f 62/6/58 61/1/53 63/7/59
f 63/7/59 55/8/60 58/9/61
f 56/8/62 63/7/59 58/9/61
f 61/1/53 64/6/63 63/7/59
f 65/3/55 54/5/64 57/4/56
f 59/2/54 54/5/64 65/3/55
f 60/2/65 61/1/53 65/3/55
f 53/5/57 60/2/65 65/3/55
f 74/1/66 72/2/67 78/3/68
f 70/4/69 66/5/70 78/3/68
f 75/6/71 74/1/66 76/7/72
f 76/7/72 68/8/73 71/9/74
f 69/8/75 76/7/72 71/9/74
f 74/1/66 77/6/76 76/7/72
f 78/3/68 67/5/77 70/4/69
f 72/2/67 67/5/77 78/3/68
f 73/2/78 74/1/66 78/3/68
f 66/5/70 73/2/78 78/3/68
f 87/1/79 85/2/80 91/3/81
f 83/4/82 79/5/83 91/3/81
f 88/6/84 87/1/79 89/7/85
f 89/7/85 81/8/86 84/9/87
f 82/8/88 89/7/85 84/9/87
f 87/1/79 90/6/89 89/7/85
f 91/3/81 80/5/90 83/4/82
f 85/2/80 80/5/90 91/3/81
f 86/2/91 87/1/79 91/3/81
f 79/5/83 86/2/91 91/3/81
f 100/1/92 98/2/93 104/3/94
f 96/4/95 92/5/96 104/3/94
f 101/6/97 100/1/92 102/7/98
f 102/7/98 94/8/99 97/9/100
f 95/8/101 102/7/98 97/9/100
f 100/1/92 103/6/102 102/7/98
f 104/3/94 93/5/103 96/4/95
f 98/2/93 93/5/103 104/3/94
f 99/2/104 100/1/92 104/3/94
f 92/5/96 99/2/104 104/3/94
f 113/1/105 111/2/106 117/3/107
f 109/4/108 105/5/109 117/3/107
f 114/6/110 113/1/105 115/7/111
f 115/7/111 107/8/112 110/9/113
f 108/8/114 115/7/111 110/9/113
f 113/1/105 116/6/115 115/7/111
f 117/3/107 106/5/116 109/4/108
f 111/2/106 106/5/116 117/3/107
f 112/2/117 113/1/105 117/3/107
f 105/5/109 112/2/117 117/3/107
f 10/6/6 7/2/2 9/1/1
f 11/7/7 12/6/11 3/8/8
f 4/8/10 10/6/6 11/7/7
f 9/1/1 8/2/13 12/6/11
f 23/6/19 20/2/15 22/1/14
f 24/7/20 25/6/24 16/8/21
f 17/8/23 23/6/19 24/7/20
f 22/1/14 21/2/26 25/6/24
f 36/6/32 33/2/28 35/1/27
f 37/7/33 38/6/37 29/8/34
f 30/8/36 36/6/32 37/7/33
f 35/1/27 34/2/39 38/6/37
f 49/6/45 46/2/41 48/1/40
f 50/7/46 51/6/50 42/8/47
f 43/8/49 49/6/45 50/7/46
f 48/1/40 47/2/52 51/6/50
f 62/6/58 59/2/54 61/1/53
f 63/7/59 64/6/63 55/8/60
f 56/8/62 62/6/58 63/7/59
f 61/1/53 60/2/65 64/6/63
f 75/6/71 72/2/67 74/1/66
f 76/7/72 77/6/76 68/8/73
f 69/8/75 75/6/71 76/7/72
f 74/1/66 73/2/78 77/6/76
f 88/6/84 85/2/80 87/1/79
f 89/7/85 90/6/89 81/8/86
f 82/8/88 88/6/84 89/7/85
f 87/1/79 86/2/91 90/6/89
f 101/6/97 98/2/93 100/1/92
f 102/7/98 103/6/102 94/8/99
f 95/8/101 101/6/97 102/7/98
f 100/1/92 99/2/104 103/6/102
f 114/6/110 111/2/106 113/1/105
f 115/7/111 116/6/115 107/8/112
f 108/8/114 114/6/110 115/7/111
f 113/1/105 112/2/117 116/6/115
usemtl Blatt_NONE.002
f 133/10/118 132/11/119 130/12/120
f 134/13/121 132/11/119 131/14/122
f 130/12/120 132/11/119 134/13/121
f 120/10/123 132/11/119 118/12/124
f 121/13/125 132/11/119 119/14/126
f 131/15/122 132/11/119 120/10/123
f 118/12/124 132/11/119 121/13/125
f 124/10/127 132/11/119 122/12/128
f 125/13/129 132/11/119 123/14/130
f 119/15/126 132/11/119 124/10/127
f 122/12/128 132/11/119 125/13/129
f 128/10/131 132/11/119 126/12/132
f 129/13/133 132/11/119 127/14/134
f 123/15/130 132/11/119 128/10/131
f 126/12/132 132/11/119 129/13/133
f 127/15/134 132/11/119 133/10/118
f 150/10/135 149/11/119 147/12/136
f 151/13/137 149/11/119 148/14/138
f 147/12/136 149/11/119 151/13/137
f 137/10/139 149/11/119 135/12/140
f 138/13/141 149/11/119 136/14/142
f 148/15/138 149/11/119 137/10/139
f 135/12/140 149/11/119 138/13/141
f 141/10/143 149/11/119 139/12/144
f 142/13/145 149/11/119 140/14/146
f 136/15/142 149/11/119 141/10/143
f 139/12/144 149/11/119 142/13/145
f 145/10/147 149/11/119 143/12/148
f 146/13/149 149/11/119 144/14/150
f 140/15/146 149/11/119 145/10/147
f 143/12/148 149/11/119 146/13/149
f 144/15/150 149/11/119 150/10/135
f 167/10/151 166/11/119 164/12/152
f 168/13/153 166/11/119 165/14/154
f 164/12/152 166/11/119 168/13/153
f 154/10/155 166/11/119 152/12/156
f 155/13/157 166/11/119 153/14/158
f 165/15/154 166/11/119 154/10/155
f 152/12/156 166/11/119 155/13/157
f 158/10/159 166/11/119 156/12/160
f 159/13/161 166/11/119 157/14/162
f 153/15/158 166/11/119 158/10/159
f 156/12/160 166/11/119 159/13/161
f 162/10/163 166/11/119 160/12/164
f 163/13/165 166/11/119 161/14/166
f 157/15/162 166/11/119 162/10/163
f 160/12/164 166/11/119 163/13/165
f 161/15/166 166/11/119 167/10/151
f 184/10/167 183/11/119 181/12/168
f 185/13/169 183/11/119 182/14/170
f 181/12/168 183/11/119 185/13/169
f 171/10/171 183/11/119 169/12/172
f 172/13/173 183/11/119 170/14/174
f 182/15/170 183/11/119 171/10/171
f 169/12/172 183/11/119 172/13/173
f 175/10/175 183/11/119 173/12/176
f 176/13/177 183/11/119 174/14/178
f 170/15/174 183/11/119 175/10/175
f 173/12/176 183/11/119 176/13/177
f 179/10/179 183/11/119 177/12/180
f 180/13/181 183/11/119 178/14/182
f 174/15/178 183/11/119 179/10/179
f 177/12/180 183/11/119 180/13/181
f 178/15/182 183/11/119 184/10/167
f 201/10/183 200/11/119 198/12/184
f 202/13/185 200/11/119 199/14/186
f 198/12/184 200/11/119 202/13/185
f 188/10/187 200/11/119 186/12/188
f 189/13/189 200/11/119 187/14/190
f 199/15/186 200/11/119 188/10/187
f 186/12/188 200/11/119 189/13/189
f 192/10/191 200/11/119 190/12/192
f 193/13/193 200/11/119 191/14/194
f 187/15/190 200/11/119 192/10/191
f 190/12/192 200/11/119 193/13/193
f 196/10/195 200/11/119 194/12/196
f 197/13/197 200/11/119 195/14/198
f 191/15/194 200/11/119 196/10/195
f 194/12/196 200/11/119 197/13/197
f 195/15/198 200/11/119 201/10/183
f 218/10/199 217/11/119 215/12/200
f 219/13/201 217/11/119 216/14/202
f 215/12/200 217/11/119 219/13/201
f 205/10/203 217/11/119 203/12/204
f 206/13/205 217/11/119 204/14/206
f 216/15/202 217/11/119 205/10/203
f 203/12/204 217/11/119 206/13/205
f 209/10/207 217/11/119 207/12/208
f 210/13/209 217/11/119 208/14/210
f 204/15/206 217/11/119 209/10/207
f 207/12/208 217/11/119 210/13/209
f 213/10/211 217/11/119 211/12/212
f 214/13/213 217/11/119 212/14/214
f 208/15/210 217/11/119 213/10/211
f 211/12/212 217/11/119 214/13/213
f 212/15/214 217/11/119 218/10/199
f 235/10/215 234/11/119 232/12/216
f 236/13/217 234/11/119 233/14/218
f 232/12/216 234/11/119 236/13/217
f 222/10/219 234/11/119 220/12/220
f 223/13/221 234/11/119 221/14/222
f 233/15/218 234/11/119 222/10/219
f 220/12/220 234/11/119 223/13/221
f 226/10/223 234/11/119 224/12/224
f 227/13/225 234/11/119 225/14/226
f 221/15/222 234/11/119 226/10/223
f 224/12/224 234/11/119 227/13/225
f 230/10/227 234/11/119 228/12/228
f 231/13/229 234/11/119 229/14/230
f 225/15/226 234/11/119 230/10/227
f 228/12/228 234/11/119 231/13/229
f 229/15/230 234/11/119 235/10/215
f 252/10/231 251/11/119 249/12/232
f 253/13/233 251/11/119 250/14/234
f 249/12/232 251/11/119 253/13/233
f 239/10/235 251/11/119 237/12/236
f 240/13/237 251/11/119 238/14/238
f 250/15/234 251/11/119 239/10/235
f 237/12/236 251/11/119 240/13/237
f 243/10/239 251/11/119 241/12/240
f 244/13/241 251/11/119 242/14/242
f 238/15/238 251/11/119 243/10/239
f 241/12/240 251/11/119 244/13/241
f 247/10/243 251/11/119 245/12/244
f 248/13/245 251/11/119 246/14/246
f 242/15/242 251/11/119 247/10/243
f 245/12/244 251/11/119 248/13/245
f 246/15/246 251/11/119 252/10/231
f 269/10/247 268/11/119 266/12/248
f 270/13/249 268/11/119 267/14/250
f 266/12/248 268/11/119 270/13/249
f 256/10/251 268/11/119 254/12/252
f 257/13/253 268/11/119 255/14/254
f 267/15/250 268/11/119 256/10/251
f 254/12/252 268/11/119 257/13/253
f 260/10/255 268/11/119 258/12/256
f 261/13/257 268/11/119 259/14/258
f 255/15/254 268/11/119 260/10/255
f 258/12/256 268/11/119 261/13/257
f 264/10/259 268/11/119 262/12/260
f 265/13/261 268/11/119 263/14/262
f 259/15/258 268/11/119 264/10/259
f 262/12/260 268/11/119 265/13/261
f 263/15/262 268/11/119 269/10/247
f 286/10/263 285/11/119 283/12/264
f 287/13/265 285/11/119 284/14/266
f 283/12/264 285/11/119 287/13/265
f 273/10/267 285/11/119 271/12/268
f 274/13/269 285/11/119 272/14/270
f 284/15/266 285/11/119 273/10/267
f 271/12/268 285/11/119 274/13/269
f 277/10/271 285/11/119 275/12/272
f 278/13/273 285/11/119 276/14/274
f 272/15/270 285/11/119 277/10/271
f 275/12/272 285/11/119 278/13/273
f 281/10/275 285/11/119 279/12/276
f 282/13/277 285/11/119 280/14/278
f 276/15/274 285/11/119 281/10/275
f 279/12/276 285/11/119 282/13/277
f 280/15/278 285/11/119 286/10/263
