# Blender 4.2.3 LTS
# www.blender.org
mtllib sakula.mtl
o _11_tree
v -0.171941 0.626509 -0.325035
v -0.163854 0.635886 -0.335147
v -0.176105 0.639345 -0.316462
v -0.168018 0.648722 -0.326575
v -0.233077 0.653427 -0.395033
v -0.218493 0.659607 -0.397204
v -0.222657 0.672444 -0.388631
v -0.237241 0.666263 -0.386460
v -0.261210 0.723003 -0.508080
v -0.250828 0.724545 -0.505347
v -0.253653 0.733253 -0.499531
v -0.264035 0.731711 -0.502264
v 0.420675 1.434302 -0.140165
v 0.425692 1.424505 -0.137822
v 0.428755 1.439780 -0.134566
v 0.433773 1.429983 -0.132222
v 0.464536 1.421140 -0.190584
v 0.464611 1.413041 -0.182770
v 0.472692 1.418519 -0.177171
v 0.472616 1.426617 -0.184985
v 0.531885 1.366681 -0.230862
v 0.529548 1.363464 -0.224343
v 0.535030 1.367181 -0.220545
v 0.537367 1.370397 -0.227063
v 0.335385 1.463585 0.091071
v 0.342576 1.455696 0.094638
v 0.326988 1.456101 0.091447
v 0.334179 1.448212 0.095014
v 0.336327 1.465948 0.159135
v 0.343227 1.458005 0.155142
v 0.334830 1.450521 0.155518
v 0.327930 1.458464 0.159511
v 0.366735 1.433353 0.243614
v 0.370032 1.429372 0.237995
v 0.364335 1.424295 0.238250
v 0.361038 1.428276 0.243870
v 0.194561 1.217833 0.073799
v 0.192125 1.225338 0.071783
v 0.202249 1.220469 0.074322
v 0.199813 1.227974 0.072306
v 0.183570 1.241591 0.115561
v 0.182403 1.246295 0.109016
v 0.190090 1.248931 0.109540
v 0.191257 1.244227 0.116085
v 0.163204 1.298298 0.149434
v 0.163233 1.299294 0.143999
v 0.168448 1.301083 0.144355
v 0.168420 1.300086 0.149789
v 0.228049 1.202790 -0.107646
v 0.230075 1.210643 -0.106904
v 0.220273 1.204907 -0.108819
v 0.222299 1.212760 -0.108077
v 0.239384 1.219509 -0.152605
v 0.240113 1.225324 -0.146950
v 0.232337 1.227441 -0.148123
v 0.231608 1.221626 -0.153778
v 0.258325 1.270474 -0.195286
v 0.258066 1.272390 -0.190111
v 0.252791 1.273826 -0.190906
v 0.253050 1.271910 -0.196082
v -0.177131 1.694485 -0.157337
v -0.180306 1.703514 -0.164891
v -0.167040 1.700602 -0.154266
v -0.170216 1.709632 -0.161820
v -0.217915 1.742403 -0.118785
v -0.216534 1.745942 -0.130372
v -0.206443 1.752059 -0.127301
v -0.207824 1.748520 -0.115714
v -0.271326 1.830745 -0.111485
v -0.268450 1.829869 -0.119191
v -0.261604 1.834019 -0.117108
v -0.264480 1.834895 -0.109401
v -0.037300 1.604187 -0.378959
v -0.035625 1.616088 -0.381018
v -0.048041 1.604705 -0.384705
v -0.046366 1.616606 -0.386764
v -0.002382 1.610853 -0.443628
v -0.004581 1.621714 -0.438539
v -0.015323 1.622231 -0.444286
v -0.013124 1.611371 -0.449374
v 0.038537 1.668687 -0.519068
v 0.035581 1.673595 -0.513100
v 0.028294 1.673946 -0.516999
v 0.031250 1.669038 -0.522966
v -0.065022 1.290762 0.067939
v -0.081391 1.294648 0.067004
v -0.061037 1.306928 0.065350
v -0.077406 1.310814 0.064415
v -0.096588 1.313633 0.162172
v -0.109069 1.314909 0.150925
v -0.105084 1.331075 0.148336
v -0.092603 1.329799 0.159584
v -0.198133 1.356109 0.253480
v -0.202480 1.355491 0.242925
v -0.199777 1.366458 0.241169
v -0.195430 1.367077 0.251724
v -0.079470 1.157826 -0.278777
v -0.094160 1.165351 -0.282167
v -0.087472 1.146537 -0.269162
v -0.102162 1.154062 -0.272553
v -0.117916 1.113875 -0.362381
v -0.128007 1.126026 -0.356512
v -0.136009 1.114737 -0.346897
v -0.125918 1.102586 -0.352766
v -0.221185 1.099648 -0.460289
v -0.224000 1.107921 -0.452919
v -0.229429 1.100262 -0.446396
v -0.226614 1.091989 -0.453766
v -0.174995 0.855600 0.326734
v -0.166749 0.888632 0.308447
v -0.139766 0.855600 0.342621
v -0.131519 0.888632 0.324333
v -0.238330 1.031581 0.467181
v -0.223350 1.044449 0.433961
v -0.188120 1.044449 0.449848
v -0.203100 1.031581 0.483068
v -0.261678 1.351848 0.534072
v -0.250984 1.348570 0.510358
v -0.227083 1.348570 0.521136
v -0.237777 1.351848 0.544850
v -0.022427 0.664178 -0.344563
v -0.020073 0.691635 -0.328054
v -0.054230 0.664178 -0.340028
v -0.051876 0.691635 -0.323519
v -0.040508 0.810461 -0.471347
v -0.036231 0.821158 -0.441359
v -0.068034 0.821158 -0.436824
v -0.072311 0.810461 -0.466812
v -0.053904 1.076681 -0.528696
v -0.050851 1.073957 -0.507289
v -0.072427 1.073957 -0.504212
v -0.075480 1.076681 -0.525619
v -0.306518 1.169829 -0.030608
v -0.294974 1.192204 -0.029015
v -0.303643 1.166576 -0.005756
v -0.292099 1.188952 -0.004163
v -0.413870 1.275191 -0.004401
v -0.390850 1.285427 -0.005724
v -0.387975 1.282174 0.019128
v -0.410995 1.271938 0.020451
v -0.473014 1.477549 0.033041
v -0.456038 1.476815 0.030981
v -0.454088 1.474609 0.047841
v -0.471063 1.475343 0.049901
v 0.067816 0.840581 -0.062210
v 0.025065 0.890633 0.003615
v 0.067816 0.840581 0.003615
v 0.160725 1.184153 -0.057648
v 0.212973 1.162126 -0.057648
v 0.212973 1.162126 -0.000946
v 0.160725 1.184153 -0.000946
v 0.376117 1.485076 -0.048183
v 0.400608 1.456322 -0.048183
v 0.400608 1.456322 -0.010412
v 0.376117 1.485076 -0.010412
v 0.597113 1.664682 -0.041616
v 0.613089 1.645925 -0.041616
v 0.613089 1.645925 -0.016978
v 0.597113 1.664682 -0.016978
v 0.088624 -0.031641 -0.000000
v -0.103294 1.537106 -0.247262
v 0.062667 -0.031641 0.062666
v -0.117270 1.526070 -0.234847
v 0.000000 -0.031641 0.088624
v 0.000000 0.145607 0.088624
v -0.062666 -0.031641 0.062667
v -0.075854 1.554610 -0.249242
v -0.088624 -0.031641 0.000000
v -0.094407 1.543235 -0.250372
v -0.062667 -0.031641 -0.062666
v -0.065155 1.056592 -0.116338
v -0.000000 -0.031641 -0.088624
v -0.042197 1.068411 -0.115044
v 0.062666 -0.031641 -0.062667
v 0.062666 0.145607 -0.062667
v -0.092830 1.036689 -0.098239
v -0.076019 1.049779 -0.112709
v 0.027466 0.442240 0.076691
v -0.097834 1.021670 -0.055270
v -0.099673 1.027865 -0.080198
v -0.077367 1.023109 -0.022492
v -0.093036 1.020642 -0.042837
v 0.081695 0.442240 -0.054229
v 0.253783 -0.031641 0.068411
v 0.227825 -0.031641 0.131077
v -0.008012 1.062925 -0.032875
v -0.022789 1.050269 -0.016157
v -0.002873 1.076002 -0.068845
v -0.227825 -0.031641 0.131078
v -0.253782 -0.031641 0.068411
v -0.003702 1.068484 -0.044240
v -0.014776 1.078553 -0.099683
v -0.131078 -0.031641 -0.227825
v -0.068411 -0.031641 -0.253782
v -0.049893 1.033271 -0.007101
v 0.080721 0.145607 0.019080
v 0.082567 0.130827 -0.014623
v 0.047449 0.130646 0.068970
v 0.070569 0.145607 0.043589
v -0.070570 0.145607 0.043587
v -0.049818 0.128912 0.067989
v -0.083040 0.128804 -0.013480
v -0.080721 0.145607 0.019078
v -0.043541 0.145607 -0.070589
v -0.068674 0.131595 -0.048163
v 0.012908 0.128350 -0.083277
v -0.019078 0.145607 -0.080721
v 0.096254 0.442240 0.019080
v 0.098207 0.442240 -0.014365
v 0.067447 0.442240 0.060131
v 0.089597 0.442240 0.035151
v -0.034666 0.442240 0.035149
v -0.012322 0.442240 0.060211
v -0.043268 0.442240 -0.014382
v -0.041323 0.442240 0.019078
v -0.007637 0.442240 -0.062151
v -0.032701 0.442240 -0.039894
v 0.041984 0.442240 -0.070678
v 0.008388 0.442240 -0.068789
v 0.220035 0.033754 0.105499
v 0.227825 -0.004299 0.131077
v 0.230187 0.033754 0.080991
v 0.253783 -0.004299 0.068411
v -0.220036 0.033754 0.105498
v -0.227825 -0.004351 0.131078
v -0.230188 0.033754 0.080989
v -0.253782 -0.004351 0.068411
v -0.105452 0.033754 -0.220055
v -0.131078 -0.003533 -0.227825
v -0.080989 0.033754 -0.230188
v -0.068411 -0.003533 -0.253782
v -0.122408 1.515997 -0.197942
v -0.123266 1.519444 -0.219356
v -0.106667 1.520586 -0.169771
v -0.118837 1.516239 -0.187259
v -0.050258 1.557461 -0.178636
v -0.062643 1.547058 -0.164287
v -0.045187 1.566373 -0.209528
v -0.046481 1.561635 -0.188395
v -0.054044 1.565772 -0.236026
v -0.084815 1.531769 -0.156529
v -0.204733 1.912452 -0.375937
v -0.211119 1.908713 -0.377669
v -0.199502 1.920184 -0.369367
v -0.202234 1.914913 -0.374159
v -0.224020 1.907903 -0.373728
v -0.217176 1.907287 -0.376973
v -0.230581 1.912850 -0.365810
v -0.226908 1.909100 -0.371324
v -0.218263 1.928661 -0.352981
v -0.225014 1.925405 -0.354042
v -0.207336 1.929556 -0.356088
v -0.214448 1.929559 -0.353420
v -0.200170 1.926587 -0.362051
v -0.231250 1.919266 -0.358480
v 0.025065 0.890633 -0.056839
v 0.023053 0.888914 -0.062209
v 0.025065 0.890633 -0.032751
v 0.024731 0.890348 -0.026229
v 0.019791 0.886128 -0.013499
v 0.032751 0.810630 -0.062209
v 0.024055 0.803203 0.003615
v 0.038648 0.815667 -0.046466
v 0.036890 0.814166 -0.018526
v 0.031793 0.809811 -0.005134
v 0.005475 0.873900 0.003615
v 0.026274 0.893250 -0.053135
v -0.080120 1.069852 -0.036330
v -0.071828 1.086334 -0.035138
v -0.100899 1.083317 -0.073062
v -0.100377 1.058171 -0.076809
v -0.098878 1.101912 -0.070640
v -0.085418 1.047298 -0.038484
v -0.094742 1.053411 -0.052387
v -0.099590 1.056979 -0.065460
v -0.081393 1.091467 -0.042729
v -0.097208 1.100780 -0.066190
v 0.024910 0.548580 -0.078454
v -0.004535 0.550195 -0.077144
v -0.024777 0.545803 -0.066398
v 0.026848 0.484632 -0.073393
v 0.003146 0.486029 -0.072178
v -0.012244 0.483172 -0.065557
v -0.024469 0.476624 -0.053667
v -0.019533 0.547927 -0.070946
v -0.034766 0.642668 0.031674
v 0.007781 0.639848 0.046116
v 0.001205 0.642877 0.048246
v -0.048864 0.637104 0.015955
v -0.047614 0.710580 0.016124
v 0.013915 0.703963 0.031010
v -0.042564 0.712308 0.021759
v -0.007948 0.712804 0.038333
v -0.248251 2.024901 -0.468450
v -0.246267 2.027833 -0.465958
v -0.252970 2.022942 -0.468843
v -0.258054 2.025052 -0.464609
v -0.256662 2.023630 -0.466700
v -0.253383 2.031048 -0.459743
v -0.255943 2.029814 -0.460146
v -0.249238 2.031388 -0.460922
v -0.246521 2.030262 -0.463183
v -0.258308 2.027485 -0.461829
v -0.091496 1.235214 -0.160635
v -0.078693 1.255934 -0.171003
v -0.086784 1.242118 -0.165814
v -0.055650 1.245500 -0.164187
v -0.075140 1.222698 -0.162088
v -0.086106 1.230014 -0.162473
v -0.069898 1.220344 -0.160459
v -0.065992 1.263077 -0.075987
v -0.058941 1.261244 -0.076406
v -0.084691 1.265186 -0.089060
v -0.078297 1.291315 -0.091324
v -0.052475 1.285811 -0.084915
v -0.067857 1.289693 -0.083965
v -0.089785 1.647447 -0.268220
v -0.106840 1.647829 -0.279515
v -0.109432 1.627940 -0.276434
v -0.100437 1.627290 -0.273124
v -0.091436 1.627022 -0.267156
v -0.131080 1.654195 -0.220334
v -0.116696 1.657580 -0.221980
v -0.133457 1.650123 -0.224027
v -0.139704 1.664943 -0.232595
v -0.123710 1.672876 -0.229961
v -0.136830 1.669413 -0.228265
v 0.209558 1.200979 -0.056700
v 0.212569 1.212125 -0.056385
v 0.220815 1.198124 -0.056652
v 0.223753 1.209182 -0.056340
v 0.216535 1.201842 -0.001991
v 0.199659 1.210575 -0.002032
v 0.203902 1.197844 -0.001755
v 0.212080 1.214582 -0.002267
v 0.341962 1.429237 -0.008727
v 0.368192 1.427050 -0.009228
v 0.355327 1.441194 -0.009211
v 0.354543 1.414829 -0.008731
v 0.375935 1.436875 -0.049051
v 0.368185 1.412263 -0.049656
v 0.357498 1.427670 -0.049604
v 0.381128 1.429100 -0.049081
v 0.377734 1.420457 -0.034800
v 0.374769 1.415808 -0.049486
v -0.046073 0.620112 -0.262609
v -0.043344 0.602686 -0.236312
v -0.043525 0.639408 -0.243229
v -0.040589 0.622430 -0.215197
vn -0.7300 -0.5272 0.4349
vn -0.2662 0.8119 0.5196
vn -0.2584 0.8142 0.5199
vn -0.2578 0.8144 0.5199
vn 0.7271 0.5285 -0.4382
vn -0.2604 0.8029 0.5362
vn 0.2604 -0.8029 -0.5362
vn 0.1261 0.5789 -0.8056
vn 0.2546 -0.7936 -0.5526
vn 0.2624 -0.7913 -0.5523
vn 0.2541 -0.7938 -0.5526
vn -0.9440 -0.3282 0.0329
vn 0.9344 0.3495 -0.0695
vn -0.2642 0.8519 -0.4522
vn -0.2641 0.8519 -0.4522
vn 0.7316 0.4765 0.4876
vn 0.7305 0.4716 0.4939
vn 0.7304 0.4713 0.4944
vn 0.2671 -0.8528 0.4488
vn 0.7180 0.4867 0.4975
vn -0.7180 -0.4867 -0.4976
vn -0.7180 -0.4867 -0.4975
vn 0.6252 -0.7652 -0.1536
vn -0.7041 -0.4967 -0.5074
vn -0.7052 -0.5017 -0.5010
vn -0.7041 -0.4964 -0.5078
vn 0.0784 0.6537 -0.7527
vn -0.0484 -0.6782 0.7333
vn -0.0483 -0.6782 0.7333
vn -0.6657 0.7461 -0.0167
vn -0.7406 -0.6700 0.0516
vn -0.7361 -0.6752 0.0473
vn -0.7358 -0.6756 0.0470
vn 0.6657 -0.7459 0.0213
vn -0.7461 -0.6650 0.0334
vn 0.7461 0.6650 -0.0334
vn 0.5068 -0.5347 0.6762
vn 0.7514 0.6597 -0.0152
vn 0.7558 0.6545 -0.0195
vn 0.7511 0.6600 -0.0149
vn -0.5768 0.6706 0.4664
vn 0.5907 -0.6843 -0.4276
vn 0.2433 -0.8142 0.5272
vn 0.9379 0.3387 0.0756
vn 0.9372 0.3421 0.0682
vn 0.9371 0.3423 0.0677
vn -0.2443 0.8164 -0.5233
vn 0.9440 0.3237 0.0643
vn -0.9440 -0.3237 -0.0643
vn -0.3300 0.9288 0.1686
vn -0.9497 -0.3086 -0.0530
vn -0.9504 -0.3052 -0.0604
vn -0.9497 -0.3088 -0.0526
vn 0.1059 -0.4816 0.8700
vn -0.1193 0.5165 -0.8479
vn -0.1882 -0.9041 -0.3837
vn -0.9490 0.2730 -0.1576
vn -0.9487 0.2777 -0.1509
vn -0.9487 0.2780 -0.1504
vn 0.1893 0.9056 0.3795
vn -0.9548 0.2599 -0.1441
vn 0.9548 -0.2599 0.1440
vn 0.2935 0.9012 -0.3190
vn 0.9603 -0.2467 0.1305
vn 0.9605 -0.2421 0.1371
vn 0.9602 -0.2470 0.1301
vn -0.0543 -0.6292 -0.7754
vn 0.0669 0.6604 0.7480
vn 0.0986 -0.5715 0.8146
vn 0.8166 0.5178 0.2550
vn 0.8184 0.5188 0.2471
vn 0.8185 0.5189 0.2466
vn -0.1011 0.5745 -0.8122
vn 0.8276 0.5017 0.2519
vn -0.8276 -0.5017 -0.2519
vn -0.4407 0.8585 -0.2620
vn -0.4407 0.8585 -0.2621
vn -0.8382 -0.4854 -0.2487
vn -0.8364 -0.4844 -0.2566
vn -0.8383 -0.4855 -0.2482
vn -0.1796 -0.1884 0.9655
vn 0.1564 0.2249 -0.9618
vn 0.0054 -0.9950 -0.0997
vn -0.8722 0.0518 -0.4863
vn -0.8744 0.0581 -0.4817
vn -0.8745 0.0586 -0.4814
vn -0.0032 0.9954 0.0956
vn -0.8810 0.0424 -0.4713
vn 0.8810 -0.0424 0.4713
vn 0.3102 0.8039 -0.5075
vn 0.8893 -0.0331 0.4561
vn 0.8872 -0.0267 0.4607
vn 0.8895 -0.0335 0.4558
vn 0.2325 -0.8287 -0.5092
vn -0.2144 0.8521 0.4774
vn -0.2144 0.8521 0.4775
vn 0.9210 -0.1710 0.3500
vn 0.2237 0.9646 -0.1396
vn 0.2188 0.9648 -0.1461
vn 0.2185 0.9648 -0.1465
vn -0.9224 0.1720 -0.3458
vn 0.2365 0.9594 -0.1536
vn -0.2365 -0.9594 0.1536
vn -0.8941 0.2768 0.3520
vn -0.2492 -0.9538 0.1676
vn -0.2541 -0.9537 0.1611
vn -0.2489 -0.9538 0.1680
vn 0.6583 -0.0419 0.7516
vn -0.6887 0.0540 -0.7230
vn -0.6887 0.0540 -0.7231
vn 0.7952 -0.6045 -0.0479
vn -0.4878 -0.6730 0.5560
vn -0.4916 -0.6669 0.5600
vn -0.4918 -0.6665 0.5603
vn -0.7969 0.6025 0.0441
vn -0.4749 -0.6700 0.5706
vn 0.4749 0.6700 -0.5706
vn -0.8449 0.1657 -0.5087
vn 0.4618 0.6667 -0.5850
vn 0.4581 0.6727 -0.5810
vn 0.4621 0.6664 -0.5852
vn 0.5155 -0.7373 -0.4366
vn -0.5460 0.7328 0.4060
vn -0.3093 -0.6587 0.6859
vn 0.9089 0.0187 0.4166
vn 0.9122 0.0199 0.4092
vn 0.9124 0.0200 0.4087
vn 0.3081 0.6622 -0.6831
vn 0.3080 0.6622 -0.6831
vn 0.9116 -0.0000 0.4111
vn -0.9116 -0.0000 -0.4111
vn 0.0514 0.9922 -0.1140
vn -0.9139 0.0187 -0.4054
vn -0.9106 0.0199 -0.4128
vn -0.9141 0.0187 -0.4050
vn -0.4015 -0.2152 0.8902
vn 0.3972 0.2574 -0.8809
vn -0.1062 -0.6587 -0.7449
vn -0.9907 0.0187 0.1351
vn -0.9895 0.0199 0.1431
vn -0.9894 0.0200 0.1436
vn 0.1058 0.6622 0.7419
vn -0.9900 -0.0000 0.1412
vn 0.9900 -0.0000 -0.1412
vn 0.0177 0.9922 0.1238
vn 0.9889 0.0187 -0.1472
vn 0.9901 0.0199 -0.1392
vn 0.9889 0.0187 -0.1477
vn -0.1379 -0.2152 -0.9668
vn 0.1364 0.2574 0.9566
vn -0.7019 -0.7122 -0.0120
vn 0.1066 -0.1109 0.9881
vn 0.1145 -0.1091 0.9874
vn 0.1151 -0.1090 0.9874
vn 0.6987 0.7153 0.0128
vn 0.1140 -0.1289 0.9851
vn -0.1140 0.1289 -0.9851
vn 0.0578 0.9907 0.1230
vn -0.1212 0.1469 -0.9817
vn -0.1133 0.1487 -0.9824
vn -0.1217 0.1468 -0.9816
vn -0.9537 -0.2921 0.0721
vn 0.9407 0.3329 -0.0653
vn 0.0016 -0.0002 1.0000
vn 0.0061 0.0126 0.9999
vn 0.0055 0.0130 0.9999
vn -0.8132 0.5820 -0.0000
vn 0.0030 0.0012 -1.0000
vn 0.0060 0.0125 -0.9999
vn 0.0085 0.0097 -0.9999
vn -0.9077 0.4195 -0.0000
vn -0.9077 0.4195 0.0021
vn 0.9114 -0.4115 -0.0000
vn 0.0155 0.0211 0.9997
vn 0.0176 0.0150 0.9997
vn 0.0187 0.0185 0.9997
vn 0.8395 -0.5430 -0.0203
vn 0.8371 -0.5460 -0.0324
vn 0.8431 -0.5377 -0.0000
vn 0.0113 0.0240 0.9996
vn 0.0216 0.0168 0.9996
vn 0.0206 0.0176 0.9996
vn 0.0107 0.0253 -0.9996
vn 0.0106 0.0254 -0.9996
vn 0.0183 0.0193 -0.9996
vn 0.7613 0.6484 -0.0000
vn 0.0204 0.0135 -0.9997
vn 0.0176 0.0150 -0.9997
vn -0.6307 0.7760 -0.0000
vn 0.6658 -0.7461 -0.0000
vn 0.9239 -0.0000 -0.3827
vn 0.3828 -0.0000 0.9238
vn 0.3827 0.0017 0.9239
vn -0.5254 0.8225 0.2176
vn 0.9239 -0.0000 0.3827
vn -0.9208 0.1158 -0.3726
vn -0.9178 0.1163 -0.3795
vn -0.9176 0.1164 -0.3801
vn -0.9170 0.1218 0.3798
vn 0.3743 -0.0550 0.9257
vn 0.3796 -0.0213 0.9249
vn 0.3827 -0.0000 0.9239
vn 0.3825 0.0001 -0.9239
vn 0.3826 0.0017 -0.9239
vn 0.3827 0.0017 -0.9239
vn 0.9183 -0.0460 -0.3933
vn 0.9223 -0.0480 -0.3836
vn 0.9179 -0.0458 -0.3943
vn 0.9191 -0.0552 -0.3901
vn 0.9224 -0.0215 -0.3857
vn 0.9184 -0.0610 -0.3908
vn -0.4004 0.0709 0.9136
vn -0.3847 0.0766 0.9199
vn -0.4019 0.0708 0.9130
vn -0.9258 -0.0608 0.3731
vn -0.9250 -0.0238 0.3791
vn -0.9239 -0.0000 0.3827
vn -0.3728 -0.0643 0.9257
vn -0.3790 -0.0249 0.9250
vn -0.3717 -0.0708 0.9257
vn 0.3907 -0.0617 -0.9185
vn 0.3860 -0.0240 -0.9222
vn 0.3827 -0.0000 -0.9239
vn -0.3827 -0.0000 0.9239
vn 0.3823 0.0015 -0.9240
vn -0.3827 -0.0000 -0.9239
vn 0.3716 0.1774 0.9113
vn 0.3766 0.1782 0.9091
vn -0.2176 0.8225 -0.5254
vn -0.9239 -0.0000 -0.3827
vn 0.5254 0.8225 0.2176
vn -0.3902 -0.0577 -0.9189
vn -0.3857 -0.0223 -0.9223
vn -0.3909 -0.0635 -0.9183
vn 0.9849 0.1630 0.0581
vn 0.9841 0.1630 0.0700
vn 0.9849 0.1630 0.0575
vn 0.3830 0.0013 0.9238
vn 0.9079 0.1840 0.3767
vn 0.8976 0.1838 0.4007
vn 0.9081 0.1840 0.3761
vn -0.3817 0.0724 -0.9215
vn -0.3785 -0.1183 -0.9180
vn -0.3756 -0.1167 -0.9194
vn -0.3743 -0.1160 -0.9200
vn -0.9899 0.1311 0.0540
vn -0.9920 0.1262 0.0085
vn -0.9897 0.1314 0.0575
vn -0.7406 0.1082 0.6632
vn -0.7228 0.1037 0.6832
vn -0.7217 0.1034 0.6845
vn -0.0554 0.0452 -0.9974
vn -0.0560 0.0453 -0.9974
vn -0.0553 0.0452 -0.9974
vn 0.7475 -0.0291 0.6636
vn 0.7479 -0.0291 0.6632
vn 0.7475 -0.0291 0.6637
vn -0.6910 0.0993 -0.7160
vn -0.6628 0.1010 -0.7420
vn -0.6606 0.1011 -0.7439
vn 0.9959 -0.0502 0.0755
vn 0.9969 -0.0521 0.0595
vn 0.9969 -0.0522 0.0582
vn 0.8436 0.4076 0.3495
vn -0.8438 0.4071 0.3495
vn -0.3483 0.4146 -0.8408
vn -0.6522 0.6832 -0.3284
vn -0.6710 0.5816 -0.4599
vn -0.6487 0.6941 -0.3120
vn -0.2297 0.6839 0.6925
vn -0.1489 0.5816 0.7998
vn -0.1414 0.5715 0.8083
vn 0.4532 0.5891 -0.6690
vn 0.3348 0.6803 -0.6520
vn 0.4634 0.5802 -0.6698
vn 0.2493 0.6974 0.6720
vn 0.1595 0.5841 0.7958
vn 0.2598 0.7096 0.6549
vn 0.6512 0.6987 -0.2960
vn 0.6755 0.5841 -0.4499
vn 0.6765 0.5726 -0.4631
vn -0.7874 0.5928 -0.1689
vn -0.6591 0.7055 -0.2606
vn -0.6418 0.7174 -0.2710
vn 0.9228 -0.0483 0.3822
vn -0.7463 0.0112 0.6655
vn -0.7464 0.0112 0.6654
vn -0.7909 0.0026 0.6119
vn 0.7334 0.1873 0.6535
vn 0.7216 0.1903 0.6657
vn 0.6652 0.1842 0.7236
vn -0.4131 0.0819 0.9070
vn -0.4174 0.0821 0.9050
vn 0.3859 -0.0076 -0.9225
vn 0.4830 0.0032 -0.8756
vn 0.3827 -0.0080 -0.9239
vn -0.9943 -0.0896 0.0576
vn -0.9946 -0.0901 0.0512
vn -0.9946 -0.0901 0.0510
vn -0.6564 -0.1370 -0.7419
vn -0.5864 -0.1375 -0.7983
vn -0.6579 -0.1392 -0.7401
vn 0.9183 0.1138 -0.3793
vn 0.9294 0.1159 -0.3505
vn 0.9179 0.1137 -0.3802
vn -0.9157 -0.1309 -0.3799
vn -0.9042 -0.1314 -0.4065
vn -0.9039 -0.1314 -0.4071
vn -0.0522 -0.0828 -0.9952
vn 0.0423 -0.0648 -0.9970
vn 0.0838 -0.0666 -0.9943
vn -0.9232 -0.0416 0.3820
vn -0.9331 -0.0452 0.3569
vn -0.9332 -0.0453 0.3565
vn -0.9974 -0.0307 0.0654
vn -0.9974 -0.0305 0.0660
vn -0.9987 -0.0382 0.0346
vn 0.9325 -0.0230 -0.3604
vn 0.9479 -0.0126 -0.3182
vn 0.9320 -0.0233 -0.3617
vn -0.7938 0.1302 0.5941
vn -0.7957 0.1268 0.5923
vn -0.7949 0.1290 0.5928
vn 0.8787 0.2025 0.4323
vn 0.8814 0.2014 0.4273
vn 0.9922 0.1053 0.0659
vn 0.9903 0.1098 0.0848
vn 0.9923 0.1052 0.0656
vn -0.8941 -0.1612 -0.4179
vn -0.8954 -0.1607 -0.4153
vn -0.8954 -0.1606 -0.4153
vn -0.6559 0.1742 0.7344
vn -0.5805 0.1995 0.7895
vn -0.5396 0.2082 0.8158
vn -0.5092 -0.2554 -0.8219
vn -0.5224 -0.2534 -0.8142
vn -0.5046 -0.2560 -0.8246
vn -0.9300 0.0576 0.3631
vn -0.9306 0.0578 0.3615
vn -0.9308 0.0579 0.3610
vn 0.6104 0.2709 0.7443
vn 0.6234 0.2696 0.7339
vn 0.6102 0.2709 0.7444
vn 0.5339 -0.1903 -0.8238
vn 0.5733 -0.1777 -0.7999
vn 0.5748 -0.1772 -0.7989
vn 0.1325 0.2931 0.9469
vn 0.1305 0.2929 0.9472
vn 0.1324 0.2931 0.9469
vn 0.1833 -0.2507 -0.9506
vn 0.1978 -0.2480 -0.9483
vn 0.2078 -0.2497 -0.9458
vn -0.1479 -0.2709 -0.9512
vn -0.1474 -0.2709 -0.9513
vn -0.0861 -0.3437 -0.9351
vn 0.6196 -0.0804 -0.7808
vn 0.6269 -0.0764 -0.7753
vn -0.9428 -0.1121 0.3141
vn -0.6849 -0.4387 -0.5817
vn -0.6750 -0.4405 -0.5919
vn -0.8301 0.0319 0.5567
vn -0.8704 -0.4105 -0.2720
vn -0.8246 0.0376 0.5645
vn -0.4014 -0.4048 -0.8216
vn 0.3517 -0.2175 -0.9105
vn 0.3688 -0.2107 -0.9053
vn -0.7908 -0.3847 -0.4760
vn -0.0407 -0.3584 -0.9327
vn -0.0238 -0.3547 -0.9347
vn -0.5870 0.1907 0.7868
vn -0.5570 0.1997 0.8062
vn -0.9613 -0.2266 0.1568
vn 0.9163 0.2684 -0.2972
vn 0.6810 0.5139 0.5217
vn 0.6642 0.5152 0.5417
vn 0.5573 -0.0822 -0.8263
vn 0.5487 -0.0876 -0.8314
vn 0.9295 0.3019 -0.2117
vn 0.8676 0.4694 0.1641
vn 0.3317 0.4770 0.8139
vn 0.8695 0.4679 0.1581
vn 0.3955 0.5415 0.7419
vn -0.2699 0.3069 0.9127
vn 0.4003 0.5423 0.7387
vn -0.9671 -0.2542 -0.0084
vn -0.4403 -0.4279 -0.7893
vn -0.4186 -0.4271 -0.8015
vn 0.6788 0.5406 0.4970
vn 0.0179 0.4161 0.9092
vn 0.6807 0.5404 0.4946
vn 0.2155 -0.2407 -0.9464
vn 0.8207 0.0493 -0.5692
vn 0.1670 -0.2597 -0.9511
vn -0.0141 0.4575 0.8891
vn -0.6269 0.1179 0.7702
vn -0.0067 0.4602 0.8878
vn 0.6495 -0.7604 -0.0000
vn 0.9842 0.1634 0.0676
vn 0.9829 0.1643 0.0830
vn 0.9829 0.1643 0.0829
vn -0.0000 -0.0000 1.0000
vn 0.0088 0.0095 0.9999
vn -0.6495 0.7603 -0.0000
vn -0.6495 0.7604 -0.0000
vn -0.0000 -0.0000 -1.0000
vn 0.8936 0.1853 0.4089
vn 0.8860 0.1845 0.4255
vn 0.8938 0.1853 0.4083
vn 0.0857 -0.1147 0.9897
vn -0.9322 0.0563 0.3575
vn -0.9477 0.0433 0.3161
vn -0.9477 0.0434 0.3163
vn -0.7990 0.1270 0.5877
vn -0.8275 0.1168 0.5491
vn -0.8286 0.1165 0.5477
vn 0.4292 0.9006 0.0682
vn -0.1421 0.1430 -0.9795
vn -0.4855 -0.8723 -0.0580
vn -0.9933 0.0166 0.1141
vn 0.0694 0.8709 0.4866
vn 0.9856 0.0166 -0.1681
vn -0.3625 -0.1177 -0.9245
vn -0.2571 -0.1052 -0.9607
vn -0.2553 -0.1050 -0.9611
vn -0.0771 -0.8377 -0.5407
vn -0.0771 -0.8377 -0.5406
vn 0.8999 0.0166 0.4358
vn -0.4361 0.0707 0.8971
vn -0.5001 0.0662 0.8634
vn -0.5061 0.0658 0.8600
vn 0.2021 0.8709 -0.4481
vn -0.9224 0.0166 -0.3860
vn -0.2245 -0.8377 0.4978
vn -0.8550 -0.4446 -0.2671
vn -0.2441 0.7186 -0.6512
vn 0.4644 -0.4483 -0.7638
vn 0.2928 -0.5289 -0.7966
vn 0.4681 -0.4463 -0.7627
vn 0.0532 -0.6110 -0.7899
vn 0.2337 0.7425 0.6277
vn 0.1304 0.7405 0.6592
vn 0.1270 0.7403 0.6601
vn -0.0851 0.7050 0.7041
vn -0.7473 0.3516 0.5638
vn 0.8833 -0.0357 -0.4675
vn 0.8383 -0.1076 -0.5345
vn 0.8840 -0.0343 -0.4662
vn -0.6497 -0.5790 -0.4926
vn 0.7155 -0.2574 -0.6495
vn -0.9813 -0.1802 0.0682
vn 0.6175 0.6731 0.4070
vn 0.9492 0.2745 -0.1536
vn -0.3964 0.5940 0.7000
vn -0.3760 -0.6448 -0.6655
vn -0.4716 -0.6294 -0.6176
vn -0.3741 -0.6451 -0.6663
vn -0.4785 -0.6886 0.5449
vn -0.1474 -0.2709 -0.9512
vn -0.1462 -0.2708 -0.9515
vn -0.1461 -0.2708 -0.9515
vn -0.8752 0.4274 -0.2265
vn 0.4708 0.6507 -0.5957
vn 0.8675 -0.4653 0.1757
vn 0.2358 0.9641 -0.1221
vn -0.9715 0.2356 -0.0239
vn -0.2369 -0.9537 0.1851
vn 0.9704 -0.2253 0.0869
vn -0.8660 0.0356 -0.4987
vn 0.1518 0.9687 -0.1964
vn 0.8950 -0.0492 0.4434
vn -0.1228 -0.9823 0.1412
vn -0.1228 -0.9823 0.1411
vn 0.8113 0.5157 0.2755
vn -0.2762 0.7544 -0.5954
vn -0.8430 -0.4872 -0.2280
vn 0.2444 -0.7259 0.6429
vn -0.9491 0.2614 -0.1754
vn 0.2538 0.9654 0.0596
vn 0.9595 -0.2582 0.1125
vn 0.0199 0.0182 -0.9996
vn 0.0117 0.0237 -0.9996
vn 0.0178 0.0195 -0.9997
vn -0.2434 -0.9621 -0.1226
vn 0.9390 0.3304 0.0951
vn 0.9390 0.3304 0.0952
vn -0.3034 0.9279 -0.2166
vn -0.9479 -0.3167 -0.0334
vn 0.0107 0.0253 0.9996
vn 0.0151 0.0212 0.9997
vn 0.2945 -0.9142 0.2783
vn -0.7517 -0.6564 0.0637
vn 0.0140 0.0218 0.9997
vn 0.0204 0.0177 0.9996
vn 0.6326 -0.6924 0.3470
vn 0.7398 0.6729 -0.0031
vn -0.6446 0.7088 -0.2864
vn 0.7347 0.4888 0.4704
vn 0.4627 -0.8678 0.1813
vn -0.7006 -0.4842 -0.5242
vn -0.4285 0.8724 -0.2351
vn -0.4285 0.8724 -0.2350
vn -0.2866 0.8059 0.5181
vn 0.4793 0.5896 -0.6501
vn 0.2340 -0.7991 -0.5538
vn -0.5318 -0.5828 0.6144
vn -0.2667 0.8117 0.5196
vn 0.2629 -0.7911 -0.5523
vn 0.7316 0.4768 0.4872
vn 0.7180 0.4867 0.4976
vn -0.7180 -0.4868 -0.4975
vn 0.6252 -0.7652 -0.1535
vn -0.7053 -0.5020 -0.5005
vn -0.7408 -0.6697 0.0519
vn 0.7562 0.6541 -0.0198
vn 0.9379 0.3385 0.0760
vn -0.9504 -0.3050 -0.0609
vn -0.9490 0.2728 -0.1580
vn 0.2934 0.9012 -0.3190
vn 0.9605 -0.2418 0.1376
vn 0.8165 0.5178 0.2554
vn -0.8362 -0.4843 -0.2571
vn -0.8721 0.0514 -0.4866
vn 0.8870 -0.0263 0.4610
vn 0.2240 0.9646 -0.1392
vn -0.2544 -0.9536 0.1607
vn -0.4876 -0.6733 0.5558
vn 0.4578 0.6732 -0.5807
vn 0.9087 0.0187 0.4170
vn -0.9104 0.0200 -0.4133
vn -0.9907 0.0187 0.1346
vn 0.9901 0.0200 -0.1387
vn 0.1062 -0.1110 0.9881
vn -0.1128 0.1488 -0.9824
vn 0.0054 0.0129 -0.9999
vn -0.8889 0.4114 0.2013
vn -0.8988 0.4158 0.1385
vn 0.8059 -0.5716 -0.1544
vn 0.0094 0.0256 0.9996
vn 0.0133 0.0230 0.9996
vn 0.0135 0.0223 -0.9997
vn 0.0131 0.0232 -0.9996
vn 0.0130 0.0232 -0.9996
vn 0.0128 0.0240 -0.9996
vn -0.9209 0.1158 -0.3721
vn 0.3734 -0.0606 0.9257
vn 0.9228 -0.0483 -0.3822
vn -0.3844 0.0813 0.9196
vn -0.9258 -0.0671 0.3720
vn 0.3914 -0.0680 -0.9177
vn 0.2248 0.1541 0.9621
vn 0.2303 0.1550 0.9607
vn 0.9841 0.1630 0.0707
vn 0.8973 0.1838 0.4013
vn -0.3800 -0.1191 -0.9173
vn -0.9920 0.1259 0.0057
vn -0.7420 0.1086 0.6615
vn -0.0561 0.0453 -0.9974
vn -0.6927 0.0992 -0.7144
vn 0.9958 -0.0501 0.0765
vn -0.6717 0.5715 -0.4713
vn -0.2389 0.6947 0.6785
vn 0.3204 0.6900 -0.6491
vn 0.1509 0.5726 0.8059
vn 0.6466 0.7110 -0.2764
vn -0.7975 0.5816 -0.1604
vn -0.7476 0.0109 0.6641
vn -0.7924 0.0023 0.6100
vn 0.7350 0.1870 0.6518
vn 0.6647 0.1926 0.7219
vn 0.6982 0.1919 0.6897
vn 0.6815 0.1882 0.7072
vn 0.6633 0.1838 0.7254
vn 0.4877 0.0037 -0.8730
vn -0.9943 -0.0896 0.0578
vn -0.6542 -0.1392 -0.7434
vn -0.6579 -0.1357 -0.7408
vn -0.5824 -0.1375 -0.8011
vn -0.6178 -0.1340 -0.7749
vn -0.6628 -0.1351 -0.7365
vn 0.9298 0.1160 -0.3493
vn -0.9159 -0.1309 -0.3794
vn -0.0559 -0.0837 -0.9949
vn -0.0500 -0.0816 -0.9954
vn -0.0448 -0.0761 -0.9961
vn 0.0901 -0.0661 -0.9937
vn -0.9231 -0.0416 0.3824
vn -0.9987 -0.0384 0.0338
vn 0.9484 -0.0122 -0.3167
vn -0.7930 0.1320 0.5947
vn -0.7931 0.1295 0.5951
vn 0.9903 0.1099 0.0852
vn -0.8940 -0.1612 -0.4180
vn -0.5359 0.2105 0.8176
vn -0.5372 0.2097 0.8170
vn -0.5451 0.2055 0.8128
vn -0.5468 0.2053 0.8117
vn -0.5421 0.2062 0.8146
vn -0.5785 0.1999 0.7908
vn -0.5210 -0.2528 -0.8153
vn -0.5087 -0.2555 -0.8222
vn -0.5230 -0.2533 -0.8138
vn -0.5225 -0.2540 -0.8139
vn -0.9298 0.0576 0.3636
vn 0.6237 0.2695 0.7337
vn 0.5325 -0.1907 -0.8246
vn 0.1325 0.2931 0.9468
vn 0.1296 0.2930 0.9473
vn 0.1294 0.2930 0.9473
vn 0.1322 0.2929 0.9470
vn 0.1827 -0.2508 -0.9506
vn 0.1872 -0.2499 -0.9500
vn 0.1695 -0.2512 -0.9530
vn 0.2106 -0.2496 -0.9452
vn -0.0894 -0.3445 -0.9345
vn -0.9419 -0.1104 0.3173
vn -0.8613 -0.4171 -0.2901
vn -0.4070 -0.4054 -0.8185
vn -0.7939 -0.3839 -0.4715
vn -0.5791 0.1939 0.7919
vn -0.8291 0.0589 0.5559
vn -0.7056 0.1446 0.6937
vn -0.9623 -0.2420 0.1240
vn -0.8248 -0.0172 0.5651
vn 0.9137 0.2613 -0.3113
vn 0.9315 0.3117 -0.1877
vn 0.3100 0.4715 0.8256
vn -0.2867 0.2979 0.9105
vn -0.9678 -0.2517 -0.0017
vn 0.0076 0.4121 0.9111
vn 0.3082 -0.2279 -0.9236
vn 0.2060 -0.2419 -0.9482
vn 0.8366 0.0614 -0.5444
vn 0.3424 -0.1872 -0.9207
vn -0.6429 0.1046 0.7588
vn -0.0067 0.4601 0.8878
vn 0.9833 0.1637 0.0794
vn 0.8857 0.1844 0.4261
vn -0.9339 0.0555 0.3531
vn -0.7983 0.1272 0.5886
vn -0.3640 -0.1179 -0.9239
vn -0.4316 0.0710 0.8993
vn -0.2440 0.7186 -0.6512
vn -0.2440 0.7187 -0.6511
vn -0.2442 0.7185 -0.6512
vn 0.2869 -0.5312 -0.7972
vn 0.2356 0.7425 0.6271
vn 0.8366 -0.1100 -0.5366
vn -0.4747 -0.6287 -0.6159
vn -0.1475 -0.2709 -0.9512
vn 0.0211 0.0179 -0.9996
vt 0.286102 0.928153
vt 0.289913 0.901939
vt 0.291520 0.928637
vt 0.542230 0.886720
vt 0.558765 0.925714
vt 0.557156 0.928584
vt 0.545769 0.854269
vt 0.549781 0.884666
vt 0.545527 0.884610
vt 0.542403 0.852592
vt 0.844918 0.355743
vt 0.849059 0.333107
vt 0.850086 0.354949
vt 0.690270 0.869330
vt 0.687339 0.865519
vt 0.690270 0.865504
vt 0.843916 0.331186
vt 0.867457 0.305726
vt 0.284494 0.901455
vt 0.291520 0.854835
vt 0.334381 0.875291
vt 0.331997 0.853308
vt 0.335779 0.853164
vt 0.214238 0.914132
vt 0.226884 0.942403
vt 0.225614 0.944333
vt 0.793411 0.150786
vt 0.778086 0.138054
vt 0.795317 0.147334
vt 0.214092 0.890167
vt 0.216872 0.912826
vt 0.137406 0.904604
vt 0.140553 0.883393
vt 0.141095 0.903419
vt 0.697490 0.865458
vt 0.699977 0.868206
vt 0.697490 0.868146
vt 0.136905 0.882077
vt 0.153988 0.856193
vt 0.612835 0.893755
vt 0.610441 0.866467
vt 0.612835 0.867210
vt 0.618725 0.866396
vt 0.616282 0.891613
vt 0.615123 0.867440
vt 0.605996 0.850223
vt 0.602249 0.826759
vt 0.606145 0.826786
vt 0.157353 0.913682
vt 0.173642 0.938897
vt 0.171973 0.940983
vt 0.886028 0.787901
vt 0.882566 0.808990
vt 0.882183 0.787877
vt 0.157507 0.890370
vt 0.160777 0.911981
vt 0.177054 0.908442
vt 0.180235 0.885829
vt 0.180405 0.907170
vt 0.888568 0.835414
vt 0.885718 0.837665
vt 0.885959 0.835397
vt 0.176961 0.884434
vt 0.192543 0.856553
vt 0.605658 0.801541
vt 0.365975 0.881029
vt 0.364278 0.897058
vt 0.363244 0.880931
vt 0.272804 0.897282
vt 0.281740 0.913006
vt 0.280782 0.914661
vt 0.369331 0.867269
vt 0.373472 0.852492
vt 0.371915 0.867206
vt 0.273319 0.881063
vt 0.274722 0.895679
vt 0.230322 0.892035
vt 0.232551 0.875862
vt 0.232987 0.891103
vt 0.703873 0.867550
vt 0.702145 0.865432
vt 0.703873 0.865731
vt 0.229909 0.874890
vt 0.242225 0.854953
vt 0.452239 0.885263
vt 0.454954 0.865743
vt 0.454954 0.885746
vt 0.650158 0.866118
vt 0.648294 0.884715
vt 0.647411 0.866562
vt 0.666816 0.883292
vt 0.668503 0.866387
vt 0.668503 0.883608
vt 0.294138 0.887369
vt 0.304289 0.905486
vt 0.303039 0.906956
vt 0.441619 0.880014
vt 0.439446 0.865872
vt 0.442240 0.865836
vt 0.295458 0.870889
vt 0.296567 0.886176
vt 0.308800 0.888340
vt 0.310040 0.873301
vt 0.310904 0.887936
vt 0.706013 0.865506
vt 0.707834 0.867360
vt 0.706013 0.867438
vt 0.307891 0.871890
vt 0.316800 0.855155
vt 0.642397 0.866136
vt 0.645189 0.885213
vt 0.643295 0.885073
vt 0.652378 0.866544
vt 0.655127 0.883080
vt 0.653262 0.883404
vt 0.349258 0.852982
vt 0.353478 0.872159
vt 0.349258 0.872194
vt 0.195864 0.909841
vt 0.210943 0.934678
vt 0.209179 0.936973
vt 0.356015 0.903938
vt 0.360047 0.887192
vt 0.360225 0.904123
vt 0.197385 0.885860
vt 0.199332 0.907784
vt 0.099604 0.913158
vt 0.102026 0.888788
vt 0.103538 0.911650
vt 0.692499 0.865526
vt 0.695279 0.868375
vt 0.692499 0.868434
vt 0.098020 0.887434
vt 0.115322 0.856796
vt 0.350140 0.907654
vt 0.357369 0.853461
vt 0.360225 0.853586
vt 0.122106 0.913344
vt 0.119093 0.887211
vt 0.122510 0.887322
vt 0.033743 0.922808
vt 0.051053 0.949127
vt 0.049324 0.951447
vt 0.924920 0.849449
vt 0.921308 0.827395
vt 0.925319 0.827115
vt 0.033650 0.897747
vt 0.037317 0.920820
vt 0.124786 0.888880
vt 0.124488 0.912012
vt 0.927265 0.801083
vt 0.929437 0.798290
vt 0.929987 0.800893
vt 0.133657 0.857332
vt 0.132575 0.855168
vt 0.376661 0.880380
vt 0.380777 0.844257
vt 0.380776 0.879590
vt 0.892347 0.887600
vt 0.917310 0.929671
vt 0.914683 0.932578
vt 0.265293 0.931393
vt 0.265667 0.899059
vt 0.270153 0.930709
vt 0.892991 0.851773
vt 0.897689 0.885604
vt 0.384616 0.847151
vt 0.384717 0.878582
vt 0.679575 0.865541
vt 0.676510 0.870276
vt 0.676510 0.866631
vt 0.398862 0.807488
vt 0.430551 0.893735
vt 0.435958 0.867087
vt 0.435958 0.895633
vt 0.260808 0.899743
vt 0.270153 0.854470
vt 0.805427 0.864423
vt 0.799400 0.900308
vt 0.800090 0.864346
vt 0.773664 0.866561
vt 0.795940 0.904939
vt 0.793442 0.906256
vt 0.815678 0.886827
vt 0.821395 0.854901
vt 0.821226 0.886628
vt 0.775310 0.840311
vt 0.778629 0.866774
vt 0.480565 0.874588
vt 0.484341 0.845165
vt 0.485756 0.871913
vt 0.681830 0.869485
vt 0.685090 0.865961
vt 0.685090 0.869920
vt 0.479127 0.844466
vt 0.502812 0.804862
vt 0.804737 0.900385
vt 0.809005 0.944981
vt 0.815847 0.855100
vt 0.827272 0.814592
vt 0.947843 0.045449
vt 0.958562 0.105741
vt 0.945327 0.106722
vt 0.854344 0.237246
vt 0.898096 0.279514
vt 0.893642 0.287433
vt 0.943389 0.842827
vt 0.948726 0.785808
vt 0.955739 0.844827
vt 0.854161 0.175373
vt 0.863546 0.227822
vt 0.833599 0.593383
vt 0.844152 0.517732
vt 0.845339 0.590032
vt 0.629677 0.874973
vt 0.621194 0.865870
vt 0.629677 0.865733
vt 0.832608 0.512076
vt 0.886724 0.422623
vt 0.952099 0.218944
vt 0.936515 0.246188
vt 0.927569 0.351616
vt 0.923328 0.245751
vt 0.465564 0.955702
vt 0.468237 0.901432
vt 0.475676 0.957373
vt 0.412242 0.345842
vt 0.393513 0.431976
vt 0.386436 0.433408
vt 0.920036 0.246338
vt 0.903171 0.297363
vt 0.910171 0.248372
vt 0.457169 0.294940
vt 0.421820 0.348567
vt 0.838964 0.824189
vt 0.846795 0.789196
vt 0.847638 0.826883
vt 0.657503 0.873519
vt 0.664465 0.865670
vt 0.664465 0.873344
vt 0.838270 0.781937
vt 0.877879 0.757549
vt 0.458125 0.899761
vt 0.475676 0.806518
vt 0.913036 0.295329
vt 0.913343 0.386778
vt 0.576316 0.490226
vt 0.582147 0.540470
vt 0.568050 0.491828
vt 0.647834 0.568268
vt 0.652151 0.640281
vt 0.646923 0.641708
vt 0.961296 0.881319
vt 0.970944 0.836573
vt 0.970004 0.881260
vt 0.671873 0.525003
vt 0.655930 0.570152
vt 0.905661 0.160071
vt 0.911875 0.112574
vt 0.913784 0.156808
vt 0.973047 0.787707
vt 0.966953 0.782084
vt 0.972861 0.782045
vt 0.903753 0.110291
vt 0.940876 0.050076
vt 0.590412 0.538869
vt 0.594342 0.614164
vt 0.962235 0.836631
vt 0.909894 0.444407
vt 0.911243 0.559324
vt 0.892624 0.556314
vt 0.936139 0.650288
vt 0.954145 0.523631
vt 0.955167 0.651608
vt 0.273618 0.402168
vt 0.201649 0.493191
vt 0.260126 0.384084
vt 0.956894 0.756067
vt 0.937880 0.755687
vt 0.802080 0.368241
vt 0.834151 0.263717
vt 0.824507 0.368125
vt 0.907857 0.680700
vt 0.923155 0.778312
vt 0.895704 0.684771
vt 0.829957 0.165606
vt 0.826417 0.152000
vt 0.839285 0.151933
vt 0.901124 0.574698
vt 0.904395 0.666120
vt 0.902917 0.660012
vt 0.197867 0.505605
vt 0.141658 0.576899
vt 0.639955 0.874396
vt 0.632336 0.865712
vt 0.639955 0.865705
vt 0.129389 0.591515
vt 0.056991 0.659563
vt 0.052220 0.652580
vt 0.941470 0.522752
vt 0.959900 0.423496
vt 0.839285 0.052729
vt 0.288016 0.078103
vt 0.272346 0.133425
vt 0.273925 0.075886
vt 0.700721 0.149012
vt 0.742535 0.246951
vt 0.731229 0.249369
vt 0.884235 0.385220
vt 0.889974 0.315544
vt 0.892342 0.384875
vt 0.444605 0.889812
vt 0.449896 0.865580
vt 0.449896 0.889487
vt 0.569142 0.121484
vt 0.571542 0.219106
vt 0.562167 0.217841
vt 0.599950 0.125738
vt 0.582707 0.218637
vt 0.592396 0.127257
vt 0.664323 0.093398
vt 0.619715 0.112768
vt 0.617618 0.103384
vt 0.282705 0.140312
vt 0.281415 0.245138
vt 0.266737 0.243733
vt 0.257773 0.242323
vt 0.311179 0.080320
vt 0.347472 0.096029
vt 0.301615 0.136015
vt 0.716768 0.252756
vt 0.681331 0.147512
vt 0.567592 0.067558
vt 0.516039 0.086958
vt 0.516690 0.077797
vt 0.704822 0.084274
vt 0.766951 0.079614
vt 0.712989 0.140998
vt 0.212058 0.079640
vt 0.212877 0.070044
vt 0.687100 0.088063
vt 0.402328 0.885568
vt 0.410768 0.867859
vt 0.410768 0.887923
vt 0.366141 0.096947
vt 0.348314 0.086164
vt 0.366983 0.087082
vt 0.742514 0.341713
vt 0.737076 0.319663
vt 0.075354 0.856072
vt 0.065450 0.925275
vt 0.067490 0.855947
vt 0.581952 0.122295
vt 0.590621 0.070666
vt 0.526612 0.879094
vt 0.520102 0.811556
vt 0.529184 0.811593
vt 0.453332 0.858520
vt 0.404023 0.851452
vt 0.453332 0.801734
vt 0.826752 0.424057
vt 0.797796 0.488573
vt 0.816069 0.419468
vt 0.793170 0.487459
vt 0.810136 0.418934
vt 0.311552 0.142808
vt 0.297239 0.246166
vt 0.292465 0.245931
vt 0.297845 0.260732
vt 0.293196 0.261515
vt 0.673533 0.155491
vt 0.576634 0.808732
vt 0.569407 0.867829
vt 0.565954 0.801421
vt 0.559442 0.122804
vt 0.552854 0.214602
vt 0.585775 0.809529
vt 0.597180 0.870224
vt 0.585921 0.872469
vt 0.514564 0.801069
vt 0.871613 0.303630
vt 0.881867 0.315889
vt 0.075354 0.937628
vt 0.073314 0.925399
vt 0.871568 0.385279
vt 0.622670 0.126066
vt 0.247881 0.907069
vt 0.257944 0.853404
vt 0.257944 0.914027
vt 0.507391 0.880923
vt 0.517530 0.879057
vt 0.538414 0.880923
vt 0.537785 0.801164
vt 0.054892 0.855161
vt 0.579927 0.871947
vt 0.715625 0.323742
vt 0.721692 0.348911
vt 0.732334 0.459695
vt 0.799267 0.421553
vt 0.783033 0.501718
vt 0.774956 0.534820
vt 0.735391 0.321120
vt 0.722139 0.324160
vt 0.283808 0.470608
vt 0.548215 0.415575
vt 0.539781 0.417997
vt 0.526597 0.422154
vt 0.556128 0.228024
vt 0.277241 0.468644
vt 0.272727 0.374450
vt 0.532992 0.420063
vt 0.284602 0.283081
vt 0.294594 0.468119
vt 0.552096 0.414517
vt 0.540275 0.427949
vt 0.490325 0.580895
vt 0.288855 0.645326
vt 0.730034 0.469075
vt 0.726137 0.472270
vt 0.785302 0.535826
vt 0.792121 0.630583
vt 0.781486 0.534646
vt 0.792638 0.540308
vt 0.795442 0.631501
vt 0.483072 0.582266
vt 0.477256 0.583714
vt 0.742088 0.545452
vt 0.746754 0.637279
vt 0.737751 0.481409
vt 0.471805 0.585506
vt 0.507219 0.484978
vt 0.548233 0.425487
vt 0.544080 0.427383
vt 0.756793 0.468647
vt 0.763547 0.643013
vt 0.752674 0.464872
vt 0.302882 0.642958
vt 0.294124 0.645999
vt 0.754486 0.550076
vt 0.751337 0.541845
vt 0.298034 0.531838
vt 0.306239 0.462367
vt 0.305041 0.524270
vt 0.302723 0.464578
vt 0.309513 0.639458
vt 0.346148 0.774943
vt 0.345086 0.775699
vt 0.430123 0.724178
vt 0.429132 0.723414
vt 0.498609 0.580096
vt 0.493673 0.580427
vt 0.312394 0.637452
vt 0.348541 0.773833
vt 0.427560 0.722311
vt 0.426859 0.721964
vt 0.741054 0.691195
vt 0.718759 0.789061
vt 0.801925 0.634968
vt 0.806750 0.748289
vt 0.803721 0.749830
vt 0.306394 0.676364
vt 0.343602 0.777361
vt 0.801896 0.751497
vt 0.766951 0.646116
vt 0.721678 0.790586
vt 0.801279 0.752433
vt 0.314247 0.670215
vt 0.748957 0.686672
vt 0.807193 0.381620
vt 0.801778 0.384359
vt 0.796113 0.503672
vt 0.907559 0.435845
vt 0.931083 0.437344
vt 0.947883 0.756536
vt 0.943442 0.758524
vt 0.794053 0.502728
vt 0.789647 0.501686
vt 0.733689 0.476381
vt 0.677478 0.531810
vt 0.541239 0.441966
vt 0.727636 0.489149
vt 0.740784 0.637192
vt 0.960813 0.959239
vt 0.935993 0.225416
vt 0.492854 0.272788
vt 0.088252 0.949694
vt 0.084825 0.857863
vt 0.094969 0.856269
vt 0.877879 0.899529
vt 0.294268 0.284352
vt 0.859814 0.914300
vt 0.832624 0.831562
vt 0.898096 0.061418
vt 0.884225 0.060157
vt 0.724005 0.348970
vt 0.743491 0.460731
vt 0.938245 0.962617
vt 0.886724 0.710443
vt 0.882655 0.060922
vt 0.845186 0.168701
vt 0.398151 0.766746
vt 0.397378 0.766108
vt 0.670709 0.868167
vt 0.673674 0.865772
vt 0.674241 0.868378
vt 0.365315 0.817811
vt 0.350545 0.773467
vt 0.366983 0.817252
vt 0.824562 0.790827
vt 0.823636 0.791814
vt 0.724213 0.791183
vt 0.725472 0.791227
vt 0.710336 0.832127
vt 0.708268 0.831322
vt 0.364349 0.818729
vt 0.432162 0.725861
vt 0.399052 0.767556
vt 0.825711 0.790243
vt 0.809494 0.748431
vt 0.709375 0.831901
vt 0.396406 0.765399
vt 0.793595 0.815649
vt 0.780222 0.843486
vt 0.306003 0.536246
vt 0.824057 0.934640
vt 0.502812 0.907769
vt 0.812626 0.819701
vt 0.805076 0.814968
vt 0.913050 0.803245
vt 0.898403 0.853759
vt 0.319625 0.854950
vt 0.327201 0.909053
vt 0.322450 0.909627
vt 0.393331 0.929672
vt 0.391704 0.930393
vt 0.044890 0.855354
vt 0.037330 0.898529
vt 0.929987 0.893915
vt 0.920909 0.849729
vt 0.129508 0.956126
vt 0.133657 0.954810
vt 0.126444 0.955678
vt 0.118689 0.913232
vt 0.210943 0.856851
vt 0.206369 0.854529
vt 0.423963 0.892938
vt 0.422875 0.866501
vt 0.426940 0.865973
vt 0.115322 0.940103
vt 0.415122 0.867588
vt 0.419600 0.893832
vt 0.415390 0.893808
vt 0.304289 0.854324
vt 0.301056 0.853184
vt 0.438311 0.897977
vt 0.442240 0.898498
vt 0.316800 0.904716
vt 0.144759 0.582573
vt 0.200176 0.510718
vt 0.136701 0.602219
vt 0.313929 0.905527
vt 0.307113 0.889162
vt 0.281740 0.855136
vt 0.278895 0.853791
vt 0.369334 0.893947
vt 0.373472 0.894234
vt 0.242225 0.915524
vt 0.902008 0.568248
vt 0.362579 0.853327
vt 0.167372 0.855392
vt 0.161004 0.891250
vt 0.896742 0.661995
vt 0.898190 0.667973
vt 0.888568 0.749505
vt 0.882308 0.749423
vt 0.186537 0.943777
vt 0.192543 0.943758
vt 0.606907 0.887082
vt 0.602101 0.850197
vt 0.223531 0.858319
vt 0.216813 0.891526
vt 0.824821 0.167398
vt 0.153988 0.935845
vt 0.329713 0.910630
vt 0.335780 0.913918
vt 0.338423 0.890615
vt 0.346804 0.852674
vt 0.346804 0.893478
vt 0.489680 0.284825
vt 0.550247 0.250694
vt 0.461942 0.303471
vt 0.561651 0.807970
vt 0.555757 0.804256
vt 0.867457 0.388483
vt 0.882252 0.846987
vt 0.889247 0.901199
vt 0.884958 0.900181
vt 0.550023 0.854325
vt 0.687339 0.869345
vt 0.864907 0.303465
vt 0.287844 0.854507
vt 0.561651 0.925752
vt 0.330598 0.875435
vt 0.776181 0.141506
vt 0.699977 0.865518
vt 0.152191 0.854336
vt 0.609307 0.892661
vt 0.618725 0.890905
vt 0.886411 0.809014
vt 0.888326 0.837681
vt 0.190950 0.854577
vt 0.603016 0.801523
vt 0.367009 0.897156
vt 0.370888 0.852555
vt 0.275230 0.881244
vt 0.702145 0.867252
vt 0.240922 0.853554
vt 0.453112 0.865415
vt 0.650158 0.884413
vt 0.666816 0.866071
vt 0.438825 0.880050
vt 0.297803 0.871519
vt 0.707834 0.865428
vt 0.315709 0.853581
vt 0.645189 0.866342
vt 0.655127 0.866066
vt 0.353478 0.852948
vt 0.355837 0.887007
vt 0.200775 0.886449
vt 0.695279 0.865467
vt 0.113293 0.854747
vt 0.353003 0.907630
vt 0.926716 0.798480
vt 0.130257 0.855093
vt 0.376662 0.845047
vt 0.679575 0.869186
vt 0.397000 0.804172
vt 0.432289 0.865799
vt 0.266856 0.854934
vt 0.681830 0.865526
vt 0.500205 0.802894
vt 0.812626 0.945033
vt 0.823508 0.814727
vt 0.961078 0.044468
vt 0.936376 0.783809
vt 0.863628 0.172666
vt 0.621194 0.875111
vt 0.881070 0.415481
vt 0.961078 0.218279
vt 0.936515 0.351913
vt 0.657503 0.865844
vt 0.873706 0.751742
vt 0.468816 0.805385
vt 0.920036 0.385398
vt 0.967138 0.787746
vt 0.936833 0.046276
vt 0.599950 0.613078
vt 0.218428 0.502229
vt 0.959900 0.758150
vt 0.958166 0.757095
vt 0.950083 0.756534
vt 0.814832 0.263817
vt 0.931083 0.775657
vt 0.825410 0.162975
vt 0.898437 0.571244
vt 0.904756 0.571737
vt 0.201543 0.506889
vt 0.196528 0.509404
vt 0.139339 0.577975
vt 0.632336 0.874403
vt 0.951632 0.422923
vt 0.830891 0.052773
vt 0.444605 0.865906
vt 0.587661 0.217641
vt 0.764850 0.070212
vt 0.402328 0.865505
vt 0.736842 0.346127
vt 0.404138 0.861065
vt 0.806651 0.492555
vt 0.318840 0.143166
vt 0.707107 0.255130
vt 0.597180 0.804313
vt 0.892342 0.302748
vt 0.055209 0.937309
vt 0.245419 0.854270
vt 0.725100 0.460593
vt 0.789751 0.487553
vt 0.551085 0.228586
vt 0.548286 0.250707
vt 0.269244 0.375676
vt 0.271627 0.403382
vt 0.272430 0.402586
vt 0.285432 0.260462
vt 0.540996 0.436192
vt 0.749241 0.542976
vt 0.745941 0.554039
vt 0.749907 0.552503
vt 0.755964 0.639139
vt 0.734315 0.484097
vt 0.506333 0.482569
vt 0.504972 0.486626
vt 0.303221 0.523272
vt 0.308515 0.527121
vt 0.316314 0.633617
vt 0.744209 0.686506
vt 0.742768 0.685389
vt 0.717768 0.787025
vt 0.742748 0.692394
vt 0.808971 0.641569
vt 0.310978 0.669679
vt 0.307465 0.669211
vt 0.342999 0.779442
vt 0.313053 0.677207
vt 0.747088 0.692680
vt 0.824130 0.388240
vt 0.821216 0.384699
vt 0.816697 0.382379
vt 0.802475 0.506786
vt 0.925868 0.418217
vt 0.937210 0.764745
vt 0.542649 0.441344
vt 0.973047 0.967558
vt 0.969847 0.964230
vt 0.959182 0.958804
vt 0.940876 0.221109
vt 0.930194 0.231926
vt 0.552404 0.422152
vt 0.499333 0.278722
vt 0.483761 0.278999
vt 0.094969 0.951507
vt 0.093170 0.950403
vt 0.078956 0.952209
vt 0.867455 0.904491
vt 0.298804 0.283776
vt 0.862585 0.909273
vt 0.858057 0.920480
vt 0.955739 0.971158
vt 0.950516 0.964264
vt 0.935997 0.963435
vt 0.871547 0.728591
vt 0.869700 0.047610
vt 0.873485 0.053971
vt 0.673226 0.869723
vt 0.671982 0.869764
vt 0.671278 0.869251
vt 0.670945 0.866880
vt 0.671462 0.866073
vt 0.672633 0.865520
vt 0.674241 0.866853
vt 0.434538 0.727997
vt 0.826752 0.790297
vt 0.787871 0.812542
vt 0.789550 0.813771
vt 0.795940 0.816108
vt 0.308668 0.531470
vt 0.827272 0.934339
vt 0.818936 0.936566
vt 0.494983 0.912424
vt 0.908183 0.800774
vt 0.917310 0.802270
vt 0.327201 0.853370
vt 0.398862 0.932705
vt 0.385556 0.933196
vt 0.051053 0.856520
vt 0.923346 0.895075
vt 0.123846 0.956047
vt 0.428028 0.894383
vt 0.422064 0.894383
vt 0.109960 0.943421
vt 0.413379 0.866567
vt 0.419600 0.865563
vt 0.136784 0.582470
vt 0.138281 0.585328
vt 0.311700 0.907238
vt 0.238289 0.918018
vt 0.367010 0.853088
vt 0.173642 0.854795
vt 0.600697 0.887082
vt 0.221519 0.856481
vt 0.226884 0.854609
vt 0.824812 0.170029
vt 0.148550 0.939196
vt 0.341564 0.853872
vt 0.861375 0.394311
vt 0.889247 0.844666
s 1
usemtl _11_tree
f 3/1/1 5/2/1 1/3/1
f 8/4/2 11/5/3 12/6/4
f 4/7/5 6/8/5 7/9/5
f 3/10/6 7/9/6 8/4/6
f 1/11/7 6/12/7 2/13/7
f 11/14/8 9/15/8 12/16/8
f 5/17/9 10/18/10 6/12/11
f 8/19/12 9/20/12 5/2/12
f 6/8/13 11/5/13 7/9/13
f 13/21/14 20/22/15 17/23/15
f 20/24/16 23/25/17 24/26/18
f 14/27/19 19/28/19 16/29/19
f 15/30/20 19/31/20 20/24/20
f 13/32/21 18/33/22 14/34/21
f 22/35/23 24/36/23 23/37/23
f 17/38/24 22/39/25 18/33/26
f 17/40/27 24/41/27 21/42/27
f 18/43/28 23/44/29 19/45/28
f 25/46/30 32/47/30 29/48/30
f 32/49/31 35/50/32 36/51/33
f 26/52/34 31/53/34 28/54/34
f 27/55/35 31/56/35 32/49/35
f 25/57/36 30/58/36 26/59/36
f 34/60/37 36/61/37 35/62/37
f 29/63/38 34/64/39 30/58/40
f 32/47/41 33/65/41 29/48/41
f 31/53/42 34/60/42 35/62/42
f 39/66/43 41/67/43 37/68/43
f 44/69/44 47/70/45 48/71/46
f 38/72/47 43/73/47 40/74/47
f 39/75/48 43/76/48 44/69/48
f 37/77/49 42/78/49 38/79/49
f 47/80/50 45/81/50 48/82/50
f 41/83/51 46/84/52 42/78/53
f 44/85/54 45/86/54 41/87/54
f 42/88/55 47/89/55 43/90/55
f 51/91/56 53/92/56 49/93/56
f 56/94/57 59/95/58 60/96/59
f 52/97/60 54/98/60 55/99/60
f 51/100/61 55/101/61 56/94/61
f 49/102/62 54/103/62 50/104/62
f 58/105/63 60/106/63 59/107/63
f 53/108/64 58/109/65 54/103/66
f 53/110/67 60/111/67 57/112/67
f 55/113/68 58/114/68 59/115/68
f 61/116/69 68/117/69 65/118/69
f 68/119/70 71/120/71 72/121/72
f 62/122/73 67/123/73 64/124/73
f 63/125/74 67/126/74 68/119/74
f 61/127/75 66/128/75 62/129/75
f 71/130/76 69/131/76 72/132/77
f 65/133/78 70/134/79 66/128/80
f 68/117/81 69/135/81 65/118/81
f 67/123/82 70/136/82 71/137/82
f 73/138/83 80/139/83 77/140/83
f 80/141/84 83/142/85 84/143/86
f 76/144/87 78/145/87 79/146/87
f 75/147/88 79/148/88 80/141/88
f 73/138/89 78/149/89 74/150/89
f 82/151/90 84/152/90 83/153/90
f 77/140/91 82/154/92 78/149/93
f 80/139/94 81/155/94 77/140/94
f 79/146/95 82/151/96 83/153/96
f 87/156/97 89/157/97 85/158/97
f 92/159/98 95/160/99 96/161/100
f 86/162/101 91/163/101 88/164/101
f 87/165/102 91/166/102 92/159/102
f 85/158/103 90/167/103 86/168/103
f 94/169/104 96/170/104 95/171/104
f 89/157/105 94/172/106 90/167/107
f 92/173/108 93/174/108 89/175/108
f 90/176/109 95/177/110 91/163/109
f 99/178/111 101/179/111 97/180/111
f 104/181/112 107/182/113 108/183/114
f 98/184/115 103/185/115 100/186/115
f 99/187/116 103/188/116 104/181/116
f 97/189/117 102/190/117 98/191/117
f 106/192/118 108/193/118 107/194/118
f 101/195/119 106/196/120 102/190/121
f 104/197/122 105/198/122 101/179/122
f 102/199/123 107/200/123 103/185/123
f 109/201/124 116/202/124 113/203/124
f 116/204/125 119/205/126 120/206/127
f 110/207/128 115/208/129 112/209/128
f 111/210/130 115/211/130 116/204/130
f 109/212/131 114/213/131 110/214/131
f 119/215/132 117/216/132 120/217/132
f 113/218/133 118/219/134 114/213/135
f 116/202/136 117/220/136 113/203/136
f 114/221/137 119/222/137 115/223/137
f 123/224/138 125/225/138 121/226/138
f 128/227/139 131/228/140 132/229/141
f 122/230/142 127/231/142 124/232/142
f 123/233/143 127/234/143 128/227/143
f 121/235/144 126/236/144 122/237/144
f 130/238/145 132/239/145 131/240/145
f 125/241/146 130/242/147 126/236/148
f 128/243/149 129/244/149 125/225/149
f 126/245/150 131/246/150 127/231/150
f 135/247/151 137/248/151 133/249/151
f 140/250/152 143/251/153 144/252/154
f 134/253/155 139/254/155 136/255/155
f 135/256/156 139/257/156 140/250/156
f 133/258/157 138/259/157 134/260/157
f 143/261/158 141/262/158 144/263/158
f 137/264/159 142/265/160 138/259/161
f 140/266/162 141/267/162 137/248/162
f 138/268/163 143/261/163 139/254/163
f 146/269/164 150/270/165 151/271/166
f 151/272/167 152/273/167 148/274/167
f 257/275/168 149/276/169 145/277/170
f 267/278/171 146/279/171 148/274/172
f 145/280/173 150/281/173 147/282/173
f 154/283/174 159/284/175 155/285/176
f 344/286/177 153/287/178 154/288/179
f 335/289/180 337/290/181 339/291/182
f 149/276/183 330/292/184 341/293/185
f 157/294/186 159/295/186 158/296/186
f 153/297/187 156/298/188 157/299/188
f 155/300/189 156/301/189 152/273/189
f 153/287/190 158/302/190 154/288/190
f 174/303/191 197/304/191 160/305/191
f 165/306/192 210/307/193 178/308/193
f 203/309/194 224/310/194 200/311/194
f 223/312/195 185/313/195 184/314/195
f 205/315/196 214/316/197 217/317/198
f 200/318/199 215/319/199 203/320/199
f 166/321/200 225/322/201 189/323/202
f 175/324/203 218/325/204 183/326/205
f 175/324/206 209/327/207 197/304/208
f 172/328/209 231/329/210 206/330/211
f 165/306/212 213/331/213 201/332/214
f 170/333/215 229/334/216 193/335/217
f 162/336/218 221/337/219 198/338/220
f 160/305/221 223/339/222 184/340/223
f 164/341/224 201/332/224 166/321/224
f 206/330/225 174/303/223 172/328/223
f 225/342/217 190/343/217 189/344/217
f 229/345/226 194/346/226 193/347/226
f 210/307/227 291/348/228 287/349/228
f 207/350/229 228/351/229 204/352/229
f 202/353/230 170/333/230 168/354/230
f 196/355/231 220/356/231 222/357/231
f 168/358/232 227/359/233 202/360/234
f 209/361/235 264/362/236 208/363/237
f 198/338/238 164/341/202 162/336/202
f 208/363/239 265/364/240 211/365/241
f 207/366/242 216/367/242 219/368/242
f 219/368/243 283/369/244 282/370/245
f 214/316/246 203/320/247 215/319/248
f 213/331/249 200/371/250 201/332/251
f 207/366/252 218/325/253 206/330/254
f 199/372/255 210/373/256 198/374/257
f 204/375/258 217/317/259 216/376/260
f 196/377/261 209/378/262 208/379/263
f 221/380/264 222/357/264 220/356/264
f 227/381/265 224/310/265 226/382/265
f 231/383/266 228/351/266 230/384/266
f 202/385/267 226/382/268 203/309/269
f 201/332/270 224/386/271 225/322/272
f 230/387/273 206/388/274 231/389/275
f 198/390/276 220/356/277 199/391/278
f 197/392/279 222/357/280 223/393/281
f 228/351/282 205/394/283 204/352/284
f 196/377/285 211/395/285 199/372/285
f 289/396/286 290/397/287 181/398/288
f 210/399/289 266/400/290 187/401/291
f 213/331/213 288/402/292 286/403/293
f 218/325/294 192/404/295 183/326/296
f 214/316/297 179/405/298 180/406/299
f 217/317/300 177/407/301 284/408/302
f 183/326/303 188/409/304 261/410/305
f 217/317/306 180/406/307 176/411/308
f 218/325/309 278/412/310 173/413/311
f 215/319/312 182/414/313 179/405/314
f 180/406/315 271/415/316 232/416/317
f 192/404/318 238/417/319 188/409/320
f 181/398/321 273/418/322 274/419/323
f 191/420/324 236/421/325 186/422/324
f 188/423/326 239/424/327 191/420/328
f 176/411/329 233/425/330 163/426/331
f 313/427/332 234/428/333 269/429/334
f 176/411/335 161/430/336 304/431/337
f 179/405/338 274/432/339 275/433/340
f 186/434/341 237/435/342 187/436/343
f 192/404/344 167/437/345 240/438/346
f 187/436/347 315/439/348 312/440/349
f 173/413/350 307/441/351 167/437/352
f 177/442/353 308/443/354 171/444/353
f 169/445/355 242/446/356 245/447/357
f 232/416/358 249/448/359 246/449/360
f 234/450/361 249/448/362 235/451/363
f 161/452/364 243/453/365 242/446/366
f 163/426/367 247/454/368 243/455/369
f 234/428/370 325/456/371 255/457/372
f 238/458/373 254/459/374 252/460/375
f 240/438/376 317/461/377 244/462/378
f 238/458/379 253/463/380 239/424/381
f 236/464/382 251/465/383 237/435/384
f 233/425/385 246/449/386 247/454/387
f 239/424/388 250/466/389 236/421/390
f 169/445/391 244/462/392 319/467/393
f 237/435/394 255/457/395 323/468/396
f 263/469/397 261/470/397 147/282/397
f 258/471/398 188/423/399 191/420/400
f 266/472/401 147/473/402 146/269/164
f 259/474/403 260/475/404 146/279/404
f 261/410/405 257/275/168 145/277/170
f 259/476/406 186/422/407 260/477/408
f 268/478/409 136/479/409 135/256/409
f 272/480/410 235/451/411 232/416/412
f 277/481/413 234/428/414 235/482/415
f 277/483/416 134/253/416 136/255/416
f 270/484/417 133/258/417 134/260/417
f 274/432/418 135/247/418 133/249/418
f 284/408/419 347/485/419 123/233/419
f 279/486/420 122/487/420 124/488/420
f 278/489/421 121/235/421 122/237/421
f 279/490/422 177/442/423 171/444/424
f 283/491/425 123/492/426 121/235/426
f 291/493/427 111/210/427 287/494/427
f 292/495/428 195/496/429 181/398/430
f 292/497/431 110/207/431 112/209/431
f 290/498/432 109/212/432 110/214/432
f 288/499/433 111/210/433 109/500/433
f 249/448/434 297/501/434 298/502/434
f 303/503/435 302/504/435 294/505/435
f 243/453/436 294/506/437 242/446/438
f 243/453/439 247/507/439 296/508/439
f 253/463/440 301/509/441 299/510/442
f 250/511/443 253/512/443 299/513/443
f 251/465/444 303/514/444 255/457/444
f 245/447/445 295/515/446 244/462/447
f 246/449/448 249/448/448 298/502/448
f 245/447/449 242/446/449 294/506/449
f 248/516/450 303/517/450 297/501/450
f 252/460/451 302/518/451 301/509/451
f 244/519/452 302/518/452 254/459/452
f 250/511/453 300/520/453 251/465/453
f 246/449/454 296/521/455 247/454/456
f 309/522/457 100/523/457 99/187/457
f 305/524/458 161/452/459 169/445/460
f 306/525/461 98/184/461 100/186/461
f 305/526/462 97/189/462 98/191/462
f 310/527/463 97/180/463 307/528/463
f 316/529/464 88/530/464 87/165/464
f 314/531/465 86/532/465 88/533/465
f 311/534/466 85/158/466 86/168/466
f 312/535/467 87/156/467 85/158/467
f 319/536/468 76/537/468 75/147/468
f 318/538/469 74/539/469 76/144/469
f 321/540/470 74/150/470 317/541/470
f 320/542/471 75/543/472 73/138/472
f 326/544/473 63/125/473 323/545/473
f 327/546/474 62/547/474 64/548/474
f 325/549/475 61/127/475 62/129/475
f 322/550/476 63/551/476 61/552/476
f 329/553/477 51/100/477 328/554/477
f 331/555/478 52/97/478 329/556/478
f 331/557/479 49/102/479 50/104/479
f 342/558/480 329/559/481 152/560/482
f 330/561/483 51/562/483 49/102/483
f 335/563/484 39/75/485 332/564/484
f 333/565/486 40/74/486 335/566/486
f 333/567/487 37/77/487 38/79/487
f 334/568/488 151/271/489 150/270/488
f 334/569/490 39/66/490 37/68/490
f 336/570/491 28/571/491 27/55/491
f 336/572/492 338/573/493 155/285/176
f 337/574/494 28/54/494 339/575/494
f 338/576/495 26/59/495 337/577/495
f 338/578/496 27/579/496 25/46/496
f 343/580/497 16/581/497 15/30/497
f 345/582/498 14/27/498 16/29/498
f 341/583/499 13/32/499 14/34/499
f 340/584/500 13/21/501 342/585/500
f 348/586/502 3/587/502 349/588/502
f 348/589/419 280/590/419 124/591/419
f 346/592/503 4/7/503 348/593/503
f 346/594/504 1/11/504 2/13/504
f 347/595/505 3/596/505 1/597/505
f 3/1/1 8/19/1 5/2/1
f 8/4/2 7/9/506 11/5/3
f 4/7/5 2/598/5 6/8/5
f 3/10/6 4/7/6 7/9/6
f 1/11/7 5/17/7 6/12/7
f 11/14/8 10/599/8 9/15/8
f 5/17/9 9/600/507 10/18/10
f 8/19/12 12/601/12 9/20/12
f 6/8/13 10/602/13 11/5/13
f 13/21/14 15/603/14 20/22/15
f 20/24/16 19/31/508 23/25/17
f 14/27/19 18/604/19 19/28/19
f 15/30/20 16/581/509 19/31/20
f 13/32/21 17/38/510 18/33/22
f 22/35/23 21/605/511 24/36/23
f 17/38/24 21/606/512 22/39/25
f 17/40/27 20/607/27 24/41/27
f 18/43/28 22/608/29 23/44/29
f 25/46/30 27/579/30 32/47/30
f 32/49/31 31/56/513 35/50/32
f 26/52/34 30/609/34 31/53/34
f 27/55/35 28/571/35 31/56/35
f 25/57/36 29/63/36 30/58/36
f 34/60/37 33/610/37 36/61/37
f 29/63/38 33/611/514 34/64/39
f 32/47/41 36/612/41 33/65/41
f 31/53/42 30/609/42 34/60/42
f 39/66/43 44/613/43 41/67/43
f 44/69/44 43/76/515 47/70/45
f 38/72/47 42/614/47 43/73/47
f 39/75/48 40/615/48 43/76/48
f 37/77/49 41/83/49 42/78/49
f 47/80/50 46/616/50 45/81/50
f 41/83/51 45/617/516 46/84/52
f 44/85/54 48/618/54 45/86/54
f 42/88/55 46/619/55 47/89/55
f 51/91/56 56/620/56 53/92/56
f 56/94/57 55/101/517 59/95/58
f 52/97/60 50/621/60 54/98/60
f 51/100/61 52/622/61 55/101/61
f 49/102/62 53/108/62 54/103/62
f 58/105/63 57/623/518 60/106/63
f 53/108/64 57/624/519 58/109/65
f 53/110/67 56/625/67 60/111/67
f 55/113/68 54/626/68 58/114/68
f 61/116/69 63/627/69 68/117/69
f 68/119/70 67/126/520 71/120/71
f 62/122/73 66/628/73 67/123/73
f 63/125/74 64/629/74 67/126/74
f 61/127/75 65/133/75 66/128/75
f 71/130/76 70/630/76 69/131/76
f 65/133/78 69/631/521 70/134/79
f 68/117/81 72/632/81 69/135/81
f 67/123/82 66/628/82 70/136/82
f 73/138/83 75/543/83 80/139/83
f 80/141/84 79/148/522 83/142/85
f 76/144/87 74/539/87 78/145/87
f 75/147/88 76/537/88 79/148/88
f 73/138/89 77/140/89 78/149/89
f 82/151/90 81/633/90 84/152/90
f 77/140/91 81/155/523 82/154/92
f 80/139/94 84/634/94 81/155/94
f 79/146/95 78/145/95 82/151/96
f 87/156/97 92/635/97 89/157/97
f 92/159/98 91/166/524 95/160/99
f 86/162/101 90/176/101 91/163/101
f 87/165/102 88/530/102 91/166/102
f 85/158/103 89/157/103 90/167/103
f 94/169/104 93/636/104 96/170/104
f 89/157/105 93/637/525 94/172/106
f 92/173/108 96/638/108 93/174/108
f 90/176/109 94/639/110 95/177/110
f 99/178/111 104/197/111 101/179/111
f 104/181/112 103/188/526 107/182/113
f 98/184/115 102/199/115 103/185/115
f 99/187/116 100/523/116 103/188/116
f 97/189/117 101/195/117 102/190/117
f 106/192/118 105/640/118 108/193/118
f 101/195/119 105/641/527 106/196/120
f 104/197/122 108/642/122 105/198/122
f 102/199/123 106/643/123 107/200/123
f 109/201/124 111/644/124 116/202/124
f 116/204/125 115/211/528 119/205/126
f 110/207/128 114/645/129 115/208/129
f 111/210/130 112/646/130 115/211/130
f 109/212/131 113/218/131 114/213/131
f 119/215/132 118/647/132 117/216/132
f 113/218/133 117/648/529 118/219/134
f 116/202/136 120/649/136 117/220/136
f 114/221/137 118/650/137 119/222/137
f 123/224/138 128/243/138 125/225/138
f 128/227/139 127/234/530 131/228/140
f 122/230/142 126/245/142 127/231/142
f 123/233/143 124/591/143 127/234/143
f 121/235/144 125/241/144 126/236/144
f 130/238/145 129/651/145 132/239/145
f 125/241/146 129/652/531 130/242/147
f 128/243/149 132/653/149 129/244/149
f 126/245/150 130/654/150 131/246/150
f 135/247/151 140/266/151 137/248/151
f 140/250/152 139/257/532 143/251/153
f 134/253/155 138/268/155 139/254/155
f 135/256/156 136/479/156 139/257/156
f 133/258/157 137/264/157 138/259/157
f 143/261/158 142/655/158 141/262/158
f 137/264/159 141/656/533 142/265/160
f 140/266/162 144/657/162 141/267/162
f 138/268/163 142/655/163 143/261/163
f 146/269/164 147/473/402 150/270/165
f 151/272/167 155/300/167 152/273/167
f 257/275/168 148/658/534 149/276/169
f 148/274/172 257/659/535 256/660/536
f 267/278/171 258/661/171 146/279/171
f 148/274/172 256/660/536 267/278/171
f 146/279/171 151/272/171 148/274/172
f 145/280/173 149/662/173 150/281/173
f 154/283/174 158/663/175 159/284/175
f 154/288/179 150/281/179 149/662/179
f 149/662/179 345/582/179 344/286/177
f 344/286/177 343/664/537 153/287/178
f 154/288/179 149/662/179 344/286/177
f 336/572/492 151/271/489 333/665/538
f 335/289/180 332/666/539 154/283/174
f 336/572/492 333/665/538 335/289/180
f 339/291/182 336/572/492 335/289/180
f 335/289/180 154/283/174 337/290/181
f 149/276/183 148/658/540 328/667/541
f 330/292/184 331/668/542 341/293/185
f 149/276/183 328/667/541 330/292/184
f 341/293/185 345/669/543 149/276/183
f 157/294/186 156/670/186 159/295/186
f 153/297/187 152/560/482 156/298/188
f 155/300/189 159/671/189 156/301/189
f 153/287/190 157/672/190 158/302/190
f 174/303/191 175/324/191 197/304/191
f 165/306/192 198/338/238 210/307/193
f 203/309/194 226/382/194 224/310/194
f 223/312/195 221/673/195 185/313/195
f 205/315/196 202/353/544 214/316/197
f 200/318/199 212/674/199 215/319/199
f 166/321/200 201/332/545 225/322/201
f 175/324/203 206/330/225 218/325/204
f 175/324/206 183/326/546 209/327/207
f 172/328/209 194/346/191 231/329/210
f 165/306/212 178/308/547 213/331/213
f 170/333/215 205/315/548 229/334/216
f 162/336/218 185/675/224 221/337/219
f 160/305/221 197/304/549 223/339/222
f 164/341/224 165/306/224 201/332/224
f 206/330/225 175/324/203 174/303/223
f 225/342/217 227/676/217 190/343/217
f 229/345/226 231/329/226 194/346/226
f 288/402/228 178/308/228 210/307/227
f 210/307/227 187/436/550 195/496/551
f 195/496/551 293/677/228 291/348/228
f 287/349/228 288/402/228 210/307/227
f 210/307/227 195/496/551 291/348/228
f 207/350/229 230/384/229 228/351/229
f 202/353/230 205/315/230 170/333/230
f 196/355/231 199/391/231 220/356/231
f 168/358/232 190/678/226 227/359/233
f 209/361/235 263/679/552 264/362/236
f 198/338/238 165/306/192 164/341/202
f 208/363/239 264/362/553 265/364/240
f 207/366/242 204/680/242 216/367/242
f 219/368/243 216/367/554 283/369/244
f 214/316/246 202/353/555 203/320/247
f 213/331/249 212/681/556 200/371/250
f 207/366/252 219/368/557 218/325/253
f 199/372/255 211/395/256 210/373/256
f 204/375/258 205/315/558 217/317/259
f 196/377/261 197/682/559 209/378/262
f 221/380/264 223/393/264 222/357/264
f 227/381/265 225/683/265 224/310/265
f 231/383/266 229/684/266 228/351/266
f 202/385/267 227/381/560 226/382/268
f 201/332/270 200/371/561 224/386/271
f 230/387/273 207/685/562 206/388/274
f 198/390/276 221/380/563 220/356/277
f 197/392/279 196/355/564 222/357/280
f 228/351/282 229/684/565 205/394/283
f 196/377/285 208/379/285 211/395/285
f 212/681/566 213/331/287 286/403/287
f 212/681/566 286/403/287 289/396/286
f 181/398/288 182/686/567 212/681/566
f 290/397/287 292/495/287 181/398/288
f 181/398/288 212/681/566 289/396/286
f 210/399/289 211/365/568 265/364/569
f 210/399/289 265/364/569 262/687/570
f 260/477/571 186/422/572 187/401/291
f 210/399/289 262/687/570 266/400/290
f 266/400/290 260/477/571 187/401/291
f 213/331/213 178/308/547 288/402/292
f 218/325/294 173/413/573 192/404/295
f 214/316/297 215/319/574 179/405/298
f 283/688/575 216/376/576 217/317/300
f 217/317/300 176/411/577 177/407/301
f 177/407/301 285/689/578 280/590/579
f 284/408/302 283/688/575 217/317/300
f 177/407/301 280/590/579 284/408/302
f 263/690/305 209/327/305 183/326/303
f 183/326/303 192/404/580 188/409/304
f 188/409/304 267/691/305 256/692/305
f 188/409/304 256/692/305 257/275/305
f 261/410/305 263/690/305 183/326/303
f 188/409/304 257/275/305 261/410/305
f 217/317/306 214/316/581 180/406/307
f 218/325/309 219/368/582 282/370/582
f 218/325/309 282/370/582 281/693/583
f 279/490/584 171/444/585 173/413/311
f 218/325/309 281/693/583 278/412/310
f 278/412/310 279/490/584 173/413/311
f 215/319/312 212/674/586 182/414/313
f 180/406/315 179/405/316 275/433/316
f 271/415/316 270/694/316 232/416/317
f 180/406/315 275/433/316 271/415/316
f 232/416/317 233/425/587 180/406/315
f 192/404/318 240/438/588 238/417/319
f 274/419/323 182/686/589 181/398/321
f 181/398/321 268/478/590 273/418/322
f 191/420/324 239/424/325 236/421/325
f 188/423/326 238/458/591 239/424/327
f 176/411/329 180/406/592 233/425/330
f 268/478/593 181/398/593 195/496/594
f 195/496/594 311/695/595 313/427/332
f 314/696/596 316/697/597 241/698/598
f 313/427/332 314/696/596 241/698/598
f 234/428/333 276/699/593 269/429/334
f 269/429/334 268/478/593 195/496/594
f 313/427/332 241/698/598 234/428/333
f 269/429/334 195/496/594 313/427/332
f 309/700/599 177/407/600 176/411/335
f 176/411/335 163/426/601 161/430/336
f 161/430/336 306/701/602 304/431/337
f 304/431/337 309/700/599 176/411/335
f 179/405/338 182/414/603 274/432/339
f 186/434/341 236/464/604 237/435/342
f 192/404/344 173/413/605 167/437/345
f 311/695/606 195/496/606 187/436/347
f 237/435/607 241/698/608 316/697/609
f 237/435/607 316/697/609 315/439/348
f 312/440/349 311/695/606 187/436/347
f 187/436/347 237/435/607 315/439/348
f 173/413/350 171/444/610 308/443/610
f 173/413/350 308/443/610 310/702/611
f 305/524/612 169/445/613 167/437/352
f 173/413/350 310/702/611 307/441/351
f 307/441/351 305/524/612 167/437/352
f 177/442/353 309/703/354 308/443/354
f 169/445/355 161/452/614 242/446/356
f 232/416/358 235/451/615 249/448/359
f 234/450/361 248/516/616 249/448/362
f 161/452/364 163/704/617 243/453/365
f 163/426/367 233/425/618 247/454/368
f 234/428/370 241/698/619 322/705/620
f 234/428/370 322/705/620 324/706/621
f 255/457/372 248/707/622 234/428/370
f 325/456/371 327/708/623 255/457/372
f 234/428/370 324/706/621 325/456/371
f 238/458/373 240/709/624 254/459/374
f 240/438/376 167/437/377 320/710/377
f 240/438/376 320/710/377 321/711/377
f 244/462/378 254/712/625 240/438/376
f 317/461/377 318/713/377 244/462/378
f 240/438/376 321/711/377 317/461/377
f 238/458/379 252/460/626 253/463/380
f 236/464/382 250/511/627 251/465/383
f 233/425/385 232/416/628 246/449/386
f 239/424/388 253/463/629 250/466/389
f 320/710/630 167/437/631 169/445/391
f 169/445/391 245/447/632 244/462/392
f 244/462/392 318/713/633 319/467/393
f 319/467/393 320/710/630 169/445/391
f 322/705/396 241/698/396 237/435/394
f 237/435/394 251/465/634 255/457/395
f 255/457/395 327/708/396 326/714/635
f 323/468/396 322/705/396 237/435/394
f 255/457/395 326/714/635 323/468/396
f 147/282/397 262/715/397 265/716/397
f 147/282/397 265/716/397 264/717/397
f 261/470/397 145/280/397 147/282/397
f 147/282/397 264/717/397 263/469/397
f 191/420/400 259/476/237 258/471/398
f 258/471/398 267/718/636 188/423/399
f 266/472/401 262/719/401 147/473/402
f 146/279/404 258/661/403 259/474/403
f 260/475/404 266/720/404 146/279/404
f 259/476/406 191/420/637 186/422/407
f 135/256/409 273/418/409 268/478/409
f 268/478/409 269/429/409 136/479/409
f 232/416/412 270/694/638 272/480/410
f 272/480/410 277/721/603 235/451/411
f 277/481/413 276/699/639 234/428/414
f 136/255/416 269/722/416 276/723/416
f 277/483/416 272/724/416 134/253/416
f 136/255/416 276/723/416 277/483/416
f 134/260/417 272/725/417 270/484/417
f 270/484/417 271/726/417 133/258/417
f 133/249/418 271/415/418 275/433/418
f 274/432/418 273/727/418 135/247/418
f 133/249/418 275/433/418 274/432/418
f 284/408/419 280/590/419 349/728/419
f 347/485/419 346/729/419 123/233/419
f 284/408/419 349/728/419 347/485/419
f 124/488/420 280/730/420 285/731/420
f 279/486/420 278/732/420 122/487/420
f 124/488/420 285/731/420 279/486/420
f 278/489/421 281/733/421 121/235/421
f 279/490/422 285/734/640 177/442/423
f 121/235/426 281/733/426 282/735/426
f 283/491/425 284/736/425 123/492/426
f 121/235/426 282/735/426 283/491/425
f 291/493/427 112/646/427 111/210/427
f 292/495/428 293/677/641 195/496/429
f 112/209/431 291/737/431 293/738/431
f 292/497/431 290/739/431 110/207/431
f 112/209/431 293/738/431 292/497/431
f 290/498/432 289/740/432 109/212/432
f 109/500/433 289/741/433 286/742/433
f 288/499/433 287/494/433 111/210/433
f 109/500/433 286/742/433 288/499/433
f 249/448/434 248/516/434 297/501/434
f 294/505/435 296/743/435 298/744/435
f 298/744/435 297/745/642 303/503/435
f 303/503/435 300/746/643 299/747/435
f 299/747/435 301/748/435 302/504/435
f 302/504/435 295/749/644 294/505/435
f 294/505/435 298/744/435 303/503/435
f 303/503/435 299/747/435 302/504/435
f 243/453/436 296/508/645 294/506/437
f 253/463/440 252/460/646 301/509/441
f 251/465/444 300/520/444 303/514/444
f 245/447/445 294/506/647 295/515/446
f 248/516/450 255/750/450 303/517/450
f 252/460/451 254/459/451 302/518/451
f 244/519/452 295/751/452 302/518/452
f 250/511/453 299/513/453 300/520/453
f 246/449/454 298/502/648 296/521/455
f 99/187/457 310/752/457 308/753/457
f 309/522/457 304/754/457 100/523/457
f 99/187/457 308/753/457 309/522/457
f 305/524/458 306/755/649 161/452/459
f 100/186/461 304/756/461 306/525/461
f 306/525/461 305/757/461 98/184/461
f 305/526/462 307/758/462 97/189/462
f 310/527/463 99/178/463 97/180/463
f 87/165/464 315/759/464 316/529/464
f 316/529/464 314/760/464 88/530/464
f 314/531/465 313/761/465 86/532/465
f 86/168/466 313/762/466 311/534/466
f 311/534/466 312/535/466 85/158/466
f 312/535/467 315/763/467 87/156/467
f 319/536/468 318/764/468 76/537/468
f 318/538/469 317/765/469 74/539/469
f 321/540/470 73/138/470 74/150/470
f 73/138/472 321/540/471 320/542/471
f 320/542/471 319/766/472 75/543/472
f 326/544/473 64/629/473 63/125/473
f 64/548/474 326/767/474 327/546/474
f 327/546/474 325/768/474 62/547/474
f 325/549/475 324/769/475 61/127/475
f 61/552/476 324/770/476 322/550/476
f 322/550/476 323/771/476 63/551/476
f 329/553/477 52/622/477 51/100/477
f 331/555/478 50/621/478 52/97/478
f 331/557/479 330/561/479 49/102/479
f 152/560/482 153/297/187 343/772/650
f 152/560/482 343/772/650 340/773/650
f 329/559/481 328/667/541 148/658/540
f 341/293/185 331/668/542 329/559/481
f 152/560/482 340/773/650 342/558/480
f 342/558/480 341/293/185 329/559/481
f 329/559/481 148/658/540 152/560/482
f 330/561/483 328/774/483 51/562/483
f 335/563/484 40/615/485 39/75/485
f 333/565/486 38/72/486 40/74/486
f 333/567/487 334/775/487 37/77/487
f 150/270/488 154/283/174 332/666/539
f 334/568/488 333/665/538 151/271/489
f 150/270/488 332/666/539 334/568/488
f 334/569/490 332/776/490 39/66/490
f 336/570/491 339/777/491 28/571/491
f 338/573/493 337/290/181 154/283/174
f 155/285/176 151/271/489 336/572/492
f 338/573/493 154/283/174 155/285/176
f 337/574/494 26/52/494 28/54/494
f 338/576/495 25/57/495 26/59/495
f 338/578/496 336/778/496 27/579/496
f 15/30/497 340/779/497 343/580/497
f 343/580/497 344/780/497 16/581/497
f 16/29/498 344/286/498 345/582/498
f 345/582/498 341/781/498 14/27/498
f 341/583/499 342/782/499 13/32/499
f 340/584/500 15/603/501 13/21/501
f 348/586/502 4/783/502 3/587/502
f 124/591/419 123/233/419 346/729/419
f 348/589/419 349/728/419 280/590/419
f 124/591/419 346/729/419 348/589/419
f 346/592/503 2/598/503 4/7/503
f 346/594/504 347/784/504 1/11/504
f 347/595/505 349/785/505 3/596/505
o Cube
v -0.065067 1.119103 -0.062858
v -0.065067 1.163371 -0.062858
v -0.034333 1.119103 -0.121156
v -0.034333 1.163371 -0.121156
v 0.609070 1.119103 0.292531
v 0.609070 1.163371 0.292531
v 0.639803 1.119103 0.234234
v 0.639803 1.163371 0.234234
vn -0.8846 -0.0000 -0.4663
vn 0.4663 -0.0000 -0.8846
vn 0.8846 -0.0000 0.4663
vn -0.4663 -0.0000 0.8846
vn -0.0000 -1.0000 -0.0000
vn -0.0000 1.0000 -0.0000
vt 0.625000 0.000000
vt 0.375000 0.250000
vt 0.375000 0.000000
vt 0.625000 0.250000
vt 0.375000 0.500000
vt 0.625000 0.500000
vt 0.375000 0.750000
vt 0.625000 0.750000
vt 0.375000 1.000000
vt 0.125000 0.750000
vt 0.125000 0.500000
vt 0.875000 0.500000
vt 0.625000 1.000000
vt 0.875000 0.750000
s 0
f 351/786/651 352/787/651 350/788/651
f 353/789/652 356/790/652 352/787/652
f 357/791/653 354/792/653 356/790/653
f 355/793/654 350/794/654 354/792/654
f 356/790/655 350/795/655 352/796/655
f 353/797/656 355/793/656 357/791/656
f 351/786/651 353/789/651 352/787/651
f 353/789/652 357/791/652 356/790/652
f 357/791/653 355/793/653 354/792/653
f 355/793/654 351/798/654 350/794/654
f 356/790/655 354/792/655 350/795/655
f 353/797/656 351/799/656 355/793/656
