# Blender 4.2.3 LTS
# www.blender.org
mtllib sofa.mtl
o couch
v -4.603601 1.965766 2.126416
v -4.535636 1.853851 2.126416
v -4.433918 1.779072 2.126416
v -4.313933 1.752813 2.126416
v -4.313933 1.779072 2.252509
v -4.313933 1.853851 2.359405
v -4.313933 1.965766 2.430831
v -4.313933 2.097779 2.455912
v -4.433918 2.097779 2.430831
v -4.535636 2.097779 2.359405
v -4.603601 2.097779 2.252509
v -4.627468 2.097779 2.126416
v -0.171018 1.779072 2.126416
v -0.069300 1.853851 2.126416
v -0.001334 1.965766 2.126416
v 0.022532 2.097779 2.126416
v -0.001334 2.097779 2.252509
v -0.069300 2.097779 2.359405
v -0.171018 2.097779 2.430831
v -0.291003 2.097779 2.455912
v -0.291003 1.965766 2.430831
v -0.291003 1.853851 2.359405
v -0.291003 1.779072 2.252509
v -0.291003 1.752813 2.126416
v -4.433918 2.876554 2.126416
v -4.535636 2.801775 2.126416
v -4.603601 2.689861 2.126416
v -4.627468 2.557848 2.126416
v -4.603601 2.557848 2.252509
v -4.535636 2.557848 2.359405
v -4.433918 2.557848 2.430831
v -4.313933 2.557848 2.455912
v -4.313933 2.689861 2.430831
v -4.313933 2.801775 2.359405
v -4.313933 2.876554 2.252509
v -4.313933 2.902813 2.126416
v -0.001334 2.689861 2.126416
v -0.069300 2.801775 2.126416
v -0.171018 2.876554 2.126416
v -0.291003 2.902813 2.126416
v -0.291003 2.876554 2.252509
v -0.291003 2.801775 2.359405
v -0.291003 2.689861 2.430831
v -0.291003 2.557848 2.455912
v -0.171018 2.557848 2.430831
v -0.069300 2.557848 2.359405
v -0.001334 2.557848 2.252509
v 0.022532 2.557848 2.126416
v -4.433918 2.557848 -1.269006
v -4.535636 2.557848 -1.197580
v -4.603601 2.557848 -1.090683
v -4.627468 2.557848 -0.964591
v -4.603601 2.689861 -0.964591
v -4.535636 2.801775 -0.964591
v -4.433918 2.876554 -0.964591
v -4.313933 2.902813 -0.964591
v -4.313933 2.876554 -1.090683
v -4.313933 2.801775 -1.197580
v -4.313933 2.689861 -1.269006
v -4.313933 2.557848 -1.294087
v -0.001334 2.557848 -1.090683
v -0.069300 2.557848 -1.197580
v -0.171018 2.557848 -1.269006
v -0.291003 2.557848 -1.294087
v -0.291003 2.689861 -1.269006
v -0.291003 2.801775 -1.197580
v -0.291003 2.876554 -1.090683
v -0.291003 2.902813 -0.964591
v -0.171018 2.876554 -0.964591
v -0.069300 2.801775 -0.964591
v -0.001334 2.689861 -0.964591
v 0.022532 2.557848 -0.964591
v -4.433918 1.779072 -0.964591
v -4.535636 1.853851 -0.964591
v -4.603601 1.965766 -0.964591
v -4.627468 2.097779 -0.964591
v -4.603601 2.097779 -1.090683
v -4.535636 2.097779 -1.197580
v -4.433918 2.097779 -1.269006
v -4.313933 2.097779 -1.294087
v -4.313933 1.965766 -1.269006
v -4.313933 1.853851 -1.197580
v -4.313933 1.779072 -1.090683
v -4.313933 1.752813 -0.964591
v -0.001334 1.965766 -0.964591
v -0.069300 1.853851 -0.964591
v -0.171018 1.779072 -0.964591
v -0.291003 1.752813 -0.964591
v -0.291003 1.779072 -1.090683
v -0.291003 1.853851 -1.197580
v -0.291003 1.965766 -1.269006
v -0.291003 2.097779 -1.294087
v -0.171018 2.097779 -1.269006
v -0.069300 2.097779 -1.197580
v -0.001334 2.097779 -1.090683
v 0.022532 2.097779 -0.964591
v -4.587481 1.978708 2.240147
v -4.525717 1.864765 2.222975
v -4.422155 1.796809 2.240147
v -4.405815 1.864765 2.348981
v -4.422155 1.978708 2.413889
v -4.525717 1.996686 2.348981
v -4.494889 1.898683 2.316585
v -0.182781 1.796809 2.240147
v -0.079219 1.864765 2.222975
v -0.017455 1.978708 2.240147
v -0.079219 1.996686 2.348981
v -0.182781 1.978708 2.413889
v -0.199121 1.864765 2.348981
v -0.110046 1.898683 2.316585
v -4.422155 2.858818 2.240147
v -4.525717 2.790862 2.222975
v -4.587481 2.676919 2.240147
v -4.525717 2.658941 2.348981
v -4.422155 2.676919 2.413889
v -4.405815 2.790862 2.348981
v -4.494889 2.756944 2.316585
v -0.017455 2.676919 2.240147
v -0.079219 2.790862 2.222975
v -0.182781 2.858818 2.240147
v -0.199121 2.790862 2.348981
v -0.182781 2.676919 2.413889
v -0.079219 2.658941 2.348981
v -0.110046 2.756944 2.316585
v -4.422155 2.676919 -1.252064
v -4.525717 2.658941 -1.187155
v -4.587481 2.676919 -1.078322
v -4.525717 2.790862 -1.061150
v -4.422155 2.858818 -1.078322
v -4.405815 2.790862 -1.187155
v -4.494889 2.756944 -1.154759
v -0.017455 2.676919 -1.078322
v -0.079219 2.658941 -1.187155
v -0.182781 2.676919 -1.252064
v -0.199121 2.790862 -1.187155
v -0.182781 2.858818 -1.078322
v -0.079219 2.790862 -1.061150
v -0.110046 2.756944 -1.154759
v -4.422155 1.796809 -1.078322
v -4.525717 1.864765 -1.061150
v -4.587481 1.978708 -1.078322
v -4.525717 1.996686 -1.187155
v -4.422155 1.978708 -1.252064
v -4.405815 1.864765 -1.187155
v -4.494889 1.898683 -1.154759
v -0.017455 1.978708 -1.078322
v -0.079219 1.864765 -1.061150
v -0.182781 1.796809 -1.078322
v -0.199121 1.864765 -1.187155
v -0.182781 1.978708 -1.252064
v -0.079219 1.996686 -1.187155
v -0.110046 1.898683 -1.154759
v 0.009230 1.963594 2.109927
v 0.077196 1.851679 2.109927
v 0.178914 1.776900 2.109927
v 0.298898 1.750641 2.109927
v 0.298898 1.776900 2.236021
v 0.298898 1.851679 2.342917
v 0.298898 1.963594 2.414343
v 0.298898 2.095606 2.439424
v 0.178914 2.095606 2.414343
v 0.077196 2.095606 2.342917
v 0.009230 2.095606 2.236021
v -0.014636 2.095606 2.109927
v 4.441814 1.776900 2.109927
v 4.543532 1.851679 2.109927
v 4.611497 1.963594 2.109927
v 4.635364 2.095606 2.109927
v 4.611497 2.095606 2.236021
v 4.543532 2.095606 2.342917
v 4.441814 2.095606 2.414343
v 4.321830 2.095606 2.439424
v 4.321830 1.963594 2.414343
v 4.321830 1.851679 2.342917
v 4.321830 1.776900 2.236021
v 4.321830 1.750641 2.109927
v 0.178914 2.874382 2.109927
v 0.077196 2.799603 2.109927
v 0.009230 2.687688 2.109927
v -0.014636 2.555675 2.109927
v 0.009230 2.555675 2.236021
v 0.077196 2.555675 2.342917
v 0.178914 2.555675 2.414343
v 0.298898 2.555675 2.439424
v 0.298898 2.687688 2.414343
v 0.298898 2.799603 2.342917
v 0.298898 2.874382 2.236021
v 0.298898 2.900641 2.109927
v 4.611497 2.687688 2.109927
v 4.543532 2.799603 2.109927
v 4.441814 2.874382 2.109927
v 4.321830 2.900641 2.109927
v 4.321830 2.874382 2.236021
v 4.321830 2.799603 2.342917
v 4.321830 2.687688 2.414343
v 4.321830 2.555675 2.439424
v 4.441814 2.555675 2.414343
v 4.543532 2.555675 2.342917
v 4.611497 2.555675 2.236021
v 4.635364 2.555675 2.109927
v 0.178914 2.555675 -1.285494
v 0.077196 2.555675 -1.214068
v 0.009230 2.555675 -1.107172
v -0.014636 2.555675 -0.981079
v 0.009230 2.687688 -0.981079
v 0.077196 2.799603 -0.981079
v 0.178914 2.874382 -0.981079
v 0.298898 2.900641 -0.981079
v 0.298898 2.874382 -1.107172
v 0.298898 2.799603 -1.214068
v 0.298898 2.687688 -1.285494
v 0.298898 2.555675 -1.310576
v 4.611497 2.555675 -1.107172
v 4.543532 2.555675 -1.214068
v 4.441814 2.555675 -1.285494
v 4.321830 2.555675 -1.310576
v 4.321830 2.687688 -1.285494
v 4.321830 2.799603 -1.214068
v 4.321830 2.874382 -1.107172
v 4.321830 2.900641 -0.981079
v 4.441814 2.874382 -0.981079
v 4.543532 2.799603 -0.981079
v 4.611497 2.687688 -0.981079
v 4.635364 2.555675 -0.981079
v 0.178914 1.776900 -0.981079
v 0.077196 1.851679 -0.981079
v 0.009230 1.963594 -0.981079
v -0.014636 2.095606 -0.981079
v 0.009230 2.095606 -1.107172
v 0.077196 2.095606 -1.214068
v 0.178914 2.095606 -1.285494
v 0.298898 2.095606 -1.310576
v 0.298898 1.963594 -1.285494
v 0.298898 1.851679 -1.214068
v 0.298898 1.776900 -1.107172
v 0.298898 1.750641 -0.981079
v 4.611497 1.963594 -0.981079
v 4.543532 1.851679 -0.981079
v 4.441814 1.776900 -0.981079
v 4.321830 1.750641 -0.981079
v 4.321830 1.776900 -1.107172
v 4.321830 1.851679 -1.214068
v 4.321830 1.963594 -1.285494
v 4.321830 2.095606 -1.310576
v 4.441814 2.095606 -1.285494
v 4.543532 2.095606 -1.214068
v 4.611497 2.095606 -1.107172
v 4.635364 2.095606 -0.981079
v 0.025351 1.976536 2.223659
v 0.087115 1.862593 2.206487
v 0.190677 1.794636 2.223659
v 0.207016 1.862593 2.332493
v 0.190677 1.976536 2.397401
v 0.087115 1.994514 2.332493
v 0.117942 1.896510 2.300096
v 4.430051 1.794636 2.223659
v 4.533612 1.862593 2.206487
v 4.595377 1.976536 2.223659
v 4.533612 1.994514 2.332493
v 4.430051 1.976536 2.397401
v 4.413711 1.862593 2.332493
v 4.502785 1.896510 2.300096
v 0.190677 2.856645 2.223659
v 0.087115 2.788689 2.206487
v 0.025351 2.674746 2.223659
v 0.087115 2.656768 2.332493
v 0.190677 2.674746 2.397401
v 0.207016 2.788689 2.332493
v 0.117942 2.754772 2.300096
v 4.595377 2.674746 2.223659
v 4.533612 2.788689 2.206487
v 4.430051 2.856645 2.223659
v 4.413711 2.788689 2.332493
v 4.430051 2.674746 2.397401
v 4.533612 2.656768 2.332493
v 4.502785 2.754772 2.300096
v 0.190677 2.674746 -1.268553
v 0.087115 2.656768 -1.203644
v 0.025351 2.674746 -1.094810
v 0.087115 2.788689 -1.077639
v 0.190677 2.856645 -1.094810
v 0.207016 2.788689 -1.203644
v 0.117942 2.754772 -1.171247
v 4.595377 2.674746 -1.094810
v 4.533612 2.656768 -1.203644
v 4.430051 2.674746 -1.268553
v 4.413711 2.788689 -1.203644
v 4.430051 2.856645 -1.094810
v 4.533612 2.788689 -1.077639
v 4.502785 2.754772 -1.171247
v 0.190677 1.794636 -1.094810
v 0.087115 1.862593 -1.077639
v 0.025351 1.976536 -1.094810
v 0.087115 1.994514 -1.203644
v 0.190677 1.976536 -1.268553
v 0.207016 1.862593 -1.203644
v 0.117942 1.896510 -1.171247
v 4.595377 1.976536 -1.094810
v 4.533612 1.862593 -1.077639
v 4.430051 1.794636 -1.094810
v 4.413711 1.862593 -1.203644
v 4.430051 1.976536 -1.268553
v 4.533612 1.994514 -1.203644
v 4.502785 1.896510 -1.171247
v -5.443231 3.645498 2.443230
v -5.443231 1.804724 2.443230
v -5.306177 3.645498 2.500000
v -4.872700 2.935123 2.500000
v -4.959376 3.252625 2.500000
v -5.306180 1.803650 2.500000
v -4.607959 2.376269 -1.298111
v -5.256755 3.839321 0.833333
v -5.338605 3.839321 0.833333
v -5.338605 3.839321 2.306177
v -5.256755 3.839321 2.306177
v -5.052582 3.433082 2.500000
v -5.183871 3.585522 2.500000
v -4.777781 3.323399 0.833333
v -4.890837 3.542288 0.833333
v -4.890837 3.542288 2.306177
v -4.777781 3.323399 2.306177
v -5.062179 3.741235 0.833333
v -5.062179 3.741235 2.306177
v -4.581599 0.500000 -1.311351
v 4.586810 0.500000 -1.311351
v 4.586810 0.500000 0.833333
v -4.581599 0.500000 0.833333
v -4.581599 3.826829 -2.548328
v 4.586810 3.826829 -2.548328
v 4.586810 1.807204 -2.430281
v -4.581599 1.807204 -2.430281
v -5.418042 3.757363 2.418041
v -5.500000 3.645498 2.306177
v -5.443231 3.782552 2.306177
v -4.801237 2.359883 2.500000
v -4.664569 2.371469 2.443230
v -4.737901 2.961754 2.443230
v -4.607959 2.376269 2.306177
v -4.682066 2.972785 2.306177
v -5.302846 3.645498 2.500000
v -5.332432 3.782552 2.443230
v 4.586810 1.797976 -1.195286
v -4.581599 1.797976 -1.195286
v -4.830969 3.302670 2.443230
v -5.270255 3.782552 2.443230
v -4.938211 3.510303 2.443230
v -5.097821 3.695628 2.443230
v -4.581599 1.797975 0.833333
v 4.586810 1.797975 0.833333
v 4.586810 0.558329 -2.302913
v 4.586810 0.691982 -2.365096
v 5.309300 0.558308 -2.301262
v 4.586810 0.503491 -2.166082
v 4.614995 2.455274 -1.298111
v 5.311958 0.691982 -2.365096
v 5.306177 0.503468 -2.160302
v -4.581599 5.297369 -2.634283
v 4.586810 5.297369 -2.634283
v 5.419363 0.584149 -2.277079
v 4.586810 0.500000 2.306177
v -4.581599 0.500000 2.306177
v 5.444942 0.694804 -2.308333
v 5.443223 0.560240 -2.163101
v 5.500000 0.697337 -2.171255
v 5.443231 0.556770 -1.311351
v 5.443179 1.807101 -2.373460
v 5.500000 0.693823 -1.311351
v 5.306178 0.500000 -1.311351
v 5.500000 1.806851 -2.236282
v 5.306001 1.807204 -2.430281
v 4.674436 3.024024 -1.305689
v -4.581599 5.437617 -2.583649
v 4.586810 5.437617 -2.583649
v -4.581599 0.556770 2.443230
v 4.586810 0.556770 2.443230
v -4.581599 5.497686 -2.447177
v 4.586810 5.497686 -2.447177
v -4.581599 4.599260 -1.455187
v -4.581599 4.211748 -1.361496
v 4.586810 4.211748 -1.361496
v 4.586810 4.599260 -1.455187
v 4.584239 3.839322 -1.326175
v 5.443198 3.827410 -2.491529
v 5.252945 0.011936 -1.769099
v 4.852944 0.011936 -1.769099
v 4.852944 0.011936 -2.169100
v 5.252945 0.011936 -2.169100
v -4.581599 0.693823 2.500000
v 4.586810 0.693823 2.500000
v 4.768525 0.503166 -2.086360
v 4.768805 0.501533 -1.686634
v 5.168523 0.503166 -2.086360
v -4.581599 5.500000 -2.210864
v 4.586810 5.500000 -2.210864
v 5.500000 3.828812 -2.354403
v 4.586810 4.940687 -1.618126
v -4.581599 4.940687 -1.618126
v -4.581599 5.397410 -1.990835
v 4.586810 5.397410 -1.990835
v -4.581599 5.169645 -1.775427
v 4.586810 5.169645 -1.775427
v -4.581599 1.797975 2.306177
v 4.586810 1.797975 2.306177
v 5.306064 3.826829 -2.548328
v 5.168804 0.501533 -1.686634
v 4.772500 1.604152 2.500000
v -4.766789 1.604152 2.500000
v 4.747017 3.368216 -1.312936
v 4.894116 3.615979 -1.319145
v 5.443225 5.302962 -2.577755
v 5.092741 3.785278 -1.323707
v -4.578578 3.839322 -1.326175
v 5.500000 5.303919 -2.440511
v -4.635840 1.741206 2.443230
v 4.641197 1.741206 2.443230
v 5.278538 3.839322 -1.326175
v 5.306177 5.302248 -2.634567
v 5.306177 4.599260 -1.455187
v 5.443231 3.782552 -1.377815
v 5.443231 4.202367 -1.417631
v 5.356487 3.839322 -1.326175
v 5.306177 4.211762 -1.361498
v 5.418030 5.414418 -2.558810
v 5.306180 5.439046 -2.585181
v 5.306177 5.497638 -2.452064
v 5.306177 0.556770 2.443230
v 5.306177 0.500000 2.306177
v 5.418042 0.581959 2.418041
v 5.443231 0.556770 2.306177
v 5.443225 5.440910 -2.448902
v 5.306177 0.693823 2.500000
v 5.500000 0.693823 2.306177
v 5.443231 5.443107 -2.223183
v 5.443231 0.693823 2.443230
v 5.306177 5.500000 -2.210864
v 5.500000 1.805168 -1.311351
v 5.306180 1.803642 2.500000
v 5.443232 1.804721 2.443230
v 5.306177 0.500000 0.833333
v 5.500000 1.805168 2.306174
v 4.808386 2.441036 2.500000
v 4.866164 2.993873 2.500000
v 5.443231 0.556770 0.833333
v 4.930053 3.296843 2.500000
v 5.306166 3.645498 2.500000
v 5.443231 3.645498 2.443230
v 5.500000 0.693823 0.833333
v 5.044345 3.489352 2.500000
v 5.186815 3.610786 2.500000
v 5.500000 3.645498 2.306177
v 5.120294 3.734171 2.443230
v 5.500000 3.645498 -1.502486
v 5.286627 3.782552 2.443230
v 5.349168 3.782552 2.443230
v 5.418042 3.757363 2.418041
v 5.443231 3.782552 2.306177
v 5.356487 3.839321 2.306177
v 5.500000 1.805168 0.833333
v 4.614995 2.455274 0.833333
v 5.169067 0.500000 1.839356
v 5.252945 0.011936 1.921564
v 4.852944 0.011936 1.921564
v 4.769069 0.500000 1.839356
v 4.852944 0.011936 2.321564
v 4.769069 0.500000 2.239357
v 4.674436 3.024024 0.833333
v 5.252945 0.011936 2.321564
v 5.169067 0.500000 2.239357
v 4.747017 3.368216 0.833333
v 5.500000 3.645498 0.833333
v 5.500000 4.179678 -1.553148
v 4.894116 3.615979 0.833333
v 5.306177 4.940687 -1.618126
v 5.306177 5.397410 -1.990835
v 4.614995 2.455274 2.306177
v 5.306177 5.169645 -1.775427
v 5.500000 4.534042 -1.638826
v 5.443231 4.580158 -1.508973
v 5.092741 3.785278 0.833333
v 5.500000 5.305756 -2.252925
v 5.500000 4.843474 -1.786497
v 5.443231 4.912214 -1.667441
v 5.443231 5.350535 -2.024639
v 5.500000 5.237368 -2.106251
v 5.500000 5.047440 -1.926627
v 5.443231 5.133852 -1.819713
v 5.278538 3.839321 0.833333
v 5.443231 3.782552 0.833333
v 5.356487 3.839321 0.833333
v 4.674436 3.024024 2.306177
v 4.671638 2.451104 2.443230
v 4.747017 3.368216 2.306177
v 4.730592 3.015193 2.443230
v 4.894116 3.615979 2.306177
v 5.092741 3.785278 2.306177
v 4.800628 3.347311 2.443230
v 5.278538 3.839321 2.306177
v 4.938117 3.578891 2.443230
v -5.443231 3.782552 0.833333
v -4.682066 2.972785 0.833333
v -5.500000 3.645498 0.833333
v -5.500000 1.805168 2.306174
v -4.607959 2.376269 0.833333
v -4.682066 2.972785 -1.304958
v -5.443231 0.693823 2.443230
v -5.306177 0.693823 2.500000
v -5.306177 5.497638 -2.452064
v -5.306177 4.211762 -1.361498
v -5.306177 4.599260 -1.455187
v -4.581599 0.691982 -2.365096
v -5.500000 0.693823 2.306177
v -5.301291 5.297369 -2.634283
v -5.500000 1.805168 0.833333
v -5.303616 5.437613 -2.585109
v -5.443231 5.443107 -2.223183
v -5.306177 5.500000 -2.210864
v -5.256755 3.839322 -1.326175
v -4.581599 0.503491 -2.166082
v -5.306177 0.556770 2.443230
v -5.418042 0.581959 2.418041
v -5.443225 5.440910 -2.448900
v -5.306177 0.500000 2.306177
v -5.416961 5.413284 -2.558722
v -5.062179 3.741235 -1.322977
v -4.890837 3.542289 -1.318031
v -4.777781 3.323399 -1.311823
v -5.443231 0.556770 2.306177
v -5.500000 5.303919 -2.440511
v -5.441809 5.300263 -2.577548
v -5.443231 4.202367 -1.417631
v -5.338605 3.839322 -1.326175
v -5.306177 5.397410 -1.990835
v -5.306177 5.169645 -1.775427
v -5.306177 4.940687 -1.618126
v -5.443231 3.782552 -1.377815
v -4.581599 0.558329 -2.302913
v -5.306064 3.826829 -2.548328
v -5.443198 3.827410 -2.491529
v -5.443231 5.350535 -2.024639
v -5.443231 5.133852 -1.819713
v -5.500000 3.828812 -2.354403
v -5.443231 4.912214 -1.667441
v -5.500000 3.645498 -1.502486
v -5.443231 4.580158 -1.508973
v -5.500000 5.237368 -2.106251
v -5.500000 5.047440 -1.926627
v -5.500000 4.843474 -1.786497
v -5.500000 5.305756 -2.252925
v -5.500000 4.534042 -1.638826
v -5.169067 0.500000 2.239357
v -5.252944 0.011936 2.321564
v -4.852944 0.011936 2.321564
v -4.769068 0.500000 2.239357
v -4.852944 0.011936 1.921564
v -4.769068 0.500000 1.839356
v -5.500000 4.179678 -1.553148
v -5.306001 1.807204 -2.430281
v -5.443179 1.807101 -2.373460
v -5.500000 0.693823 0.833333
v -5.169067 0.500000 1.839356
v -5.252944 0.011936 1.921564
v -5.500000 1.806851 -2.236282
v -5.500000 1.805168 -1.311351
v -5.443231 0.556770 0.833333
v -5.306177 0.500000 0.833333
v -5.306177 0.697752 -2.365433
v -5.443223 0.698029 -2.308593
v -5.443231 0.556770 -1.311351
v -5.306177 0.503468 -2.160302
v -5.306176 0.500000 -1.311351
v -5.500000 0.693824 -1.311351
v -5.443223 0.560240 -2.163104
v -5.500000 0.697337 -2.171255
v -5.418046 0.585490 -2.277185
v -5.306184 0.559991 -2.301339
v -4.768804 0.501533 -1.686634
v -4.852944 0.011936 -1.769099
v -4.852944 0.011936 -2.169100
v -4.768524 0.503166 -2.086360
v -5.168804 0.501533 -1.686634
v -5.252944 0.011936 -1.769099
v -5.252944 0.011936 -2.169100
v -5.168523 0.503166 -2.086360
vn -0.4140 -0.9103 0.0026
vn -0.0062 -1.0000 -0.0078
vn -0.0059 -1.0000 0.0076
vn -0.7380 -0.6747 -0.0033
vn -0.4831 -0.8704 -0.0950
vn -0.9341 -0.3569 0.0029
vn -0.7850 -0.6143 -0.0804
vn -0.9990 -0.0434 0.0051
vn -0.9570 -0.2784 -0.0818
vn -0.0016 -0.3672 0.9301
vn 0.0057 -0.0418 0.9991
vn -0.0056 -0.0418 0.9991
vn 0.0048 -0.6886 0.7251
vn 0.0919 -0.4464 0.8901
vn -0.0017 -0.9153 0.4027
vn 0.0794 -0.7492 0.6576
vn 0.0879 -0.9469 0.3092
vn -0.9344 -0.0305 0.3549
vn -0.9992 0.0398 0.0069
vn -0.7328 -0.0240 0.6800
vn -0.9087 0.0770 0.4104
vn -0.4102 -0.0319 0.9114
vn -0.6869 0.0684 0.7235
vn -0.3487 0.0778 0.9340
vn 0.9365 -0.3507 0.0029
vn 0.9992 -0.0398 -0.0070
vn 0.9992 -0.0398 0.0069
vn 0.7423 -0.6700 -0.0029
vn 0.9015 -0.4248 -0.0825
vn 0.4200 -0.9075 0.0032
vn 0.6802 -0.7295 -0.0712
vn 0.1921 -0.9625 0.1918
vn 0.3311 -0.9402 -0.0804
vn 0.3868 -0.0306 0.9217
vn 0.0056 0.0417 0.9991
vn 0.7155 -0.0227 0.6982
vn 0.4404 0.0828 0.8940
vn 0.9251 -0.0304 0.3786
vn 0.7534 0.0729 0.6535
vn 0.9440 0.0782 0.3206
vn -0.9365 0.3507 0.0029
vn -0.9992 0.0398 -0.0070
vn -0.7423 0.6700 -0.0029
vn -0.9015 0.4248 -0.0825
vn -0.4200 0.9075 0.0032
vn -0.6802 0.7295 -0.0711
vn -0.0098 0.9999 0.0041
vn -0.3311 0.9402 -0.0804
vn -0.0014 0.9176 0.3974
vn 0.0059 1.0000 0.0075
vn 0.0050 0.6926 0.7213
vn 0.0981 0.8748 0.4744
vn -0.0017 0.3725 0.9280
vn 0.0839 0.6257 0.7755
vn -0.1929 0.1313 0.9724
vn 0.0883 0.2842 0.9547
vn 0.4140 0.9103 0.0026
vn 0.0062 1.0000 -0.0078
vn 0.7380 0.6747 -0.0033
vn 0.4831 0.8704 -0.0950
vn 0.9341 0.3569 0.0029
vn 0.7850 0.6143 -0.0804
vn 0.9768 0.1253 0.1739
vn 0.9570 0.2784 -0.0818
vn -0.9344 0.0305 -0.3549
vn -0.9765 -0.1316 -0.1707
vn -0.7328 0.0240 -0.6800
vn -0.9087 -0.0770 -0.4104
vn -0.4102 0.0319 -0.9114
vn -0.6869 -0.0684 -0.7235
vn -0.0212 0.0194 -0.9996
vn -0.3487 -0.0778 -0.9340
vn -0.0016 0.3672 -0.9301
vn 0.0058 0.0418 -0.9991
vn 0.0048 0.6886 -0.7251
vn 0.0919 0.4464 -0.8901
vn -0.0018 0.9153 -0.4027
vn 0.0794 0.7492 -0.6576
vn -0.2027 0.9624 -0.1810
vn 0.0878 0.9469 -0.3093
vn 0.3868 0.0306 -0.9217
vn 0.0057 -0.0418 -0.9991
vn 0.7156 0.0227 -0.6982
vn 0.4404 -0.0828 -0.8940
vn 0.9251 0.0304 -0.3786
vn 0.7534 -0.0729 -0.6535
vn 0.9762 0.1520 -0.1550
vn 0.9440 -0.0782 -0.3206
vn -0.0014 -0.9176 -0.3974
vn 0.1999 -0.9623 -0.1842
vn 0.0050 -0.6926 -0.7213
vn 0.0982 -0.8748 -0.4744
vn -0.0017 -0.3725 -0.9280
vn 0.0839 -0.6257 -0.7755
vn -0.1928 -0.1312 -0.9724
vn 0.0883 -0.2841 -0.9547
vn -0.8921 -0.3120 0.3268
vn -0.7089 -0.6455 0.2841
vn -0.3645 -0.8643 0.3466
vn -0.3050 -0.6581 0.6884
vn -0.3545 -0.3218 0.8779
vn -0.6979 -0.2667 0.6647
vn -0.6050 -0.5499 0.5758
vn 0.3645 -0.8643 0.3466
vn 0.7089 -0.6455 0.2841
vn 0.8921 -0.3120 0.3268
vn 0.6979 -0.2666 0.6647
vn 0.3545 -0.3218 0.8779
vn 0.3049 -0.6581 0.6884
vn 0.6050 -0.5499 0.5758
vn -0.3645 0.8643 0.3466
vn -0.7089 0.6455 0.2841
vn -0.8921 0.3120 0.3268
vn -0.6979 0.2666 0.6647
vn -0.3545 0.3218 0.8779
vn -0.3049 0.6581 0.6884
vn -0.6050 0.5499 0.5758
vn 0.8921 0.3120 0.3268
vn 0.7089 0.6455 0.2841
vn 0.3645 0.8643 0.3466
vn 0.3049 0.6581 0.6884
vn 0.3545 0.3218 0.8779
vn 0.6979 0.2666 0.6647
vn 0.6050 0.5499 0.5758
vn -0.3545 0.3218 -0.8779
vn -0.6979 0.2666 -0.6647
vn -0.8921 0.3119 -0.3268
vn -0.7089 0.6455 -0.2841
vn -0.3645 0.8643 -0.3466
vn -0.3049 0.6581 -0.6884
vn -0.6050 0.5499 -0.5758
vn 0.8921 0.3120 -0.3268
vn 0.6979 0.2666 -0.6647
vn 0.3545 0.3218 -0.8779
vn 0.3049 0.6581 -0.6884
vn 0.3645 0.8643 -0.3466
vn 0.7090 0.6455 -0.2841
vn 0.6051 0.5498 -0.5758
vn -0.3645 -0.8643 -0.3466
vn -0.7089 -0.6455 -0.2841
vn -0.8921 -0.3120 -0.3268
vn -0.6979 -0.2666 -0.6647
vn -0.3545 -0.3218 -0.8779
vn -0.3050 -0.6581 -0.6884
vn -0.6049 -0.5500 -0.5758
vn 0.8921 -0.3120 -0.3268
vn 0.7089 -0.6455 -0.2841
vn 0.3645 -0.8643 -0.3466
vn 0.3050 -0.6581 -0.6884
vn 0.3545 -0.3218 -0.8779
vn 0.6979 -0.2666 -0.6647
vn 0.6050 -0.5499 -0.5758
vn -0.0018 -0.9153 0.4027
vn 0.0878 -0.9469 0.3092
vn 0.7156 -0.0227 0.6982
vn -0.6802 0.7295 -0.0712
vn -0.0099 0.9999 0.0041
vn 0.0982 0.8748 0.4744
vn 0.0883 0.2841 0.9547
vn -0.0211 0.0194 -0.9996
vn 0.0057 0.0418 -0.9991
vn -0.0017 0.9153 -0.4027
vn 0.0879 0.9469 -0.3092
vn 0.0056 -0.0418 -0.9991
vn 0.0981 -0.8748 -0.4744
vn -0.1929 -0.1313 -0.9724
vn -0.3049 -0.6581 0.6884
vn -0.6979 -0.2666 0.6647
vn -0.6051 0.5498 0.5758
vn 0.3050 0.6581 0.6884
vn -0.8921 0.3120 -0.3268
vn -0.3050 0.6581 -0.6884
vn 0.3050 0.6581 -0.6884
vn 0.6050 0.5499 -0.5758
vn -0.3049 -0.6581 -0.6884
vn -0.6050 -0.5499 -0.5758
vn -0.0242 0.0678 0.9974
vn -0.7071 -0.0000 0.7071
vn -0.1494 -0.0000 0.9888
vn 0.1435 0.0255 0.9893
vn 0.1151 0.0418 0.9925
vn 0.0100 0.0618 0.9980
vn -0.0002 0.0202 0.9998
vn 0.0014 0.0474 0.9989
vn -0.2910 0.9567 0.0025
vn 0.3346 0.9418 0.0319
vn 0.3326 0.9431 -0.0000
vn 0.0760 0.0514 0.9958
vn 0.0584 0.0702 0.9958
vn 0.8267 0.5627 0.0006
vn 0.9385 0.3438 0.0325
vn 0.9388 0.3444 -0.0000
vn 0.6302 0.7758 0.0314
vn 0.6300 0.7766 -0.0000
vn 0.7106 0.6751 0.1982
vn -0.0007 -1.0000 -0.0019
vn -0.0000 -1.0000 -0.0000
vn -0.0000 -1.0000 -0.0013
vn -0.0000 -0.0584 -0.9983
vn -0.9846 -0.0325 0.1720
vn -0.6288 0.5211 0.5771
vn -0.7686 0.6398 0.0011
vn 0.7007 0.0557 0.7113
vn 0.1415 0.0115 0.9899
vn 0.9917 0.1230 0.0386
vn 0.7094 0.1457 0.6896
vn -0.0695 0.9726 0.2220
vn -0.2574 0.6866 0.6799
vn -0.0013 0.1554 0.9878
vn -0.0000 0.0917 0.9958
vn -0.0000 0.1751 0.9846
vn 0.9887 0.0372 0.1453
vn 0.6751 0.2767 0.6838
vn -0.1034 0.2739 0.9562
vn 0.2718 0.7268 0.6308
vn 0.5827 0.4216 0.6947
vn 0.4750 0.5793 0.6624
vn -0.0000 1.0000 -0.0000
vn 0.0264 -0.7145 -0.6991
vn 0.0002 -0.1005 -0.9949
vn 0.0652 -0.1004 -0.9928
vn 0.0032 -0.7259 -0.6877
vn 0.1726 -0.9745 -0.1435
vn 0.0003 -0.9980 -0.0638
vn -0.1623 0.1160 -0.9799
vn -0.0002 -0.0208 -0.9998
vn 0.5770 -0.6040 -0.5498
vn 0.7177 -0.0471 -0.6948
vn 0.7137 -0.7002 -0.0173
vn -0.0000 -0.9993 0.0381
vn 0.9980 -0.0412 -0.0478
vn 0.7072 -0.7070 -0.0008
vn 0.0790 -0.9969 -0.0006
vn 0.7086 -0.0407 -0.7045
vn 0.0660 -0.0580 -0.9961
vn 0.9989 -0.0471 -0.0001
vn 0.9981 -0.0211 -0.0582
vn -0.0003 0.6837 -0.7297
vn -0.0000 -0.7071 0.7071
vn 0.0006 0.9863 -0.1652
vn -0.0015 0.6818 -0.7316
vn -0.0011 0.1693 0.9856
vn -0.0000 0.3321 0.9433
vn -0.0000 0.3321 0.9432
vn 0.7059 -0.0412 -0.7072
vn 0.0673 -0.0582 -0.9960
vn -0.0000 -0.0513 0.9987
vn -0.0000 -0.0498 0.9988
vn -0.9856 -0.1694 -0.0000
vn -0.0000 0.1661 -0.9861
vn 0.0029 0.9773 0.2117
vn -0.0000 0.9767 0.2145
vn 0.9954 -0.0128 -0.0952
vn 0.0119 0.4996 0.8662
vn -0.0000 0.4896 0.8720
vn -0.0000 0.7969 0.6041
vn -0.0000 0.6322 0.7748
vn -0.0000 0.9989 0.0470
vn -0.0000 0.9991 0.0425
vn -0.0241 0.8109 0.5848
vn -0.0000 -0.1661 0.9861
vn 0.9856 0.1694 -0.0000
vn 0.0028 0.0317 0.9995
vn -0.0098 0.0247 0.9996
vn -0.0025 0.0280 0.9996
vn 0.6917 -0.0399 -0.7211
vn 0.0633 -0.0245 -0.9977
vn -0.0049 0.0775 0.9970
vn -0.0042 0.1644 0.9864
vn 0.9691 0.0344 -0.2442
vn -0.0000 0.6099 0.7924
vn -0.0000 0.6097 0.7926
vn -0.0021 0.0905 0.9959
vn 0.0592 0.1895 0.9801
vn 0.0644 0.3314 0.9413
vn 0.1991 0.0902 0.9758
vn 0.7258 0.1252 0.6765
vn 0.5822 0.5550 -0.5942
vn 0.0549 0.9860 -0.1573
vn 0.6919 0.7149 -0.1012
vn 0.5773 -0.5774 0.5773
vn 0.2072 -0.9724 0.1071
vn 0.7071 -0.7072 0.0007
vn 0.0146 -0.1532 0.9881
vn 0.7082 -0.0076 0.7060
vn 0.9985 -0.0437 0.0335
vn 0.6663 0.7254 0.1727
vn 0.0616 0.9752 0.2126
vn 1.0000 -0.0000 -0.0000
vn 0.1483 -0.0062 0.9889
vn 0.7069 -0.0000 0.7073
vn 0.9994 -0.0000 0.0353
vn -0.1464 0.0101 0.9892
vn -0.0024 0.0313 0.9995
vn -0.1481 0.0212 0.9888
vn 0.1938 -0.9742 -0.1155
vn -0.1095 0.0399 0.9932
vn 0.2837 0.0409 0.9580
vn 0.7013 0.0108 0.7128
vn 0.9990 0.0274 0.0340
vn 0.7071 -0.7071 -0.0000
vn -0.0707 0.0582 0.9958
vn -0.0434 0.0734 0.9964
vn -0.1622 0.7517 0.6392
vn -0.3790 0.6482 0.6604
vn 0.9999 0.0115 0.0022
vn 0.2963 0.6555 0.6947
vn 0.6654 0.4787 0.5728
vn 0.8044 0.5940 0.0031
vn 0.3248 0.9455 0.0235
vn 0.9698 -0.1929 0.1494
vn -0.9974 0.0716 0.0006
vn -0.9991 0.0428 -0.0000
vn -0.0000 -0.1661 -0.9861
vn -0.9973 0.0734 -0.0000
vn -0.9897 0.1432 -0.0000
vn -0.9896 0.1438 0.0002
vn -0.0000 0.1661 0.9861
vn -0.9374 0.3482 -0.0000
vn -0.9366 0.3504 -0.0000
vn -0.0315 -0.9380 0.3453
vn 0.1559 -0.6037 0.7818
vn 0.2758 0.6561 -0.7025
vn 0.9996 0.0290 -0.0000
vn 0.8611 0.0458 0.5064
vn 0.9944 0.0166 0.1048
vn -0.7697 0.6384 -0.0000
vn -0.7684 0.6400 -0.0000
vn -0.0013 0.9670 -0.2549
vn 0.0845 0.4338 0.8970
vn -0.0000 -1.0000 -0.0041
vn 0.0612 0.7948 0.6038
vn -0.9981 0.0428 0.0443
vn -0.9966 0.0734 0.0363
vn 0.0630 0.6310 0.7732
vn 0.9942 0.0357 0.1014
vn 0.6892 0.2406 0.6835
vn -0.5018 0.8650 -0.0000
vn -0.4999 0.8661 -0.0000
vn 0.9961 0.0864 0.0179
vn 0.6935 0.3497 0.6299
vn 0.9948 0.0500 0.0891
vn 0.6692 0.5898 0.4520
vn 0.9950 0.0786 0.0611
vn 0.6878 0.4527 0.5674
vn 0.9959 0.0572 0.0703
vn -0.2003 0.9797 -0.0000
vn -0.1994 0.9799 0.0008
vn 0.8586 0.5126 -0.0000
vn 0.3255 0.9455 -0.0014
vn 0.3609 0.9326 -0.0000
vn 0.7687 0.6371 -0.0567
vn -0.9892 0.1429 0.0334
vn -0.6999 0.0492 0.7126
vn -0.5947 0.0255 0.8036
vn -0.9371 0.3475 0.0321
vn -0.7103 0.1023 0.6964
vn -0.7696 0.6378 0.0317
vn -0.5022 0.8641 0.0324
vn -0.6756 0.2404 0.6970
vn -0.2015 0.9790 0.0305
vn -0.5732 0.4445 0.6884
vn -0.7703 0.6376 -0.0000
vn 0.9843 0.1766 -0.0000
vn -0.7113 0.0045 0.7028
vn -0.9994 -0.0000 0.0353
vn 0.9979 0.0455 0.0462
vn 0.5929 0.0270 0.8048
vn -0.9996 0.0300 -0.0000
vn 0.9963 0.0854 -0.0000
vn -0.7082 -0.0076 0.7060
vn -0.0750 -0.0505 0.9959
vn -0.9985 -0.0437 0.0334
vn 0.9990 0.0455 -0.0000
vn -0.0198 0.6765 -0.7362
vn -0.0551 0.9856 -0.1599
vn -0.0896 0.2441 0.9656
vn -0.0640 0.3314 0.9413
vn -0.0008 -0.1043 -0.9946
vn -0.0614 -0.0260 -0.9978
vn -1.0000 -0.0000 -0.0000
vn -0.6791 0.7232 0.1255
vn -0.6917 0.7144 -0.1056
vn 0.0069 0.0674 0.9977
vn -0.0000 -0.9981 -0.0615
vn -0.5774 -0.5774 0.5773
vn -0.1527 -0.9823 0.1087
vn -0.7082 -0.7061 0.0007
vn -0.5751 0.5467 -0.6086
vn 0.0003 0.0271 0.9996
vn 0.0092 0.0243 0.9997
vn -0.9906 0.0342 -0.1328
vn -0.6969 -0.0401 -0.7161
vn -0.0000 0.0192 0.9998
vn -0.1645 0.0922 0.9821
vn -0.7208 0.1213 0.6824
vn -0.8407 0.0500 0.5392
vn -0.0755 0.6707 0.7379
vn -0.0614 0.7949 0.6037
vn 0.8257 0.5641 -0.0000
vn -0.0670 0.5305 0.8450
vn -0.2412 0.9144 0.3251
vn 0.6282 0.7780 -0.0000
vn 0.9383 0.3459 -0.0000
vn -0.0002 -0.7261 -0.6876
vn 0.3313 0.9435 -0.0000
vn -0.0680 -0.0582 -0.9960
vn -0.7056 -0.0413 -0.7074
vn -0.9955 -0.0056 -0.0947
vn 0.9841 0.1774 -0.0000
vn -0.3178 0.9481 -0.0000
vn -0.1320 -0.7841 0.6064
vn -0.6644 0.6015 0.4436
vn -0.6907 0.3539 0.6306
vn -0.8356 0.5494 -0.0000
vn -0.6892 0.2406 0.6835
vn 0.9961 0.0881 -0.0000
vn -0.9917 0.0591 0.1142
vn -0.7011 0.4598 0.5449
vn -0.9948 0.0500 0.0891
vn -0.9902 0.0952 0.1017
vn -0.9942 0.0357 0.1014
vn 0.0044 0.0865 0.9962
vn 0.9856 -0.1694 -0.0000
vn -0.9944 0.0166 0.1048
vn -0.0673 -0.0582 -0.9960
vn -0.7086 -0.0411 -0.7044
vn -0.9984 -0.0033 -0.0572
vn -0.9932 -0.0752 -0.0888
vn -0.9856 0.1694 -0.0000
vn -0.9999 0.0115 0.0022
vn -0.7071 -0.7071 -0.0000
vn -0.0802 -0.9968 -0.0000
vn -0.0633 -0.0984 -0.9931
vn -0.7125 -0.0484 -0.7000
vn -0.9979 -0.0414 -0.0493
vn -0.1786 -0.9731 -0.1458
vn -0.7071 -0.7071 -0.0011
vn -0.7137 -0.7002 -0.0184
vn -0.9989 -0.0461 -0.0000
vn -0.5723 -0.5954 -0.5639
vn -0.0257 -0.7250 -0.6882
vn -0.3084 -0.9513 -0.0033
vn -0.9529 0.2340 0.1929
vn -0.0007 0.0829 0.9966
vt 0.633380 0.118769
vt 0.972229 0.130501
vt 0.633380 0.130484
vt 0.633381 0.106506
vt 0.972230 0.118786
vt 0.473952 0.015258
vt 0.132479 0.001954
vt 0.473953 0.001971
vt 0.473952 0.028650
vt 0.132478 0.015241
vt 0.592216 0.130482
vt 0.578557 0.573000
vt 0.578579 0.130481
vt 0.606527 0.130483
vt 0.592194 0.573001
vt 0.620047 0.130483
vt 0.606505 0.573001
vt 0.620025 0.573002
vt 0.486598 0.028651
vt 0.473949 0.080311
vt 0.499853 0.028651
vt 0.486596 0.080312
vt 0.578580 0.118766
vt 0.525940 0.106501
vt 0.578580 0.106503
vt 0.525939 0.118764
vt 0.473919 0.687481
vt 0.132446 0.674133
vt 0.473920 0.674149
vt 0.473919 0.700717
vt 0.132445 0.687464
vt 0.633357 0.585047
vt 0.972206 0.597632
vt 0.633357 0.597616
vt 0.633358 0.573003
vt 0.972207 0.585064
vt 0.578557 0.585045
vt 0.525917 0.572997
vt 0.578556 0.597613
vt 0.525916 0.585042
vt 0.486567 0.674150
vt 0.499824 0.622380
vt 0.499821 0.674151
vt 0.486569 0.622380
vt 0.473949 0.094172
vt 0.132475 0.080294
vt 0.473948 0.106498
vt 0.132474 0.094155
vt 0.473947 0.118761
vt 0.132474 0.106481
vt 0.473947 0.130476
vt 0.132473 0.118744
vt 0.486593 0.130477
vt 0.473925 0.572995
vt 0.499848 0.130477
vt 0.486572 0.572995
vt 0.511809 0.130478
vt 0.499826 0.572996
vt 0.525939 0.130479
vt 0.511787 0.572997
vt 0.473924 0.585039
vt 0.132451 0.572978
vt 0.473924 0.597608
vt 0.132450 0.585023
vt 0.473923 0.608521
vt 0.132450 0.597591
vt 0.473922 0.622379
vt 0.132449 0.608505
vt 0.119860 0.080293
vt 0.132478 0.028633
vt 0.106620 0.080293
vt 0.119863 0.028632
vt 0.080640 0.118742
vt 0.028856 0.106476
vt 0.080640 0.106479
vt 0.080639 0.130457
vt 0.028855 0.118739
vt 0.094608 0.130457
vt 0.080617 0.572975
vt 0.106618 0.130458
vt 0.094586 0.572976
vt 0.119858 0.130459
vt 0.106596 0.572977
vt 0.132473 0.130459
vt 0.119836 0.572977
vt 0.080617 0.585020
vt 0.028832 0.572973
vt 0.080616 0.597588
vt 0.028832 0.585018
vt 0.119833 0.622362
vt 0.106591 0.674131
vt 0.106593 0.622361
vt 0.132448 0.622362
vt 0.119831 0.674132
vt 0.985129 0.130501
vt 0.972207 0.573019
vt 0.998046 0.130502
vt 0.985108 0.573020
vt 0.015407 0.130453
vt 0.001954 0.572971
vt 0.001976 0.130453
vt 0.028854 0.130454
vt 0.015385 0.572972
vt 0.486599 0.015259
vt 0.486600 0.001972
vt 0.620048 0.106505
vt 0.620048 0.118768
vt 0.606527 0.118768
vt 0.592217 0.118767
vt 0.592218 0.106504
vt 0.499854 0.015259
vt 0.499854 0.001973
vt 0.606528 0.106504
vt 0.620025 0.585047
vt 0.620024 0.597615
vt 0.486565 0.700718
vt 0.486566 0.687481
vt 0.499820 0.687482
vt 0.592193 0.597614
vt 0.592194 0.585045
vt 0.606504 0.585046
vt 0.606504 0.597614
vt 0.499820 0.700718
vt 0.486594 0.118762
vt 0.486594 0.106499
vt 0.486595 0.094173
vt 0.499850 0.094173
vt 0.511810 0.106500
vt 0.511809 0.118763
vt 0.499849 0.118762
vt 0.499849 0.106499
vt 0.486570 0.608522
vt 0.486570 0.597608
vt 0.486571 0.585040
vt 0.499826 0.585041
vt 0.511786 0.585041
vt 0.511786 0.597610
vt 0.499824 0.608523
vt 0.499825 0.597609
vt 0.094609 0.118743
vt 0.094609 0.106479
vt 0.106619 0.094154
vt 0.119859 0.094155
vt 0.119859 0.106480
vt 0.119858 0.118744
vt 0.106618 0.118743
vt 0.106619 0.106480
vt 0.119834 0.608504
vt 0.106594 0.608503
vt 0.094585 0.597589
vt 0.094586 0.585021
vt 0.106595 0.585021
vt 0.119835 0.585022
vt 0.119835 0.597590
vt 0.106595 0.597590
vt 0.985130 0.118786
vt 0.985131 0.106523
vt 0.119864 0.001954
vt 0.119863 0.015240
vt 0.106623 0.015240
vt 0.015408 0.106475
vt 0.015407 0.118739
vt 0.001977 0.118738
vt 0.998046 0.118787
vt 0.998047 0.106524
vt 0.106624 0.001953
vt 0.001977 0.106475
vt 0.119830 0.687463
vt 0.119830 0.700700
vt 0.985106 0.597633
vt 0.985107 0.585065
vt 0.998023 0.585065
vt 0.001954 0.585016
vt 0.015384 0.585017
vt 0.015383 0.597585
vt 0.106590 0.687463
vt 0.106589 0.700699
vt 0.998023 0.597634
vt 0.001953 0.597584
vt 0.592195 0.573001
vt 0.486596 0.080311
vt 0.132446 0.674132
vt 0.633357 0.597615
vt 0.473924 0.585040
vt 0.028833 0.572973
vt 0.015406 0.130453
vt 0.499854 0.001972
vt 0.499821 0.687482
vt 0.592193 0.597613
vt 0.106590 0.700699
vt 0.998023 0.597633
vt 0.868206 0.220160
vt 0.945617 0.216915
vt 0.945581 0.225309
vt 0.893674 0.239930
vt 0.881079 0.235503
vt 0.241289 0.422504
vt 0.207263 0.033548
vt 0.242546 0.037490
vt 0.858784 0.149568
vt 0.855333 0.211145
vt 0.855596 0.149555
vt 0.873739 0.231166
vt 0.868638 0.225334
vt 0.836031 0.149471
vt 0.824601 0.211014
vt 0.824864 0.149423
vt 0.846737 0.211109
vt 0.847000 0.149518
vt 0.835768 0.211062
vt 0.589923 0.038625
vt 0.678946 0.423933
vt 0.588666 0.423639
vt 0.409914 0.038037
vt 0.494089 0.423330
vt 0.408657 0.423051
vt 0.868245 0.211201
vt 0.862856 0.216562
vt 0.862879 0.211178
vt 0.915913 0.250550
vt 0.916924 0.244414
vt 0.785025 0.210845
vt 0.809600 0.216334
vt 0.785002 0.216229
vt 0.858521 0.211159
vt 0.858498 0.216543
vt 0.861447 0.217520
vt 0.156512 0.037113
vt 0.181534 0.423490
vt 0.155254 0.422224
vt 0.892058 0.245920
vt 0.809623 0.210950
vt 0.824578 0.216398
vt 0.868206 0.220296
vt 0.861001 0.220372
vt 0.855310 0.216530
vt 0.878291 0.241103
vt 0.835745 0.216446
vt 0.862940 0.228483
vt 0.869446 0.235986
vt 0.846714 0.216493
vt 0.071309 0.036835
vt 0.070051 0.421946
vt 0.548202 0.008394
vt 0.542330 0.038469
vt 0.542429 0.008375
vt 0.548104 0.038488
vt 0.553986 0.008413
vt 0.553887 0.038507
vt 0.347720 0.037834
vt 0.346463 0.422848
vt 0.548220 0.002957
vt 0.542446 0.002938
vt 0.554003 0.002976
vt 0.680203 0.038919
vt 0.740818 0.424135
vt 0.994392 0.876294
vt 0.988996 0.871428
vt 0.994414 0.871245
vt 0.590039 0.003093
vt 0.590021 0.008530
vt 0.495462 0.002784
vt 0.495444 0.008222
vt 0.989147 0.835949
vt 0.994564 0.835972
vt 0.942806 0.875050
vt 0.988970 0.877584
vt 0.942779 0.881272
vt 0.340674 0.422829
vt 0.747779 0.039140
vt 0.746522 0.424154
vt 0.334808 0.422810
vt 0.341931 0.037815
vt 0.257387 0.422557
vt 0.275341 0.037598
vt 0.274084 0.422612
vt 0.410030 0.002505
vt 0.410012 0.007943
vt 0.864402 0.247025
vt 0.847399 0.263557
vt 0.847635 0.246790
vt 0.997041 0.256128
vt 0.989983 0.640321
vt 0.991624 0.256105
vt 0.867412 0.284723
vt 0.880934 0.263971
vt 0.884169 0.284832
vt 0.850645 0.284487
vt 0.864166 0.263792
vt 0.325990 0.037763
vt 0.324733 0.422777
vt 0.859770 0.881137
vt 0.859744 0.887364
vt 0.289942 0.422663
vt 0.291200 0.037649
vt 0.315966 0.037730
vt 0.302872 0.037687
vt 0.301615 0.422701
vt 0.009449 0.036633
vt 0.008191 0.421744
vt 0.314709 0.422744
vt 0.815566 0.274108
vt 0.834709 0.289666
vt 0.818801 0.294968
vt 0.831474 0.268805
vt 0.950512 0.247963
vt 0.495346 0.038316
vt 0.221901 0.030600
vt 0.231823 0.024432
vt 0.347836 0.002302
vt 0.347818 0.007740
vt 0.239753 0.016035
vt 0.258644 0.037543
vt 0.797979 0.886165
vt 0.797952 0.892371
vt 0.001953 0.423984
vt 0.942597 0.642765
vt 0.944260 0.253424
vt 0.243145 0.008179
vt 0.258743 0.007449
vt 0.275440 0.007503
vt 0.243280 0.004870
vt 0.258761 0.002012
vt 0.342048 0.002284
vt 0.336164 0.007702
vt 0.336181 0.002264
vt 0.793053 0.891764
vt 0.791882 0.886911
vt 0.747895 0.003609
vt 0.742173 0.009027
vt 0.742191 0.003590
vt 0.989853 0.670759
vt 0.995233 0.679353
vt 0.989816 0.679330
vt 0.989793 0.684695
vt 0.326106 0.002231
vt 0.326088 0.007669
vt 0.942974 0.835752
vt 0.943679 0.670561
vt 0.943643 0.679133
vt 0.943620 0.684497
vt 0.915183 0.651941
vt 0.948802 0.648267
vt 0.891898 0.655695
vt 0.680301 0.008825
vt 0.879269 0.659091
vt 0.866262 0.675505
vt 0.866248 0.678802
vt 0.866225 0.684167
vt 0.994947 0.746408
vt 0.871889 0.664317
vt 0.866736 0.670517
vt 0.859055 0.675999
vt 0.861062 0.668338
vt 0.865537 0.845145
vt 0.859481 0.678015
vt 0.860881 0.678779
vt 0.860859 0.684144
vt 0.856501 0.684125
vt 0.856524 0.678761
vt 0.943356 0.746187
vt 0.989530 0.746385
vt 0.782741 0.745501
vt 0.756322 0.829615
vt 0.756682 0.745390
vt 0.805781 0.324094
vt 0.824917 0.308604
vt 0.821688 0.329399
vt 0.759550 0.298455
vt 0.773089 0.319075
vt 0.756322 0.319250
vt 0.782360 0.834689
vt 0.807340 0.745606
vt 0.806955 0.835644
vt 0.793085 0.298047
vt 0.776086 0.281513
vt 0.792853 0.281281
vt 0.680319 0.003388
vt 0.789856 0.318842
vt 0.809010 0.303299
vt 0.776318 0.298280
vt 0.995210 0.684718
vt 0.822317 0.745670
vt 0.821930 0.836309
vt 0.742075 0.039121
vt 0.747878 0.009046
vt 0.342030 0.007721
vt 0.865961 0.745857
vt 0.860194 0.839737
vt 0.843985 0.847985
vt 0.842739 0.841877
vt 0.995400 0.640344
vt 0.833484 0.745718
vt 0.833095 0.836831
vt 0.336065 0.037796
vt 0.291298 0.007555
vt 0.574348 0.013997
vt 0.574293 0.030699
vt 0.316064 0.007636
vt 0.756945 0.683700
vt 0.783005 0.683811
vt 0.302971 0.007593
vt 0.829249 0.851915
vt 0.826997 0.846089
vt 0.275458 0.002066
vt 0.844453 0.745765
vt 0.844063 0.837234
vt 0.798967 0.878349
vt 0.813181 0.853054
vt 0.816445 0.858380
vt 0.291315 0.002118
vt 0.795068 0.868639
vt 0.800505 0.872147
vt 0.803976 0.859684
vt 0.808053 0.864439
vt 0.316082 0.002199
vt 0.302988 0.002156
vt 0.853049 0.745802
vt 0.852658 0.837476
vt 0.856238 0.745815
vt 0.855846 0.837524
vt 0.860595 0.745834
vt 0.807603 0.683917
vt 0.783028 0.678447
vt 0.914225 0.645788
vt 0.822581 0.683981
vt 0.807626 0.678552
vt 0.833747 0.684028
vt 0.890333 0.649634
vt 0.844717 0.684075
vt 0.822604 0.678616
vt 0.853313 0.684112
vt 0.833770 0.678663
vt 0.876530 0.653446
vt 0.844739 0.678710
vt 0.867635 0.659887
vt 0.853335 0.678747
vt 0.722549 0.014481
vt 0.739335 0.014536
vt 0.722494 0.031183
vt 0.863142 0.149587
vt 0.809886 0.149359
vt 0.868222 0.216585
vt 0.945640 0.211531
vt 0.758965 0.210734
vt 0.758942 0.216118
vt 0.868508 0.149610
vt 0.785288 0.149254
vt 0.991791 0.217112
vt 0.991755 0.225506
vt 0.991814 0.211728
vt 0.759228 0.149143
vt 0.340576 0.453083
vt 0.334710 0.453064
vt 0.257289 0.452811
vt 0.273986 0.452865
vt 0.541073 0.423483
vt 0.346364 0.453102
vt 0.945903 0.149940
vt 0.324616 0.458502
vt 0.334692 0.458535
vt 0.238359 0.442786
vt 0.552630 0.423521
vt 0.997208 0.217136
vt 0.740719 0.454389
vt 0.746406 0.459879
vt 0.740701 0.459860
vt 0.997230 0.211752
vt 0.340558 0.458554
vt 0.230481 0.435503
vt 0.220594 0.430719
vt 0.801729 0.008171
vt 0.796851 0.002492
vt 0.801755 0.001953
vt 0.346346 0.458573
vt 0.205979 0.426707
vt 0.241812 0.454503
vt 0.257271 0.458282
vt 0.239843 0.458225
vt 0.301517 0.452955
vt 0.314610 0.452998
vt 0.836421 0.058102
vt 0.289844 0.452917
vt 0.324634 0.453031
vt 0.847392 0.057794
vt 0.825252 0.058476
vt 0.546847 0.423502
vt 0.855989 0.057598
vt 0.408558 0.453305
vt 0.408540 0.458776
vt 0.863501 0.007775
vt 0.863474 0.014002
vt 0.810272 0.058967
vt 0.859177 0.057583
vt 0.997172 0.225530
vt 0.314592 0.458469
vt 0.746424 0.454408
vt 0.289826 0.458388
vt 0.863544 0.055411
vt 0.273968 0.458337
vt 0.785671 0.059640
vt 0.802624 0.022214
vt 0.807500 0.034719
vt 0.798669 0.025654
vt 0.819956 0.036197
vt 0.816648 0.041485
vt 0.801520 0.015988
vt 0.795098 0.016996
vt 0.832704 0.042831
vt 0.830404 0.048628
vt 0.241699 0.451022
vt 0.795639 0.007339
vt 0.898021 0.313458
vt 0.911559 0.292896
vt 0.914788 0.313691
vt 0.928327 0.293071
vt 0.931555 0.313866
vt 0.846108 0.053046
vt 0.847407 0.046954
vt 0.493990 0.453584
vt 0.493972 0.459055
vt 0.946480 0.014936
vt 0.946453 0.021158
vt 0.992077 0.150137
vt 0.759590 0.064347
vt 0.878868 0.297915
vt 0.882096 0.318710
vt 0.862960 0.303220
vt 0.866189 0.324015
vt 0.911791 0.276129
vt 0.894792 0.292663
vt 0.895025 0.275897
vt 0.868933 0.050071
vt 0.946285 0.060598
vt 0.997494 0.150161
vt 0.678847 0.454187
vt 0.540975 0.453737
vt 0.540957 0.459208
vt 0.992636 0.019245
vt 0.992609 0.025441
vt 0.552532 0.453775
vt 0.588550 0.459364
vt 0.552514 0.459246
vt 0.998025 0.025694
vt 0.992458 0.060795
vt 0.546730 0.459227
vt 0.546748 0.453756
vt 0.998047 0.020617
vt 0.588567 0.453892
vt 0.997875 0.060818
vt 0.678829 0.459658
vt 0.721131 0.448870
vt 0.721185 0.432177
vt 0.737972 0.432232
vt 0.821690 0.255053
vt 0.808168 0.234301
vt 0.824925 0.234192
vt 0.775465 0.229357
vt 0.756322 0.244916
vt 0.759557 0.224055
vt 0.804923 0.255231
vt 0.791402 0.234536
vt 0.772230 0.250218
vt 0.788156 0.255467
vt 0.805158 0.271998
vt 0.788391 0.272233
vt 0.572984 0.431693
vt 0.572929 0.448386
vt 0.556241 0.431638
vt 0.556186 0.448331
vt 0.557550 0.030644
vt 0.739281 0.031238
vt 0.811617 0.030029
vt 0.182800 0.035984
vt 0.972230 0.106523
vt 0.499850 0.080312
vt 0.132444 0.700700
vt 0.525916 0.597610
vt 0.106623 0.028632
vt 0.028831 0.597586
vt 0.998024 0.573021
vt 0.003225 0.034315
vt 0.241333 0.001955
vt 0.995270 0.670782
vt 0.557605 0.013943
vt 0.791424 0.877249
vt 0.756968 0.678335
vt 0.301499 0.458426
vt 0.737917 0.448925
s 1
usemtl initialShadingGroup
f 3/1/1 84/2/2 4/3/3
f 2/4/4 73/5/5 3/1/1
f 1/6/6 74/7/7 2/8/4
f 12/9/8 75/10/9 1/6/6
f 7/11/10 20/12/11 8/13/12
f 6/14/13 21/15/14 7/11/10
f 5/16/15 22/17/16 6/14/13
f 4/3/3 23/18/17 5/16/15
f 11/19/18 28/20/19 12/9/8
f 10/21/20 29/22/21 11/19/18
f 9/23/22 30/24/23 10/25/20
f 8/13/12 31/26/24 9/23/22
f 15/27/25 96/28/26 16/29/27
f 14/30/28 85/31/29 15/27/25
f 13/32/30 86/33/31 14/34/28
f 24/35/32 87/36/33 13/32/30
f 19/37/34 44/38/35 20/12/11
f 18/39/36 45/40/37 19/37/34
f 17/41/38 46/42/39 18/43/36
f 16/29/27 47/44/40 17/41/38
f 27/45/41 52/46/42 28/20/19
f 26/47/43 53/48/44 27/45/41
f 25/49/45 54/50/46 26/47/43
f 36/51/47 55/52/48 25/49/45
f 35/53/49 40/54/50 36/51/47
f 34/55/51 41/56/52 35/53/49
f 33/57/53 42/58/54 34/55/51
f 32/59/55 43/60/56 33/57/53
f 39/61/57 68/62/58 40/54/50
f 38/63/59 69/64/60 39/61/57
f 37/65/61 70/66/62 38/63/59
f 48/67/63 71/68/64 37/65/61
f 51/69/65 76/70/66 52/46/42
f 50/71/67 77/72/68 51/69/65
f 49/73/69 78/74/70 50/75/67
f 60/76/71 79/77/72 49/73/69
f 59/78/73 64/79/74 60/76/71
f 58/80/75 65/81/76 59/78/73
f 57/82/77 66/83/78 58/80/75
f 56/84/79 67/85/80 57/82/77
f 63/86/81 92/87/82 64/79/74
f 62/88/83 93/89/84 63/86/81
f 61/90/85 94/91/86 62/92/83
f 72/93/87 95/94/88 61/90/85
f 83/95/89 88/96/90 84/2/2
f 82/97/91 89/98/92 83/95/89
f 81/99/93 90/100/94 82/101/91
f 80/102/95 91/103/96 81/99/93
f 20/12/11 32/59/55 8/13/12
f 40/54/50 56/84/79 36/51/47
f 64/79/74 80/102/95 60/76/71
f 88/96/90 4/3/3 84/2/2
f 96/28/26 48/67/63 16/29/27
f 12/9/8 52/46/42 76/70/66
f 12/9/8 97/104/97 11/19/18
f 1/6/6 98/105/98 97/104/97
f 98/106/98 3/1/1 99/107/99
f 4/3/3 99/107/99 3/1/1
f 5/16/15 100/108/100 99/107/99
f 100/108/100 7/11/10 101/109/101
f 8/13/12 101/109/101 7/11/10
f 9/23/22 102/110/102 101/109/101
f 102/111/102 11/19/18 97/104/97
f 97/104/97 103/112/103 102/111/102
f 99/107/99 103/113/103 98/106/98
f 101/109/101 103/113/103 100/108/100
f 24/35/32 104/114/104 23/18/17
f 13/32/30 105/115/105 104/114/104
f 105/116/105 15/27/25 106/117/106
f 16/29/27 106/117/106 15/27/25
f 17/41/38 107/118/107 106/117/106
f 107/119/107 19/37/34 108/120/108
f 20/12/11 108/120/108 19/37/34
f 21/15/14 109/121/109 108/120/108
f 109/121/109 23/18/17 104/114/104
f 104/114/104 110/122/110 109/121/109
f 106/117/106 110/123/110 105/116/105
f 108/120/108 110/122/110 107/119/107
f 36/51/47 111/124/111 35/53/49
f 25/49/45 112/125/112 111/124/111
f 112/125/112 27/45/41 113/126/113
f 28/20/19 113/126/113 27/45/41
f 29/22/21 114/127/114 113/126/113
f 114/128/114 31/26/24 115/129/115
f 32/59/55 115/129/115 31/26/24
f 33/57/53 116/130/116 115/129/115
f 116/130/116 35/53/49 111/124/111
f 111/124/111 117/131/117 116/130/116
f 113/126/113 117/131/117 112/125/112
f 115/129/115 117/131/117 114/128/114
f 48/67/63 118/132/118 47/44/40
f 37/65/61 119/133/119 118/132/118
f 119/133/119 39/61/57 120/134/120
f 40/54/50 120/134/120 39/61/57
f 41/56/52 121/135/121 120/134/120
f 121/135/121 43/60/56 122/136/122
f 44/38/35 122/136/122 43/60/56
f 45/40/37 123/137/123 122/136/122
f 123/138/123 47/44/40 118/132/118
f 118/132/118 124/139/124 123/138/123
f 120/134/120 124/139/124 119/133/119
f 122/136/122 124/139/124 121/135/121
f 60/76/71 125/140/125 59/78/73
f 49/73/69 126/141/126 125/140/125
f 126/142/126 51/69/65 127/143/127
f 52/46/42 127/143/127 51/69/65
f 53/48/44 128/144/128 127/143/127
f 128/144/128 55/52/48 129/145/129
f 56/84/79 129/145/129 55/52/48
f 57/82/77 130/146/130 129/145/129
f 130/146/130 59/78/73 125/140/125
f 125/140/125 131/147/131 130/146/130
f 127/143/127 131/147/131 126/142/126
f 129/145/129 131/147/131 128/144/128
f 72/93/87 132/148/132 71/68/64
f 61/90/85 133/149/133 132/148/132
f 133/150/133 63/86/81 134/151/134
f 64/79/74 134/151/134 63/86/81
f 65/81/76 135/152/135 134/151/134
f 135/152/135 67/85/80 136/153/136
f 68/62/58 136/153/136 67/85/80
f 69/64/60 137/154/137 136/153/136
f 137/154/137 71/68/64 132/148/132
f 132/148/132 138/155/138 137/154/137
f 134/151/134 138/155/138 133/150/133
f 136/153/136 138/155/138 135/152/135
f 84/2/2 139/156/139 83/95/89
f 73/5/5 140/157/140 139/156/139
f 140/158/140 75/10/9 141/159/141
f 76/70/66 141/159/141 75/10/9
f 77/72/68 142/160/142 141/159/141
f 142/161/142 79/77/72 143/162/143
f 80/102/95 143/162/143 79/77/72
f 81/99/93 144/163/144 143/162/143
f 144/164/144 83/95/89 139/156/139
f 139/156/139 145/165/145 144/164/144
f 141/159/141 145/166/145 140/158/140
f 143/162/143 145/167/145 142/161/142
f 96/28/26 146/168/146 95/94/88
f 85/31/29 147/169/147 146/168/146
f 147/170/147 87/36/33 148/171/148
f 88/96/90 148/171/148 87/36/33
f 89/98/92 149/172/149 148/171/148
f 149/173/149 91/103/96 150/174/150
f 92/87/82 150/174/150 91/103/96
f 93/89/84 151/175/151 150/174/150
f 151/176/151 95/94/88 146/168/146
f 146/168/146 152/177/152 151/176/151
f 148/171/148 152/178/152 147/170/147
f 150/174/150 152/179/152 149/173/149
f 155/1/1 236/2/2 156/3/3
f 154/4/4 225/5/5 155/1/1
f 153/6/6 226/7/7 154/8/4
f 164/9/8 227/10/9 153/6/6
f 159/11/10 172/12/11 160/13/12
f 158/14/13 173/180/14 159/11/10
f 157/16/153 174/17/16 158/14/13
f 156/3/3 175/18/154 157/16/153
f 163/19/18 180/20/19 164/9/8
f 162/21/20 181/181/21 163/19/18
f 161/23/22 182/24/23 162/25/20
f 160/13/12 183/26/24 161/23/22
f 167/27/25 248/182/26 168/29/27
f 166/30/28 237/31/29 167/27/25
f 165/32/30 238/33/31 166/183/28
f 176/35/32 239/36/33 165/32/30
f 171/37/34 196/38/35 172/12/11
f 170/39/155 197/40/37 171/37/34
f 169/41/38 198/42/39 170/43/155
f 168/29/27 199/44/40 169/41/38
f 179/45/41 204/46/42 180/20/19
f 178/47/43 205/48/44 179/45/41
f 177/49/45 206/50/156 178/47/43
f 188/51/157 207/52/48 177/49/45
f 187/53/49 192/54/50 188/51/157
f 186/55/51 193/56/158 187/53/49
f 185/57/53 194/58/54 186/55/51
f 184/59/55 195/60/159 185/57/53
f 191/184/57 220/62/58 192/54/50
f 190/63/59 221/64/60 191/184/57
f 189/65/61 222/66/62 190/63/59
f 200/67/63 223/68/64 189/65/61
f 203/69/65 228/70/66 204/46/42
f 202/71/67 229/72/68 203/69/65
f 201/73/69 230/74/70 202/75/67
f 212/76/160 231/77/72 201/73/69
f 211/78/73 216/79/161 212/76/160
f 210/80/75 217/81/76 211/78/73
f 209/82/162 218/83/78 210/80/75
f 208/84/79 219/85/163 209/82/162
f 215/86/81 244/185/164 216/79/161
f 214/88/83 245/89/84 215/86/81
f 213/90/85 246/91/86 214/92/83
f 224/93/87 247/94/88 213/90/85
f 235/95/89 240/96/90 236/2/2
f 234/97/91 241/98/165 235/95/89
f 233/186/93 242/100/94 234/101/91
f 232/102/166 243/103/96 233/186/93
f 172/12/11 184/59/55 160/13/12
f 192/54/50 208/84/79 188/51/157
f 216/79/161 232/102/166 212/76/160
f 240/96/90 156/3/3 236/2/2
f 248/182/26 200/67/63 168/29/27
f 164/9/8 204/46/42 228/70/66
f 164/9/8 249/104/97 163/19/18
f 153/6/6 250/105/98 249/104/97
f 250/106/98 155/1/1 251/107/99
f 156/3/3 251/107/99 155/1/1
f 157/16/153 252/108/167 251/107/99
f 252/108/167 159/11/10 253/109/101
f 160/13/12 253/109/101 159/11/10
f 161/23/22 254/110/168 253/109/101
f 254/111/168 163/19/18 249/104/97
f 249/104/97 255/187/103 254/111/168
f 251/107/99 255/113/103 250/106/98
f 253/109/101 255/113/103 252/108/167
f 176/35/32 256/114/104 175/18/154
f 165/32/30 257/115/105 256/114/104
f 257/116/105 167/27/25 258/117/106
f 168/29/27 258/117/106 167/27/25
f 169/41/38 259/188/107 258/117/106
f 259/189/107 171/37/34 260/120/108
f 172/12/11 260/120/108 171/37/34
f 173/180/14 261/121/109 260/120/108
f 261/121/109 175/18/154 256/114/104
f 256/114/104 262/122/110 261/121/109
f 258/117/106 262/123/110 257/116/105
f 260/120/108 262/122/110 259/189/107
f 188/51/157 263/124/111 187/53/49
f 177/49/45 264/125/112 263/124/111
f 264/125/112 179/45/41 265/126/113
f 180/20/19 265/126/113 179/45/41
f 181/181/21 266/127/114 265/126/113
f 266/128/114 183/26/24 267/129/115
f 184/59/55 267/129/115 183/26/24
f 185/57/53 268/130/116 267/129/115
f 268/130/116 187/53/49 263/124/111
f 263/124/111 269/131/169 268/130/116
f 265/126/113 269/131/169 264/125/112
f 267/129/115 269/131/169 266/128/114
f 200/67/63 270/132/118 199/44/40
f 189/65/61 271/133/119 270/132/118
f 271/133/119 191/184/57 272/134/120
f 192/54/50 272/134/120 191/184/57
f 193/56/158 273/135/170 272/134/120
f 273/135/170 195/60/159 274/136/122
f 196/38/35 274/136/122 195/60/159
f 197/40/37 275/137/123 274/136/122
f 275/138/123 199/44/40 270/132/118
f 270/132/118 276/139/124 275/138/123
f 272/134/120 276/139/124 271/133/119
f 274/136/122 276/139/124 273/135/170
f 212/76/160 277/140/125 211/78/73
f 201/73/69 278/141/126 277/140/125
f 278/142/126 203/69/65 279/143/171
f 204/46/42 279/143/171 203/69/65
f 205/48/44 280/144/128 279/143/171
f 280/144/128 207/52/48 281/145/129
f 208/84/79 281/145/129 207/52/48
f 209/82/162 282/146/172 281/145/129
f 282/146/172 211/78/73 277/140/125
f 277/140/125 283/147/131 282/146/172
f 279/143/171 283/147/131 278/142/126
f 281/145/129 283/147/131 280/144/128
f 224/93/87 284/148/132 223/68/64
f 213/90/85 285/149/133 284/148/132
f 285/150/133 215/86/81 286/151/134
f 216/79/161 286/151/134 215/86/81
f 217/81/76 287/152/173 286/151/134
f 287/152/173 219/85/163 288/153/136
f 220/62/58 288/153/136 219/85/163
f 221/64/60 289/154/137 288/153/136
f 289/154/137 223/68/64 284/148/132
f 284/148/132 290/155/174 289/154/137
f 286/151/134 290/155/174 285/150/133
f 288/153/136 290/155/174 287/152/173
f 236/2/2 291/156/139 235/95/89
f 225/5/5 292/157/140 291/156/139
f 292/158/140 227/10/9 293/159/141
f 228/70/66 293/159/141 227/10/9
f 229/72/68 294/160/142 293/159/141
f 294/161/142 231/77/72 295/162/143
f 232/102/166 295/162/143 231/77/72
f 233/186/93 296/163/175 295/162/143
f 296/164/175 235/95/89 291/156/139
f 291/156/139 297/165/176 296/164/175
f 293/159/141 297/166/176 292/158/140
f 295/162/143 297/167/176 294/161/142
f 248/182/26 298/168/146 247/94/88
f 237/31/29 299/169/147 298/168/146
f 299/170/147 239/36/33 300/171/148
f 240/96/90 300/171/148 239/36/33
f 241/98/165 301/172/149 300/171/148
f 301/173/149 243/103/96 302/174/150
f 244/185/164 302/174/150 243/103/96
f 245/89/84 303/175/151 302/174/150
f 303/176/151 247/94/88 298/168/146
f 298/168/146 304/190/152 303/176/151
f 300/171/148 304/191/152 299/170/147
f 302/174/150 304/179/152 301/173/149
f 307/192/177 306/193/178 310/194/179
f 308/195/180 309/196/181 310/194/179
f 412/197/182 371/198/183 382/199/184
f 313/200/185 315/201/186 312/202/187
f 310/194/179 309/196/181 316/203/188
f 310/194/179 316/203/188 317/204/189
f 319/205/190 321/206/191 318/207/192
f 312/202/187 323/208/193 322/209/194
f 322/209/194 320/210/195 319/205/190
f 325/211/196 327/212/197 324/213/198
f 329/214/199 331/215/199 328/216/199
f 333/217/200 332/218/201 334/219/202
f 336/220/203 308/195/180 335/221/204
f 338/222/205 337/223/206 336/224/203
f 317/204/189 307/192/177 310/194/179
f 314/225/207 332/218/201 341/226/208
f 332/218/201 307/192/177 341/227/208
f 342/228/209 311/229/210 343/230/211
f 337/231/206 309/196/181 308/195/180
f 339/232/212 344/233/213 337/223/206
f 341/227/208 340/234/214 345/235/215
f 314/225/207 345/236/215 315/201/186
f 344/237/213 316/203/188 309/196/181
f 321/206/191 346/238/216 344/233/213
f 340/234/214 347/239/217 345/235/215
f 346/240/216 317/204/189 316/203/188
f 345/236/215 323/208/193 315/201/186
f 320/210/195 347/241/217 346/238/216
f 349/242/218 343/230/218 348/243/218
f 352/244/219 351/245/220 355/246/221
f 350/247/222 356/248/223 353/249/224
f 358/250/225 328/216/199 357/251/226
f 359/252/227 355/246/221 362/253/228
f 356/248/223 359/252/227 363/254/229
f 326/255/197 361/256/230 327/212/197
f 359/257/227 364/258/231 363/259/229
f 356/248/223 365/260/232 368/261/233
f 366/262/234 355/246/221 370/263/235
f 363/259/229 367/264/236 365/265/232
f 369/266/237 362/267/228 366/268/234
f 372/269/238 358/250/225 357/251/226
f 361/256/230 375/270/239 374/271/239
f 376/272/240 373/273/241 372/269/238
f 379/274/242 381/275/243 378/276/244
f 383/277/245 370/263/235 404/278/246
s 0
f 385/279/197 387/280/197 384/281/197
s 1
f 374/282/239 389/283/247 388/284/248
s 0
f 390/285/249 385/286/249 391/287/249
f 392/288/250 386/289/250 390/285/250
s 1
f 394/290/251 376/272/240 393/291/252
f 395/292/253 366/268/234 383/293/245
f 397/294/254 381/275/243 396/295/255
f 393/291/252 399/296/256 394/290/251
f 397/294/254 401/297/257 400/298/257
f 403/299/258 348/243/218 402/300/259
f 400/298/257 399/296/256 398/301/260
s 0
f 385/302/261 405/303/261 391/304/261
f 384/305/262 392/288/262 405/303/262
s 1
f 389/283/247 407/306/263 388/284/248
f 370/263/235 351/245/220 330/307/199
f 371/198/183 408/308/264 382/199/184
f 409/309/265 382/199/184 408/308/264
f 410/310/266 404/278/246 417/311/267
f 382/199/184 409/309/265 411/312/268
f 380/313/269 412/197/182 382/199/184
f 413/314/270 383/293/245 410/315/266
f 414/316/271 403/299/258 402/300/259
f 407/306/263 415/317/272 414/318/271
f 380/313/269 411/312/268 416/319/273
f 381/275/243 422/320/274 418/321/275
f 421/322/276 420/323/277 422/320/274
f 417/311/267 423/324/278 410/310/266
f 423/324/278 425/325/279 430/326/280
f 413/314/270 423/327/278 430/328/280
f 428/329/281 427/330/282 429/331/283
f 431/332/284 428/333/281 434/334/285
f 428/333/281 432/335/286 434/334/285
f 433/336/287 425/325/279 435/337/288
f 364/258/231 436/338/289 367/264/236
f 437/339/290 434/334/285 438/340/291
f 438/340/291 432/335/286 440/341/292
f 368/261/233 326/255/197 325/211/196
f 329/214/199 370/263/235 330/307/199
f 437/339/290 441/342/293 406/343/294
f 437/339/290 442/344/295 441/342/293
f 365/260/232 439/345/296 368/261/233
f 437/339/290 444/346/297 442/344/295
f 445/347/298 438/340/291 446/348/299
f 446/348/299 440/341/292 450/349/300
f 367/264/236 443/350/301 365/265/232
f 437/339/290 448/351/302 444/346/297
f 449/352/303 448/351/302 437/339/290
f 449/352/303 437/339/290 445/347/298
f 449/352/303 453/353/304 451/354/305
f 369/266/237 452/355/306 436/338/289
f 445/347/298 454/356/307 453/353/304
f 445/347/298 455/357/308 454/356/307
f 455/357/308 450/349/300 456/358/309
f 455/357/308 457/359/310 454/360/307
f 367/264/236 458/361/289 447/362/311
f 459/363/312 342/364/313 349/365/313
f 358/250/225 404/278/246 329/214/199
s 0
f 460/366/314 462/367/314 463/368/314
f 462/369/249 465/370/249 463/371/249
s 1
f 354/372/315 466/373/316 371/374/317
s 0
f 467/375/197 462/376/197 461/377/197
s 1
f 427/330/282 443/378/301 429/331/283
s 0
f 468/379/262 461/380/262 460/366/262
f 464/381/318 468/379/318 465/370/318
s 1
f 429/382/283 447/362/311 432/335/286
f 371/374/317 469/383/319 408/384/320
f 373/273/241 417/311/267 358/250/225
f 422/320/274 416/319/273 421/322/276
f 360/385/321 426/386/322 375/270/239
f 373/273/241 425/325/279 424/387/323
f 436/338/289 470/388/324 458/361/289
f 419/389/325 471/390/326 420/391/277
f 375/392/239 431/332/284 389/283/247
f 408/384/320 472/393/327 409/394/328
f 435/337/288 377/395/329 394/290/251
f 473/396/330 381/275/243 418/321/275
f 405/397/331 356/248/223 368/261/233
f 353/249/224 391/398/331 325/211/196
f 435/337/288 399/296/256 474/399/332
f 459/363/312 403/400/333 475/401/334
f 396/295/255 476/402/335 401/297/257
f 420/391/277 477/403/336 478/404/337
f 447/362/311 440/341/292 432/335/286
f 422/320/274 478/405/337 418/321/275
f 401/297/257 474/399/332 399/296/256
f 409/394/328 479/406/338 411/407/339
f 430/328/280 480/408/340 413/314/270
f 482/409/341 477/403/336 481/410/342
f 473/396/330 478/405/337 482/411/341
f 480/408/340 483/412/343 484/413/344
f 486/414/345 481/410/342 485/415/346
f 433/336/287 474/399/332 483/416/343
f 431/332/284 406/343/294 389/283/247
f 476/402/335 482/411/341 486/417/345
f 484/413/344 486/414/345 485/415/346
f 483/416/343 476/402/335 486/417/345
f 411/407/339 487/418/347 416/419/348
f 419/389/349 470/388/324 452/355/306
f 489/420/350 416/419/348 487/418/347
f 421/421/351 488/422/352 419/389/349
f 459/363/312 490/423/353 466/373/316
f 403/400/333 491/424/354 475/401/334
f 415/317/355 441/342/293 491/425/354
f 466/373/316 492/426/356 469/383/319
f 475/401/334 493/427/357 490/423/353
f 440/341/292 470/388/324 450/349/300
f 469/383/319 494/428/358 472/393/327
f 491/425/354 442/344/295 493/429/357
f 472/393/327 495/430/359 479/406/338
f 496/431/360 490/423/353 493/427/357
f 444/346/297 493/429/357 442/344/295
f 479/406/338 497/432/361 487/418/347
f 498/433/362 492/426/356 496/431/360
f 489/420/350 497/432/361 457/359/310
f 450/349/300 488/422/352 456/358/309
f 456/358/309 489/420/350 457/359/310
f 448/351/302 496/434/360 444/346/297
f 451/435/305 494/428/358 498/433/362
f 449/352/303 498/436/362 448/351/302
f 497/432/361 451/435/305 453/437/304
f 457/359/310 453/437/304 454/360/307
f 460/438/197 427/330/282 468/439/197
f 463/440/197 360/385/321 326/255/197
f 480/408/340 395/292/253 413/314/270
f 314/225/207 499/441/363 334/219/202
f 318/207/192 339/232/212 500/442/364
f 305/443/365 502/444/366 306/193/178
f 308/195/180 310/194/179 335/221/204
f 402/445/367 336/224/203 414/446/368
f 334/219/202 501/447/369 333/217/200
f 414/318/368 335/221/204 407/306/263
f 335/221/204 310/194/179 407/306/263
f 500/442/364 338/222/205 503/448/370
f 310/194/179 505/449/371 506/450/372
f 306/193/178 511/451/373 505/449/371
f 338/222/205 348/452/374 503/448/370
f 376/272/240 514/453/375 507/454/376
f 508/455/377 378/276/244 509/456/378
f 330/307/199 510/457/379 331/215/199
f 372/269/238 512/458/380 514/453/375
f 502/444/366 501/447/369 513/459/381
f 515/460/382 507/454/376 521/461/383
f 379/274/242 524/462/384 412/197/182
f 353/249/224 324/213/198 518/463/385
f 520/464/386 506/450/372 505/449/371
f 506/450/372 407/306/263 310/194/179
f 522/465/387 520/466/386 527/467/388
f 520/464/386 511/451/373 527/468/388
f 507/454/376 523/469/389 521/461/383
f 524/462/384 525/470/390 412/197/182
f 526/471/391 412/197/182 525/470/390
f 528/472/392 523/473/389 529/474/393
f 523/469/389 512/458/380 529/475/393
f 412/197/182 526/471/391 504/476/394
f 531/477/395 530/478/396 535/479/397
f 533/480/398 398/301/260 532/481/399
f 525/482/400 322/209/194 319/205/190
f 534/483/401 400/298/257 533/480/398
f 516/484/402 398/301/260 393/291/252
f 524/485/403 312/202/187 322/209/194
f 526/486/404 319/205/190 318/207/192
f 536/487/405 353/249/224 518/463/385
f 517/488/406 313/200/185 312/202/187
f 510/457/379 350/247/222 536/487/405
f 534/483/401 378/276/244 397/294/254
f 529/475/393 537/489/407 538/490/408
f 528/472/392 538/491/408 541/492/409
f 516/484/402 376/272/240 507/454/376
f 504/493/410 318/207/192 500/442/364
f 531/494/411 499/441/363 313/200/185
f 519/495/412 388/284/248 506/450/372
f 539/496/413 533/480/398 532/481/399
f 522/465/387 374/271/239 519/497/412
f 533/480/398 542/498/414 534/483/401
f 535/499/415 501/447/369 499/441/363
f 515/460/382 532/481/399 516/484/402
f 534/483/401 544/500/416 509/456/378
f 311/501/417 500/442/364 503/448/370
f 545/502/418 540/503/419 539/504/413
f 540/503/419 547/505/420 542/506/414
f 548/507/421 539/504/413 515/508/382
f 542/506/414 549/509/422 544/510/416
f 508/455/377 544/500/416 530/478/396
f 508/455/377 517/511/423 379/274/242
f 521/512/383 548/507/421 515/508/382
s 0
f 550/513/318 552/514/318 553/515/318
f 553/515/424 554/516/424 555/517/424
s 1
f 530/518/396 549/509/422 556/519/425
f 538/490/408 557/520/426 558/521/427
f 541/492/409 558/522/427 562/523/428
f 559/524/429 502/444/366 513/459/381
f 503/448/370 343/525/374 311/501/417
s 0
f 561/526/430 550/513/430 560/527/430
f 554/528/314 560/527/314 555/529/314
f 554/530/197 551/531/197 561/532/197
s 1
f 512/458/380 328/216/199 537/489/407
f 535/499/397 556/519/425 543/533/431
f 563/534/381 501/447/369 543/533/431
f 511/451/373 564/535/432 527/468/388
f 527/467/388 565/536/433 522/465/387
f 558/521/427 566/537/434 567/538/435
f 562/523/428 567/539/435 573/540/436
f 569/541/437 568/542/438 572/543/439
f 572/544/439 571/545/440 573/540/436
f 569/541/437 574/546/441 575/547/442
f 574/548/441 573/540/436 567/539/435
f 566/537/434 574/546/441 567/538/435
f 571/545/440 513/459/381 563/534/381
f 562/523/428 543/533/431 541/492/409
f 328/216/199 557/520/426 537/489/407
f 324/213/198 565/536/433 570/549/443
f 568/550/438 559/524/429 571/545/440
f 570/549/443 564/551/432 568/542/438
f 560/552/197 522/465/387 565/536/433
f 573/540/436 563/534/381 562/523/428
f 331/215/199 566/537/434 557/520/426
f 555/553/197 361/256/230 553/554/197
s 0
f 577/555/424 579/556/424 576/557/424
f 580/558/261 577/559/261 576/560/261
s 1
f 575/547/442 518/463/385 569/541/437
f 575/547/442 510/457/379 536/487/405
s 0
f 578/561/250 583/562/250 579/556/250
f 583/562/430 581/563/430 580/558/430
f 582/564/197 577/565/197 581/566/197
s 1
f 576/567/331 570/549/443 580/568/331
f 548/507/421 541/492/409 545/502/418
f 569/541/437 579/569/331 583/570/331
f 522/465/387 553/554/197 361/256/230
f 555/553/197 565/536/433 327/212/197
f 518/463/385 576/567/331 579/569/331
f 569/541/437 580/568/331 570/549/443
f 356/248/223 390/571/331 353/249/224
f 391/398/331 368/261/233 325/211/196
f 439/345/296 463/440/197 326/255/197
f 465/572/197 427/330/282 360/385/321
f 485/415/346 395/292/253 484/413/344
f 484/413/344 395/292/253 480/408/340
f 477/403/336 395/292/253 481/410/342
f 481/410/342 395/292/253 485/415/346
f 471/390/326 452/355/306 395/292/253
f 471/390/326 395/292/253 477/403/336
f 528/472/392 541/492/409 548/507/421
f 546/573/444 541/492/409 547/505/420
f 545/502/418 541/492/409 546/573/444
f 549/509/422 541/492/409 556/519/425
f 547/505/420 541/492/409 549/509/422
f 556/519/425 541/492/409 543/533/431
f 371/198/183 311/229/210 354/574/445
f 3/1/1 73/5/5 84/2/2
f 2/4/4 74/575/7 73/5/5
f 1/6/6 75/10/9 74/7/7
f 12/9/8 76/70/66 75/10/9
f 7/11/10 21/15/14 20/12/11
f 6/14/13 22/17/16 21/15/14
f 5/16/15 23/18/17 22/17/16
f 4/3/3 24/35/32 23/18/17
f 11/19/18 29/22/21 28/20/19
f 10/21/20 30/576/23 29/22/21
f 9/23/22 31/26/24 30/24/23
f 8/13/12 32/59/55 31/26/24
f 15/27/25 85/31/29 96/28/26
f 14/30/28 86/577/31 85/31/29
f 13/32/30 87/36/33 86/33/31
f 24/35/32 88/96/90 87/36/33
f 19/37/34 45/40/37 44/38/35
f 18/39/36 46/578/39 45/40/37
f 17/41/38 47/44/40 46/42/39
f 16/29/27 48/67/63 47/44/40
f 27/45/41 53/48/44 52/46/42
f 26/47/43 54/50/46 53/48/44
f 25/49/45 55/52/48 54/50/46
f 36/51/47 56/84/79 55/52/48
f 35/53/49 41/56/52 40/54/50
f 34/55/51 42/58/54 41/56/52
f 33/57/53 43/60/56 42/58/54
f 32/59/55 44/38/35 43/60/56
f 39/61/57 69/64/60 68/62/58
f 38/63/59 70/66/62 69/64/60
f 37/65/61 71/68/64 70/66/62
f 48/67/63 72/93/87 71/68/64
f 51/69/65 77/72/68 76/70/66
f 50/71/67 78/579/70 77/72/68
f 49/73/69 79/77/72 78/74/70
f 60/76/71 80/102/95 79/77/72
f 59/78/73 65/81/76 64/79/74
f 58/80/75 66/83/78 65/81/76
f 57/82/77 67/85/80 66/83/78
f 56/84/79 68/62/58 67/85/80
f 63/86/81 93/89/84 92/87/82
f 62/88/83 94/580/86 93/89/84
f 61/90/85 95/94/88 94/91/86
f 72/93/87 96/28/26 95/94/88
f 83/95/89 89/98/92 88/96/90
f 82/97/91 90/581/94 89/98/92
f 81/99/93 91/103/96 90/100/94
f 80/102/95 92/87/82 91/103/96
f 20/12/11 44/38/35 32/59/55
f 40/54/50 68/62/58 56/84/79
f 64/79/74 92/87/82 80/102/95
f 88/96/90 24/35/32 4/3/3
f 96/28/26 72/93/87 48/67/63
f 12/9/8 28/20/19 52/46/42
f 12/9/8 1/6/6 97/104/97
f 1/6/6 2/8/4 98/105/98
f 98/106/98 2/4/4 3/1/1
f 4/3/3 5/16/15 99/107/99
f 5/16/15 6/14/13 100/108/100
f 100/108/100 6/14/13 7/11/10
f 8/13/12 9/23/22 101/109/101
f 9/23/22 10/25/20 102/110/102
f 102/111/102 10/21/20 11/19/18
f 97/104/97 98/105/98 103/112/103
f 99/107/99 100/108/100 103/113/103
f 101/109/101 102/110/102 103/113/103
f 24/35/32 13/32/30 104/114/104
f 13/32/30 14/34/28 105/115/105
f 105/116/105 14/30/28 15/27/25
f 16/29/27 17/41/38 106/117/106
f 17/41/38 18/43/36 107/118/107
f 107/119/107 18/39/36 19/37/34
f 20/12/11 21/15/14 108/120/108
f 21/15/14 22/17/16 109/121/109
f 109/121/109 22/17/16 23/18/17
f 104/114/104 105/115/105 110/122/110
f 106/117/106 107/118/107 110/123/110
f 108/120/108 109/121/109 110/122/110
f 36/51/47 25/49/45 111/124/111
f 25/49/45 26/47/43 112/125/112
f 112/125/112 26/47/43 27/45/41
f 28/20/19 29/22/21 113/126/113
f 29/22/21 30/576/23 114/127/114
f 114/128/114 30/24/23 31/26/24
f 32/59/55 33/57/53 115/129/115
f 33/57/53 34/55/51 116/130/116
f 116/130/116 34/55/51 35/53/49
f 111/124/111 112/125/112 117/131/117
f 113/126/113 114/127/114 117/131/117
f 115/129/115 116/130/116 117/131/117
f 48/67/63 37/65/61 118/132/118
f 37/65/61 38/63/59 119/133/119
f 119/133/119 38/63/59 39/61/57
f 40/54/50 41/56/52 120/134/120
f 41/56/52 42/58/54 121/135/121
f 121/135/121 42/58/54 43/60/56
f 44/38/35 45/40/37 122/136/122
f 45/40/37 46/578/39 123/137/123
f 123/138/123 46/42/39 47/44/40
f 118/132/118 119/133/119 124/139/124
f 120/134/120 121/135/121 124/139/124
f 122/136/122 123/137/123 124/139/124
f 60/76/71 49/73/69 125/140/125
f 49/73/69 50/75/67 126/141/126
f 126/142/126 50/71/67 51/69/65
f 52/46/42 53/48/44 127/143/127
f 53/48/44 54/50/46 128/144/128
f 128/144/128 54/50/46 55/52/48
f 56/84/79 57/82/77 129/145/129
f 57/82/77 58/80/75 130/146/130
f 130/146/130 58/80/75 59/78/73
f 125/140/125 126/141/126 131/147/131
f 127/143/127 128/144/128 131/147/131
f 129/145/129 130/146/130 131/147/131
f 72/93/87 61/90/85 132/148/132
f 61/90/85 62/92/83 133/149/133
f 133/150/133 62/88/83 63/86/81
f 64/79/74 65/81/76 134/151/134
f 65/81/76 66/83/78 135/152/135
f 135/152/135 66/83/78 67/85/80
f 68/62/58 69/64/60 136/153/136
f 69/64/60 70/66/62 137/154/137
f 137/154/137 70/66/62 71/68/64
f 132/148/132 133/149/133 138/155/138
f 134/151/134 135/152/135 138/155/138
f 136/153/136 137/154/137 138/155/138
f 84/2/2 73/5/5 139/156/139
f 73/5/5 74/575/7 140/157/140
f 140/158/140 74/7/7 75/10/9
f 76/70/66 77/72/68 141/159/141
f 77/72/68 78/579/70 142/160/142
f 142/161/142 78/74/70 79/77/72
f 80/102/95 81/99/93 143/162/143
f 81/99/93 82/101/91 144/163/144
f 144/164/144 82/97/91 83/95/89
f 139/156/139 140/157/140 145/165/145
f 141/159/141 142/160/142 145/166/145
f 143/162/143 144/163/144 145/167/145
f 96/28/26 85/31/29 146/168/146
f 85/31/29 86/577/31 147/169/147
f 147/170/147 86/33/31 87/36/33
f 88/96/90 89/98/92 148/171/148
f 89/98/92 90/581/94 149/172/149
f 149/173/149 90/100/94 91/103/96
f 92/87/82 93/89/84 150/174/150
f 93/89/84 94/580/86 151/175/151
f 151/176/151 94/91/86 95/94/88
f 146/168/146 147/169/147 152/177/152
f 148/171/148 149/172/149 152/178/152
f 150/174/150 151/175/151 152/179/152
f 155/1/1 225/5/5 236/2/2
f 154/4/4 226/575/7 225/5/5
f 153/6/6 227/10/9 226/7/7
f 164/9/8 228/70/66 227/10/9
f 159/11/10 173/180/14 172/12/11
f 158/14/13 174/17/16 173/180/14
f 157/16/153 175/18/154 174/17/16
f 156/3/3 176/35/32 175/18/154
f 163/19/18 181/181/21 180/20/19
f 162/21/20 182/576/23 181/181/21
f 161/23/22 183/26/24 182/24/23
f 160/13/12 184/59/55 183/26/24
f 167/27/25 237/31/29 248/182/26
f 166/30/28 238/577/31 237/31/29
f 165/32/30 239/36/33 238/33/31
f 176/35/32 240/96/90 239/36/33
f 171/37/34 197/40/37 196/38/35
f 170/39/155 198/578/39 197/40/37
f 169/41/38 199/44/40 198/42/39
f 168/29/27 200/67/63 199/44/40
f 179/45/41 205/48/44 204/46/42
f 178/47/43 206/50/156 205/48/44
f 177/49/45 207/52/48 206/50/156
f 188/51/157 208/84/79 207/52/48
f 187/53/49 193/56/158 192/54/50
f 186/55/51 194/58/54 193/56/158
f 185/57/53 195/60/159 194/58/54
f 184/59/55 196/38/35 195/60/159
f 191/184/57 221/64/60 220/62/58
f 190/63/59 222/66/62 221/64/60
f 189/65/61 223/68/64 222/66/62
f 200/67/63 224/93/87 223/68/64
f 203/69/65 229/72/68 228/70/66
f 202/71/67 230/579/70 229/72/68
f 201/73/69 231/77/72 230/74/70
f 212/76/160 232/102/166 231/77/72
f 211/78/73 217/81/76 216/79/161
f 210/80/75 218/83/78 217/81/76
f 209/82/162 219/85/163 218/83/78
f 208/84/79 220/62/58 219/85/163
f 215/86/81 245/89/84 244/185/164
f 214/88/83 246/580/86 245/89/84
f 213/90/85 247/94/88 246/91/86
f 224/93/87 248/182/26 247/94/88
f 235/95/89 241/98/165 240/96/90
f 234/97/91 242/581/94 241/98/165
f 233/186/93 243/103/96 242/100/94
f 232/102/166 244/185/164 243/103/96
f 172/12/11 196/38/35 184/59/55
f 192/54/50 220/62/58 208/84/79
f 216/79/161 244/185/164 232/102/166
f 240/96/90 176/35/32 156/3/3
f 248/182/26 224/93/87 200/67/63
f 164/9/8 180/20/19 204/46/42
f 164/9/8 153/6/6 249/104/97
f 153/6/6 154/8/4 250/105/98
f 250/106/98 154/4/4 155/1/1
f 156/3/3 157/16/153 251/107/99
f 157/16/153 158/14/13 252/108/167
f 252/108/167 158/14/13 159/11/10
f 160/13/12 161/23/22 253/109/101
f 161/23/22 162/25/20 254/110/168
f 254/111/168 162/21/20 163/19/18
f 249/104/97 250/105/98 255/187/103
f 251/107/99 252/108/167 255/113/103
f 253/109/101 254/110/168 255/113/103
f 176/35/32 165/32/30 256/114/104
f 165/32/30 166/183/28 257/115/105
f 257/116/105 166/30/28 167/27/25
f 168/29/27 169/41/38 258/117/106
f 169/41/38 170/43/155 259/188/107
f 259/189/107 170/39/155 171/37/34
f 172/12/11 173/180/14 260/120/108
f 173/180/14 174/17/16 261/121/109
f 261/121/109 174/17/16 175/18/154
f 256/114/104 257/115/105 262/122/110
f 258/117/106 259/188/107 262/123/110
f 260/120/108 261/121/109 262/122/110
f 188/51/157 177/49/45 263/124/111
f 177/49/45 178/47/43 264/125/112
f 264/125/112 178/47/43 179/45/41
f 180/20/19 181/181/21 265/126/113
f 181/181/21 182/576/23 266/127/114
f 266/128/114 182/24/23 183/26/24
f 184/59/55 185/57/53 267/129/115
f 185/57/53 186/55/51 268/130/116
f 268/130/116 186/55/51 187/53/49
f 263/124/111 264/125/112 269/131/169
f 265/126/113 266/127/114 269/131/169
f 267/129/115 268/130/116 269/131/169
f 200/67/63 189/65/61 270/132/118
f 189/65/61 190/63/59 271/133/119
f 271/133/119 190/63/59 191/184/57
f 192/54/50 193/56/158 272/134/120
f 193/56/158 194/58/54 273/135/170
f 273/135/170 194/58/54 195/60/159
f 196/38/35 197/40/37 274/136/122
f 197/40/37 198/578/39 275/137/123
f 275/138/123 198/42/39 199/44/40
f 270/132/118 271/133/119 276/139/124
f 272/134/120 273/135/170 276/139/124
f 274/136/122 275/137/123 276/139/124
f 212/76/160 201/73/69 277/140/125
f 201/73/69 202/75/67 278/141/126
f 278/142/126 202/71/67 203/69/65
f 204/46/42 205/48/44 279/143/171
f 205/48/44 206/50/156 280/144/128
f 280/144/128 206/50/156 207/52/48
f 208/84/79 209/82/162 281/145/129
f 209/82/162 210/80/75 282/146/172
f 282/146/172 210/80/75 211/78/73
f 277/140/125 278/141/126 283/147/131
f 279/143/171 280/144/128 283/147/131
f 281/145/129 282/146/172 283/147/131
f 224/93/87 213/90/85 284/148/132
f 213/90/85 214/92/83 285/149/133
f 285/150/133 214/88/83 215/86/81
f 216/79/161 217/81/76 286/151/134
f 217/81/76 218/83/78 287/152/173
f 287/152/173 218/83/78 219/85/163
f 220/62/58 221/64/60 288/153/136
f 221/64/60 222/66/62 289/154/137
f 289/154/137 222/66/62 223/68/64
f 284/148/132 285/149/133 290/155/174
f 286/151/134 287/152/173 290/155/174
f 288/153/136 289/154/137 290/155/174
f 236/2/2 225/5/5 291/156/139
f 225/5/5 226/575/7 292/157/140
f 292/158/140 226/7/7 227/10/9
f 228/70/66 229/72/68 293/159/141
f 229/72/68 230/579/70 294/160/142
f 294/161/142 230/74/70 231/77/72
f 232/102/166 233/186/93 295/162/143
f 233/186/93 234/101/91 296/163/175
f 296/164/175 234/97/91 235/95/89
f 291/156/139 292/157/140 297/165/176
f 293/159/141 294/160/142 297/166/176
f 295/162/143 296/163/175 297/167/176
f 248/182/26 237/31/29 298/168/146
f 237/31/29 238/577/31 299/169/147
f 299/170/147 238/33/31 239/36/33
f 240/96/90 241/98/165 300/171/148
f 241/98/165 242/581/94 301/172/149
f 301/173/149 242/100/94 243/103/96
f 244/185/164 245/89/84 302/174/150
f 245/89/84 246/580/86 303/175/151
f 303/176/151 246/91/86 247/94/88
f 298/168/146 299/169/147 304/190/152
f 300/171/148 301/172/149 304/191/152
f 302/174/150 303/175/151 304/179/152
f 307/192/177 305/443/365 306/193/178
f 412/197/182 504/476/394 371/198/183
f 313/200/185 314/225/207 315/201/186
f 319/205/190 320/210/195 321/206/191
f 312/202/187 315/201/186 323/208/193
f 322/209/194 323/208/193 320/210/195
f 325/211/196 326/255/197 327/212/197
f 329/214/199 330/307/199 331/215/199
f 333/217/200 305/443/365 332/218/201
f 336/220/203 337/231/206 308/195/180
f 338/222/205 339/232/212 337/223/206
f 317/204/189 340/234/214 307/192/177
f 314/225/207 334/219/202 332/218/201
f 332/218/201 305/443/365 307/192/177
f 342/228/209 354/574/445 311/229/210
f 337/231/206 344/237/213 309/196/181
f 339/232/212 321/206/191 344/233/213
f 341/227/208 307/192/177 340/234/214
f 314/225/207 341/226/208 345/236/215
f 344/237/213 346/240/216 316/203/188
f 321/206/191 320/210/195 346/238/216
f 340/234/214 317/204/189 347/239/217
f 346/240/216 347/239/217 317/204/189
f 345/236/215 347/241/217 323/208/193
f 320/210/195 323/208/193 347/241/217
f 349/242/218 342/228/218 343/230/218
f 352/244/219 350/247/222 351/245/220
f 350/247/222 352/244/219 356/248/223
f 358/250/225 329/214/199 328/216/199
f 359/252/227 352/244/219 355/246/221
f 356/248/223 352/244/219 359/252/227
f 326/255/197 360/385/321 361/256/230
f 359/257/227 362/267/228 364/258/231
f 356/248/223 363/254/229 365/260/232
f 366/262/234 362/253/228 355/246/221
f 363/259/229 364/258/231 367/264/236
f 369/266/237 364/258/231 362/267/228
f 372/269/238 373/273/241 358/250/225
f 361/256/230 360/385/321 375/270/239
f 376/272/240 377/395/329 373/273/241
f 379/274/242 380/313/269 381/275/243
f 383/277/245 366/262/234 370/263/235
s 0
f 385/279/197 386/289/197 387/280/197
s 1
f 374/282/239 375/392/239 389/283/247
s 0
f 390/285/249 386/289/249 385/286/249
f 392/288/250 387/280/250 386/289/250
s 1
f 394/290/251 377/395/329 376/272/240
f 395/292/253 369/266/237 366/268/234
f 397/294/254 378/276/244 381/275/243
f 393/291/252 398/301/260 399/296/256
f 397/294/254 396/295/255 401/297/257
f 403/299/258 349/242/218 348/243/218
f 400/298/257 401/297/257 399/296/256
s 0
f 385/302/261 384/305/261 405/303/261
f 384/305/262 387/280/262 392/288/262
s 1
f 389/283/247 406/343/294 407/306/263
f 370/263/235 355/246/221 351/245/220
f 410/310/266 383/277/245 404/278/246
f 380/313/269 379/274/242 412/197/182
f 413/314/270 395/292/253 383/293/245
f 414/316/271 415/582/272 403/299/258
f 407/306/263 406/343/294 415/317/272
f 380/313/269 382/199/184 411/312/268
f 381/275/243 380/313/269 422/320/274
f 421/322/276 419/583/325 420/323/277
f 417/311/267 424/387/323 423/324/278
f 423/324/278 424/387/323 425/325/279
f 413/314/270 410/315/266 423/327/278
f 428/329/281 426/386/322 427/330/282
f 431/332/284 426/584/322 428/333/281
f 428/333/281 429/382/283 432/335/286
f 433/336/287 430/326/280 425/325/279
f 364/258/231 369/266/237 436/338/289
f 437/339/290 431/332/284 434/334/285
f 438/340/291 434/334/285 432/335/286
f 368/261/233 439/345/296 326/255/197
f 329/214/199 404/278/246 370/263/235
f 365/260/232 443/378/301 439/345/296
f 445/347/298 437/339/290 438/340/291
f 446/348/299 438/340/291 440/341/292
f 367/264/236 447/362/311 443/350/301
f 449/352/303 445/347/298 453/353/304
f 369/266/237 395/292/253 452/355/306
f 445/347/298 446/348/299 455/357/308
f 455/357/308 446/348/299 450/349/300
f 455/357/308 456/358/309 457/359/310
f 367/264/236 436/338/289 458/361/289
f 459/363/312 354/372/315 342/364/313
f 358/250/225 417/311/267 404/278/246
s 0
f 460/366/314 461/380/314 462/367/314
f 462/369/249 464/381/249 465/370/249
s 1
f 354/372/315 459/363/312 466/373/316
s 0
f 467/375/197 464/381/197 462/376/197
s 1
f 427/330/282 439/345/296 443/378/301
s 0
f 468/379/262 467/375/262 461/380/262
f 464/381/318 467/375/318 468/379/318
s 1
f 429/382/283 443/350/301 447/362/311
f 371/374/317 466/373/316 469/383/319
f 373/273/241 424/387/323 417/311/267
f 422/320/274 380/313/269 416/319/273
f 360/385/321 427/330/282 426/386/322
f 373/273/241 377/395/329 425/325/279
f 436/338/289 452/355/306 470/388/324
f 419/389/325 452/355/306 471/390/326
f 375/392/239 426/584/322 431/332/284
f 408/384/320 469/383/319 472/393/327
f 435/337/288 425/325/279 377/395/329
f 473/396/330 396/295/255 381/275/243
f 405/397/331 392/585/331 356/248/223
f 353/249/224 390/571/331 391/398/331
f 435/337/288 394/290/251 399/296/256
f 459/363/312 349/365/313 403/400/333
f 396/295/255 473/396/330 476/402/335
f 420/391/277 471/390/326 477/403/336
f 447/362/311 458/361/289 440/341/292
f 422/320/274 420/323/277 478/405/337
f 401/297/257 476/402/335 474/399/332
f 409/394/328 472/393/327 479/406/338
f 430/328/280 433/586/287 480/408/340
f 482/409/341 478/404/337 477/403/336
f 473/396/330 418/321/275 478/405/337
f 480/408/340 433/586/287 483/412/343
f 486/414/345 482/409/341 481/410/342
f 433/336/287 435/337/288 474/399/332
f 431/332/284 437/339/290 406/343/294
f 476/402/335 473/396/330 482/411/341
f 484/413/344 483/412/343 486/414/345
f 483/416/343 474/399/332 476/402/335
f 411/407/339 479/406/338 487/418/347
f 419/389/349 488/422/352 470/388/324
f 489/420/350 421/421/351 416/419/348
f 421/421/351 489/420/350 488/422/352
f 459/363/312 475/401/334 490/423/353
f 403/400/333 415/587/355 491/424/354
f 415/317/355 406/343/294 441/342/293
f 466/373/316 490/423/353 492/426/356
f 475/401/334 491/424/354 493/427/357
f 440/341/292 458/361/289 470/388/324
f 469/383/319 492/426/356 494/428/358
f 491/425/354 441/342/293 442/344/295
f 472/393/327 494/428/358 495/430/359
f 496/431/360 492/426/356 490/423/353
f 444/346/297 496/434/360 493/429/357
f 479/406/338 495/430/359 497/432/361
f 498/433/362 494/428/358 492/426/356
f 489/420/350 487/418/347 497/432/361
f 450/349/300 470/388/324 488/422/352
f 456/358/309 488/422/352 489/420/350
f 448/351/302 498/436/362 496/434/360
f 451/435/305 495/430/359 494/428/358
f 449/352/303 451/354/305 498/436/362
f 497/432/361 495/430/359 451/435/305
f 457/359/310 497/432/361 453/437/304
f 460/438/197 439/345/296 427/330/282
f 463/440/197 465/572/197 360/385/321
f 314/225/207 313/200/185 499/441/363
f 318/207/192 321/206/191 339/232/212
f 305/443/365 333/217/200 502/444/366
f 402/445/367 338/222/205 336/224/203
f 334/219/202 499/441/363 501/447/369
f 414/318/368 336/220/203 335/221/204
f 500/442/364 339/232/212 338/222/205
f 310/194/179 306/193/178 505/449/371
f 306/193/178 502/444/366 511/451/373
f 338/222/205 402/445/367 348/452/374
f 376/272/240 372/269/238 514/453/375
f 508/455/377 379/274/242 378/276/244
f 330/307/199 351/245/220 510/457/379
f 372/269/238 357/251/226 512/458/380
f 502/444/366 333/217/200 501/447/369
f 515/460/382 516/484/402 507/454/376
f 379/274/242 517/511/423 524/462/384
f 353/249/224 325/211/196 324/213/198
f 520/464/386 519/495/412 506/450/372
f 506/450/372 388/284/248 407/306/263
f 522/465/387 519/497/412 520/466/386
f 520/464/386 505/449/371 511/451/373
f 507/454/376 514/453/375 523/469/389
f 528/472/392 521/512/383 523/473/389
f 523/469/389 514/453/375 512/458/380
f 531/477/395 508/455/377 530/478/396
f 533/480/398 400/298/257 398/301/260
f 525/482/400 524/485/403 322/209/194
f 534/483/401 397/294/254 400/298/257
f 516/484/402 532/481/399 398/301/260
f 524/485/403 517/488/406 312/202/187
f 526/486/404 525/482/400 319/205/190
f 536/487/405 350/247/222 353/249/224
f 517/488/406 531/494/411 313/200/185
f 510/457/379 351/245/220 350/247/222
f 534/483/401 509/456/378 378/276/244
f 529/475/393 512/458/380 537/489/407
f 528/472/392 529/474/393 538/491/408
f 516/484/402 393/291/252 376/272/240
f 504/493/410 526/486/404 318/207/192
f 531/494/411 535/499/415 499/441/363
f 519/495/412 374/282/239 388/284/248
f 539/496/413 540/588/419 533/480/398
f 522/465/387 361/256/230 374/271/239
f 533/480/398 540/588/419 542/498/414
f 535/499/415 543/533/431 501/447/369
f 515/460/382 539/496/413 532/481/399
f 534/483/401 542/498/414 544/500/416
f 311/501/417 504/493/410 500/442/364
f 545/502/418 546/573/444 540/503/419
f 540/503/419 546/573/444 547/505/420
f 548/507/421 545/502/418 539/504/413
f 542/506/414 547/505/420 549/509/422
f 508/455/377 509/456/378 544/500/416
f 508/455/377 531/477/395 517/511/423
f 521/512/383 528/472/392 548/507/421
s 0
f 550/513/318 551/531/318 552/514/318
f 553/515/424 552/514/424 554/516/424
s 1
f 530/518/396 544/510/416 549/509/422
f 538/490/408 537/489/407 557/520/426
f 541/492/409 538/491/408 558/522/427
f 559/524/429 511/451/373 502/444/366
f 503/448/370 348/452/374 343/525/374
s 0
f 561/526/430 551/531/430 550/513/430
f 554/528/314 561/526/314 560/527/314
f 554/530/197 552/514/197 551/531/197
s 1
f 512/458/380 357/251/226 328/216/199
f 535/499/397 530/518/396 556/519/425
f 563/534/381 513/459/381 501/447/369
f 511/451/373 559/524/429 564/535/432
f 527/467/388 564/551/432 565/536/433
f 558/521/427 557/520/426 566/537/434
f 562/523/428 558/522/427 567/539/435
f 569/541/437 570/549/443 568/542/438
f 572/544/439 568/550/438 571/545/440
f 569/541/437 572/543/439 574/546/441
f 574/548/441 572/544/439 573/540/436
f 566/537/434 575/547/442 574/546/441
f 571/545/440 559/524/429 513/459/381
f 562/523/428 563/534/381 543/533/431
f 328/216/199 331/215/199 557/520/426
f 324/213/198 327/212/197 565/536/433
f 568/550/438 564/535/432 559/524/429
f 570/549/443 565/536/433 564/551/432
f 560/552/197 550/589/197 522/465/387
f 573/540/436 571/545/440 563/534/381
f 331/215/199 510/457/379 566/537/434
f 555/553/197 327/212/197 361/256/230
s 0
f 577/555/424 578/561/424 579/556/424
f 580/558/261 581/563/261 577/559/261
s 1
f 575/547/442 536/487/405 518/463/385
f 575/547/442 566/537/434 510/457/379
s 0
f 578/561/250 582/564/250 583/562/250
f 583/562/430 582/564/430 581/563/430
f 582/564/197 578/561/197 577/565/197
s 1
f 576/567/331 324/213/198 570/549/443
f 569/541/437 518/463/385 579/569/331
f 522/465/387 550/589/197 553/554/197
f 555/553/197 560/552/197 565/536/433
f 518/463/385 324/213/198 576/567/331
f 569/541/437 583/570/331 580/568/331
f 356/248/223 392/585/331 390/571/331
f 391/398/331 405/397/331 368/261/233
f 439/345/296 460/438/197 463/440/197
f 465/572/197 468/439/197 427/330/282
f 371/198/183 504/476/394 311/229/210
