# Blender 4.2.3 LTS
# www.blender.org
mtllib tree_2.mtl
o _6_tree.001
v 0.000713 0.643623 0.001096
v 0.110671 0.622625 0.130344
v 0.060180 0.635532 0.241995
v -0.108683 0.670012 0.140712
v -0.091950 0.644063 0.205084
v -0.041299 -0.006339 0.195131
v -0.136840 -0.006335 0.077346
v -0.041299 0.113015 0.195131
v -0.134857 -0.006339 -0.015674
v -0.041299 -0.006339 -0.127634
v -0.041299 0.113015 -0.127634
v -0.134857 0.113015 -0.015674
v 0.134857 -0.006339 0.083171
v 0.041299 -0.006339 0.195131
v 0.041299 0.113015 0.195131
v 0.134857 0.113015 0.083171
v 0.041299 -0.006339 -0.127634
v 0.134857 -0.006339 -0.015674
v 0.134857 0.113015 -0.015674
v 0.042037 1.067949 0.100130
v 0.073250 1.082025 0.249994
v -0.071315 1.070693 0.136520
v -0.017815 -0.006318 0.372424
v -0.017815 0.053413 0.372424
v -0.248179 0.048037 -0.099511
v -0.283521 0.013957 -0.199620
v -0.289419 -0.006316 -0.196663
v -0.248179 -0.006319 -0.099511
v 0.263133 0.044687 -0.049591
v 0.263133 -0.006319 -0.049591
v 0.035053 0.053413 0.361082
v 0.035053 -0.006318 0.361082
v 0.362460 -0.006254 -0.055799
v 0.272610 0.044687 0.013676
v 0.009731 0.052648 -0.264773
v 0.009731 -0.006330 -0.264773
v 0.071949 -0.006328 -0.334393
v 0.046024 0.106841 -0.127857
v 0.060531 -0.006127 0.483684
v -0.335580 -0.006250 -0.098247
v 0.344250 -0.006258 -0.121594
v 0.110541 -0.006219 0.461350
v 0.006852 -0.006244 -0.363185
v 0.066228 0.016324 -0.339201
v -0.080760 0.984889 0.138114
v -0.085290 0.984883 0.198976
v -0.085883 1.069842 0.195038
v 0.032822 0.986289 0.080734
v -0.005014 1.113057 0.094778
v -0.043064 1.110809 0.280336
v 0.018030 0.986271 0.279470
v 0.005791 1.079963 0.293903
v 0.080760 0.987017 0.216670
v 0.085290 0.987023 0.155808
v 0.085486 1.072665 0.185651
v -0.316545 1.147810 0.093073
v -0.305691 1.083298 0.116652
v -0.310296 1.094109 0.164092
v -0.326198 1.156756 0.138428
v 0.239644 1.115363 -0.065102
v 0.144857 1.238217 0.499532
v 0.198274 1.242394 0.457065
v 0.221287 1.176073 0.462797
v 0.246979 1.244193 0.625525
v 0.309977 1.357872 0.736227
v 0.350933 1.361378 0.718528
v -0.001406 0.634774 0.263232
v -0.114149 0.581833 0.112340
v 0.093694 0.609070 0.054371
v -0.074123 0.676242 0.037277
v -0.068436 0.591199 0.010834
v -0.247542 0.833817 -0.075408
v -0.227922 0.833817 -0.121744
v -0.249528 0.791739 -0.087129
v -0.226321 0.791739 -0.133710
v 0.439286 1.268341 -0.180520
v 0.400844 1.295096 -0.153960
v 0.398930 1.296748 -0.167218
v 0.442541 1.266975 -0.223808
v 0.444876 1.264804 -0.200511
v 0.445747 1.263954 -0.190004
v 0.412362 1.295205 -0.227685
v 0.439972 1.276875 -0.256363
v 0.444310 1.273579 -0.259083
v 0.414744 1.309150 -0.228295
v 0.382566 1.288326 -0.199940
v 0.373561 1.242008 -0.196868
v 0.373354 1.236599 -0.195573
v 0.373045 1.235896 -0.195183
v 0.324405 1.222594 -0.152063
v 0.350942 1.230132 -0.176605
v 0.377268 1.282861 -0.150991
v 0.358738 1.265831 -0.110830
v 0.255454 1.206064 -0.087930
v 0.302424 1.234879 -0.094926
v 0.355374 1.368194 0.729263
v 0.357202 1.365902 0.730078
v 0.320822 1.369703 0.752976
v 0.320675 1.366548 0.756036
v 0.355618 1.360849 0.735958
v 0.363063 1.348847 0.741774
v 0.324538 1.354347 0.764643
v 0.371776 1.337777 0.749829
v 0.348788 1.335988 0.770299
v 0.330839 1.340677 0.778091
v 0.035967 1.241989 0.087699
v 0.047002 1.251794 0.113554
v 0.063203 1.264180 0.145655
v -0.000055 1.238430 0.086260
v -0.016448 1.240065 0.095099
v -0.068243 1.246151 0.125702
v -0.066276 1.269316 0.192770
v -0.078345 1.259246 0.166398
v 0.068358 1.315745 0.212982
v 0.038774 1.320594 0.228659
v 0.077005 1.288046 0.173267
v -0.042301 1.308016 0.237049
v -0.065505 1.270630 0.194287
v -0.022027 1.324041 0.252167
v -0.004032 1.330016 0.254561
v -0.034994 1.320819 0.250279
v -0.287969 0.853341 -0.110520
v -0.258903 0.851608 -0.138008
v -0.286201 0.859385 -0.112636
v -0.286384 0.843292 -0.111300
v -0.259283 0.847530 -0.139399
v -0.280452 0.826126 -0.160850
v -0.300246 0.827982 -0.128450
v -0.289101 0.860182 -0.109791
v -0.459968 1.118879 0.098589
v -0.397990 1.147817 0.090292
v -0.458882 1.123114 0.120793
v -0.456845 1.126059 0.132471
v -0.455439 1.127459 0.138433
v -0.390491 1.156845 0.132750
v -0.376522 1.157515 0.086509
v -0.374568 1.163119 0.123937
v -0.372900 1.164693 0.130318
vn -0.9913 -0.0000 0.1313
vn -0.7766 -0.0000 0.6300
vn -0.3933 0.9038 -0.1688
vn 0.7840 -0.0000 -0.6208
vn 0.7674 -0.0000 0.6412
vn -0.9695 -0.0186 0.2445
vn -0.1195 0.8535 -0.5072
vn 0.4504 -0.0000 0.8928
vn 0.2849 -0.0000 -0.9586
vn -0.0000 0.9411 0.3380
vn -0.2556 -0.0000 -0.9668
vn 0.4549 0.8879 -0.0681
vn 0.4535 0.8887 -0.0679
vn 0.9993 -0.0000 0.0376
vn -0.5947 -0.0000 0.8039
vn -0.9372 -0.0000 -0.3487
vn 0.0642 0.9220 -0.3819
vn -0.8875 0.1975 -0.4164
vn -0.8176 -0.0000 0.5757
vn -0.4773 -0.0408 -0.8778
vn -0.5260 0.8444 -0.1018
vn 0.1799 0.8990 0.3992
vn 0.9825 0.0490 0.1797
vn 0.9701 0.2426 -0.0112
vn 0.0467 -0.0695 -0.9965
vn 0.4467 0.8861 -0.1237
vn -0.9184 0.0946 0.3842
vn 0.8913 0.0090 -0.4533
vn 0.5359 0.1517 0.8305
vn 0.7074 0.0095 0.7067
vn 0.0618 -0.3334 -0.9407
vn 0.8070 0.1698 -0.5656
vn -0.7656 -0.1423 0.6273
vn 0.9952 0.0641 0.0741
vn 0.9827 0.0128 0.1850
vn -0.0716 -0.0421 0.9965
vn -0.9028 0.0253 0.4293
vn -0.8964 0.0143 0.4431
vn -0.7204 0.2013 -0.6637
vn 0.2908 0.1907 -0.9376
vn 0.2905 0.1906 -0.9377
vn 0.2894 0.1903 -0.9381
vn 0.2891 0.1902 -0.9382
vn -0.9934 0.0875 -0.0739
vn 0.3602 0.9268 -0.1061
vn -0.7588 -0.1871 0.6239
vn -0.5183 0.8543 0.0393
vn 0.5355 -0.8370 -0.1121
vn 0.6481 0.2022 0.7342
vn -0.6559 0.2437 -0.7145
vn 0.5260 -0.8109 0.2564
vn -0.3983 -0.9168 -0.0297
vn 0.7267 0.2778 -0.6283
vn -0.1317 0.0450 0.9903
vn -0.3878 0.8272 -0.4065
vn -0.2419 -0.9509 0.1932
vn -0.2097 0.9303 -0.3009
vn 0.8022 0.2308 -0.5506
vn 0.2085 0.9355 -0.2853
vn -0.0816 0.3600 0.9294
vn -0.0826 0.3598 0.9294
vn -0.0884 0.3583 0.9294
vn -0.6097 -0.1624 -0.7758
vn -0.6098 -0.1625 -0.7757
vn -0.9990 0.0370 0.0262
vn 0.5351 0.1615 -0.8292
vn -0.0000 -0.1294 0.9916
vn 0.0141 0.2347 -0.9720
vn 0.9058 -0.0702 0.4178
vn 0.9711 0.0673 -0.2290
vn -0.7315 -0.0825 0.6769
vn -0.7597 0.1407 -0.6348
vn -0.8689 -0.0964 0.4856
vn -0.8693 -0.0998 0.4841
vn -0.8696 -0.1016 0.4833
vn 0.7942 0.1940 -0.5759
vn 0.5639 0.7908 0.2380
vn 0.5645 0.7907 0.2369
vn 0.5648 0.7906 0.2363
vn -0.6247 -0.7162 -0.3112
vn 0.4185 0.8908 0.1772
vn -0.4420 -0.8696 -0.2202
vn -0.6908 -0.1636 0.7043
vn -0.8793 0.3520 0.3208
vn 0.9884 -0.0410 0.1465
vn -0.3013 0.9197 -0.2518
vn 0.7669 -0.0333 -0.6409
vn -0.9998 -0.0000 -0.0213
vn -0.3257 0.2608 -0.9088
vn 0.7989 -0.0000 -0.6015
vn -0.6638 -0.0000 -0.7479
vn 0.0828 0.9189 -0.3857
vn 0.5063 -0.2377 0.8290
vn 0.2618 -0.2135 -0.9412
vn 0.0665 0.9484 0.3100
vn 0.4444 0.8959 -0.0000
vn 0.0145 -0.0000 0.9999
vn 0.4027 -0.0916 -0.9107
vn -0.5120 -0.0439 -0.8579
vn 0.0901 0.9031 0.4199
vn -0.9996 -0.0000 0.0292
vn 0.4519 0.8895 -0.0677
vn -0.9704 0.0021 -0.2415
vn -0.9071 0.0936 0.4104
vn -0.1780 0.1461 0.9731
vn 0.9192 0.0039 -0.3938
vn 0.4818 0.1469 0.8639
vn 0.9099 -0.0234 0.4142
vn 0.0830 -0.0276 -0.9962
vn 0.5317 0.1441 -0.8346
vn -0.7445 -0.1956 0.6383
vn 0.9692 0.0837 -0.2315
vn 0.9968 -0.0281 0.0742
vn 0.3261 -0.0616 0.9433
vn -0.3715 -0.1886 0.9091
vn -0.5440 -0.0677 0.8363
vn -0.5444 -0.0775 0.8353
vn -0.5444 -0.0776 0.8352
vn -0.9468 0.0814 -0.3114
vn -0.5528 0.0454 -0.8320
vn -0.3644 0.1780 -0.9141
vn -0.9652 0.0235 0.2604
vn 0.2852 0.9547 0.0849
vn 0.3488 -0.8829 0.3145
vn 0.3765 -0.8908 -0.2544
vn 0.7573 -0.2164 0.6161
vn -0.4364 0.8829 0.1730
vn -0.4363 0.8830 0.1731
vn 0.4082 -0.8216 0.3980
vn -0.4509 -0.8788 0.1565
vn 0.7570 0.2092 -0.6190
vn -0.0894 0.3581 0.9294
vn -0.3112 0.8432 -0.4385
vn -0.2616 -0.9241 0.2786
vn 0.0321 -0.3384 -0.9405
vn -0.2843 0.9208 -0.2671
vn 0.8153 -0.5292 -0.2352
vn 0.1743 0.9725 -0.1547
vn -0.0779 0.4503 0.8895
vn 0.5256 -0.8406 -0.1310
vn -0.6895 0.0864 -0.7191
vn -0.9759 0.0247 0.2170
vn 0.7605 0.2117 -0.6139
vn 0.3255 -0.0961 0.9406
vn -0.3164 0.2472 -0.9158
vn 0.7672 -0.0229 0.6411
vn 0.9966 0.0827 -0.0000
vn -0.5440 -0.0676 0.8363
vn -0.9068 0.1478 -0.3947
vn -0.8686 -0.0945 0.4864
vn 0.5551 0.2470 -0.7943
vn 0.7985 0.2268 -0.5576
vn 0.5636 0.7909 0.2386
vn -0.6091 -0.7163 -0.3404
vn -0.2627 0.8600 -0.4374
vn -0.8869 0.0436 0.4599
vn 0.0091 -0.8474 0.5309
vn 0.4185 0.8907 0.1773
vt 0.608037 0.416692
vt 0.642221 0.420929
vt 0.612558 0.443391
vt 0.576621 0.419822
vt 0.778809 0.946502
vt 0.757418 0.898573
vt 0.772670 0.915147
vt 0.656573 0.369308
vt 0.618735 0.358851
vt 0.644081 0.344061
vt 0.671075 0.033501
vt 0.707269 0.053880
vt 0.678567 0.060486
vt 0.627833 0.559764
vt 0.616179 0.568582
vt 0.607511 0.550255
vt 0.969773 0.496998
vt 0.960422 0.477747
vt 0.974862 0.475454
vt 0.699776 0.026895
vt 0.736944 0.028800
vt 0.221098 0.605218
vt 0.214149 0.651220
vt 0.193082 0.606374
vt 0.955274 0.815692
vt 0.961576 0.780958
vt 0.972770 0.807382
vt 0.934394 0.552219
vt 0.958436 0.573778
vt 0.947834 0.579366
vt 0.973924 0.269270
vt 0.956401 0.239534
vt 0.968389 0.236245
vt 0.930610 0.417378
vt 0.955501 0.436509
vt 0.943044 0.443096
vt 0.561700 0.425136
vt 0.535611 0.437863
vt 0.533552 0.425704
vt 0.204225 0.583381
vt 0.218069 0.582810
vt 0.954964 0.523410
vt 0.974862 0.528954
vt 0.218962 0.652534
vt 0.221098 0.670656
vt 0.639958 0.407567
vt 0.668120 0.404217
vt 0.099649 0.216504
vt 0.083608 0.191063
vt 0.087557 0.189446
vt 0.778809 0.897039
vt 0.960447 0.758978
vt 0.972770 0.757886
vt 0.546144 0.085130
vt 0.579658 0.123327
vt 0.571436 0.129281
vt 0.599837 0.396344
vt 0.596179 0.392244
vt 0.094080 0.185578
vt 0.113345 0.222019
vt 0.960558 0.212441
vt 0.973924 0.210761
vt 0.643101 0.655798
vt 0.652793 0.701268
vt 0.646568 0.700058
vt 0.537664 0.098948
vt 0.542973 0.093018
vt 0.750944 0.333718
vt 0.723478 0.281668
vt 0.741099 0.277407
vt 0.711118 0.177358
vt 0.739556 0.255372
vt 0.721333 0.259621
vt 0.088602 0.233592
vt 0.042968 0.250714
vt 0.035406 0.236903
vt 0.599667 0.236456
vt 0.558914 0.158355
vt 0.575601 0.149591
vt 0.195134 0.444469
vt 0.209162 0.538503
vt 0.193082 0.508658
vt 0.611951 0.227026
vt 0.584941 0.145413
vt 0.696741 0.181483
vt 0.716693 0.292020
vt 0.664036 0.661728
vt 0.640600 0.636593
vt 0.137455 0.310477
vt 0.095981 0.252410
vt 0.157939 0.308573
vt 0.121704 0.238770
vt 0.631251 0.640191
vt 0.093482 0.817356
vt 0.104867 0.875244
vt 0.095529 0.876866
vt 0.202495 0.575165
vt 0.329691 0.940379
vt 0.324057 0.878592
vt 0.329690 0.887031
vt 0.829587 0.806792
vt 0.828431 0.853422
vt 0.808194 0.764896
vt 0.203427 0.680984
vt 0.219165 0.797452
vt 0.208332 0.791979
vt 0.157528 0.185225
vt 0.213063 0.436334
vt 0.231275 0.497803
vt 0.219967 0.531550
vt 0.818023 0.213391
vt 0.799435 0.265718
vt 0.806677 0.210761
vt 0.617271 0.079071
vt 0.933542 0.710688
vt 0.946751 0.666267
vt 0.951306 0.719922
vt 0.530544 0.879145
vt 0.514602 0.823244
vt 0.529094 0.824146
vt 0.796546 0.302714
vt 0.808838 0.268383
vt 0.520784 0.759909
vt 0.530544 0.758062
vt 0.653819 0.012027
vt 0.656679 0.013697
vt 0.097160 0.888623
vt 0.095877 0.888151
vt 0.939080 0.645723
vt 0.933686 0.657896
vt 0.178963 0.140886
vt 0.178973 0.140690
vt 0.191565 0.122935
vt 0.566222 0.451836
vt 0.579121 0.238572
vt 0.661827 0.066220
vt 0.215903 0.415671
vt 0.233570 0.409170
vt 0.730254 0.170825
vt 0.659915 0.336836
vt 0.190320 0.430313
vt 0.149544 0.326208
vt 0.565636 0.603480
vt 0.953218 0.647223
vt 0.967816 0.698522
vt 0.959526 0.704163
vt 0.213267 0.967637
vt 0.230816 0.923256
vt 0.233231 0.973728
vt 0.099011 0.295005
vt 0.106599 0.290313
vt 0.224195 0.913706
vt 0.233231 0.911607
vt 0.017867 0.890715
vt 0.031324 0.884767
vt 0.025553 0.897587
vt 0.559245 0.617166
vt 0.558939 0.615020
vt 0.203469 0.580149
vt 0.202516 0.580194
vt 0.630190 0.383058
vt 0.749986 0.955770
vt 0.955474 0.465661
vt 0.959204 0.599855
vt 0.758000 0.010977
vt 0.949502 0.784278
vt 0.959203 0.539143
vt 0.956788 0.277496
vt 0.955501 0.404217
vt 0.495347 0.955373
vt 0.506179 0.948650
vt 0.506179 0.970785
vt 0.589337 0.402303
vt 0.070855 0.196132
vt 0.942300 0.295449
vt 0.928928 0.295449
vt 0.939664 0.278337
vt 0.081999 0.238366
vt 0.664544 0.708310
vt 0.653188 0.701505
vt 0.736793 0.338741
vt 0.734127 0.338911
vt 0.554306 0.139115
vt 0.533552 0.103569
vt 0.758000 0.330552
vt 0.211151 0.432227
vt 0.648530 0.557734
vt 0.124583 0.320684
vt 0.104867 0.815079
vt 0.231310 0.570341
vt 0.826065 0.757886
vt 0.221098 0.672570
vt 0.309949 0.940456
vt 0.319588 0.856530
vt 0.318654 0.867541
vt 0.231310 0.432227
vt 0.607333 0.066830
vt 0.512949 0.879554
vt 0.798998 0.302644
vt 0.019751 0.243996
vt 0.650549 0.013467
vt 0.935739 0.648440
vt 0.834670 0.854630
vt 0.830365 0.853829
vt 0.168103 0.150421
vt 0.174065 0.145103
vt 0.134971 0.337954
vt 0.569396 0.612305
vt 0.962076 0.710794
vt 0.970037 0.635950
vt 0.221113 0.921270
vt 0.520875 0.755413
vt 0.530131 0.755497
vt 0.206858 0.580156
vt 0.175434 0.128840
vt 0.182312 0.123189
vt 0.224906 0.571342
vt 0.220280 0.570969
vt 0.548826 0.076882
vt 0.740607 0.338845
vt 0.792067 0.302247
vt 0.659915 0.014932
vt 0.951306 0.635950
vt 0.192946 0.123082
vt 0.178511 0.139471
vt 0.232344 0.911792
vt 0.026048 0.879079
vt 0.553791 0.612053
vt 0.064782 0.196596
vt 0.668120 0.710697
vt 0.221098 0.798802
vt 0.321969 0.855692
vt 0.322438 0.860832
vt 0.800259 0.302520
vt 0.010294 0.256016
vt 0.652491 0.011293
vt 0.104604 0.889651
vt 0.840601 0.856871
vt 0.152257 0.163622
vt 0.970037 0.711341
vt 0.211151 0.580897
vt 0.181301 0.120035
s 1
usemtl _6_tree
f 6/1/1 24/2/1 8/3/1
f 8/3/2 7/4/2 6/1/2
f 12/5/3 26/6/3 25/7/3
f 18/8/4 38/9/4 19/10/4
f 14/11/5 16/12/5 15/13/5
f 5/14/6 4/15/6 68/16/6
f 35/17/7 44/18/7 43/19/7
f 13/20/8 34/21/8 16/12/8
f 10/22/9 26/23/9 11/24/9
f 8/25/10 31/26/10 15/27/10
f 18/28/11 29/29/11 30/30/11
f 19/31/12 34/32/13 29/33/13
f 14/34/14 31/35/14 32/36/14
f 9/37/15 25/38/15 28/39/15
f 10/22/16 35/40/16 36/41/16
f 38/42/17 35/17/17 11/43/17
f 27/44/18 40/45/18 26/23/18
f 23/46/19 39/47/19 24/2/19
f 49/48/20 110/49/20 109/50/20
f 25/7/21 26/6/21 40/51/21
f 31/26/22 39/52/22 42/53/22
f 116/54/23 21/55/23 55/56/23
f 37/57/24 44/58/24 38/9/24
f 49/48/25 106/59/25 20/60/25
f 29/33/26 33/61/26 41/62/26
f 47/63/27 112/64/27 113/65/27
f 107/66/28 108/67/28 55/56/28
f 115/68/29 52/69/29 21/70/29
f 3/71/30 53/72/30 51/73/30
f 22/74/31 57/75/31 56/76/31
f 69/77/32 48/78/32 54/79/32
f 52/80/33 64/81/33 61/82/33
f 2/83/34 54/79/34 53/84/34
f 53/84/35 55/56/35 21/55/35
f 67/85/36 51/73/36 50/86/36
f 5/14/37 50/87/37 46/88/37
f 46/88/38 50/87/38 47/63/38
f 70/89/39 45/90/39 49/48/39
f 1/91/40 49/48/41 48/92/42
f 48/92/42 49/48/41 20/60/43
f 4/15/44 46/88/44 45/93/44
f 47/94/45 56/95/45 59/96/45
f 61/82/46 64/81/46 65/97/46
f 20/98/47 95/99/47 94/100/47
f 60/101/48 81/102/48 54/103/48
f 55/104/49 76/105/49 77/106/49
f 20/60/50 60/107/50 48/92/50
f 51/108/51 63/109/51 64/110/51
f 46/111/52 57/112/52 45/113/52
f 21/55/53 63/114/53 53/84/53
f 47/115/54 58/116/54 46/117/54
f 21/118/55 61/119/55 62/120/55
f 132/121/56 57/112/56 58/122/56
f 62/120/57 65/123/57 66/124/57
f 100/125/58 101/126/58 63/114/58
f 59/96/59 137/127/59 138/128/59
f 135/129/60 58/116/61 59/130/62
f 89/131/63 88/132/64 83/133/63
f 7/4/65 68/16/65 12/134/65
f 19/10/66 1/135/66 69/77/66
f 15/13/67 67/85/67 8/136/67
f 11/137/68 1/91/68 38/138/68
f 15/13/69 2/139/69 3/71/69
f 16/140/70 69/77/70 2/83/70
f 8/3/71 5/14/71 7/4/71
f 12/141/72 71/142/72 11/137/72
f 4/15/73 74/143/74 68/16/75
f 70/144/76 75/145/76 73/146/76
f 70/147/77 72/148/78 4/149/79
f 71/142/80 74/150/80 75/151/80
f 123/152/81 129/153/81 72/148/81
f 74/154/82 127/155/82 75/156/82
f 122/157/83 125/158/83 74/143/83
f 65/97/84 99/159/84 98/160/84
f 6/1/1 23/46/1 24/2/1
f 17/161/85 37/57/85 38/9/85
f 12/5/86 11/162/86 26/6/86
f 18/8/87 17/161/87 38/9/87
f 14/11/5 13/20/5 16/12/5
f 7/4/88 12/134/88 9/37/88
f 71/142/89 70/89/89 1/91/89
f 32/36/90 31/35/90 42/163/90
f 30/30/91 29/29/91 41/164/91
f 35/17/92 38/42/92 44/18/92
f 13/20/93 33/165/93 34/21/93
f 10/22/94 27/44/94 26/23/94
f 8/25/95 24/166/95 31/26/95
f 18/28/11 19/167/11 29/29/11
f 19/31/96 16/168/96 34/32/96
f 14/34/14 15/169/14 31/35/14
f 9/37/15 12/134/15 25/38/15
f 28/170/97 25/171/97 40/172/97
f 10/22/16 11/24/16 35/40/16
f 43/173/98 44/58/98 37/57/98
f 49/48/99 111/174/99 110/49/99
f 31/26/100 24/166/100 39/52/100
f 36/175/101 35/176/101 43/177/101
f 29/33/13 34/32/13 33/61/102
f 47/178/103 111/174/103 22/74/103
f 50/87/104 117/179/104 118/180/104
f 52/69/105 119/181/105 121/182/105
f 20/183/106 106/184/106 107/66/106
f 21/70/107 114/185/107 115/68/107
f 3/71/108 2/139/108 53/72/108
f 22/74/109 45/90/109 57/75/109
f 69/77/110 1/135/110 48/78/110
f 52/80/111 51/186/111 64/81/111
f 2/83/112 69/77/112 54/79/112
f 53/84/113 54/79/113 55/56/113
f 67/85/114 3/71/114 51/73/114
f 50/86/115 51/73/115 52/69/115
f 5/14/116 67/187/117 50/87/118
f 70/89/119 4/188/119 45/90/119
f 49/48/120 45/90/120 22/74/120
f 1/91/121 70/89/121 49/48/121
f 4/15/122 5/14/122 46/88/122
f 47/94/123 22/189/123 56/95/123
f 103/190/124 64/110/124 63/109/124
f 54/103/125 48/191/125 60/101/125
f 54/192/126 76/105/126 55/104/126
f 55/193/127 77/194/127 93/195/128
f 51/108/129 53/196/129 63/109/129
f 46/111/130 58/122/130 57/112/130
f 21/55/131 62/197/131 63/114/131
f 47/115/132 59/130/62 58/116/61
f 21/118/133 52/198/133 61/119/133
f 58/122/134 133/199/134 132/121/134
f 57/75/135 131/200/135 56/76/135
f 62/120/136 61/119/136 65/123/136
f 66/201/137 100/125/137 62/197/137
f 56/95/138 137/127/138 59/96/138
f 59/130/139 138/202/139 135/129/139
f 60/101/140 79/203/140 80/204/140
f 20/60/141 90/205/141 91/206/141
f 7/4/142 5/14/142 68/16/142
f 19/10/143 38/9/143 1/135/143
f 15/13/144 3/71/144 67/85/144
f 11/137/145 71/142/145 1/91/145
f 15/13/146 16/12/146 2/139/146
f 16/140/147 19/10/147 69/77/147
f 8/3/148 67/187/117 5/14/116
f 12/141/149 68/207/149 71/142/149
f 4/15/73 72/208/150 74/143/74
f 75/145/151 126/209/151 73/146/151
f 70/144/152 71/210/152 75/145/152
f 70/147/77 73/211/153 72/148/78
f 71/142/154 68/207/154 74/150/154
f 66/124/155 98/212/155 96/213/155
f 64/81/156 102/214/156 99/159/156
f 86/215/141 82/216/141 83/133/141
f 104/217/157 105/218/157 64/110/157
f 116/54/23 114/219/23 21/55/23
f 49/48/25 109/50/25 106/59/25
f 47/63/27 118/180/27 112/64/27
f 55/56/28 20/183/28 107/66/28
f 108/67/28 116/54/28 55/56/28
f 115/68/29 120/220/29 52/69/29
f 60/101/48 80/204/48 81/102/48
f 132/121/56 130/221/56 57/112/56
f 63/114/58 62/197/58 100/125/58
f 101/126/58 103/222/58 63/114/58
f 135/129/60 134/223/60 58/116/61
f 60/107/63 20/60/63 91/206/63
f 60/107/63 91/206/63 89/131/63
f 83/133/63 84/224/63 60/107/63
f 88/132/64 87/225/63 83/133/63
f 83/133/63 60/107/63 89/131/63
f 72/148/81 73/211/81 123/152/81
f 123/152/81 124/226/158 129/153/81
f 74/154/82 128/227/82 127/155/82
f 74/143/83 72/208/83 122/157/83
f 125/158/83 128/228/83 74/143/83
f 49/48/99 22/74/99 111/174/99
f 47/178/103 113/229/103 111/174/103
f 118/180/104 47/63/104 50/87/104
f 50/87/104 121/230/104 117/179/104
f 121/182/105 50/86/105 52/69/105
f 52/69/105 120/220/105 119/181/105
f 103/190/124 104/217/124 64/110/124
f 54/192/126 81/231/126 76/105/126
f 95/99/127 20/98/127 55/193/127
f 77/194/127 78/232/127 92/233/127
f 93/195/128 95/99/127 55/193/127
f 77/194/127 92/233/127 93/195/128
f 58/122/134 134/234/134 133/199/134
f 57/75/135 130/235/135 131/200/135
f 66/201/137 97/236/137 100/125/137
f 56/95/138 136/237/138 137/127/138
f 60/101/140 84/238/140 79/203/140
f 20/60/141 94/239/141 90/205/141
f 75/145/151 127/240/151 126/209/151
f 66/124/155 65/123/155 98/212/155
f 99/159/156 65/97/156 64/81/156
f 64/81/156 105/241/156 102/214/156
f 83/133/141 87/225/141 86/215/141
f 86/215/141 85/242/141 82/216/141
