# Blender 4.2.3 LTS
# www.blender.org
mtllib tv.mtl
o Plane.001
v -4.061249 6.748264 0.407654
v -4.061249 6.748264 0.407654
v -4.050318 1.071184 0.407654
v -4.050318 1.071184 0.407654
v 4.955092 6.749032 0.407654
v 4.955092 6.749032 0.407654
v 4.955184 1.071330 0.407654
v 4.955184 1.071330 0.407654
v -4.050323 1.372159 0.407654
v -4.050323 1.372159 0.407654
v 4.955179 1.372304 0.407654
v -3.845980 6.748890 0.407654
v -3.845980 6.748890 0.407654
v -3.845888 1.071187 0.407654
v 4.955096 6.526631 0.407654
v -4.061649 6.526485 0.407654
v -4.061649 6.526485 0.407654
v 4.738507 1.071326 0.407654
v 4.738415 6.749029 0.407654
v -3.845980 6.748890 0.463584
v -3.845980 6.748890 0.463584
v -3.845980 6.748890 0.463584
v -4.061249 6.748264 0.463584
v -4.061249 6.748264 0.463584
v -4.061249 6.748264 0.463584
v -4.050323 1.372159 0.463584
v -4.050323 1.372159 0.463584
v -4.050323 1.372159 0.463584
v -4.050318 1.071184 0.463584
v -4.050318 1.071184 0.463584
v -4.050318 1.071184 0.463584
v 4.738507 1.071326 0.463584
v 4.738507 1.071326 0.463584
v 4.955184 1.071330 0.463584
v 4.955184 1.071330 0.463584
v 4.955184 1.071330 0.463584
v 4.955096 6.526631 0.463584
v 4.955096 6.526631 0.463584
v 4.955092 6.749032 0.463584
v 4.955092 6.749032 0.463584
v 4.955092 6.749032 0.463584
v -4.061649 6.526485 0.463584
v -4.061649 6.526485 0.463584
v -4.061649 6.526485 0.463584
v 4.955179 1.372304 0.463584
v 4.955179 1.372304 0.463584
v 4.880493 1.119887 0.463584
v 4.880493 1.119887 0.463584
v 4.880493 1.119887 0.463584
v 4.738415 6.749029 0.463584
v 4.738415 6.749029 0.463584
v -3.845888 1.071187 0.463584
v -3.845888 1.071187 0.463584
v -3.974451 1.119743 0.463584
v -3.974451 1.119743 0.463584
v -3.974451 1.119743 0.463584
v -3.974541 6.670428 0.463584
v -3.974541 6.670428 0.463584
v -3.974541 6.670428 0.463584
v 4.880403 6.670571 0.463584
v 4.880403 6.670571 0.463584
v 4.880403 6.670571 0.463584
v -3.976848 1.119168 0.457861
v -3.974451 1.119743 0.434921
v -3.974451 1.119743 0.434921
v -3.974451 1.119743 0.434921
v -3.974541 6.670428 0.434921
v -3.974541 6.670428 0.434921
v 4.880493 1.119887 0.434921
v 4.880493 1.119887 0.434921
v 4.880493 1.119887 0.434921
v 4.880493 1.119887 0.434921
v 4.880006 1.118842 0.457861
v 4.880006 1.118842 0.457861
v 4.881372 6.671241 0.457861
v 4.880403 6.670571 0.434921
v 4.880403 6.670571 0.434921
v 4.880403 6.670571 0.434921
v 1.699431 2.467533 0.075040
v 1.597426 2.471393 -0.366648
v 1.597426 2.471393 -0.366648
v 1.597426 2.471393 -0.366648
v 1.699400 4.399643 0.075042
v 1.699400 4.399643 0.075042
v 1.597396 4.366971 -0.366647
v 1.597396 4.366971 -0.366647
v 1.597396 4.366971 -0.366647
v -1.111097 2.467487 0.075040
v -1.003050 2.455562 -0.359206
v -1.003050 2.455562 -0.359206
v -1.003050 2.455562 -0.359206
v -1.111128 4.399598 0.075042
v -1.111128 4.399598 0.075042
v -1.003080 4.351140 -0.359204
v -1.003080 4.351140 -0.359204
v -1.003080 4.351140 -0.359204
v 1.699431 2.467533 -0.221949
v 1.699431 2.467533 -0.221949
v 1.699431 2.467533 -0.221949
v 1.699400 4.399643 -0.221947
v 1.699400 4.399643 -0.221947
v 1.699400 4.399643 -0.221947
v 1.699400 4.399643 -0.221947
v -1.111128 4.399598 -0.221947
v -1.111128 4.399598 -0.221947
v -1.111128 4.399598 -0.221947
v -1.111128 4.399598 -0.221947
v -1.111097 2.467487 -0.221949
v -1.111097 2.467487 -0.221949
v -1.111097 2.467487 -0.221949
v 4.955076 6.748932 0.407713
v 4.955076 6.748932 0.407713
v 4.955076 6.748932 0.407713
v 4.954672 1.072447 0.407715
v 4.954672 1.072447 0.407715
v 4.954672 1.072447 0.407715
v -4.064206 6.751996 0.411819
v -4.064206 6.751996 0.411819
v -4.064206 6.751996 0.411819
v -4.050341 1.074224 0.407566
v -4.050341 1.074224 0.407566
v 4.736869 6.749604 0.167431
v 4.736869 6.749604 0.167431
v 4.736869 6.749604 0.167431
v 4.865993 1.121835 0.106454
v 4.865993 1.121835 0.106454
v 4.865993 1.121835 0.106454
v -3.922888 6.751713 0.194716
v -3.922888 6.751713 0.194716
v -3.922888 6.751713 0.194716
v -3.909585 1.103589 0.135711
v -3.909585 1.103589 0.135711
v -3.909585 1.103589 0.135711
v 4.595456 6.752135 0.411819
v 4.595456 6.752135 0.411819
v 4.595456 6.752135 0.411819
v 4.595456 6.752135 0.411819
v 4.595548 1.078118 0.411814
v 4.595548 1.078118 0.411814
v 4.595548 1.078118 0.411814
v 4.440077 6.752471 -0.002818
v 4.440077 6.752471 -0.002818
v 4.440077 6.752471 -0.002818
v 4.440077 6.752471 -0.002818
v 4.687946 1.148264 -0.061823
v 4.687946 1.148264 -0.061823
v 4.687946 1.148264 -0.061823
v 4.687946 1.148264 -0.061823
v -3.625314 1.077986 0.411814
v -3.625314 1.077986 0.411814
v -3.532916 1.148132 -0.061823
v -3.532916 1.148132 -0.061823
v -3.532916 1.148132 -0.061823
v -3.532916 1.148132 -0.061823
v -3.625406 6.752003 0.411819
v -3.625406 6.752003 0.411819
v -3.625406 6.752003 0.411819
v -3.780785 6.752338 -0.002818
v -3.780785 6.752338 -0.002818
v -3.780785 6.752338 -0.002818
v -3.780785 6.752338 -0.002818
v 4.954993 6.301145 0.407820
v 4.954993 6.301145 0.407820
v 4.954993 6.301145 0.407820
v -4.064199 6.301000 0.411818
v -4.064199 6.301000 0.411818
v -4.064199 6.301000 0.411818
v 4.892256 6.298272 0.069878
v 4.892256 6.298272 0.069878
v 4.892256 6.298272 0.069878
v 4.892256 6.298272 0.069878
v -3.916902 6.256466 0.061199
v -3.916902 6.256466 0.061199
v -3.916902 6.256466 0.061199
v -3.916902 6.256466 0.061199
v 4.595464 6.301139 -0.136335
v 4.595464 6.301139 -0.136335
v 4.595464 6.301139 -0.136335
v 4.595464 6.301139 -0.136335
v 4.595464 6.301139 0.411818
v 4.595464 6.301139 0.411818
v -3.625398 6.301007 -0.136335
v -3.625398 6.301007 -0.136335
v -3.625398 6.301007 -0.136335
v -3.625398 6.301007 -0.136335
v -3.625398 6.301006 0.411818
v 4.955336 1.637693 0.411814
v 4.955336 1.637693 0.411814
v 4.955336 1.637693 0.411814
v 4.892331 1.634819 0.069874
v 4.892331 1.634819 0.069874
v 4.892331 1.634819 0.069874
v 4.892331 1.634819 0.069874
v 4.595538 1.637687 0.411814
v -3.625324 1.637554 0.411814
v -4.047729 1.637547 0.411814
v -4.047729 1.637547 0.411814
v -4.047729 1.637547 0.411814
v -3.916827 1.593014 0.061196
v -3.916827 1.593014 0.061196
v -3.916827 1.593014 0.061196
v -3.916827 1.593014 0.061196
v 4.595538 1.637687 -0.136338
v 4.595538 1.637687 -0.136338
v 4.595538 1.637687 -0.136338
v 4.595538 1.637687 -0.136338
v -3.625324 1.637555 -0.136338
v -3.625324 1.637555 -0.136338
v -3.625324 1.637555 -0.136338
v -3.625324 1.637555 -0.136338
v 4.528215 1.704218 0.075040
v 4.528215 1.704218 0.075040
v 4.426210 1.708078 -0.366649
v 4.426210 1.708078 -0.366649
v 4.426210 1.708078 -0.366649
v 4.528202 2.519762 0.075041
v 4.528202 2.519762 0.075041
v 4.426198 2.487090 -0.366648
v 4.426198 2.487090 -0.366648
v 4.426198 2.487090 -0.366648
v -3.568499 1.704088 0.075040
v -3.568499 1.704088 0.075040
v -3.460452 1.692163 -0.359207
v -3.460452 1.692163 -0.359207
v -3.460452 1.692163 -0.359207
v -3.568513 2.519631 0.075041
v -3.568513 2.519631 0.075041
v -3.460465 2.471174 -0.359206
v -3.460465 2.471174 -0.359206
v -3.460465 2.471174 -0.359206
v 4.528215 1.704218 -0.221949
v 4.528215 1.704218 -0.221949
v 4.528215 1.704218 -0.221949
v 4.528215 1.704218 -0.221949
v 4.528202 2.519762 -0.221949
v 4.528202 2.519762 -0.221949
v 4.528202 2.519762 -0.221949
v 4.528202 2.519762 -0.221949
v -3.568513 2.519632 -0.221949
v -3.568513 2.519632 -0.221949
v -3.568513 2.519632 -0.221949
v -3.568513 2.519632 -0.221949
v -3.568499 1.704088 -0.221949
v -3.568499 1.704088 -0.221949
v -3.568499 1.704088 -0.221949
v -3.568499 1.704088 -0.221949
v -2.831779 0.698897 1.578640
v -3.110171 1.092747 0.424517
v -2.767978 1.092746 0.424517
v 3.931421 1.092747 0.257266
v 3.931421 1.092747 0.257266
v 3.589229 1.092747 0.257266
v 3.589229 1.092747 0.257266
v 3.588709 1.092388 0.445862
v 3.930902 1.092388 0.445862
v -3.976848 1.119168 0.457861
v -3.976848 1.119168 0.457861
v -3.974451 1.119743 0.434921
v -3.975765 6.669489 0.457861
v -3.975765 6.669489 0.457861
v -3.975765 6.669489 0.457861
v -3.974541 6.670428 0.434921
v -3.974541 6.670428 0.434921
v 4.880006 1.118842 0.457861
v 4.881372 6.671241 0.457861
v 4.881372 6.671241 0.457861
v 4.880403 6.670571 0.434921
v 1.699431 2.467533 0.075040
v 1.699431 2.467533 0.075040
v 1.699400 4.399643 0.075042
v -1.111097 2.467487 0.075040
v -1.111097 2.467487 0.075040
v -1.111128 4.399598 0.075042
v 1.699431 2.467533 -0.221949
v -1.111097 2.467487 -0.221949
v -4.050341 1.074224 0.407566
v 4.595548 1.078118 0.411814
v -3.625314 1.077986 0.411814
v -3.625314 1.077986 0.411814
v 4.954993 6.301145 0.407820
v 4.595464 6.301139 0.411818
v 4.595464 6.301139 0.411818
v -3.625398 6.301006 0.411818
v 4.955336 1.637693 0.411814
v 4.595538 1.637687 0.411814
v 4.595538 1.637687 0.411814
v -3.625324 1.637554 0.411814
v -3.625324 1.637554 0.411814
v -4.047729 1.637547 0.411814
v 4.528215 1.704218 0.075040
v 4.528202 2.519762 0.075041
v -3.568499 1.704088 0.075040
v -3.568513 2.519631 0.075041
v -3.107491 1.090678 0.428826
v -3.109795 1.091505 0.233546
v -2.767407 1.087093 0.428017
v -2.768647 1.091906 0.235653
v 3.928741 1.090678 0.252958
v 3.931046 1.091506 0.448238
v 3.588657 1.087093 0.253767
v 3.589898 1.091907 0.446130
vn -0.0000 -1.0000 -0.0000
vn -0.0029 1.0000 -0.0000
vn -0.0000 1.0000 -0.0000
vn -1.0000 0.0018 -0.0000
vn -1.0000 -0.0000 -0.0000
vn 1.0000 -0.0000 -0.0000
vn -0.0000 -0.0000 1.0000
vn -1.0000 -0.0022 -0.0000
vn -0.0000 -0.9994 -0.0353
vn -0.0001 -0.9994 -0.0353
vn 0.9999 -0.0001 -0.0106
vn 0.8173 -0.0000 -0.5762
vn -0.0032 0.9610 -0.2766
vn -0.7858 -0.0000 -0.6185
vn 0.0030 -0.9996 0.0287
vn 0.0029 -0.9996 0.0287
vn -0.0029 -0.0000 -1.0000
vn -0.4828 -0.1797 -0.8571
vn -0.4828 -0.1796 -0.8571
vn -0.4828 -0.1798 -0.8571
vn -0.8880 0.0587 -0.4561
vn -0.8880 0.0588 -0.4561
vn 0.9723 -0.0313 -0.2315
vn 0.0301 -0.9919 -0.1230
vn 0.0301 -0.9920 -0.1230
vn 0.0103 0.9999 -0.0044
vn 0.0102 0.9999 -0.0045
vn 0.0108 0.9999 -0.0041
vn 0.0105 0.9999 -0.0043
vn -0.0000 1.0000 0.0008
vn -0.0125 -0.9882 -0.1525
vn 0.6168 -0.0465 -0.7857
vn 0.6168 -0.0466 -0.7857
vn 0.6168 -0.0464 -0.7857
vn 0.0057 -0.0036 1.0000
vn -0.0010 1.0000 0.0002
vn -0.0011 1.0000 0.0001
vn -0.0016 1.0000 -0.0003
vn -0.0000 -0.9892 -0.1465
vn -0.0000 -0.1505 -0.9886
vn -0.0000 0.2837 -0.9589
vn 0.0110 0.0002 0.9999
vn 0.0111 0.0002 0.9999
vn 0.4997 0.3722 -0.7822
vn 0.4996 0.3722 -0.7822
vn 0.8812 0.1987 -0.4289
vn 0.8819 0.1982 -0.4278
vn 0.8812 0.1988 -0.4289
vn 0.8806 0.1995 -0.4298
vn -0.9296 -0.0017 -0.3686
vn -0.6758 0.0911 -0.7314
vn -0.6751 0.0907 -0.7321
vn -0.6765 0.0916 -0.7307
vn -0.9164 -0.0307 -0.3992
vn -0.9163 -0.0307 -0.3992
vn -0.0000 -0.0000 -1.0000
vn 0.5706 -0.0000 -0.8212
vn 0.9832 -0.0000 -0.1825
vn 0.9833 -0.0000 -0.1819
vn 0.9834 -0.0001 -0.1813
vn 0.9833 -0.0000 -0.1818
vn -0.5610 -0.0000 -0.8278
vn -0.0011 0.9610 -0.2765
vn 0.0010 -0.9996 0.0286
vn 0.0011 -0.9996 0.0286
vn -0.0009 -0.0000 -1.0000
vn -0.9969 0.0001 -0.0787
vn -0.9969 0.0001 -0.0786
vn -0.0001 1.0000 0.0059
vn -0.0050 -0.0038 1.0000
vn 0.0055 0.0004 1.0000
vn 0.0056 0.0004 1.0000
vn 0.0046 0.9999 0.0145
vn 0.0047 0.9999 0.0145
vn -0.0050 0.9999 -0.0152
vn -0.0046 0.9999 -0.0145
vt 0.000000 0.000000
vt 0.250000 0.750000
vt 0.500000 0.750000
vt 0.250000 0.500000
vt 1.000000 0.750000
vt 1.000000 1.000000
vt 0.500000 1.000000
vt 0.250000 1.000000
vt 0.250000 0.000000
vt 0.500000 0.000000
vt 0.500000 0.500000
vt 1.000000 0.000000
vt 1.000000 0.500000
vt 0.000000 0.500000
vt 0.000000 0.750000
vt 0.000000 1.000000
vt 0.498772 0.748767
vt 0.498772 0.501233
vt 0.251228 0.748767
vt 0.625000 0.000000
vt 0.625000 0.250000
vt 0.500000 0.250000
vt 0.625000 0.500000
vt 0.625000 0.750000
vt 0.625000 1.000000
vt 0.875000 0.500000
vt 0.875000 0.750000
vt 0.375000 0.500000
vt 0.375000 0.750000
vt 0.375000 0.250000
vt 0.375000 0.000000
vt 0.750000 0.750000
vt 0.750000 1.000000
vt 0.750000 0.000000
vt 0.750000 0.500000
vt 0.750000 0.500000
vt 0.500000 0.500000
vt 0.500000 0.500000
vt 0.375000 1.000000
vt 0.251228 0.501233
vt 0.125000 0.500000
vt 0.125000 0.750000
s 0
usemtl Material.001
f 4/1/1 14/1/1 53/1/1
f 4/1/1 53/1/1 31/1/1
s 1
f 12/1/2 2/1/2 25/1/2
f 12/1/2 25/1/2 21/1/2
s 0
f 19/1/3 13/1/3 22/1/3
f 19/1/3 22/1/3 51/1/3
f 1/1/4 17/1/4 44/1/4
f 1/1/4 44/1/4 24/1/4
f 76/2/5 69/3/5 47/3/5
f 76/2/5 47/3/5 60/2/5
f 68/4/1 78/2/1 62/2/1
f 68/4/1 62/2/1 59/4/1
f 7/1/6 11/1/6 45/1/6
f 7/1/6 45/1/6 34/1/6
f 48/3/7 32/5/7 35/6/7
f 48/3/7 35/6/7 46/7/7
f 61/2/7 48/3/7 46/7/7
f 61/2/7 46/7/7 38/8/7
f 42/9/7 27/10/7 55/11/7
f 42/9/7 55/11/7 58/4/7
f 27/10/7 30/12/7 55/11/7
f 30/12/7 52/13/7 55/11/7
f 23/1/7 42/9/7 58/4/7
f 23/1/7 58/4/7 20/14/7
f 50/15/7 61/2/7 40/16/7
f 61/2/7 38/8/7 40/16/7
f 20/14/7 58/4/7 61/2/7
f 20/14/7 61/2/7 50/15/7
f 55/11/7 52/13/7 32/5/7
f 55/11/7 32/5/7 48/3/7
f 9/1/5 3/1/5 29/1/5
f 9/1/5 29/1/5 26/1/5
f 18/1/1 8/1/1 36/1/1
f 18/1/1 36/1/1 33/1/1
f 14/1/1 18/1/1 33/1/1
f 14/1/1 33/1/1 53/1/1
f 15/1/6 5/1/6 39/1/6
f 15/1/6 39/1/6 37/1/6
f 64/11/6 67/4/6 57/4/6
f 64/11/6 57/4/6 54/11/6
f 16/1/8 10/1/8 28/1/8
f 16/1/8 28/1/8 43/1/8
f 6/1/3 19/1/3 51/1/3
f 6/1/3 51/1/3 41/1/3
f 11/1/6 15/1/6 37/1/6
f 11/1/6 37/1/6 45/1/6
s 1
f 65/11/9 71/3/10 74/17/9
f 65/11/9 74/17/9 63/18/9
f 70/3/11 77/2/11 75/19/11
f 70/3/11 75/19/11 73/17/11
s 0
f 72/3/3 66/11/3 56/11/3
f 72/3/3 56/11/3 49/3/3
f 98/10/12 80/20/12 85/21/12
f 98/10/12 85/21/12 101/22/12
s 1
f 102/22/13 87/21/13 96/23/13
f 102/22/13 96/23/13 106/11/13
s 0
f 105/11/14 94/23/14 89/24/14
f 105/11/14 89/24/14 109/3/14
s 1
f 110/3/15 91/24/15 82/25/15
f 110/3/15 82/25/15 99/7/16
f 95/23/17 86/26/17 81/27/17
s 0
f 95/23/17 81/27/17 90/24/17
f 92/28/5 104/11/5 108/3/5
f 92/28/5 108/3/5 88/29/5
f 84/30/3 103/22/3 107/11/3
f 84/30/3 107/11/3 93/28/3
f 79/31/6 97/10/6 100/22/6
f 79/31/6 100/22/6 83/30/6
s 1
f 210/32/18 152/5/19 132/6/18
f 210/32/18 132/6/18 202/33/20
f 167/7/21 118/16/21 128/16/21
f 167/7/21 128/16/21 174/7/22
f 189/34/23 115/12/23 125/12/23
f 189/34/23 125/12/23 192/34/23
f 150/5/24 121/6/25 133/6/25
f 150/5/24 133/6/25 154/5/24
f 136/14/26 113/1/27 124/1/28
f 136/14/26 124/1/28 143/14/29
s 0
f 157/15/30 137/14/30 144/14/30
f 157/15/30 144/14/30 161/15/30
s 1
f 116/12/31 139/13/31 147/13/31
f 116/12/31 147/13/31 127/12/31
f 193/34/32 126/12/33 145/13/32
f 193/34/32 145/13/32 205/35/34
f 188/34/35 194/36/35 138/13/35
f 188/34/35 138/13/35 114/12/35
f 119/16/36 156/15/36 160/15/37
f 119/16/36 160/15/37 130/16/38
s 0
f 140/13/39 149/5/39 153/5/39
f 140/13/39 153/5/39 148/13/39
f 206/35/40 146/13/40 151/5/40
f 206/35/40 151/5/40 209/32/40
f 134/14/7 155/15/7 186/3/7
f 134/14/7 186/3/7 180/37/7
f 141/14/41 178/38/41 185/3/41
f 141/14/41 185/3/41 159/15/41
f 111/1/42 135/14/42 181/37/43
f 111/1/43 181/37/43 163/10/43
s 1
f 123/1/44 171/10/44 179/38/45
f 123/1/44 179/38/45 142/14/44
f 112/1/46 164/10/47 170/10/48
f 112/1/46 170/10/48 122/1/49
f 197/33/50 166/7/50 173/7/50
f 197/33/50 173/7/50 200/33/50
f 158/15/51 184/3/52 175/7/51
f 158/15/51 175/7/51 129/16/53
s 0
f 155/15/7 117/16/7 165/7/7
f 155/15/7 165/7/7 186/3/7
s 1
f 120/6/54 198/33/54 201/33/54
f 120/6/54 201/33/54 131/6/55
s 0
f 177/38/56 204/35/56 208/32/56
f 177/38/56 208/32/56 183/3/56
f 169/10/57 191/34/57 203/35/57
f 169/10/57 203/35/57 176/38/57
s 1
f 162/10/58 187/34/59 190/34/60
f 162/10/58 190/34/60 168/10/61
s 0
f 182/3/62 207/32/62 199/33/62
f 182/3/62 199/33/62 172/7/62
f 186/3/7 165/7/7 196/33/7
f 186/3/7 196/33/7 195/32/7
f 232/10/12 213/20/12 218/21/12
f 232/10/12 218/21/12 236/22/12
s 1
f 237/22/63 220/21/63 230/23/63
f 237/22/63 230/23/63 241/11/63
s 0
f 240/11/14 228/23/14 223/24/14
f 240/11/14 223/24/14 244/3/14
s 1
f 245/3/64 225/24/64 215/25/65
f 245/3/64 215/25/65 233/7/64
s 0
f 229/23/66 219/26/66 214/27/66
f 229/23/66 214/27/66 224/24/66
f 222/29/1 246/3/1 234/7/1
f 222/29/1 234/7/1 212/39/1
f 226/28/5 239/11/5 243/3/5
f 226/28/5 243/3/5 221/29/5
f 217/30/3 238/22/3 242/11/3
f 217/30/3 242/11/3 227/28/3
f 211/31/6 231/10/6 235/22/6
f 211/31/6 235/22/6 216/30/6
usemtl Material.002
f 259/40/7 256/18/7 264/17/7
f 259/40/7 264/17/7 265/19/7
s 1
f 257/18/67 260/40/67 262/4/68
f 257/18/67 262/4/68 258/11/67
f 261/40/69 266/19/69 267/2/69
f 261/40/69 267/2/69 263/4/69
s 0
f 270/41/7 273/28/7 271/29/7
f 270/41/7 271/29/7 268/42/7
f 272/29/1 275/3/1 274/7/1
f 272/29/1 274/7/1 269/39/1
s 1
f 288/32/70 289/33/70 276/6/70
f 288/32/70 276/6/70 279/5/70
s 0
f 285/36/7 287/32/7 278/5/7
f 285/36/7 278/5/7 277/13/7
f 281/37/7 283/3/7 287/32/7
f 281/37/7 287/32/7 285/36/7
s 1
f 280/10/71 282/37/72 286/36/72
f 280/10/71 286/36/72 284/34/72
s 0
f 291/41/7 293/28/7 292/29/7
f 291/41/7 292/29/7 290/42/7
s 1
f 297/23/73 295/26/74 294/27/74
f 297/23/73 294/27/74 296/24/74
f 301/23/75 299/26/76 298/27/76
f 301/23/75 298/27/76 300/24/76
l 248 249
l 250 252
l 251 253
l 254 255
