# Blender 4.2.3 LTS
# www.blender.org
mtllib window.mtl
o Cube
v 0.063997 0.168864 -3.782032
v 0.063997 -0.168864 -3.782032
v 0.063997 0.168864 3.782032
v 0.063997 -0.168864 3.782032
v -0.063997 0.168864 -3.782032
v -0.063997 -0.168864 -3.782032
v -0.063997 0.168864 3.782032
v -0.063997 -0.168864 3.782032
v 0.109130 4.084543 0.235897
v 0.109130 4.084543 -0.235897
v 0.109130 -4.084543 0.235897
v 0.109130 -4.084543 -0.235897
v -0.109130 4.084543 0.235897
v -0.109130 4.084543 -0.235897
v -0.109130 -4.084543 0.235897
v -0.109130 -4.084543 -0.235897
v 0.109130 4.084543 3.985898
v 0.109130 4.084543 3.514103
v 0.109130 -4.084543 3.985897
v 0.109130 -4.084543 3.514103
v -0.109130 4.084543 3.985898
v -0.109130 4.084543 3.514103
v -0.109130 -4.084543 3.985897
v -0.109130 -4.084543 3.514103
v 0.222960 -3.910000 -4.084543
v 0.222960 -4.410000 -4.084543
v 0.222960 -3.910000 4.084543
v 0.222960 -4.410000 4.084543
v -1.342960 -3.910000 -4.084543
v -1.342960 -4.410000 -4.084543
v -1.342960 -3.910000 4.084543
v -1.342960 -4.410000 4.084543
v 0.191927 4.410000 -4.084543
v 0.191927 3.910000 -4.084543
v 0.191927 4.410000 4.084543
v 0.191927 3.910000 4.084543
v -0.191927 4.410000 -4.084543
v -0.191927 3.910000 -4.084543
v -0.191927 4.410000 4.084543
v -0.191927 3.910000 4.084543
v 0.109130 4.084543 -3.514103
v 0.109130 4.084543 -3.985897
v 0.109130 -4.084543 -3.514103
v 0.109130 -4.084543 -3.985898
v -0.109130 4.084543 -3.514103
v -0.109130 4.084543 -3.985897
v -0.109130 -4.084543 -3.514103
v -0.109130 -4.084543 -3.985898
vn -0.0000 1.0000 -0.0000
vn -0.0000 -0.0000 1.0000
vn -1.0000 -0.0000 -0.0000
vn -0.0000 -1.0000 -0.0000
vn 1.0000 -0.0000 -0.0000
vn -0.0000 -0.0000 -1.0000
vt 0.875000 0.500000
vt 0.625000 0.750000
vt 0.625000 0.500000
vt 0.375000 1.000000
vt 0.375000 0.750000
vt 0.625000 0.000000
vt 0.375000 0.250000
vt 0.375000 0.000000
vt 0.375000 0.500000
vt 0.125000 0.750000
vt 0.125000 0.500000
vt 0.625000 0.250000
vt 0.875000 0.750000
vt 0.625000 1.000000
s 0
usemtl Material
f 5/1/1 3/2/1 1/3/1
f 3/2/2 8/4/2 4/5/2
f 7/6/3 6/7/3 8/8/3
f 2/9/4 8/10/4 6/11/4
f 1/3/5 4/5/5 2/9/5
f 5/12/6 2/9/6 6/7/6
f 5/1/1 7/13/1 3/2/1
f 3/2/2 7/14/2 8/4/2
f 7/6/3 5/12/3 6/7/3
f 2/9/4 4/5/4 8/10/4
f 1/3/5 3/2/5 4/5/5
f 5/12/6 1/3/6 2/9/6
usemtl Material.001
f 13/1/2 11/2/2 9/3/2
f 11/2/4 16/4/4 12/5/4
f 15/6/3 14/7/3 16/8/3
f 10/9/6 16/10/6 14/11/6
f 9/3/5 12/5/5 10/9/5
f 13/12/1 10/9/1 14/7/1
f 13/1/2 15/13/2 11/2/2
f 11/2/4 15/14/4 16/4/4
f 15/6/3 13/12/3 14/7/3
f 10/9/6 12/5/6 16/10/6
f 9/3/5 11/2/5 12/5/5
f 13/12/1 9/3/1 10/9/1
usemtl Material.002
f 21/1/2 19/2/2 17/3/2
f 19/2/4 24/4/4 20/5/4
f 24/8/3 21/12/3 22/7/3
f 18/9/6 24/10/6 22/11/6
f 17/3/5 20/5/5 18/9/5
f 21/12/1 18/9/1 22/7/1
f 21/1/2 23/13/2 19/2/2
f 19/2/4 23/14/4 24/4/4
f 24/8/3 23/6/3 21/12/3
f 18/9/6 20/5/6 24/10/6
f 17/3/5 19/2/5 20/5/5
f 21/12/1 17/3/1 18/9/1
usemtl Material.003
f 29/1/1 27/2/1 25/3/1
f 27/2/2 32/4/2 28/5/2
f 31/6/3 30/7/3 32/8/3
f 26/9/4 32/10/4 30/11/4
f 25/3/5 28/5/5 26/9/5
f 29/12/6 26/9/6 30/7/6
f 29/1/1 31/13/1 27/2/1
f 27/2/2 31/14/2 32/4/2
f 31/6/3 29/12/3 30/7/3
f 26/9/4 28/5/4 32/10/4
f 25/3/5 27/2/5 28/5/5
f 29/12/6 25/3/6 26/9/6
usemtl Material.004
f 37/1/1 35/2/1 33/3/1
f 35/2/2 40/4/2 36/5/2
f 39/6/3 38/7/3 40/8/3
f 34/9/4 40/10/4 38/11/4
f 33/3/5 36/5/5 34/9/5
f 37/12/6 34/9/6 38/7/6
f 37/1/1 39/13/1 35/2/1
f 35/2/2 39/14/2 40/4/2
f 39/6/3 37/12/3 38/7/3
f 34/9/4 36/5/4 40/10/4
f 33/3/5 35/2/5 36/5/5
f 37/12/6 33/3/6 34/9/6
usemtl Material.005
f 45/1/2 43/2/2 41/3/2
f 43/2/4 48/4/4 44/5/4
f 48/8/3 45/12/3 46/7/3
f 42/9/6 48/10/6 46/11/6
f 41/3/5 44/5/5 42/9/5
f 45/12/1 42/9/1 46/7/1
f 45/1/2 47/13/2 43/2/2
f 43/2/4 47/14/4 48/4/4
f 48/8/3 47/6/3 45/12/3
f 42/9/6 44/5/6 48/10/6
f 41/3/5 43/2/5 44/5/5
f 45/12/1 41/3/1 42/9/1
