# Blender 4.2.3 LTS
# www.blender.org
mtllib window4.mtl
o Cube
v 5.020416 -0.100000 -5.220047
v -5.020416 -0.100000 -5.220046
v 5.020416 -0.100000 -5.020046
v -5.020416 -0.100000 -5.020046
v 5.020416 0.100000 -5.220047
v -5.020416 0.100000 -5.220046
v 5.020416 0.100000 -5.020046
v -5.020416 0.100000 -5.020046
v 4.770209 9.863370 -5.170046
v 4.770210 0.014225 -5.170046
v 4.970208 9.863370 -5.170046
v 4.970209 0.014225 -5.170046
v 4.770209 9.863370 -5.070046
v 4.770210 0.014225 -5.070046
v 4.970208 9.863370 -5.070046
v 4.970209 0.014225 -5.070046
v -4.949929 9.820540 -5.170046
v -4.949928 0.014166 -5.170046
v -4.749929 9.820540 -5.170046
v -4.749928 0.014166 -5.170046
v -4.949929 9.820540 -5.070046
v -4.949928 0.014166 -5.070046
v -4.749929 9.820540 -5.070046
v -4.749928 0.014166 -5.070046
v 5.049450 8.802442 -5.220047
v -5.049451 8.802442 -5.220046
v 5.049450 8.802442 -5.020046
v -5.049451 8.802442 -5.020046
v 5.049450 9.002441 -5.220047
v -5.049451 9.002441 -5.220046
v 5.049450 9.002441 -5.020046
v -5.049451 9.002441 -5.020046
v 5.005707 5.136644 -5.165183
v -4.955873 5.136643 -5.165182
v 5.005707 4.967265 -5.165183
v -4.955873 4.967264 -5.165182
v 5.005707 5.136644 -5.074910
v -4.955873 5.136643 -5.074910
v 5.005707 4.967265 -5.074910
v -4.955873 4.967264 -5.074910
v -0.061726 9.854701 -5.155182
v -0.061725 0.219472 -5.155182
v 0.078274 9.854701 -5.155182
v 0.078275 0.219472 -5.155182
v -0.061726 9.854701 -5.084910
v -0.061725 0.219472 -5.084910
v 0.078274 9.854701 -5.084910
v 0.078275 0.219472 -5.084910
v -2.553503 9.854701 -5.155182
v -2.553503 0.219472 -5.155182
v -2.413503 9.854701 -5.155182
v -2.413503 0.219472 -5.155182
v -2.553503 9.854701 -5.084910
v -2.553503 0.219472 -5.084910
v -2.413503 9.854701 -5.084910
v -2.413503 0.219472 -5.084910
v 2.398106 9.854701 -5.155182
v 2.398107 0.219472 -5.155182
v 2.538106 9.854701 -5.155182
v 2.538106 0.219472 -5.155182
v 2.398106 9.854701 -5.084910
v 2.398107 0.219472 -5.084910
v 2.538106 9.854701 -5.084910
v 2.538106 0.219472 -5.084910
vn 1.0000 -0.0000 -0.0000
vn -0.0000 -0.0000 1.0000
vn -0.0000 1.0000 -0.0000
vn -1.0000 -0.0000 -0.0000
vn -0.0000 -1.0000 -0.0000
vn -0.0000 -0.0000 -1.0000
vt 0.875000 0.500000
vt 0.625000 0.750000
vt 0.625000 0.500000
vt 0.375000 1.000000
vt 0.375000 0.750000
vt 0.625000 0.000000
vt 0.375000 0.250000
vt 0.375000 0.000000
vt 0.375000 0.500000
vt 0.125000 0.750000
vt 0.125000 0.500000
vt 0.625000 0.250000
vt 0.875000 0.750000
vt 0.625000 1.000000
s 0
usemtl Material.001
f 5/1/1 3/2/1 1/3/1
f 3/2/2 8/4/2 4/5/2
f 7/6/3 6/7/3 8/8/3
f 2/9/4 8/10/4 6/11/4
f 1/3/5 4/5/5 2/9/5
f 5/12/6 2/9/6 6/7/6
f 5/1/1 7/13/1 3/2/1
f 3/2/2 7/14/2 8/4/2
f 7/6/3 5/12/3 6/7/3
f 2/9/4 4/5/4 8/10/4
f 1/3/5 3/2/5 4/5/5
f 5/12/6 1/3/6 2/9/6
usemtl Material.002
f 13/1/3 11/2/3 9/3/3
f 11/2/1 16/4/1 12/5/1
f 15/6/2 14/7/2 16/8/2
f 10/9/5 16/10/5 14/11/5
f 9/3/6 12/5/6 10/9/6
f 13/12/4 10/9/4 14/7/4
f 13/1/3 15/13/3 11/2/3
f 11/2/1 15/14/1 16/4/1
f 15/6/2 13/12/2 14/7/2
f 10/9/5 12/5/5 16/10/5
f 9/3/6 11/2/6 12/5/6
f 13/12/4 9/3/4 10/9/4
usemtl Material.003
f 21/1/3 19/2/3 17/3/3
f 19/2/1 24/4/1 20/5/1
f 23/6/2 22/7/2 24/8/2
f 18/9/5 24/10/5 22/11/5
f 17/3/6 20/5/6 18/9/6
f 21/12/4 18/9/4 22/7/4
f 21/1/3 23/13/3 19/2/3
f 19/2/1 23/14/1 24/4/1
f 23/6/2 21/12/2 22/7/2
f 18/9/5 20/5/5 24/10/5
f 17/3/6 19/2/6 20/5/6
f 21/12/4 17/3/4 18/9/4
usemtl Material.020
f 29/1/1 27/2/1 25/3/1
f 27/2/2 32/4/2 28/5/2
f 31/6/3 30/7/3 32/8/3
f 26/9/4 32/10/4 30/11/4
f 25/3/5 28/5/5 26/9/5
f 29/12/6 26/9/6 30/7/6
f 29/1/1 31/13/1 27/2/1
f 27/2/2 31/14/2 32/4/2
f 31/6/3 29/12/3 30/7/3
f 26/9/4 28/5/4 32/10/4
f 25/3/5 27/2/5 28/5/5
f 29/12/6 25/3/6 26/9/6
usemtl Material.006
f 37/1/1 35/2/1 33/3/1
f 35/2/5 40/4/5 36/5/5
f 39/6/2 38/7/2 40/8/2
f 34/9/4 40/10/4 38/11/4
f 33/3/6 36/5/6 34/9/6
f 37/12/3 34/9/3 38/7/3
f 37/1/1 39/13/1 35/2/1
f 35/2/5 39/14/5 40/4/5
f 39/6/2 37/12/2 38/7/2
f 34/9/4 36/5/4 40/10/4
f 33/3/6 35/2/6 36/5/6
f 37/12/3 33/3/3 34/9/3
usemtl Material.017
f 45/1/3 43/2/3 41/3/3
f 43/2/1 48/4/1 44/5/1
f 47/6/2 46/7/2 48/8/2
f 42/9/5 48/10/5 46/11/5
f 41/3/6 44/5/6 42/9/6
f 45/12/4 42/9/4 46/7/4
f 45/1/3 47/13/3 43/2/3
f 43/2/1 47/14/1 48/4/1
f 47/6/2 45/12/2 46/7/2
f 42/9/5 44/5/5 48/10/5
f 41/3/6 43/2/6 44/5/6
f 45/12/4 41/3/4 42/9/4
usemtl Material.004
f 53/1/3 51/2/3 49/3/3
f 51/2/1 56/4/1 52/5/1
f 55/6/2 54/7/2 56/8/2
f 50/9/5 56/10/5 54/11/5
f 49/3/6 52/5/6 50/9/6
f 53/12/4 50/9/4 54/7/4
f 53/1/3 55/13/3 51/2/3
f 51/2/1 55/14/1 56/4/1
f 55/6/2 53/12/2 54/7/2
f 50/9/5 52/5/5 56/10/5
f 49/3/6 51/2/6 52/5/6
f 53/12/4 49/3/4 50/9/4
usemtl Material.005
f 61/1/3 59/2/3 57/3/3
f 59/2/1 64/4/1 60/5/1
f 63/6/2 62/7/2 64/8/2
f 58/9/5 64/10/5 62/11/5
f 57/3/6 60/5/6 58/9/6
f 61/12/4 58/9/4 62/7/4
f 61/1/3 63/13/3 59/2/3
f 59/2/1 63/14/1 64/4/1
f 63/6/2 61/12/2 62/7/2
f 58/9/5 60/5/5 64/10/5
f 57/3/6 59/2/6 60/5/6
f 61/12/4 57/3/4 58/9/4
o Cube.001
v 5.264985 -0.100000 5.014575
v 5.264985 -0.100000 -5.026258
v 5.064985 -0.100000 5.014575
v 5.064985 -0.100000 -5.026258
v 5.264985 0.100000 5.014575
v 5.264985 0.100000 -5.026258
v 5.064985 0.100000 5.014575
v 5.064985 0.100000 -5.026258
v 5.214985 9.863370 4.764368
v 5.214985 0.014225 4.764369
v 5.214985 9.863370 4.964367
v 5.214985 0.014225 4.964368
v 5.114985 9.863370 4.764368
v 5.114985 0.014225 4.764369
v 5.114985 9.863370 4.964367
v 5.114985 0.014225 4.964368
v 5.214985 9.820540 -4.955770
v 5.214985 0.014166 -4.955770
v 5.214985 9.820540 -4.755771
v 5.214985 0.014166 -4.755770
v 5.114985 9.820540 -4.955770
v 5.114985 0.014166 -4.955770
v 5.114985 9.820540 -4.755771
v 5.114985 0.014166 -4.755770
v 5.264985 8.802442 5.043609
v 5.264985 8.802442 -5.055293
v 5.064985 8.802442 5.043609
v 5.064985 8.802442 -5.055293
v 5.264985 9.002441 5.043609
v 5.264985 9.002441 -5.055293
v 5.064985 9.002441 5.043609
v 5.064985 9.002441 -5.055293
v 5.210121 5.136644 4.999866
v 5.210121 5.136643 -4.961715
v 5.210121 4.967265 4.999866
v 5.210121 4.967264 -4.961715
v 5.119849 5.136644 4.999866
v 5.119849 5.136643 -4.961715
v 5.119849 4.967265 4.999866
v 5.119849 4.967264 -4.961715
v 5.200121 9.854701 -0.067567
v 5.200121 0.219472 -0.067566
v 5.200121 9.854701 0.072433
v 5.200121 0.219472 0.072434
v 5.129849 9.854701 -0.067567
v 5.129849 0.219472 -0.067566
v 5.129849 9.854701 0.072433
v 5.129849 0.219472 0.072434
v 5.200121 9.854701 -2.559344
v 5.200121 0.219472 -2.559344
v 5.200121 9.854701 -2.419344
v 5.200121 0.219472 -2.419344
v 5.129849 9.854701 -2.559344
v 5.129849 0.219472 -2.559344
v 5.129849 9.854701 -2.419344
v 5.129849 0.219472 -2.419344
v 5.200121 9.854701 2.392265
v 5.200121 0.219472 2.392266
v 5.200121 9.854701 2.532265
v 5.200121 0.219472 2.532265
v 5.129849 9.854701 2.392265
v 5.129849 0.219472 2.392266
v 5.129849 9.854701 2.532265
v 5.129849 0.219472 2.532265
vn -0.0000 -0.0000 1.0000
vn -1.0000 -0.0000 -0.0000
vn -0.0000 1.0000 -0.0000
vn -0.0000 -0.0000 -1.0000
vn -0.0000 -1.0000 -0.0000
vn 1.0000 -0.0000 -0.0000
vt 0.875000 0.500000
vt 0.625000 0.750000
vt 0.625000 0.500000
vt 0.375000 1.000000
vt 0.375000 0.750000
vt 0.625000 0.000000
vt 0.375000 0.250000
vt 0.375000 0.000000
vt 0.375000 0.500000
vt 0.125000 0.750000
vt 0.125000 0.500000
vt 0.625000 0.250000
vt 0.875000 0.750000
vt 0.625000 1.000000
s 0
usemtl Material.007
f 69/15/7 67/16/7 65/17/7
f 67/16/8 72/18/8 68/19/8
f 71/20/9 70/21/9 72/22/9
f 66/23/10 72/24/10 70/25/10
f 65/17/11 68/19/11 66/23/11
f 69/26/12 66/23/12 70/21/12
f 69/15/7 71/27/7 67/16/7
f 67/16/8 71/28/8 72/18/8
f 71/20/9 69/26/9 70/21/9
f 66/23/10 68/19/10 72/24/10
f 65/17/11 67/16/11 68/19/11
f 69/26/12 65/17/12 66/23/12
usemtl Material.008
f 77/15/9 75/16/9 73/17/9
f 75/16/7 80/18/7 76/19/7
f 79/20/8 78/21/8 80/22/8
f 74/23/11 80/24/11 78/25/11
f 73/17/12 76/19/12 74/23/12
f 77/26/10 74/23/10 78/21/10
f 77/15/9 79/27/9 75/16/9
f 75/16/7 79/28/7 80/18/7
f 79/20/8 77/26/8 78/21/8
f 74/23/11 76/19/11 80/24/11
f 73/17/12 75/16/12 76/19/12
f 77/26/10 73/17/10 74/23/10
usemtl Material.010
f 85/15/9 83/16/9 81/17/9
f 83/16/7 88/18/7 84/19/7
f 87/20/8 86/21/8 88/22/8
f 82/23/11 88/24/11 86/25/11
f 81/17/12 84/19/12 82/23/12
f 85/26/10 82/23/10 86/21/10
f 85/15/9 87/27/9 83/16/9
f 83/16/7 87/28/7 88/18/7
f 87/20/8 85/26/8 86/21/8
f 82/23/11 84/19/11 88/24/11
f 81/17/12 83/16/12 84/19/12
f 85/26/10 81/17/10 82/23/10
usemtl Material.012
f 93/15/7 91/16/7 89/17/7
f 91/16/8 96/18/8 92/19/8
f 95/20/9 94/21/9 96/22/9
f 90/23/10 96/24/10 94/25/10
f 89/17/11 92/19/11 90/23/11
f 93/26/12 90/23/12 94/21/12
f 93/15/7 95/27/7 91/16/7
f 91/16/8 95/28/8 96/18/8
f 95/20/9 93/26/9 94/21/9
f 90/23/10 92/19/10 96/24/10
f 89/17/11 91/16/11 92/19/11
f 93/26/12 89/17/12 90/23/12
usemtl Material.013
f 101/15/7 99/16/7 97/17/7
f 99/16/11 104/18/11 100/19/11
f 103/20/8 102/21/8 104/22/8
f 98/23/10 104/24/10 102/25/10
f 97/17/12 100/19/12 98/23/12
f 101/26/9 98/23/9 102/21/9
f 101/15/7 103/27/7 99/16/7
f 99/16/11 103/28/11 104/18/11
f 103/20/8 101/26/8 102/21/8
f 98/23/10 100/19/10 104/24/10
f 97/17/12 99/16/12 100/19/12
f 101/26/9 97/17/9 98/23/9
usemtl Material.014
f 109/15/9 107/16/9 105/17/9
f 107/16/7 112/18/7 108/19/7
f 111/20/8 110/21/8 112/22/8
f 106/23/11 112/24/11 110/25/11
f 105/17/12 108/19/12 106/23/12
f 109/26/10 106/23/10 110/21/10
f 109/15/9 111/27/9 107/16/9
f 107/16/7 111/28/7 112/18/7
f 111/20/8 109/26/8 110/21/8
f 106/23/11 108/19/11 112/24/11
f 105/17/12 107/16/12 108/19/12
f 109/26/10 105/17/10 106/23/10
usemtl Material.016
f 117/15/9 115/16/9 113/17/9
f 115/16/7 120/18/7 116/19/7
f 119/20/8 118/21/8 120/22/8
f 114/23/11 120/24/11 118/25/11
f 113/17/12 116/19/12 114/23/12
f 117/26/10 114/23/10 118/21/10
f 117/15/9 119/27/9 115/16/9
f 115/16/7 119/28/7 120/18/7
f 119/20/8 117/26/8 118/21/8
f 114/23/11 116/19/11 120/24/11
f 113/17/12 115/16/12 116/19/12
f 117/26/10 113/17/10 114/23/10
usemtl Material.018
f 125/15/9 123/16/9 121/17/9
f 123/16/7 128/18/7 124/19/7
f 127/20/8 126/21/8 128/22/8
f 122/23/11 128/24/11 126/25/11
f 121/17/12 124/19/12 122/23/12
f 125/26/10 122/23/10 126/21/10
f 125/15/9 127/27/9 123/16/9
f 123/16/7 127/28/7 128/18/7
f 127/20/8 125/26/8 126/21/8
f 122/23/11 124/19/11 128/24/11
f 121/17/12 123/16/12 124/19/12
f 125/26/10 121/17/10 122/23/10
